<svg id="Grupo_1073723" data-name="Grupo 1073723" xmlns="http://www.w3.org/2000/svg" xmlns:xlink="http://www.w3.org/1999/xlink" width="58.727" height="59.107" viewBox="0 0 58.727 59.107">
  <defs>
    <clipPath id="clip-path">
      <rect id="Rectángulo_378433" data-name="Rectángulo 378433" width="58.727" height="59.107" fill="#fff"/>
    </clipPath>
  </defs>
  <g id="Grupo_1073722" data-name="Grupo 1073722" clip-path="url(#clip-path)">
    <path id="Trazado_615195" data-name="Trazado 615195" d="M244.976,123.721c-.011.274.187.175.224.217-.055-.461-.276-.2-.224-.217" transform="translate(-186.473 -94.133)" fill="#fff"/>
    <path id="Trazado_615196" data-name="Trazado 615196" d="M240.861,103.629l.094.065-.312-.612Z" transform="translate(-183.181 -78.467)" fill="#fff"/>
    <path id="Trazado_615197" data-name="Trazado 615197" d="M237.456,88.411c-.22.475.486,1.428.516,2.188l-.048.136.343.267c-.128-.436-.284-.933-.453-1.39a6.488,6.488,0,0,1-.358-1.2" transform="translate(-180.723 -67.3)" fill="#fff"/>
    <path id="Trazado_615198" data-name="Trazado 615198" d="M236.948,78.437c-.072.18-.286-.415.156.509a.884.884,0,0,1,0-.1c-.036-.085-.082-.2-.152-.407" transform="translate(-180.28 -59.688)" fill="#fff"/>
    <path id="Trazado_615199" data-name="Trazado 615199" d="M237.953,79.966c.174.415,0-.314,0,0" transform="translate(-181.133 -60.81)" fill="#fff"/>
    <path id="Trazado_615200" data-name="Trazado 615200" d="M234.25,71.293l.352.49c.021-.144-.181-.634-.049-.479-.311-.53-.329-.379-.3-.011" transform="translate(-178.308 -54.016)" fill="#fff"/>
    <path id="Trazado_615201" data-name="Trazado 615201" d="M232.343,70.691c.062.082.122.166.177.251.008-.063-.013-.142-.177-.251" transform="translate(-176.863 -53.811)" fill="#fff"/>
    <path id="Trazado_615202" data-name="Trazado 615202" d="M233.356,72.288l-.362-.544c-.015.1-.111.156.157.254-.113-.005.027.069.206.29" transform="translate(-177.336 -54.613)" fill="#fff"/>
    <path id="Trazado_615203" data-name="Trazado 615203" d="M234.552,75.507c.072.329.18.74-.151.245.237.5.383.7.426.642a1.694,1.694,0,0,0-.275-.887" transform="translate(-178.429 -57.477)" fill="#fff"/>
    <path id="Trazado_615204" data-name="Trazado 615204" d="M235.9,88.008c.014.145.03.29.034.437l.211.323a1.742,1.742,0,0,1-.12-.463c-.036-.177-.079-.325-.125-.3" transform="translate(-179.571 -66.99)" fill="#fff"/>
    <path id="Trazado_615205" data-name="Trazado 615205" d="M227.2,58.439c-.081.008-.057.27-.112.356.1.106.2.218.3.33-.063-.223-.259-.6-.183-.685" transform="translate(-172.859 -44.485)" fill="#fff"/>
    <path id="Trazado_615206" data-name="Trazado 615206" d="M225.631,58.4l-.455-.48c.3.494.407.552.455.48" transform="translate(-171.407 -44.088)" fill="#fff"/>
    <path id="Trazado_615207" data-name="Trazado 615207" d="M230.418,70.434c.245.269.453.56.683.843-.254-.347-.5-.694-.778-1.022Z" transform="translate(-175.325 -53.479)" fill="#fff"/>
    <path id="Trazado_615208" data-name="Trazado 615208" d="M220.875,49.188c.12.065.235.135.353.2l-.295-.2-.306-.184Z" transform="translate(-167.944 -37.308)" fill="#fff"/>
    <path id="Trazado_615209" data-name="Trazado 615209" d="M214.728,41.189c.288.12-.068-.438.189-.272a4.405,4.405,0,0,0-.973-.731,3.108,3.108,0,0,1,.784,1" transform="translate(-162.857 -30.59)" fill="#fff"/>
    <path id="Trazado_615210" data-name="Trazado 615210" d="M211.783,38.867a5.459,5.459,0,0,0,.516.315,2.7,2.7,0,0,0-.516-.315" transform="translate(-161.212 -29.586)" fill="#fff"/>
    <path id="Trazado_615211" data-name="Trazado 615211" d="M222.261,52.287a.775.775,0,0,0-.128-.537l-.017.328.145.21" transform="translate(-169.078 -39.393)" fill="#fff"/>
    <path id="Trazado_615212" data-name="Trazado 615212" d="M221.128,51.681v-.011l-.31-.455.31.467" transform="translate(-168.09 -38.985)" fill="#fff"/>
    <path id="Trazado_615213" data-name="Trazado 615213" d="M222.76,54.053,222.723,54c0,.032,0,.048.037.053" transform="translate(-169.54 -41.106)" fill="#fff"/>
    <path id="Trazado_615214" data-name="Trazado 615214" d="M226.151,62.849c-.288-.273-.781-.884-.555-.142.255.163.124-.264.555.142" transform="translate(-171.683 -47.464)" fill="#fff"/>
    <path id="Trazado_615215" data-name="Trazado 615215" d="M222.762,55.9c.119.194.222.4.334.6.038-.04.037-.187.186-.06-.174-.18-.34-.364-.52-.537" transform="translate(-169.57 -42.555)" fill="#fff"/>
    <path id="Trazado_615216" data-name="Trazado 615216" d="M221.729,54.918l.247.235-.132-.216Z" transform="translate(-168.784 -41.805)" fill="#fff"/>
    <path id="Trazado_615217" data-name="Trazado 615217" d="M212.161,40.969a2.388,2.388,0,0,1-.37-.3c-.122-.111-.247-.231-.378-.36.248.307.5.629.747.921.084,0,.283.053,0-.262" transform="translate(-160.931 -30.685)" fill="#fff"/>
    <path id="Trazado_615218" data-name="Trazado 615218" d="M218.137,47.788l-.05-.045c.011.043.027.072.05.045" transform="translate(-166.011 -36.343)" fill="#fff"/>
    <path id="Trazado_615219" data-name="Trazado 615219" d="M200.428,29.923c.007.023.013.043.02.066a.326.326,0,0,1,.032-.018Z" transform="translate(-152.569 -22.778)" fill="#fff"/>
    <path id="Trazado_615220" data-name="Trazado 615220" d="M214.452,44.242a1.2,1.2,0,0,0,.474.436c-.16-.154-.323-.322-.489-.511-.038,0-.055.01.014.075" transform="translate(-163.207 -33.621)" fill="#fff"/>
    <path id="Trazado_615221" data-name="Trazado 615221" d="M208.522,36.1c.083.136.184.284.285.443-.055-.157-.207-.444-.285-.443" transform="translate(-158.73 -27.484)" fill="#fff"/>
    <path id="Trazado_615222" data-name="Trazado 615222" d="M218.012,47.126c.012.01.023.018.035.029-.026-.1-.035-.081-.035-.029" transform="translate(-165.954 -35.84)" fill="#fff"/>
    <path id="Trazado_615223" data-name="Trazado 615223" d="M216.93,46.534a2.209,2.209,0,0,0-.34-.229,4.528,4.528,0,0,0,.357.343.459.459,0,0,1-.018-.114" transform="translate(-164.871 -35.248)" fill="#fff"/>
    <path id="Trazado_615224" data-name="Trazado 615224" d="M191.825,29.514c.077-.059.29-.008.532.128a1.816,1.816,0,0,1,.685.655c.572.308.676-.426.461-1.072-.07.053-.111.1-.712-.228.134.215.983,1.14.447.9a2.155,2.155,0,0,1-.565-.482,2.413,2.413,0,0,0-.22-.374c.071.205-.2.1-.5-.007s-.625-.195-.649,0c.233.109.452.237.676.361-.022.051-.29-.05-.155.119" transform="translate(-145.623 -22.014)" fill="#fff"/>
    <path id="Trazado_615225" data-name="Trazado 615225" d="M201.578,30.972l.218.175a5.368,5.368,0,0,1-.55-.839c-.415-.237-.532-.246-.6-.219.339.31.688.608,1.017.927Z" transform="translate(-152.737 -22.897)" fill="#fff"/>
    <path id="Trazado_615226" data-name="Trazado 615226" d="M206.352,35.424c-.292-.02-.841-.4-.7.032.584.555.517.282.92.568-.942-.914.344.194-.229-.575.2.163.374.325.532.479-.146-.19-.283-.378-.405-.561l.012.031.005,0h0c.021.059.023.084-.011.027a.12.12,0,0,1-.022-.017.192.192,0,0,1-.1.011c-.234-.307,0-.081.1-.011.01,0,.024,0,.033-.01a.013.013,0,0,0,0-.005c-.329-.3-.688-.563-1.03-.844.181.217.447.445.9.872" transform="translate(-156.392 -26.301)" fill="#fff"/>
    <path id="Trazado_615227" data-name="Trazado 615227" d="M222.569,61.994c-.006-.043.007-.049.019-.06-.066-.056-.1-.074-.019.06" transform="translate(-169.387 -47.113)" fill="#fff"/>
    <path id="Trazado_615228" data-name="Trazado 615228" d="M221.927,57.6a.824.824,0,0,1,.332.352c.09.255-.085.051-.134.1.146.123.465.468.247-.074l-.073-.062a2.682,2.682,0,0,1-.3-1.122,1.853,1.853,0,0,0-.074.808" transform="translate(-168.925 -43.225)" fill="#fff"/>
    <path id="Trazado_615229" data-name="Trazado 615229" d="M213.492,46.518c-.244-.268-.512-.514-.772-.765l.223.53.064-.09c.359.5.37.319.485.325" transform="translate(-161.925 -34.828)" fill="#fff"/>
    <path id="Trazado_615230" data-name="Trazado 615230" d="M198.888,28.495l.25-.071c-.225-.066-.464-.111-.693-.165Z" transform="translate(-151.059 -21.511)" fill="#fff"/>
    <path id="Trazado_615231" data-name="Trazado 615231" d="M194.788,24.806l.155-.118c-.124-.048-.252-.088-.377-.132Z" transform="translate(-148.106 -18.692)" fill="#fff"/>
    <path id="Trazado_615232" data-name="Trazado 615232" d="M23.312,182.9l.2.232a2,2,0,0,0-.2-.232" transform="translate(-17.745 -139.223)" fill="#fff"/>
    <path id="Trazado_615233" data-name="Trazado 615233" d="M18.692,174.867l-.108-.006c.092.067.145.087.108.006" transform="translate(-14.146 -133.107)" fill="#fff"/>
    <path id="Trazado_615234" data-name="Trazado 615234" d="M53.257,19.6c-.491.1-1.094.167-.928.313l.237.094a2.468,2.468,0,0,1,.69-.406" transform="translate(-39.812 -14.923)" fill="#fff"/>
    <path id="Trazado_615235" data-name="Trazado 615235" d="M5.032,100.035l.085-.118-.125-.34c.013.139.018.293.04.458" transform="translate(-3.8 -75.799)" fill="#fff"/>
    <path id="Trazado_615236" data-name="Trazado 615236" d="M7.709,103.478l-.234.549a3.459,3.459,0,0,0,.234-.549" transform="translate(-5.69 -78.769)" fill="#fff"/>
    <path id="Trazado_615237" data-name="Trazado 615237" d="M57.472,217.653c.134.009.266.019.4.02-.447-.3-.309-.083-.4-.02" transform="translate(-43.748 -165.578)" fill="#fff"/>
    <path id="Trazado_615238" data-name="Trazado 615238" d="M135.807,1.78a6.225,6.225,0,0,0-1-.252c.478.18.843.407,1,.252" transform="translate(-102.62 -1.163)" fill="#fff"/>
    <path id="Trazado_615239" data-name="Trazado 615239" d="M13.468,184.18c.132.154.21.206.248.178-.132-.159-.224-.24-.248-.178" transform="translate(-10.252 -140.185)" fill="#fff"/>
    <path id="Trazado_615240" data-name="Trazado 615240" d="M129.875.948c.07.026.14.042.212.065a4.834,4.834,0,0,1,.966.033,1.934,1.934,0,0,0-1.179-.1" transform="translate(-98.863 -0.682)" fill="#fff"/>
    <path id="Trazado_615241" data-name="Trazado 615241" d="M215.755,188.224c.025-.021.049-.05.073-.068-.018-.024-.042.012-.073.068" transform="translate(-164.236 -143.222)" fill="#fff"/>
    <path id="Trazado_615242" data-name="Trazado 615242" d="M242.671,141.15c0,.133-.031.348-.054.55a2.525,2.525,0,0,0,.054-.55" transform="translate(-184.683 -107.445)" fill="#fff"/>
    <path id="Trazado_615243" data-name="Trazado 615243" d="M174.94,12.729c.282.121.055,0,0,0" transform="translate(-133.167 -9.689)" fill="#fff"/>
    <path id="Trazado_615244" data-name="Trazado 615244" d="M178.374,18.562c-.067-.008-.124,0-.154.035a.205.205,0,0,1,.154-.035" transform="translate(-135.664 -14.127)" fill="#fff"/>
    <path id="Trazado_615245" data-name="Trazado 615245" d="M117.24,6.3h-.025c.088.038.073.031.025,0" transform="translate(-89.226 -4.797)" fill="#fff"/>
    <path id="Trazado_615246" data-name="Trazado 615246" d="M175.465,13.2a3.277,3.277,0,0,0-.321-.233c.05.042.147.115.321.233" transform="translate(-133.322 -9.874)" fill="#fff"/>
    <path id="Trazado_615247" data-name="Trazado 615247" d="M176.441,13.461l.229.14c.05-.013.029-.048-.229-.14" transform="translate(-134.309 -10.247)" fill="#fff"/>
    <path id="Trazado_615248" data-name="Trazado 615248" d="M173.293,12.034a4.288,4.288,0,0,1,.442.224c-.049-.037-.067-.058-.049-.058l-.393-.166" transform="translate(-131.913 -9.16)" fill="#fff"/>
    <path id="Trazado_615249" data-name="Trazado 615249" d="M136.648,239.689c.02,0,.042.005.064.012.275-.122.151-.092-.064-.012" transform="translate(-104.018 -182.401)" fill="#fff"/>
    <path id="Trazado_615250" data-name="Trazado 615250" d="M37.265,46.707c.008-.011.008-.02.015-.03l-.034.025Z" transform="translate(-28.352 -35.531)" fill="#fff"/>
    <path id="Trazado_615251" data-name="Trazado 615251" d="M34.561,47.15a1.157,1.157,0,0,1,.539-.864c-.223-.054-.45-.109-.673-.156q.061.517.134,1.02" transform="translate(-26.206 -35.115)" fill="#fff"/>
    <path id="Trazado_615252" data-name="Trazado 615252" d="M8.67,47.822l-.321-.655c.786.443,1.1.961.87.3-.137.09-.319.009-.525-.157a4.564,4.564,0,0,1-.651-.68,6.723,6.723,0,0,0-.632-.7c-.189-.185-.364-.284-.51-.21l-.159-.459c.072.112.116.107.187.218-.27-.908-.772-.285-1.338-1.33-.174-.376-.226-.676-.024-.472l-.594-.711c-.119-.238.01-.234.131,0-.242-.4-.457-.806-.688-1.209h.022a5.562,5.562,0,0,1-.66-.655c-.062-.363.137.135.173.018-.152-.215-.314-.427-.46-.647.02-.18.126-.134.25.016a2.392,2.392,0,0,1,.383.648c.147-.461.045-.584-.13-.8a2.321,2.321,0,0,1-.5-1.3c.1.218.226.429.337.643a1.63,1.63,0,0,0-.015-.832,6.757,6.757,0,0,1-.162-1.039c-.056.207-.028,1.721-.446.99a2.033,2.033,0,0,0-.372-.928c.219-.072.046-.476-.117-1l.305-.044a1.531,1.531,0,0,0-.3-.474,1.621,1.621,0,0,1-.283-.3.955.955,0,0,1,.251-1.024c-.136-1.042-.245.79-.52-.43a5.025,5.025,0,0,0-.065-.621A5.883,5.883,0,0,0,2,33.4c-.088-.389-.228-.794-.35-1.318.058-.627.195.093.265-.135l-.285-.53c0-.135.074-.1.113-.075-.119-.458-.309-.021-.414-.754-.167-.095-.066-.479.056-.944a2.554,2.554,0,0,0,.086-1.473c.1-.218.179.118.3.057-.078-.623-.1-.893-.141-1.136s-.069-.458-.173-.991c.1-.282.2-.562.326-.836-.34.6-.464-.251-.553-1.023-.15.208-.28.388-.35.513.014-.4.028-.8.072-1.2.081-.129.156.011.238.227-.006-.084-.014-.164-.023-.227.205-.387.327-.131.427.2l-.279.371c.131.323.286.622.472.6a1.373,1.373,0,0,1-.015-.387c.036.083.072.138.108.11s-.013-.164-.043-.362l.391-.182-.118-.09c.18-.47.357-.937.57-1.391-.01-.278-.033-.554-.052-.837s-.016-.568-.01-.876c0-.154.009-.313.02-.478s.041-.331.07-.508A7.025,7.025,0,0,1,3,18.565c.052.492.337.244.6.383-.24.15-.324.476-.406.854l-.125.6a3.2,3.2,0,0,1-.181.624c.178-.425.279-.281.288-.156.065-.527.185-1.039.285-1.564.209.124.287-.242.552-.569-.282.044-.235-.254-.1-.647.034-.1.073-.2.115-.308l.139-.311a3.96,3.96,0,0,0,.213-.565c.16.04.236.252-.153.926a1.01,1.01,0,0,0,.352-.924,1.012,1.012,0,0,1,.344-.925c-.092.168-.165.246-.132.351a2.666,2.666,0,0,1,.407-.811c.174-.242.348-.38.336-.236l-.1.162c.183-.259.4-.59.629-.948s.487-.721.7-1.077c.455-.693.8-1.312.709-1.513a1.95,1.95,0,0,1,.286.552,26.674,26.674,0,0,1,.509-2.622c.115.385,1.238.411.659,1.3a3.573,3.573,0,0,0,.4-.341,5.126,5.126,0,0,0,.493-.6c-.183.1-.725,0-.545-.222a9.032,9.032,0,0,0,1.456-.628c-.282.145-.391-.484,0-.8,0,.112.383.383.286.542l.283-.6c.1-.2.2-.391.308-.589-.181.265.244.388.547.342-.081,0,.125-.162.378-.35a7.624,7.624,0,0,0,.687-.5l-.489.2a2.3,2.3,0,0,0,.923-1.06,2.989,2.989,0,0,1,.32-.527,1.978,1.978,0,0,1,.64-.526c-.091.181,0,.788.628.5a7.266,7.266,0,0,1,.471-1.17,3.841,3.841,0,0,1,1.191-1.415l.285.043c.269-.186.537-.379.818-.547-.208.293-.6.833-1.009,1.359-.209.258-.408.546-.6.794s-.374.474-.525.652c.509-.126.213.1.88-.261.3.01-.265.387-.457.495.534-.237,1.061-.482,1.609-.681-.1-.13.17-.342.449-.549s.579-.38.5-.493c-.564.326-1.1.711-1.629,1.068-.1-.128.048-.447.385-.8a3.385,3.385,0,0,1,.632-.521,4.26,4.26,0,0,1,.842-.4c.347,0-.024.624.042.713a1.9,1.9,0,0,1,.58-.367,1.809,1.809,0,0,1,.606-.2l-.449.333a2.037,2.037,0,0,0,.846-.423,1.521,1.521,0,0,1,1.006-.281c.285-.07.937.184.94-.01-.54-.252-.93-1.324-.669-1.667.055,0,.469-.006.911,0a5.509,5.509,0,0,1,.647.04A2.791,2.791,0,0,1,24,1.784c.53.2-.6.8-.144.972,0-.089.243-.242.347-.3.315.02-.079.29.569.134.061-.338,1.352-.144.273-.313a2.167,2.167,0,0,1,.686-.09,6.951,6.951,0,0,0,.778-.024c-.132-.1.024-.287.3-.473a2.726,2.726,0,0,1,1.012-.423c-.036.084.119.188.193.235.343,0,.646.006.928.017s.541.052.8.078l.777.078c.267.035.55.066.867.091.111.085.709.233.436.348a1.867,1.867,0,0,1,.751-.083c.709.374-.864-.066-.336.342.068-.176,1.027-.15,1.591-.151-.059-.154-.374-.24-.747-.248A10.342,10.342,0,0,0,32,2.027c.02-.2.282-.375.716-.5a4.156,4.156,0,0,1,.77-.143,8.464,8.464,0,0,1,.959-.011c.546.041.644.149.635.214s-.128.121-.031.113a4.861,4.861,0,0,0,1.14.186,4.206,4.206,0,0,0,.716-.019,2.569,2.569,0,0,1,.651.006,2.971,2.971,0,0,1,.908.351c.554.459-.14.492-.059.715a3.8,3.8,0,0,1-1-.381,4.457,4.457,0,0,0-.8-.34l.667.316a2.881,2.881,0,0,1-1.149-.248,2.893,2.893,0,0,0,.726.318l.577.185.655.23c.227.081.464.158.7.248l.687.288a7.747,7.747,0,0,1,1.188.614c.283.033.753.148.593-.037l-.461-.169c-.327-.375.964.122.437-.223a9.12,9.12,0,0,1,1.063.274,4.872,4.872,0,0,1,.572.227,4.267,4.267,0,0,1,.57.361l.006.341c.027-.083-.444-.458-.717-.509a2.441,2.441,0,0,1,.745.544,2.608,2.608,0,0,0,.429.309.638.638,0,0,0,.425.1c-.149-.174-.295-.356-.454-.52.331.1.7.22,1.087.361a3.239,3.239,0,0,1,1.08.624c-.149-.459-.174-.087-.48-.712.209.63-1.826-1.187-1.35-.361a1.8,1.8,0,0,0-.612-.668,4.454,4.454,0,0,1-.782-.69c-.022.1.17.295-.445-.074a.749.749,0,0,1-.178,0l-.04-.028.03.028c-.034,0-.038,0,.011.01a.925.925,0,0,1,.257.3,2.83,2.83,0,0,1-.911-.229,7.027,7.027,0,0,0-.9-.272c-.362-.214.2-.03.037-.218-.195-.027-.39-.05-.589-.063.033-.218-.91-.742.065-.493l-.834-.339a4.343,4.343,0,0,0-1.595-.624c-.4-.162-1.1-.065-.7-.126-.233-.042-.464-.088-.7-.125l-.7-.094V1.027A15.067,15.067,0,0,0,33.488.733a9.856,9.856,0,0,1-2.263-.4c-.236.01-.474.02-.751.018a7.234,7.234,0,0,1-.982-.039l-.15-.189c-.3.016-.754-.012-1.165-.033a1.679,1.679,0,0,0-.9.085A1.535,1.535,0,0,0,26.506,0c-.163-.005-.34,0-.525.011s-.377.046-.573.076c-.39.066-.793.129-1.16.211a8.565,8.565,0,0,1-.971.176l.007.245a7.384,7.384,0,0,0-1.068.268c-.181.056-.367.117-.561.182s-.39.153-.6.237l.11.191a6.042,6.042,0,0,1-1.373.409c-.271.061-.557.123-.847.2a7.846,7.846,0,0,0-.861.3c.047-.106.345-.2.567-.235a3.4,3.4,0,0,0-1.1.269,8.235,8.235,0,0,0-1,.563c-.326.2-.628.426-.941.608a4.156,4.156,0,0,1-.958.42,1.641,1.641,0,0,1-.7.4.317.317,0,0,0,.065-.051c-.031.015-.075.04-.119.066a4.3,4.3,0,0,0-.452.143,3.272,3.272,0,0,0,.389-.106,7.13,7.13,0,0,0-.818.618l-.262-.1-.071.053c-.363.132-.191.252.071.289a2.131,2.131,0,0,0-.333.4c-.228-.066-.413.1-.609.278a.933.933,0,0,1-.683.328,4.049,4.049,0,0,1-.72.815c-.314.353-.6.722-.542.939-.045-.031-.144.022.006-.112A2.6,2.6,0,0,0,9,8.906L8.67,8.818l-.193.456L8.3,9.74c-.507.274-.746.375-.527-.182-.168.3-.293.506-.392.662s-.166.268-.234.371a4.9,4.9,0,0,0-.489.932l-.112-.163c-.246.324-.442.984-.716,1.079a3.809,3.809,0,0,0-.782.811,7.651,7.651,0,0,0-.479.666l-.512.78C3.389,15.808,2.7,17.109,2.088,18.12c.35-.094.176.125-.027.406s-.434.632-.25.753c-.172.078-.362.357-.33-.038a11.989,11.989,0,0,1-.5,1.368A2.086,2.086,0,0,0,.8,21.781c-.165.1-.116-.3-.224-.2,0,.1.006.4-.1.5s-.059-.2-.061-.4a3.221,3.221,0,0,0-.121.729,1.123,1.123,0,0,0,.088.452.848.848,0,0,0,.459.407,2.084,2.084,0,0,0-.278.7,1.421,1.421,0,0,0,.1.644c-.16.185-.351.516-.263-.234l-.134.57-.092.415c-.025.146-.047.3-.068.447-.08.6-.118,1.148.041,1.184a1.465,1.465,0,0,0-.041.7c-.048.471-.075.727-.083.982S0,29.179,0,29.643l.056-.257c.35.369.081.767.144,1.513l-.038-.02a4.494,4.494,0,0,0-.052.868,1.74,1.74,0,0,0,.05.356,1.5,1.5,0,0,1,.043.352c0,.087,0,.195-.007.335s-.007.311-.018.526L.394,33.2c.255.05.229.423.179.91A3.8,3.8,0,0,0,.68,35.658l.065-.373a1.7,1.7,0,0,1-.061,1.052,3.215,3.215,0,0,0-.193,1.111c-.007.126-.122-.163-.191-.319.106,1.466.339.1.7,1.108-.1.236-.473-.125-.286.576A4.517,4.517,0,0,0,1.3,39.994a7.551,7.551,0,0,1,.45.818,3.242,3.242,0,0,1,.159.414A1.911,1.911,0,0,1,2,41.619c.025-.248.053-.489.341-.079a12.285,12.285,0,0,1,.437,1.329,2,2,0,0,0,.7,1.139c.018.1.008.147-.017.166.193.224.449.618.736.957a3.231,3.231,0,0,0,.746.732c-.1.224.016.5.213.8a5.589,5.589,0,0,0,.788.915c.3.291.576.574.763.8s.261.405.121.522c.2.218.394.443.6.655l.627.629-.085.018a4.084,4.084,0,0,0,.934.826,2.7,2.7,0,0,0,.661.3c.164.208-.025.134-.068.148a7.491,7.491,0,0,0,1.259,1.151,6.3,6.3,0,0,0,1.384.654l-.021.276a1.656,1.656,0,0,1,.457.319c.2.176.47.385.767.623.149.118.307.241.473.362s.348.228.531.337a5.06,5.06,0,0,0,1.147.537.254.254,0,0,1-.209.012,23.365,23.365,0,0,1,2.651,1.361c.851.452,1.631.718,2.08.416.4.07.81.094,1.211.14-1.465-.486.323-.3-.245-.607a2.524,2.524,0,0,1,.841.36c.2.125.226.23-.138.156l-.1-.073c-.386.385,1.823.606,1.724.878a43.909,43.909,0,0,0,4.494.635l1.115.075c.371.013.74.013,1.109.018.184,0,.368.007.551,0l.548-.027c.364-.024.729-.03,1.088-.077-.123-.1-.245-.2-.366-.311.332-.025.662-.067.993-.1.27.048.389.226-.327.3a1.461,1.461,0,0,0,1.175-.407c1.4-.107-.473.5-.05.431l.576-.129-.138-.017c.222-.112.336-.207.5-.291a1.836,1.836,0,0,1,.3-.119,4.092,4.092,0,0,1,.494-.13c.546-.054.321.147.534.112,0,.024.079.019.325-.065.413-.1.822-.21,1.234-.314l-.565-.126c.5-.28,1.141-.316.495-.45a6.3,6.3,0,0,0,2.661-.649c.528-.208,1.024-.464,1.435-.644a5.729,5.729,0,0,1,.841-.372,5.366,5.366,0,0,1,.469-.37c.159-.12.322-.236.494-.347.343-.223.724-.423,1.127-.678-.231.08-.51-.109.193-.515.046.344.409.215.842-.037a3.974,3.974,0,0,1,1.357-.613c-.329.064.125-.316.531-.68s.74-.745.251-.6c.551-.409.186.156.681-.074.276-.31.573-.624.9-.934.162-.155.335-.3.506-.462l.516-.484c.175-.164.358-.324.532-.5l.517-.533a9.892,9.892,0,0,0,.968-1.168c-.048-.076-.358.112-.189-.306.337-.19.648-.405.973-.617a.925.925,0,0,0,.067-.476c.015-.153.08-.317.4-.548-.115.049-.287.119-.165-.121a18.441,18.441,0,0,0,2.828-5.327c.7-1.917,1.239-3.868,1.943-5.817-.258.517-.208.151-.142-.262-.085.262-.2-.038-.325,0,.175-.539.361-1.083.519-1.636-.145-.169-.116-.62-.087-1.055s.024-.856-.119-.947l.041.534c-.17-.362-.37-.119-.6.186s-.486.672-.711.6a1.1,1.1,0,0,1,.037.659,6.673,6.673,0,0,1-.258.764,2.971,2.971,0,0,0-.229,1.788c-.139.252-.1-.258-.234-.134a1.863,1.863,0,0,1-.151,1.393l-.029-.089a10.7,10.7,0,0,1-.343,1.261,9.41,9.41,0,0,1-.4,1.044c-.144.338-.293.681-.487,1.056s-.382.8-.647,1.281l.274-.057a2.766,2.766,0,0,1-.471.659c.085.644.566-1.206.707-.6a1.741,1.741,0,0,0-.515.645c-.173.306-.374.666-.56,1.027a7.152,7.152,0,0,1-.593.963c-.195.262-.376.443-.548.461-.394.609.338-.042-.058.57l-.223.086.053.255c-.281.39-.582.474-.685.422A2.882,2.882,0,0,0,51.52,45a3.658,3.658,0,0,0-.683.889,4.081,4.081,0,0,1-.465.675c.165-.165.334-.326.5-.495-.278.409-.583.834-.922,1.247s-.7.83-1.079,1.219l-.555.6c-.192.19-.38.381-.562.572-.357.391-.725.745-1.04,1.118l.18-.014c-.124.139-.231.256-.329.352s-.19.168-.271.231a3.6,3.6,0,0,1-.43.288c-.138.078-.275.165-.465.283a7.689,7.689,0,0,0-.74.534l.033-.055a3.12,3.12,0,0,1-.92.786c.276-.326-.775.208-.4-.2a5,5,0,0,0-.857.752,2.71,2.71,0,0,1-.464.657l-.3-.045a3.588,3.588,0,0,1-.3.366,2.6,2.6,0,0,1-.655.431c.545-.413-.586-.031.008-.52a4.334,4.334,0,0,0-1.063.359,8.679,8.679,0,0,0-.772.406,1.482,1.482,0,0,1-1.272.3c-.29.357.077.3.474.191s.807-.313.623-.179c.2.008.082.152-.153.315a3.234,3.234,0,0,1-.862.378,1.945,1.945,0,0,1-.9-.049,3.075,3.075,0,0,0-1.02,0,3.964,3.964,0,0,0-.458.082c.132-.028.132-.066.263-.094a2.065,2.065,0,0,0-.742.184,2.8,2.8,0,0,1-.391.118,1.487,1.487,0,0,1-.45.006c-.291.353-.8.125-.837.516l1.22-.307c-.34.111-.655.3-1.039.471a3.19,3.19,0,0,1-1.443.239,2.612,2.612,0,0,1,.651-.317c-.354-.072-.647.168-1.014.078.034-.186.407-.25.863-.32.228-.034.476-.066.712-.117a2.427,2.427,0,0,0,.627-.24,2.038,2.038,0,0,0-.785.16c-.256.07-.425.1-.265-.129a1.151,1.151,0,0,1-.949.335,2.486,2.486,0,0,0-1.255.217l.047-.231a2.181,2.181,0,0,1-.705.166l.469-.306c-.73.266-1.422-.17-2.121-.067.736.017.819.084.8.172s-.156.205.161.28c-1.855.27-1.049-.578-3.072-.629.275,0,1.019.216.58.29a5.18,5.18,0,0,1-.616-.152,2.281,2.281,0,0,1-.49-.217c-1.343-.122.175.257-.414.323-.421-.324-.675.009-1.286-.006l.038-.227a4.062,4.062,0,0,0-.454-.1,1.216,1.216,0,0,0-.274-.03.342.342,0,0,0-.249.1c-.107.095-.2.189-.863-.056l.654-.177c-.242-.03-.487-.05-.728-.089l.21-.214a3.658,3.658,0,0,1-.91-.116,5.036,5.036,0,0,1-.838-.328c.12.212-.225.365-.888.149-.4-.29.319-.106-.6-.431a.794.794,0,0,1,.869.205c.066-.057.253-.067.319-.123a7,7,0,0,0-1.491-.595,1.529,1.529,0,0,1,.331.188c-.236-.037-.476-.07-.713-.112l-.708-.145c-.167-.17.024-.16.21-.151a6.648,6.648,0,0,1-.883-.245c.18-.12.238-.3.81-.137-.436-.11-.856-.259-1.284-.4-.044-.111-.5-.511-.314-.492a4.466,4.466,0,0,0-1.183-.543,4.185,4.185,0,0,1-1.293-.729.847.847,0,0,1-.351-.129c-.182-.142-.351-.29-.519-.438s-.321-.313-.49-.465a6.446,6.446,0,0,0-.547-.442,4.412,4.412,0,0,0-.656-.421c-.08-.222-.168-.432-.237-.658-.669-.533.323.892-.8,0-.81-.627-.075-.463-.258-.781a6.65,6.65,0,0,1-.891-.52,2.677,2.677,0,0,1-.832-1.019,6.166,6.166,0,0,1,.577.607m-5.462-9c.056.09.151.219.223.348a.445.445,0,0,1,.1.35c-.335-.123-.284-.34-.32-.7M2.023,22.767a1.025,1.025,0,0,1-.2.641,1.9,1.9,0,0,1,.2-.641M38.606,1.95l-.026,0c-.441-.244-.286-.154.026,0m.931.446c.107.008.112-.025.084-.071a1.162,1.162,0,0,1-.543-.163c.048.081.156.17.46.234M36,58.233l-.208-.014c.421-.165.313-.079.208.014" transform="translate(0 0)" fill="#fff"/>
    <path id="Trazado_615253" data-name="Trazado 615253" d="M7.634,103.228a.2.2,0,0,1-.139.064c.024.088.068.1.139-.064" transform="translate(-5.705 -78.579)" fill="#fff"/>
    <path id="Trazado_615254" data-name="Trazado 615254" d="M57.16,218.062l.025.021a.1.1,0,0,0,.05-.016Z" transform="translate(-43.511 -165.992)" fill="#fff"/>
    <path id="Trazado_615255" data-name="Trazado 615255" d="M100.294,11.591a1.094,1.094,0,0,1-.4-.05c0,.057.1.088.4.05" transform="translate(-76.044 -8.785)" fill="#fff"/>
    <path id="Trazado_615256" data-name="Trazado 615256" d="M184.887,17.8c-.2-.106-.4-.2-.6-.289a1.486,1.486,0,0,1,.475.369c.016-.054-.051-.189.127-.08" transform="translate(-140.28 -13.332)" fill="#fff"/>
    <path id="Trazado_615257" data-name="Trazado 615257" d="M201.629,37.143c.086.043.144.133.23.176l.055-.1c-.292-.269-.55-.4-.285-.08" transform="translate(-153.399 -28.133)" fill="#fff"/>
    <path id="Trazado_615258" data-name="Trazado 615258" d="M187.219,22.81c-.031.1.048.184.184.275s.33.187.523.306a.658.658,0,0,1-.065-.046c.131-.073.086-.161-.049-.257a3.619,3.619,0,0,0-.593-.278" transform="translate(-142.508 -17.363)" fill="#fff"/>
    <path id="Trazado_615259" data-name="Trazado 615259" d="M190.576,25.478a3.168,3.168,0,0,1,.344.239c.107-.057-.126-.117-.344-.239" transform="translate(-145.069 -19.394)" fill="#fff"/>
    <path id="Trazado_615260" data-name="Trazado 615260" d="M169.584,10.914c.18.136.226-.17.308-.046.163-.062-.2-.146-.464-.165-.129-.011-.236,0-.235.032s.106.085.392.18" transform="translate(-128.791 -8.144)" fill="#fff"/>
    <path id="Trazado_615261" data-name="Trazado 615261" d="M186.041,24.957l0-.286-.316.027Z" transform="translate(-141.375 -18.78)" fill="#fff"/>
    <path id="Trazado_615262" data-name="Trazado 615262" d="M174.671,17.824l.6.384c.009-.04.1-.02.209.015-.388-.208-.8-.471-.814-.4" transform="translate(-132.962 -13.559)" fill="#fff"/>
    <path id="Trazado_615263" data-name="Trazado 615263" d="M178.079,19.535a2.433,2.433,0,0,0,.52.249,3.87,3.87,0,0,0-.52-.249" transform="translate(-135.556 -14.87)" fill="#fff"/>
    <path id="Trazado_615264" data-name="Trazado 615264" d="M181.638,22.594l-.151-.155-.426-.265c.192.141.392.268.577.42" transform="translate(-137.826 -16.879)" fill="#fff"/>
    <path id="Trazado_615265" data-name="Trazado 615265" d="M141.789,7.135l-.78-.07c-.091.067.109.154.4.172.193-.024.484,0,.381-.1" transform="translate(-107.321 -5.378)" fill="#fff"/>
    <path id="Trazado_615266" data-name="Trazado 615266" d="M152.021,11.444c-.185-.1-.185-.16-.277-.268l-.1.28Z" transform="translate(-115.434 -8.507)" fill="#fff"/>
    <path id="Trazado_615267" data-name="Trazado 615267" d="M142.273,10.4c-.093.067-1.125.039-.179.189.091-.072.851.01.179-.189" transform="translate(-107.862 -7.914)" fill="#fff"/>
    <path id="Trazado_615268" data-name="Trazado 615268" d="M96.07,7.7l.191-.048-.128-.469Z" transform="translate(-73.13 -5.468)" fill="#fff"/>
    <path id="Trazado_615269" data-name="Trazado 615269" d="M58.819,27.635c.8-.373.013-.369.764-.669.116-.211-.615.245-.487.049-.387.392-.658.484-.277.62" transform="translate(-44.634 -20.483)" fill="#fff"/>
    <path id="Trazado_615270" data-name="Trazado 615270" d="M60.564,26.681c.062-.063.127-.132.192-.211a1.319,1.319,0,0,0-.192.211" transform="translate(-46.102 -20.149)" fill="#fff"/>
    <path id="Trazado_615271" data-name="Trazado 615271" d="M244.685,129.962c.054-.2.084-.406.126-.61l-.174.39c.019.074.032.147.048.221" transform="translate(-186.221 -98.465)" fill="#fff"/>
    <path id="Trazado_615272" data-name="Trazado 615272" d="M243.489,125.327l.314-.139-.271-.368a1.027,1.027,0,0,1-.042.507" transform="translate(-185.347 -95.015)" fill="#fff"/>
    <path id="Trazado_615273" data-name="Trazado 615273" d="M13.6,155.471l-.084-.02c-.054.105-.024.233.035.489Z" transform="translate(-10.268 -118.331)" fill="#fff"/>
    <path id="Trazado_615274" data-name="Trazado 615274" d="M25.411,184.405l-.065-.113-.1.356Z" transform="translate(-19.214 -140.286)" fill="#fff"/>
    <path id="Trazado_615275" data-name="Trazado 615275" d="M41.835,202.667c-.182-.181-.434-.357-.6-.554.416.375.412.849.6.554" transform="translate(-31.386 -153.852)" fill="#fff"/>
    <path id="Trazado_615276" data-name="Trazado 615276" d="M234.561,83.96c.085-.008,0-.19,0-.228-.12.084.02.277,0,.228" transform="translate(-178.512 -63.738)" fill="#fff"/>
    <path id="Trazado_615277" data-name="Trazado 615277" d="M229.368,87.93v-.085l-.134.251Z" transform="translate(-174.495 -66.869)" fill="#fff"/>
    <path id="Trazado_615278" data-name="Trazado 615278" d="M224.663,88.591c.217.29.428-.19.682-.141l.059.063.017-.293c-.252.123-.543.4-.758.371" transform="translate(-171.017 -67.154)" fill="#fff"/>
    <path id="Trazado_615279" data-name="Trazado 615279" d="M221.016,87.569c.08.114-.107.153.165-.007a.269.269,0,0,1-.037-.024.59.59,0,0,1-.127.031" transform="translate(-168.24 -66.635)" fill="#fff"/>
    <path id="Trazado_615280" data-name="Trazado 615280" d="M221.443,87.381c.126-.049-.117-.08,0,0" transform="translate(-168.54 -66.478)" fill="#fff"/>
    <path id="Trazado_615281" data-name="Trazado 615281" d="M218.723,87.749l.135-.166c-.059-.064-.215-.034-.176-.106-.155.116-.1.179.041.271" transform="translate(-166.394 -66.589)" fill="#fff"/>
    <path id="Trazado_615282" data-name="Trazado 615282" d="M218.781,89.528l.073-.075c-.025-.027-.052-.03-.073.075" transform="translate(-166.539 -68.081)" fill="#fff"/>
    <path id="Trazado_615283" data-name="Trazado 615283" d="M219.242,88.838l-.155.159c.041.045.076.15.074-.063.015.1.023,0,.081-.1" transform="translate(-166.772 -67.625)" fill="#fff"/>
    <path id="Trazado_615284" data-name="Trazado 615284" d="M220.245,88.753c.117.041.254.048.118.213.311-.145.192-.359-.118-.213" transform="translate(-167.654 -67.523)" fill="#fff"/>
    <path id="Trazado_615285" data-name="Trazado 615285" d="M224.824,90.985l.157.056.076-.143c-.038.071-.273-.012-.233.087" transform="translate(-171.136 -69.193)" fill="#fff"/>
    <path id="Trazado_615286" data-name="Trazado 615286" d="M214.5,89.278c.011.073.114.167.154.252l.1-.118c-.079-.027-.215-.033-.255-.133" transform="translate(-163.277 -67.96)" fill="#fff"/>
    <path id="Trazado_615287" data-name="Trazado 615287" d="M214.661,90.333l-.151.177c.172-.038.185-.1.151-.177" transform="translate(-163.288 -68.763)" fill="#fff"/>
    <path id="Trazado_615288" data-name="Trazado 615288" d="M218.935,90.271l.231-.345-.29.367Z" transform="translate(-166.612 -68.453)" fill="#fff"/>
    <path id="Trazado_615289" data-name="Trazado 615289" d="M211.3,89.554l.057-.193-.115.3Z" transform="translate(-160.798 -68.023)" fill="#fff"/>
    <path id="Trazado_615290" data-name="Trazado 615290" d="M208.3,89.951c.038-.157-.177-.192-.119-.3a.754.754,0,0,0-.265.345.331.331,0,0,1,.384-.046" transform="translate(-158.269 -68.244)" fill="#fff"/>
    <path id="Trazado_615291" data-name="Trazado 615291" d="M207.412,91.3a1.021,1.021,0,0,0,.121-.2.53.53,0,0,0-.121.2" transform="translate(-157.885 -69.345)" fill="#fff"/>
    <path id="Trazado_615292" data-name="Trazado 615292" d="M212.46,90.86a.308.308,0,0,0-.209-.152l.134.172.075-.02" transform="translate(-161.568 -69.048)" fill="#fff"/>
    <path id="Trazado_615293" data-name="Trazado 615293" d="M212.3,91.433l0-.005-.163.038.167-.033" transform="translate(-161.477 -69.596)" fill="#fff"/>
    <path id="Trazado_615294" data-name="Trazado 615294" d="M213.145,91.324l-.019,0c.013.017.019.022.019,0" transform="translate(-162.234 -69.517)" fill="#fff"/>
    <path id="Trazado_615295" data-name="Trazado 615295" d="M216.391,91.27c-.077.143-.271.331,0,.429.038-.158-.119-.213,0-.429" transform="translate(-164.614 -69.476)" fill="#fff"/>
    <path id="Trazado_615296" data-name="Trazado 615296" d="M213.9,91.581l.213-.017c-.02-.05-.079-.114-.041-.185Z" transform="translate(-162.827 -69.559)" fill="#fff"/>
    <path id="Trazado_615297" data-name="Trazado 615297" d="M213.574,92.318l.079-.092-.079.006Z" transform="translate(-162.576 -70.204)" fill="#fff"/>
    <path id="Trazado_615298" data-name="Trazado 615298" d="M208.268,92.232a.456.456,0,0,1-.254.194,1.14,1.14,0,0,0,.362-.048c0-.066.012-.191-.108-.147" transform="translate(-158.343 -70.201)" fill="#fff"/>
    <path id="Trazado_615299" data-name="Trazado 615299" d="M210.875,91.939c0,.006-.011.011-.016.017.017.013.028.015.016-.017" transform="translate(-160.509 -69.985)" fill="#fff"/>
    <path id="Trazado_615300" data-name="Trazado 615300" d="M203.623,94.412l.028.03-.006-.035Z" transform="translate(-155.001 -71.864)" fill="#fff"/>
    <path id="Trazado_615301" data-name="Trazado 615301" d="M209.561,92.595c.1.011.134-.052.164-.128a.794.794,0,0,1-.195.1c0,.03.006.048.03.03" transform="translate(-159.498 -70.387)" fill="#fff"/>
    <path id="Trazado_615302" data-name="Trazado 615302" d="M206.3,92.634a.968.968,0,0,0,.182.061c-.063-.048-.182-.117-.182-.061" transform="translate(-157.042 -70.498)" fill="#fff"/>
    <path id="Trazado_615303" data-name="Trazado 615303" d="M210.61,91.726a.077.077,0,0,1,.01-.013c-.041-.033-.031-.014-.01.013" transform="translate(-160.306 -69.8)" fill="#fff"/>
    <path id="Trazado_615304" data-name="Trazado 615304" d="M210.423,91.822a.564.564,0,0,0-.077.154.519.519,0,0,0,.122-.109.26.26,0,0,1-.046-.045" transform="translate(-160.118 -69.896)" fill="#fff"/>
    <path id="Trazado_615305" data-name="Trazado 615305" d="M203.049,95.873a.261.261,0,0,1,.388-.288c.15-.195-.159-.751-.429-1.031.018.081.041.154-.123.321.1.078.509.1.393.311-.232.174-.234,0-.39-.054.178.192-.231.43-.072.744l.193-.187c.02.05-.037.158.041.185" transform="translate(-154.357 -71.976)" fill="#fff"/>
    <path id="Trazado_615306" data-name="Trazado 615306" d="M204.09,93.489l.074-.048a.75.75,0,0,1-.357-.158c-.107.13-.115.206-.106.269l.407-.1Z" transform="translate(-155.059 -71.008)" fill="#fff"/>
    <path id="Trazado_615307" data-name="Trazado 615307" d="M206.011,93.08c0,.216-.171.36.014.536.234-.087.116-.216.232-.345-.369.168.076-.144-.235-.169a.746.746,0,0,1,.191-.116,1.2,1.2,0,0,1-.226-.028l.013.009h0v0c.024.019.034.033.011.024,0,0-.005.005-.007.006a.342.342,0,0,1,.006.08c-.124-.006-.033-.046-.006-.08a.286.286,0,0,0,0-.031l0,0-.351.227a.9.9,0,0,0,.364-.113" transform="translate(-156.541 -70.76)" fill="#fff"/>
    <path id="Trazado_615308" data-name="Trazado 615308" d="M216.411,94.968a.083.083,0,0,1-.027-.042c-.017.032-.022.051.027.042" transform="translate(-164.706 -72.259)" fill="#fff"/>
    <path id="Trazado_615309" data-name="Trazado 615309" d="M214.646,93.475c.02-.036.018-.122.116-.13.1.035.029.094.053.158.039-.069.148-.2-.053-.243l-.019.035c-.176-.02-.451-.2-.432-.239a1.673,1.673,0,0,0,.335.418" transform="translate(-163.135 -70.836)" fill="#fff"/>
    <path id="Trazado_615310" data-name="Trazado 615310" d="M210.537,94.364l-.291.2.216.12-.04-.1c.195-.016.116-.13.115-.216" transform="translate(-160.042 -71.831)" fill="#fff"/>
    <path id="Trazado_615311" data-name="Trazado 615311" d="M202.973,93.361l-.022-.221-.094.351Z" transform="translate(-154.417 -70.899)" fill="#fff"/>
    <path id="Trazado_615312" data-name="Trazado 615312" d="M201.259,94.117l-.041-.186-.076.143Z" transform="translate(-153.112 -71.502)" fill="#fff"/>
    <path id="Trazado_615313" data-name="Trazado 615313" d="M127.144,141.975l.059.1a.3.3,0,0,0-.059-.1" transform="translate(-96.784 -108.073)" fill="#fff"/>
    <path id="Trazado_615314" data-name="Trazado 615314" d="M126.728,138.95l-.094-.012c.053.03.091.042.094.012" transform="translate(-96.396 -105.762)" fill="#fff"/>
    <path id="Trazado_615315" data-name="Trazado 615315" d="M157.684,107.323c-.189-.126-.423-.341-.344-.142l.1.185a.248.248,0,0,1,.241-.043" transform="translate(-119.757 -81.526)" fill="#fff"/>
    <path id="Trazado_615316" data-name="Trazado 615316" d="M131.032,121.509l.059.048.034-.218-.093.17" transform="translate(-99.743 -92.365)" fill="#fff"/>
    <path id="Trazado_615317" data-name="Trazado 615317" d="M130.985,125.378l-.22-.072a.618.618,0,0,0,.22.072" transform="translate(-99.54 -95.385)" fill="#fff"/>
    <path id="Trazado_615318" data-name="Trazado 615318" d="M129,158.172l.217.1c-.011-.18-.113-.094-.217-.1" transform="translate(-98.194 -120.393)" fill="#fff"/>
    <path id="Trazado_615319" data-name="Trazado 615319" d="M182.807,100.417a.714.714,0,0,0-.332-.028c.178.069.345.2.332.028" transform="translate(-138.903 -76.411)" fill="#fff"/>
    <path id="Trazado_615320" data-name="Trazado 615320" d="M117.884,141.315a.144.144,0,0,0,.131.077c-.039-.06-.081-.093-.131-.077" transform="translate(-89.735 -107.568)" fill="#fff"/>
    <path id="Trazado_615321" data-name="Trazado 615321" d="M181.045,100.412c.027.013.051.017.077.027a.587.587,0,0,1,.265-.133c-.131-.052-.268-.067-.341.106" transform="translate(-137.814 -76.328)" fill="#fff"/>
    <path id="Trazado_615322" data-name="Trazado 615322" d="M131.589,217.339a.278.278,0,0,1-.023.033c.028,0,.029-.013.023-.033" transform="translate(-100.15 -165.441)" fill="#fff"/>
    <path id="Trazado_615323" data-name="Trazado 615323" d="M123.8,234.518a.8.8,0,0,1-.026-.168.247.247,0,0,0,.026.168" transform="translate(-94.217 -178.391)" fill="#fff"/>
    <path id="Trazado_615324" data-name="Trazado 615324" d="M194.5,96.436c.084-.04.007-.026,0,0" transform="translate(-148.058 -73.389)" fill="#fff"/>
    <path id="Trazado_615325" data-name="Trazado 615325" d="M197.277,99.238a.158.158,0,0,0-.005.107.2.2,0,0,1,.005-.107" transform="translate(-150.161 -75.541)" fill="#fff"/>
    <path id="Trazado_615326" data-name="Trazado 615326" d="M178.931,107.161l-.008,0c.038.031.032.025.008,0" transform="translate(-136.199 -81.572)" fill="#fff"/>
    <path id="Trazado_615327" data-name="Trazado 615327" d="M194.758,96.644a.444.444,0,0,0-.131-.024.474.474,0,0,0,.131.024" transform="translate(-148.153 -73.548)" fill="#fff"/>
    <path id="Trazado_615328" data-name="Trazado 615328" d="M194.98,96.23l.083,0c0-.036-.015-.054-.083,0" transform="translate(-148.421 -73.223)" fill="#fff"/>
    <path id="Trazado_615329" data-name="Trazado 615329" d="M194,96.564a.422.422,0,0,1,.149-.024c-.021-.008-.032-.017-.03-.025-.025.011-.06.027-.12.048" transform="translate(-147.677 -73.469)" fill="#fff"/>
    <path id="Trazado_615330" data-name="Trazado 615330" d="M127.471,185.814a.227.227,0,0,1-.018.021c.091.088.075.048.018-.021" transform="translate(-97.019 -141.444)" fill="#fff"/>
    <path id="Trazado_615331" data-name="Trazado 615331" d="M151.841,119.57s0-.009.007-.013l-.015,0Z" transform="translate(-115.577 -91.006)" fill="#fff"/>
    <path id="Trazado_615332" data-name="Trazado 615332" d="M150.673,118.1c.059-.288.145-.282.264-.261l-.282-.538Z" transform="translate(-114.681 -89.29)" fill="#fff"/>
    <path id="Trazado_615333" data-name="Trazado 615333" d="M119.03,107.709l.172-.244c.322.264.228.473.477.239-.649,0-.118-.9-.767-.9l.128-.161c0,.044.035.049.031.093.293-.316-.481-.195-.41-.585.042-.137.131-.236.213-.149l-.177-.289c.008-.088.121-.073.114.014l-.078-.452.019,0a2.214,2.214,0,0,1-.342-.266c.086-.121.072.054.151.02l-.171-.243c.162-.112.337.087.323.263.633-.273-.175-.2.174-.73l.1.233c.359-.175.215-.353.428-.635-.116.071-.546.572-.723.308.045-.08.062-.183-.077-.323.23-.015.165-.155.142-.335l.306-.005c-.1-.19-.254-.166-.4-.273.024-.105.262-.1.462-.084.023-.023-.073-.034-.181-.036s-.229.008-.263-.081c.112-.088-.017-.165-.218-.461.1-.024.2.142.284.167l-.123-.115q-.048-.052-.089-.106c.027,0,.092.056.127.085-.024-.092-.3-.228-.23-.335-.125-.138.069-.069.235,0s.3.148.289-.05c.075.068.065.176.131.279a.849.849,0,0,1,.043-.159c.008-.02.014-.038.022-.055l.047-.058a2.638,2.638,0,0,0,.212-.372l.33.108c-.266-.158-.093-.5.064-.777a2.7,2.7,0,0,0-.246-.19l.306-.266c.058.035.053.146.032.286.017-.032.032-.063.043-.09.16.069.146.257.106.448-.061-.044-.123-.092-.184-.14a1.131,1.131,0,0,0,.017.591.246.246,0,0,1,.092-.115.188.188,0,0,0,.01.129c.021.027.039-.049.074-.141l.181.3-.021-.135.527.06c.231-.43.371-1,.857-1.3-.057.279.092.4.173.683-.236-.255-.369.254-.661.277a.136.136,0,0,1,.141.19l.4-.423c.061.235.157.141.314.2-.238-.427.269-.417.424-.618.06.15.061.321-.193.359.373.261.179-.643.531-.432-.058.022-.1.008-.1.093.1-.179.467-.175.429-.017l-.058.021c.409-.067,1.195-.366,1.134-.772a4.513,4.513,0,0,1,.094.57l.3-1.522c.042.352.523,1.073.256,1.362a.376.376,0,0,0,.4-.14c-.078-.028-.308-.433-.23-.49.354.3.227.147.619.373-.117-.042-.173-.6-.017-.627,0,.085.172.512.134.583l.217-.629c-.065.122.118.44.247.559-.07-.089.328-.091.412-.173l-.2-.07c.448-.054.2-.851.625-.954-.018.122.076.691.31.69.017-.293.043-1.4.353-1.716l.118.128.233-.259a9.8,9.8,0,0,1-.47,1.845c.2.07.1.163.332.076.128.115-.064.254-.131.283l.581-.08c-.119-.3.328-.438.228-.687l-.5.5c-.119-.3.078-.978.487-1.045.138.091.094.569.134.669.018-.121.31-.317.369-.253l-.116.216c.254.048.23-.517.583-.305.1-.008.392.311.352.125a4.2,4.2,0,0,1-.6-1.672,3.125,3.125,0,0,1,.735.329c.234.228-.021.723.178.92a.45.45,0,0,1,.054-.258c.117.042.041.272.236.17-.062-.322.428-.1.016-.293.175-.151.234,0,.468-.089a.959.959,0,0,1,.177-.9.484.484,0,0,0,.126.212c.423-.1.689-.028,1.076-.144.059.064.273.1.235.256.038-.072.057-.193.174-.238.314.2-.253.124.023.393-.041-.186.231-.345.366-.51-.139-.263-.409.068-.543.233a1.191,1.191,0,0,1,.4-1.182c.291-.195.216.206.255.134.623-.119.305-.831.892-.708.274.184.16.485.259.649-.233.174-.449-.032-.624.033l.254.049c-.058.107-.213.223-.33.181.234.169,1.031-.272,1.559-.213.057-.108.173-.237.075-.315l-.137.08c-.2-.156.192-.359-.022-.394.154-.2.308-.487.62-.461l.139.264a.178.178,0,0,0-.285,0c.078-.16.543.247.557-.159l-.255-.134c.155-.2.308-.575.581-.562-.2-.242-.047.049-.322-.22.276.355-.635.178-.261.525-.3-.32-.36-.063-.693-.31.036.09.138.151-.083.169a.413.413,0,0,1-.02.1l-.016,0,.015.007c0,.016,0,.02.005,0a.329.329,0,0,1,.149.108c-.037.244-.368.338-.445.482-.136-.006.019-.122-.079-.2l-.115.215c-.08-.2-.431-.24-.179-.449l-.263.071a.481.481,0,0,0-.517.078c-.136-.006-.24.323-.182.129l-.368.253-.02-.05c-.41.1-.724.6-1.3.368a.761.761,0,0,1-.485.212l-.1-.164c-.155.116-.577-.016-.595.192-.335-.419-.876.157-1.208.167l.06.235a1.79,1.79,0,0,0-.629.354l.079.2c-.173.238-.624.034-.974.165,0-.086.1-.093.176-.066-.569-.33-.795.614-1.285.4a.174.174,0,0,1-.234.07.04.04,0,0,0,.021-.018.156.156,0,0,0-.04.01c-.053-.022-.11-.05-.167-.068a.5.5,0,0,0,.146.075.922.922,0,0,0-.272.173l-.115-.205c-.008.006-.015.007-.024.014-.133-.048-.055.131.054.278a.587.587,0,0,0-.105.178c-.2-.327-.253.209-.49-.132-.017.207-.512.31-.451.716-.02-.049-.059-.063,0-.085-.137-.006-.273-.012-.35.131l-.139-.263-.152.459c-.216-.12-.314-.2-.218-.463-.289.452-.279.223-.51.653l-.04-.186c-.117.044-.232.344-.35.217-.372-.261-1.331.36-2.113.252.3.491-.391-.14-.291.28-.079-.113-.2-.155-.119-.3-.31.231-.585-.037-.719.384-.079-.114.018-.208-.041-.271-.02.036-.077.144-.136.08s.018-.121.057-.193c-.349.131-.266.53-.179.9-.234-.117-.316-.064-.373.214-.1-.1-.243-.192-.035-.3-.13.021-.814.061-.737.356a.07.07,0,0,0-.055-.021.275.275,0,0,0-.083.026.328.328,0,0,0-.119.088,4.755,4.755,0,0,0-.784.225l.135.011c.05.177,0,.214-.1.224a1.042,1.042,0,0,0-.377.056l-.026-.032a1.721,1.721,0,0,0-.448.036,1.44,1.44,0,0,0,.055.22.608.608,0,0,1-.1.361l.234.072c.256.152.187.236.085.378a.552.552,0,0,0-.133.566c.041-.044.082-.086.124-.125.091.111-.07.227-.257.4-.188.15-.407.262-.433.352-.041.039-.072-.053-.106-.1-.265.452.3.039.391.36-.158.069-.415-.054-.433.166-.125.116.561.6.268.919.121-.073.241-.145.344,0,.058.229-.435.652-.031.838a.153.153,0,0,1-.1.047c.111.171.2.564.42.659-.781.208.447,1.076-.282,1.114l.07.541-.075-.01a.541.541,0,0,0,.335.575c-.045.083-.116.028-.155.024-.118.516-.084.564.3.969l-.234.058c.144.107-.329.755-.024,1.237a.172.172,0,0,1-.109-.049c.309.544-.579,1.378.293,1.534l.233.357c.04-.482.378.05.509-.155.061.185-.232.5-.289.272l.041-.039c-.453-.059-.125.6-.431.608.076.939-.12,1.87-.089,2.752l.343-.122,0,.309c-.077.085-.267.124-.265-.1-.191.127.186.358.263.36-.117.437-.416-.144-.417-.012l.036.177.038-.043c.151.137.3.141.3.405-.06.171-.21.1-.22.164-.025,0-.035.024,0,.1l-.008.389.266-.171c.146.164.006.365.308.168-.466.29-.09,1.454-.23,1.624a.947.947,0,0,1,.217.762c.053-.076.36-.138.337.118-.644-.056-.251.48-.7.711.294-.2.117.716.533.4-.039.215-.238.027-.379.2.276.489-.1,1.119.022,1.736.085,0,.207-.107.339.02l-.4.353c.048.121.491.085.213.327.069-.036.172-.089.2-.008-.339,1.243.477,2.472-.22,3.754.153-.177.176-.066.189.061.034-.085.207-.01.32-.033l-.286.536c.321.076.053.554.358.591L118.4,129c.368.2.774-.351,1.232-.345-.419-.221.562-.679-.04-1.047.088-.094.151.067.255.014-.2-.091-.249-.211-.175-.443l.05.023a5.7,5.7,0,0,1,.18-1.647l-.223.066a.475.475,0,0,1,.143-.268c-.353-.158.006.434-.381.295.448-.231-.055-1.088.459-1.257-.011-.237-.257.085-.268-.153l.138-.071-.186-.05a.348.348,0,0,1,.313-.259c-.012.039.04.106.052.145.155-.211-.089-.566-.039-.638l-.074.233a9.237,9.237,0,0,0-.352-2.051l-.1.053c-.225-.467.1-.389-.026-.909l.027.017a.487.487,0,0,1-.17-.38c.132.125.228-.263.376-.1-.241-.506-.181-.247-.6-.566l.172-.089c-.167-.107-.251-.112-.312-.372.164.206.26-.183.474.047.355-.572-.437-.794.114-1.079-.5-.224-.245.491-.357.356-.153.128-.378-.187-.338-.363,0-.176.609-.335.574-.776,0,.044.037.045.038.089.115-.173-.187-.314,0-.529-.3-.1,0-.264-.377-.276l.111.4c-.112-.224-.566-.414-.373-.805a.705.705,0,0,1,.245.206c.105-.117-.086-.209.022-.33.38.011.11.488.412.718.153-.128-.3-.45.116-.35-.53-.148.041-.439-.374-.716l.228.007c-.038-.045-.151-.137-.15-.225l.3.141c-.264-.228.192-.48.043-.7.035.486-.266.125-.42.34-.337-.583.572-.379.425-1.045.037.089-.116.349-.229.213a.8.8,0,0,1,.231-.39c-.073-.442-.229.082-.379-.1.267-.167-.125-.212-.224-.4l.23-.015c.118-.516-.487-.107-.335-.574l.33.175-.1-.234.265.034c-.209-.248-.163-.331-.1-.589a.316.316,0,0,1-.439-.234c.128-.161.224.073.172-.243.148.064.333.132.129.283.076.01.149.063.223.073.148-.174.012-.417,0-.532a.218.218,0,0,1-.047.128l-.345-.443c.082-.078.155-.024.226.029-.03-.092-.14-.151-.167-.287.189.025.382.005.481.195l-.233-.428c.08-.034.21-.239.282-.185.1-.25-.4-.578-.271-.909a.2.2,0,0,1-.1-.114c.025-.306.239-.589-.038-.934l.324-.224c-.092-.278-.406.3-.56-.162-.126-.326.279-.14.366-.262-.178-.156-.539-.424-.283-.745.069.1.024.18.054.273m-.348-3.47c.052.065.209.191.076.248-.268-.062-.145-.128-.076-.248m1.74-2.718c-.026.088-.111.075-.22.017a.236.236,0,0,1,.22-.017m13.622-5.891a.064.064,0,0,0,0,.013c-.17-.041-.109-.023,0-.013m.328,0a.08.08,0,0,0-.013-.1c0,.062-.069.087-.151.095.039.051.09.079.164,0m-16.9,21.916.057-.064c.074.133.012.1-.057.064" transform="translate(-88.512 -72.105)" fill="#fff"/>
    <path id="Trazado_615334" data-name="Trazado 615334" d="M131.4,124.839a.358.358,0,0,1-.064-.111c-.014.045,0,.088.064.111" transform="translate(-99.968 -94.945)" fill="#fff"/>
    <path id="Trazado_615335" data-name="Trazado 615335" d="M128.822,158.134s0,.007,0,.011a.156.156,0,0,0,.042.008Z" transform="translate(-98.06 -120.374)" fill="#fff"/>
    <path id="Trazado_615336" data-name="Trazado 615336" d="M174.6,112.095a.282.282,0,0,1-.154-.077c.013.055.055.092.154.077" transform="translate(-132.791 -85.27)" fill="#fff"/>
    <path id="Trazado_615337" data-name="Trazado 615337" d="M197.65,94.916l-.174.117a.213.213,0,0,1,.195.019c-.02-.05-.08-.113-.021-.135" transform="translate(-150.321 -72.251)" fill="#fff"/>
    <path id="Trazado_615338" data-name="Trazado 615338" d="M206.67,97.968c.02-.036.059-.021.078-.057l-.039-.1c-.117.043-.175.152-.038.157" transform="translate(-157.26 -74.455)" fill="#fff"/>
    <path id="Trazado_615339" data-name="Trazado 615339" d="M199.892,97.28c.072.181.173.08.3,0a.07.07,0,0,1-.024.007c-.041-.271-.157-.141-.273-.012" transform="translate(-152.161 -73.938)" fill="#fff"/>
    <path id="Trazado_615340" data-name="Trazado 615340" d="M201.255,97.413a.309.309,0,0,1,.122-.043c-.016-.109-.057-.006-.122.043" transform="translate(-153.198 -74.083)" fill="#fff"/>
    <path id="Trazado_615341" data-name="Trazado 615341" d="M193.065,96.748c.078.028-.033-.249.026-.185,0-.258-.336.416-.026.185" transform="translate(-146.864 -73.46)" fill="#fff"/>
    <path id="Trazado_615342" data-name="Trazado 615342" d="M200.7,99.482l-.119-.214-.018.208Z" transform="translate(-152.671 -75.565)" fill="#fff"/>
    <path id="Trazado_615343" data-name="Trazado 615343" d="M196.477,100.517l.234,0a.086.086,0,0,1,.033-.1c-.134.033-.293.032-.267.1" transform="translate(-149.559 -76.44)" fill="#fff"/>
    <path id="Trazado_615344" data-name="Trazado 615344" d="M197.6,100.127a.237.237,0,0,0,.161-.091.516.516,0,0,0-.161.091" transform="translate(-150.419 -76.149)" fill="#fff"/>
    <path id="Trazado_615345" data-name="Trazado 615345" d="M199.251,100.74l-.078-.028-.156.03Z" transform="translate(-151.494 -76.663)" fill="#fff"/>
    <path id="Trazado_615346" data-name="Trazado 615346" d="M186.1,103.628l-.213.138c0,.086.079.114.156.056.039-.072.116-.129.057-.194" transform="translate(-141.503 -78.883)" fill="#fff"/>
    <path id="Trazado_615347" data-name="Trazado 615347" d="M190.057,104.883c-.078-.028-.1-.078-.157-.142l.08.286Z" transform="translate(-144.555 -79.73)" fill="#fff"/>
    <path id="Trazado_615348" data-name="Trazado 615348" d="M187.425,106.494c0,.086-.27.33.021.221,0-.085.214-.223-.021-.221" transform="translate(-142.584 -81.065)" fill="#fff"/>
    <path id="Trazado_615349" data-name="Trazado 615349" d="M172.272,108.011l.058-.022-.152-.462Z" transform="translate(-131.064 -81.851)" fill="#fff"/>
    <path id="Trazado_615350" data-name="Trazado 615350" d="M160.726,116.919c.311.026-.023-.307.271-.245.031-.13-.24-.05-.2-.166-.131.168-.239.129-.068.411" transform="translate(-122.28 -88.688)" fill="#fff"/>
    <path id="Trazado_615351" data-name="Trazado 615351" d="M161.293,116.2a.6.6,0,0,0,.064-.1.286.286,0,0,0-.064.1" transform="translate(-122.778 -88.378)" fill="#fff"/>
    <path id="Trazado_615352" data-name="Trazado 615352" d="M122.689,237.971l-.09.192.156-.129Z" transform="translate(-93.324 -181.147)" fill="#fff"/>
    <path id="Trazado_615353" data-name="Trazado 615353" d="M123.594,239.382l-.307.062.286.1c-.016-.041-.048-.121.021-.157" transform="translate(-93.848 -182.221)" fill="#fff"/>
    <path id="Trazado_615354" data-name="Trazado 615354" d="M128.306,132.224l-.075-.01c-.079.033-.083.077-.09.165Z" transform="translate(-97.543 -100.643)" fill="#fff"/>
    <path id="Trazado_615355" data-name="Trazado 615355" d="M127.6,142.745l0-.044-.275.1Z" transform="translate(-96.927 -108.626)" fill="#fff"/>
    <path id="Trazado_615356" data-name="Trazado 615356" d="M129.978,150.8c.007-.087-.062-.185-.055-.273.061.186-.293.316.055.273" transform="translate(-98.823 -114.586)" fill="#fff"/>
    <path id="Trazado_615357" data-name="Trazado 615357" d="M133.423,135.1c.014-.244-.185-.152-.222-.188.051.4.273.177.222.188" transform="translate(-101.394 -102.697)" fill="#fff"/>
    <path id="Trazado_615358" data-name="Trazado 615358" d="M136.543,156.05a.749.749,0,0,1-.083.032c.106.1.2.2.276.281-.057-.093-.121-.2-.193-.313" transform="translate(-103.875 -118.787)" fill="#fff"/>
    <path id="Trazado_615359" data-name="Trazado 615359" d="M141.144,152.857c-.226-.039-.548.248-.944.593a4.915,4.915,0,0,1-.594.454,1.5,1.5,0,0,1-.487.214l-.059-.051a5.066,5.066,0,0,1-.374.4,4.6,4.6,0,0,0,1.246-.667c.232-.172.46-.371.664-.535a5.544,5.544,0,0,1,.548-.4" transform="translate(-105.57 -116.354)" fill="#fff"/>
    <path id="Trazado_615360" data-name="Trazado 615360" d="M157.513,148.418c-.181-.021.262-.369-.388.272a.762.762,0,0,1,.087-.029c.062-.054.148-.126.3-.242" transform="translate(-119.606 -112.891)" fill="#fff"/>
    <path id="Trazado_615361" data-name="Trazado 615361" d="M157.2,149.751c-.3.264.272-.083,0,0" transform="translate(-119.597 -113.983)" fill="#fff"/>
    <path id="Trazado_615362" data-name="Trazado 615362" d="M162.152,144.382l-.324.43c.134-.011.5-.3.407-.144.369-.4.234-.386-.083-.286" transform="translate(-123.186 -109.861)" fill="#fff"/>
    <path id="Trazado_615363" data-name="Trazado 615363" d="M163.543,142.427l-.175.214c.058-.006.12-.044.175-.214" transform="translate(-124.358 -108.417)" fill="#fff"/>
    <path id="Trazado_615364" data-name="Trazado 615364" d="M161.812,143.762l.372-.454c-.094.007-.171-.072-.177.2-.029-.108-.053.04-.194.253" transform="translate(-123.174 -109.084)" fill="#fff"/>
    <path id="Trazado_615365" data-name="Trazado 615365" d="M158.38,145.667c-.273.134-.594.343-.267-.087-.738.683-.471.772.267.087" transform="translate(-120.024 -110.818)" fill="#fff"/>
    <path id="Trazado_615366" data-name="Trazado 615366" d="M147.266,150.6l-.374.177c-.1.126-.2.256-.3.389a2.139,2.139,0,0,1,.41-.315c.157-.106.294-.2.266-.251" transform="translate(-111.586 -114.64)" fill="#fff"/>
    <path id="Trazado_615367" data-name="Trazado 615367" d="M162.788,129.387c.043.072.3-.17.413-.181l1.941,1.541a.009.009,0,0,1-.007,0l-.24.317c.1-.05.237-.135.356-.191l-2.2-1.743c-.111.147-.211.259-.266.258" transform="translate(-123.916 -98.295)" fill="#fff"/>
    <path id="Trazado_615368" data-name="Trazado 615368" d="M165.544,131l0,0-1.931-1.533-.29.817c.279-.507.355-.717.338-.792l1.847,1.467a.051.051,0,0,0,.033.045" transform="translate(-124.326 -98.549)" fill="#fff"/>
    <path id="Trazado_615369" data-name="Trazado 615369" d="M161.6,140.578l-.557.816.694-.937Z" transform="translate(-122.586 -106.918)" fill="#fff"/>
    <path id="Trazado_615370" data-name="Trazado 615370" d="M155.277,142.585q.013-.2.036-.43-.072.409-.113.761Z" transform="translate(-118.14 -108.21)" fill="#fff"/>
    <path id="Trazado_615371" data-name="Trazado 615371" d="M147.745,152.848c-.022-.108-.183.073-.338.255s-.3.36-.264.2a3.817,3.817,0,0,0-.4,1.3,8.434,8.434,0,0,1,1-1.755" transform="translate(-111.704 -116.326)" fill="#fff"/>
    <path id="Trazado_615372" data-name="Trazado 615372" d="M146.336,160.813a2.791,2.791,0,0,0,.091-.51,1.056,1.056,0,0,0-.091.51" transform="translate(-111.387 -122.025)" fill="#fff"/>
    <path id="Trazado_615373" data-name="Trazado 615373" d="M158.4,138.37a2.234,2.234,0,0,0-.588.675q.217-.194.424-.369l.164-.305" transform="translate(-120.126 -105.329)" fill="#fff"/>
    <path id="Trazado_615374" data-name="Trazado 615374" d="M158.448,139.6l-.014.012-.361.663.375-.675" transform="translate(-120.327 -106.265)" fill="#fff"/>
    <path id="Trazado_615375" data-name="Trazado 615375" d="M160.315,138.049l-.041.077c.039-.032.057-.05.041-.077" transform="translate(-122.003 -105.085)" fill="#fff"/>
    <path id="Trazado_615376" data-name="Trazado 615376" d="M168.685,135.373c.184-.308.642-.864.008-.548-.094.265.269.084-.008.548" transform="translate(-128.4 -102.559)" fill="#fff"/>
    <path id="Trazado_615377" data-name="Trazado 615377" d="M162.49,133.739l.447-.75c-.061,0-.217.128-.16-.1Z" transform="translate(-123.69 -101.155)" fill="#fff"/>
    <path id="Trazado_615378" data-name="Trazado 615378" d="M161.834,136.822l.118-.365-.169.284Z" transform="translate(-123.152 -103.873)" fill="#fff"/>
    <path id="Trazado_615379" data-name="Trazado 615379" d="M149.81,153.642a4.183,4.183,0,0,1-.417,1.031c.324-.531.611-1.03.846-1.478-.081.016-.17-.06-.429.447" transform="translate(-113.72 -116.614)" fill="#fff"/>
    <path id="Trazado_615380" data-name="Trazado 615380" d="M155.358,147.368l-.024.07c.052-.062.081-.1.024-.07" transform="translate(-118.242 -112.169)" fill="#fff"/>
    <path id="Trazado_615381" data-name="Trazado 615381" d="M139.966,176.759l.133-.174-.084.084Z" transform="translate(-106.544 -134.419)" fill="#fff"/>
    <path id="Trazado_615382" data-name="Trazado 615382" d="M153.043,150.562a1.159,1.159,0,0,0,.267-.666c-.1.24-.223.5-.374.788.036-.006.067-.024.107-.122" transform="translate(-116.417 -114.103)" fill="#fff"/>
    <path id="Trazado_615383" data-name="Trazado 615383" d="M144.35,164.358c.2-.28.386-.565.574-.85a4.554,4.554,0,0,0-.574.85" transform="translate(-109.873 -124.465)" fill="#fff"/>
    <path id="Trazado_615384" data-name="Trazado 615384" d="M154.477,148.247a.361.361,0,0,1,.014-.047c-.131.154-.09.122-.014.047" transform="translate(-117.537 -112.812)" fill="#fff"/>
    <path id="Trazado_615385" data-name="Trazado 615385" d="M154.549,147.867a1.042,1.042,0,0,0-.048.358,4.94,4.94,0,0,0,.2-.524c-.045.055-.1.117-.151.166" transform="translate(-117.608 -112.432)" fill="#fff"/>
    <path id="Trazado_615386" data-name="Trazado 615386" d="M143.427,162.824a2.258,2.258,0,0,1-.346.337c-.075.05-.093.016-.069-.068a4.551,4.551,0,0,1,.573-.916c-.047-.063-.49.368-1.081,1.028s-1.345,1.571-1.981,2.408c.181-.188.349-.364.315-.1a.124.124,0,0,1,.08-.025c.051-.07.11-.157.176-.26.245-.364.554-.835.81-1.194s.461-.607.527-.58a2.535,2.535,0,0,1-.372.7c-.15.213-.355.463-.543.748.349-.45.508-.532.648-.586a.89.89,0,0,0,.244-.133,1.746,1.746,0,0,0,.185-.167c.016-.015.043-.046.071-.079l.086-.1.2-.239a.467.467,0,0,1-.035-.194,4.407,4.407,0,0,0,.515-.576" transform="translate(-106.969 -123.447)" fill="#fff"/>
    <path id="Trazado_615387" data-name="Trazado 615387" d="M140.4,169.173l.116-.271c-.275.452-.592.894-1.241,1.81-.075.341.054.247.2.109l.919-1.692Z" transform="translate(-106.001 -128.571)" fill="#fff"/>
    <path id="Trazado_615388" data-name="Trazado 615388" d="M145.313,159.2c.149-.063.176.045.26.047s.225-.1.579-.533c.4-.788-.063-.25.034-.625-.324.671-.33.622-.352.557s-.049-.165-.463.5a8,8,0,0,1,.33-.745q-.3.484-.623.984l.046-.06,0-.006.006,0c.09-.116.134-.166.062-.062,0,0-.005.018-.009.025a.482.482,0,0,1,.126-.073c-.328.532-.152.174-.126.073-.018.013-.032.019-.054.037l-.009.011-.581,1.349c.24-.4.438-.784.772-1.471" transform="translate(-110.027 -120.339)" fill="#fff"/>
    <path id="Trazado_615389" data-name="Trazado 615389" d="M168.613,131.965c-.034.026-.047.018-.061.014-.015.082-.012.114.061-.014" transform="translate(-128.298 -100.454)" fill="#fff"/>
    <path id="Trazado_615390" data-name="Trazado 615390" d="M164.63,131.8a.751.751,0,0,1,.14-.459c.045-.053.072-.076.089-.08l.373.3c-.006,0-.01,0-.007-.008l-.357-.284c.04,0,.011.124.058.135l.02-.095.222.177c-.1.159-.226.369.14.162l-.552-.438a.2.2,0,0,0-.02.025l-.02.1a7.079,7.079,0,0,1-.585.7c-.2.21-.358.364-.348.315a5.151,5.151,0,0,0,.848-.541" transform="translate(-124.673 -99.878)" fill="#fff"/>
    <path id="Trazado_615391" data-name="Trazado 615391" d="M157.591,146.067l-.4.981.58-.72-.191.134c.376-.625.1-.385.013-.394" transform="translate(-119.655 -111.16)" fill="#fff"/>
    <path id="Trazado_615392" data-name="Trazado 615392" d="M136.973,179.187l-.478.442a1.471,1.471,0,0,0,.292-.074l.216-.184-.077.029Z" transform="translate(-103.902 -136.4)" fill="#fff"/>
    <path id="Trazado_615393" data-name="Trazado 615393" d="M136.409,182.156l-.447.48.272-.176Z" transform="translate(-103.496 -138.66)" fill="#fff"/>
    <path id="Trazado_615394" data-name="Trazado 615394" d="M217.643,142.3l-.032.319a2.053,2.053,0,0,0,.032-.319" transform="translate(-165.649 -108.322)" fill="#fff"/>
    <path id="Trazado_615395" data-name="Trazado 615395" d="M219.076,132.513l-.089-.063c.043.111.078.158.089.063" transform="translate(-166.696 -100.823)" fill="#fff"/>
    <path id="Trazado_615396" data-name="Trazado 615396" d="M172.7,150.021c-.373.265-.856.519-.649.589h.245a1.969,1.969,0,0,1,.4-.589" transform="translate(-130.933 -114.198)" fill="#fff"/>
    <path id="Trazado_615397" data-name="Trazado 615397" d="M178.3,180.528c-.038.01-.076.02-.114.028-.034.134-.075.268-.117.392.075-.134.16-.273.231-.421" transform="translate(-135.548 -137.42)" fill="#fff"/>
    <path id="Trazado_615398" data-name="Trazado 615398" d="M177.544,176.154l.071-.026.037-.015.058-.037.235-.151a1.97,1.97,0,0,0-.2.116l-.06.039a.286.286,0,0,1-.053.032l-.083.041" transform="translate(-135.149 -133.917)" fill="#fff"/>
    <path id="Trazado_615399" data-name="Trazado 615399" d="M192.9,185.736l-.068.4c.357-.413.118-.3.068-.4" transform="translate(-146.784 -141.385)" fill="#fff"/>
    <path id="Trazado_615400" data-name="Trazado 615400" d="M148.329,186a1.37,1.37,0,0,0,.006.189,6.247,6.247,0,0,0,.5-.479,1.557,1.557,0,0,1-.3.086c.019-.132-.021-.126-.214.2" transform="translate(-112.909 -141.366)" fill="#fff"/>
    <path id="Trazado_615401" data-name="Trazado 615401" d="M209.523,136.894c.011.165.034.241.081.246,0-.171-.026-.271-.081-.246" transform="translate(-159.492 -104.203)" fill="#fff"/>
    <path id="Trazado_615402" data-name="Trazado 615402" d="M151.657,180.2c-.045.019-.1.065-.15.093-.344.431-.7.86-1.042,1.222a4.013,4.013,0,0,0,1.191-1.315" transform="translate(-114.537 -137.174)" fill="#fff"/>
    <path id="Trazado_615403" data-name="Trazado 615403" d="M212.96,164.984c.021-.021.042-.05.064-.068-.021-.021-.04.014-.064.068" transform="translate(-162.108 -125.531)" fill="#fff"/>
    <path id="Trazado_615404" data-name="Trazado 615404" d="M234.495,119.269c.005.124-.007.325-.016.514a2.206,2.206,0,0,0,.016-.514" transform="translate(-178.489 -90.789)" fill="#fff"/>
    <path id="Trazado_615405" data-name="Trazado 615405" d="M137.115,190.844c-.01-.09-.012,0,0,0" transform="translate(-104.368 -145.242)" fill="#fff"/>
    <path id="Trazado_615406" data-name="Trazado 615406" d="M140.365,185.182c.005.015.019.015.061-.029-.038.035-.056.042-.061.029" transform="translate(-106.848 -140.941)" fill="#fff"/>
    <path id="Trazado_615407" data-name="Trazado 615407" d="M170.06,155.925l.015-.016c-.039-.017-.033-.013-.015.016" transform="translate(-129.442 -118.672)" fill="#fff"/>
    <path id="Trazado_615408" data-name="Trazado 615408" d="M137.246,190.072a1.074,1.074,0,0,0-.039.174l.039-.174" transform="translate(-104.444 -144.685)" fill="#fff"/>
    <path id="Trazado_615409" data-name="Trazado 615409" d="M137.072,190.122l.011-.1c-.025.016-.037.041-.011.1" transform="translate(-104.33 -144.647)" fill="#fff"/>
    <path id="Trazado_615410" data-name="Trazado 615410" d="M137.148,190.976a1.059,1.059,0,0,1,.008-.174c-.007.028-.012.042-.016.041,0,.028,0,.067.007.133" transform="translate(-104.394 -145.241)" fill="#fff"/>
    <path id="Trazado_615411" data-name="Trazado 615411" d="M146.039,223.055c.019,0,.039,0,.06,0,.217-.185.113-.126-.06,0" transform="translate(-111.167 -169.7)" fill="#fff"/>
    <path id="Trazado_615412" data-name="Trazado 615412" d="M169.39,175.712s-.006,0-.007-.008l-.021.02Z" transform="translate(-128.921 -133.748)" fill="#fff"/>
    <path id="Trazado_615413" data-name="Trazado 615413" d="M166.114,176.024c-.185.053-.233.023-.222-.028a.609.609,0,0,1,.166-.207q-.49.221-1.036.53a3.492,3.492,0,0,0,1.092-.3" transform="translate(-125.617 -133.813)" fill="#fff"/>
    <path id="Trazado_615414" data-name="Trazado 615414" d="M152.467,120.529l.52-.533c-.162.915-.6,1.4-.016.953-.25-.211.095-.825.411-1.462s.593-1.3.315-1.48c.106-.129.214-.257.314-.392-.058.127-.03.163-.091.286a.766.766,0,0,0,.219-.836,1.5,1.5,0,0,1,.081-1.09c.16-.393.329-.66.327-.359.019-.16.024-.324.034-.485s.017-.323.016-.486c.061-.272.161-.188.1.087a11.305,11.305,0,0,0,.129-1.48l.018.012c-.092-.222-.241-.7-.326-.926.077-.378.077.184.153.086-.057-.272-.142-.54-.222-.8,0-.013.01-.024.016-.025l-1.414-.185c-.077.048-.119.017-.136-.057l-.616-2.7,2.312,2.92a1.806,1.806,0,0,1,.213.936.785.785,0,0,0,.107-.979l-2.316-.3a1.96,1.96,0,0,1-.528,1.093l.209-.652c-.514.245-.615.781-1.162,1.369.192-.1,1.188-1.139,1-.36a1.821,1.821,0,0,0-.362.873c-.208-.1-.343.3-.572.766l-.255-.172c-.182.537-.024.571-.061.928a.931.931,0,0,1-.844.566c-.533.847.672-.416.137.645a8,8,0,0,0-1.092,2.173c-.407.434-.1-.186-.289-.058l-.077.567c-.074.1-.114.028-.134-.011-.163.415.235.2-.082.817.089.173-.216.4-.565.683a2.237,2.237,0,0,0-.852,1.088c-.2.111-.086-.193-.219-.215a13.992,13.992,0,0,0-.829,1.84l-.69.476c.282-.146.349-.032.307.2a2.167,2.167,0,0,1-.138.417,4.879,4.879,0,0,1-.213.479,2.819,2.819,0,0,0,.539-.2c-.235.332-.5.685-.8,1.036-.129.055-.057-.156.029-.416l-.128.225c-.334.173-.187-.218-.083-.563.1-.013.21-.03.328-.054.09-.364.07-.642-.078-.746a.616.616,0,0,1-.111.237c.006-.08,0-.137-.032-.149s-.038.1-.091.255a1.3,1.3,0,0,1-.234-.253l.022.17a1.908,1.908,0,0,1-.53.194,9.987,9.987,0,0,1-1.052,1.651,9.238,9.238,0,0,1-.887,1,8.364,8.364,0,0,1-1.133.953,5.836,5.836,0,0,0,.745-.994c.166-.278.322-.56.591-.965-.162.355.109.157.381-.131l.412-.429a1.279,1.279,0,0,1,.31-.269c-.171.078.021-.273.1-.405q-.195.254-.447.528c-.168.183-.347.384-.554.578.4-.641.143-.389.177-.581a5.3,5.3,0,0,1-.521.726,2.717,2.717,0,0,1-.467.418c-.307.232-.609.324-1,.638a8.58,8.58,0,0,1,.678-.719,1.22,1.22,0,0,1,.545-.356c.111-.231.071-.236-.081-.111s-.41.379-.694.636a10.262,10.262,0,0,1-.8.678.631.631,0,0,1-.234.126c-.021,0-.032-.01-.031-.034-.01,0,.035-.05.063-.085l.108-.125-.045.07a.234.234,0,0,0,.066-.023,1.4,1.4,0,0,0,.273-.222,2.856,2.856,0,0,1-.249.173.355.355,0,0,1-.048.027.029.029,0,0,1,0-.012.183.183,0,0,1,.015-.039,2.246,2.246,0,0,1,.2-.3,4.465,4.465,0,0,1,.606-.665l-.046.08a5.951,5.951,0,0,0,.646-1.087.525.525,0,0,0,.054-.336c-.029-.069-.109-.092-.283,0,.053-.035.269-.15.5-.275l.537-.3q-1.072.426-1.3-.5a5.1,5.1,0,0,0,1.043-.263c.383-.093.684-.09.707.061a1.681,1.681,0,0,0,.206-.222.523.523,0,0,0,.1-.291,1.855,1.855,0,0,1-.407.133c-.172.042-.328.062-.291-.028.739-.45.4-.249,1.07-.695-.219.21-.51-.357-.249-.742.031.1.479.254.437.428l.158-1.265c-.071.3.359.284.625.145-.153.046.538-.843.657-1.132l-.366.35c.761-1.065.043-1.494.754-2.578a.414.414,0,0,0,.78.168,5.628,5.628,0,0,1,.015-2.919l.25-.1.314-.841a17.989,17.989,0,0,1-.173,3.34c.365-.348.229-.017.605-.645.262-.141-.022.457-.129.644l.984-1.394c-.313-.106.418-1.276.156-1.362l-.7,1.746c-.311-.106-.205-1.39.483-2.384.271-.193.363.5.467.533a3.006,3.006,0,0,1,.375-.9l-1.319-1a.713.713,0,0,1-.218.2l.125-.284,1.518,1.149-.053.224a1.116,1.116,0,0,0,.13-.176l-1.663-1.258c-.366.417-.349.993-1.032,1.341-.2.193-.865.339-.757.5.577-.091,1.476.6,1.476,1.014a13.2,13.2,0,0,1-1.591.963c-.521.147-.044-.97-.49-.846.054.071-.037.332-.082.434-.252.166-.12-.272-.518.225a.166.166,0,0,1,.012.125.6.6,0,0,1-.189.288c-.043.039-.07.062-.051.062a1.112,1.112,0,0,0,.252-.092.968.968,0,0,1-.308.345,1.489,1.489,0,0,0-.36.313c.074.075.046.372-.111.79a6.1,6.1,0,0,1-.692,1.3.332.332,0,0,0-.047-.305,12.631,12.631,0,0,1-.969.92,8.807,8.807,0,0,0-.844.811c.025-.087-.007-.116.007-.207a1.755,1.755,0,0,1,.249-.543,9.576,9.576,0,0,1-.668,1,.058.058,0,0,1,0-.012,1.564,1.564,0,0,1,.3-.565c.078-.1.162-.2.25-.344a3.633,3.633,0,0,0,.284-.571c-.118.224-.255.448-.412.685-.309.47-.694.982-1.07,1.513-.429.783.082.13.542-.518.187-.263.369-.528.5-.728a24.587,24.587,0,0,1-1.33,2.285A22.7,22.7,0,0,1,138.3,125c-.651.705.13-.469-.039-.241a6.491,6.491,0,0,0-.685.735c-.207.251-.385.489-.543.689a4.451,4.451,0,0,1-.417.483,1.142,1.142,0,0,1-.373.24c-.073-.021-.027-.108.063-.247a2.492,2.492,0,0,0,.221-.357,5.322,5.322,0,0,1,.6-.617,3.35,3.35,0,0,0,.4-.332q-.145.1-.31.232a6.828,6.828,0,0,1,.772-.882c-.01-.011-.042.008-.094.052-.016.016-.021.016-.028.017a.153.153,0,0,0-.026.013.682.682,0,0,0-.075.058c-.119.1-.314.307-.54.548-.447.478-1.033,1.128-1.251,1.289.167-.284.348-.584.547-.9l-.4.468-.115.145a1.048,1.048,0,0,1-.085.107s-.022.024-.057.083l-.185.372c-.121.213-.044.051,0-.069s.077-.219-.032.009a3.172,3.172,0,0,0,.127-.5,2.539,2.539,0,0,1,.225-.681l.4-.508a2.286,2.286,0,0,0-.224.367.87.87,0,0,0-.114.3,3.637,3.637,0,0,1,.37-.723c.19-.335.386-.677.142-.476q-.248.388-.452.726c-.031-.078-.145-.076-.25-.092s-.193-.058-.064-.343c-.32.421-.3.411-.3.436s-.021.082-.336.535c.2-.262.3-.352.336-.34s.024.115.011.213-.022.188.01.194.1-.068.283-.341a2.564,2.564,0,0,0-.415.753,4.081,4.081,0,0,1-.217.581c.078-.1.153-.268.115.012a.084.084,0,0,1,.055-.01l-.006.022.008-.022c.008,0,.01,0,0-.008a1.231,1.231,0,0,1,.121-.258c.141-.043-.045.539-.092.715-.042.117-.034.095-.028.066s.011-.064-.01,0l-.016.076q.083-.062.177-.144c0,.016.092-.033.124-.026s.012.053-.161.14l.284-.11a.511.511,0,0,0,.481-.1c.044.016.173-.1.268-.2s.146-.161.007.012q.284-.2.611-.484l-.063.124a2.192,2.192,0,0,0,.574-.413,5.71,5.71,0,0,1,.661-.548,5.333,5.333,0,0,1,1.218-1.084,20.762,20.762,0,0,1,1.77-2.041c0,.094,0,.185,0,.273a15.921,15.921,0,0,1,1.18-1.236,5.254,5.254,0,0,0,.952-1.127c.3.038,1.156-.863,2.012-1.842,1.035-1.178,1.252-1.529,1.646-1.9l-.156-.189a14.477,14.477,0,0,0,1.281-1.64l-.192-.107a5,5,0,0,1,1.124-1.171l-1.532-1.159a9.232,9.232,0,0,0-.739,1.023c-.03-.107.136-.331.282-.472-1.105.856-1.168,2.533-2.1,3.354a1.317,1.317,0,0,1-.383.608.251.251,0,0,0,.029-.068c-.018.024-.043.063-.067.1-.1.091-.208.183-.315.289a1.835,1.835,0,0,0,.281-.233,7.208,7.208,0,0,0-.413.821h-.272l-.036.07c-.249.238-.05.285.191.226a2.347,2.347,0,0,0-.121.455c-.458.033-.367.822-.9.926.042.3-.783,1.526-.534,1.895-.051-.018-.126.053-.031-.1l-.178.223-.088.119-.1.156a2.5,2.5,0,0,0-.307.626q-.209.058-.431.138a5.973,5.973,0,0,0-.121.935c-.569.574-.93.955-.847.4-.123.36-.2.588-.277.767s-.131.3-.186.422a3.1,3.1,0,0,0-.148.36,1.631,1.631,0,0,0-.082.452l-.336.18a1.582,1.582,0,0,0-.139.3,1.382,1.382,0,0,0-.009.2.72.72,0,0,1-.256.47,12.176,12.176,0,0,0-1.472,2.53l-.192.392-.1.2-.025.05s-.006.01,0,.011l.016,0,.032-.009.129-.037.516-.146c.174-.047.342-.094.492-.143.633-.187,1.177-.357,1.617-.445.08-.325.25-.338.47-.352a.994.994,0,0,0,.362-.063.847.847,0,0,0,.369-.338c.005.141.248.109-.194.461.595-.351.986-.548,1.361-.734a3.045,3.045,0,0,0,.578-.385,4.362,4.362,0,0,0,.629-.634c.1.1-.3.455-.206.488l.263-.259c.107-.1.212-.192.272-.19.122,0-.2.311-.424.543a6.437,6.437,0,0,0,.806-.737,2.734,2.734,0,0,0,.427-.59,1.752,1.752,0,0,0,.179-.891,2.435,2.435,0,0,0,.682-.486,1.858,1.858,0,0,0,.383-.7l.1-.037.087-.024a.247.247,0,0,1,.129-.01c.027.011.032.04,0,.1a.7.7,0,0,1-.079.123c-.048.063-.112.139-.191.231l.215-.208.246-.232c.175-.172.374-.382.561-.588.372-.415.663-.837.56-.947.142-.043.357-.413.394-.515.279-.337.43-.521.575-.707s.289-.371.522-.731l-.178.165c-.106-.492.35-.622.7-1.221l.02.037a2.792,2.792,0,0,0,.682-.9,3.014,3.014,0,0,1,.678-.889l-.24-.048c-.345-.376.963-1.027,1.237-1.917l-.273.22c.093-.507,1.254-.883,1.54-1.3.089-.077-.019.184-.062.334.865-1.029-.185-.289.2-1.186.225-.088.264.394.584-.183a2.485,2.485,0,0,0,.3-.9,6.931,6.931,0,0,1,.428-1.369l-1.96-.257a1.224,1.224,0,0,1-.041.4c.107-.172.214-.364.346.027a3.239,3.239,0,0,1-.18,1.127,1.739,1.739,0,0,0-.06,1.1c-.047.072-.089.094-.119.091,0,.122-.012.281-.031.456s-.046.367-.076.554a3.047,3.047,0,0,0-.063.91c-.452.079-.637.817-.869,1.51s-.468,1.33-.781,1.142c-.241.454-.508.9-.777,1.341l-.041-.075a3.142,3.142,0,0,0-.72,1.573c-.176.159-.132-.019-.151-.057a9.976,9.976,0,0,0-.967,1.159,8.407,8.407,0,0,0-.6,1.236l-.264-.054c-.109.353-1.663,1.366-2.465,2.592a.226.226,0,0,1,.033-.189,8.9,8.9,0,0,1-1.934,1.786c-.669.524-1.2,1-1.13,1.516l-.654.886c1.082-.893.1.418.62.135-.375.412-1.237.762-.76.277l.108-.039c-.112-.5-1.408,1.037-1.585.776a50,50,0,0,1-4.834,3.641l.879,1.7c.636-.2,1.265-.412,1.883-.631l-.409-.223c.289-.1.582-.192.869-.3.25-.023.4.138-.217.36.4.071.961-.578.948-.65,1.242-.371-.307.572.059.426l.487-.234-.128.01a2.444,2.444,0,0,1,1.054-.751c.48-.156.322.083.506.008.01.023.075,0,.278-.124l1.065-.486-.544-.042a4.323,4.323,0,0,1,.567-.368c.115-.086.109-.118-.2-.14a2.373,2.373,0,0,0,1-.282,11.959,11.959,0,0,0,1.337-.7c.888-.56,1.72-1.132,1.949-1.229a10.518,10.518,0,0,1,1.751-1.538c-.207.095-.5-.067.108-.513.1.332.414.171.8-.093a3.08,3.08,0,0,1,1.2-.693c-.155.039-.135-.038-.032-.17.051-.067.124-.145.2-.234l.242-.287c.329-.39.613-.759.156-.6.479-.422.2.138.647-.109l.347-.479c.121-.16.251-.319.387-.477s.28-.314.428-.472.285-.329.434-.5l.447-.51a6.542,6.542,0,0,0,.437-.536,11.5,11.5,0,0,0,.791-1.171c-.057-.069-.327.133-.226-.28l.872-.645c.161-.345-.259-.536.32-1-.108.053-.268.13-.176-.1a16.916,16.916,0,0,0,2.142-5.186c.486-1.836.8-3.688,1.336-5.546-.208.5-.185.157-.171-.233-.054.25-.207-.02-.323.022q.212-.768.377-1.559c-.158-.146-.159-.567-.177-.975s-.044-.8-.2-.874c.032.165.058.33.084.5-.195-.322-.381-.075-.576.226s-.417.663-.647.619c.2.35.052.82-.1,1.331a4,4,0,0,0-.176.8,1.828,1.828,0,0,0,.107.869c-.117.243-.126-.231-.245-.107a1.656,1.656,0,0,1-.016,1.3l-.036-.08a11.266,11.266,0,0,1-.5,2.193c-.217.648-.472,1.311-.857,2.255l.264-.072a2.42,2.42,0,0,1-.39.646c.158.594.422-1.161.63-.606-.317.207-.558.943-.861,1.634a5.746,5.746,0,0,1-.462.941c-.16.257-.319.437-.478.468-.305.6.33-.059.015.539l-.209.094.082.236c-.234.38-.489.493-.606.446a2.059,2.059,0,0,0,.157-.389,4.08,4.08,0,0,0-.549.881,3.974,3.974,0,0,1-.352.673c.139-.166.269-.337.4-.506-.105.2-.208.417-.334.621l-.4.616c-.139.205-.268.421-.422.621l-.457.6c-.155.2-.295.411-.457.6s-.314.387-.464.581-.291.39-.433.58-.287.37-.416.556l.172-.024c-.809,1.132-.854.7-1.892,1.787l.023-.056a2.823,2.823,0,0,1-.765.827c.215-.337-.707.262-.407-.16a5.577,5.577,0,0,0-.7.808,2.918,2.918,0,0,1-.34.677l-.288-.011a1.75,1.75,0,0,1-.771.872c.443-.462-.556.033-.079-.508a3.817,3.817,0,0,0-.941.466c-.252.171-.451.356-.646.5a1.419,1.419,0,0,1-1.137.457c-.4.787,1.332-.431,1.026-.141.382-.03-.348.614-.814.817-.45.253-1.065-.157-2.2.411.115-.053.107-.091.221-.144a1.831,1.831,0,0,0-.64.326,1.64,1.64,0,0,1-.755.269c-.186.4-.706.28-.649.666l1.049-.538c-.287.175-.531.425-.844.661a2.581,2.581,0,0,1-1.252.546,2.421,2.421,0,0,1,.517-.438c-.34.012-.556.282-.91.29-.021-.194.307-.334.711-.491a3.9,3.9,0,0,0,1.137-.643c-.375-.015-1.132.776-.957.257-.136.348-.443.432-.79.526a2.193,2.193,0,0,0-1.082.52l-.021-.234a2.93,2.93,0,0,1-.517.332l.846,1.641.065-.049c-.012.029-.022.056-.037.087l-.888-1.723.278-.363a1.291,1.291,0,0,1-.333.2l1.044,2.026c.468-.375,1.076-.474,1.459-.913-1.15.9-.426-.015-1.014.228.619-.664.908-.707,1.239-.748a2.246,2.246,0,0,0,1.443-.758c-.19.2-.878.538-.614.189a4.459,4.459,0,0,1,1.027-.515c.991-.889-.306-.048.04-.518.524-.078.427-.505.809-.949l.153.172c1.238-.88-.01-.621,1.125-1.386l-.218.62.475-.533.066.293a4.166,4.166,0,0,1,1.263-1.246c-.24,0-.211-.372.269-.836.424-.215-.033.337.629-.344a.723.723,0,0,1-.547.677c.021.084-.055.25-.036.334a5.041,5.041,0,0,0,1.17-1.072,1.43,1.43,0,0,1-.305.222q.386-.595.76-1.2c.215-.092.143.078.069.247.181-.215.241-.428.515-.734.059.207.216.324-.133.8q.392-.543.775-1.091c.119-.007.63-.339.562-.166.588-.462.958-1.569,1.7-2.213a.871.871,0,0,1,.158-.338,7.471,7.471,0,0,0,1.772-2.2c.215-.1.426-.2.64-.306.44-.745-.831.44-.109-.8.481-.894.449-.152.728-.4a4.38,4.38,0,0,1,1.009-2.123,5.293,5.293,0,0,1-.387.756m-.32-7.864c.04-.2.068-.609.25-.681.149.31-.04.414-.25.681m-7.878,12.454a.411.411,0,0,1,.351-.256.69.69,0,0,1-.351.256m-8.209,2.11.015-.016c.119.009.079,0-.015.016m-.328.133c-.048.041-.054.055-.049.064a.819.819,0,0,1,.218-.141c0-.035-.037-.026-.169.077m4.98,7.887-.19.026c.343-.241.265-.136.19-.026" transform="translate(-102.553 -81.638)" fill="#fff"/>
    <path id="Trazado_615415" data-name="Trazado 615415" d="M177.75,177.224a.26.26,0,0,1,.116.06c.008-.065-.026-.094-.116-.06" transform="translate(-135.306 -134.895)" fill="#fff"/>
    <path id="Trazado_615416" data-name="Trazado 615416" d="M193.094,185.426l-.023.022a.1.1,0,0,0,.01.051Z" transform="translate(-146.968 -141.149)" fill="#fff"/>
    <path id="Trazado_615417" data-name="Trazado 615417" d="M177.467,141.554a1.011,1.011,0,0,1,.334-.191c-.035-.045-.128-.014-.334.191" transform="translate(-135.09 -107.594)" fill="#fff"/>
    <path id="Trazado_615418" data-name="Trazado 615418" d="M136.38,186.78a.559.559,0,0,1,.1.1c-.023-.08.043-.192.1-.308-.081.1-.189.258-.2.205" transform="translate(-103.814 -142.024)" fill="#fff"/>
    <path id="Trazado_615419" data-name="Trazado 615419" d="M154.44,157.88c-.026-.011.077-.153.05-.164l-.258.26c-.166.332-.076.346.207-.1" transform="translate(-117.34 -120.056)" fill="#fff"/>
    <path id="Trazado_615420" data-name="Trazado 615420" d="M141.571,178.31a1.2,1.2,0,0,0,.377-.726.272.272,0,0,1-.019.048c-.516.53-.407.571-.357.678" transform="translate(-107.732 -135.179)" fill="#fff"/>
    <path id="Trazado_615421" data-name="Trazado 615421" d="M143.22,176.611a1.035,1.035,0,0,1,.09-.241c-.225.233-.084.151-.09.241" transform="translate(-108.992 -134.255)" fill="#fff"/>
    <path id="Trazado_615422" data-name="Trazado 615422" d="M137.139,192.038c.02-.1-.043.007-.028-.053-.035,0,0,.078.009.153.07-.032.127-.079.011-.015l.009-.085" transform="translate(-104.36 -146.142)" fill="#fff"/>
    <path id="Trazado_615423" data-name="Trazado 615423" d="M145.338,174.317l-.491.6.237-.18Z" transform="translate(-110.259 -132.693)" fill="#fff"/>
    <path id="Trazado_615424" data-name="Trazado 615424" d="M140.07,184.807l.322-.6c-.039.048-.025,0,0-.063a5.873,5.873,0,0,0-.321.665" transform="translate(-106.617 -140.171)" fill="#fff"/>
    <path id="Trazado_615425" data-name="Trazado 615425" d="M141.438,182.934a1.923,1.923,0,0,0,.165-.379c-.041.088-.125.272-.165.379" transform="translate(-107.665 -138.963)" fill="#fff"/>
    <path id="Trazado_615426" data-name="Trazado 615426" d="M144.466,176.279l-.268.4-.28.494Z" transform="translate(-109.553 -134.186)" fill="#fff"/>
    <path id="Trazado_615427" data-name="Trazado 615427" d="M151.838,174.51l.557-.67c.185-.309.137-.323-.092-.031a4.59,4.59,0,0,0-.465.7" transform="translate(-115.581 -132.145)" fill="#fff"/>
    <path id="Trazado_615428" data-name="Trazado 615428" d="M151.757,169.823c-.063.144-.229.405-.419.732l.959-1.5Z" transform="translate(-115.201 -128.688)" fill="#fff"/>
    <path id="Trazado_615429" data-name="Trazado 615429" d="M158.271,162.462c.124-.2.394-.584.563-.84s.253-.4.046-.156c-.116.189-.3.444-.439.654s-.245.373-.17.341" transform="translate(-120.459 -122.815)" fill="#fff"/>
    <path id="Trazado_615430" data-name="Trazado 615430" d="M182.739,141.054l-.12.138.378.307Z" transform="translate(-139.012 -107.373)" fill="#fff"/>
    <path id="Trazado_615431" data-name="Trazado 615431" d="M181.548,154.808c.551-.662-.147-.331.385-.907.009-.231-.435.471-.41.245-.17.5-.372.694.025.663" transform="translate(-138.022 -117.115)" fill="#fff"/>
    <path id="Trazado_615432" data-name="Trazado 615432" d="M182.176,154.239c.027-.08.054-.167.077-.262a1.209,1.209,0,0,0-.077.262" transform="translate(-138.675 -117.209)" fill="#fff"/>
    <path id="Trazado_615433" data-name="Trazado 615433" d="M235.476,108.635l.074-.586-.144.383Z" transform="translate(-179.194 -82.249)" fill="#fff"/>
    <path id="Trazado_615434" data-name="Trazado 615434" d="M233.822,104.347l.3-.168c-.1-.112-.211-.212-.322-.338a.917.917,0,0,1,.027.506" transform="translate(-177.968 -79.045)" fill="#fff"/>
    <path id="Trazado_615435" data-name="Trazado 615435" d="M202.585,133.423l.048.07c.109-.037.172-.145.3-.363Z" transform="translate(-154.211 -101.34)" fill="#fff"/>
    <path id="Trazado_615436" data-name="Trazado 615436" d="M217.127,145.28l.049-.133-.346.165Z" transform="translate(-165.053 -110.488)" fill="#fff"/>
    <path id="Trazado_615437" data-name="Trazado 615437" d="M206.273,168.96c.16-.217.286-.513.442-.734-.28.521-.771.6-.442.734" transform="translate(-156.935 -128.055)" fill="#fff"/>
    <path id="Trazado_615438" data-name="Trazado 615438" d="M15.793,68.68c-.027-.036-.116.144-.139.171.083,0,.164-.217.139-.171" transform="translate(-11.916 -52.275)" fill="#fff"/>
    <path id="Trazado_615439" data-name="Trazado 615439" d="M19.542,68.351l-.052.064.189-.121Z" transform="translate(-14.836 -51.987)" fill="#fff"/>
    <path id="Trazado_615440" data-name="Trazado 615440" d="M20.673,68.929c.12-.325-.231-.072-.269-.235l.023-.077-.184.21c.143.034.393-.031.43.1" transform="translate(-15.409 -52.233)" fill="#fff"/>
    <path id="Trazado_615441" data-name="Trazado 615441" d="M21.56,73.065c.048-.125.122-.061-.049-.077a.287.287,0,0,1,0,.036.16.16,0,0,1,.053.04" transform="translate(-16.371 -55.557)" fill="#fff"/>
    <path id="Trazado_615442" data-name="Trazado 615442" d="M21.4,73.139c-.064-.026-.018.119,0,0" transform="translate(-16.267 -55.672)" fill="#fff"/>
    <path id="Trazado_615443" data-name="Trazado 615443" d="M22.312,73.544l-.138.057c-.024.077.037.133-.018.167.112-.009.136-.086.155-.224" transform="translate(-16.866 -55.983)" fill="#fff"/>
    <path id="Trazado_615444" data-name="Trazado 615444" d="M23.422,72.827l-.066.02c-.01.032,0,.049.066-.02" transform="translate(-17.776 -55.437)" fill="#fff"/>
    <path id="Trazado_615445" data-name="Trazado 615445" d="M22.787,72.7l.139-.041c.016-.054.071-.15-.059.01.058-.083-.008-.009-.08.031" transform="translate(-17.346 -55.249)" fill="#fff"/>
    <path id="Trazado_615446" data-name="Trazado 615446" d="M22.408,72.057c-.006-.09-.039-.163.1-.219-.172-.047-.272.173-.1.219" transform="translate(-16.989 -54.679)" fill="#fff"/>
    <path id="Trazado_615447" data-name="Trazado 615447" d="M22.541,68.335l-.008-.12-.108.069c.054-.034.065.146.116.051" transform="translate(-17.07 -51.926)" fill="#fff"/>
    <path id="Trazado_615448" data-name="Trazado 615448" d="M24.458,74.525a2.829,2.829,0,0,0,.113-.266l-.1.038a.333.333,0,0,1-.014.227" transform="translate(-18.618 -56.527)" fill="#fff"/>
    <path id="Trazado_615449" data-name="Trazado 615449" d="M24.931,73.992l.149-.057c-.069-.058-.113-.015-.149.057" transform="translate(-18.978 -56.26)" fill="#fff"/>
    <path id="Trazado_615450" data-name="Trazado 615450" d="M23.633,71.494l-.273.143.3-.13Z" transform="translate(-17.781 -54.422)" fill="#fff"/>
    <path id="Trazado_615451" data-name="Trazado 615451" d="M25.385,76.045l-.134.116.215-.168Z" transform="translate(-19.221 -57.847)" fill="#fff"/>
    <path id="Trazado_615452" data-name="Trazado 615452" d="M26.3,76.638c-.106.1-.07.232-.151.283.071.013.182-.06.282-.126-.079.023-.122-.02-.131-.157" transform="translate(-19.906 -58.338)" fill="#fff"/>
    <path id="Trazado_615453" data-name="Trazado 615453" d="M27.487,76.919a.891.891,0,0,0-.155.09.467.467,0,0,0,.155-.09" transform="translate(-20.806 -58.552)" fill="#fff"/>
    <path id="Trazado_615454" data-name="Trazado 615454" d="M25.951,74.51a.383.383,0,0,0-.037.218l.069-.2-.032-.022" transform="translate(-19.721 -56.718)" fill="#fff"/>
    <path id="Trazado_615455" data-name="Trazado 615455" d="M26.228,74.577l0,.006c.034.025.058.044.067.053l-.065-.059" transform="translate(-19.964 -56.769)" fill="#fff"/>
    <path id="Trazado_615456" data-name="Trazado 615456" d="M26.057,74.446l.008.006c.007-.019.008-.026-.008-.006" transform="translate(-19.835 -56.66)" fill="#fff"/>
    <path id="Trazado_615457" data-name="Trazado 615457" d="M25.054,71.686c.108-.069.275-.112.262-.322-.107.1-.1.219-.262.322" transform="translate(-19.071 -54.323)" fill="#fff"/>
    <path id="Trazado_615458" data-name="Trazado 615458" d="M25.881,73.162l-.068-.094c-.025.048-.049.125-.1.159Z" transform="translate(-19.572 -55.62)" fill="#fff"/>
    <path id="Trazado_615459" data-name="Trazado 615459" d="M26.5,73.337l-.077.03.025.035Z" transform="translate(-20.113 -55.825)" fill="#fff"/>
    <path id="Trazado_615460" data-name="Trazado 615460" d="M27.668,75.324a.186.186,0,0,1,.187-.018.33.33,0,0,0-.126-.145c-.04.051-.12.137-.061.164" transform="translate(-21.045 -57.213)" fill="#fff"/>
    <path id="Trazado_615461" data-name="Trazado 615461" d="M27.044,75.1l.015-.005c0-.018,0-.025-.015.005" transform="translate(-20.586 -57.15)" fill="#fff"/>
    <path id="Trazado_615462" data-name="Trazado 615462" d="M30.493,76.835c0-.011.008-.025.011-.037l-.02.029Z" transform="translate(-23.205 -58.46)" fill="#fff"/>
    <path id="Trazado_615463" data-name="Trazado 615463" d="M27.645,74.9c-.019-.057-.068-.028-.122.014a.225.225,0,0,1,.112.024c.018-.023.028-.039.011-.038" transform="translate(-20.951 -56.991)" fill="#fff"/>
    <path id="Trazado_615464" data-name="Trazado 615464" d="M28.671,76.468a.694.694,0,0,0-.011-.137c-.013.067-.023.178.011.137" transform="translate(-21.807 -58.104)" fill="#fff"/>
    <path id="Trazado_615465" data-name="Trazado 615465" d="M27,75.38l-.011,0c-.009.045,0,.026.011,0" transform="translate(-20.538 -57.38)" fill="#fff"/>
    <path id="Trazado_615466" data-name="Trazado 615466" d="M27.041,75.135a.564.564,0,0,0,.115-.077.245.245,0,0,0-.1.021.367.367,0,0,1-.015.056" transform="translate(-20.584 -57.135)" fill="#fff"/>
    <path id="Trazado_615467" data-name="Trazado 615467" d="M31.364,72.577c-.1.159-.294.249-.28.022a2.28,2.28,0,0,0-.517.986.346.346,0,0,1,.23-.179c.021-.107-.078-.325.085-.428.169-.014.064.115.071.235.07-.232.326-.207.475-.521l-.166.044c.025-.048.107-.1.1-.159" transform="translate(-23.268 -55.247)" fill="#fff"/>
    <path id="Trazado_615468" data-name="Trazado 615468" d="M29.728,76.3h-.049a.625.625,0,0,1,0,.3.388.388,0,0,0,.193-.148l-.169-.13Z" transform="translate(-22.591 -58.081)" fill="#fff"/>
    <path id="Trazado_615469" data-name="Trazado 615469" d="M28.63,74.561c.133-.16.266-.184.325-.408-.116-.052-.163.1-.273.142.2.059-.108.069-.041.245a.242.242,0,0,1-.122-.009.553.553,0,0,1,.043.134l0-.013h0l0,0c.005-.027.011-.042.012-.024a.009.009,0,0,1,.006,0,.606.606,0,0,1,.047-.062c.029.066-.019.051-.047.062-.006.008-.012.016-.018.025v0l.233.006c-.023-.047-.072-.069-.167-.1" transform="translate(-21.708 -56.438)" fill="#fff"/>
    <path id="Trazado_615470" data-name="Trazado 615470" d="M27.422,70a.146.146,0,0,1-.019.044c.024-.015.037-.027.019-.044" transform="translate(-20.86 -53.283)" fill="#fff"/>
    <path id="Trazado_615471" data-name="Trazado 615471" d="M26.988,70.288c-.027.017-.08.082-.111.039,0-.074.05-.085.082-.144-.053.032-.162.076-.134.208l.027-.017a.762.762,0,0,1-.031.394,2.838,2.838,0,0,0,.167-.481" transform="translate(-20.417 -53.424)" fill="#fff"/>
    <path id="Trazado_615472" data-name="Trazado 615472" d="M28.385,72.449h.2l.016-.2-.05.094c-.062-.085-.111.039-.163.1" transform="translate(-21.607 -54.998)" fill="#fff"/>
    <path id="Trazado_615473" data-name="Trazado 615473" d="M29.96,77.238l-.129.176.24-.215Z" transform="translate(-22.708 -58.765)" fill="#fff"/>
    <path id="Trazado_615474" data-name="Trazado 615474" d="M30.9,77.736l-.1.159.108-.069Z" transform="translate(-23.441 -59.174)" fill="#fff"/>
    <path id="Trazado_615475" data-name="Trazado 615475" d="M81.148,95.6l.07-.021a.168.168,0,0,0-.07.021" transform="translate(-61.771 -72.757)" fill="#fff"/>
    <path id="Trazado_615476" data-name="Trazado 615476" d="M79.7,94.856l-.055.076c.04-.036.065-.065.055-.076" transform="translate(-60.625 -72.206)" fill="#fff"/>
    <path id="Trazado_615477" data-name="Trazado 615477" d="M50.68,89.149c-.027.189-.1.466,0,.278l.085-.19c-.063.006-.084-.033-.09-.089" transform="translate(-38.542 -67.861)" fill="#fff"/>
    <path id="Trazado_615478" data-name="Trazado 615478" d="M66.443,92.344l.014-.065-.143.146.129-.081" transform="translate(-50.479 -70.244)" fill="#fff"/>
    <path id="Trazado_615479" data-name="Trazado 615479" d="M68.858,89.563l.015.164a.443.443,0,0,0-.015-.164" transform="translate(-52.416 -68.177)" fill="#fff"/>
    <path id="Trazado_615480" data-name="Trazado 615480" d="M88.736,98.538l.157-.153c-.079-.045-.1.067-.157.153" transform="translate(-67.547 -74.884)" fill="#fff"/>
    <path id="Trazado_615481" data-name="Trazado 615481" d="M39.545,82.1a.3.3,0,0,0,.072.187c-.005-.141.033-.325-.072-.187" transform="translate(-30.102 -62.455)" fill="#fff"/>
    <path id="Trazado_615482" data-name="Trazado 615482" d="M75.972,103.029a.188.188,0,0,0,.1-.087.152.152,0,0,0-.1.087" transform="translate(-57.831 -78.361)" fill="#fff"/>
    <path id="Trazado_615483" data-name="Trazado 615483" d="M40,83.126c0-.023,0-.038,0-.059a.176.176,0,0,1-.153-.032c0,.1.031.184.156.091" transform="translate(-30.331 -63.207)" fill="#fff"/>
    <path id="Trazado_615484" data-name="Trazado 615484" d="M114.2,114.846a.234.234,0,0,1,0,.03c.016-.023.01-.028,0-.03" transform="translate(-86.93 -87.422)" fill="#fff"/>
    <path id="Trazado_615485" data-name="Trazado 615485" d="M117.029,126.721a.213.213,0,0,1-.082-.03c.006.02.029.032.082.03" transform="translate(-89.022 -96.439)" fill="#fff"/>
    <path id="Trazado_615486" data-name="Trazado 615486" d="M34.156,79.935c-.047-.012-.018.016,0,0" transform="translate(-25.981 -60.845)" fill="#fff"/>
    <path id="Trazado_615487" data-name="Trazado 615487" d="M35.154,76.256a.262.262,0,0,0,.067-.077.338.338,0,0,1-.067.077" transform="translate(-26.76 -57.989)" fill="#fff"/>
    <path id="Trazado_615488" data-name="Trazado 615488" d="M44.918,79.664l0,0c.009-.042.007-.034,0,0" transform="translate(-34.192 -60.621)" fill="#fff"/>
    <path id="Trazado_615489" data-name="Trazado 615489" d="M34.184,79.455a.231.231,0,0,0,.021.083.258.258,0,0,0-.021-.083" transform="translate(-26.021 -60.482)" fill="#fff"/>
    <path id="Trazado_615490" data-name="Trazado 615490" d="M33.877,79.708c-.009-.016-.017-.027-.025-.038-.023.027-.029.048.025.038" transform="translate(-25.756 -60.646)" fill="#fff"/>
    <path id="Trazado_615491" data-name="Trazado 615491" d="M34.3,79.862a.117.117,0,0,1-.054-.057.043.043,0,0,1-.007.033.508.508,0,0,1,.062.023" transform="translate(-26.062 -60.749)" fill="#fff"/>
    <path id="Trazado_615492" data-name="Trazado 615492" d="M99.181,108.662c0,.007,0,.013,0,.022.084-.05.059-.049,0-.022" transform="translate(-75.497 -82.701)" fill="#fff"/>
    <path id="Trazado_615493" data-name="Trazado 615493" d="M59.762,83.961s-.007,0-.01.006a.066.066,0,0,1,0,.01Z" transform="translate(-45.484 -63.912)" fill="#fff"/>
    <path id="Trazado_615494" data-name="Trazado 615494" d="M59.181,83.76c-.192.186-.211.138-.23.064l-.255.543Z" transform="translate(-44.68 -63.759)" fill="#fff"/>
    <path id="Trazado_615496" data-name="Trazado 615496" d="M68.461,89.907a.674.674,0,0,1-.051.115.136.136,0,0,0,.051-.115" transform="translate(-52.075 -68.438)" fill="#fff"/>
    <path id="Trazado_615497" data-name="Trazado 615497" d="M88.614,99.085s0,0,0,.005a.311.311,0,0,0,.026-.033Z" transform="translate(-67.454 -75.404)" fill="#fff"/>
    <path id="Trazado_615498" data-name="Trazado 615498" d="M49.106,77.8a.267.267,0,0,1-.006.134c.03-.048.041-.1.006-.134" transform="translate(-37.376 -59.225)" fill="#fff"/>
    <path id="Trazado_615499" data-name="Trazado 615499" d="M32.269,78.937h.118c-.048-.015-.037-.067-.04-.112-.025.048-.048.125-.077.112" transform="translate(-24.564 -60.003)" fill="#fff"/>
    <path id="Trazado_615500" data-name="Trazado 615500" d="M31.775,72.273c-.027.017-.029-.013-.056,0l-.051.094c.058.026.14-.026.106-.1" transform="translate(-24.107 -55.014)" fill="#fff"/>
    <path id="Trazado_615501" data-name="Trazado 615501" d="M33.1,75.847c.091-.171,0-.147-.076-.152a.018.018,0,0,1,.011.006c-.155.223-.045.184.065.145" transform="translate(-25.087 -57.62)" fill="#fff"/>
    <path id="Trazado_615502" data-name="Trazado 615502" d="M32.9,75.59a.082.082,0,0,1-.059-.029c-.062.09.011.033.059.029" transform="translate(-24.978 -57.518)" fill="#fff"/>
    <path id="Trazado_615503" data-name="Trazado 615503" d="M34.648,79.668c0-.06-.144.2-.12.125-.157.194.345-.144.12-.125" transform="translate(-26.259 -60.638)" fill="#fff"/>
    <path id="Trazado_615504" data-name="Trazado 615504" d="M34.384,73.9l-.1.219.132-.146Z" transform="translate(-26.098 -56.255)" fill="#fff"/>
    <path id="Trazado_615505" data-name="Trazado 615505" d="M35.932,75.361l-.064-.115a.1.1,0,0,1-.068.055c.056.042.1.122.132.06" transform="translate(-27.251 -57.278)" fill="#fff"/>
    <path id="Trazado_615506" data-name="Trazado 615506" d="M35.485,75.4a.08.08,0,0,0-.1-.012.161.161,0,0,0,.1.012" transform="translate(-26.936 -57.375)" fill="#fff"/>
    <path id="Trazado_615507" data-name="Trazado 615507" d="M35.412,73.972l0,.06.06.056Z" transform="translate(-26.956 -56.308)" fill="#fff"/>
    <path id="Trazado_615508" data-name="Trazado 615508" d="M40.66,78.108l.142,0c.052-.064.049-.125-.008-.12-.054.034-.11.038-.134.116" transform="translate(-30.951 -59.369)" fill="#fff"/>
    <path id="Trazado_615509" data-name="Trazado 615509" d="M40.553,75.1a.536.536,0,0,1-.045.185l.154-.254Z" transform="translate(-30.835 -57.113)" fill="#fff"/>
    <path id="Trazado_615510" data-name="Trazado 615510" d="M42.1,75.274c.052-.065.275-.113.13-.176-.052.064-.194.06-.13.176" transform="translate(-32.032 -57.166)" fill="#fff"/>
    <path id="Trazado_615511" data-name="Trazado 615511" d="M47.226,81.107l-.029-.013-.242.422Z" transform="translate(-35.742 -61.73)" fill="#fff"/>
    <path id="Trazado_615512" data-name="Trazado 615512" d="M55.638,80.294c-.068-.175-.182.241-.223.048-.088.082.033.157-.047.225.138-.06.143.023.27-.273" transform="translate(-42.147 -61.087)" fill="#fff"/>
    <path id="Trazado_615513" data-name="Trazado 615513" d="M55.123,81.579a.493.493,0,0,0-.076.041.241.241,0,0,0,.076-.041" transform="translate(-41.903 -62.099)" fill="#fff"/>
    <path id="Trazado_615514" data-name="Trazado 615514" d="M117.984,128.375l.03.135.03-.172Z" transform="translate(-89.811 -97.693)" fill="#fff"/>
    <path id="Trazado_615515" data-name="Trazado 615515" d="M118.965,127.573l-.138.278.191-.213c-.026,0-.075,0-.053-.065" transform="translate(-90.453 -97.11)" fill="#fff"/>
    <path id="Trazado_615516" data-name="Trazado 615516" d="M77.9,91.272l-.044.061c-.028.077-.012.093.019.127Z" transform="translate(-59.257 -69.478)" fill="#fff"/>
    <path id="Trazado_615517" data-name="Trazado 615517" d="M81.831,94.772l-.016-.016-.106.262Z" transform="translate(-62.198 -72.129)" fill="#fff"/>
    <path id="Trazado_615518" data-name="Trazado 615518" d="M86.412,95.694c-.032-.032-.108,0-.14-.037.108,0-.027.344.14.037" transform="translate(-65.671 -72.815)" fill="#fff"/>
  </g>
</svg>
