<svg id="Grupo_1073500" data-name="Grupo 1073500" xmlns="http://www.w3.org/2000/svg" xmlns:xlink="http://www.w3.org/1999/xlink" width="35.769" height="75.5" viewBox="0 0 35.769 75.5">
  <defs>
    <clipPath id="clip-path">
      <rect id="Rectángulo_378305" data-name="Rectángulo 378305" width="35.768" height="75.5" fill="none"/>
    </clipPath>
  </defs>
  <g id="Grupo_1073468" data-name="Grupo 1073468" clip-path="url(#clip-path)">
    <path id="Trazado_611633" data-name="Trazado 611633" d="M32.526,69.487c-.013.183.115.119.138.146-.025-.306-.171-.139-.138-.146" transform="translate(-7.753 -16.557)" fill="#fff"/>
    <path id="Trazado_611634" data-name="Trazado 611634" d="M32.17,65.406l.052.054-.123-.447Z" transform="translate(-7.653 -15.499)" fill="#fff"/>
    <path id="Trazado_611635" data-name="Trazado 611635" d="M32.2,61.82c-.22.264.024,1.024-.059,1.526l-.05.082.172.229A14.053,14.053,0,0,1,32.2,61.82" transform="translate(-7.651 -14.738)" fill="#fff"/>
    <path id="Trazado_611636" data-name="Trazado 611636" d="M32.858,59.836c-.086.092-.069-.327-.03.351l.022-.063c0-.061,0-.145.008-.288" transform="translate(-7.819 -14.255)" fill="#fff"/>
    <path id="Trazado_611637" data-name="Trazado 611637" d="M32.866,60.212c0,.3.073-.193,0,0" transform="translate(-7.835 -14.344)" fill="#fff"/>
    <path id="Trazado_611638" data-name="Trazado 611638" d="M32.822,58.364l.071.393c.051-.081.066-.43.1-.3-.037-.4-.088-.321-.172-.093" transform="translate(-7.825 -13.869)" fill="#fff"/>
    <path id="Trazado_611639" data-name="Trazado 611639" d="M32.619,57.933l.03.2c.021-.035.029-.089-.03-.2" transform="translate(-7.777 -13.812)" fill="#fff"/>
    <path id="Trazado_611640" data-name="Trazado 611640" d="M32.705,58.631l-.062-.431c-.036.056-.107.061.022.2-.064-.037,0,.05.04.233" transform="translate(-7.77 -13.875)" fill="#fff"/>
    <path id="Trazado_611641" data-name="Trazado 611641" d="M32.646,59.086c-.049.219-.083.5-.154.109.022.749.176.641.154-.109" transform="translate(-7.746 -14.086)" fill="#fff"/>
    <path id="Trazado_611642" data-name="Trazado 611642" d="M31.923,61.627l-.067.293.07.255c-.035-.128.065-.566,0-.548" transform="translate(-7.595 -14.692)" fill="#fff"/>
    <path id="Trazado_611643" data-name="Trazado 611643" d="M32.948,55.219c-.046-.025-.125.13-.184.159l.05.289c.034-.148.066-.43.135-.449" transform="translate(-7.811 -13.164)" fill="#fff"/>
    <path id="Trazado_611644" data-name="Trazado 611644" d="M32.74,55.293l-.075-.434c-.014.387.024.458.075.434" transform="translate(-7.787 -13.079)" fill="#fff"/>
    <path id="Trazado_611645" data-name="Trazado 611645" d="M32.3,57.795l.159.713-.16-.85Z" transform="translate(-7.701 -13.746)" fill="#fff"/>
    <path id="Trazado_611646" data-name="Trazado 611646" d="M33.022,52.988l.1.247-.157-.439Z" transform="translate(-7.86 -12.587)" fill="#fff"/>
    <path id="Trazado_611647" data-name="Trazado 611647" d="M33.03,51.346c.087.183.153-.248.206-.055a3.252,3.252,0,0,0-.152-.783,2.22,2.22,0,0,1-.053.838" transform="translate(-7.875 -12.041)" fill="#fff"/>
    <path id="Trazado_611648" data-name="Trazado 611648" d="M32.975,50a3.6,3.6,0,0,0,.1.386,1.821,1.821,0,0,0-.1-.386" transform="translate(-7.861 -11.92)" fill="#fff"/>
    <path id="Trazado_611649" data-name="Trazado 611649" d="M32.707,53.785a.532.532,0,0,0,.136-.339l-.132.168c0,.052,0,.111,0,.171" transform="translate(-7.797 -12.742)" fill="#fff"/>
    <path id="Trazado_611650" data-name="Trazado 611650" d="M32.707,53.558l0-.006c.005-.184.009-.313.011-.368,0,.047-.007.16-.016.374" transform="translate(-7.797 -12.679)" fill="#fff"/>
    <path id="Trazado_611651" data-name="Trazado 611651" d="M32.7,53.934c0-.016,0-.027,0-.043-.013.016-.017.026,0,.043" transform="translate(-7.794 -12.848)" fill="#fff"/>
    <path id="Trazado_611652" data-name="Trazado 611652" d="M32.394,56.2c-.07-.255-.142-.787-.259-.274.088.184.154-.11.259.274" transform="translate(-7.661 -13.281)" fill="#fff"/>
    <path id="Trazado_611653" data-name="Trazado 611653" d="M32.478,54.222l-.035.459c.034-.008.085-.091.12.036Z" transform="translate(-7.735 -12.927)" fill="#fff"/>
    <path id="Trazado_611654" data-name="Trazado 611654" d="M32.438,53.926l.039.225.013-.17Z" transform="translate(-7.733 -12.856)" fill="#fff"/>
    <path id="Trazado_611655" data-name="Trazado 611655" d="M32.769,50.827a2.793,2.793,0,0,1-.063-.663c-.029.263-.046.535-.049.794.04.037.113.151.112-.131" transform="translate(-7.786 -11.959)" fill="#fff"/>
    <path id="Trazado_611656" data-name="Trazado 611656" d="M32.737,52.3l-.007-.044c-.011.027-.015.049.007.044" transform="translate(-7.801 -12.459)" fill="#fff"/>
    <path id="Trazado_611657" data-name="Trazado 611657" d="M32.75,46.991l-.024.039.023.009Z" transform="translate(-7.802 -11.203)" fill="#fff"/>
    <path id="Trazado_611658" data-name="Trazado 611658" d="M32.622,51.246a.833.833,0,0,0,.042.429c-.011-.148-.018-.3-.018-.473-.018-.016-.03-.02-.024.044" transform="translate(-7.775 -12.204)" fill="#fff"/>
    <path id="Trazado_611659" data-name="Trazado 611659" d="M32.881,49.115c-.028.1-.053.219-.075.342.043-.1.109-.305.075-.342" transform="translate(-7.821 -11.709)" fill="#fff"/>
    <path id="Trazado_611660" data-name="Trazado 611660" d="M32.781,52.166l.005.03c.029-.065.015-.056-.005-.03" transform="translate(-7.815 -12.432)" fill="#fff"/>
    <path id="Trazado_611661" data-name="Trazado 611661" d="M32.757,52.09a1.614,1.614,0,0,0-.076-.263,2.887,2.887,0,0,0,.04.329.288.288,0,0,1,.037-.066" transform="translate(-7.791 -12.356)" fill="#fff"/>
    <path id="Trazado_611662" data-name="Trazado 611662" d="M31.671,45.859c.12.037.226.557.091,1,.085.443.486.158.712-.225-.053-.014-.1-.014-.168-.47-.068.158-.165,1.007-.27.622-.056-.6.049-.493.116-.785-.153.248-.21-.768-.433-.64l.072.529c-.034.009-.088-.183-.12-.037" transform="translate(-7.551 -10.813)" fill="#fff"/>
    <path id="Trazado_611663" data-name="Trazado 611663" d="M32.7,47.91l.013.187a2.711,2.711,0,0,1,.171-.645c-.055-.312-.1-.377-.139-.4l-.027.921Z" transform="translate(-7.795 -11.218)" fill="#fff"/>
    <path id="Trazado_611664" data-name="Trazado 611664" d="M32.6,49.264c-.129-.148-.18-.6-.325-.324,0,.549.105.385.158.714-.023-.886.07.255.152-.384.021.174.026.331.03.478.018-.159.039-.312.065-.457l-.008.02v0h0c-.017.038-.027.05-.017.008l0-.019a.132.132,0,0,1-.049-.04c.03-.256.034-.04.049.04.007,0,.013.01.02.011l0,0-.062-.888a6.693,6.693,0,0,0-.009.84" transform="translate(-7.695 -11.545)" fill="#fff"/>
    <path id="Trazado_611665" data-name="Trazado 611665" d="M31.772,55.339c.012-.027.021-.026.03-.028-.015-.057-.026-.079-.03.028" transform="translate(-7.575 -13.175)" fill="#fff"/>
    <path id="Trazado_611666" data-name="Trazado 611666" d="M31.865,54.748a.6.6,0,0,1,.053.328c-.041.182-.062,0-.106.008.034.127.089.443.158.048l-.018-.063a1.871,1.871,0,0,1,.235-.751,1.2,1.2,0,0,0-.323.43" transform="translate(-7.584 -12.948)" fill="#fff"/>
    <path id="Trazado_611667" data-name="Trazado 611667" d="M32.194,51.941l-.056-.74-.117.375.068-.018c-.031.42.054.331.106.383" transform="translate(-7.634 -12.207)" fill="#fff"/>
    <path id="Trazado_611668" data-name="Trazado 611668" d="M32.828,46.778l.138.1-.191-.43Z" transform="translate(-7.814 -11.073)" fill="#fff"/>
    <path id="Trazado_611669" data-name="Trazado 611669" d="M32.837,45.552l.12.037-.07-.254Z" transform="translate(-7.828 -10.808)" fill="#fff"/>
    <path id="Trazado_611670" data-name="Trazado 611670" d="M8.926,3.081l.043.107a.686.686,0,0,0-.043-.107" transform="translate(-2.128 -0.735)" fill="#fff"/>
    <path id="Trazado_611671" data-name="Trazado 611671" d="M9.264,2.829,9.25,2.76c-.013.03-.009.057.014.069" transform="translate(-2.203 -0.658)" fill="#fff"/>
    <path id="Trazado_611672" data-name="Trazado 611672" d="M33.168,14.461c.117-.315.295-.666.158-.63l-.133.1a1.755,1.755,0,0,1-.026.534" transform="translate(-7.907 -3.297)" fill="#fff"/>
    <path id="Trazado_611673" data-name="Trazado 611673" d="M24.856,2.934l.1.016.175-.175-.275.159" transform="translate(-5.926 -0.662)" fill="#fff"/>
    <path id="Trazado_611674" data-name="Trazado 611674" d="M24.622,3.754l-.423.023a2.684,2.684,0,0,0,.423-.023" transform="translate(-5.769 -0.895)" fill="#fff"/>
    <path id="Trazado_611675" data-name="Trazado 611675" d="M9.942,13.405l.155.241c-.033-.395-.086-.216-.155-.241" transform="translate(-2.37 -3.191)" fill="#fff"/>
    <path id="Trazado_611676" data-name="Trazado 611676" d="M32.905,32.5a4.361,4.361,0,0,0,.088-.68c-.08.328-.2.592-.088.68" transform="translate(-7.834 -7.585)" fill="#fff"/>
    <path id="Trazado_611677" data-name="Trazado 611677" d="M6.848.225A1.006,1.006,0,0,0,6.96.616C6.919.383,6.881.226,6.848.225" transform="translate(-1.633 -0.054)" fill="#fff"/>
    <path id="Trazado_611678" data-name="Trazado 611678" d="M33.034,30.78,33,30.924a4.211,4.211,0,0,1,.024.644,1.419,1.419,0,0,0,.008-.788" transform="translate(-7.868 -7.338)" fill="#fff"/>
    <path id="Trazado_611679" data-name="Trazado 611679" d="M13.076,54.168l-.01.072c.018.005.017-.026.01-.072" transform="translate(-3.115 -12.914)" fill="#fff"/>
    <path id="Trazado_611680" data-name="Trazado 611680" d="M12.276,66.063c-.015-.088-.027-.234-.04-.37a1.81,1.81,0,0,0,.04.37" transform="translate(-2.917 -15.662)" fill="#fff"/>
    <path id="Trazado_611681" data-name="Trazado 611681" d="M32.97,40.549c.006.2.014.033,0,0" transform="translate(-7.86 -9.667)" fill="#fff"/>
    <path id="Trazado_611682" data-name="Trazado 611682" d="M32.249,41.815c-.014-.043-.033-.077-.063-.082a.139.139,0,0,1,.063.082" transform="translate(-7.673 -9.949)" fill="#fff"/>
    <path id="Trazado_611683" data-name="Trazado 611683" d="M31.989,28.1v-.018c-.027.06-.021.05,0,.018" transform="translate(-7.622 -6.695)" fill="#fff"/>
    <path id="Trazado_611684" data-name="Trazado 611684" d="M32.887,40.869a2.191,2.191,0,0,0,.041-.26,2.509,2.509,0,0,0-.041.26" transform="translate(-7.84 -9.681)" fill="#fff"/>
    <path id="Trazado_611685" data-name="Trazado 611685" d="M32.964,40.9c-.006.071-.011.126-.014.178.021.026.036,0,.014-.178" transform="translate(-7.855 -9.75)" fill="#fff"/>
    <path id="Trazado_611686" data-name="Trazado 611686" d="M32.96,40.176a3.027,3.027,0,0,1-.018.33c.009-.04.017-.057.021-.046,0-.06,0-.145,0-.284" transform="translate(-7.854 -9.578)" fill="#fff"/>
    <path id="Trazado_611687" data-name="Trazado 611687" d="M10.855,32.374c0,.014-.005.027-.009.044.072.2.056.111.009-.044" transform="translate(-2.586 -7.718)" fill="#fff"/>
    <path id="Trazado_611688" data-name="Trazado 611688" d="M31.445,7.678l.006.024.005-.03Z" transform="translate(-7.497 -1.829)" fill="#fff"/>
    <path id="Trazado_611689" data-name="Trazado 611689" d="M31.326,6.718a.99.99,0,0,1,.1.726l.384-.238Z" transform="translate(-7.468 -1.602)" fill="#fff"/>
    <path id="Trazado_611690" data-name="Trazado 611690" d="M8.732,5.417,8.809,4.9c.244.6.213,1.055.341.561-.418-.039-.2-1.986-.62-2.024l.059-.345c0,.1.029.11.033.206.074-.317-.015-.494-.112-.548a.361.361,0,0,1-.2-.367c.021-.135.079-.154.139-.03-.043-.113-.088-.247-.135-.4,0-.079.085.057.082.121a.291.291,0,0,1-.008-.076l.306.094,0,.014c.019-.062.158-.115.256-.123.135.117-.072.02-.034.089a1.79,1.79,0,0,1,.341.025c.088.091.01.118-.124.107a.417.417,0,0,1-.241-.037c.114.265.085.226.2.219a2.013,2.013,0,0,1,.957.368l-.514-.138c.236.34.653.407,1.167.752-.11-.12-1-.764-.391-.647A1.6,1.6,0,0,0,11,2.932c-.047.139.267.216.648.341l-.091.175c.43.092.43-.014.7-.013.453.174.5.348.572.5.737.272-.439-.4.454-.146a5.074,5.074,0,0,0,1.88.391c.469.157-.107.1.056.189.152-.022.312-.051.473-.084.122.013.08.057.057.08.212-.012.248-.073.285-.12a.281.281,0,0,1,.129-.079l.186-.073a.95.95,0,0,0,.2-.134l.025-.023.012-.011.006-.006,0,0-.179-.165,0,0,0,0,.135.111c.062.058.048.04.052.041l.007,0c-.009-.045-.021-.065.086-.094a3.107,3.107,0,0,1,.4-.065,2,2,0,0,0,.982-.3c.166.006-.038.136.03.194a10.844,10.844,0,0,0,1.331-.725l.632-.038c-.479-.025.04-.34.5-.609-.175-.027-.325-.052-.423-.057l.767-.307c.1.008.04.093-.069.2l.134-.082c.3,0,.182.144.006.3l-.315-.043c-.166.165-.315.34-.246.439a1.064,1.064,0,0,1,.245-.119c-.043.044-.068.081-.04.094s.1-.05.22-.131l.234.165.022-.1,1.068-.129A10.142,10.142,0,0,1,24.6,1.28c-.257.225,0,.268.024.455-.368-.118-.895.3-1.515.409.324-.058.275.047.2.1L24.362,1.8c.011.156.258.058.558.053-.193-.268.455-.316.816-.494a.628.628,0,0,1-.482.3c.115.091.222-.026.427-.169.262-.233.273-.062.195.206,0-.088.015-.156-.037-.137.09.129.011.722-.077.605l0-.078c0,.065-.008.139-.012.22,0,.126,0,.26-.006.4,0,.3,0,.623.018.919.03.593.1,1.089.226,1.158a1.1,1.1,0,0,1-.363-.177l.854,1.623c-.221-.145-.757.4-.874-.356a2.636,2.636,0,0,0,0,.936c.034-.147.326-.363.344-.161a5.505,5.505,0,0,0-.356,1.058c.05-.22.4.029.381.376-.051-.055-.344.025-.379-.1l.333.87c-.059-.217-.29-.042-.389.151.068-.089-.014.749.017.98l.084-.366c-.063.977.471.971.442,1.941-.069-.119-.433-.3-.481.2a4.347,4.347,0,0,1,.958,1.87l-.1.164.107.66a14.288,14.288,0,0,1-1.011-2.2c-.084.365-.12.1-.117.648-.1.193-.139-.3-.143-.462l-.075,1.275c.206-.054.194.978.366.931l-.2-1.388c.2-.054.572.807.525,1.711-.084.229-.363-.176-.431-.158a2.558,2.558,0,0,1,.074.942l-.105-.385c-.082.5.263.824.06,1.426-.015.209-.271.621-.15.658.238-.338.961-.4,1.134-.168a11.2,11.2,0,0,1-.353,1.331c-.187.342-.431-.521-.592-.23.056.013.123.2.144.283-.05.219-.172-.093-.152.384.206.081-.029.969.173.227a7.5,7.5,0,0,1-.046,1.042c.136-.173.452.5.5.964-.052-.028-.122.075-.154.126-.03.954-.129,1.466-.142,2.356-.051.081-.117.511-.2.327a1.5,1.5,0,0,1,.107.522c-.186.529-.021-.612-.241-.21.12.037.158.713.229,1.1.187-.118.046-.9-.025-1.3.257,0,.519.685.627,1.618.056.741-.17.319-.134.448-.061,1.389.435,1.189.237,2.34-.169.456-.326.018-.446.117a8.479,8.479,0,0,1,.113-1.332l-.083.5a2.165,2.165,0,0,1-.04-.814c-.152.382-.055,2.347-.2,3.418.053.191.106.52.174.366l-.019-.34c.136-.31.175.64.242.212a4.678,4.678,0,0,1,.145,1.607l-.188.119a.952.952,0,0,0,.062-.6c.079.268-.264.979-.023,1.275l.134-.448a5.148,5.148,0,0,1,.216,1.592c.187-.256-.02-.131.2-.532-.273.347.027-1.452-.261-.893.255-.411.114-.716.334-1.254-.062.016-.12.19-.085-.286a.542.542,0,0,1-.053-.105l.005-.033-.008.027c-.009-.021-.011-.023,0,.01a.647.647,0,0,1-.1.241,7.612,7.612,0,0,1-.2-1.253c.033-.283.069.119.137-.035l-.105-.384c.137-.037.235-.749.308-.081l.013-.6a3.306,3.306,0,0,0,.062-1.138c.033-.283-.144-.716-.04-.468l-.074-.941.034-.008a12.868,12.868,0,0,1,.054-2.97,5.462,5.462,0,0,1-.025-1.158l.12-.1c-.037-.4.132-1.2.011-1.377.324-.429.091-1.945.156-2.65l-.155-.028a12.743,12.743,0,0,0-.079-1.554l-.137.035a17.7,17.7,0,0,1,.107-2.157c.052.057.036.265,0,.412.32-.978-.2-2.074.034-2.962a1.158,1.158,0,0,1,.008-.538.2.2,0,0,0,.007.056c0-.024,0-.056,0-.091l.076-.308a1.564,1.564,0,0,0-.075.259,6.5,6.5,0,0,0-.046-.685l.148-.107,0-.059c.057-.249-.067-.2-.179-.069a1.925,1.925,0,0,0-.085-.337c.239-.2-.072-.669.184-.943-.121-.173-.078-1.28-.336-1.418.034-.008.051-.083.051.054a2.2,2.2,0,0,0,0-.822l.188-.118L26.507,6.3c.118-.375.186-.53.325-.155-.211-.9-.075-.733-.286-1.5l.12.038c0-.274-.158-.714-.056-.878a2.957,2.957,0,0,0,.113-.757c.007-.169.014-.356.023-.555.005-.269.011-.554.016-.851.005-.315.011-.641.015-.971l0-.25,0-.125,0-.063c-.008-.011-.037,0-.054.005l-.477.1-.94.182-.458.078-.221.035-.151.016c.379.276-.751.014-.748.3-.109-.06-.334-.055-.1-.186-.765.267-1.209.155-1.695.515-.11-.06.138-.161.046-.19-.059.034-.232.133-.325.105s.1-.1.213-.164c-.8.212-.815.487-.813.736a1.057,1.057,0,0,0-.882.29c-.161-.04-.417-.059.072-.216-.281.059-1.734.343-1.709.545a1.072,1.072,0,0,0-.459.141,10.636,10.636,0,0,0-1.3.408l.181-.03a.576.576,0,0,1-.368.266c-.085.032-.169.044-.287.1a2.073,2.073,0,0,0-.2.121l-.05.036-.006,0,0,0h0l.122.112-.019-.015a.194.194,0,0,1-.032-.034.188.188,0,0,1-.033-.081c0-.019-.009,0-.013-.007l0-.024-.433-.082a1.581,1.581,0,0,0-.227-.024,1.842,1.842,0,0,1-.757-.248l.021.157c-.19.28-.919-.452-1.581-.551l.2.155c-.382-.01-.826-.727-1.152-.886-.065-.053.133,0,.243.017-.834-.49-.18.141-.864-.056-.088-.142.248-.189-.194-.371a3.251,3.251,0,0,0-.849-.2,5,5,0,0,1-.6-.148,2.037,2.037,0,0,1-.276-.109A3.279,3.279,0,0,1,9.236.836c.209.167.357.31-.093.2a9.257,9.257,0,0,1-1.05-.5A7.65,7.65,0,0,0,6.916,0a2.676,2.676,0,0,0,.119.5C7.018.571,7,.583,6.977.562A15.47,15.47,0,0,0,7.4,2.809c-.472.422.439,2.4-.024,2.436L7.5,6.437l-.05-.027a2.58,2.58,0,0,0,.3,1.287c-.017.179-.071.054-.1.041a4.71,4.71,0,0,0,.331,2.15L7.838,10a21.646,21.646,0,0,0,.157,2.713c-.018-.009-.049-.03-.077-.115.276,1.217-.18,2.982.4,3.389l.2.8c-.042-1.055.251.137.307-.3.065.411-.079,1.082-.149.577l.021-.082c-.3-.164,0,1.315-.193,1.3.181,2.068.185,4.1.329,6.036l.2-.241.042.677c-.038.181-.155.252-.184-.232a1.092,1.092,0,0,0,.22.81c-.014.952-.289-.348-.271-.058l.048.392.019-.091a1.955,1.955,0,0,1,.251.912c-.015.37-.122.2-.119.344-.016,0-.019.05.011.222l.05.853.149-.354c.117.37.055.8.222.392-.26.6.146,3.186.079,3.548A6.427,6.427,0,0,1,9.8,33.181c.024-.164.213-.276.234.284-.423-.171-.094,1.035-.35,1.509.161-.419.175,1.581.4.927,0,.468-.15.04-.217.4.247,1.094.094,2.449.257,3.813.055.017.118-.219.222.069l-.209.744c.048.268.328.224.183.733.04-.073.1-.183.13,0-.044,2.7.655,5.462.385,8.225.074-.378.1-.133.13.149.011-.185.133-.006.2-.048l-.109,1.156c.218.192.112,1.221.314,1.325l-.064-.359c.266.462.45-.712.746-.666-.3-.516.267-1.447-.172-2.3.043-.2.107.158.166.049a1.6,1.6,0,0,1-.175-.986l.036.054c-.144-1.4-.069-2.016-.114-3.6l-.135.128a2.225,2.225,0,0,1,.055-.577c-.25-.372.064.954-.2.618.257-.474-.188-2.394.12-2.724-.04-.522-.155.166-.195-.356l.079-.145-.126-.123c-.008-.344.09-.525.165-.545a2.381,2.381,0,0,0,.054.323,8.977,8.977,0,0,0-.115-1.4l-.014.506c-.2-1.418-.221-3.167-.515-4.529l-.059.11c-.21-1.041.007-.848-.145-2l.02.041a2.971,2.971,0,0,1-.163-.848c.1.285.11-.561.229-.186-.226-1.129-.152-.555-.464-1.288l.1-.183a1.756,1.756,0,0,1-.254-.839c.135.465.142-.382.312.138.149-1.229-.393-1.776-.078-2.36-.356-.53-.088,1.061-.18.755-.081.269-.27-.439-.269-.822-.024-.387.346-.688.261-1.66.007.1.03.1.037.2.05-.37-.165-.7-.072-1.161-.209-.235-.036-.58-.283-.633l.128.887a4.7,4.7,0,0,1-.354-1.8,1.926,1.926,0,0,1,.187.471c.051-.249-.085-.465-.033-.724.247.053.139,1.079.366,1.606.081-.27-.257-1.01.026-.759-.363-.364-.035-.961-.341-1.6l.148.032a2.179,2.179,0,0,1-.128-.5l.215.332c-.2-.52.056-1.038-.072-1.542.091,1.069-.154.254-.223.715-.3-1.3.316-.79.128-2.262.037.2-.026.758-.118.451a3.563,3.563,0,0,1,.094-.839c-.109-.977-.136.162-.258-.248.149-.347-.11-.475-.2-.9l.146-.015c0-1.123-.329-.271-.3-1.285l.237.408-.094-.519.175.094a3.4,3.4,0,0,1-.15-1.3c-.092.138-.271-.052-.316-.545.06-.344.155.177.078-.521a.6.6,0,0,1,.123.63c.05.027.1.149.155.177a4.592,4.592,0,0,0-.072-1.168,1.284,1.284,0,0,1-.012.277l-.285-1c.042-.165.1-.041.15.081-.033-.2-.111-.341-.149-.643.126.069.247.04.337.464l-.21-.957c.046-.069.1-.508.156-.386.027-.542-.337-1.3-.3-2.016a.689.689,0,0,1-.083-.257,7.4,7.4,0,0,0-.156-2.053l.177-.466c-.1-.617-.22.63-.383-.4-.127-.726.16-.288.2-.549a3.053,3.053,0,0,1-.287-1.656,5.243,5.243,0,0,1,.073.6M10.3,2.708c-.151-.024-.465-.04-.536-.159.219-.1.314.024.536.159m11.447-.439a.768.768,0,0,1-.467.085,1.561,1.561,0,0,1,.467-.085m4.921,26.38-.007-.016c.061-.331.037-.214.007.016m-.072.688c.02.069.04.065.061.036a.8.8,0,0,1-.024-.379c-.04.049-.067.138-.037.343M9.107,26.9l.027-.137c.066.3.021.217-.027.137" transform="translate(-1.649 0)" fill="#fff"/>
    <path id="Trazado_611691" data-name="Trazado 611691" d="M24.736,3.644a.134.134,0,0,1-.081-.061c-.05.039-.044.066.081.061" transform="translate(-5.871 -0.854)" fill="#fff"/>
    <path id="Trazado_611692" data-name="Trazado 611692" d="M9.9,13.352v.024a.065.065,0,0,0,.028.021Z" transform="translate(-2.361 -3.183)" fill="#fff"/>
    <path id="Trazado_611693" data-name="Trazado 611693" d="M31.274,24.4a.838.838,0,0,1,.079-.273c-.036-.008-.067.056-.079.273" transform="translate(-7.456 -5.753)" fill="#fff"/>
    <path id="Trazado_611694" data-name="Trazado 611694" d="M33,43.179l-.034-.442a1.2,1.2,0,0,1-.053.4c.034-.009.085-.093.086.045" transform="translate(-7.847 -10.189)" fill="#fff"/>
    <path id="Trazado_611695" data-name="Trazado 611695" d="M31.775,48.289c.018.065,0,.137.018.2l.069-.017c0-.275-.055-.467-.087-.184" transform="translate(-7.575 -11.479)" fill="#fff"/>
    <path id="Trazado_611696" data-name="Trazado 611696" d="M32.352,43.846c-.124.034-.085.311-.065.62v-.054c.172.093.119-.238.065-.566" transform="translate(-7.692 -10.453)" fill="#fff"/>
    <path id="Trazado_611697" data-name="Trazado 611697" d="M32.3,44.755a2.381,2.381,0,0,1,0,.286c.069.037.016-.116,0-.286" transform="translate(-7.7 -10.67)" fill="#fff"/>
    <path id="Trazado_611698" data-name="Trazado 611698" d="M32.844,39.578c-.034.146.157.094.106.176.155.165-.18-.979-.106-.176" transform="translate(-7.828 -9.367)" fill="#fff"/>
    <path id="Trazado_611699" data-name="Trazado 611699" d="M31.84,44.08l.154-.109-.121-.174Z" transform="translate(-7.591 -10.441)" fill="#fff"/>
    <path id="Trazado_611700" data-name="Trazado 611700" d="M32.008,40.966l-.048.494c.026-.008.04.056.051.133.008-.3.043-.637,0-.626" transform="translate(-7.619 -9.766)" fill="#fff"/>
    <path id="Trazado_611701" data-name="Trazado 611701" d="M32.026,41.788a1.642,1.642,0,0,0,.021.4,3.6,3.6,0,0,0-.021-.4" transform="translate(-7.635 -9.962)" fill="#fff"/>
    <path id="Trazado_611702" data-name="Trazado 611702" d="M31.79,43.127l.034-.145.015-.349Z" transform="translate(-7.579 -10.164)" fill="#fff"/>
    <path id="Trazado_611703" data-name="Trazado 611703" d="M32.107,33.821l-.037-.539c-.052-.056-.086.091-.067.292.035.129.053.33.1.248" transform="translate(-7.628 -7.932)" fill="#fff"/>
    <path id="Trazado_611704" data-name="Trazado 611704" d="M31.546,36.049a.53.53,0,0,1,.119-.237l-.189-.018Z" transform="translate(-7.504 -8.533)" fill="#fff"/>
    <path id="Trazado_611705" data-name="Trazado 611705" d="M31.49,33.942c-.052-.054-.142-.784-.138-.1.052.055.089.6.138.1" transform="translate(-7.474 -7.999)" fill="#fff"/>
    <path id="Trazado_611706" data-name="Trazado 611706" d="M31.967,23.4v.137l.311-.016Z" transform="translate(-7.621 -5.579)" fill="#fff"/>
    <path id="Trazado_611707" data-name="Trazado 611707" d="M31.094,13.972c-.081.638.19.154.091.73.072.151.081-.471.142-.317-.073-.386-.027-.589-.233-.414" transform="translate(-7.409 -3.316)" fill="#fff"/>
    <path id="Trazado_611708" data-name="Trazado 611708" d="M31.405,14.535c.011.062.026.127.045.2a1.01,1.01,0,0,0-.045-.2" transform="translate(-7.487 -3.465)" fill="#fff"/>
    <path id="Trazado_611709" data-name="Trazado 611709" d="M12.219,68.167l-.031.415.082-.273Z" transform="translate(-2.906 -16.251)" fill="#fff"/>
    <path id="Trazado_611710" data-name="Trazado 611710" d="M12.554,69.174l-.19.112.2.232a.727.727,0,0,1-.009-.344" transform="translate(-2.948 -16.491)" fill="#fff"/>
    <path id="Trazado_611711" data-name="Trazado 611711" d="M12.511,4.5l.046-.034c-.043-.07-.133-.107-.314-.18Z" transform="translate(-2.919 -1.021)" fill="#fff"/>
    <path id="Trazado_611712" data-name="Trazado 611712" d="M9.154,3.435l0-.019a.648.648,0,0,0-.181-.024,1.417,1.417,0,0,1,.179.043" transform="translate(-2.14 -0.809)" fill="#fff"/>
    <path id="Trazado_611713" data-name="Trazado 611713" d="M9.921,8.754c-.008-.191-.065-.411-.073-.6.065.412-.145.672.073.6" transform="translate(-2.341 -1.943)" fill="#fff"/>
    <path id="Trazado_611714" data-name="Trazado 611714" d="M.172,71.73c-.078-.1-.142.016-.172.018.166.142.193-.044.172-.018" transform="translate(0 -17.091)" fill="#fff"/>
    <path id="Trazado_611715" data-name="Trazado 611715" d="M2.374,73.576l-.064.007.306.149Z" transform="translate(-0.551 -17.541)" fill="#fff"/>
    <path id="Trazado_611716" data-name="Trazado 611716" d="M3.862,75.245c.034-.286-.513-.516-.695-.832l0-.077-.238,0a7.116,7.116,0,0,1,.935.912" transform="translate(-0.698 -17.721)" fill="#fff"/>
    <path id="Trazado_611717" data-name="Trazado 611717" d="M4.59,76.922c.018-.106.209.123-.147-.2.007.023.009.033.014.048a2.036,2.036,0,0,1,.133.155" transform="translate(-1.059 -18.29)" fill="#fff"/>
    <path id="Trazado_611718" data-name="Trazado 611718" d="M4.444,76.768c-.146-.152.04.15,0,0" transform="translate(-1.046 -18.291)" fill="#fff"/>
    <path id="Trazado_611719" data-name="Trazado 611719" d="M5.291,77.64l-.242-.155c0,.076.159.267.071.224.222.184.219.107.171-.069" transform="translate(-1.204 -18.473)" fill="#fff"/>
    <path id="Trazado_611720" data-name="Trazado 611720" d="M5.715,77.779l-.12-.085c0,.033.021.065.12.085" transform="translate(-1.334 -18.523)" fill="#fff"/>
    <path id="Trazado_611721" data-name="Trazado 611721" d="M5.261,77.456l.255.181c0-.053.048-.1-.113-.088.065-.024-.021-.028-.142-.094" transform="translate(-1.254 -18.466)" fill="#fff"/>
    <path id="Trazado_611722" data-name="Trazado 611722" d="M5.061,77.141c-.069-.148-.182-.317.06-.16-.379-.375-.439-.214-.06.16" transform="translate(-1.146 -18.302)" fill="#fff"/>
    <path id="Trazado_611723" data-name="Trazado 611723" d="M4.38,75.344l-.092-.2-.175-.085c.087.043.225.338.267.283" transform="translate(-0.981 -17.895)" fill="#fff"/>
    <path id="Trazado_611724" data-name="Trazado 611724" d="M6.743,79.375c.046-.018.029-.152.059-.207l-.177-.117c.047.1.16.267.118.324" transform="translate(-1.579 -18.846)" fill="#fff"/>
    <path id="Trazado_611725" data-name="Trazado 611725" d="M6.858,79.2l.265.174c-.177-.209-.239-.222-.265-.174" transform="translate(-1.635 -18.875)" fill="#fff"/>
    <path id="Trazado_611726" data-name="Trazado 611726" d="M5.887,77.56,5.425,77.3l.529.334Z" transform="translate(-1.293 -18.428)" fill="#fff"/>
    <path id="Trazado_611727" data-name="Trazado 611727" d="M7.746,80.606l-.2-.057.328.121Z" transform="translate(-1.8 -19.203)" fill="#fff"/>
    <path id="Trazado_611728" data-name="Trazado 611728" d="M8.471,81.365c-.152-.037.007.232-.125.168a1.759,1.759,0,0,0,.49.3,1.138,1.138,0,0,1-.366-.471" transform="translate(-1.99 -19.397)" fill="#fff"/>
    <path id="Trazado_611729" data-name="Trazado 611729" d="M9.248,82.12a2,2,0,0,0-.257-.136,1.014,1.014,0,0,0,.257.136" transform="translate(-2.143 -19.545)" fill="#fff"/>
    <path id="Trazado_611730" data-name="Trazado 611730" d="M7.642,79.963a.341.341,0,0,0,.064.268l.016-.177-.08-.091" transform="translate(-1.82 -19.064)" fill="#fff"/>
    <path id="Trazado_611731" data-name="Trazado 611731" d="M7.749,80.075v.006l.169.2-.169-.2" transform="translate(-1.847 -19.09)" fill="#fff"/>
    <path id="Trazado_611732" data-name="Trazado 611732" d="M7.617,79.933l.02.023c0-.017,0-.025-.02-.023" transform="translate(-1.816 -19.056)" fill="#fff"/>
    <path id="Trazado_611733" data-name="Trazado 611733" d="M6.626,78.519c.175.085.485.312.324-.033-.153-.036-.06.161-.324.033" transform="translate(-1.58 -18.711)" fill="#fff"/>
    <path id="Trazado_611734" data-name="Trazado 611734" d="M7.549,79.562l-.2-.262c-.021.027-.019.105-.106.062Z" transform="translate(-1.728 -18.905)" fill="#fff"/>
    <path id="Trazado_611735" data-name="Trazado 611735" d="M7.782,79.734l-.138-.091.073.1Z" transform="translate(-1.822 -18.987)" fill="#fff"/>
    <path id="Trazado_611736" data-name="Trazado 611736" d="M8.934,81.466a1.457,1.457,0,0,1,.367.3,4.268,4.268,0,0,0-.349-.444c-.047.008-.155,0-.018.143" transform="translate(-2.114 -19.388)" fill="#fff"/>
    <path id="Trazado_611737" data-name="Trazado 611737" d="M8.38,80.8l.027.018c0-.021-.013-.036-.027-.018" transform="translate(-1.998 -19.261)" fill="#fff"/>
    <path id="Trazado_611738" data-name="Trazado 611738" d="M10.937,83.566v-.037l-.021.011Z" transform="translate(-2.602 -19.914)" fill="#fff"/>
    <path id="Trazado_611739" data-name="Trazado 611739" d="M8.9,81.21a.434.434,0,0,0-.238-.194,2.987,2.987,0,0,1,.241.234c.021,0,.032-.011,0-.04" transform="translate(-2.065 -19.315)" fill="#fff"/>
    <path id="Trazado_611740" data-name="Trazado 611740" d="M9.774,82.5a2.279,2.279,0,0,0-.11-.228c.018.081.067.232.11.228" transform="translate(-2.304 -19.615)" fill="#fff"/>
    <path id="Trazado_611741" data-name="Trazado 611741" d="M8.415,80.9,8.4,80.89c.01.053.016.039.018.011" transform="translate(-2.002 -19.285)" fill="#fff"/>
    <path id="Trazado_611742" data-name="Trazado 611742" d="M8.419,80.886a.89.89,0,0,0,.184.085,1.537,1.537,0,0,0-.189-.144.2.2,0,0,1,.005.059" transform="translate(-2.006 -19.27)" fill="#fff"/>
    <path id="Trazado_611743" data-name="Trazado 611743" d="M11.912,83.192c-.106.062-.436-.136-.554-.459-.277-.172-.434.246-.416.6.046-.028.082-.061.351.13-.027-.128-.366-.634-.1-.5.333.275.2.288.295.485-.007-.232.526.257.628.04l-.308-.226c.021-.028.152.036.106-.062" transform="translate(-2.608 -19.714)" fill="#fff"/>
    <path id="Trazado_611744" data-name="Trazado 611744" d="M10.384,82.892l-.1-.088a1.493,1.493,0,0,1,.187.45c.192.124.255.129.295.113l-.424-.5Z" transform="translate(-2.452 -19.741)" fill="#fff"/>
    <path id="Trazado_611745" data-name="Trazado 611745" d="M9.682,82.125c.166-.011.422.188.4-.052-.269-.283-.265-.129-.463-.264.445.444-.176-.085.073.3a2.746,2.746,0,0,1-.253-.228c.064.094.123.189.174.281l0-.016,0,0,0,0c-.006-.03,0-.044.009-.015l.011.008a.126.126,0,0,1,.056-.012c.1.153-.006.044-.056.012a.124.124,0,0,0-.02.007v0l.475.419a3.494,3.494,0,0,0-.4-.442" transform="translate(-2.25 -19.504)" fill="#fff"/>
    <path id="Trazado_611746" data-name="Trazado 611746" d="M7.618,78.567a.032.032,0,0,1-.009.035c.039.02.058.024.009-.035" transform="translate(-1.814 -18.731)" fill="#fff"/>
    <path id="Trazado_611747" data-name="Trazado 611747" d="M7.674,78.8a.33.33,0,0,1-.2-.134c-.057-.123.047-.042.075-.076-.085-.043-.28-.17-.139.082l.043.021c.136.219.233.57.19.549a.946.946,0,0,0,.03-.442" transform="translate(-1.755 -18.72)" fill="#fff"/>
    <path id="Trazado_611748" data-name="Trazado 611748" d="M8.814,80.536l.4.346-.094-.274-.042.056c-.18-.239-.2-.135-.263-.127" transform="translate(-2.101 -19.193)" fill="#fff"/>
    <path id="Trazado_611749" data-name="Trazado 611749" d="M10.887,83.693l-.149.041.348.094Z" transform="translate(-2.56 -19.953)" fill="#fff"/>
    <path id="Trazado_611750" data-name="Trazado 611750" d="M11.516,84.342l-.107.062.174.085Z" transform="translate(-2.72 -20.108)" fill="#fff"/>
    <path id="Trazado_611751" data-name="Trazado 611751" d="M42.961,71.526l0-.063a.172.172,0,0,0,0,.063" transform="translate(-10.242 -17.037)" fill="#fff"/>
    <path id="Trazado_611752" data-name="Trazado 611752" d="M42.106,72.678l.031.057c0-.061,0-.092-.031-.057" transform="translate(-10.038 -17.323)" fill="#fff"/>
    <path id="Trazado_611753" data-name="Trazado 611753" d="M27.58,95.479c.224-.113.513-.21.388-.27l-.147-.023a.88.88,0,0,1-.241.292" transform="translate(-6.575 -22.693)" fill="#fff"/>
    <path id="Trazado_611754" data-name="Trazado 611754" d="M35.681,82.869l-.072.029c0,.07.008.136.011.2l.06-.225" transform="translate(-8.489 -19.756)" fill="#fff"/>
    <path id="Trazado_611755" data-name="Trazado 611755" d="M35.25,82.216l.244-.187a1.462,1.462,0,0,0-.244.187" transform="translate(-8.404 -19.556)" fill="#fff"/>
    <path id="Trazado_611756" data-name="Trazado 611756" d="M40.72,70.858l-.175.14c.281-.01.155-.073.175-.14" transform="translate(-9.666 -16.893)" fill="#fff"/>
    <path id="Trazado_611757" data-name="Trazado 611757" d="M17.735,91.1a2.269,2.269,0,0,0,.264.412c-.1-.224-.141-.44-.264-.412" transform="translate(-4.228 -21.717)" fill="#fff"/>
    <path id="Trazado_611758" data-name="Trazado 611758" d="M44.116,73.024c.037-.09.039-.139.014-.154-.04.091-.052.151-.014.154" transform="translate(-10.512 -17.373)" fill="#fff"/>
    <path id="Trazado_611759" data-name="Trazado 611759" d="M18.457,92.053l-.046-.1a2.125,2.125,0,0,1-.329-.318.73.73,0,0,0,.375.414" transform="translate(-4.311 -21.847)" fill="#fff"/>
    <path id="Trazado_611760" data-name="Trazado 611760" d="M11.772,71.629l-.05-.014c0,.018.018.018.05.014" transform="translate(-2.794 -17.073)" fill="#fff"/>
    <path id="Trazado_611761" data-name="Trazado 611761" d="M3.289,70.144c.063-.01.166-.014.264-.018a.9.9,0,0,0-.264.018" transform="translate(-0.784 -16.717)" fill="#fff"/>
    <path id="Trazado_611762" data-name="Trazado 611762" d="M13.888,87.049c-.1-.1-.026-.007,0,0" transform="translate(-3.298 -20.742)" fill="#fff"/>
    <path id="Trazado_611763" data-name="Trazado 611763" d="M13.8,85.919a.086.086,0,0,0,.086,0,.112.112,0,0,1-.086,0" transform="translate(-3.289 -20.483)" fill="#fff"/>
    <path id="Trazado_611764" data-name="Trazado 611764" d="M20.642,92.853l.008.01c-.01-.05-.008-.041-.008-.01" transform="translate(-4.921 -22.131)" fill="#fff"/>
    <path id="Trazado_611765" data-name="Trazado 611765" d="M13.771,86.8a1.347,1.347,0,0,0,.094.164,1.244,1.244,0,0,0-.094-.164" transform="translate(-3.283 -20.693)" fill="#fff"/>
    <path id="Trazado_611766" data-name="Trazado 611766" d="M13.707,86.851l-.075-.1c-.028,0-.027.022.075.1" transform="translate(-3.246 -20.681)" fill="#fff"/>
    <path id="Trazado_611767" data-name="Trazado 611767" d="M14.042,87.2a1.491,1.491,0,0,1-.146-.183c.012.027.014.041.006.038l.14.145" transform="translate(-3.313 -20.745)" fill="#fff"/>
    <path id="Trazado_611768" data-name="Trazado 611768" d="M27.266,70.673l-.031-.011c-.144.059-.081.049.031.011" transform="translate(-6.473 -16.846)" fill="#fff"/>
    <path id="Trazado_611769" data-name="Trazado 611769" d="M29.07,90.532l0,.017.016-.014Z" transform="translate(-6.929 -21.583)" fill="#fff"/>
    <path id="Trazado_611770" data-name="Trazado 611770" d="M29.3,89.908a.529.529,0,0,1-.218.478l.408.089Z" transform="translate(-6.934 -21.434)" fill="#fff"/>
    <path id="Trazado_611771" data-name="Trazado 611771" d="M33.407,70.194a.53.53,0,0,1-.091.1l-.059.04-.053.019a2.061,2.061,0,0,0-.537.281,2.1,2.1,0,0,1,.416-.218c.054.021-.156.151.252.082-.061.034-.119.062-.172.086.018-.018-.014-.016,0-.033-.332.114.324.065.056.328-.092.071-.179.087-.181.007-.028.1-.12.277-.177.411-.087.1-.125.035-.038-.069l-.4.592-.007-.011a3.248,3.248,0,0,1-.1.481c-.156.11.018-.1-.05-.093l-.155.377c-.182.065-.071-.259.1-.469-.551.05-.111.325-.778.82l.18-.331c-.332.053-.436.337-.805.589.121-.035.8-.458.626-.053a.825.825,0,0,0-.274.433c-.12-.085-.225.117-.386.349l-.145-.131c-.136.279-.042.318-.078.515a.507.507,0,0,1-.532.217c-.349.42.419-.158.064.382a3.2,3.2,0,0,0-.684,1.127c-.243.215-.062-.115-.175-.057l-.043.318c-.044.053-.069.007-.081-.017-.093.226.145.132-.034.462.112.209-.708.428-.786.943-.112.059-.063-.115-.145-.132a4.753,4.753,0,0,0-.366,1.05l-.366.279c.311-.174.2.263.1.64a3.184,3.184,0,0,0,.3-.128l-.262.529c-.067.037-.086-.049-.1-.174l-.025.113c-.182.124-.208-.029-.207-.213l.222-.1c-.01-.186-.036-.372-.145-.415a.574.574,0,0,1-.072.184c0-.049-.012-.085-.038-.083s-.03.078-.046.184l-.253-.023.05.077-.561.529a5.826,5.826,0,0,1-.612,1.884c0-.267-.181-.192-.326-.313.3-.071.329-.588.628-.922-.156.174-.2.08-.187.014l-.329.749c-.113-.107-.193.067-.369.2.339.055-.191.6-.308.915-.094-.045-.133-.17.123-.473-.445.214-.048.666-.46.895.056-.079.1-.112.08-.174-.062.236-.448.636-.442.478l.056-.078c-.41.494-1.164,1.567-1.013,1.8a1.345,1.345,0,0,1-.22-.316l.019,1.439c-.119-.213-.775-.218-.559-.72a1.339,1.339,0,0,0-.388.539c.088-.065.414-.017.345.11a3.224,3.224,0,0,0-.724.4c.131-.1.308.25.152.442-.019-.062-.289-.189-.264-.283l-.091.7c.041-.16-.217-.194-.377-.142.092-.011-.321.423-.391.575l.219-.162c-.455.527-.021.838-.445,1.38-.008-.11-.228-.425-.471-.17a2.432,2.432,0,0,1-.157,1.857,1.038,1.038,0,0,1-.133.011l-.34.651a11.241,11.241,0,0,0,.32-1.331c.078-.441-.006-.65.069-.932a.554.554,0,0,1-.179.094.287.287,0,0,0-.107.107.1.1,0,0,1-.062-.1.275.275,0,0,1,0-.053.849.849,0,0,1,.057-.1l-.072.085-.024.019-.046.037-.08.057c.088.187-.036.389-.062.63a.243.243,0,0,0,0,.073l.006,0a3.692,3.692,0,0,0,.195-.614.621.621,0,0,1,.078.427,1.875,1.875,0,0,1-.248.709,1.072,1.072,0,0,1-.136-.142c-.072-.2.081-.454.061-.579-.017.087-.235-.059-.239-.139a.363.363,0,0,0,.122-.027c-.065-.188-.292.081-.4-.325-.089-.119-.1-.5-.207-.443a1.171,1.171,0,0,1-.755.854,6.05,6.05,0,0,1-.383-.929c-.027-.3.57-.021.548-.281-.048.031-.19-.023-.244-.049-.069-.148.172-.069-.073-.3-.192.1-.448-.522-.238,0-.265-.206-.2-.289-.471-.571-.017.181-.572.047-.838-.158.052-.021.053-.123.053-.171-.44-.515-.614-.848-1.036-1.318,0-.077-.161-.344-.008-.308a.8.8,0,0,1-.331-.2c-.12-.4.311.3.279-.054-.106.062-.461-.263-.7-.418-.081.189.4.5.645.656-.19.174-.714-.005-1.244-.416-.4-.347-.029-.28-.117-.323-.628-.762-.9-.323-1.307-1.055-.1-.35.232-.229.271-.362.333.276.363.557.562.768l-.181-.317a1.1,1.1,0,0,1,.422.4c-.073-.3-1.1-1.255-1.5-1.911-.132-.063-.33-.2-.305-.072l.179.163c.05.253-.439-.213-.281.054a2.41,2.41,0,0,1-.885-.736l.081-.188c-.034.043.117.295.244.352-.188-.085-.279-.687-.6-.677l.117.323a2.7,2.7,0,0,1-.929-.68c-.014.26.078.055.11.411.034-.364.682.772.625.288.011.385.262.448.36.877.038-.05,0-.181.2.091a.371.371,0,0,1,.091.019l.011.02-.007-.018c.017,0,.019,0,0-.007a.4.4,0,0,1-.046-.191c.218.03.574.432.751.518.113.168-.109-.014-.085.11l.264.128c-.084.112.188.548-.188.251l.281.32a1.673,1.673,0,0,0,.5.632c.112.169.452.275.255.217l.51.438-.021.027c.428.5,1.076.854,1.4,1.578a2.78,2.78,0,0,1,.579.584l-.04.133c.222.183.485.713.658.721-.03.441.874,1.072,1.168,1.481l.127-.089a6.471,6.471,0,0,0,.811.752l.084-.111a20.868,20.868,0,0,1,1.5,1.782l.021-.028a.232.232,0,0,1-.019.052c-.052-.007-.19-.182-.286-.329a4.117,4.117,0,0,0,.291.442,7.744,7.744,0,0,0,.88-1.312c.13-.225.252-.433.382-.619a1.139,1.139,0,0,1,.313-.328.586.586,0,0,1,.228-.306.119.119,0,0,0-.018.036l.04-.051.189-.133a.868.868,0,0,0-.168.1,3.194,3.194,0,0,0,.246-.423l.164.026.021-.037c.149-.11.029-.155-.116-.145a1.1,1.1,0,0,0,.071-.244c.276.026.218-.428.538-.435-.027-.171.465-.784.315-1.016.031.015.075-.018.019.062a1.112,1.112,0,0,0,.336-.477l.2.043.059-.5c.251-.146.369-.2.327.1.2-.645.243-.467.391-1.034l.081.094c.112-.159.168-.506.318-.54.443-.213,1.307-1.711,2.143-2.482-.414-.037.437-.322.242-.522.107,0,.238-.1.188.09.273-.507.617-.609.665-1.063.107,0,.027.171.1.154.012-.047.049-.189.124-.206s.008.109-.017.2c.335-.477.162-.678-.008-.857a.564.564,0,0,0,.341-.563c.125-.035.294-.123.1.184.131-.156.834-.929.69-1.062.078-.022.181-.22.195-.276.281-.36.319-.382.572-.753l-.1.081c-.084-.283.18-.331.372-.638l.013.023c.63-.565.148-.336.791-.878l-.144-.051c-.207-.248.58-.472.766-.925L31,75.3c.069-.273.775-.328.962-.514.056-.029-.018.1-.05.174.555-.437-.1-.185.166-.62.139-.014.139.254.358-.01.168-.087.321-1,.758-1.253-.125.035-.25.069-.157-.155.192-.308.823-.606.816-1.018.045-.024.072-.026.089-.015.028-.066.069-.145.118-.238.072-.123.151-.257.228-.389a1.373,1.373,0,0,0,.238-.57c.341-.1.637-.519.845-.883a3.544,3.544,0,0,1,.581-.9c-.034-.022,0-.065.141-.141l-1.3.066.092-.05a3.545,3.545,0,0,0-1.487.239c-.156-.027-.015-.075.013-.1-.273-.014-.5-.024-.687-.026a2.264,2.264,0,0,0-.372.017,3.294,3.294,0,0,0-.715.223l-.074-.149a10.962,10.962,0,0,0-1.928,0,.125.125,0,0,1,.083-.071c-.871.2-2.11-.352-2.413.208l-.574.154c.749.019-.1.242.207.324-.293.041-.766-.142-.405-.181l.057.026c.124-.291-.932-.072-.918-.268-1.471.061-2.91-.053-4.289-.021l.166.218-.481,0c-.128-.048-.175-.169.168-.171-.184-.12-.572.124-.58.173-.674-.069.254-.268.048-.267l-.279.026.064.024a1.056,1.056,0,0,1-.653.2c-.263-.036-.139-.133-.241-.138,0-.016-.035-.022-.158,0h-.606l.248.168c-.266.1-.57.009-.284.2-.42-.295-2.263-.039-2.518-.126a3.278,3.278,0,0,1-1.2.149c.116.033.19.228-.207.216.133-.412-.732-.154-1.062-.437.292.186-1.126.084-.668.346-.332-.022-.024-.152-.279-.24a24.273,24.273,0,0,1-2.711.037c-.013.054.152.131-.054.217L9.57,69.5c-.191.032-.167.315-.524.14.051.043.127.109,0,.13-1.915-.2-3.891.337-5.843-.091.266.1.091.111-.11.121.132.021,0,.133.03.2L2.3,69.832c-.142.206-.869.042-.948.237l.256-.043c-.334.238.494.49.453.783.375-.27,1.021.351,1.636-.039.141.055-.115.1-.039.163a.84.84,0,0,1,.7-.117l-.04.032a20.938,20.938,0,0,1,2.557.094L6.8,70.8a1.185,1.185,0,0,1,.408.088c.27-.228-.679.009-.433-.24.329.283,1.7-.05,1.929.276.372-.01-.114-.163.257-.173l.1.087.09-.119c.244.011.37.12.382.2a1.194,1.194,0,0,0-.231.035,4.54,4.54,0,0,0,1-.034l-.359-.044c1.011-.117,2.252-.037,3.225-.252l-.076-.065c.743-.15.6.056,1.42-.029l-.029.018a1.512,1.512,0,0,1,.605-.113c-.2.086.395.142.126.239.807-.161.4-.119.925-.388l.126.109a.969.969,0,0,1,.6-.2c-.334.107.267.164-.106.3.868.219,1.27-.29,1.676.059.385-.325-.749-.15-.531-.224-.188-.1.319-.244.59-.221.275,0,.48.385,1.171.357-.069,0-.072.024-.141.025.261.072.5-.124.825,0,.171-.194.412,0,.456-.244l-.633.075c.358-.075.685-.367,1.283-.249a1.12,1.12,0,0,1-.339.159c.175.065.332-.058.514.009-.043.243-.769.078-1.148.273.189.1.723-.2.538.069.267-.34.682.021,1.142-.248l-.026.145a1.155,1.155,0,0,1,.361-.1l-.241.195c.374-.172.735.117,1.1.018-.762.028-.177-.169-.5-.264.933-.223.552.361,1.6.258-.142.025-.537-.07-.317-.144a1.922,1.922,0,0,1,.593.142c.7-.052-.112-.145.182-.243.243.168.34-.083.643-.149l.007.146c.8.069.2-.312.919-.222l-.3.213.371-.064-.072.169a1.728,1.728,0,0,1,.927-.074c-.1-.1.043-.269.395-.284.243.079-.129.144.368.107-.11.1-.229.215-.45.087-.021.048-.108.1-.129.143a2.316,2.316,0,0,0,.83,0,.643.643,0,0,1-.2-.028l.716-.226c.115.052.027.1-.062.145a4.225,4.225,0,0,1,.46-.11c-.052.121-.035.244-.337.31l.684-.155c.047.05.358.132.27.178.384.058.928-.261,1.437-.185a.392.392,0,0,1,.185-.068c.238.005.463.042.7.054a2.341,2.341,0,0,0,.364-.007.33.33,0,0,0,.142-.076.406.406,0,0,1-.014.215.272.272,0,0,0,.1-.166c.025-.072.033-.149.23-.195.3-.078-.1.186-.108.246.139-.1.63-.306.648-.215l-.113.085c-.014,0-.016-.01-.011-.02a.687.687,0,0,0-.111.008m-1.953,2.93c.038-.1.087-.329.2-.34.064.2-.056.224-.2.34m-4.644,6.86c.008-.092.1-.175.226-.252a.811.811,0,0,1-.226.252M12.063,83.8l.013,0c.115.212.075.136-.013,0m-.28-.406c-.048-.022-.061-.006-.062.023.05,0,.126.08.2.18.005-.051-.018-.116-.139-.2m7.761-14.109.1.035c-.213.049-.154.009-.1-.035" transform="translate(-0.323 -16.395)" fill="#fff"/>
    <path id="Trazado_611772" data-name="Trazado 611772" d="M35.3,82.336a.137.137,0,0,1,.091.011c0-.048-.018-.065-.091-.011" transform="translate(-8.416 -19.621)" fill="#fff"/>
    <path id="Trazado_611773" data-name="Trazado 611773" d="M40.807,70.824H40.79a.066.066,0,0,0-.016.027Z" transform="translate(-9.721 -16.885)" fill="#fff"/>
    <path id="Trazado_611774" data-name="Trazado 611774" d="M22.922,94.25a.484.484,0,0,1,.074.195c.03-.021.022-.075-.074-.195" transform="translate(-5.465 -22.47)" fill="#fff"/>
    <path id="Trazado_611775" data-name="Trazado 611775" d="M12.524,85.654l.238.206a.613.613,0,0,1-.153-.241c-.021.028-.018.106-.085.035" transform="translate(-2.986 -20.412)" fill="#fff"/>
    <path id="Trazado_611776" data-name="Trazado 611776" d="M10.971,82.188c-.044-.022-.066-.071-.11-.092l-.042.056c.134.142.266.206.152.037" transform="translate(-2.579 -19.572)" fill="#fff"/>
    <path id="Trazado_611777" data-name="Trazado 611777" d="M12.654,84.838c.075-.1-.088-.219-.251-.366l.026.029c-.172.068.027.2.225.337" transform="translate(-2.947 -20.139)" fill="#fff"/>
    <path id="Trazado_611778" data-name="Trazado 611778" d="M12.316,84.38a1.106,1.106,0,0,1-.139-.149c-.069.027.045.071.139.149" transform="translate(-2.898 -20.081)" fill="#fff"/>
    <path id="Trazado_611779" data-name="Trazado 611779" d="M14.36,87.426c-.046-.1-.161.058-.163-.02-.195.019.605.387.163.02" transform="translate(-3.377 -20.835)" fill="#fff"/>
    <path id="Trazado_611780" data-name="Trazado 611780" d="M12.966,84.422l-.061.161.174.008Z" transform="translate(-3.077 -20.126)" fill="#fff"/>
    <path id="Trazado_611781" data-name="Trazado 611781" d="M14.3,86.106l-.2-.289c-.015.021-.056,0-.1-.034.141.163.276.359.3.323" transform="translate(-3.338 -20.451)" fill="#fff"/>
    <path id="Trazado_611782" data-name="Trazado 611782" d="M13.934,85.723a.818.818,0,0,0-.208-.193,1.845,1.845,0,0,0,.208.193" transform="translate(-3.272 -20.391)" fill="#fff"/>
    <path id="Trazado_611783" data-name="Trazado 611783" d="M13.452,84.848l.046.1.158.191Z" transform="translate(-3.207 -20.228)" fill="#fff"/>
    <path id="Trazado_611784" data-name="Trazado 611784" d="M17.685,89.895l.289.254c.065-.006.019-.105-.092-.2-.088-.043-.2-.136-.2-.058" transform="translate(-4.216 -21.424)" fill="#fff"/>
    <path id="Trazado_611785" data-name="Trazado 611785" d="M17.075,88.409a.344.344,0,0,1,.027.2l.149-.118Z" transform="translate(-4.071 -21.077)" fill="#fff"/>
    <path id="Trazado_611786" data-name="Trazado 611786" d="M18.078,89.413c.064-.007.483.311.149-.041-.064.006-.353-.249-.149.041" transform="translate(-4.293 -21.283)" fill="#fff"/>
    <path id="Trazado_611787" data-name="Trazado 611787" d="M22.846,95.261l-.067-.071-.221.219Z" transform="translate(-5.378 -22.694)" fill="#fff"/>
    <path id="Trazado_611788" data-name="Trazado 611788" d="M26.111,93.967c-.33.32.09.2-.228.474,0,.129.26-.224.246-.1.1-.266.222-.355-.018-.375" transform="translate(-6.171 -22.402)" fill="#fff"/>
    <path id="Trazado_611789" data-name="Trazado 611789" d="M26.192,94.461a1.267,1.267,0,0,0-.045.14.569.569,0,0,0,.045-.14" transform="translate(-6.234 -22.52)" fill="#fff"/>
    <path id="Trazado_611790" data-name="Trazado 611790" d="M1.79,69.96,1.5,69.9l.191.1Z" transform="translate(-0.357 -16.665)" fill="#fff"/>
    <path id="Trazado_611791" data-name="Trazado 611791" d="M1.08,70.242l-.075-.2-.17.185c.066-.011.193-.032.244.011" transform="translate(-0.199 -16.699)" fill="#fff"/>
    <path id="Trazado_611792" data-name="Trazado 611792" d="M39.823,74.991l.025.046c.068-.006.112-.059.2-.164Z" transform="translate(-9.494 -17.85)" fill="#fff"/>
    <path id="Trazado_611793" data-name="Trazado 611793" d="M42.81,71.318l-.013.011a1.214,1.214,0,0,0,.2.026c-.065-.01-.129-.022-.19-.037" transform="translate(-10.203 -17.003)" fill="#fff"/>
    <path id="Trazado_611794" data-name="Trazado 611794" d="M42.506,71.14c-.006.008.044-.034.043-.026-.036.033.161-.2-.043.026" transform="translate(-10.133 -16.936)" fill="#fff"/>
  </g>
</svg>
