<svg xmlns="http://www.w3.org/2000/svg" xmlns:xlink="http://www.w3.org/1999/xlink" width="1030" height="490.747" viewBox="0 0 1030 490.747">
  <defs>
    <linearGradient id="linear-gradient" x1="0.5" x2="0.5" y2="1" gradientUnits="objectBoundingBox">
      <stop offset="0" stop-color="#e6f9ff"/>
      <stop offset="1" stop-color="#e7edf9"/>
    </linearGradient>
  </defs>
  <g id="img13" transform="translate(-285 -4802.587)">
    <g id="Grupo_1074828" data-name="Grupo 1074828" transform="translate(0 -4364.413)">
      <path id="Trazado_608976" data-name="Trazado 608976" d="M16,0h998c8.837,0,16,7.609,16,17V473.751c0,9.386-7.163,17-16,17H16c-8.837,0-16-7.609-16-17V17C0,7.609,7.163,0,16,0Z" transform="translate(285 9167)" fill="url(#linear-gradient)"/>
    </g>
    <g id="Trazado_642173" data-name="Trazado 642173" transform="translate(515 4837)" fill="#d0dbf8">
      <path d="M 604.8801879882812 380.5 L 1.5 380.5 L 1.5 -6.256811618804932 L 604.8801879882812 380.5 Z" stroke="none"/>
      <path d="M 3 -3.513641357421875 L 3 379 L 599.7604370117188 379 L 3 -3.513641357421875 M 0 -8.999969482421875 L 610 382 L 0 382 L 0 -8.999969482421875 Z" stroke="none" fill="#2d4587"/>
    </g>
    <path id="Trazado_643639" data-name="Trazado 643639" d="M15.094-5.777a6.231,6.231,0,0,1-.961,3.146A5.8,5.8,0,0,1,11.666-.516a8.4,8.4,0,0,1-3.627.75,6.7,6.7,0,0,1-5.3-2.191A9.048,9.048,0,0,1,.809-8.145v-.844a10.328,10.328,0,0,1,.873-4.389A6.615,6.615,0,0,1,4.2-16.283a7.013,7.013,0,0,1,3.8-1.025,7.354,7.354,0,0,1,4.992,1.635,6.459,6.459,0,0,1,2.145,4.506h-4.1a3.056,3.056,0,0,0-.785-2.238,3.229,3.229,0,0,0-2.25-.68,2.457,2.457,0,0,0-2.25,1.148,7.381,7.381,0,0,0-.75,3.668v1.207a8.167,8.167,0,0,0,.686,3.9A2.509,2.509,0,0,0,8.039-2.988a3.159,3.159,0,0,0,2.168-.668A2.835,2.835,0,0,0,11-5.777ZM24,0a4.459,4.459,0,0,1-.375-1.137A3.672,3.672,0,0,1,20.578.234,4.5,4.5,0,0,1,17.531-.85a3.45,3.45,0,0,1-1.254-2.725A3.546,3.546,0,0,1,17.8-6.691a7.761,7.761,0,0,1,4.43-1.055h1.219v-.671q0-1.755-1.512-1.755a1.236,1.236,0,0,0-1.406,1.39H16.582a3.54,3.54,0,0,1,1.564-2.985,6.575,6.575,0,0,1,3.99-1.147,5.764,5.764,0,0,1,3.832,1.184A4.115,4.115,0,0,1,27.41-8.484v5.613A5.748,5.748,0,0,0,27.949-.2V0ZM21.527-2.578a2.2,2.2,0,0,0,1.225-.316,1.983,1.983,0,0,0,.7-.715V-5.637H22.3q-2.062,0-2.062,1.852a1.131,1.131,0,0,0,.363.873A1.315,1.315,0,0,0,21.527-2.578ZM34.2-15.832v3.152h2.086v2.742H34.2v5.8a1.481,1.481,0,0,0,.258,1,1.383,1.383,0,0,0,1.02.281,5.793,5.793,0,0,0,.984-.07V-.105a7.288,7.288,0,0,1-2.227.34,4.137,4.137,0,0,1-3.012-.961,3.939,3.939,0,0,1-.973-2.918V-9.937H28.629V-12.68h1.617v-3.152ZM43.969.234a6.518,6.518,0,0,1-4.723-1.74,6.009,6.009,0,0,1-1.8-4.529v-.328A7.787,7.787,0,0,1,38.162-9.8a5.274,5.274,0,0,1,2.1-2.3,6.35,6.35,0,0,1,3.281-.814,5.489,5.489,0,0,1,4.219,1.658,6.516,6.516,0,0,1,1.547,4.623V-5.1H41.461a2.846,2.846,0,0,0,.926,1.676,2.755,2.755,0,0,0,1.852.609,3.549,3.549,0,0,0,2.93-1.312l1.8,2.133A5.045,5.045,0,0,1,46.881-.369,7.069,7.069,0,0,1,43.969.234Zm-.445-10.1q-1.734,0-2.062,2.3h3.984v-.3a1.956,1.956,0,0,0-.48-1.471A1.912,1.912,0,0,0,43.523-9.867ZM55.5-15.832v3.152h2.086v2.742H55.5v5.8a1.481,1.481,0,0,0,.258,1,1.383,1.383,0,0,0,1.02.281,5.793,5.793,0,0,0,.984-.07V-.105a7.288,7.288,0,0,1-2.227.34,4.137,4.137,0,0,1-3.012-.961,3.939,3.939,0,0,1-.973-2.918V-9.937H49.934V-12.68h1.617v-3.152Zm2.789,9.375a7.484,7.484,0,0,1,.738-3.381,5.28,5.28,0,0,1,2.121-2.279,6.388,6.388,0,0,1,3.246-.8,5.83,5.83,0,0,1,4.488,1.764,6.768,6.768,0,0,1,1.641,4.8v.141a6.566,6.566,0,0,1-1.646,4.705A5.846,5.846,0,0,1,64.418.234,5.912,5.912,0,0,1,60.07-1.389a6.348,6.348,0,0,1-1.77-4.4Zm3.949.246a4.718,4.718,0,0,0,.551,2.578,1.835,1.835,0,0,0,1.629.82q2.109,0,2.156-3.246v-.4q0-3.41-2.18-3.41-1.98,0-2.145,2.941ZM83.3-4.7l2-7.98h4.16L85.324,0H81.293L77.156-12.68h4.172ZM96.621.234A6.518,6.518,0,0,1,91.9-1.506a6.009,6.009,0,0,1-1.8-4.529v-.328A7.787,7.787,0,0,1,90.814-9.8a5.274,5.274,0,0,1,2.1-2.3,6.35,6.35,0,0,1,3.281-.814,5.489,5.489,0,0,1,4.219,1.658,6.516,6.516,0,0,1,1.547,4.623V-5.1H94.113a2.846,2.846,0,0,0,.926,1.676,2.755,2.755,0,0,0,1.852.609,3.549,3.549,0,0,0,2.93-1.312l1.8,2.133A5.045,5.045,0,0,1,99.533-.369,7.069,7.069,0,0,1,96.621.234Zm-.445-10.1q-1.734,0-2.062,2.3H98.1v-.3a1.956,1.956,0,0,0-.48-1.471A1.912,1.912,0,0,0,96.176-9.867Zm15.047.762-1.3-.094a2.336,2.336,0,0,0-2.391,1.172V0h-3.949V-12.68h3.7l.129,1.629a3.058,3.058,0,0,1,2.777-1.863,3.851,3.851,0,0,1,1.1.141Zm6.609-6.727v3.152h2.086v2.742h-2.086v5.8a1.481,1.481,0,0,0,.258,1,1.383,1.383,0,0,0,1.02.281,5.793,5.793,0,0,0,.984-.07V-.105a7.288,7.288,0,0,1-2.227.34,4.137,4.137,0,0,1-3.012-.961,3.939,3.939,0,0,1-.973-2.918V-9.937h-1.617V-12.68h1.617v-3.152ZM125.637,0h-3.961V-12.68h3.961Zm-4.2-15.949a1.763,1.763,0,0,1,.609-1.383,2.3,2.3,0,0,1,1.582-.539,2.3,2.3,0,0,1,1.582.539,1.763,1.763,0,0,1,.609,1.383,1.763,1.763,0,0,1-.609,1.383,2.3,2.3,0,0,1-1.582.539,2.3,2.3,0,0,1-1.582-.539A1.763,1.763,0,0,1,121.441-15.949ZM133.43-2.812a1.756,1.756,0,0,0,1.289-.451,1.654,1.654,0,0,0,.445-1.26h3.7A4.384,4.384,0,0,1,137.373-1.1a5.558,5.558,0,0,1-3.85,1.336A5.627,5.627,0,0,1,129.164-1.5a6.834,6.834,0,0,1-1.594-4.8v-.164a7.723,7.723,0,0,1,.709-3.393,5.162,5.162,0,0,1,2.045-2.262,6.1,6.1,0,0,1,3.164-.791,5.488,5.488,0,0,1,3.926,1.371,4.863,4.863,0,0,1,1.453,3.715h-3.7a2.168,2.168,0,0,0-.48-1.512,1.658,1.658,0,0,0-1.289-.527q-1.535,0-1.793,1.957A13.809,13.809,0,0,0,131.52-6.2a5.424,5.424,0,0,0,.457,2.648A1.582,1.582,0,0,0,133.43-2.812ZM147.68,0a4.459,4.459,0,0,1-.375-1.137A3.672,3.672,0,0,1,144.258.234,4.5,4.5,0,0,1,141.211-.85a3.45,3.45,0,0,1-1.254-2.725,3.546,3.546,0,0,1,1.523-3.117,7.761,7.761,0,0,1,4.43-1.055h1.219v-.671q0-1.755-1.512-1.755a1.236,1.236,0,0,0-1.406,1.39h-3.949a3.54,3.54,0,0,1,1.564-2.985,6.575,6.575,0,0,1,3.99-1.147,5.764,5.764,0,0,1,3.832,1.184,4.115,4.115,0,0,1,1.441,3.246v5.613A5.748,5.748,0,0,0,151.629-.2V0Zm-2.473-2.578a2.2,2.2,0,0,0,1.225-.316,1.983,1.983,0,0,0,.7-.715V-5.637H145.98q-2.062,0-2.062,1.852a1.131,1.131,0,0,0,.363.873A1.315,1.315,0,0,0,145.207-2.578ZM157.441,0H153.48V-18h3.961Z" transform="translate(498 5103) rotate(-90)" fill="#12263f" stroke="rgba(0,0,0,0)" stroke-width="1"/>
    <path id="Trazado_643644" data-name="Trazado 643644" d="M15.094-5.777a6.231,6.231,0,0,1-.961,3.146A5.8,5.8,0,0,1,11.666-.516a8.4,8.4,0,0,1-3.627.75,6.7,6.7,0,0,1-5.3-2.191A9.048,9.048,0,0,1,.809-8.145v-.844a10.328,10.328,0,0,1,.873-4.389A6.615,6.615,0,0,1,4.2-16.283a7.013,7.013,0,0,1,3.8-1.025,7.354,7.354,0,0,1,4.992,1.635,6.459,6.459,0,0,1,2.145,4.506h-4.1a3.056,3.056,0,0,0-.785-2.238,3.229,3.229,0,0,0-2.25-.68,2.457,2.457,0,0,0-2.25,1.148,7.381,7.381,0,0,0-.75,3.668v1.207a8.167,8.167,0,0,0,.686,3.9A2.509,2.509,0,0,0,8.039-2.988a3.159,3.159,0,0,0,2.168-.668A2.835,2.835,0,0,0,11-5.777ZM24,0a4.459,4.459,0,0,1-.375-1.137A3.672,3.672,0,0,1,20.578.234,4.5,4.5,0,0,1,17.531-.85a3.45,3.45,0,0,1-1.254-2.725A3.546,3.546,0,0,1,17.8-6.691a7.761,7.761,0,0,1,4.43-1.055h1.219v-.671q0-1.755-1.512-1.755a1.236,1.236,0,0,0-1.406,1.39H16.582a3.54,3.54,0,0,1,1.564-2.985,6.575,6.575,0,0,1,3.99-1.147,5.764,5.764,0,0,1,3.832,1.184A4.115,4.115,0,0,1,27.41-8.484v5.613A5.748,5.748,0,0,0,27.949-.2V0ZM21.527-2.578a2.2,2.2,0,0,0,1.225-.316,1.983,1.983,0,0,0,.7-.715V-5.637H22.3q-2.062,0-2.062,1.852a1.131,1.131,0,0,0,.363.873A1.315,1.315,0,0,0,21.527-2.578ZM34.2-15.832v3.152h2.086v2.742H34.2v5.8a1.481,1.481,0,0,0,.258,1,1.383,1.383,0,0,0,1.02.281,5.793,5.793,0,0,0,.984-.07V-.105a7.288,7.288,0,0,1-2.227.34,4.137,4.137,0,0,1-3.012-.961,3.939,3.939,0,0,1-.973-2.918V-9.937H28.629V-12.68h1.617v-3.152ZM43.969.234a6.518,6.518,0,0,1-4.723-1.74,6.009,6.009,0,0,1-1.8-4.529v-.328A7.787,7.787,0,0,1,38.162-9.8a5.274,5.274,0,0,1,2.1-2.3,6.35,6.35,0,0,1,3.281-.814,5.489,5.489,0,0,1,4.219,1.658,6.516,6.516,0,0,1,1.547,4.623V-5.1H41.461a2.846,2.846,0,0,0,.926,1.676,2.755,2.755,0,0,0,1.852.609,3.549,3.549,0,0,0,2.93-1.312l1.8,2.133A5.045,5.045,0,0,1,46.881-.369,7.069,7.069,0,0,1,43.969.234Zm-.445-10.1q-1.734,0-2.062,2.3h3.984v-.3a1.956,1.956,0,0,0-.48-1.471A1.912,1.912,0,0,0,43.523-9.867ZM55.5-15.832v3.152h2.086v2.742H55.5v5.8a1.481,1.481,0,0,0,.258,1,1.383,1.383,0,0,0,1.02.281,5.793,5.793,0,0,0,.984-.07V-.105a7.288,7.288,0,0,1-2.227.34,4.137,4.137,0,0,1-3.012-.961,3.939,3.939,0,0,1-.973-2.918V-9.937H49.934V-12.68h1.617v-3.152Zm2.789,9.375a7.484,7.484,0,0,1,.738-3.381,5.28,5.28,0,0,1,2.121-2.279,6.388,6.388,0,0,1,3.246-.8,5.83,5.83,0,0,1,4.488,1.764,6.768,6.768,0,0,1,1.641,4.8v.141a6.566,6.566,0,0,1-1.646,4.705A5.846,5.846,0,0,1,64.418.234,5.912,5.912,0,0,1,60.07-1.389a6.348,6.348,0,0,1-1.77-4.4Zm3.949.246a4.718,4.718,0,0,0,.551,2.578,1.835,1.835,0,0,0,1.629.82q2.109,0,2.156-3.246v-.4q0-3.41-2.18-3.41-1.98,0-2.145,2.941ZM82.1-11.32a3.952,3.952,0,0,1,3.234-1.594A3.941,3.941,0,0,1,88.5-11.672,5.582,5.582,0,0,1,89.59-8V0H85.629V-7.91a2.232,2.232,0,0,0-.41-1.482,1.762,1.762,0,0,0-1.395-.475,1.9,1.9,0,0,0-1.723.773V0H78.152V-18H82.1Zm9.188,4.863a7.484,7.484,0,0,1,.738-3.381,5.28,5.28,0,0,1,2.121-2.279,6.388,6.388,0,0,1,3.246-.8,5.83,5.83,0,0,1,4.488,1.764,6.768,6.768,0,0,1,1.641,4.8v.141a6.566,6.566,0,0,1-1.646,4.705A5.846,5.846,0,0,1,97.418.234,5.912,5.912,0,0,1,93.07-1.389a6.348,6.348,0,0,1-1.77-4.4Zm3.949.246a4.718,4.718,0,0,0,.551,2.578,1.835,1.835,0,0,0,1.629.82q2.109,0,2.156-3.246v-.4q0-3.41-2.18-3.41-1.98,0-2.145,2.941Zm17.7-2.895-1.3-.094a2.336,2.336,0,0,0-2.391,1.172V0h-3.949V-12.68H109l.129,1.629a3.058,3.058,0,0,1,2.777-1.863,3.851,3.851,0,0,1,1.1.141ZM118.523,0h-3.961V-12.68h3.961Zm-4.2-15.949a1.763,1.763,0,0,1,.609-1.383,2.3,2.3,0,0,1,1.582-.539,2.3,2.3,0,0,1,1.582.539,1.763,1.763,0,0,1,.609,1.383,1.763,1.763,0,0,1-.609,1.383,2.3,2.3,0,0,1-1.582.539,2.3,2.3,0,0,1-1.582-.539A1.763,1.763,0,0,1,114.328-15.949Zm11.285,12.9h5.777V0h-10.77V-2.2l5.625-7.43h-5.379V-12.68h10.395v2.133Zm7.008-3.41a7.484,7.484,0,0,1,.738-3.381,5.28,5.28,0,0,1,2.121-2.279,6.388,6.388,0,0,1,3.246-.8,5.83,5.83,0,0,1,4.488,1.764,6.768,6.768,0,0,1,1.641,4.8v.141a6.566,6.566,0,0,1-1.646,4.705A5.846,5.846,0,0,1,138.75.234,5.912,5.912,0,0,1,134.4-1.389a6.348,6.348,0,0,1-1.77-4.4Zm3.949.246a4.718,4.718,0,0,0,.551,2.578,1.835,1.835,0,0,0,1.629.82q2.109,0,2.156-3.246v-.4q0-3.41-2.18-3.41-1.98,0-2.145,2.941Zm13.652-6.469.129,1.488a4.3,4.3,0,0,1,3.621-1.723,3.618,3.618,0,0,1,2.959,1.184,5.635,5.635,0,0,1,1.014,3.563V0h-3.961V-8a2.14,2.14,0,0,0-.387-1.412,1.789,1.789,0,0,0-1.406-.451,1.883,1.883,0,0,0-1.723.914V0H146.52V-12.68Zm14.508-3.152v3.152h2.086v2.742H164.73v5.8a1.481,1.481,0,0,0,.258,1,1.383,1.383,0,0,0,1.02.281,5.793,5.793,0,0,0,.984-.07V-.105a7.288,7.288,0,0,1-2.227.34,4.137,4.137,0,0,1-3.012-.961,3.939,3.939,0,0,1-.973-2.918V-9.937h-1.617V-12.68h1.617v-3.152ZM175.512,0a4.459,4.459,0,0,1-.375-1.137A3.672,3.672,0,0,1,172.09.234,4.5,4.5,0,0,1,169.043-.85a3.45,3.45,0,0,1-1.254-2.725,3.546,3.546,0,0,1,1.523-3.117,7.761,7.761,0,0,1,4.43-1.055h1.219v-.671q0-1.755-1.512-1.755a1.236,1.236,0,0,0-1.406,1.39h-3.949a3.54,3.54,0,0,1,1.564-2.985,6.575,6.575,0,0,1,3.99-1.147,5.764,5.764,0,0,1,3.832,1.184,4.115,4.115,0,0,1,1.441,3.246v5.613A5.748,5.748,0,0,0,179.461-.2V0Zm-2.473-2.578a2.2,2.2,0,0,0,1.225-.316,1.983,1.983,0,0,0,.7-.715V-5.637h-1.148q-2.062,0-2.062,1.852a1.131,1.131,0,0,0,.363.873A1.315,1.315,0,0,0,173.039-2.578ZM185.273,0h-3.961V-18h3.961Z" transform="translate(692 5251)" fill="#12263f" stroke="rgba(0,0,0,0)" stroke-width="1"/>
    <path id="Trazado_643642" data-name="Trazado 643642" d="M8.824-6.6A4.171,4.171,0,0,1,5.965-5.449a4.617,4.617,0,0,1-3.68-1.57,6.187,6.187,0,0,1-1.359-4.2,6.3,6.3,0,0,1,.762-3.047,5.716,5.716,0,0,1,2.139-2.227,5.831,5.831,0,0,1,3.041-.82,5.66,5.66,0,0,1,3.053.85,5.72,5.72,0,0,1,2.127,2.4,8.252,8.252,0,0,1,.785,3.58v1.512a10.257,10.257,0,0,1-1.107,4.9A7.645,7.645,0,0,1,8.566-.879,9.868,9.868,0,0,1,3.785.234H3.539V-2.93l.75-.012Q8.367-3.141,8.824-6.6ZM7.031-8.3A1.923,1.923,0,0,0,8.883-9.41v-1.641a4.266,4.266,0,0,0-.551-2.426,1.727,1.727,0,0,0-1.488-.785,1.633,1.633,0,0,0-1.395.891,3.957,3.957,0,0,0-.562,2.156,3.548,3.548,0,0,0,.574,2.127A1.837,1.837,0,0,0,7.031-8.3ZM26.789-6.973a8.147,8.147,0,0,1-1.553,5.332A5.366,5.366,0,0,1,20.859.234a5.4,5.4,0,0,1-4.406-1.887,8.135,8.135,0,0,1-1.559-5.32V-10.09a8.147,8.147,0,0,1,1.553-5.332A5.379,5.379,0,0,1,20.836-17.3,5.381,5.381,0,0,1,25.23-15.41a8.155,8.155,0,0,1,1.559,5.332ZM22.84-10.594a6.085,6.085,0,0,0-.48-2.748,1.606,1.606,0,0,0-1.523-.908,1.568,1.568,0,0,0-1.482.844,5.733,5.733,0,0,0-.5,2.555v4.359a6.131,6.131,0,0,0,.48,2.795,1.612,1.612,0,0,0,1.523.885,1.59,1.59,0,0,0,1.488-.861,5.853,5.853,0,0,0,.492-2.7Z" transform="translate(535 5198)" fill="#12263f" stroke="rgba(0,0,0,0)" stroke-width="1"/>
    <path id="Trazado_643643" data-name="Trazado 643643" d="M7.465-17.3a6.523,6.523,0,0,1,4.219,1.219,4.135,4.135,0,0,1,1.5,3.4,4.11,4.11,0,0,1-.6,2.186A4.371,4.371,0,0,1,10.922-8.93a4.438,4.438,0,0,1,2.227,1.541,4.253,4.253,0,0,1,.773,2.6,4.952,4.952,0,0,1-1.348,3.709A5.252,5.252,0,0,1,8.742.234,6.329,6.329,0,0,1,5.52-.6V4.863H1.57v-16.8a5.191,5.191,0,0,1,.75-2.777,5.074,5.074,0,0,1,2.115-1.9A6.7,6.7,0,0,1,7.465-17.3Zm1.77,4.98a1.988,1.988,0,0,0-.486-1.412,1.672,1.672,0,0,0-1.283-.521,1.8,1.8,0,0,0-1.4.6A2.475,2.475,0,0,0,5.52-11.93v8.637a4.4,4.4,0,0,0,2.191.48,2.307,2.307,0,0,0,1.641-.58,1.939,1.939,0,0,0,.621-1.482,2.517,2.517,0,0,0-.6-1.881,2.449,2.449,0,0,0-1.764-.58H6.762v-2.707l.949-.012Q9.234-10.207,9.234-12.316Z" transform="translate(1040 5204)" fill="#12263f" stroke="rgba(0,0,0,0)" stroke-width="1"/>
    <path id="Trazado_643640" data-name="Trazado 643640" d="M13.16-6.973a8.147,8.147,0,0,1-1.553,5.332A5.366,5.366,0,0,1,7.23.234,5.4,5.4,0,0,1,2.824-1.652a8.135,8.135,0,0,1-1.559-5.32V-10.09a8.147,8.147,0,0,1,1.553-5.332A5.379,5.379,0,0,1,7.207-17.3,5.381,5.381,0,0,1,11.6-15.41a8.155,8.155,0,0,1,1.559,5.332ZM9.211-7.16H5.227v.668A6.131,6.131,0,0,0,5.707-3.7a1.612,1.612,0,0,0,1.523.885,1.59,1.59,0,0,0,1.488-.861,5.853,5.853,0,0,0,.492-2.7ZM5.227-10.055H9.211v-.539a6.086,6.086,0,0,0-.48-2.748,1.606,1.606,0,0,0-1.523-.908,1.58,1.58,0,0,0-1.5.879,5.968,5.968,0,0,0-.48,2.672Z" transform="translate(527 4875)" fill="#12263f" stroke="rgba(0,0,0,0)" stroke-width="1"/>
    <path id="Trazado_643641" data-name="Trazado 643641" d="M15.551,0h-4.09V-7.125H5.4V0H1.289V-17.062H5.4v6.773h6.059v-6.773h4.09Zm6.586,0H18.176V-12.68h3.961Zm-4.2-15.949a1.763,1.763,0,0,1,.609-1.383,2.3,2.3,0,0,1,1.582-.539,2.3,2.3,0,0,1,1.582.539,1.763,1.763,0,0,1,.609,1.383,1.763,1.763,0,0,1-.609,1.383,2.3,2.3,0,0,1-1.582.539,2.3,2.3,0,0,1-1.582-.539A1.763,1.763,0,0,1,17.941-15.949Zm18.4,9.7a7.646,7.646,0,0,1-1.33,4.717A4.264,4.264,0,0,1,31.418.234a3.655,3.655,0,0,1-2.871-1.277V4.875H24.6V-12.68h3.691l.117,1.172a3.656,3.656,0,0,1,2.988-1.406,4.3,4.3,0,0,1,3.645,1.729,7.741,7.741,0,0,1,1.3,4.752Zm-3.949-.246q0-3.375-1.969-3.375a1.859,1.859,0,0,0-1.875,1.008v4.992a1.919,1.919,0,0,0,1.9,1.055q1.887,0,1.945-3.258Zm5.191.035a7.484,7.484,0,0,1,.738-3.381,5.28,5.28,0,0,1,2.121-2.279,6.388,6.388,0,0,1,3.246-.8,5.83,5.83,0,0,1,4.488,1.764,6.768,6.768,0,0,1,1.641,4.8v.141A6.566,6.566,0,0,1,48.17-1.506,5.846,5.846,0,0,1,43.711.234a5.912,5.912,0,0,1-4.348-1.623,6.348,6.348,0,0,1-1.77-4.4Zm3.949.246a4.718,4.718,0,0,0,.551,2.578,1.835,1.835,0,0,0,1.629.82q2.109,0,2.156-3.246v-.4q0-3.41-2.18-3.41-1.98,0-2.145,2.941Zm14.625-9.621v3.152h2.086v2.742H56.156v5.8a1.481,1.481,0,0,0,.258,1,1.383,1.383,0,0,0,1.02.281,5.793,5.793,0,0,0,.984-.07V-.105a7.288,7.288,0,0,1-2.227.34A4.137,4.137,0,0,1,53.18-.727a3.939,3.939,0,0,1-.973-2.918V-9.937H50.59V-12.68h1.617v-3.152ZM65.93.234a6.518,6.518,0,0,1-4.723-1.74,6.009,6.009,0,0,1-1.8-4.529v-.328A7.787,7.787,0,0,1,60.123-9.8a5.274,5.274,0,0,1,2.1-2.3,6.35,6.35,0,0,1,3.281-.814,5.489,5.489,0,0,1,4.219,1.658,6.516,6.516,0,0,1,1.547,4.623V-5.1H63.422a2.846,2.846,0,0,0,.926,1.676,2.755,2.755,0,0,0,1.852.609,3.549,3.549,0,0,0,2.93-1.312l1.8,2.133A5.045,5.045,0,0,1,68.842-.369,7.069,7.069,0,0,1,65.93.234Zm-.445-10.1q-1.734,0-2.062,2.3h3.984v-.3a1.956,1.956,0,0,0-.48-1.471A1.912,1.912,0,0,0,65.484-9.867Zm11-2.812.129,1.488a4.3,4.3,0,0,1,3.621-1.723A3.618,3.618,0,0,1,83.2-11.73a5.635,5.635,0,0,1,1.014,3.563V0H80.25V-8a2.14,2.14,0,0,0-.387-1.412,1.789,1.789,0,0,0-1.406-.451,1.883,1.883,0,0,0-1.723.914V0H72.785V-12.68ZM93.949-1.371A4.072,4.072,0,0,1,90.563.234,3.993,3.993,0,0,1,87.4-.979a5.1,5.1,0,0,1-1.072-3.486V-12.68h3.949v8.238a1.419,1.419,0,0,0,1.582,1.629A2.064,2.064,0,0,0,93.8-3.785V-12.68H97.77V0h-3.7ZM106.57-3.562a.912.912,0,0,0-.527-.809,8.021,8.021,0,0,0-2-.633,9.138,9.138,0,0,1-2.437-.861,4.083,4.083,0,0,1-1.465-1.295,3.092,3.092,0,0,1-.5-1.746,3.5,3.5,0,0,1,1.441-2.877,5.938,5.938,0,0,1,3.773-1.131,6.579,6.579,0,0,1,4.031,1.137A3.555,3.555,0,0,1,110.4-8.789h-3.961q0-1.523-1.605-1.523a1.591,1.591,0,0,0-1.043.346,1.07,1.07,0,0,0-.422.861.982.982,0,0,0,.516.855,4.872,4.872,0,0,0,1.646.539,14.228,14.228,0,0,1,1.986.5q2.859.984,2.859,3.527a3.321,3.321,0,0,1-1.541,2.824,6.758,6.758,0,0,1-3.99,1.09,6.9,6.9,0,0,1-2.906-.586,4.86,4.86,0,0,1-1.992-1.594,3.609,3.609,0,0,1-.715-2.121h3.691a1.526,1.526,0,0,0,.586,1.283,2.41,2.41,0,0,0,1.441.4,1.9,1.9,0,0,0,1.213-.328A1.05,1.05,0,0,0,106.57-3.562ZM119.367,0a4.459,4.459,0,0,1-.375-1.137A3.672,3.672,0,0,1,115.945.234,4.5,4.5,0,0,1,112.9-.85a3.45,3.45,0,0,1-1.254-2.725,3.546,3.546,0,0,1,1.523-3.117,7.761,7.761,0,0,1,4.43-1.055h1.219v-.671q0-1.755-1.512-1.755a1.236,1.236,0,0,0-1.406,1.39h-3.949a3.54,3.54,0,0,1,1.564-2.985,6.575,6.575,0,0,1,3.99-1.147,5.764,5.764,0,0,1,3.832,1.184,4.115,4.115,0,0,1,1.441,3.246v5.613A5.748,5.748,0,0,0,123.316-.2V0Zm-2.473-2.578a2.2,2.2,0,0,0,1.225-.316,1.983,1.983,0,0,0,.7-.715V-5.637h-1.148q-2.062,0-2.062,1.852a1.131,1.131,0,0,0,.363.873A1.315,1.315,0,0,0,116.895-2.578Z" transform="translate(778.094 4978.35) rotate(34)" fill="#12263f" stroke="rgba(0,0,0,0)" stroke-width="1"/>
    <path id="Trazado_642174" data-name="Trazado 642174" d="M-4522-6482.667h68.667V-6424" transform="translate(5037 11640)" fill="none" stroke="#2d4587" stroke-width="3"/>
  </g>
</svg>
