<svg xmlns="http://www.w3.org/2000/svg" width="505" height="64" viewBox="0 0 505 64">
  <g id="img19" transform="translate(-600 -1480)">
    <rect id="Rectángulo_379122" data-name="Rectángulo 379122" width="505" height="64" rx="12" transform="translate(600 1480)" fill="#c7e3d7"/>
    <g id="Grupo_1074331" data-name="Grupo 1074331" transform="translate(57 -365)">
      <path id="Trazado_643675" data-name="Trazado 643675" d="M-18.633-2.383q.125-.625-.867-.906l-.711-.18q-2.523-.7-2.453-2.453a2.428,2.428,0,0,1,1.059-1.949,3.942,3.942,0,0,1,2.457-.738,3.536,3.536,0,0,1,2.313.758,2.5,2.5,0,0,1,.9,1.977l-2.187-.008a.963.963,0,0,0-1.078-1.1,1.551,1.551,0,0,0-.895.258,1.061,1.061,0,0,0-.465.7q-.117.625.945.883l.313.07a6.285,6.285,0,0,1,1.648.59,2.488,2.488,0,0,1,.879.824,2.04,2.04,0,0,1,.285,1.18,2.251,2.251,0,0,1-.52,1.406,3.18,3.18,0,0,1-1.359.93,4.736,4.736,0,0,1-1.816.3,3.568,3.568,0,0,1-2.344-.809A2.607,2.607,0,0,1-23.484-2.7l2.078.016a1.142,1.142,0,0,0,1.3,1.227,1.845,1.845,0,0,0,1-.25A.987.987,0,0,0-18.633-2.383ZM-13.148,0h-2.219L-13.9-8.453h2.219Zm-.492-10.6a1.1,1.1,0,0,1,.344-.867,1.209,1.209,0,0,1,.867-.344,1.215,1.215,0,0,1,.867.3,1.1,1.1,0,0,1,.383.828,1.132,1.132,0,0,1-.324.844,1.215,1.215,0,0,1-.887.375,1.235,1.235,0,0,1-.863-.3A1.091,1.091,0,0,1-13.641-10.6ZM-7.8-8.461l-.187,1A3.042,3.042,0,0,1-5.523-8.609a2.028,2.028,0,0,1,1.766.875,3.526,3.526,0,0,1,.414,2.359L-4.234,0h-2.2l.906-5.4a2.528,2.528,0,0,0,.016-.555.9.9,0,0,0-1-.82,1.9,1.9,0,0,0-1.555.8L-9.125,0h-2.2l1.469-8.453ZM5.336.156A2.861,2.861,0,0,1,3.07-.859a4.27,4.27,0,0,1-.836-2.734A8.6,8.6,0,0,1,2.3-4.75l.336-2.242a6.464,6.464,0,0,1,1.516-3.387A3.632,3.632,0,0,1,7-11.531a2.849,2.849,0,0,1,2.262,1.016A4.258,4.258,0,0,1,10.094-7.8a8.512,8.512,0,0,1-.062,1.156L9.758-4.812A8.483,8.483,0,0,1,8.895-2.02,4.205,4.205,0,0,1,7.383-.355,3.767,3.767,0,0,1,5.336.156ZM7.625-4.859H4.57l-.086.429a6.356,6.356,0,0,0-.109,1.1Q4.336-1.719,5.453-1.664q1.461.094,1.969-2.245l.109-.522ZM4.7-6.586H7.8l.063-.39a8.768,8.768,0,0,0,.1-1.091q0-1.59-1.086-1.644Q5.687-9.766,5.117-8.285A10.277,10.277,0,0,0,4.7-6.586Zm17.9.758H15.813l.328-1.844H22.93Zm-.586,3.383H15.227l.328-1.844h6.789Z" transform="translate(701 1884)" fill="#12263f"/>
      <text id="_" data-name="= " transform="translate(883 1883)" fill="#12263f" font-size="16" font-family="Roboto-BoldItalic, Roboto" font-weight="700" font-style="italic"><tspan x="-6.453" y="0">= </tspan></text>
      <path id="Trazado_643677" data-name="Trazado 643677" d="M-51.187-3.8a4.254,4.254,0,0,1-.8,2.09,4.375,4.375,0,0,1-1.75,1.4A5.329,5.329,0,0,1-56.07.156a3.936,3.936,0,0,1-1.961-.52A3.443,3.443,0,0,1-59.348-1.8a5.312,5.312,0,0,1-.543-2.168,10.634,10.634,0,0,1,.2-2.391A7.578,7.578,0,0,1-58.785-8.9a5.666,5.666,0,0,1,1.551-1.758,4.679,4.679,0,0,1,2.891-.875,3.839,3.839,0,0,1,2.8,1.09A4.384,4.384,0,0,1-50.406-7.5l-2.281-.008a2.391,2.391,0,0,0-.43-1.578,1.752,1.752,0,0,0-1.336-.531,2.319,2.319,0,0,0-1.926.836,5.027,5.027,0,0,0-1.012,2.555,14.155,14.155,0,0,0-.219,2.445,2.434,2.434,0,0,0,.461,1.52,1.543,1.543,0,0,0,1.18.512,2.356,2.356,0,0,0,1.676-.5,2.625,2.625,0,0,0,.832-1.535ZM-45.477,0a2.281,2.281,0,0,1-.086-.766,2.863,2.863,0,0,1-2.156.922,2.594,2.594,0,0,1-1.84-.723,2.186,2.186,0,0,1-.684-1.746,2.527,2.527,0,0,1,1.16-2.121,5.266,5.266,0,0,1,2.965-.738l1.031.016.109-.508a1.764,1.764,0,0,0,.023-.492.846.846,0,0,0-.277-.574.955.955,0,0,0-.629-.215,1.345,1.345,0,0,0-.875.254,1.231,1.231,0,0,0-.461.777l-2.211.008a2.457,2.457,0,0,1,1.113-1.965,4.312,4.312,0,0,1,2.613-.738,3.117,3.117,0,0,1,2.25.855,2.5,2.5,0,0,1,.68,2.121L-43.4-1.586l-.039.5a2.412,2.412,0,0,0,.133.938L-43.312,0Zm-1.7-1.555a2.017,2.017,0,0,0,1.664-.828l.273-1.461L-46-3.852a2.139,2.139,0,0,0-1.758.742A1.292,1.292,0,0,0-48-2.477a.75.75,0,0,0,.176.668A.891.891,0,0,0-47.172-1.555Zm9.672-8.977-.367,2.078h1.406L-36.75-6.8h-1.406l-.719,4.234a1.077,1.077,0,0,0,.063.609q.109.211.531.227.125.008.672-.039l-.156,1.727a3.706,3.706,0,0,1-1.266.18,1.985,1.985,0,0,1-1.617-.68,2.456,2.456,0,0,1-.437-1.8l.727-4.461h-1.2l.289-1.656h1.2l.359-2.078ZM-32.633.156A3.677,3.677,0,0,1-34.6-.387a3.292,3.292,0,0,1-1.277-1.469A4.093,4.093,0,0,1-36.2-3.914l.023-.312a5.465,5.465,0,0,1,.719-2.266,4.341,4.341,0,0,1,1.547-1.59,3.827,3.827,0,0,1,2.094-.527,2.924,2.924,0,0,1,2.473,1.2,4.117,4.117,0,0,1,.637,2.962l-.125.962h-5.18a1.814,1.814,0,0,0,.4,1.313,1.521,1.521,0,0,0,1.172.508A2.7,2.7,0,0,0-30.336-2.6l1.008,1.25A3.135,3.135,0,0,1-30.7-.23,4.5,4.5,0,0,1-32.633.156Zm.7-6.945a1.565,1.565,0,0,0-1.082.383,3.363,3.363,0,0,0-.848,1.383h3.031l.047-.2a2.071,2.071,0,0,0,.008-.594,1.134,1.134,0,0,0-.383-.707A1.2,1.2,0,0,0-31.93-6.789Zm8.219-3.742-.367,2.078h1.406L-22.961-6.8h-1.406l-.719,4.234a1.077,1.077,0,0,0,.063.609q.109.211.531.227.125.008.672-.039l-.156,1.727a3.706,3.706,0,0,1-1.266.18,1.985,1.985,0,0,1-1.617-.68,2.456,2.456,0,0,1-.437-1.8L-26.57-6.8h-1.2l.289-1.656h1.2l.359-2.078Zm5.453,1.922a3.39,3.39,0,0,1,1.926.574A3.234,3.234,0,0,1-15.145-6.5a4.762,4.762,0,0,1,.27,2.176,5.143,5.143,0,0,1-1.4,3.262A3.96,3.96,0,0,1-19.3.156,3.38,3.38,0,0,1-21.2-.41a3.222,3.222,0,0,1-1.187-1.527,4.657,4.657,0,0,1-.273-2.156,5.3,5.3,0,0,1,1.422-3.328A3.878,3.878,0,0,1-18.258-8.609Zm-2.227,5.315a1.95,1.95,0,0,0,.352,1.182,1.168,1.168,0,0,0,.945.449A1.712,1.712,0,0,0-17.594-2.6a4.647,4.647,0,0,0,.539-2.531,2.122,2.122,0,0,0-.363-1.2,1.149,1.149,0,0,0-.949-.464,1.715,1.715,0,0,0-1.574.924A4.6,4.6,0,0,0-20.484-3.294ZM-6.937-7.516A2.946,2.946,0,0,1-4.648-8.609a2.143,2.143,0,0,1,1.848.9,3.548,3.548,0,0,1,.441,2.379L-3.25,0h-2.2l.9-5.358a2.6,2.6,0,0,0,.016-.563.885.885,0,0,0-.984-.868,1.9,1.9,0,0,0-1.562.766L-8.148,0h-2.2l2.078-12h2.211ZM3.3-8.609a3.39,3.39,0,0,1,1.926.574A3.234,3.234,0,0,1,6.418-6.5a4.762,4.762,0,0,1,.27,2.176,5.143,5.143,0,0,1-1.4,3.262A3.96,3.96,0,0,1,2.266.156,3.38,3.38,0,0,1,.359-.41,3.222,3.222,0,0,1-.828-1.937,4.657,4.657,0,0,1-1.1-4.094,5.3,5.3,0,0,1,.32-7.422,3.878,3.878,0,0,1,3.3-8.609ZM1.078-3.294A1.95,1.95,0,0,0,1.43-2.113a1.168,1.168,0,0,0,.945.449A1.712,1.712,0,0,0,3.969-2.6a4.647,4.647,0,0,0,.539-2.531,2.122,2.122,0,0,0-.363-1.2A1.149,1.149,0,0,0,3.2-6.789a1.715,1.715,0,0,0-1.574.924A4.6,4.6,0,0,0,1.078-3.294ZM13.109-6.336a4.548,4.548,0,0,0-.742-.078,2.136,2.136,0,0,0-1.867.883L9.523,0H7.32L8.789-8.453l2.07-.008-.2,1.031a2.325,2.325,0,0,1,1.969-1.2,3.214,3.214,0,0,1,.766.109ZM15.391,0H13.172l1.469-8.453h2.219ZM14.9-10.6a1.1,1.1,0,0,1,.344-.867,1.209,1.209,0,0,1,.867-.344,1.215,1.215,0,0,1,.867.3,1.1,1.1,0,0,1,.383.828,1.132,1.132,0,0,1-.324.844,1.215,1.215,0,0,1-.887.375,1.235,1.235,0,0,1-.863-.3A1.091,1.091,0,0,1,14.9-10.6Zm5.234,8.766,3.984.016L23.8,0h-6.82l.258-1.492,4.711-5.117-3.711-.016.32-1.828h6.586l-.25,1.445Zm9.813-6.773a3.39,3.39,0,0,1,1.926.574A3.234,3.234,0,0,1,33.059-6.5a4.762,4.762,0,0,1,.27,2.176,5.143,5.143,0,0,1-1.4,3.262A3.96,3.96,0,0,1,28.906.156,3.38,3.38,0,0,1,27-.41a3.222,3.222,0,0,1-1.187-1.527,4.657,4.657,0,0,1-.273-2.156,5.3,5.3,0,0,1,1.422-3.328A3.878,3.878,0,0,1,29.945-8.609ZM27.719-3.294a1.95,1.95,0,0,0,.352,1.182,1.168,1.168,0,0,0,.945.449A1.712,1.712,0,0,0,30.609-2.6a4.647,4.647,0,0,0,.539-2.531,2.122,2.122,0,0,0-.363-1.2,1.149,1.149,0,0,0-.949-.464,1.715,1.715,0,0,0-1.574.924A4.6,4.6,0,0,0,27.719-3.294Zm9.727-5.167-.187,1a3.042,3.042,0,0,1,2.461-1.148,2.028,2.028,0,0,1,1.766.875A3.526,3.526,0,0,1,41.9-5.375L41.008,0H38.8l.906-5.4a2.528,2.528,0,0,0,.016-.555.9.9,0,0,0-1-.82,1.9,1.9,0,0,0-1.555.8L36.117,0h-2.2l1.469-8.453Zm9.758-2.07-.367,2.078h1.406L47.953-6.8H46.547l-.719,4.234a1.077,1.077,0,0,0,.063.609q.109.211.531.227.125.008.672-.039L46.938-.039a3.706,3.706,0,0,1-1.266.18,1.985,1.985,0,0,1-1.617-.68,2.456,2.456,0,0,1-.437-1.8L44.344-6.8h-1.2l.289-1.656h1.2l.359-2.078ZM52.945,0a2.281,2.281,0,0,1-.086-.766A2.863,2.863,0,0,1,50.7.156a2.594,2.594,0,0,1-1.84-.723,2.186,2.186,0,0,1-.684-1.746,2.527,2.527,0,0,1,1.16-2.121A5.266,5.266,0,0,1,52.3-5.172l1.031.016.109-.508a1.764,1.764,0,0,0,.023-.492.846.846,0,0,0-.277-.574.955.955,0,0,0-.629-.215,1.345,1.345,0,0,0-.875.254,1.231,1.231,0,0,0-.461.777l-2.211.008a2.457,2.457,0,0,1,1.113-1.965,4.312,4.312,0,0,1,2.613-.738,3.117,3.117,0,0,1,2.25.855,2.5,2.5,0,0,1,.68,2.121l-.648,4.047-.039.5a2.412,2.412,0,0,0,.133.938L55.109,0Zm-1.7-1.555a2.017,2.017,0,0,0,1.664-.828l.273-1.461-.766-.008a2.139,2.139,0,0,0-1.758.742,1.292,1.292,0,0,0-.242.633.75.75,0,0,0,.176.668A.891.891,0,0,0,51.25-1.555ZM58.781,0H56.563l2.086-12h2.211Z" transform="translate(806 1896)" fill="#12263f"/>
      <path id="Trazado_643678" data-name="Trazado 643678" d="M.715,0A2.281,2.281,0,0,1,.629-.766,2.863,2.863,0,0,1-1.527.156a2.594,2.594,0,0,1-1.84-.723,2.186,2.186,0,0,1-.684-1.746,2.527,2.527,0,0,1,1.16-2.121A5.266,5.266,0,0,1,.074-5.172l1.031.016.109-.508a1.764,1.764,0,0,0,.023-.492A.846.846,0,0,0,.961-6.73a.955.955,0,0,0-.629-.215,1.345,1.345,0,0,0-.875.254A1.231,1.231,0,0,0-1-5.914l-2.211.008A2.457,2.457,0,0,1-2.1-7.871,4.312,4.312,0,0,1,.512-8.609a3.117,3.117,0,0,1,2.25.855,2.5,2.5,0,0,1,.68,2.121L2.793-1.586l-.039.5a2.412,2.412,0,0,0,.133.938L2.879,0ZM-.98-1.555A2.017,2.017,0,0,0,.684-2.383L.957-3.844.191-3.852a2.139,2.139,0,0,0-1.758.742,1.292,1.292,0,0,0-.242.633.75.75,0,0,0,.176.668A.891.891,0,0,0-.98-1.555Z" transform="translate(902 1874)" fill="#12263f"/>
      <path id="Trazado_643676" data-name="Trazado 643676" d="M-42.117-3.8a4.254,4.254,0,0,1-.8,2.09,4.375,4.375,0,0,1-1.75,1.4A5.329,5.329,0,0,1-47,.156a3.936,3.936,0,0,1-1.961-.52A3.443,3.443,0,0,1-50.277-1.8a5.312,5.312,0,0,1-.543-2.168,10.634,10.634,0,0,1,.2-2.391A7.578,7.578,0,0,1-49.715-8.9a5.666,5.666,0,0,1,1.551-1.758,4.679,4.679,0,0,1,2.891-.875,3.839,3.839,0,0,1,2.8,1.09A4.384,4.384,0,0,1-41.336-7.5l-2.281-.008a2.391,2.391,0,0,0-.43-1.578,1.752,1.752,0,0,0-1.336-.531,2.319,2.319,0,0,0-1.926.836A5.027,5.027,0,0,0-48.32-6.227a14.155,14.155,0,0,0-.219,2.445,2.434,2.434,0,0,0,.461,1.52,1.543,1.543,0,0,0,1.18.512,2.356,2.356,0,0,0,1.676-.5,2.625,2.625,0,0,0,.832-1.535ZM-36.406,0a2.281,2.281,0,0,1-.086-.766,2.863,2.863,0,0,1-2.156.922,2.594,2.594,0,0,1-1.84-.723,2.186,2.186,0,0,1-.684-1.746,2.527,2.527,0,0,1,1.16-2.121,5.266,5.266,0,0,1,2.965-.738l1.031.016.109-.508a1.764,1.764,0,0,0,.023-.492.846.846,0,0,0-.277-.574.955.955,0,0,0-.629-.215,1.345,1.345,0,0,0-.875.254,1.231,1.231,0,0,0-.461.777l-2.211.008a2.457,2.457,0,0,1,1.113-1.965,4.312,4.312,0,0,1,2.613-.738,3.117,3.117,0,0,1,2.25.855,2.5,2.5,0,0,1,.68,2.121l-.648,4.047-.039.5a2.412,2.412,0,0,0,.133.938L-34.242,0Zm-1.7-1.555a2.017,2.017,0,0,0,1.664-.828l.273-1.461-.766-.008a2.139,2.139,0,0,0-1.758.742,1.292,1.292,0,0,0-.242.633.75.75,0,0,0,.176.668A.891.891,0,0,0-38.1-1.555Zm9.672-8.977L-28.8-8.453h1.406L-27.68-6.8h-1.406L-29.8-2.562a1.077,1.077,0,0,0,.063.609q.109.211.531.227.125.008.672-.039L-28.7-.039a3.706,3.706,0,0,1-1.266.18,1.985,1.985,0,0,1-1.617-.68,2.456,2.456,0,0,1-.437-1.8l.727-4.461h-1.2l.289-1.656H-31l.359-2.078ZM-23.562.156a3.677,3.677,0,0,1-1.965-.543A3.292,3.292,0,0,1-26.8-1.855a4.093,4.093,0,0,1-.328-2.059l.023-.312a5.465,5.465,0,0,1,.719-2.266,4.341,4.341,0,0,1,1.547-1.59,3.827,3.827,0,0,1,2.094-.527,2.924,2.924,0,0,1,2.473,1.2,4.117,4.117,0,0,1,.637,2.962l-.125.962h-5.18a1.814,1.814,0,0,0,.4,1.313,1.521,1.521,0,0,0,1.172.508A2.7,2.7,0,0,0-21.266-2.6l1.008,1.25A3.135,3.135,0,0,1-21.633-.23,4.5,4.5,0,0,1-23.562.156Zm.7-6.945a1.565,1.565,0,0,0-1.082.383,3.363,3.363,0,0,0-.848,1.383h3.031l.047-.2A2.071,2.071,0,0,0-21.7-5.82a1.134,1.134,0,0,0-.383-.707A1.2,1.2,0,0,0-22.859-6.789Zm8.219-3.742-.367,2.078H-13.6L-13.891-6.8H-15.3l-.719,4.234a1.077,1.077,0,0,0,.063.609q.109.211.531.227.125.008.672-.039l-.156,1.727a3.706,3.706,0,0,1-1.266.18,1.985,1.985,0,0,1-1.617-.68,2.456,2.456,0,0,1-.437-1.8L-17.5-6.8h-1.2l.289-1.656h1.2l.359-2.078Zm5.453,1.922a3.39,3.39,0,0,1,1.926.574A3.234,3.234,0,0,1-6.074-6.5,4.762,4.762,0,0,1-5.8-4.32a5.143,5.143,0,0,1-1.4,3.262A3.96,3.96,0,0,1-10.227.156,3.38,3.38,0,0,1-12.133-.41,3.222,3.222,0,0,1-13.32-1.937a4.657,4.657,0,0,1-.273-2.156,5.3,5.3,0,0,1,1.422-3.328A3.878,3.878,0,0,1-9.187-8.609Zm-2.227,5.315a1.95,1.95,0,0,0,.352,1.182,1.168,1.168,0,0,0,.945.449A1.712,1.712,0,0,0-8.523-2.6a4.647,4.647,0,0,0,.539-2.531,2.122,2.122,0,0,0-.363-1.2A1.149,1.149,0,0,0-9.3-6.789a1.715,1.715,0,0,0-1.574.924A4.6,4.6,0,0,0-11.414-3.294Zm13.742.505L4.734-8.453H7.109L3.023,0H.914L-.531-8.453H1.7ZM10.711.156A3.677,3.677,0,0,1,8.746-.387,3.292,3.292,0,0,1,7.469-1.855a4.093,4.093,0,0,1-.328-2.059l.023-.312a5.465,5.465,0,0,1,.719-2.266A4.341,4.341,0,0,1,9.43-8.082a3.827,3.827,0,0,1,2.094-.527A2.924,2.924,0,0,1,14-7.408a4.117,4.117,0,0,1,.637,2.962l-.125.962H9.328a1.814,1.814,0,0,0,.4,1.313,1.521,1.521,0,0,0,1.172.508A2.7,2.7,0,0,0,13.008-2.6l1.008,1.25A3.135,3.135,0,0,1,12.641-.23,4.5,4.5,0,0,1,10.711.156Zm.7-6.945a1.565,1.565,0,0,0-1.082.383,3.363,3.363,0,0,0-.848,1.383h3.031l.047-.2a2.071,2.071,0,0,0,.008-.594,1.134,1.134,0,0,0-.383-.707A1.2,1.2,0,0,0,11.414-6.789Zm9.539.453a4.548,4.548,0,0,0-.742-.078,2.136,2.136,0,0,0-1.867.883L17.367,0h-2.2l1.469-8.453,2.07-.008L18.5-7.43a2.325,2.325,0,0,1,1.969-1.2,3.214,3.214,0,0,1,.766.109Zm4.813-4.2L25.4-8.453H26.8L26.516-6.8H25.109l-.719,4.234a1.077,1.077,0,0,0,.063.609q.109.211.531.227.125.008.672-.039L25.5-.039a3.706,3.706,0,0,1-1.266.18,1.985,1.985,0,0,1-1.617-.68,2.456,2.456,0,0,1-.437-1.8L22.906-6.8h-1.2L22-8.453h1.2l.359-2.078ZM28.945,0H26.727L28.2-8.453h2.219Zm-.492-10.6a1.1,1.1,0,0,1,.344-.867,1.209,1.209,0,0,1,.867-.344,1.215,1.215,0,0,1,.867.3,1.1,1.1,0,0,1,.383.828,1.132,1.132,0,0,1-.324.844,1.215,1.215,0,0,1-.887.375,1.235,1.235,0,0,1-.863-.3A1.091,1.091,0,0,1,28.453-10.6Zm6.063,8.945a1.447,1.447,0,0,0,1.016-.332,1.632,1.632,0,0,0,.531-.926l2.07-.008a3.037,3.037,0,0,1-.559,1.6A3.394,3.394,0,0,1,36.23-.211a3.847,3.847,0,0,1-1.77.375A3.123,3.123,0,0,1,32.023-.9a3.965,3.965,0,0,1-.867-2.766l.023-.43.008-.086a5.284,5.284,0,0,1,1.391-3.27,3.761,3.761,0,0,1,2.914-1.16,3.047,3.047,0,0,1,2.27.934A3.3,3.3,0,0,1,38.586-5.3H36.531a1.73,1.73,0,0,0-.3-1.07,1.128,1.128,0,0,0-.891-.422q-1.578-.047-1.914,2.3a7.782,7.782,0,0,0-.086,1.438Q33.422-1.68,34.516-1.656ZM43.875,0a2.281,2.281,0,0,1-.086-.766,2.863,2.863,0,0,1-2.156.922,2.594,2.594,0,0,1-1.84-.723,2.186,2.186,0,0,1-.684-1.746,2.527,2.527,0,0,1,1.16-2.121,5.266,5.266,0,0,1,2.965-.738l1.031.016.109-.508a1.764,1.764,0,0,0,.023-.492.846.846,0,0,0-.277-.574.955.955,0,0,0-.629-.215,1.345,1.345,0,0,0-.875.254,1.231,1.231,0,0,0-.461.777l-2.211.008a2.457,2.457,0,0,1,1.113-1.965,4.312,4.312,0,0,1,2.613-.738,3.117,3.117,0,0,1,2.25.855,2.5,2.5,0,0,1,.68,2.121l-.648,4.047-.039.5a2.412,2.412,0,0,0,.133.938L46.039,0Zm-1.7-1.555a2.017,2.017,0,0,0,1.664-.828l.273-1.461-.766-.008a2.139,2.139,0,0,0-1.758.742,1.292,1.292,0,0,0-.242.633.75.75,0,0,0,.176.668A.891.891,0,0,0,42.18-1.555ZM49.711,0H47.492l2.086-12h2.211Z" transform="translate(804 1873)" fill="#12263f"/>
      <text id="b" transform="translate(902 1894)" fill="#12263f" font-size="16" font-family="Roboto-BoldItalic, Roboto" font-weight="700" font-style="italic"><tspan x="-4.406" y="0">b</tspan></text>
      <path id="Trazado_615772" data-name="Trazado 615772" d="M3459.333-9822.5h139" transform="translate(-2724.333 11700.5)" fill="none" stroke="#707070" stroke-width="1"/>
      <path id="Trazado_642177" data-name="Trazado 642177" d="M3459.333-9822.5h24" transform="translate(-2568.333 11700.5)" fill="none" stroke="#707070" stroke-width="1"/>
    </g>
  </g>
</svg>
