<svg xmlns="http://www.w3.org/2000/svg" xmlns:xlink="http://www.w3.org/1999/xlink" width="121.668" height="125" viewBox="0 0 121.668 125">
  <defs>
    <clipPath id="clip-path">
      <rect id="Rectángulo_379578" data-name="Rectángulo 379578" width="73" height="71.67" fill="none"/>
    </clipPath>
  </defs>
  <g id="img12" transform="translate(6530.502 9124)">
    <g id="Grupo_1074738" data-name="Grupo 1074738" transform="translate(-6919.17 -15121)">
      <g id="Grupo_1072788" data-name="Grupo 1072788" transform="translate(13.999 114.601)">
        <g id="Grupo_1072785" data-name="Grupo 1072785" transform="translate(386.668 5997)">
          <path id="Trazado_608385" data-name="Trazado 608385" d="M48.909,0C75.921,0,97.818,2.328,97.818,5.2s-21.9,5.2-48.909,5.2S0,8.071,0,5.2,21.9,0,48.909,0Z" transform="translate(0 0)" fill="none"/>
        </g>
        <g id="Grupo_1073383" data-name="Grupo 1073383" transform="translate(386.668 5997)">
          <path id="Trazado_608385-2" data-name="Trazado 608385" d="M48.909,0C75.921,0,97.818,2.328,97.818,5.2s-21.9,5.2-48.909,5.2S0,8.071,0,5.2,21.9,0,48.909,0Z" transform="translate(0 0)" fill="#11462e"/>
        </g>
      </g>
      <g id="Grupo_1073526" data-name="Grupo 1073526" transform="translate(2)">
        <g id="Grupo_1072785-2" data-name="Grupo 1072785" transform="translate(386.668 5997)">
          <path id="Trazado_608385-3" data-name="Trazado 608385" d="M60.834,0A60.834,60.834,0,1,1,0,60.834,60.834,60.834,0,0,1,60.834,0Z" transform="translate(0 0)" fill="none"/>
        </g>
        <g id="Grupo_1073383-2" data-name="Grupo 1073383" transform="translate(386.668 5997)">
          <path id="Trazado_608385-4" data-name="Trazado 608385" d="M60.834,0A60.834,60.834,0,1,1,0,60.834,60.834,60.834,0,0,1,60.834,0Z" transform="translate(0 0)" fill="#fff"/>
        </g>
      </g>
    </g>
    <g id="Grupo_1074755" data-name="Grupo 1074755" transform="translate(4)">
      <rect id="Rectángulo_379570" data-name="Rectángulo 379570" width="73" height="73" transform="translate(-6510.502 -9098)" fill="#fff"/>
      <g id="Grupo_1074754" data-name="Grupo 1074754" transform="translate(-6510.502 -9098)">
        <g id="Grupo_1074753" data-name="Grupo 1074753" transform="translate(0 0)" clip-path="url(#clip-path)">
          <path id="Trazado_642029" data-name="Trazado 642029" d="M54.363,55.238H5.095A4.558,4.558,0,0,1,.5,50.719V5.019A4.557,4.557,0,0,1,5.095.5H54.363a4.557,4.557,0,0,1,4.595,4.519v45.7a4.557,4.557,0,0,1-4.595,4.519" transform="translate(-0.122 -0.128)" fill="#f4f6f8"/>
          <rect id="Rectángulo_379577" data-name="Rectángulo 379577" width="58.458" height="54.738" rx="6.074" transform="translate(0.378 0.372)" fill="none" stroke="#e4e8eb" stroke-miterlimit="10" stroke-width="1"/>
          <path id="Trazado_642030" data-name="Trazado 642030" d="M58.961,5.018v45.7a4.56,4.56,0,0,1-4.6,4.523H5.092A4.558,4.558,0,0,1,.5,50.716v-.379H21.681c17.838,0,32.286-14.216,32.286-31.75V.5h.393a4.558,4.558,0,0,1,4.6,4.516" transform="translate(-0.122 -0.129)" fill="#e4e8eb"/>
          <path id="Trazado_642031" data-name="Trazado 642031" d="M58.961,5.018v45.7a4.56,4.56,0,0,1-4.6,4.523H5.092A4.558,4.558,0,0,1,.5,50.716v-.379H21.681c17.838,0,32.286-14.216,32.286-31.75V.5h.393A4.558,4.558,0,0,1,58.961,5.018Z" transform="translate(-0.122 -0.129)" fill="none" stroke="#e4e8eb" stroke-miterlimit="10" stroke-width="1"/>
          <path id="Trazado_642032" data-name="Trazado 642032" d="M22.113,57.636H13.951V49.609a8.1,8.1,0,0,1,8.162,8.027" transform="translate(-3.397 -12.705)" fill="#6fd9fb"/>
          <path id="Trazado_642033" data-name="Trazado 642033" d="M89.031,82.731v9a.9.9,0,0,1-.909.894H66.739a.9.9,0,0,1-.909-.894v-9a.9.9,0,0,1,.909-.894H88.122a.9.9,0,0,1,.909.894" transform="translate(-16.031 -20.958)" fill="#196442"/>
          <path id="Trazado_642034" data-name="Trazado 642034" d="M89.031,82.732v9a.9.9,0,0,1-.908.893H66.738a.9.9,0,0,1-.908-.893V89.9H76.2a10.025,10.025,0,0,0,9.887-8.071h2.035a.9.9,0,0,1,.908.9" transform="translate(-16.031 -20.957)" fill="#11462e"/>
          <path id="Trazado_642035" data-name="Trazado 642035" d="M63.43,63.848H74.287V34.121L82.4,41.36a13.489,13.489,0,0,1,4.051,9.618V69.617H67.4V67.108a8.33,8.33,0,0,1-3.967-3.229Z" transform="translate(-15.447 -8.738)" fill="#f4d0b5"/>
          <path id="Trazado_642036" data-name="Trazado 642036" d="M89.952,50.979V69.614H86.774V51.723A13.491,13.491,0,0,0,82.72,42.1l-4.94-4.4V34.122L85.9,41.36a13.491,13.491,0,0,1,4.055,9.619" transform="translate(-18.941 -8.739)" fill="#efc7a4"/>
          <path id="Trazado_642037" data-name="Trazado 642037" d="M74.593,69.1,73.2,67.374a13.6,13.6,0,0,1-3.024-8.537V57.351l-5.489-5.524a3.052,3.052,0,0,1,.078-4.393,3.178,3.178,0,0,1,4.379.04l8.9,8.667" transform="translate(-15.534 -11.929)" fill="#f4d0b5"/>
          <path id="Trazado_642038" data-name="Trazado 642038" d="M74.354,68.869c-.748-.794-1.514-1.55-2.21-2.415a13.013,13.013,0,0,1-1.7-2.845,13.224,13.224,0,0,1-.949-3.2,14.888,14.888,0,0,1-.167-1.672c-.025-.548-.037-1.078-.046-1.618l.186.449q-2.7-2.591-5.345-5.242a5.336,5.336,0,0,1-.71-.818,4.013,4.013,0,0,1-.472-1.049,3.79,3.79,0,0,1,3.6-4.786,3.848,3.848,0,0,1,2.172.607,4.6,4.6,0,0,1,.818.7l.648.675c.862.9,1.737,1.791,2.585,2.707,1.713,1.814,3.4,3.658,5.031,5.552-1.941-1.588-3.831-3.227-5.692-4.895-.94-.826-1.852-1.678-2.777-2.517a11.879,11.879,0,0,0-1.314-1.127,2.486,2.486,0,0,0-3.594,1.3,2.364,2.364,0,0,0-.033,1.395,2.755,2.755,0,0,0,.3.638,3.836,3.836,0,0,0,.511.592q2.63,2.661,5.206,5.374l.022.023a.6.6,0,0,1,.164.426l-.041,1.607A13.7,13.7,0,0,0,70.6,60.27a14.29,14.29,0,0,0,.638,3.044,14.108,14.108,0,0,0,1.316,2.867c.549.9,1.21,1.782,1.8,2.688" transform="translate(-15.295 -11.696)" fill="#efc7a4"/>
          <path id="Trazado_642039" data-name="Trazado 642039" d="M49.343,48.823H13.708a.75.75,0,0,1-.756-.744V13.036a.757.757,0,0,1,1.513,0v34.3H49.343a.744.744,0,1,1,0,1.488" transform="translate(-3.154 -3.148)" fill="#434a54"/>
          <path id="Trazado_642040" data-name="Trazado 642040" d="M49.343,48.823H13.708a.75.75,0,0,1-.756-.744V13.036a.757.757,0,0,1,1.513,0v34.3H49.343a.744.744,0,1,1,0,1.488" transform="translate(-3.154 -3.148)" fill="#434a54"/>
          <path id="Trazado_642041" data-name="Trazado 642041" d="M16.162,13.78H8.921a.744.744,0,1,1,0-1.488h7.241a.744.744,0,1,1,0,1.488" transform="translate(-1.988 -3.148)" fill="#434a54"/>
          <path id="Trazado_642042" data-name="Trazado 642042" d="M60.814,63.222a.75.75,0,0,1-.756-.744v-7.12a.757.757,0,0,1,1.513,0v7.12a.75.75,0,0,1-.756.744" transform="translate(-14.626 -13.986)" fill="#434a54"/>
          <path id="Trazado_642043" data-name="Trazado 642043" d="M28.47,29.081a4.977,4.977,0,0,0-2.342.53,3.833,3.833,0,0,0-1.554,1.458,3.97,3.97,0,0,0-.541,2.038,4.445,4.445,0,0,0,.522,2.187,3.7,3.7,0,0,0,1.457,1.46,4.382,4.382,0,0,0,2.148.514,5.065,5.065,0,0,0,2.235-.443,4.47,4.47,0,0,0,1.055-.707,6.176,6.176,0,0,1-.8,2.376,2.717,2.717,0,0,1-2.571,1.244,5.257,5.257,0,0,1-2.22-.479,1.03,1.03,0,0,0-.359-.062.85.85,0,0,0-.647.272.87.87,0,0,0-.247.609.856.856,0,0,0,.13.451.891.891,0,0,0,.334.324,7.658,7.658,0,0,0,1.393.536A6.448,6.448,0,0,0,28.2,41.6a4.6,4.6,0,0,0,3.011-.965,5.382,5.382,0,0,0,1.665-2.39,8.733,8.733,0,0,0,.5-2.919c0-4.141-1.648-6.241-4.9-6.241M27.142,31.2a2.731,2.731,0,0,1,1.31-.306c1.679,0,2.645.946,2.951,2.892a3.229,3.229,0,0,1-3.054,1.708,2.332,2.332,0,0,1-1.771-.634,2.414,2.414,0,0,1-.6-1.717A2.165,2.165,0,0,1,27.142,31.2" transform="translate(-5.853 -7.448)" fill="#2d4587"/>
          <path id="Trazado_642044" data-name="Trazado 642044" d="M43.864,29.081A4.218,4.218,0,0,0,40.245,30.8a7.58,7.58,0,0,0-1.231,4.539,7.584,7.584,0,0,0,1.231,4.54,4.662,4.662,0,0,0,7.229,0,7.545,7.545,0,0,0,1.24-4.541,7.541,7.541,0,0,0-1.24-4.54,4.222,4.222,0,0,0-3.61-1.718m0,10.723a2.375,2.375,0,0,1-2.136-1.149,6.1,6.1,0,0,1-.77-3.316,6.063,6.063,0,0,1,.77-3.3,2.561,2.561,0,0,1,4.273,0,6.059,6.059,0,0,1,.77,3.3A6.1,6.1,0,0,1,46,38.655,2.375,2.375,0,0,1,43.864,39.8" transform="translate(-9.501 -7.448)" fill="#2d4587"/>
          <path id="Trazado_642045" data-name="Trazado 642045" d="M59.52,20.35a2.8,2.8,0,0,0-1.105-1.129,3.573,3.573,0,0,0-3.27,0,2.751,2.751,0,0,0-1.1,1.13,3.733,3.733,0,0,0,0,3.293,2.733,2.733,0,0,0,1.1,1.129,3.568,3.568,0,0,0,3.27,0,2.778,2.778,0,0,0,1.105-1.128,3.687,3.687,0,0,0,0-3.3M57.6,23.669a1.833,1.833,0,0,1-1.64,0,1.535,1.535,0,0,1-.627-.6,2.1,2.1,0,0,1-.249-1.078,2.076,2.076,0,0,1,.249-1.067,1.489,1.489,0,0,1,.626-.6,1.883,1.883,0,0,1,.828-.19,1.858,1.858,0,0,1,.815.19,1.515,1.515,0,0,1,.632.6,2.027,2.027,0,0,1,.254,1.065,2.061,2.061,0,0,1-.253,1.077,1.564,1.564,0,0,1-.634.6" transform="translate(-13.068 -4.821)" fill="#2d4587"/>
          <path id="Trazado_642046" data-name="Trazado 642046" d="M70.736,38.668a.75.75,0,0,1-.756-.744V36.849a.757.757,0,0,1,1.513,0v1.075a.75.75,0,0,1-.756.744" transform="translate(-17.042 -9.246)" fill="#434a54"/>
          <path id="Trazado_642047" data-name="Trazado 642047" d="M70.736,27.505a.75.75,0,0,1-.756-.744V9.077a.757.757,0,0,1,1.513,0V26.761a.75.75,0,0,1-.756.744" transform="translate(-17.042 -2.134)" fill="#434a54"/>
        </g>
      </g>
    </g>
  </g>
</svg>
