<svg xmlns="http://www.w3.org/2000/svg" width="295" height="36" viewBox="0 0 295 36">
  <g id="img18" transform="translate(-724.592 -1408.676)">
    <g id="Grupo_1075341" data-name="Grupo 1075341">
      <g id="Rectángulo_379122" data-name="Rectángulo 379122" transform="translate(724.592 1408.676)" fill="#fff" stroke="#707070" stroke-width="1">
        <rect width="295" height="36" rx="7" stroke="none"/>
        <rect x="0.5" y="0.5" width="294" height="35" rx="6.5" fill="none"/>
      </g>
      <g id="Grupo_1074331" data-name="Grupo 1074331" transform="translate(823.592 1416.676)">
        <path id="Trazado_643743" data-name="Trazado 643743" d="M-105.94,2.109h-1.344l2.109-13.484h1.344Zm5.313-3.945,3.984.016L-96.964,0h-6.82l.258-1.492,4.711-5.117-3.711-.016.32-1.828h6.586l-.25,1.445Zm6.664,3.945h-1.344L-93.2-11.375h1.344ZM-79.6-5.828h-6.789l.328-1.844h6.789Zm-.586,3.383h-6.789l.328-1.844h6.789Zm20.617-4.242,1.055.008a2.055,2.055,0,0,0,1.348-.445,1.737,1.737,0,0,0,.629-1.2,1.261,1.261,0,0,0-.242-1.012,1.23,1.23,0,0,0-.961-.395,1.642,1.642,0,0,0-1.1.348,1.494,1.494,0,0,0-.559.941l-2.2.016a2.952,2.952,0,0,1,1.184-2.254,4.165,4.165,0,0,1,2.707-.863,3.716,3.716,0,0,1,2.547.9,2.739,2.739,0,0,1,.852,2.3A3.078,3.078,0,0,1-56.378-5.8a2.381,2.381,0,0,1,1.121,1.043,2.826,2.826,0,0,1,.309,1.5,3.267,3.267,0,0,1-.633,1.813,3.7,3.7,0,0,1-1.547,1.2,4.962,4.962,0,0,1-2.094.395,3.557,3.557,0,0,1-2.484-.91,3.03,3.03,0,0,1-.945-2.363h2.188a1.412,1.412,0,0,0,.355,1.035,1.385,1.385,0,0,0,1.035.418A1.933,1.933,0,0,0-57.761-2.1a1.761,1.761,0,0,0,.641-1.179,1.428,1.428,0,0,0-.277-1.2,1.553,1.553,0,0,0-1.152-.439l-1.3-.008ZM-49.453-5h-4.42l.15-.957,2.356-2.21a5.219,5.219,0,0,0,.962-1.1,1.292,1.292,0,0,0,.178-.829.619.619,0,0,0-.652-.579.932.932,0,0,0-.731.305,1.431,1.431,0,0,0-.358.825l-1.285,0a2.253,2.253,0,0,1,.369-1.126A2.264,2.264,0,0,1-52-11.455a2.57,2.57,0,0,1,1.2-.276,2.039,2.039,0,0,1,1.44.52,1.608,1.608,0,0,1,.456,1.335,3.235,3.235,0,0,1-1.107,1.96l-.656.624-1.358,1.221,2.743.009Zm8.68-1.367h2.734L-38.4-4.328h-2.727l-.555,3.188h-2.1l.555-3.187h-2.75l.359-2.039h2.742l.531-3.055h2.1Zm14.1,2.086h1.25l-.32,1.82h-1.25L-27.422,0h-2.2l.43-2.461h-4.516L-33.555-4l5.8-7.375h2.3ZM-31.266-4.3l2.391.016.773-4.047-.2.281ZM-20.434-5h-4.42l.15-.957,2.356-2.21a5.219,5.219,0,0,0,.962-1.1,1.292,1.292,0,0,0,.178-.829.619.619,0,0,0-.652-.579.932.932,0,0,0-.731.305,1.431,1.431,0,0,0-.358.825l-1.285,0a2.253,2.253,0,0,1,.369-1.126,2.264,2.264,0,0,1,.886-.786,2.57,2.57,0,0,1,1.2-.276,2.039,2.039,0,0,1,1.44.52,1.608,1.608,0,0,1,.456,1.335A3.235,3.235,0,0,1-21-7.917l-.656.624-1.358,1.221,2.743.009ZM-9.31-5.828H-16.1l.328-1.844h6.789ZM-9.9-2.445h-6.789l.328-1.844h6.789ZM13.386-4.555a2.919,2.919,0,0,1-2.055.875,2.618,2.618,0,0,1-1.594-.5,2.88,2.88,0,0,1-.973-1.371,4.375,4.375,0,0,1-.223-1.9,4.716,4.716,0,0,1,.8-2.273,4.133,4.133,0,0,1,1.789-1.5,3.737,3.737,0,0,1,1.594-.3,2.925,2.925,0,0,1,2.242.984,4.19,4.19,0,0,1,.945,2.555,7.062,7.062,0,0,1-.023,1.1l-.086.672a7.587,7.587,0,0,1-2.121,4.656A6.149,6.149,0,0,1,9.222.117H9.058l.172-1.891h.117a4.212,4.212,0,0,0,2.531-.668A4.236,4.236,0,0,0,13.386-4.555ZM11.94-5.4A1.956,1.956,0,0,0,13.6-6.358l.133-.944a6.308,6.308,0,0,0,.039-.741,2.247,2.247,0,0,0-.312-1.2,1,1,0,0,0-.859-.468,1.432,1.432,0,0,0-1.012.4,2.536,2.536,0,0,0-.68,1.119,3.519,3.519,0,0,0-.168,1.411,1.741,1.741,0,0,0,.371,1A1.059,1.059,0,0,0,11.94-5.4Zm10.031-.969h2.734l-.359,2.039H21.62l-.555,3.188h-2.1l.555-3.187h-2.75l.359-2.039H19.87L20.4-9.422h2.1ZM30.222,0h-2.2l1.5-8.656-2.766.836L27.1-9.75l4.75-1.641.289-.008ZM41.683-11.5l-.172,1.867-.43.008a4.28,4.28,0,0,0-3.867,2.953A3.049,3.049,0,0,1,39.5-7.6a2.518,2.518,0,0,1,1.559.516A2.868,2.868,0,0,1,42-5.719,4.677,4.677,0,0,1,42.206-3.8a4.54,4.54,0,0,1-.668,2.043,4.039,4.039,0,0,1-1.5,1.438,3.915,3.915,0,0,1-2.008.488,3.276,3.276,0,0,1-1.918-.629A3.391,3.391,0,0,1,34.94-2.1,5.156,5.156,0,0,1,34.7-4.367l.086-.7a7.646,7.646,0,0,1,2.152-4.684A6.109,6.109,0,0,1,41.386-11.5Zm-2.93,5.7a1.734,1.734,0,0,0-1.023.282,2.541,2.541,0,0,0-.75.759l-.1.7a5.964,5.964,0,0,0-.031.767,2.062,2.062,0,0,0,.336,1.182,1.069,1.069,0,0,0,.906.454,1.5,1.5,0,0,0,1.055-.376,2.33,2.33,0,0,0,.7-1.072A3.145,3.145,0,0,0,40-4.474a1.68,1.68,0,0,0-.395-.967A1.117,1.117,0,0,0,38.753-5.8Zm16.125-.023H48.089l.328-1.844h6.789Zm-.586,3.383H47.5l.328-1.844H54.62ZM75.253,0H67.675l.258-1.641L71.972-5.43A8.947,8.947,0,0,0,73.62-7.32a2.214,2.214,0,0,0,.3-1.422,1.061,1.061,0,0,0-1.117-.992,1.6,1.6,0,0,0-1.254.523A2.453,2.453,0,0,0,70.94-7.8l-2.2.008a3.863,3.863,0,0,1,.633-1.93,3.882,3.882,0,0,1,1.52-1.348,4.405,4.405,0,0,1,2.051-.473,3.5,3.5,0,0,1,2.469.891,2.756,2.756,0,0,1,.781,2.289A5.546,5.546,0,0,1,74.292-5L73.167-3.93,70.839-1.836l4.7.016Zm2.6-5.625,1.531-5.75H85.6l-.3,1.883H80.94l-.75,2.461a3.016,3.016,0,0,1,1.641-.437,2.693,2.693,0,0,1,2.262,1.035,3.855,3.855,0,0,1,.676,2.73,4.423,4.423,0,0,1-.66,2.023A3.852,3.852,0,0,1,82.62-.3a4.108,4.108,0,0,1-2.031.461,3.613,3.613,0,0,1-1.746-.441,3.12,3.12,0,0,1-1.223-1.2,3.409,3.409,0,0,1-.445-1.7h2.164a1.7,1.7,0,0,0,.383,1.09,1.259,1.259,0,0,0,.953.41,1.545,1.545,0,0,0,1.285-.57,2.845,2.845,0,0,0,.605-1.594,2.02,2.02,0,0,0-.27-1.406,1.3,1.3,0,0,0-1.105-.531,2.195,2.195,0,0,0-1.531.609Zm19.734-.2H90.8l.328-1.844h6.789ZM97-2.445H90.214l.328-1.844h6.789Zm6.688-3.18,1.531-5.75h6.219l-.3,1.883h-4.367l-.75,2.461a3.016,3.016,0,0,1,1.641-.437,2.693,2.693,0,0,1,2.262,1.035A3.855,3.855,0,0,1,110.6-3.7a4.423,4.423,0,0,1-.66,2.023A3.852,3.852,0,0,1,108.456-.3a4.108,4.108,0,0,1-2.031.461,3.613,3.613,0,0,1-1.746-.441,3.12,3.12,0,0,1-1.223-1.2,3.409,3.409,0,0,1-.445-1.7h2.164a1.7,1.7,0,0,0,.383,1.09,1.259,1.259,0,0,0,.953.41,1.545,1.545,0,0,0,1.285-.57,2.845,2.845,0,0,0,.605-1.594,2.02,2.02,0,0,0-.27-1.406,1.3,1.3,0,0,0-1.105-.531,2.195,2.195,0,0,0-1.531.609Z" transform="translate(46 17)" fill="#12263f" stroke="rgba(0,0,0,0)" stroke-width="1"/>
        <path id="Trazado_642779" data-name="Trazado 642779" d="M11.841,0,6.369,16.694,4.037,10.312H0v1.973h2.37l3.14,8.048H7.317L13.336,2.487h35.4V0Z" transform="translate(42.261 -1)" fill="#12263f"/>
        <path id="Trazado_642781" data-name="Trazado 642781" d="M11.841,0,6.369,16.694,4.037,10.312H0v1.973h2.37l3.14,8.048H7.317L13.336,2.487h20.4V0Z" transform="translate(103 -1)" fill="#12263f"/>
        <path id="Trazado_642780" data-name="Trazado 642780" d="M11.841,0,6.369,16.694,4.037,10.312H0v1.973h2.37l3.14,8.048H7.317L13.336,2.487h42.4V0Z" transform="translate(-29.739 -1)" fill="#12263f"/>
      </g>
    </g>
  </g>
</svg>
