<svg xmlns="http://www.w3.org/2000/svg" xmlns:xlink="http://www.w3.org/1999/xlink" width="400" height="270.769" viewBox="0 0 400 270.769">
  <defs>
    <clipPath id="clip-path">
      <rect id="Rectángulo_379834" data-name="Rectángulo 379834" width="372" height="252" transform="translate(614 4877)" fill="#fff" stroke="#707070" stroke-width="1"/>
    </clipPath>
    <clipPath id="clip-path-2">
      <rect id="Rectángulo_379785" data-name="Rectángulo 379785" width="315.053" height="242.649" fill="none"/>
    </clipPath>
    <clipPath id="clip-path-4">
      <rect id="Rectángulo_379739" data-name="Rectángulo 379739" width="0.81" height="0.821" fill="none"/>
    </clipPath>
    <clipPath id="clip-path-7">
      <rect id="Rectángulo_379743" data-name="Rectángulo 379743" width="72.778" height="5.493" fill="none"/>
    </clipPath>
    <clipPath id="clip-path-9">
      <rect id="Rectángulo_379751" data-name="Rectángulo 379751" width="21.605" height="1.808" fill="none"/>
    </clipPath>
    <clipPath id="clip-path-10">
      <rect id="Rectángulo_379752" data-name="Rectángulo 379752" width="21.605" height="23.411" fill="none"/>
    </clipPath>
    <clipPath id="clip-path-11">
      <rect id="Rectángulo_379753" data-name="Rectángulo 379753" width="21.605" height="20.836" fill="none"/>
    </clipPath>
    <clipPath id="clip-path-15">
      <rect id="Rectángulo_379766" data-name="Rectángulo 379766" width="27.199" height="33.204" fill="none"/>
    </clipPath>
    <clipPath id="clip-path-16">
      <rect id="Rectángulo_379767" data-name="Rectángulo 379767" width="17.708" height="16.207" fill="none"/>
    </clipPath>
    <clipPath id="clip-path-17">
      <rect id="Rectángulo_379772" data-name="Rectángulo 379772" width="27.198" height="33.204" fill="none"/>
    </clipPath>
    <clipPath id="clip-path-18">
      <rect id="Rectángulo_379773" data-name="Rectángulo 379773" width="17.707" height="16.207" fill="none"/>
    </clipPath>
    <clipPath id="clip-path-19">
      <rect id="Rectángulo_379780" data-name="Rectángulo 379780" width="10.99" height="15.3" fill="none"/>
    </clipPath>
    <clipPath id="clip-path-20">
      <rect id="Rectángulo_379781" data-name="Rectángulo 379781" width="10.99" height="11.552" fill="none"/>
    </clipPath>
    <clipPath id="clip-path-21">
      <rect id="Rectángulo_379783" data-name="Rectángulo 379783" width="100.591" height="103.912" fill="none"/>
    </clipPath>
  </defs>
  <g id="img13" transform="translate(-600 -4801)">
    <g id="Grupo_1074973" data-name="Grupo 1074973" transform="translate(0.001 3051.466)">
      <g id="Image_Place_Holder" data-name="Image Place Holder" transform="translate(599.999 1749.534)">
        <rect id="Image_Place_Holder-2" data-name="Image Place Holder" width="400" height="270.769" rx="10" fill="#96b8a9"/>
      </g>
    </g>
    <g id="Enmascarar_grupo_1074812" data-name="Enmascarar grupo 1074812" transform="translate(0 -67)" clip-path="url(#clip-path)">
      <g id="Grupo_1075084" data-name="Grupo 1075084" transform="translate(642 4882)">
        <g id="Grupo_1075083" data-name="Grupo 1075083" clip-path="url(#clip-path-2)">
          <g id="Grupo_1075034" data-name="Grupo 1075034">
            <g id="Grupo_1075033" data-name="Grupo 1075033" clip-path="url(#clip-path-2)">
              <path id="Trazado_642614" data-name="Trazado 642614" d="M239.386,67.331a14.682,14.682,0,0,1,2.9-3.9,9.468,9.468,0,0,1,5.464-2.3c2.219-.177,4.677.6,5.4,1.972.318-3.092.994-6.263,3.38-8.946a15.242,15.242,0,0,1,11.6-4.6,14.643,14.643,0,0,1,10.483,4.915c2.138,2.57,2.873,5.519,3.575,8.4,1.7-1.355,5.3-.93,7.081.386s2.228,3.154,2.607,4.886h-53.64Z" transform="translate(17.239 3.584)" fill="#ebebeb"/>
              <path id="Trazado_642615" data-name="Trazado 642615" d="M206.932,44.966a11.7,11.7,0,0,1,2.371-3.109,7.837,7.837,0,0,1,4.462-1.835c1.812-.14,3.82.478,4.411,1.57a11.8,11.8,0,0,1,2.76-7.123,12.619,12.619,0,0,1,9.479-3.664,12.079,12.079,0,0,1,8.563,3.913,15.321,15.321,0,0,1,2.92,6.69c1.392-1.079,4.33-.74,5.783.307a5.847,5.847,0,0,1,2.13,3.891H206Z" transform="translate(14.906 2.228)" fill="#ebebeb"/>
              <path id="Trazado_642616" data-name="Trazado 642616" d="M155.438,50.055a2.006,2.006,0,0,1-.453,1.226,4.784,4.784,0,0,0-.614,1.683s-.209,2.278-.241,3.013.021,1.4.587,1.216.7-.64.682-1.984l.275-.735.36.513.257,2.133s-1.323,1.536-1.186,1.928.409.3.409.3l.257.2,2.081-1.8.558-2.905-.5-3.907-.314-2.539-2.625.82Z" transform="translate(11.152 3.502)" fill="#ffc09d"/>
              <path id="Trazado_642617" data-name="Trazado 642617" d="M151.417,22.879s1.255-.182,2.5,1.989c1.556,2.7,2.391,12.95,2.391,12.95l1.853,14.967-2.6-.249s-3-10.846-3.7-12.4-1.284-10.976-1.284-10.976Z" transform="translate(10.895 1.655)" fill="#ffc09d"/>
              <path id="Trazado_642618" data-name="Trazado 642618" d="M129.661,50.188a2,2,0,0,0,.453,1.225,4.784,4.784,0,0,1,.614,1.683s.209,2.278.241,3.013-.021,1.4-.587,1.216-.7-.64-.682-1.984l-.275-.735-.36.513-.257,2.133s1.323,1.536,1.186,1.928-.409.3-.409.3l-.257.2-2.081-1.8-.558-2.905.5-3.907.314-2.539,2.625.821Z" transform="translate(9.167 3.512)" fill="#ffc09d"/>
              <path id="Trazado_642619" data-name="Trazado 642619" d="M133.9,23.011s-1.255-.182-2.5,1.989c-1.556,2.7-2.391,12.95-2.391,12.95l-1.853,14.967,2.6-.249s3-10.846,3.7-12.4S134.741,29.3,134.741,29.3Z" transform="translate(9.201 1.665)" fill="#ffc09d"/>
              <path id="Trazado_642620" data-name="Trazado 642620" d="M135.708,89.719l.221,5.809s-5.83,2.176-5.895,3.254l11.28-.024.027-9.066Z" transform="translate(9.409 6.49)" fill="#263238"/>
              <path id="Trazado_642621" data-name="Trazado 642621" d="M138.819,94.672a.46.46,0,0,1,.32.525.443.443,0,0,1-.518.321.487.487,0,0,1-.336-.558.461.461,0,0,1,.576-.275" transform="translate(10.005 6.849)" fill="#e0e0e0"/>
              <path id="Trazado_642622" data-name="Trazado 642622" d="M141.313,98.208l-.033-.914-10.8.365s-.5.219-.444.573Z" transform="translate(9.409 7.04)" fill="#455a64"/>
              <path id="Trazado_642623" data-name="Trazado 642623" d="M135.36,95.084c0,.055.278.079.549.256s.416.407.466.386-.032-.341-.365-.548-.663-.145-.651-.094" transform="translate(9.794 6.876)" fill="#fff"/>
              <path id="Trazado_642624" data-name="Trazado 642624" d="M134.258,95.541c-.013.054.226.147.414.38s.242.478.3.476.089-.314-.15-.6-.56-.309-.561-.256" transform="translate(9.714 6.911)" fill="#fff"/>
              <path id="Trazado_642625" data-name="Trazado 642625" d="M133.664,96.925c.05.012.127-.264-.016-.565s-.4-.42-.423-.375.136.207.249.457.135.478.19.484" transform="translate(9.64 6.944)" fill="#fff"/>
              <path id="Trazado_642626" data-name="Trazado 642626" d="M135.45,93.854c.024.05.276-.027.588-.005s.553.118.582.071-.2-.243-.573-.263-.624.154-.6.2" transform="translate(9.801 6.777)" fill="#fff"/>
              <path id="Trazado_642627" data-name="Trazado 642627" d="M147.508,89.75l.611,7.007L147,102.438a.721.721,0,0,0,1.236.628c1-1.1,4.683-5.146,4.61-5.657-.086-.591-.154-7.435-.154-7.435Z" transform="translate(10.636 6.494)" fill="#263238"/>
              <path id="Trazado_642628" data-name="Trazado 642628" d="M147.578,102.808l5.2-6.356.019.3a1.085,1.085,0,0,1-.211.718c-.413.552-1.584,2.052-4.366,5.113a.721.721,0,0,1-.641.227" transform="translate(10.678 6.979)" fill="#455a64"/>
              <g id="Grupo_1075032" data-name="Grupo 1075032" transform="translate(161.714 101.176)" opacity="0.6">
                <g id="Grupo_1075031" data-name="Grupo 1075031">
                  <g id="Grupo_1075030" data-name="Grupo 1075030" clip-path="url(#clip-path-4)">
                    <path id="Trazado_642629" data-name="Trazado 642629" d="M150.959,94.432a.436.436,0,0,0-.083.576.419.419,0,0,0,.57.087.46.46,0,0,0,.084-.61.434.434,0,0,0-.6-.025" transform="translate(-150.802 -94.349)" fill="#fff"/>
                  </g>
                </g>
              </g>
              <path id="Trazado_642630" data-name="Trazado 642630" d="M148.99,99.473a1.557,1.557,0,0,0-1.468-.609c-.008-.017.078-.077.24-.11a1.147,1.147,0,0,1,1.136.471c.091.139.109.242.092.249" transform="translate(10.674 7.144)" fill="#fff"/>
              <path id="Trazado_642631" data-name="Trazado 642631" d="M148.571,100.359a5.732,5.732,0,0,0-.641-.262,5.918,5.918,0,0,0-.691-.045.8.8,0,0,1,.725-.106c.421.094.642.391.607.413" transform="translate(10.654 7.23)" fill="#fff"/>
              <path id="Trazado_642632" data-name="Trazado 642632" d="M149.823,98.293a7.218,7.218,0,0,0-.962-.471,6.972,6.972,0,0,0-1.057-.176,1.971,1.971,0,0,1,2.019.647" transform="translate(10.695 7.06)" fill="#fff"/>
              <path id="Trazado_642633" data-name="Trazado 642633" d="M149.8,96.259c-.016.043-.414-.094-.92-.079s-.9.161-.916.118a1.792,1.792,0,0,1,1.836-.039" transform="translate(10.706 6.948)" fill="#fff"/>
              <path id="Trazado_642634" data-name="Trazado 642634" d="M149.687,94.339a2.294,2.294,0,0,0-1.871.184c-.012-.014.059-.106.214-.21a1.534,1.534,0,0,1,.686-.236,1.554,1.554,0,0,1,.718.1c.174.072.262.149.252.165" transform="translate(10.695 6.807)" fill="#fff"/>
              <path id="Trazado_642635" data-name="Trazado 642635" d="M148.737,93.949a.607.607,0,0,1-.027-.265,1.858,1.858,0,0,1,.166-.709.823.823,0,0,1,.326-.413.29.29,0,0,1,.33.043.477.477,0,0,1,.131.31,1.017,1.017,0,0,1-.83,1,1.182,1.182,0,0,1-1.2-.542.414.414,0,0,1-.042-.34.285.285,0,0,1,.287-.168,1,1,0,0,1,.478.21,2.065,2.065,0,0,1,.514.515.624.624,0,0,1,.123.236,3.263,3.263,0,0,0-.7-.659.947.947,0,0,0-.421-.174.153.153,0,0,0-.157.091.278.278,0,0,0,.041.222,1.054,1.054,0,0,0,1.043.458.885.885,0,0,0,.717-.836.35.35,0,0,0-.083-.221.157.157,0,0,0-.182-.026.739.739,0,0,0-.282.344,2.711,2.711,0,0,0-.238.927" transform="translate(10.678 6.695)" fill="#fff"/>
              <path id="Trazado_642636" data-name="Trazado 642636" d="M146.384,21.223l.16-13.072c.145-3.25-1.626-6.045-4.878-6.1l-.3.012a5.818,5.818,0,0,0-5.573,5.584c-.11,2.817-.2,5.932-.116,7.439a3.747,3.747,0,0,0,3.307,3.473c.008,0,.019,1.9.018,2.814l2.51,3.484v.187Z" transform="translate(9.815 0.148)" fill="#ffc09d"/>
              <path id="Trazado_642637" data-name="Trazado 642637" d="M138.758,17.537a7.54,7.54,0,0,0,4.012-1.368,3.877,3.877,0,0,1-4,2.233Z" transform="translate(10.04 1.17)" fill="#ff9b6c"/>
              <path id="Trazado_642638" data-name="Trazado 642638" d="M136.647,9.966a.446.446,0,0,0,.448.432.428.428,0,0,0,.443-.421.448.448,0,0,0-.448-.432.428.428,0,0,0-.443.421" transform="translate(9.887 0.691)" fill="#263238"/>
              <path id="Trazado_642639" data-name="Trazado 642639" d="M136.454,8.562c.058.056.385-.208.864-.226s.841.207.89.146c.025-.027-.036-.13-.194-.235a1.219,1.219,0,0,0-.715-.189,1.169,1.169,0,0,0-.685.253c-.143.119-.188.226-.16.251" transform="translate(9.873 0.583)" fill="#263238"/>
              <path id="Trazado_642640" data-name="Trazado 642640" d="M140.63,9.889a.446.446,0,0,0,.448.432.428.428,0,0,0,.443-.421.448.448,0,0,0-.448-.432.428.428,0,0,0-.443.421" transform="translate(10.176 0.685)" fill="#263238"/>
              <path id="Trazado_642641" data-name="Trazado 642641" d="M140.84,8.484c.058.056.385-.208.864-.226s.841.207.89.146c.025-.027-.035-.13-.194-.235a1.227,1.227,0,0,0-.715-.189,1.175,1.175,0,0,0-.685.253c-.142.119-.188.226-.16.251" transform="translate(10.19 0.577)" fill="#263238"/>
              <path id="Trazado_642642" data-name="Trazado 642642" d="M139.46,12.221a3.21,3.21,0,0,0-.784-.108c-.123-.008-.24-.027-.265-.109a.628.628,0,0,1,.068-.367l.323-.947a16.133,16.133,0,0,0,.713-2.472,16.042,16.042,0,0,0-.91,2.409c-.107.332-.21.649-.308.952a.709.709,0,0,0-.044.483.308.308,0,0,0,.209.171.794.794,0,0,0,.209.02,3.086,3.086,0,0,0,.789-.031" transform="translate(10.001 0.595)" fill="#263238"/>
              <path id="Trazado_642643" data-name="Trazado 642643" d="M140.637,7.1c.069.12.529-.028,1.095-.063s1.042.032,1.094-.1c.023-.061-.078-.167-.28-.258a1.914,1.914,0,0,0-1.669.122c-.188.119-.272.239-.24.3" transform="translate(10.176 0.473)" fill="#263238"/>
              <path id="Trazado_642644" data-name="Trazado 642644" d="M136.379,7.249c.1.106.49-.017.96-.034.469-.032.869.049.958-.066.039-.057-.027-.164-.2-.263a1.514,1.514,0,0,0-.785-.158,1.487,1.487,0,0,0-.759.239c-.163.117-.214.231-.169.282" transform="translate(9.867 0.487)" fill="#263238"/>
              <path id="Trazado_642645" data-name="Trazado 642645" d="M145.659,9.912c.053-.025,2.117-.723,2.137,1.413a1.606,1.606,0,0,1-2.133,1.654c0-.061,0-3.067,0-3.067" transform="translate(10.539 0.708)" fill="#ffc09d"/>
              <path id="Trazado_642646" data-name="Trazado 642646" d="M146.265,12.117c.01-.006.038.026.1.054a.368.368,0,0,0,.278,0,.919.919,0,0,0,.418-.83,1.208,1.208,0,0,0-.109-.531.428.428,0,0,0-.282-.283.188.188,0,0,0-.219.1c-.028.06-.014.1-.026.106s-.046-.035-.029-.124a.236.236,0,0,1,.083-.134.282.282,0,0,1,.2-.057.528.528,0,0,1,.392.328,1.266,1.266,0,0,1,.134.594.964.964,0,0,1-.534.927.4.4,0,0,1-.341-.053c-.066-.053-.078-.1-.071-.1" transform="translate(10.583 0.754)" fill="#ff9b6c"/>
              <path id="Trazado_642647" data-name="Trazado 642647" d="M140.879,12.228c-.074,0-.077.486-.5.832s-.944.29-.948.358c-.006.031.116.1.337.1a1.221,1.221,0,0,0,.79-.271,1.06,1.06,0,0,0,.386-.7c.02-.2-.034-.327-.068-.324" transform="translate(10.089 0.885)" fill="#263238"/>
              <path id="Trazado_642648" data-name="Trazado 642648" d="M131.763,4.985a.5.5,0,0,1,.235-.3,1.557,1.557,0,0,1,.8-.138,4.512,4.512,0,0,0,1.948-.514,2.2,2.2,0,0,1-.579-.4,1.341,1.341,0,0,1-.4-1.329.3.3,0,0,1,.165-.206c.138-.044.262.091.359.2a1.153,1.153,0,0,0,1.092.447,1.893,1.893,0,0,0,.809-.249c.01-.01.017-.02.027-.03.109-.117.217-.227.323-.335h0a7.054,7.054,0,0,1,2.187-1.66,7.247,7.247,0,0,1,3.87-.349,2.93,2.93,0,0,1,2.24,2.255,2.254,2.254,0,0,1,2.265-.238l.018-.009a2.832,2.832,0,0,1,1.563,1.995c.014.045.027.092.04.138a3.289,3.289,0,0,0,1.125,1.075c.08.045.173.1.183.193s-.065.167-.139.222a1.64,1.64,0,0,1-.666.285,3.784,3.784,0,0,0,.281.578c.1.158.208.345.129.51a.35.35,0,0,1-.364.163,1.04,1.04,0,0,1-.387-.169q.143.33.284.66a1.966,1.966,0,0,1-.9-.05c-.167.791-.282,2.253-.479,2.789a3.219,3.219,0,0,0-.99.055c-.368.127-.22.78-.7.6-.246-.092-.633-1.017-.717-1.264a12.194,12.194,0,0,1-.587-5.156,3.91,3.91,0,0,0-1.22-.859l.038.032a3.555,3.555,0,0,0-2.692-.161A5.762,5.762,0,0,0,139.432,5.3a4.472,4.472,0,0,1-3.28,1.643c-.111.945-.131,2.487-.166,3.366l-.772-1.752v.008a3.437,3.437,0,0,1-.163-.31l-.017-.031v0a5.3,5.3,0,0,0-.253-.5l-.008.008a.549.549,0,0,1-.812-.725,1.209,1.209,0,0,1,.263-.27.869.869,0,0,1-.826.224.681.681,0,0,1-.49-.669.579.579,0,0,1,.34-.47,1.956,1.956,0,0,1-1.117-.233c-.221-.123-.44-.327-.368-.6" transform="translate(9.533 0)" fill="#263238"/>
              <path id="Trazado_642649" data-name="Trazado 642649" d="M143.038,2.567a2.8,2.8,0,0,1,.316.283,2.246,2.246,0,0,1,.492,1.033,3.971,3.971,0,0,1,.089.792c0,.288-.015.6-.034.921a8.313,8.313,0,0,0-.012,1.025,3.663,3.663,0,0,0,.077.54,1.127,1.127,0,0,0,.226.522.473.473,0,0,0,.443.143.7.7,0,0,0,.395-.228,1.622,1.622,0,0,0,.292-.8l-.065.009a2.6,2.6,0,0,0,.387.65.936.936,0,0,0,.612.325.607.607,0,0,0,.322-.06.525.525,0,0,0,.217-.219.547.547,0,0,0,.063-.278.391.391,0,0,0-.1-.242l-.032.03a2.006,2.006,0,0,0,.677.5,1.84,1.84,0,0,0,.209.078.444.444,0,0,0,.075.018.417.417,0,0,0-.071-.03,2.187,2.187,0,0,1-.2-.088,2.078,2.078,0,0,1-.654-.5l-.033.03a.4.4,0,0,1,.027.464.467.467,0,0,1-.2.193.544.544,0,0,1-.292.05.873.873,0,0,1-.567-.308,2.587,2.587,0,0,1-.373-.637l-.046-.1-.02.109a1.561,1.561,0,0,1-.278.762.632.632,0,0,1-.353.2.4.4,0,0,1-.376-.121,1.058,1.058,0,0,1-.209-.488,3.63,3.63,0,0,1-.076-.529,8.418,8.418,0,0,1,.008-1.017c.016-.325.034-.635.027-.927a3.89,3.89,0,0,0-.1-.8,2.207,2.207,0,0,0-.521-1.04,1.276,1.276,0,0,0-.338-.264" transform="translate(10.35 0.186)" fill="#455a64"/>
              <path id="Trazado_642650" data-name="Trazado 642650" d="M134.054,5.835s.008.009.026.021l.078.056a1.133,1.133,0,0,0,.133.084,1.861,1.861,0,0,0,.192.1,2.779,2.779,0,0,0,1.34.225A3.539,3.539,0,0,0,137.7,5.6a6.124,6.124,0,0,0,1.6-1.886c.223-.381.4-.771.6-1.131a4.1,4.1,0,0,1,.687-.96,2.121,2.121,0,0,1,.894-.557,1.519,1.519,0,0,1,.474-.06,1.666,1.666,0,0,1,.435.078,1.811,1.811,0,0,1,1.014.839,2.078,2.078,0,0,1,.166.466.1.1,0,0,0,0-.033l-.016-.1a1.545,1.545,0,0,0-.123-.352,1.784,1.784,0,0,0-.355-.47,1.826,1.826,0,0,0-.668-.4,1.758,1.758,0,0,0-.449-.086,1.608,1.608,0,0,0-.493.058,2.195,2.195,0,0,0-.924.567,4.2,4.2,0,0,0-.7.973c-.2.364-.383.753-.6,1.13a6.13,6.13,0,0,1-1.575,1.868,3.515,3.515,0,0,1-1.842.721,2.822,2.822,0,0,1-1.325-.2,4.355,4.355,0,0,1-.44-.233" transform="translate(9.7 0.069)" fill="#455a64"/>
              <path id="Trazado_642651" data-name="Trazado 642651" d="M130.76,51.758l.007,0c.035-.78.107-1.657.194-2.3a24.618,24.618,0,0,0,2.439.582,23.127,23.127,0,0,0,5.765.2l.13-.011a61.272,61.272,0,0,0,12.122-2.711l.61,4.728,1.5,22.663,1.088,23.087-6.768,0s-2.384-17.758-2.569-20.217c-.206-2.736-3.438-19.714-3.438-19.714l-.586-.148.361,39.8h-7.008s-3.793-42.765-3.85-44.285c-.023-.576-.018-1.135,0-1.67" transform="translate(9.46 3.438)" fill="#263238"/>
              <path id="Trazado_642652" data-name="Trazado 642652" d="M131.482,48.18l.625-10.9.036-2.643-4.082-1.936,2.761-9.083a4.049,4.049,0,0,1,2.162-2.209c.057-.024.113-.045.166-.064l6.382-2.262c.335,1.037,2.006,1.74,3.465,1.821a5.034,5.034,0,0,0,4.12-2.253l.02.006a34.758,34.758,0,0,1,5.3,1.908,7.316,7.316,0,0,1,3,2.864c1.266,2.169,3.8,8.192,3.8,8.192l-6.964,2.337c-.053-.251-.128-.6-.21-.988l0,.014-.84,9.125.395,5.237a6.06,6.06,0,0,1,1.272,2.393v1.77a76.4,76.4,0,0,1-13.711,2.94l-.132.011a23.431,23.431,0,0,1-5.975-.22c-.059-.01-.117-.023-.176-.033a18.607,18.607,0,0,1-2.181-.539l-.088-.027a24.739,24.739,0,0,1,.543-4.43c.38-.949.309-1.036.309-1.036" transform="translate(9.266 1.35)" fill="#455a64"/>
              <path id="Trazado_642653" data-name="Trazado 642653" d="M131.512,24.835a2.374,2.374,0,0,1,.036.405c.02.287.046.658.077,1.1.065.932.16,2.221.236,3.647s.112,2.719.1,3.656c0,.469-.017.847-.036,1.109a2.294,2.294,0,0,1-.044.405,2.26,2.26,0,0,1-.013-.407c0-.261,0-.639-.01-1.106-.016-.934-.066-2.224-.144-3.649s-.154-2.714-.194-3.649c-.02-.468-.03-.846-.03-1.108a2.034,2.034,0,0,1,.019-.407" transform="translate(9.514 1.797)" fill="#263238"/>
              <path id="Trazado_642654" data-name="Trazado 642654" d="M151.343,25.07a1.866,1.866,0,0,1-.035.361c-.039.258-.086.586-.143.975-.122.824-.28,1.961-.424,3.224s-.24,2.406-.3,3.236c-.032.392-.058.722-.079.982a1.741,1.741,0,0,1-.044.36,1.727,1.727,0,0,1-.011-.364c0-.233.012-.569.032-.985.038-.833.12-1.982.264-3.247s.316-2.4.464-3.222c.074-.411.138-.741.189-.969a1.747,1.747,0,0,1,.091-.351" transform="translate(10.875 1.814)" fill="#263238"/>
            </g>
          </g>
          <g id="Grupo_1075036" data-name="Grupo 1075036">
            <g id="Grupo_1075035" data-name="Grupo 1075035" clip-path="url(#clip-path-2)">
              <path id="Trazado_642655" data-name="Trazado 642655" d="M0,226.035c0,.154,69.95.279,156.219.279,86.3,0,156.233-.124,156.233-.279s-69.935-.279-156.233-.279C69.95,225.756,0,225.88,0,226.035" transform="translate(0 16.335)" fill="#263238"/>
            </g>
          </g>
          <path id="Trazado_642656" data-name="Trazado 642656" d="M110.517,140.867v97.945H295.78V137.739L202.886,42.923Z" transform="translate(7.997 3.106)" fill="#fafafa"/>
          <g id="Grupo_1075041" data-name="Grupo 1075041">
            <g id="Grupo_1075040" data-name="Grupo 1075040" clip-path="url(#clip-path-2)">
              <g id="Grupo_1075039" data-name="Grupo 1075039" transform="translate(172.73 78.012)" opacity="0.3">
                <g id="Grupo_1075038" data-name="Grupo 1075038">
                  <g id="Grupo_1075037" data-name="Grupo 1075037" clip-path="url(#clip-path-7)">
                    <rect id="Rectángulo_379742" data-name="Rectángulo 379742" width="72.778" height="5.493"/>
                  </g>
                </g>
              </g>
            </g>
          </g>
          <rect id="Rectángulo_379745" data-name="Rectángulo 379745" width="68.531" height="5.09" transform="translate(176.802 74.972)" fill="#ff725e"/>
          <rect id="Rectángulo_379746" data-name="Rectángulo 379746" width="185.738" height="19.471" transform="translate(118.501 222.67)" fill="#ebebeb"/>
          <g id="Grupo_1075082" data-name="Grupo 1075082">
            <g id="Grupo_1075081" data-name="Grupo 1075081" clip-path="url(#clip-path-2)">
              <path id="Trazado_642657" data-name="Trazado 642657" d="M228.653,216.405h8.478a2.545,2.545,0,0,0,2.545-2.545v-.549a2.545,2.545,0,0,0-2.545-2.545h-8.478a2.544,2.544,0,0,0-2.545,2.545v.549a2.544,2.544,0,0,0,2.545,2.545" transform="translate(16.361 15.251)" fill="#e0e0e0"/>
              <path id="Trazado_642658" data-name="Trazado 642658" d="M214.2,216.405h8.478a2.545,2.545,0,0,0,2.545-2.545v-.549a2.545,2.545,0,0,0-2.545-2.545H214.2a2.545,2.545,0,0,0-2.545,2.545v.549a2.545,2.545,0,0,0,2.545,2.545" transform="translate(15.315 15.251)" fill="#e0e0e0"/>
              <path id="Trazado_642659" data-name="Trazado 642659" d="M199.74,216.405h8.478a2.545,2.545,0,0,0,2.545-2.545v-.549a2.545,2.545,0,0,0-2.545-2.545H199.74a2.545,2.545,0,0,0-2.545,2.545v.549a2.545,2.545,0,0,0,2.545,2.545" transform="translate(14.268 15.251)" fill="#e0e0e0"/>
              <path id="Trazado_642660" data-name="Trazado 642660" d="M185.283,216.405h8.478a2.545,2.545,0,0,0,2.545-2.545v-.549a2.545,2.545,0,0,0-2.545-2.545h-8.478a2.544,2.544,0,0,0-2.545,2.545v.549a2.544,2.544,0,0,0,2.545,2.545" transform="translate(13.222 15.251)" fill="#e0e0e0"/>
              <path id="Trazado_642661" data-name="Trazado 642661" d="M170.827,216.405H179.3a2.545,2.545,0,0,0,2.545-2.545v-.549a2.545,2.545,0,0,0-2.545-2.545h-8.478a2.544,2.544,0,0,0-2.545,2.545v.549a2.544,2.544,0,0,0,2.545,2.545" transform="translate(12.176 15.251)" fill="#e0e0e0"/>
              <path id="Trazado_642662" data-name="Trazado 642662" d="M156.37,216.405h8.478a2.545,2.545,0,0,0,2.545-2.545v-.549a2.545,2.545,0,0,0-2.545-2.545H156.37a2.545,2.545,0,0,0-2.545,2.545v.549a2.545,2.545,0,0,0,2.545,2.545" transform="translate(11.13 15.251)" fill="#e0e0e0"/>
              <path id="Trazado_642663" data-name="Trazado 642663" d="M141.914,216.405h8.478a2.545,2.545,0,0,0,2.545-2.545v-.549a2.545,2.545,0,0,0-2.545-2.545h-8.478a2.544,2.544,0,0,0-2.545,2.545v.549a2.544,2.544,0,0,0,2.545,2.545" transform="translate(10.084 15.251)" fill="#e0e0e0"/>
              <path id="Trazado_642664" data-name="Trazado 642664" d="M127.457,216.405h8.478a2.545,2.545,0,0,0,2.545-2.545v-.549a2.545,2.545,0,0,0-2.545-2.545h-8.478a2.545,2.545,0,0,0-2.545,2.545v.549a2.545,2.545,0,0,0,2.545,2.545" transform="translate(9.038 15.251)" fill="#e0e0e0"/>
              <path id="Trazado_642665" data-name="Trazado 642665" d="M113,216.405h8.478a2.545,2.545,0,0,0,2.545-2.545v-.549a2.545,2.545,0,0,0-2.545-2.545H113a2.545,2.545,0,0,0-2.545,2.545v.549A2.544,2.544,0,0,0,113,216.405" transform="translate(7.992 15.251)" fill="#e0e0e0"/>
              <path id="Trazado_642666" data-name="Trazado 642666" d="M243.11,216.405h8.478a2.545,2.545,0,0,0,2.545-2.545v-.549a2.545,2.545,0,0,0-2.545-2.545H243.11a2.545,2.545,0,0,0-2.545,2.545v.549a2.545,2.545,0,0,0,2.545,2.545" transform="translate(17.407 15.251)" fill="#e0e0e0"/>
              <path id="Trazado_642667" data-name="Trazado 642667" d="M233.842,223.345h8.928a2.545,2.545,0,0,0,2.545-2.545v-.549a2.545,2.545,0,0,0-2.545-2.545h-8.928a2.545,2.545,0,0,0-2.545,2.545v.549a2.545,2.545,0,0,0,2.545,2.545" transform="translate(16.736 15.753)" fill="#e0e0e0"/>
              <path id="Trazado_642668" data-name="Trazado 642668" d="M249.226,223.345h8.928A2.545,2.545,0,0,0,260.7,220.8v-.549a2.545,2.545,0,0,0-2.545-2.545h-8.928a2.544,2.544,0,0,0-2.545,2.545v.549a2.544,2.544,0,0,0,2.545,2.545" transform="translate(17.849 15.753)" fill="#e0e0e0"/>
              <path id="Trazado_642669" data-name="Trazado 642669" d="M257.611,216.405h8.478a2.545,2.545,0,0,0,2.545-2.545v-.549a2.545,2.545,0,0,0-2.545-2.545h-8.478a2.545,2.545,0,0,0-2.545,2.545v.549a2.545,2.545,0,0,0,2.545,2.545" transform="translate(18.456 15.251)" fill="#e0e0e0"/>
              <path id="Trazado_642670" data-name="Trazado 642670" d="M263.727,223.345h8.928A2.545,2.545,0,0,0,275.2,220.8v-.549a2.545,2.545,0,0,0-2.545-2.545h-8.928a2.544,2.544,0,0,0-2.545,2.545v.549a2.544,2.544,0,0,0,2.545,2.545" transform="translate(18.898 15.753)" fill="#e0e0e0"/>
              <path id="Trazado_642671" data-name="Trazado 642671" d="M272.113,216.405h8.478a2.545,2.545,0,0,0,2.545-2.545v-.549a2.545,2.545,0,0,0-2.545-2.545h-8.478a2.544,2.544,0,0,0-2.545,2.545v.549a2.544,2.544,0,0,0,2.545,2.545" transform="translate(19.505 15.251)" fill="#e0e0e0"/>
              <path id="Trazado_642672" data-name="Trazado 642672" d="M218.561,223.345h8.928a2.545,2.545,0,0,0,2.545-2.545v-.549a2.545,2.545,0,0,0-2.545-2.545h-8.928a2.545,2.545,0,0,0-2.545,2.545v.549a2.545,2.545,0,0,0,2.545,2.545" transform="translate(15.63 15.753)" fill="#e0e0e0"/>
              <path id="Trazado_642673" data-name="Trazado 642673" d="M203.871,223.345H212.8a2.545,2.545,0,0,0,2.545-2.545v-.549a2.545,2.545,0,0,0-2.545-2.545h-8.928a2.545,2.545,0,0,0-2.545,2.545v.549a2.545,2.545,0,0,0,2.545,2.545" transform="translate(14.567 15.753)" fill="#e0e0e0"/>
              <path id="Trazado_642674" data-name="Trazado 642674" d="M189.181,223.345h8.928a2.545,2.545,0,0,0,2.545-2.545v-.549a2.545,2.545,0,0,0-2.545-2.545h-8.928a2.545,2.545,0,0,0-2.545,2.545v.549a2.545,2.545,0,0,0,2.545,2.545" transform="translate(13.504 15.753)" fill="#e0e0e0"/>
              <path id="Trazado_642675" data-name="Trazado 642675" d="M174.49,223.345h8.928a2.545,2.545,0,0,0,2.545-2.545v-.549a2.545,2.545,0,0,0-2.545-2.545H174.49a2.545,2.545,0,0,0-2.545,2.545v.549a2.545,2.545,0,0,0,2.545,2.545" transform="translate(12.441 15.753)" fill="#e0e0e0"/>
              <path id="Trazado_642676" data-name="Trazado 642676" d="M159.8,223.345h8.928a2.545,2.545,0,0,0,2.545-2.545v-.549a2.545,2.545,0,0,0-2.545-2.545H159.8a2.545,2.545,0,0,0-2.545,2.545v.549a2.545,2.545,0,0,0,2.545,2.545" transform="translate(11.379 15.753)" fill="#e0e0e0"/>
              <path id="Trazado_642677" data-name="Trazado 642677" d="M145.11,223.345h8.928a2.545,2.545,0,0,0,2.545-2.545v-.549a2.545,2.545,0,0,0-2.545-2.545H145.11a2.545,2.545,0,0,0-2.545,2.545v.549a2.545,2.545,0,0,0,2.545,2.545" transform="translate(10.316 15.753)" fill="#e0e0e0"/>
              <path id="Trazado_642678" data-name="Trazado 642678" d="M130.419,223.345h8.928a2.545,2.545,0,0,0,2.545-2.545v-.549a2.545,2.545,0,0,0-2.545-2.545h-8.928a2.545,2.545,0,0,0-2.545,2.545v.549a2.544,2.544,0,0,0,2.545,2.545" transform="translate(9.253 15.753)" fill="#e0e0e0"/>
              <path id="Trazado_642679" data-name="Trazado 642679" d="M115.729,223.345h8.928A2.545,2.545,0,0,0,127.2,220.8v-.549a2.545,2.545,0,0,0-2.545-2.545h-8.928a2.544,2.544,0,0,0-2.545,2.545v.549a2.544,2.544,0,0,0,2.545,2.545" transform="translate(8.19 15.753)" fill="#e0e0e0"/>
              <path id="Trazado_642680" data-name="Trazado 642680" d="M206.157,30.441l102,112.319v5.052H296.878L203.985,43.9l-92.37,97.944v5.969H95.344v-6.83L202.9,29.442Z" transform="translate(6.899 2.13)" fill="#ff725e"/>
              <rect id="Rectángulo_379747" data-name="Rectángulo 379747" width="29.002" height="58.07" transform="translate(218.41 101.05)" fill="#e0e0e0"/>
              <rect id="Rectángulo_379748" data-name="Rectángulo 379748" width="25.65" height="53.688" transform="translate(219.858 102.986)" fill="#263238"/>
              <rect id="Rectángulo_379749" data-name="Rectángulo 379749" width="21.605" height="49.007" transform="translate(221.88 105.326)" fill="#455a64"/>
              <g id="Grupo_1075044" data-name="Grupo 1075044" transform="translate(221.88 105.326)" opacity="0.3">
                <g id="Grupo_1075043" data-name="Grupo 1075043">
                  <g id="Grupo_1075042" data-name="Grupo 1075042" clip-path="url(#clip-path-9)">
                    <rect id="Rectángulo_379750" data-name="Rectángulo 379750" width="21.605" height="1.807" transform="translate(0 0.001)"/>
                  </g>
                </g>
              </g>
              <g id="Grupo_1075047" data-name="Grupo 1075047" transform="translate(221.88 105.326)" opacity="0.3">
                <g id="Grupo_1075046" data-name="Grupo 1075046">
                  <g id="Grupo_1075045" data-name="Grupo 1075045" clip-path="url(#clip-path-10)">
                    <path id="Trazado_642681" data-name="Trazado 642681" d="M210.821,98.219l17.693,13.293V121.63l-21.606-16.688V98.219Z" transform="translate(-206.909 -98.219)" fill="#fff"/>
                  </g>
                </g>
              </g>
              <g id="Grupo_1075050" data-name="Grupo 1075050" transform="translate(221.88 116.547)" opacity="0.3">
                <g id="Grupo_1075049" data-name="Grupo 1075049">
                  <g id="Grupo_1075048" data-name="Grupo 1075048" clip-path="url(#clip-path-11)">
                    <path id="Trazado_642682" data-name="Trazado 642682" d="M228.514,124.916v4.6l-21.6-16.337v-4.5Z" transform="translate(-206.909 -108.683)" fill="#fff"/>
                  </g>
                </g>
              </g>
              <rect id="Rectángulo_379754" data-name="Rectángulo 379754" width="1.047" height="50.603" transform="translate(232.159 104.528)" fill="#263238"/>
              <rect id="Rectángulo_379755" data-name="Rectángulo 379755" width="29.002" height="58.07" transform="translate(176.86 101.05)" fill="#e0e0e0"/>
              <rect id="Rectángulo_379756" data-name="Rectángulo 379756" width="25.65" height="53.688" transform="translate(178.306 102.986)" fill="#263238"/>
              <rect id="Rectángulo_379757" data-name="Rectángulo 379757" width="21.605" height="49.007" transform="translate(180.329 105.326)" fill="#455a64"/>
              <g id="Grupo_1075053" data-name="Grupo 1075053" transform="translate(180.329 105.326)" opacity="0.3">
                <g id="Grupo_1075052" data-name="Grupo 1075052">
                  <g id="Grupo_1075051" data-name="Grupo 1075051" clip-path="url(#clip-path-9)">
                    <rect id="Rectángulo_379758" data-name="Rectángulo 379758" width="21.605" height="1.807" transform="translate(0 0.001)"/>
                  </g>
                </g>
              </g>
              <g id="Grupo_1075056" data-name="Grupo 1075056" transform="translate(180.329 105.326)" opacity="0.3">
                <g id="Grupo_1075055" data-name="Grupo 1075055">
                  <g id="Grupo_1075054" data-name="Grupo 1075054" clip-path="url(#clip-path-10)">
                    <path id="Trazado_642683" data-name="Trazado 642683" d="M172.074,98.219l17.692,13.293V121.63l-21.6-16.688V98.219Z" transform="translate(-168.161 -98.219)" fill="#fff"/>
                  </g>
                </g>
              </g>
              <g id="Grupo_1075059" data-name="Grupo 1075059" transform="translate(180.329 116.547)" opacity="0.3">
                <g id="Grupo_1075058" data-name="Grupo 1075058">
                  <g id="Grupo_1075057" data-name="Grupo 1075057" clip-path="url(#clip-path-11)">
                    <path id="Trazado_642684" data-name="Trazado 642684" d="M189.766,124.916v4.6l-21.6-16.337v-4.5Z" transform="translate(-168.161 -108.683)" fill="#fff"/>
                  </g>
                </g>
              </g>
              <rect id="Rectángulo_379762" data-name="Rectángulo 379762" width="1.047" height="50.603" transform="translate(190.608 104.528)" fill="#263238"/>
              <rect id="Rectángulo_379763" data-name="Rectángulo 379763" width="36.531" height="49.411" transform="translate(248.271 172.059)" fill="#e0e0e0"/>
              <rect id="Rectángulo_379764" data-name="Rectángulo 379764" width="32.359" height="45.675" transform="translate(250.073 174.296)" fill="#263238"/>
              <rect id="Rectángulo_379765" data-name="Rectángulo 379765" width="27.199" height="41.384" transform="translate(252.937 176.441)" fill="#455a64"/>
              <g id="Grupo_1075062" data-name="Grupo 1075062" transform="translate(252.937 176.53)" opacity="0.3">
                <g id="Grupo_1075061" data-name="Grupo 1075061">
                  <g id="Grupo_1075060" data-name="Grupo 1075060" clip-path="url(#clip-path-15)">
                    <path id="Trazado_642685" data-name="Trazado 642685" d="M242.872,164.619l20.2,19.208v14l-27.2-27.729v-5.475Z" transform="translate(-235.87 -164.619)" fill="#fff"/>
                  </g>
                </g>
              </g>
              <g id="Grupo_1075065" data-name="Grupo 1075065" transform="translate(252.937 201.707)" opacity="0.3">
                <g id="Grupo_1075064" data-name="Grupo 1075064">
                  <g id="Grupo_1075063" data-name="Grupo 1075063" clip-path="url(#clip-path-16)">
                    <path id="Trazado_642686" data-name="Trazado 642686" d="M235.87,188.1,253.578,204.3h-7.792l-9.916-9.829Z" transform="translate(-235.87 -188.097)" fill="#fff"/>
                  </g>
                </g>
              </g>
              <rect id="Rectángulo_379768" data-name="Rectángulo 379768" width="1.51" height="42.618" transform="translate(265.499 175.825)" fill="#263238"/>
              <rect id="Rectángulo_379769" data-name="Rectángulo 379769" width="36.531" height="49.411" transform="translate(131.118 172.059)" fill="#e0e0e0"/>
              <rect id="Rectángulo_379770" data-name="Rectángulo 379770" width="32.359" height="45.675" transform="translate(133.204 174.296)" fill="#263238"/>
              <rect id="Rectángulo_379771" data-name="Rectángulo 379771" width="27.199" height="41.384" transform="translate(136.068 176.441)" fill="#455a64"/>
              <g id="Grupo_1075068" data-name="Grupo 1075068" transform="translate(136.068 176.53)" opacity="0.3">
                <g id="Grupo_1075067" data-name="Grupo 1075067">
                  <g id="Grupo_1075066" data-name="Grupo 1075066" clip-path="url(#clip-path-17)">
                    <path id="Trazado_642687" data-name="Trazado 642687" d="M133.889,164.619l20.2,19.208v14l-27.2-27.729v-5.475Z" transform="translate(-126.887 -164.619)" fill="#fff"/>
                  </g>
                </g>
              </g>
              <g id="Grupo_1075071" data-name="Grupo 1075071" transform="translate(136.068 201.707)" opacity="0.3">
                <g id="Grupo_1075070" data-name="Grupo 1075070">
                  <g id="Grupo_1075069" data-name="Grupo 1075069" clip-path="url(#clip-path-18)">
                    <path id="Trazado_642688" data-name="Trazado 642688" d="M126.887,188.1,144.595,204.3H136.8l-9.916-9.829Z" transform="translate(-126.887 -188.097)" fill="#fff"/>
                  </g>
                </g>
              </g>
              <rect id="Rectángulo_379774" data-name="Rectángulo 379774" width="1.51" height="42.618" transform="translate(148.629 175.825)" fill="#263238"/>
              <rect id="Rectángulo_379775" data-name="Rectángulo 379775" width="43.584" height="70.081" transform="translate(185.963 172.06)" fill="#e0e0e0"/>
              <rect id="Rectángulo_379776" data-name="Rectángulo 379776" width="36.837" height="66.867" transform="translate(189.541 175.503)" fill="#263238"/>
              <rect id="Rectángulo_379777" data-name="Rectángulo 379777" width="26" height="8.276" transform="translate(194.96 181.316)" fill="#455a64"/>
              <rect id="Rectángulo_379778" data-name="Rectángulo 379778" width="10.99" height="21.646" transform="translate(209.971 193.132)" fill="#455a64"/>
              <rect id="Rectángulo_379779" data-name="Rectángulo 379779" width="10.99" height="21.646" transform="translate(195.403 193.132)" fill="#455a64"/>
              <g id="Grupo_1075074" data-name="Grupo 1075074" transform="translate(195.403 194.434)" opacity="0.3">
                <g id="Grupo_1075073" data-name="Grupo 1075073">
                  <g id="Grupo_1075072" data-name="Grupo 1075072" clip-path="url(#clip-path-19)">
                    <path id="Trazado_642689" data-name="Trazado 642689" d="M182.218,181.315l10.99,8.878v6.422l-10.99-9.354Z" transform="translate(-182.218 -181.315)" fill="#fff"/>
                  </g>
                </g>
              </g>
              <g id="Grupo_1075077" data-name="Grupo 1075077" transform="translate(209.971 197.133)" opacity="0.3">
                <g id="Grupo_1075076" data-name="Grupo 1075076">
                  <g id="Grupo_1075075" data-name="Grupo 1075075" clip-path="url(#clip-path-20)">
                    <path id="Trazado_642690" data-name="Trazado 642690" d="M206.792,192.783v2.6l-10.99-8.65v-2.9Z" transform="translate(-195.803 -183.832)" fill="#fff"/>
                  </g>
                </g>
              </g>
              <rect id="Rectángulo_379782" data-name="Rectángulo 379782" width="11.105" height="3.864" transform="translate(202.203 166.763)" fill="#e0e0e0"/>
              <path id="Trazado_642691" data-name="Trazado 642691" d="M180.505,204.111a1.728,1.728,0,1,0,1.722-1.58,1.656,1.656,0,0,0-1.722,1.58" transform="translate(13.061 14.655)" fill="#455a64"/>
              <g id="Grupo_1075080" data-name="Grupo 1075080" transform="translate(113.607 46.029)" opacity="0.3">
                <g id="Grupo_1075079" data-name="Grupo 1075079">
                  <g id="Grupo_1075078" data-name="Grupo 1075078" clip-path="url(#clip-path-21)">
                    <path id="Trazado_642692" data-name="Trazado 642692" d="M206.532,46.631l-95.683,100.2h-4.907v-5.968h4.907l92.369-97.944Z" transform="translate(-105.941 -42.923)"/>
                  </g>
                </g>
              </g>
            </g>
          </g>
          <path id="Trazado_642693" data-name="Trazado 642693" d="M.306,231.729H93.254l1.167-94.639Z" transform="translate(0.022 9.919)" fill="#263238"/>
          <text id="_5_m" data-name="5 m" transform="translate(44.589 223.011)" fill="#fff" font-size="16" font-family="Roboto-Bold, Roboto" font-weight="700"><tspan x="0" y="0">5 m</tspan></text>
        </g>
      </g>
    </g>
  </g>
</svg>
