<svg xmlns="http://www.w3.org/2000/svg" xmlns:xlink="http://www.w3.org/1999/xlink" width="388" height="270.77" viewBox="0 0 388 270.77">
  <defs>
    <clipPath id="clip-path">
      <rect id="Rectángulo_379833" data-name="Rectángulo 379833" width="372" height="252" transform="translate(1028 4877)" fill="#fff" stroke="#707070" stroke-width="1"/>
    </clipPath>
    <clipPath id="clip-path-2">
      <rect id="Rectángulo_379832" data-name="Rectángulo 379832" width="340.813" height="242.727" fill="none"/>
    </clipPath>
    <clipPath id="clip-path-4">
      <rect id="Rectángulo_379786" data-name="Rectángulo 379786" width="0.772" height="0.783" fill="none"/>
    </clipPath>
    <clipPath id="clip-path-7">
      <rect id="Rectángulo_379790" data-name="Rectángulo 379790" width="69.331" height="5.232" fill="none"/>
    </clipPath>
    <clipPath id="clip-path-9">
      <rect id="Rectángulo_379798" data-name="Rectángulo 379798" width="20.582" height="1.722" fill="none"/>
    </clipPath>
    <clipPath id="clip-path-10">
      <rect id="Rectángulo_379799" data-name="Rectángulo 379799" width="20.582" height="22.302" fill="none"/>
    </clipPath>
    <clipPath id="clip-path-11">
      <rect id="Rectángulo_379800" data-name="Rectángulo 379800" width="20.582" height="19.85" fill="none"/>
    </clipPath>
    <clipPath id="clip-path-12">
      <rect id="Rectángulo_379806" data-name="Rectángulo 379806" width="20.583" height="1.722" fill="none"/>
    </clipPath>
    <clipPath id="clip-path-13">
      <rect id="Rectángulo_379807" data-name="Rectángulo 379807" width="20.583" height="22.302" fill="none"/>
    </clipPath>
    <clipPath id="clip-path-14">
      <rect id="Rectángulo_379808" data-name="Rectángulo 379808" width="20.583" height="19.85" fill="none"/>
    </clipPath>
    <clipPath id="clip-path-15">
      <rect id="Rectángulo_379813" data-name="Rectángulo 379813" width="25.911" height="31.632" fill="none"/>
    </clipPath>
    <clipPath id="clip-path-16">
      <rect id="Rectángulo_379814" data-name="Rectángulo 379814" width="16.869" height="15.439" fill="none"/>
    </clipPath>
    <clipPath id="clip-path-19">
      <rect id="Rectángulo_379827" data-name="Rectángulo 379827" width="10.469" height="14.576" fill="none"/>
    </clipPath>
    <clipPath id="clip-path-20">
      <rect id="Rectángulo_379828" data-name="Rectángulo 379828" width="10.469" height="11.005" fill="none"/>
    </clipPath>
    <clipPath id="clip-path-21">
      <rect id="Rectángulo_379830" data-name="Rectángulo 379830" width="95.826" height="98.991" fill="none"/>
    </clipPath>
  </defs>
  <g id="img14" transform="translate(-1020 -4801)">
    <g id="Image_Place_Holder" data-name="Image Place Holder" transform="translate(1020 4801)">
      <rect id="Image_Place_Holder-2" data-name="Image Place Holder" width="388" height="270.77" rx="10" fill="#96b8a9"/>
    </g>
    <g id="Enmascarar_grupo_1074813" data-name="Enmascarar grupo 1074813" transform="translate(0 -67)" clip-path="url(#clip-path)">
      <g id="Grupo_1075139" data-name="Grupo 1075139" transform="translate(1043 4882)">
        <g id="Grupo_1075138" data-name="Grupo 1075138" clip-path="url(#clip-path-2)">
          <g id="Grupo_1075089" data-name="Grupo 1075089">
            <g id="Grupo_1075088" data-name="Grupo 1075088" clip-path="url(#clip-path-2)">
              <path id="Trazado_642694" data-name="Trazado 642694" d="M279.154,77.814a13.987,13.987,0,0,1,2.765-3.72,9.019,9.019,0,0,1,5.2-2.2c2.114-.169,4.455.572,5.144,1.879.3-2.945.947-5.966,3.22-8.522a14.521,14.521,0,0,1,11.055-4.386,13.949,13.949,0,0,1,9.987,4.682c2.037,2.449,2.737,5.258,3.406,8.006,1.623-1.291,5.051-.886,6.745.368s2.124,3,2.483,4.654h-51.1Z" transform="translate(5.998 1.313)" fill="#ebebeb"/>
              <path id="Trazado_642695" data-name="Trazado 642695" d="M246.71,55.621a11.145,11.145,0,0,1,2.259-2.962,7.465,7.465,0,0,1,4.251-1.748c1.727-.134,3.64.456,4.2,1.5a11.251,11.251,0,0,1,2.63-6.785,12.021,12.021,0,0,1,9.03-3.491,11.507,11.507,0,0,1,8.157,3.728,14.6,14.6,0,0,1,2.782,6.374c1.326-1.028,4.125-.7,5.509.292a5.575,5.575,0,0,1,2.029,3.706H245.821Z" transform="translate(5.302 0.909)" fill="#ebebeb"/>
              <path id="Trazado_642696" data-name="Trazado 642696" d="M195.2,61.3a1.909,1.909,0,0,1-.431,1.167,4.557,4.557,0,0,0-.585,1.6s-.2,2.17-.23,2.871.02,1.335.559,1.158.668-.61.65-1.89l.262-.7.343.488.245,2.032s-1.261,1.463-1.13,1.837.389.287.389.287l.245.194,1.983-1.716.531-2.767-.477-3.722-.3-2.419-2.5.783Z" transform="translate(4.183 1.288)" fill="#ffc09d"/>
              <path id="Trazado_642697" data-name="Trazado 642697" d="M191.2,34.205s1.2-.174,2.385,1.9c1.482,2.575,2.278,12.336,2.278,12.336l1.765,14.258-2.475-.237s-2.854-10.332-3.529-11.81S190.4,40.191,190.4,40.191Z" transform="translate(4.107 0.738)" fill="#ffc09d"/>
              <path id="Trazado_642698" data-name="Trazado 642698" d="M169.342,61.435a1.909,1.909,0,0,0,.431,1.167,4.556,4.556,0,0,1,.585,1.6s.2,2.17.23,2.871-.02,1.335-.559,1.158-.668-.61-.65-1.89l-.262-.7-.343.488-.245,2.032s1.261,1.463,1.13,1.837-.389.287-.389.287l-.245.194-1.983-1.716L166.511,66l.477-3.722.3-2.419,2.5.783Z" transform="translate(3.591 1.291)" fill="#ffc09d"/>
              <path id="Trazado_642699" data-name="Trazado 642699" d="M173.406,34.337s-1.2-.174-2.385,1.9c-1.482,2.575-2.278,12.336-2.278,12.336l-1.765,14.258,2.475-.237s2.854-10.332,3.529-11.81S174.2,40.323,174.2,40.323Z" transform="translate(3.602 0.741)" fill="#ffc09d"/>
              <path id="Trazado_642700" data-name="Trazado 642700" d="M175.261,101.044l.21,5.534s-5.554,2.073-5.616,3.1l10.746-.022.026-8.636Z" transform="translate(3.664 2.179)" fill="#263238"/>
              <path id="Trazado_642701" data-name="Trazado 642701" d="M178.615,106a.438.438,0,0,1,.3.5.422.422,0,0,1-.493.305.464.464,0,0,1-.32-.531.439.439,0,0,1,.549-.262" transform="translate(3.841 2.286)" fill="#e0e0e0"/>
              <path id="Trazado_642702" data-name="Trazado 642702" d="M180.6,109.49l-.032-.87-10.29.347s-.478.208-.423.546Z" transform="translate(3.663 2.343)" fill="#455a64"/>
              <path id="Trazado_642703" data-name="Trazado 642703" d="M175.182,106.408c0,.052.265.076.523.244s.4.388.444.368-.031-.325-.347-.522-.631-.138-.62-.09" transform="translate(3.778 2.294)" fill="#fff"/>
              <path id="Trazado_642704" data-name="Trazado 642704" d="M174.08,106.865c-.012.051.216.14.394.362s.231.456.283.454.085-.3-.143-.571-.533-.294-.534-.244" transform="translate(3.755 2.305)" fill="#fff"/>
              <path id="Trazado_642705" data-name="Trazado 642705" d="M173.465,108.206c.048.011.121-.251-.015-.538s-.381-.4-.4-.358.13.2.237.435.129.456.181.461" transform="translate(3.732 2.314)" fill="#fff"/>
              <path id="Trazado_642706" data-name="Trazado 642706" d="M175.272,105.171c.022.048.263-.026.56-.005s.527.112.555.067-.2-.232-.546-.25-.595.147-.569.188" transform="translate(3.78 2.264)" fill="#fff"/>
              <path id="Trazado_642707" data-name="Trazado 642707" d="M187.306,101.076l.582,6.675-1.062,5.412a.687.687,0,0,0,1.178.6c.957-1.044,4.461-4.9,4.392-5.389-.082-.563-.147-7.083-.147-7.083Z" transform="translate(4.029 2.18)" fill="#263238"/>
              <path id="Trazado_642708" data-name="Trazado 642708" d="M187.4,113.833l4.953-6.055.018.283a1.039,1.039,0,0,1-.2.684c-.393.526-1.509,1.955-4.159,4.871a.687.687,0,0,1-.611.217" transform="translate(4.042 2.325)" fill="#455a64"/>
              <g id="Grupo_1075087" data-name="Grupo 1075087" transform="translate(194.736 107.954)" opacity="0.6">
                <g id="Grupo_1075086" data-name="Grupo 1075086">
                  <g id="Grupo_1075085" data-name="Grupo 1075085" clip-path="url(#clip-path-4)">
                    <path id="Trazado_642709" data-name="Trazado 642709" d="M190.773,105.754a.415.415,0,0,0-.079.549.4.4,0,0,0,.544.083.438.438,0,0,0,.08-.581.413.413,0,0,0-.574-.024" transform="translate(-190.624 -105.675)" fill="#fff"/>
                  </g>
                </g>
              </g>
              <path id="Trazado_642710" data-name="Trazado 642710" d="M188.743,110.764a1.483,1.483,0,0,0-1.4-.58c-.007-.016.075-.074.229-.105a1.064,1.064,0,0,1,.607.067,1.075,1.075,0,0,1,.476.381c.087.133.1.231.087.237" transform="translate(4.041 2.374)" fill="#fff"/>
              <path id="Trazado_642711" data-name="Trazado 642711" d="M188.33,111.664a5.455,5.455,0,0,0-.611-.249,5.639,5.639,0,0,0-.658-.043.762.762,0,0,1,.691-.1c.4.09.612.373.578.393" transform="translate(4.035 2.399)" fill="#fff"/>
              <path id="Trazado_642712" data-name="Trazado 642712" d="M189.55,109.585a6.88,6.88,0,0,0-.916-.448,6.667,6.667,0,0,0-1.007-.168,1.878,1.878,0,0,1,1.924.616" transform="translate(4.047 2.349)" fill="#fff"/>
              <path id="Trazado_642713" data-name="Trazado 642713" d="M189.539,107.574c-.015.041-.394-.09-.877-.076s-.855.153-.872.112a1.707,1.707,0,0,1,1.749-.037" transform="translate(4.05 2.315)" fill="#fff"/>
              <path id="Trazado_642714" data-name="Trazado 642714" d="M189.421,105.652a2.185,2.185,0,0,0-1.783.176c-.011-.013.056-.1.2-.2a1.461,1.461,0,0,1,.654-.225,1.481,1.481,0,0,1,.684.092c.165.068.249.142.24.157" transform="translate(4.047 2.273)" fill="#fff"/>
              <path id="Trazado_642715" data-name="Trazado 642715" d="M188.5,105.208a.578.578,0,0,1-.026-.252,1.75,1.75,0,0,1,.158-.675.783.783,0,0,1,.311-.393.276.276,0,0,1,.315.041.454.454,0,0,1,.125.3.969.969,0,0,1-.791.95,1.126,1.126,0,0,1-1.141-.516.394.394,0,0,1-.04-.324.272.272,0,0,1,.274-.16.957.957,0,0,1,.456.2,1.967,1.967,0,0,1,.489.49.594.594,0,0,1,.117.225,3.108,3.108,0,0,0-.665-.628.9.9,0,0,0-.4-.165.146.146,0,0,0-.149.087.264.264,0,0,0,.039.211,1,1,0,0,0,.994.436.843.843,0,0,0,.683-.8.334.334,0,0,0-.079-.21A.15.15,0,0,0,189,104a.7.7,0,0,0-.269.328,2.583,2.583,0,0,0-.227.883" transform="translate(4.042 2.24)" fill="#fff"/>
              <path id="Trazado_642716" data-name="Trazado 642716" d="M185.7,31.641l.152-12.453c.138-3.1-1.549-5.759-4.647-5.811l-.287.011a5.542,5.542,0,0,0-5.309,5.319c-.105,2.684-.187,5.651-.11,7.087a3.569,3.569,0,0,0,3.15,3.309c.007,0,.018,1.808.017,2.681l2.392,3.319v.178Z" transform="translate(3.785 0.289)" fill="#ffc09d"/>
              <path id="Trazado_642717" data-name="Trazado 642717" d="M178.58,28.8a7.183,7.183,0,0,0,3.822-1.3,3.693,3.693,0,0,1-3.815,2.127Z" transform="translate(3.852 0.593)" fill="#ff9b6c"/>
              <path id="Trazado_642718" data-name="Trazado 642718" d="M176.469,21.272a.425.425,0,0,0,.427.412.408.408,0,0,0,.422-.4.427.427,0,0,0-.427-.412.408.408,0,0,0-.422.4" transform="translate(3.806 0.45)" fill="#263238"/>
              <path id="Trazado_642719" data-name="Trazado 642719" d="M176.275,19.864c.055.053.367-.2.823-.216s.8.2.848.139c.023-.026-.035-.124-.185-.224a1.161,1.161,0,0,0-.681-.18,1.114,1.114,0,0,0-.653.241c-.136.113-.179.216-.152.239" transform="translate(3.802 0.418)" fill="#263238"/>
              <path id="Trazado_642720" data-name="Trazado 642720" d="M180.453,21.2a.425.425,0,0,0,.427.412.408.408,0,0,0,.422-.4.427.427,0,0,0-.427-.412.408.408,0,0,0-.422.4" transform="translate(3.892 0.448)" fill="#263238"/>
              <path id="Trazado_642721" data-name="Trazado 642721" d="M180.661,19.786c.055.053.367-.2.823-.216s.8.2.848.139c.024-.026-.034-.124-.185-.224a1.169,1.169,0,0,0-.681-.18,1.12,1.12,0,0,0-.653.241c-.135.113-.179.216-.152.239" transform="translate(3.896 0.416)" fill="#263238"/>
              <path id="Trazado_642722" data-name="Trazado 642722" d="M179.224,23.358a3.059,3.059,0,0,0-.747-.1c-.117-.007-.229-.026-.252-.1a.6.6,0,0,1,.064-.349l.307-.9a15.371,15.371,0,0,0,.679-2.355,15.281,15.281,0,0,0-.867,2.294c-.1.317-.2.618-.293.907a.675.675,0,0,0-.042.46.293.293,0,0,0,.2.162.756.756,0,0,0,.2.019,2.94,2.94,0,0,0,.752-.03" transform="translate(3.84 0.422)" fill="#263238"/>
              <path id="Trazado_642723" data-name="Trazado 642723" d="M180.459,18.4c.066.114.5-.027,1.044-.06s.992.031,1.042-.092c.021-.058-.075-.159-.268-.246a1.824,1.824,0,0,0-1.59.116c-.179.113-.258.228-.229.282" transform="translate(3.892 0.385)" fill="#263238"/>
              <path id="Trazado_642724" data-name="Trazado 642724" d="M176.2,18.551c.1.1.467-.016.914-.033s.827.047.912-.063c.037-.054-.026-.156-.194-.25a1.442,1.442,0,0,0-.748-.15,1.416,1.416,0,0,0-.723.228c-.155.111-.2.22-.161.269" transform="translate(3.8 0.389)" fill="#263238"/>
              <path id="Trazado_642725" data-name="Trazado 642725" d="M185.481,21.232c.05-.023,2.017-.689,2.036,1.346a1.53,1.53,0,0,1-2.032,1.575c0-.058,0-2.922,0-2.922" transform="translate(4.001 0.455)" fill="#ffc09d"/>
              <path id="Trazado_642726" data-name="Trazado 642726" d="M186.087,23.363c.009-.006.036.025.1.051a.351.351,0,0,0,.265,0,.876.876,0,0,0,.4-.791,1.151,1.151,0,0,0-.1-.506.407.407,0,0,0-.269-.27.179.179,0,0,0-.208.1c-.027.057-.013.1-.025.1s-.044-.034-.028-.119a.225.225,0,0,1,.079-.128.269.269,0,0,1,.2-.054.5.5,0,0,1,.374.313,1.206,1.206,0,0,1,.128.566.919.919,0,0,1-.509.883.381.381,0,0,1-.325-.05c-.063-.05-.075-.1-.067-.1" transform="translate(4.014 0.469)" fill="#ff9b6c"/>
              <path id="Trazado_642727" data-name="Trazado 642727" d="M180.633,23.554c-.07,0-.074.463-.474.793s-.9.276-.9.341c-.006.03.11.091.321.1a1.163,1.163,0,0,0,.753-.258,1.01,1.01,0,0,0,.368-.665c.019-.2-.033-.312-.064-.309" transform="translate(3.866 0.508)" fill="#263238"/>
              <path id="Trazado_642728" data-name="Trazado 642728" d="M171.584,16.075a.48.48,0,0,1,.224-.284,1.483,1.483,0,0,1,.759-.132,4.3,4.3,0,0,0,1.856-.489,2.092,2.092,0,0,1-.552-.378,1.277,1.277,0,0,1-.382-1.266.286.286,0,0,1,.157-.2c.132-.042.249.087.342.189a1.1,1.1,0,0,0,1.04.426,1.8,1.8,0,0,0,.77-.237c.009-.009.016-.019.026-.029.1-.111.206-.217.307-.319h0a6.72,6.72,0,0,1,2.083-1.581,6.9,6.9,0,0,1,3.687-.332,2.791,2.791,0,0,1,2.134,2.148,2.147,2.147,0,0,1,2.158-.227l.017-.008a2.7,2.7,0,0,1,1.489,1.9c.013.043.026.088.038.132a3.133,3.133,0,0,0,1.072,1.024c.077.043.164.1.175.184s-.062.159-.133.211a1.562,1.562,0,0,1-.634.272,3.6,3.6,0,0,0,.268.551c.091.15.2.329.123.486a.333.333,0,0,1-.346.155.991.991,0,0,1-.369-.161q.136.314.271.628a1.873,1.873,0,0,1-.857-.048c-.159.754-.269,2.146-.457,2.657a3.066,3.066,0,0,0-.943.052c-.35.121-.209.743-.67.571-.234-.088-.6-.968-.683-1.2a11.616,11.616,0,0,1-.559-4.912,3.725,3.725,0,0,0-1.163-.818l.036.031a3.387,3.387,0,0,0-2.564-.153,5.489,5.489,0,0,0-1.413,1.461,4.261,4.261,0,0,1-3.125,1.565c-.106.9-.125,2.369-.158,3.207l-.736-1.669v.007a3.279,3.279,0,0,1-.155-.3l-.016-.03v0a5.043,5.043,0,0,0-.241-.474l-.007.007a.523.523,0,0,1-.773-.691,1.129,1.129,0,0,1,.25-.257.828.828,0,0,1-.787.214.649.649,0,0,1-.467-.637.552.552,0,0,1,.324-.447,1.863,1.863,0,0,1-1.064-.222c-.21-.117-.419-.312-.35-.576" transform="translate(3.701 0.244)" fill="#263238"/>
              <path id="Trazado_642729" data-name="Trazado 642729" d="M182.86,13.893a2.668,2.668,0,0,1,.3.27,2.14,2.14,0,0,1,.469.984,3.779,3.779,0,0,1,.085.755c0,.275-.014.568-.033.878a7.92,7.92,0,0,0-.011.977,3.491,3.491,0,0,0,.074.515,1.073,1.073,0,0,0,.216.5.45.45,0,0,0,.422.136.668.668,0,0,0,.376-.218,1.545,1.545,0,0,0,.278-.76l-.062.008a2.477,2.477,0,0,0,.369.619.891.891,0,0,0,.583.31.579.579,0,0,0,.306-.057.5.5,0,0,0,.206-.208.521.521,0,0,0,.06-.265.372.372,0,0,0-.1-.231l-.031.029a1.911,1.911,0,0,0,.645.473,1.753,1.753,0,0,0,.2.075.424.424,0,0,0,.071.017.4.4,0,0,0-.067-.029,2.089,2.089,0,0,1-.193-.084,1.979,1.979,0,0,1-.623-.48l-.032.029a.382.382,0,0,1,.026.442.445.445,0,0,1-.187.184.518.518,0,0,1-.278.048.832.832,0,0,1-.54-.293,2.465,2.465,0,0,1-.355-.607l-.044-.1-.019.1a1.487,1.487,0,0,1-.265.726.6.6,0,0,1-.336.194.379.379,0,0,1-.359-.115,1.007,1.007,0,0,1-.2-.465,3.456,3.456,0,0,1-.073-.5,8.034,8.034,0,0,1,.007-.968c.015-.31.033-.6.026-.883a3.706,3.706,0,0,0-.094-.765,2.1,2.1,0,0,0-.5-.991,1.216,1.216,0,0,0-.322-.251" transform="translate(3.944 0.3)" fill="#455a64"/>
              <path id="Trazado_642730" data-name="Trazado 642730" d="M173.876,16.929s.007.008.025.02l.075.053a1.076,1.076,0,0,0,.127.08,1.771,1.771,0,0,0,.183.093,2.647,2.647,0,0,0,1.277.215,3.372,3.372,0,0,0,1.789-.683,5.835,5.835,0,0,0,1.523-1.8c.212-.363.385-.735.576-1.078a3.909,3.909,0,0,1,.655-.914,2.021,2.021,0,0,1,.852-.53,1.447,1.447,0,0,1,.452-.057,1.588,1.588,0,0,1,.415.075,1.725,1.725,0,0,1,.966.8,1.975,1.975,0,0,1,.158.444.093.093,0,0,0,0-.032l-.015-.091a1.473,1.473,0,0,0-.118-.335,1.7,1.7,0,0,0-.338-.447,1.74,1.74,0,0,0-.636-.385,1.674,1.674,0,0,0-.428-.082,1.531,1.531,0,0,0-.47.055,2.091,2.091,0,0,0-.881.54,4,4,0,0,0-.67.927c-.193.346-.365.717-.576,1.077a5.841,5.841,0,0,1-1.5,1.78,3.348,3.348,0,0,1-1.755.686,2.688,2.688,0,0,1-1.263-.19,4.152,4.152,0,0,1-.419-.222" transform="translate(3.75 0.265)" fill="#455a64"/>
              <path id="Trazado_642731" data-name="Trazado 642731" d="M170.581,62.883l.007,0c.034-.743.1-1.578.185-2.189a23.454,23.454,0,0,0,2.323.555,22.031,22.031,0,0,0,5.492.189l.124-.01a58.372,58.372,0,0,0,11.548-2.583l.581,4.5,1.428,21.59,1.037,21.993-6.447,0s-2.271-16.917-2.448-19.26c-.2-2.606-3.275-18.781-3.275-18.781l-.558-.141.344,37.91h-6.676s-3.613-40.739-3.667-42.188c-.021-.549-.017-1.081,0-1.591" transform="translate(3.679 1.269)" fill="#263238"/>
              <path id="Trazado_642732" data-name="Trazado 642732" d="M171.142,58.108l.6-10.38.035-2.518-3.889-1.844,2.631-8.653a3.858,3.858,0,0,1,2.059-2.1c.054-.022.107-.043.158-.061l6.079-2.154c.319.988,1.911,1.658,3.3,1.735a4.8,4.8,0,0,0,3.925-2.146l.019.006A33.111,33.111,0,0,1,191.1,31.8a6.969,6.969,0,0,1,2.857,2.729c1.206,2.067,3.625,7.8,3.625,7.8l-6.634,2.226c-.05-.239-.122-.571-.2-.941l0,.013-.8,8.693.376,4.989a5.773,5.773,0,0,1,1.212,2.28v1.687a72.781,72.781,0,0,1-13.062,2.8l-.126.01a22.32,22.32,0,0,1-5.692-.209c-.056-.009-.111-.021-.168-.032a17.725,17.725,0,0,1-2.078-.514l-.084-.026a23.565,23.565,0,0,1,.517-4.22c.362-.9.294-.987.294-.987" transform="translate(3.621 0.647)" fill="#455a64"/>
              <path id="Trazado_642733" data-name="Trazado 642733" d="M171.333,36.161a2.252,2.252,0,0,1,.035.386c.019.274.044.627.074,1.052.062.888.152,2.116.225,3.474s.106,2.591.1,3.483c0,.446-.016.807-.035,1.056a1.963,1.963,0,0,1-.042.386,2.153,2.153,0,0,1-.012-.388c0-.248,0-.609-.009-1.053-.015-.89-.063-2.119-.137-3.476s-.147-2.586-.185-3.476c-.019-.445-.029-.806-.029-1.055a1.938,1.938,0,0,1,.018-.388" transform="translate(3.695 0.78)" fill="#263238"/>
              <path id="Trazado_642734" data-name="Trazado 642734" d="M191.116,36.4a1.683,1.683,0,0,1-.034.344c-.037.246-.082.558-.136.929-.115.785-.267,1.868-.4,3.071s-.229,2.292-.291,3.083c-.03.374-.054.688-.075.936a1.692,1.692,0,0,1-.043.343,1.742,1.742,0,0,1-.01-.346c0-.222.012-.542.031-.939.037-.794.115-1.888.251-3.093s.3-2.288.442-3.07c.07-.391.132-.706.18-.923a1.659,1.659,0,0,1,.087-.334" transform="translate(4.101 0.785)" fill="#263238"/>
            </g>
          </g>
          <g id="Grupo_1075091" data-name="Grupo 1075091">
            <g id="Grupo_1075090" data-name="Grupo 1075090" clip-path="url(#clip-path-2)">
              <path id="Trazado_642735" data-name="Trazado 642735" d="M39.822,237.348c0,.147,66.637.266,148.82.266,82.211,0,148.833-.118,148.833-.266s-66.623-.266-148.833-.266c-82.183,0-148.82.118-148.82.266" transform="translate(0.859 5.114)" fill="#263238"/>
            </g>
          </g>
          <path id="Trazado_642736" data-name="Trazado 642736" d="M150.34,147.554V240.86H326.828V144.574L238.333,54.249Z" transform="translate(3.243 1.17)" fill="#fafafa"/>
          <g id="Grupo_1075096" data-name="Grupo 1075096">
            <g id="Grupo_1075095" data-name="Grupo 1075095" clip-path="url(#clip-path-2)">
              <g id="Grupo_1075094" data-name="Grupo 1075094" transform="translate(205.23 85.887)" opacity="0.3">
                <g id="Grupo_1075093" data-name="Grupo 1075093">
                  <g id="Grupo_1075092" data-name="Grupo 1075092" clip-path="url(#clip-path-7)">
                    <rect id="Rectángulo_379789" data-name="Rectángulo 379789" width="69.331" height="5.232"/>
                  </g>
                </g>
              </g>
            </g>
          </g>
          <rect id="Rectángulo_379792" data-name="Rectángulo 379792" width="65.285" height="4.849" transform="translate(209.109 82.991)" fill="#ff725e"/>
          <rect id="Rectángulo_379793" data-name="Rectángulo 379793" width="176.941" height="18.549" transform="translate(153.569 223.694)" fill="#ebebeb"/>
          <g id="Grupo_1075137" data-name="Grupo 1075137">
            <g id="Grupo_1075136" data-name="Grupo 1075136" clip-path="url(#clip-path-2)">
              <path id="Trazado_642737" data-name="Trazado 642737" d="M268.354,227.464h8.077a2.424,2.424,0,0,0,2.424-2.424v-.523a2.424,2.424,0,0,0-2.424-2.424h-8.077a2.424,2.424,0,0,0-2.424,2.424v.523a2.424,2.424,0,0,0,2.424,2.424" transform="translate(5.736 4.79)" fill="#e0e0e0"/>
              <path id="Trazado_642738" data-name="Trazado 642738" d="M253.9,227.464h8.077a2.424,2.424,0,0,0,2.424-2.424v-.523a2.424,2.424,0,0,0-2.424-2.424H253.9a2.424,2.424,0,0,0-2.424,2.424v.523a2.424,2.424,0,0,0,2.424,2.424" transform="translate(5.424 4.79)" fill="#e0e0e0"/>
              <path id="Trazado_642739" data-name="Trazado 642739" d="M239.441,227.464h8.077a2.424,2.424,0,0,0,2.424-2.424v-.523a2.424,2.424,0,0,0-2.424-2.424h-8.077a2.424,2.424,0,0,0-2.424,2.424v.523a2.424,2.424,0,0,0,2.424,2.424" transform="translate(5.112 4.79)" fill="#e0e0e0"/>
              <path id="Trazado_642740" data-name="Trazado 642740" d="M224.985,227.464h8.077a2.424,2.424,0,0,0,2.424-2.424v-.523a2.424,2.424,0,0,0-2.424-2.424h-8.077a2.424,2.424,0,0,0-2.424,2.424v.523a2.424,2.424,0,0,0,2.424,2.424" transform="translate(4.8 4.79)" fill="#e0e0e0"/>
              <path id="Trazado_642741" data-name="Trazado 642741" d="M210.528,227.464H218.6a2.424,2.424,0,0,0,2.424-2.424v-.523a2.424,2.424,0,0,0-2.424-2.424h-8.077a2.424,2.424,0,0,0-2.424,2.424v.523a2.424,2.424,0,0,0,2.424,2.424" transform="translate(4.489 4.79)" fill="#e0e0e0"/>
              <path id="Trazado_642742" data-name="Trazado 642742" d="M196.071,227.464h8.077a2.424,2.424,0,0,0,2.424-2.424v-.523a2.424,2.424,0,0,0-2.424-2.424h-8.077a2.424,2.424,0,0,0-2.424,2.424v.523a2.424,2.424,0,0,0,2.424,2.424" transform="translate(4.177 4.79)" fill="#e0e0e0"/>
              <path id="Trazado_642743" data-name="Trazado 642743" d="M181.615,227.464h8.077a2.424,2.424,0,0,0,2.424-2.424v-.523a2.424,2.424,0,0,0-2.424-2.424h-8.077a2.424,2.424,0,0,0-2.424,2.424v.523a2.424,2.424,0,0,0,2.424,2.424" transform="translate(3.865 4.79)" fill="#e0e0e0"/>
              <path id="Trazado_642744" data-name="Trazado 642744" d="M167.158,227.464h8.077a2.424,2.424,0,0,0,2.424-2.424v-.523a2.424,2.424,0,0,0-2.424-2.424h-8.077a2.424,2.424,0,0,0-2.424,2.424v.523a2.424,2.424,0,0,0,2.424,2.424" transform="translate(3.553 4.79)" fill="#e0e0e0"/>
              <path id="Trazado_642745" data-name="Trazado 642745" d="M152.7,227.464h8.077a2.424,2.424,0,0,0,2.424-2.424v-.523a2.424,2.424,0,0,0-2.424-2.424H152.7a2.424,2.424,0,0,0-2.424,2.424v.523a2.424,2.424,0,0,0,2.424,2.424" transform="translate(3.241 4.79)" fill="#e0e0e0"/>
              <path id="Trazado_642746" data-name="Trazado 642746" d="M282.811,227.464h8.077a2.424,2.424,0,0,0,2.424-2.424v-.523a2.424,2.424,0,0,0-2.424-2.424h-8.077a2.424,2.424,0,0,0-2.424,2.424v.523a2.424,2.424,0,0,0,2.424,2.424" transform="translate(6.048 4.79)" fill="#e0e0e0"/>
              <path id="Trazado_642747" data-name="Trazado 642747" d="M273.543,234.4h8.506a2.424,2.424,0,0,0,2.424-2.424v-.523a2.424,2.424,0,0,0-2.424-2.424h-8.506a2.424,2.424,0,0,0-2.424,2.424v.523a2.424,2.424,0,0,0,2.424,2.424" transform="translate(5.848 4.94)" fill="#e0e0e0"/>
              <path id="Trazado_642748" data-name="Trazado 642748" d="M288.927,234.4h8.506a2.424,2.424,0,0,0,2.424-2.424v-.523a2.424,2.424,0,0,0-2.424-2.424h-8.506a2.424,2.424,0,0,0-2.424,2.424v.523a2.424,2.424,0,0,0,2.424,2.424" transform="translate(6.18 4.94)" fill="#e0e0e0"/>
              <path id="Trazado_642749" data-name="Trazado 642749" d="M297.313,227.464h8.076a2.424,2.424,0,0,0,2.424-2.424v-.523a2.424,2.424,0,0,0-2.424-2.424h-8.076a2.424,2.424,0,0,0-2.425,2.424v.523a2.424,2.424,0,0,0,2.425,2.424" transform="translate(6.36 4.79)" fill="#e0e0e0"/>
              <path id="Trazado_642750" data-name="Trazado 642750" d="M303.428,234.4h8.506a2.424,2.424,0,0,0,2.424-2.424v-.523a2.424,2.424,0,0,0-2.424-2.424h-8.506A2.424,2.424,0,0,0,301,231.457v.523a2.424,2.424,0,0,0,2.424,2.424" transform="translate(6.492 4.94)" fill="#e0e0e0"/>
              <path id="Trazado_642751" data-name="Trazado 642751" d="M311.814,227.464h8.077a2.424,2.424,0,0,0,2.424-2.424v-.523a2.424,2.424,0,0,0-2.424-2.424h-8.077a2.424,2.424,0,0,0-2.424,2.424v.523a2.424,2.424,0,0,0,2.424,2.424" transform="translate(6.673 4.79)" fill="#e0e0e0"/>
              <path id="Trazado_642752" data-name="Trazado 642752" d="M258.263,234.4h8.506a2.424,2.424,0,0,0,2.424-2.424v-.523a2.424,2.424,0,0,0-2.424-2.424h-8.506a2.424,2.424,0,0,0-2.424,2.424v.523a2.424,2.424,0,0,0,2.424,2.424" transform="translate(5.518 4.94)" fill="#e0e0e0"/>
              <path id="Trazado_642753" data-name="Trazado 642753" d="M243.572,234.4h8.506a2.424,2.424,0,0,0,2.424-2.424v-.523a2.424,2.424,0,0,0-2.424-2.424h-8.506a2.424,2.424,0,0,0-2.424,2.424v.523a2.424,2.424,0,0,0,2.424,2.424" transform="translate(5.201 4.94)" fill="#e0e0e0"/>
              <path id="Trazado_642754" data-name="Trazado 642754" d="M228.882,234.4h8.506a2.424,2.424,0,0,0,2.424-2.424v-.523a2.424,2.424,0,0,0-2.424-2.424h-8.506a2.424,2.424,0,0,0-2.424,2.424v.523a2.424,2.424,0,0,0,2.424,2.424" transform="translate(4.884 4.94)" fill="#e0e0e0"/>
              <path id="Trazado_642755" data-name="Trazado 642755" d="M214.192,234.4H222.7a2.424,2.424,0,0,0,2.424-2.424v-.523a2.424,2.424,0,0,0-2.424-2.424h-8.506a2.424,2.424,0,0,0-2.424,2.424v.523a2.424,2.424,0,0,0,2.424,2.424" transform="translate(4.568 4.94)" fill="#e0e0e0"/>
              <path id="Trazado_642756" data-name="Trazado 642756" d="M199.5,234.4h8.506a2.424,2.424,0,0,0,2.424-2.424v-.523a2.424,2.424,0,0,0-2.424-2.424H199.5a2.424,2.424,0,0,0-2.424,2.424v.523A2.424,2.424,0,0,0,199.5,234.4" transform="translate(4.251 4.94)" fill="#e0e0e0"/>
              <path id="Trazado_642757" data-name="Trazado 642757" d="M184.811,234.4h8.506a2.424,2.424,0,0,0,2.424-2.424v-.523a2.424,2.424,0,0,0-2.424-2.424h-8.506a2.424,2.424,0,0,0-2.424,2.424v.523a2.424,2.424,0,0,0,2.424,2.424" transform="translate(3.934 4.94)" fill="#e0e0e0"/>
              <path id="Trazado_642758" data-name="Trazado 642758" d="M170.121,234.4h8.5a2.424,2.424,0,0,0,2.424-2.424v-.523a2.424,2.424,0,0,0-2.424-2.424h-8.5a2.424,2.424,0,0,0-2.424,2.424v.523a2.424,2.424,0,0,0,2.424,2.424" transform="translate(3.617 4.94)" fill="#e0e0e0"/>
              <path id="Trazado_642759" data-name="Trazado 642759" d="M155.43,234.4h8.506a2.424,2.424,0,0,0,2.424-2.424v-.523a2.424,2.424,0,0,0-2.424-2.424H155.43a2.424,2.424,0,0,0-2.424,2.424v.523a2.424,2.424,0,0,0,2.424,2.424" transform="translate(3.3 4.94)" fill="#e0e0e0"/>
              <path id="Trazado_642760" data-name="Trazado 642760" d="M240.731,41.719l97.167,107v4.813H327.155L238.662,54.54l-87.995,93.3v5.686h-15.5v-6.506L237.628,40.768Z" transform="translate(2.915 0.879)" fill="#ff725e"/>
              <rect id="Rectángulo_379794" data-name="Rectángulo 379794" width="27.628" height="55.32" transform="translate(248.747 107.835)" fill="#e0e0e0"/>
              <rect id="Rectángulo_379795" data-name="Rectángulo 379795" width="24.435" height="51.145" transform="translate(250.126 109.679)" fill="#263238"/>
              <rect id="Rectángulo_379796" data-name="Rectángulo 379796" width="20.582" height="46.686" transform="translate(252.053 111.908)" fill="#455a64"/>
              <g id="Grupo_1075099" data-name="Grupo 1075099" transform="translate(252.053 111.908)" opacity="0.3">
                <g id="Grupo_1075098" data-name="Grupo 1075098">
                  <g id="Grupo_1075097" data-name="Grupo 1075097" clip-path="url(#clip-path-9)">
                    <rect id="Rectángulo_379797" data-name="Rectángulo 379797" width="20.582" height="1.721" transform="translate(0 0.001)"/>
                  </g>
                </g>
              </g>
              <g id="Grupo_1075102" data-name="Grupo 1075102" transform="translate(252.053 111.908)" opacity="0.3">
                <g id="Grupo_1075101" data-name="Grupo 1075101">
                  <g id="Grupo_1075100" data-name="Grupo 1075100" clip-path="url(#clip-path-10)">
                    <path id="Trazado_642761" data-name="Trazado 642761" d="M250.458,109.545l16.855,12.663v9.638l-20.583-15.9v-6.4Z" transform="translate(-246.731 -109.545)" fill="#fff"/>
                  </g>
                </g>
              </g>
              <g id="Grupo_1075105" data-name="Grupo 1075105" transform="translate(252.053 122.597)" opacity="0.3">
                <g id="Grupo_1075104" data-name="Grupo 1075104">
                  <g id="Grupo_1075103" data-name="Grupo 1075103" clip-path="url(#clip-path-11)">
                    <path id="Trazado_642762" data-name="Trazado 642762" d="M267.312,135.473v4.386l-20.582-15.564v-4.285Z" transform="translate(-246.731 -120.009)" fill="#fff"/>
                  </g>
                </g>
              </g>
              <rect id="Rectángulo_379801" data-name="Rectángulo 379801" width="0.997" height="48.207" transform="translate(261.844 111.148)" fill="#263238"/>
              <rect id="Rectángulo_379802" data-name="Rectángulo 379802" width="27.628" height="55.32" transform="translate(209.164 107.835)" fill="#e0e0e0"/>
              <rect id="Rectángulo_379803" data-name="Rectángulo 379803" width="24.435" height="51.145" transform="translate(210.542 109.679)" fill="#263238"/>
              <rect id="Rectángulo_379804" data-name="Rectángulo 379804" width="20.582" height="46.686" transform="translate(212.469 111.908)" fill="#455a64"/>
              <g id="Grupo_1075108" data-name="Grupo 1075108" transform="translate(212.469 111.908)" opacity="0.3">
                <g id="Grupo_1075107" data-name="Grupo 1075107">
                  <g id="Grupo_1075106" data-name="Grupo 1075106" clip-path="url(#clip-path-12)">
                    <rect id="Rectángulo_379805" data-name="Rectángulo 379805" width="20.582" height="1.721" transform="translate(0 0.001)"/>
                  </g>
                </g>
              </g>
              <g id="Grupo_1075111" data-name="Grupo 1075111" transform="translate(212.469 111.908)" opacity="0.3">
                <g id="Grupo_1075110" data-name="Grupo 1075110">
                  <g id="Grupo_1075109" data-name="Grupo 1075109" clip-path="url(#clip-path-13)">
                    <path id="Trazado_642763" data-name="Trazado 642763" d="M211.711,109.545l16.854,12.663v9.638l-20.582-15.9v-6.4Z" transform="translate(-207.983 -109.545)" fill="#fff"/>
                  </g>
                </g>
              </g>
              <g id="Grupo_1075114" data-name="Grupo 1075114" transform="translate(212.469 122.597)" opacity="0.3">
                <g id="Grupo_1075113" data-name="Grupo 1075113">
                  <g id="Grupo_1075112" data-name="Grupo 1075112" clip-path="url(#clip-path-14)">
                    <path id="Trazado_642764" data-name="Trazado 642764" d="M228.565,135.473v4.386l-20.582-15.564v-4.285Z" transform="translate(-207.983 -120.009)" fill="#fff"/>
                  </g>
                </g>
              </g>
              <rect id="Rectángulo_379809" data-name="Rectángulo 379809" width="0.997" height="48.207" transform="translate(222.262 111.148)" fill="#263238"/>
              <rect id="Rectángulo_379810" data-name="Rectángulo 379810" width="34.801" height="47.071" transform="translate(277.194 175.48)" fill="#e0e0e0"/>
              <rect id="Rectángulo_379811" data-name="Rectángulo 379811" width="30.827" height="43.512" transform="translate(278.911 177.611)" fill="#263238"/>
              <rect id="Rectángulo_379812" data-name="Rectángulo 379812" width="25.911" height="39.424" transform="translate(281.638 179.655)" fill="#455a64"/>
              <g id="Grupo_1075117" data-name="Grupo 1075117" transform="translate(281.638 179.739)" opacity="0.3">
                <g id="Grupo_1075116" data-name="Grupo 1075116">
                  <g id="Grupo_1075115" data-name="Grupo 1075115" clip-path="url(#clip-path-15)">
                    <path id="Trazado_642765" data-name="Trazado 642765" d="M282.363,175.945l19.24,18.3v13.334l-25.911-26.416v-5.216Z" transform="translate(-275.692 -175.945)" fill="#fff"/>
                  </g>
                </g>
              </g>
              <g id="Grupo_1075120" data-name="Grupo 1075120" transform="translate(281.638 203.724)" opacity="0.3">
                <g id="Grupo_1075119" data-name="Grupo 1075119">
                  <g id="Grupo_1075118" data-name="Grupo 1075118" clip-path="url(#clip-path-16)">
                    <path id="Trazado_642766" data-name="Trazado 642766" d="M275.692,199.423l16.869,15.439h-7.423l-9.446-9.364Z" transform="translate(-275.692 -199.423)" fill="#fff"/>
                  </g>
                </g>
              </g>
              <rect id="Rectángulo_379815" data-name="Rectángulo 379815" width="1.438" height="40.599" transform="translate(293.605 179.068)" fill="#263238"/>
              <rect id="Rectángulo_379816" data-name="Rectángulo 379816" width="34.801" height="47.071" transform="translate(165.589 175.48)" fill="#e0e0e0"/>
              <rect id="Rectángulo_379817" data-name="Rectángulo 379817" width="30.827" height="43.512" transform="translate(167.576 177.611)" fill="#263238"/>
              <rect id="Rectángulo_379818" data-name="Rectángulo 379818" width="25.911" height="39.424" transform="translate(170.305 179.655)" fill="#455a64"/>
              <g id="Grupo_1075123" data-name="Grupo 1075123" transform="translate(170.305 179.739)" opacity="0.3">
                <g id="Grupo_1075122" data-name="Grupo 1075122">
                  <g id="Grupo_1075121" data-name="Grupo 1075121" clip-path="url(#clip-path-15)">
                    <path id="Trazado_642767" data-name="Trazado 642767" d="M173.379,175.945l19.24,18.3v13.334l-25.911-26.416v-5.216Z" transform="translate(-166.709 -175.945)" fill="#fff"/>
                  </g>
                </g>
              </g>
              <g id="Grupo_1075126" data-name="Grupo 1075126" transform="translate(170.305 203.724)" opacity="0.3">
                <g id="Grupo_1075125" data-name="Grupo 1075125">
                  <g id="Grupo_1075124" data-name="Grupo 1075124" clip-path="url(#clip-path-16)">
                    <path id="Trazado_642768" data-name="Trazado 642768" d="M166.709,199.423l16.869,15.439h-7.423l-9.446-9.364Z" transform="translate(-166.709 -199.423)" fill="#fff"/>
                  </g>
                </g>
              </g>
              <rect id="Rectángulo_379821" data-name="Rectángulo 379821" width="1.438" height="40.599" transform="translate(182.27 179.068)" fill="#263238"/>
              <rect id="Rectángulo_379822" data-name="Rectángulo 379822" width="41.52" height="66.762" transform="translate(217.837 175.481)" fill="#e0e0e0"/>
              <rect id="Rectángulo_379823" data-name="Rectángulo 379823" width="35.092" height="63.7" transform="translate(221.246 178.761)" fill="#263238"/>
              <rect id="Rectángulo_379824" data-name="Rectángulo 379824" width="24.769" height="7.884" transform="translate(226.407 184.299)" fill="#455a64"/>
              <rect id="Rectángulo_379825" data-name="Rectángulo 379825" width="10.469" height="20.62" transform="translate(240.707 195.555)" fill="#455a64"/>
              <rect id="Rectángulo_379826" data-name="Rectángulo 379826" width="10.469" height="20.62" transform="translate(226.829 195.555)" fill="#455a64"/>
              <g id="Grupo_1075129" data-name="Grupo 1075129" transform="translate(226.829 196.796)" opacity="0.3">
                <g id="Grupo_1075128" data-name="Grupo 1075128">
                  <g id="Grupo_1075127" data-name="Grupo 1075127" clip-path="url(#clip-path-19)">
                    <path id="Trazado_642769" data-name="Trazado 642769" d="M222.04,192.641,232.51,201.1v6.118l-10.469-8.911Z" transform="translate(-222.04 -192.641)" fill="#fff"/>
                  </g>
                </g>
              </g>
              <g id="Grupo_1075132" data-name="Grupo 1075132" transform="translate(240.707 199.367)" opacity="0.3">
                <g id="Grupo_1075131" data-name="Grupo 1075131">
                  <g id="Grupo_1075130" data-name="Grupo 1075130" clip-path="url(#clip-path-20)">
                    <path id="Trazado_642770" data-name="Trazado 642770" d="M246.094,203.685v2.477l-10.469-8.24v-2.764Z" transform="translate(-235.625 -195.158)" fill="#fff"/>
                  </g>
                </g>
              </g>
              <rect id="Rectángulo_379829" data-name="Rectángulo 379829" width="10.579" height="3.681" transform="translate(233.307 170.435)" fill="#e0e0e0"/>
              <path id="Trazado_642771" data-name="Trazado 642771" d="M220.327,215.362a1.646,1.646,0,1,0,1.641-1.5,1.577,1.577,0,0,0-1.641,1.5" transform="translate(4.752 4.613)" fill="#455a64"/>
              <g id="Grupo_1075135" data-name="Grupo 1075135" transform="translate(148.908 55.419)" opacity="0.3">
                <g id="Grupo_1075134" data-name="Grupo 1075134">
                  <g id="Grupo_1075133" data-name="Grupo 1075133" clip-path="url(#clip-path-21)">
                    <path id="Trazado_642772" data-name="Trazado 642772" d="M241.59,57.781,150.439,153.24h-4.675v-5.685h4.675l87.994-93.3Z" transform="translate(-145.764 -54.249)"/>
                  </g>
                </g>
              </g>
              <path id="Trazado_642773" data-name="Trazado 642773" d="M45.661,232.377,41.315,236.7q-2.184-2.173-4.253-4.416" transform="translate(0.799 5.01)" fill="none" stroke="#0c0c0c" stroke-miterlimit="10" stroke-width="1"/>
              <path id="Trazado_642774" data-name="Trazado 642774" d="M29.895,227.878a141.15,141.15,0,0,1,202.2-194.589" transform="translate(0.011 0.011)" fill="none" stroke="#0c0c0c" stroke-miterlimit="10" stroke-width="1" stroke-dasharray="12.059 12.059"/>
              <path id="Trazado_642775" data-name="Trazado 642775" d="M231.744,36.565q2.253,2.058,4.438,4.23l-4.3,4.37" transform="translate(4.998 0.789)" fill="none" stroke="#0c0c0c" stroke-miterlimit="10" stroke-width="1"/>
              <path id="Trazado_642776" data-name="Trazado 642776" d="M227.582,53.177l-82.649,84.039L49.553,232.1" transform="translate(1.069 1.147)" fill="none" stroke="#0c0c0c" stroke-miterlimit="10" stroke-width="1" stroke-dasharray="11.492 11.492"/>
            </g>
          </g>
          <path id="Trazado_642777" data-name="Trazado 642777" d="M40.128,238.573h88.544l1.112-90.157Z" transform="translate(0.866 3.201)" fill="#263238"/>
          <text id="_5_m" data-name="5 m" transform="translate(83.159 223.729)" fill="#fff" font-size="15" font-family="Roboto-Bold, Roboto" font-weight="700"><tspan x="0" y="0">5 m</tspan></text>
          <text id="_60_" data-name="60°" transform="translate(34.985 63.847)" fill="#263238" font-size="15" font-family="Roboto-Bold, Roboto" font-weight="700"><tspan x="0" y="0">60°</tspan></text>
        </g>
      </g>
    </g>
  </g>
</svg>
