<svg xmlns="http://www.w3.org/2000/svg" xmlns:xlink="http://www.w3.org/1999/xlink" width="121.668" height="125" viewBox="0 0 121.668 125">
  <defs>
    <clipPath id="clip-path">
      <rect id="Rectángulo_379575" data-name="Rectángulo 379575" width="59.037" height="71.67" fill="none"/>
    </clipPath>
  </defs>
  <g id="img10" transform="translate(-739.498 -2563)">
    <g id="Grupo_1073536" data-name="Grupo 1073536" transform="translate(350.83 -3434)">
      <g id="Grupo_1072788" data-name="Grupo 1072788" transform="translate(13.999 114.601)">
        <g id="Grupo_1072785" data-name="Grupo 1072785" transform="translate(386.668 5997)">
          <path id="Trazado_608385" data-name="Trazado 608385" d="M48.909,0C75.921,0,97.818,2.328,97.818,5.2s-21.9,5.2-48.909,5.2S0,8.071,0,5.2,21.9,0,48.909,0Z" transform="translate(0 0)" fill="none"/>
        </g>
        <g id="Grupo_1073383" data-name="Grupo 1073383" transform="translate(386.668 5997)">
          <path id="Trazado_608385-2" data-name="Trazado 608385" d="M48.909,0C75.921,0,97.818,2.328,97.818,5.2s-21.9,5.2-48.909,5.2S0,8.071,0,5.2,21.9,0,48.909,0Z" transform="translate(0 0)" fill="#11462e"/>
        </g>
      </g>
      <g id="Grupo_1073526" data-name="Grupo 1073526" transform="translate(2)">
        <g id="Grupo_1072785-2" data-name="Grupo 1072785" transform="translate(386.668 5997)">
          <path id="Trazado_608385-3" data-name="Trazado 608385" d="M60.834,0A60.834,60.834,0,1,1,0,60.834,60.834,60.834,0,0,1,60.834,0Z" transform="translate(0 0)" fill="none"/>
        </g>
        <g id="Grupo_1073383-2" data-name="Grupo 1073383" transform="translate(386.668 5997)">
          <path id="Trazado_608385-4" data-name="Trazado 608385" d="M60.834,0A60.834,60.834,0,1,1,0,60.834,60.834,60.834,0,0,1,60.834,0Z" transform="translate(0 0)" fill="#fff"/>
        </g>
      </g>
    </g>
    <g id="Grupo_1074750" data-name="Grupo 1074750">
      <rect id="Rectángulo_378350" data-name="Rectángulo 378350" width="73" height="73" transform="translate(763 2589)" fill="#fff"/>
      <g id="Grupo_1074749" data-name="Grupo 1074749" transform="translate(770 2590)">
        <g id="Grupo_1074748" data-name="Grupo 1074748" transform="translate(0 0)" clip-path="url(#clip-path)">
          <path id="Trazado_642004" data-name="Trazado 642004" d="M53.3,4.106V5.741H20.127v10.28a4.1,4.1,0,0,1-4.106,4.106H5.741V65.935H4.106A4.116,4.116,0,0,1,0,61.814V4.106A4.1,4.1,0,0,1,4.106,0H49.19A4.11,4.11,0,0,1,53.3,4.106" transform="translate(0 0)" fill="#d3f4fe"/>
          <path id="Trazado_642005" data-name="Trazado 642005" d="M60.986,11.8V69.509a4.107,4.107,0,0,1-4.107,4.107H11.8a4.108,4.108,0,0,1-4.107-4.107V22.076h10.28a4.108,4.108,0,0,0,4.107-4.107V7.689h34.8A4.107,4.107,0,0,1,60.986,11.8" transform="translate(-1.949 -1.949)" fill="#f4f6f8"/>
          <path id="Trazado_642006" data-name="Trazado 642006" d="M60.989,11.8V69.516a4.108,4.108,0,0,1-4.106,4.106H11.8A4.1,4.1,0,0,1,7.7,69.65a.812.812,0,0,0,.134.007H24.969A32.063,32.063,0,0,0,57.025,37.594V7.836a.811.811,0,0,0-.007-.134,4.1,4.1,0,0,1,3.972,4.1" transform="translate(-1.952 -1.952)" fill="#e4e8eb"/>
          <path id="Trazado_642007" data-name="Trazado 642007" d="M7.689,22.075H17.968a4.108,4.108,0,0,0,4.108-4.107V7.688Z" transform="translate(-1.949 -1.948)" fill="#96b8a9"/>
          <path id="Trazado_642008" data-name="Trazado 642008" d="M22.077,7.692v10.28a4.1,4.1,0,0,1-4.106,4.106H7.691l2.553-2.553h5.174a4.1,4.1,0,0,0,4.106-4.106V10.245Z" transform="translate(-1.949 -1.949)" fill="#11462e"/>
          <line id="Línea_2950" data-name="Línea 2950" x2="2.422" transform="translate(25.801 11.698)" fill="none" stroke="#6fd9fb" stroke-linecap="round" stroke-linejoin="round" stroke-width="2"/>
          <line id="Línea_2951" data-name="Línea 2951" x2="2.422" transform="translate(32.389 11.698)" fill="none" stroke="#6fd9fb" stroke-linecap="round" stroke-linejoin="round" stroke-width="2"/>
          <line id="Línea_2952" data-name="Línea 2952" x2="2.422" transform="translate(38.977 11.698)" fill="none" stroke="#6fd9fb" stroke-linecap="round" stroke-linejoin="round" stroke-width="2"/>
          <path id="Trazado_642009" data-name="Trazado 642009" d="M58.817,56.949a.278.278,0,0,1-.031.1.748.748,0,0,1-.156.239l-2.136,2.135a.747.747,0,1,1-1.053-1.06l.859-.859H36.182V60.54H37.57a.747.747,0,0,1,0,1.493H36.182v3.023H37.57a.747.747,0,1,1,0,1.493H36.182v3.964a.747.747,0,1,1-1.493,0v-13H12.778a.747.747,0,0,1,0-1.493h8.4V54.627a.747.747,0,1,1,1.493,0v1.389h7.5V54.627a.747.747,0,1,1,1.493,0v1.389h3.023V39.6a3.771,3.771,0,0,0-3.023,3.688v4.569a.747.747,0,0,1-1.493,0V43.287a5.249,5.249,0,0,1,4.517-5.2V27l-.859.851a.721.721,0,0,1-.522.224.731.731,0,0,1-.531-.224.745.745,0,0,1,0-1.053l2.128-2.128.007-.007a.719.719,0,0,1,.709-.179.246.246,0,0,1,.1.03.619.619,0,0,1,.238.149v.007L38.1,26.8a.744.744,0,0,1-1.053,1.053l-.866-.859V28.9H37.57a.747.747,0,0,1,0,1.493H36.182v3.031H37.57a.747.747,0,0,1,0,1.493H36.182v3.173a5.26,5.26,0,0,1,4.494,5.2v2.12a3.77,3.77,0,1,0,7.539,0V34.172a.747.747,0,1,1,1.493,0V45.407a5.263,5.263,0,1,1-10.525,0v-2.12a3.778,3.778,0,0,0-3-3.688v2.859H37.57a.747.747,0,0,1,0,1.493H36.182v3.031H37.57a.747.747,0,1,1,0,1.493H36.182V51.5H37.57a.747.747,0,1,1,0,1.493H36.182v3.023h3V54.627a.747.747,0,1,1,1.493,0v1.389h7.539V54.627a.747.747,0,1,1,1.493,0v1.389H56.3l-.859-.859A.744.744,0,0,1,56.494,54.1l2.1,2.1c.015.015.03.022.038.037a.743.743,0,0,1,.187.709" transform="translate(-3.049 -6.197)" fill="#434a54"/>
          <path id="Trazado_642010" data-name="Trazado 642010" d="M34.77,73.539v2.516A5.247,5.247,0,0,1,29.529,81.3a5.251,5.251,0,0,1-5.248-5.241V73.539a.747.747,0,1,1,1.493,0v2.516a3.751,3.751,0,0,0,7.5,0V73.539a.747.747,0,0,1,1.493,0" transform="translate(-6.154 -18.449)" fill="#434a54"/>
        </g>
      </g>
    </g>
  </g>
</svg>
