<svg xmlns="http://www.w3.org/2000/svg" xmlns:xlink="http://www.w3.org/1999/xlink" width="400" height="270.769" viewBox="0 0 400 270.769">
  <defs>
    <clipPath id="clip-path">
      <rect id="Rectángulo_379835" data-name="Rectángulo 379835" width="372" height="252" transform="translate(194 4877)" fill="#fff" stroke="#707070" stroke-width="1"/>
    </clipPath>
    <clipPath id="clip-path-2">
      <rect id="Rectángulo_379738" data-name="Rectángulo 379738" width="360.439" height="222.737" fill="none"/>
    </clipPath>
    <clipPath id="clip-path-4">
      <rect id="Rectángulo_379692" data-name="Rectángulo 379692" width="0.975" height="0.989" fill="none"/>
    </clipPath>
    <clipPath id="clip-path-7">
      <rect id="Rectángulo_379696" data-name="Rectángulo 379696" width="75.548" height="5.702" fill="none"/>
    </clipPath>
    <clipPath id="clip-path-9">
      <rect id="Rectángulo_379704" data-name="Rectángulo 379704" width="22.427" height="1.877" fill="none"/>
    </clipPath>
    <clipPath id="clip-path-10">
      <rect id="Rectángulo_379705" data-name="Rectángulo 379705" width="22.427" height="24.302" fill="none"/>
    </clipPath>
    <clipPath id="clip-path-11">
      <rect id="Rectángulo_379706" data-name="Rectángulo 379706" width="22.427" height="21.629" fill="none"/>
    </clipPath>
    <clipPath id="clip-path-15">
      <rect id="Rectángulo_379719" data-name="Rectángulo 379719" width="28.235" height="34.468" fill="none"/>
    </clipPath>
    <clipPath id="clip-path-16">
      <rect id="Rectángulo_379720" data-name="Rectángulo 379720" width="18.382" height="16.824" fill="none"/>
    </clipPath>
    <clipPath id="clip-path-17">
      <rect id="Rectángulo_379725" data-name="Rectángulo 379725" width="28.233" height="34.468" fill="none"/>
    </clipPath>
    <clipPath id="clip-path-18">
      <rect id="Rectángulo_379726" data-name="Rectángulo 379726" width="18.381" height="16.824" fill="none"/>
    </clipPath>
    <clipPath id="clip-path-19">
      <rect id="Rectángulo_379733" data-name="Rectángulo 379733" width="11.408" height="15.883" fill="none"/>
    </clipPath>
    <clipPath id="clip-path-20">
      <rect id="Rectángulo_379734" data-name="Rectángulo 379734" width="11.408" height="11.992" fill="none"/>
    </clipPath>
    <clipPath id="clip-path-21">
      <rect id="Rectángulo_379736" data-name="Rectángulo 379736" width="104.42" height="107.868" fill="none"/>
    </clipPath>
  </defs>
  <g id="img12" transform="translate(-180 -4801)">
    <g id="Grupo_1074972" data-name="Grupo 1074972" transform="translate(0 3051.466)">
      <g id="Image_Place_Holder" data-name="Image Place Holder" transform="translate(180 1749.534)">
        <rect id="Image_Place_Holder-2" data-name="Image Place Holder" width="400" height="270.769" rx="10" fill="#96b8a9"/>
      </g>
    </g>
    <g id="Enmascarar_grupo_1074811" data-name="Enmascarar grupo 1074811" transform="translate(0 -67)" clip-path="url(#clip-path)">
      <g id="Grupo_1075029" data-name="Grupo 1075029" transform="translate(201 4905.263)">
        <g id="Grupo_1075028" data-name="Grupo 1075028" clip-path="url(#clip-path-2)">
          <g id="Grupo_1074979" data-name="Grupo 1074979">
            <g id="Grupo_1074978" data-name="Grupo 1074978" clip-path="url(#clip-path-2)">
              <path id="Trazado_642534" data-name="Trazado 642534" d="M269.429,38.565a15.241,15.241,0,0,1,3.013-4.053,9.828,9.828,0,0,1,5.672-2.392c2.3-.184,4.855.623,5.6,2.047.331-3.209,1.032-6.5,3.509-9.286A15.823,15.823,0,0,1,299.274,20.1a15.2,15.2,0,0,1,10.882,5.1c2.22,2.668,2.982,5.73,3.711,8.724,1.769-1.407,5.5-.965,7.35.4s2.314,3.274,2.706,5.072H268.242Z" transform="translate(30.358 2.274)" fill="#ebebeb"/>
              <path id="Trazado_642535" data-name="Trazado 642535" d="M236.966,16.062a12.145,12.145,0,0,1,2.461-3.227,8.135,8.135,0,0,1,4.632-1.9c1.881-.146,3.966.5,4.578,1.63A12.259,12.259,0,0,1,251.5,5.167a13.1,13.1,0,0,1,9.839-3.8,12.539,12.539,0,0,1,8.889,4.062c1.813,2.124,2.436,4.561,3.031,6.945,1.445-1.12,4.495-.768,6,.318a6.07,6.07,0,0,1,2.211,4.039H236Z" transform="translate(26.709 0.153)" fill="#ebebeb"/>
              <path id="Trazado_642536" data-name="Trazado 642536" d="M3.578,139.461a2.407,2.407,0,0,0,.545,1.474,5.75,5.75,0,0,1,.739,2.027s.252,2.743.291,3.628-.024,1.688-.707,1.465-.844-.771-.82-2.389l-.331-.885-.434.617-.309,2.569s1.594,1.848,1.427,2.321-.491.364-.491.364l-.311.245-2.506-2.17L0,145.229l.6-4.705.378-3.057,3.161.99Z" transform="translate(0 15.558)" fill="#ffc09d"/>
              <path id="Trazado_642537" data-name="Trazado 642537" d="M8.667,107.864s-1.511-.22-3.016,2.4c-1.872,3.255-2.88,15.593-2.88,15.593L.541,143.876l3.128-.3s3.609-13.059,4.46-14.928,1.546-13.217,1.546-13.217Z" transform="translate(0.061 12.207)" fill="#ffc09d"/>
              <path id="Trazado_642538" data-name="Trazado 642538" d="M33.407,139.615a2.407,2.407,0,0,1-.545,1.474,5.75,5.75,0,0,0-.739,2.027s-.252,2.743-.291,3.628.024,1.688.707,1.465.844-.771.82-2.389l.331-.885.434.617.309,2.569s-1.594,1.848-1.427,2.321.491.364.491.364l.311.245,2.506-2.17.671-3.5-.6-4.705L36,137.621l-3.161.99Z" transform="translate(3.602 15.575)" fill="#ffc09d"/>
              <path id="Trazado_642539" data-name="Trazado 642539" d="M28.722,108.017s1.511-.22,3.016,2.4c1.872,3.255,2.88,15.593,2.88,15.593l2.231,18.022-3.128-.3s-3.609-13.059-4.46-14.928-1.546-13.217-1.546-13.217Z" transform="translate(3.136 12.224)" fill="#ffc09d"/>
              <path id="Trazado_642540" data-name="Trazado 642540" d="M27.132,185.4l-.266,7s7.021,2.619,7.1,3.917l-13.582-.029-.032-10.916Z" transform="translate(2.303 20.979)" fill="#263238"/>
              <path id="Trazado_642541" data-name="Trazado 642541" d="M22.472,191.144a.555.555,0,0,0-.385.632.533.533,0,0,0,.623.386.583.583,0,0,0,.4-.671.553.553,0,0,0-.692-.331" transform="translate(2.498 21.63)" fill="#e0e0e0"/>
              <path id="Trazado_642542" data-name="Trazado 642542" d="M20.378,195.284l.04-1.1,13.007.44s.6.264.534.689Z" transform="translate(2.306 21.977)" fill="#455a64"/>
              <path id="Trazado_642543" data-name="Trazado 642543" d="M26.527,191.623c0,.067-.334.1-.661.308s-.5.491-.562.464.039-.409.44-.659.8-.175.784-.114" transform="translate(2.862 21.68)" fill="#fff"/>
              <path id="Trazado_642544" data-name="Trazado 642544" d="M27.772,192.152c.014.065-.273.177-.5.456s-.292.577-.357.573-.107-.377.18-.72.675-.373.676-.309" transform="translate(3.041 21.744)" fill="#fff"/>
              <path id="Trazado_642545" data-name="Trazado 642545" d="M28.411,193.8c-.06.014-.151-.317.019-.68s.482-.507.51-.452-.165.249-.3.55-.163.576-.228.582" transform="translate(3.206 21.804)" fill="#fff"/>
              <path id="Trazado_642546" data-name="Trazado 642546" d="M26.441,190.2c-.028.06-.332-.032-.707-.007s-.668.141-.7.085.247-.293.689-.315.753.185.72.237" transform="translate(2.833 21.499)" fill="#fff"/>
              <path id="Trazado_642547" data-name="Trazado 642547" d="M13,185.434l-.736,8.438,1.342,6.84a.867.867,0,0,1-1.488.756c-1.211-1.319-5.639-6.2-5.551-6.812.1-.711.185-8.951.185-8.951Z" transform="translate(0.744 20.986)" fill="#263238"/>
              <path id="Trazado_642548" data-name="Trazado 642548" d="M12.867,200.861l-6.26-7.654-.023.358a1.314,1.314,0,0,0,.255.865c.5.666,1.907,2.471,5.258,6.157a.864.864,0,0,0,.771.274" transform="translate(0.745 21.866)" fill="#455a64"/>
              <g id="Grupo_1074977" data-name="Grupo 1074977" transform="translate(8.474 212.359)" opacity="0.6">
                <g id="Grupo_1074976" data-name="Grupo 1074976">
                  <g id="Grupo_1074975" data-name="Grupo 1074975" clip-path="url(#clip-path-4)">
                    <path id="Trazado_642549" data-name="Trazado 642549" d="M8.4,190.868a.525.525,0,0,1,.1.694.5.5,0,0,1-.686.1.552.552,0,0,1-.1-.735.523.523,0,0,1,.726-.03" transform="translate(-7.612 -190.768)" fill="#fff"/>
                  </g>
                </g>
              </g>
              <path id="Trazado_642550" data-name="Trazado 642550" d="M10.706,196.744a2.65,2.65,0,0,1,.784-.61,2.631,2.631,0,0,1,.985-.124c.008-.02-.095-.092-.291-.134a1.386,1.386,0,0,0-1.368.568c-.109.167-.131.292-.11.3" transform="translate(1.211 22.166)" fill="#fff"/>
              <path id="Trazado_642551" data-name="Trazado 642551" d="M11.181,197.76a7.039,7.039,0,0,1,.773-.315,6.983,6.983,0,0,1,.832-.053.961.961,0,0,0-.874-.128c-.506.114-.773.471-.73.5" transform="translate(1.265 22.321)" fill="#fff"/>
              <path id="Trazado_642552" data-name="Trazado 642552" d="M9.782,195.375a8.7,8.7,0,0,1,1.159-.568,8.857,8.857,0,0,1,1.272-.212,1.924,1.924,0,0,0-1.329.035,1.922,1.922,0,0,0-1.1.745" transform="translate(1.107 22.013)" fill="#fff"/>
              <path id="Trazado_642553" data-name="Trazado 642553" d="M9.791,192.994c.019.052.5-.114,1.108-.1s1.081.194,1.1.142a1.68,1.68,0,0,0-1.1-.328,1.679,1.679,0,0,0-1.112.282" transform="translate(1.108 21.81)" fill="#fff"/>
              <path id="Trazado_642554" data-name="Trazado 642554" d="M9.928,190.769a4.2,4.2,0,0,1,1.151-.13,4.242,4.242,0,0,1,1.1.353c.016-.017-.07-.129-.258-.254a1.876,1.876,0,0,0-.826-.285,1.855,1.855,0,0,0-.866.118c-.208.086-.314.179-.3.2" transform="translate(1.124 21.553)" fill="#fff"/>
              <path id="Trazado_642555" data-name="Trazado 642555" d="M11.089,190.367a.729.729,0,0,0,.032-.318,2.222,2.222,0,0,0-.2-.854.985.985,0,0,0-.393-.5.347.347,0,0,0-.4.052.564.564,0,0,0-.158.373,1.226,1.226,0,0,0,1,1.2,1.423,1.423,0,0,0,1.443-.653.491.491,0,0,0,.049-.407.34.34,0,0,0-.345-.2,1.206,1.206,0,0,0-.576.254,2.464,2.464,0,0,0-.619.619.759.759,0,0,0-.149.284,3.977,3.977,0,0,1,.84-.794,1.137,1.137,0,0,1,.508-.209.183.183,0,0,1,.189.11.336.336,0,0,1-.049.266,1.269,1.269,0,0,1-1.257.552,1.065,1.065,0,0,1-.864-1.007.412.412,0,0,1,.1-.265.189.189,0,0,1,.219-.032.887.887,0,0,1,.34.415,3.289,3.289,0,0,1,.287,1.115" transform="translate(1.129 21.351)" fill="#fff"/>
              <path id="Trazado_642556" data-name="Trazado 642556" d="M14.474,106.789l-.191-15.74c-.176-3.914,1.956-7.279,5.873-7.346l.363.016a7,7,0,0,1,6.71,6.722c.134,3.393.237,7.144.139,8.958-.2,3.754-3.982,4.183-3.982,4.183s-.023,2.285-.021,3.389l-3.023,4.194v.225Z" transform="translate(1.615 9.473)" fill="#ffc09d"/>
              <path id="Trazado_642557" data-name="Trazado 642557" d="M22.951,101.728a9.083,9.083,0,0,1-4.831-1.647,4.668,4.668,0,0,0,4.822,2.688Z" transform="translate(2.051 11.327)" fill="#ff9b6c"/>
              <path id="Trazado_642558" data-name="Trazado 642558" d="M25.017,92.9a.537.537,0,0,1-.54.52.513.513,0,0,1-.532-.507.536.536,0,0,1,.539-.52.513.513,0,0,1,.533.506" transform="translate(2.71 10.457)" fill="#263238"/>
              <path id="Trazado_642559" data-name="Trazado 642559" d="M25.349,91.278c-.069.067-.463-.25-1.041-.273s-1.012.249-1.072.176c-.029-.032.043-.156.234-.283a1.465,1.465,0,0,1,.862-.227,1.415,1.415,0,0,1,.825.3c.171.144.227.273.193.3" transform="translate(2.629 10.261)" fill="#263238"/>
              <path id="Trazado_642560" data-name="Trazado 642560" d="M20.4,92.814a.537.537,0,0,1-.54.52.513.513,0,0,1-.532-.506.536.536,0,0,1,.539-.52.513.513,0,0,1,.533.506" transform="translate(2.187 10.447)" fill="#263238"/>
              <path id="Trazado_642561" data-name="Trazado 642561" d="M20.261,91.189c-.069.067-.464-.25-1.041-.273s-1.012.249-1.072.176c-.029-.032.043-.156.234-.283a1.473,1.473,0,0,1,.862-.227,1.415,1.415,0,0,1,.825.3c.171.144.226.273.193.3" transform="translate(2.053 10.251)" fill="#263238"/>
              <path id="Trazado_642562" data-name="Trazado 642562" d="M21.748,95.678a3.782,3.782,0,0,1,.944-.13c.148-.009.289-.032.318-.132a.751.751,0,0,0-.08-.441q-.185-.544-.39-1.14a19.286,19.286,0,0,1-.858-2.977,19.238,19.238,0,0,1,1.1,2.9c.129.4.254.781.371,1.147a.86.86,0,0,1,.053.582.37.37,0,0,1-.252.2.962.962,0,0,1-.252.024,3.711,3.711,0,0,1-.951-.038" transform="translate(2.453 10.283)" fill="#263238"/>
              <path id="Trazado_642563" data-name="Trazado 642563" d="M20.549,89.58c-.085.144-.639-.033-1.32-.077s-1.253.039-1.316-.116c-.029-.073.094-.2.337-.311a2.3,2.3,0,0,1,2.009.147c.225.144.326.287.289.356" transform="translate(2.027 10.063)" fill="#263238"/>
              <path id="Trazado_642564" data-name="Trazado 642564" d="M25.456,89.757c-.124.128-.59-.021-1.155-.042-.564-.038-1.046.061-1.153-.079-.047-.068.032-.2.245-.316a1.823,1.823,0,0,1,.945-.19,1.8,1.8,0,0,1,.915.288c.2.14.258.277.2.34" transform="translate(2.618 10.087)" fill="#263238"/>
              <path id="Trazado_642565" data-name="Trazado 642565" d="M14.716,92.828c-.062-.03-2.549-.87-2.574,1.7A1.933,1.933,0,0,0,14.71,96.52c0-.073.006-3.692.006-3.692" transform="translate(1.374 10.488)" fill="#ffc09d"/>
              <path id="Trazado_642566" data-name="Trazado 642566" d="M13.868,95.454c-.012-.009-.046.031-.122.065a.447.447,0,0,1-.335,0,1.109,1.109,0,0,1-.5-1,1.479,1.479,0,0,1,.131-.64.519.519,0,0,1,.341-.341.228.228,0,0,1,.263.125c.033.072.017.124.031.128s.056-.042.036-.148a.281.281,0,0,0-.1-.163.337.337,0,0,0-.247-.068.632.632,0,0,0-.472.394,1.534,1.534,0,0,0-.161.716,1.163,1.163,0,0,0,.643,1.117.476.476,0,0,0,.41-.065c.081-.062.095-.12.087-.125" transform="translate(1.44 10.572)" fill="#ff9b6c"/>
              <path id="Trazado_642567" data-name="Trazado 642567" d="M20.121,95.509c.089-.006.092.586.6,1s1.135.35,1.14.432c.009.037-.139.115-.405.124a1.472,1.472,0,0,1-.952-.327,1.284,1.284,0,0,1-.465-.839c-.023-.247.042-.394.082-.391" transform="translate(2.267 10.809)" fill="#263238"/>
              <path id="Trazado_642568" data-name="Trazado 642568" d="M32.811,87.327a.613.613,0,0,0-.282-.36,1.878,1.878,0,0,0-.961-.167,5.408,5.408,0,0,1-2.345-.617,2.677,2.677,0,0,0,.7-.479,1.614,1.614,0,0,0,.483-1.6.361.361,0,0,0-.2-.248c-.167-.052-.315.11-.433.238a1.389,1.389,0,0,1-1.314.54,2.274,2.274,0,0,1-.974-.3l-.032-.037q-.2-.209-.388-.4h0a8.507,8.507,0,0,0-2.634-2,8.738,8.738,0,0,0-4.66-.42,3.53,3.53,0,0,0-2.7,2.716,2.715,2.715,0,0,0-2.727-.287l-.022-.01a3.419,3.419,0,0,0-1.883,2.4c-.017.056-.031.111-.047.167a3.944,3.944,0,0,1-1.355,1.294c-.1.055-.208.122-.22.233s.078.2.167.267a1.985,1.985,0,0,0,.8.344,4.412,4.412,0,0,1-.338.7c-.115.189-.25.416-.155.614a.421.421,0,0,0,.437.2,1.239,1.239,0,0,0,.466-.2c-.115.265-.228.53-.343.794a2.367,2.367,0,0,0,1.084-.059c.2.952.34,2.712.577,3.358a3.852,3.852,0,0,1,1.192.066c.443.153.265.938.847.721.3-.111.761-1.223.864-1.523a14.687,14.687,0,0,0,.706-6.208,4.742,4.742,0,0,1,1.469-1.035l-.045.04a4.276,4.276,0,0,1,3.24-.194,6.944,6.944,0,0,1,1.787,1.847,5.383,5.383,0,0,0,3.95,1.978c.135,1.137.157,2.993.2,4.053l.929-2.109v.009a4.133,4.133,0,0,0,.2-.373l.021-.038v-.006a6.584,6.584,0,0,1,.3-.6l.01.009a.662.662,0,0,0,.977-.874,1.484,1.484,0,0,0-.316-.325,1.048,1.048,0,0,0,.994.271.824.824,0,0,0,.591-.806.7.7,0,0,0-.411-.565,2.36,2.36,0,0,0,1.346-.281c.266-.148.529-.394.443-.728" transform="translate(1.224 9.204)" fill="#263238"/>
              <path id="Trazado_642569" data-name="Trazado 642569" d="M18.064,84.3a3.333,3.333,0,0,0-.382.341,2.7,2.7,0,0,0-.591,1.243,4.8,4.8,0,0,0-.108.955c0,.346.019.718.041,1.11a9.831,9.831,0,0,1,.013,1.233,4.248,4.248,0,0,1-.091.65,1.365,1.365,0,0,1-.273.629.569.569,0,0,1-.533.173.848.848,0,0,1-.475-.276,1.945,1.945,0,0,1-.352-.961l.079.011a3.189,3.189,0,0,1-.466.783,1.121,1.121,0,0,1-.737.391.726.726,0,0,1-.387-.072.624.624,0,0,1-.26-.263.635.635,0,0,1-.076-.335.461.461,0,0,1,.124-.291l.04.036a2.434,2.434,0,0,1-.816.6,2.385,2.385,0,0,1-.252.095.4.4,0,0,1-.09.021.417.417,0,0,1,.086-.036c.056-.022.139-.055.244-.107a2.488,2.488,0,0,0,.787-.607l.04.037a.482.482,0,0,0-.031.559.56.56,0,0,0,.236.233.661.661,0,0,0,.351.061,1.05,1.05,0,0,0,.683-.372,3.072,3.072,0,0,0,.45-.766l.056-.12.023.13a1.886,1.886,0,0,0,.335.918.757.757,0,0,0,.424.246.478.478,0,0,0,.454-.146,1.3,1.3,0,0,0,.252-.588,4.364,4.364,0,0,0,.091-.637,9.941,9.941,0,0,0-.009-1.224c-.02-.391-.041-.764-.032-1.114a4.742,4.742,0,0,1,.119-.968,2.667,2.667,0,0,1,.628-1.252,1.532,1.532,0,0,1,.406-.317" transform="translate(1.411 9.541)" fill="#455a64"/>
              <path id="Trazado_642570" data-name="Trazado 642570" d="M29.082,88.308s-.009.01-.03.026l-.095.067a1.3,1.3,0,0,1-.161.1,2.3,2.3,0,0,1-.23.118,3.336,3.336,0,0,1-1.614.271,4.258,4.258,0,0,1-2.261-.864,7.389,7.389,0,0,1-1.926-2.272c-.268-.459-.486-.928-.728-1.363a4.991,4.991,0,0,0-.827-1.154,2.578,2.578,0,0,0-1.078-.671,1.85,1.85,0,0,0-.571-.072,2.026,2.026,0,0,0-.524.095,2.184,2.184,0,0,0-1.221,1.01,2.591,2.591,0,0,0-.2.562.172.172,0,0,1,0-.039c.006-.031.011-.069.019-.116a1.9,1.9,0,0,1,.148-.423,2.141,2.141,0,0,1,.427-.567,2.218,2.218,0,0,1,.8-.486,2.1,2.1,0,0,1,.542-.1,1.9,1.9,0,0,1,.594.07,2.642,2.642,0,0,1,1.113.683,5,5,0,0,1,.846,1.171c.244.437.462.906.728,1.36a7.4,7.4,0,0,0,1.9,2.25,4.246,4.246,0,0,0,2.219.868,3.385,3.385,0,0,0,1.6-.242,5.342,5.342,0,0,0,.53-.279" transform="translate(1.994 9.328)" fill="#455a64"/>
              <path id="Trazado_642571" data-name="Trazado 642571" d="M34.658,141.55l-.009,0c-.043-.938-.129-1.995-.235-2.767a29.564,29.564,0,0,1-2.934.7,27.885,27.885,0,0,1-6.943.238l-.156-.013a73.614,73.614,0,0,1-14.6-3.264l-.735,5.694-1.8,27.289-1.311,27.8,8.148,0s2.871-21.384,3.095-24.344c.248-3.294,4.139-23.74,4.139-23.74l.707-.178-.436,47.92h8.438s4.567-51.5,4.637-53.327c.026-.694.022-1.366,0-2.01" transform="translate(0.672 15.442)" fill="#263238"/>
              <path id="Trazado_642572" data-name="Trazado 642572" d="M34.566,138.517,33.814,125.4l-.045-3.183,4.916-2.33L35.36,108.946a4.879,4.879,0,0,0-2.6-2.662c-.068-.028-.136-.053-.2-.077l-7.684-2.724c-.4,1.249-2.416,2.1-4.172,2.194a6.065,6.065,0,0,1-4.961-2.714l-.024.008a42.013,42.013,0,0,0-6.377,2.3,8.792,8.792,0,0,0-3.611,3.448c-1.526,2.614-4.583,9.865-4.583,9.865L9.53,121.4c.063-.3.154-.722.253-1.19l0,.017,1.011,10.988-.475,6.307A7.294,7.294,0,0,0,8.783,140.4v2.133a92.048,92.048,0,0,0,16.512,3.54l.158.013a28.2,28.2,0,0,0,7.194-.265c.071-.012.141-.027.212-.04a22.235,22.235,0,0,0,2.627-.65l.106-.032a29.76,29.76,0,0,0-.653-5.334c-.456-1.142-.372-1.247-.372-1.247" transform="translate(0.129 11.653)" fill="#455a64"/>
              <path id="Trazado_642573" data-name="Trazado 642573" d="M30.923,110.133a2.6,2.6,0,0,0-.046.488c-.022.347-.053.794-.091,1.33-.078,1.123-.191,2.675-.284,4.391s-.135,3.275-.124,4.4c.006.564.02,1.021.043,1.335a2.77,2.77,0,0,0,.053.488,2.639,2.639,0,0,0,.016-.49c0-.314,0-.769.011-1.331.02-1.125.081-2.678.175-4.395s.186-3.267.232-4.394c.027-.562.038-1.019.038-1.335a2.71,2.71,0,0,0-.023-.49" transform="translate(3.438 12.464)" fill="#263238"/>
              <path id="Trazado_642574" data-name="Trazado 642574" d="M7.943,110.4a2.082,2.082,0,0,0,.043.435c.046.312.1.7.171,1.176.146.991.336,2.361.509,3.881s.289,2.9.367,3.9c.038.471.069.867.094,1.182a2.264,2.264,0,0,0,.055.433,2.036,2.036,0,0,0,.013-.436c0-.281-.014-.686-.038-1.188-.047-1-.147-2.386-.318-3.909s-.382-2.893-.56-3.881c-.088-.494-.166-.892-.226-1.167a2.085,2.085,0,0,0-.11-.423" transform="translate(0.899 12.495)" fill="#263238"/>
            </g>
          </g>
          <g id="Grupo_1074981" data-name="Grupo 1074981">
            <g id="Grupo_1074980" data-name="Grupo 1074980" clip-path="url(#clip-path-2)">
              <path id="Trazado_642575" data-name="Trazado 642575" d="M30,196.6c0,.16,72.612.289,162.165.289,89.583,0,162.18-.129,162.18-.289s-72.6-.289-162.18-.289c-89.553,0-162.165.129-162.165.289" transform="translate(3.395 22.218)" fill="#263238"/>
            </g>
          </g>
          <path id="Trazado_642576" data-name="Trazado 642576" d="M332.831,216.824V111.905L236.4,13.481,140.517,115.152V216.824Z" transform="translate(15.903 1.526)" fill="#fafafa"/>
          <g id="Grupo_1074986" data-name="Grupo 1074986">
            <g id="Grupo_1074985" data-name="Grupo 1074985" clip-path="url(#clip-path-2)">
              <g id="Grupo_1074984" data-name="Grupo 1074984" transform="translate(212.699 48.206)" opacity="0.3">
                <g id="Grupo_1074983" data-name="Grupo 1074983">
                  <g id="Grupo_1074982" data-name="Grupo 1074982" clip-path="url(#clip-path-7)">
                    <rect id="Rectángulo_379695" data-name="Rectángulo 379695" width="75.548" height="5.702" transform="translate(0 0)"/>
                  </g>
                </g>
              </g>
            </g>
          </g>
          <rect id="Rectángulo_379698" data-name="Rectángulo 379698" width="71.14" height="5.284" transform="translate(216.925 45.05)" fill="#ff725e"/>
          <rect id="Rectángulo_379699" data-name="Rectángulo 379699" width="192.807" height="20.212" transform="translate(156.404 198.37)" fill="#ebebeb"/>
          <g id="Grupo_1075027" data-name="Grupo 1075027">
            <g id="Grupo_1075026" data-name="Grupo 1075026" clip-path="url(#clip-path-2)">
              <path id="Trazado_642577" data-name="Trazado 642577" d="M258.749,187.177h8.8a2.642,2.642,0,0,0,2.642-2.642v-.57a2.642,2.642,0,0,0-2.642-2.642h-8.8a2.642,2.642,0,0,0-2.642,2.642v.57a2.642,2.642,0,0,0,2.642,2.642" transform="translate(28.985 20.521)" fill="#e0e0e0"/>
              <path id="Trazado_642578" data-name="Trazado 642578" d="M244.293,187.177h8.8a2.642,2.642,0,0,0,2.642-2.642v-.57a2.642,2.642,0,0,0-2.642-2.642h-8.8a2.642,2.642,0,0,0-2.642,2.642v.57a2.641,2.641,0,0,0,2.642,2.642" transform="translate(27.349 20.521)" fill="#e0e0e0"/>
              <path id="Trazado_642579" data-name="Trazado 642579" d="M229.836,187.177h8.8a2.642,2.642,0,0,0,2.642-2.642v-.57a2.642,2.642,0,0,0-2.642-2.642h-8.8a2.642,2.642,0,0,0-2.642,2.642v.57a2.642,2.642,0,0,0,2.642,2.642" transform="translate(25.713 20.521)" fill="#e0e0e0"/>
              <path id="Trazado_642580" data-name="Trazado 642580" d="M215.379,187.177h8.8a2.642,2.642,0,0,0,2.642-2.642v-.57a2.642,2.642,0,0,0-2.642-2.642h-8.8a2.641,2.641,0,0,0-2.642,2.642v.57a2.641,2.641,0,0,0,2.642,2.642" transform="translate(24.076 20.521)" fill="#e0e0e0"/>
              <path id="Trazado_642581" data-name="Trazado 642581" d="M200.923,187.177h8.8a2.642,2.642,0,0,0,2.642-2.642v-.57a2.642,2.642,0,0,0-2.642-2.642h-8.8a2.642,2.642,0,0,0-2.642,2.642v.57a2.642,2.642,0,0,0,2.642,2.642" transform="translate(22.44 20.521)" fill="#e0e0e0"/>
              <path id="Trazado_642582" data-name="Trazado 642582" d="M186.466,187.177h8.8a2.642,2.642,0,0,0,2.642-2.642v-.57a2.642,2.642,0,0,0-2.642-2.642h-8.8a2.642,2.642,0,0,0-2.642,2.642v.57a2.642,2.642,0,0,0,2.642,2.642" transform="translate(20.804 20.521)" fill="#e0e0e0"/>
              <path id="Trazado_642583" data-name="Trazado 642583" d="M172.01,187.177h8.8a2.642,2.642,0,0,0,2.642-2.642v-.57a2.642,2.642,0,0,0-2.642-2.642h-8.8a2.642,2.642,0,0,0-2.642,2.642v.57a2.642,2.642,0,0,0,2.642,2.642" transform="translate(19.168 20.521)" fill="#e0e0e0"/>
              <path id="Trazado_642584" data-name="Trazado 642584" d="M157.553,187.177h8.8a2.642,2.642,0,0,0,2.642-2.642v-.57a2.642,2.642,0,0,0-2.642-2.642h-8.8a2.642,2.642,0,0,0-2.642,2.642v.57a2.642,2.642,0,0,0,2.642,2.642" transform="translate(17.532 20.521)" fill="#e0e0e0"/>
              <path id="Trazado_642585" data-name="Trazado 642585" d="M143.1,187.177h8.8a2.642,2.642,0,0,0,2.642-2.642v-.57a2.642,2.642,0,0,0-2.642-2.642h-8.8a2.642,2.642,0,0,0-2.642,2.642v.57a2.641,2.641,0,0,0,2.642,2.642" transform="translate(15.896 20.521)" fill="#e0e0e0"/>
              <path id="Trazado_642586" data-name="Trazado 642586" d="M273.206,187.177h8.8a2.642,2.642,0,0,0,2.642-2.642v-.57a2.642,2.642,0,0,0-2.642-2.642h-8.8a2.642,2.642,0,0,0-2.642,2.642v.57a2.642,2.642,0,0,0,2.642,2.642" transform="translate(30.621 20.521)" fill="#e0e0e0"/>
              <path id="Trazado_642587" data-name="Trazado 642587" d="M263.937,194.116H273.2a2.642,2.642,0,0,0,2.642-2.642v-.57a2.642,2.642,0,0,0-2.642-2.642h-9.268A2.642,2.642,0,0,0,261.3,190.9v.57a2.642,2.642,0,0,0,2.642,2.642" transform="translate(29.572 21.307)" fill="#e0e0e0"/>
              <path id="Trazado_642588" data-name="Trazado 642588" d="M279.321,194.116h9.268a2.642,2.642,0,0,0,2.642-2.642v-.57a2.642,2.642,0,0,0-2.642-2.642h-9.268a2.641,2.641,0,0,0-2.642,2.642v.57a2.641,2.641,0,0,0,2.642,2.642" transform="translate(31.313 21.307)" fill="#e0e0e0"/>
              <path id="Trazado_642589" data-name="Trazado 642589" d="M287.707,187.177h8.8a2.642,2.642,0,0,0,2.642-2.642v-.57a2.642,2.642,0,0,0-2.642-2.642h-8.8a2.642,2.642,0,0,0-2.642,2.642v.57a2.642,2.642,0,0,0,2.642,2.642" transform="translate(32.262 20.521)" fill="#e0e0e0"/>
              <path id="Trazado_642590" data-name="Trazado 642590" d="M293.823,194.116h9.268a2.642,2.642,0,0,0,2.642-2.642v-.57a2.642,2.642,0,0,0-2.642-2.642h-9.268a2.642,2.642,0,0,0-2.642,2.642v.57a2.642,2.642,0,0,0,2.642,2.642" transform="translate(32.954 21.307)" fill="#e0e0e0"/>
              <path id="Trazado_642591" data-name="Trazado 642591" d="M302.209,187.177h8.8a2.642,2.642,0,0,0,2.642-2.642v-.57a2.642,2.642,0,0,0-2.642-2.642h-8.8a2.641,2.641,0,0,0-2.642,2.642v.57a2.641,2.641,0,0,0,2.642,2.642" transform="translate(33.903 20.521)" fill="#e0e0e0"/>
              <path id="Trazado_642592" data-name="Trazado 642592" d="M248.657,194.116h9.268a2.642,2.642,0,0,0,2.642-2.642v-.57a2.642,2.642,0,0,0-2.642-2.642h-9.268a2.641,2.641,0,0,0-2.642,2.642v.57a2.641,2.641,0,0,0,2.642,2.642" transform="translate(27.843 21.307)" fill="#e0e0e0"/>
              <path id="Trazado_642593" data-name="Trazado 642593" d="M233.967,194.116h9.268a2.641,2.641,0,0,0,2.642-2.642v-.57a2.641,2.641,0,0,0-2.642-2.642h-9.268a2.642,2.642,0,0,0-2.642,2.642v.57a2.642,2.642,0,0,0,2.642,2.642" transform="translate(26.18 21.307)" fill="#e0e0e0"/>
              <path id="Trazado_642594" data-name="Trazado 642594" d="M219.277,194.116h9.268a2.642,2.642,0,0,0,2.642-2.642v-.57a2.642,2.642,0,0,0-2.642-2.642h-9.268a2.642,2.642,0,0,0-2.642,2.642v.57a2.641,2.641,0,0,0,2.642,2.642" transform="translate(24.518 21.307)" fill="#e0e0e0"/>
              <path id="Trazado_642595" data-name="Trazado 642595" d="M204.586,194.116h9.268a2.642,2.642,0,0,0,2.642-2.642v-.57a2.642,2.642,0,0,0-2.642-2.642h-9.268a2.641,2.641,0,0,0-2.642,2.642v.57a2.641,2.641,0,0,0,2.642,2.642" transform="translate(22.855 21.307)" fill="#e0e0e0"/>
              <path id="Trazado_642596" data-name="Trazado 642596" d="M189.9,194.116h9.268a2.642,2.642,0,0,0,2.642-2.642v-.57a2.642,2.642,0,0,0-2.642-2.642H189.9a2.642,2.642,0,0,0-2.642,2.642v.57a2.642,2.642,0,0,0,2.642,2.642" transform="translate(21.192 21.307)" fill="#e0e0e0"/>
              <path id="Trazado_642597" data-name="Trazado 642597" d="M175.206,194.116h9.268a2.642,2.642,0,0,0,2.642-2.642v-.57a2.642,2.642,0,0,0-2.642-2.642h-9.268a2.642,2.642,0,0,0-2.642,2.642v.57a2.642,2.642,0,0,0,2.642,2.642" transform="translate(19.53 21.307)" fill="#e0e0e0"/>
              <path id="Trazado_642598" data-name="Trazado 642598" d="M160.515,194.116h9.268a2.642,2.642,0,0,0,2.642-2.642v-.57a2.642,2.642,0,0,0-2.642-2.642h-9.268a2.642,2.642,0,0,0-2.642,2.642v.57a2.641,2.641,0,0,0,2.642,2.642" transform="translate(17.867 21.307)" fill="#e0e0e0"/>
              <path id="Trazado_642599" data-name="Trazado 642599" d="M145.825,194.116h9.268a2.642,2.642,0,0,0,2.642-2.642v-.57a2.642,2.642,0,0,0-2.642-2.642h-9.268a2.641,2.641,0,0,0-2.642,2.642v.57a2.641,2.641,0,0,0,2.642,2.642" transform="translate(16.205 21.307)" fill="#e0e0e0"/>
              <path id="Trazado_642600" data-name="Trazado 642600" d="M240.373,1.035l105.88,116.594v5.244H334.548L238.119,15.006,142.234,116.678v6.2H125.342v-7.09L236.993,0Z" transform="translate(14.186 0)" fill="#ff725e"/>
              <rect id="Rectángulo_379700" data-name="Rectángulo 379700" width="30.106" height="60.281" transform="translate(260.118 72.121)" fill="#e0e0e0"/>
              <rect id="Rectángulo_379701" data-name="Rectángulo 379701" width="26.626" height="55.731" transform="translate(261.619 74.131)" fill="#263238"/>
              <rect id="Rectángulo_379702" data-name="Rectángulo 379702" width="22.427" height="50.872" transform="translate(263.72 76.56)" fill="#455a64"/>
              <g id="Grupo_1074989" data-name="Grupo 1074989" transform="translate(263.72 76.56)" opacity="0.3">
                <g id="Grupo_1074988" data-name="Grupo 1074988">
                  <g id="Grupo_1074987" data-name="Grupo 1074987" clip-path="url(#clip-path-9)">
                    <rect id="Rectángulo_379703" data-name="Rectángulo 379703" width="22.427" height="1.876" transform="translate(0 0.001)"/>
                  </g>
                </g>
              </g>
              <g id="Grupo_1074992" data-name="Grupo 1074992" transform="translate(263.72 76.56)" opacity="0.3">
                <g id="Grupo_1074991" data-name="Grupo 1074991">
                  <g id="Grupo_1074990" data-name="Grupo 1074990" clip-path="url(#clip-path-10)">
                    <path id="Trazado_642601" data-name="Trazado 642601" d="M240.969,68.776l18.366,13.8v10.5L236.907,75.755V68.776Z" transform="translate(-236.908 -68.776)" fill="#fff"/>
                  </g>
                </g>
              </g>
              <g id="Grupo_1074995" data-name="Grupo 1074995" transform="translate(263.72 88.208)" opacity="0.3">
                <g id="Grupo_1074994" data-name="Grupo 1074994">
                  <g id="Grupo_1074993" data-name="Grupo 1074993" clip-path="url(#clip-path-11)">
                    <path id="Trazado_642602" data-name="Trazado 642602" d="M259.335,96.09v4.779L236.908,83.91V79.24Z" transform="translate(-236.908 -79.24)" fill="#fff"/>
                  </g>
                </g>
              </g>
              <rect id="Rectángulo_379707" data-name="Rectángulo 379707" width="1.086" height="52.53" transform="translate(274.39 75.731)" fill="#263238"/>
              <rect id="Rectángulo_379708" data-name="Rectángulo 379708" width="30.106" height="60.281" transform="translate(216.986 72.121)" fill="#e0e0e0"/>
              <rect id="Rectángulo_379709" data-name="Rectángulo 379709" width="26.626" height="55.731" transform="translate(218.487 74.131)" fill="#263238"/>
              <rect id="Rectángulo_379710" data-name="Rectángulo 379710" width="22.427" height="50.872" transform="translate(220.587 76.56)" fill="#455a64"/>
              <g id="Grupo_1074998" data-name="Grupo 1074998" transform="translate(220.587 76.56)" opacity="0.3">
                <g id="Grupo_1074997" data-name="Grupo 1074997">
                  <g id="Grupo_1074996" data-name="Grupo 1074996" clip-path="url(#clip-path-9)">
                    <rect id="Rectángulo_379711" data-name="Rectángulo 379711" width="22.427" height="1.876" transform="translate(0 0.001)"/>
                  </g>
                </g>
              </g>
              <g id="Grupo_1075001" data-name="Grupo 1075001" transform="translate(220.587 76.56)" opacity="0.3">
                <g id="Grupo_1075000" data-name="Grupo 1075000">
                  <g id="Grupo_1074999" data-name="Grupo 1074999" clip-path="url(#clip-path-10)">
                    <path id="Trazado_642603" data-name="Trazado 642603" d="M202.222,68.776l18.365,13.8v10.5L198.16,75.755V68.776Z" transform="translate(-198.16 -68.776)" fill="#fff"/>
                  </g>
                </g>
              </g>
              <g id="Grupo_1075004" data-name="Grupo 1075004" transform="translate(220.587 88.208)" opacity="0.3">
                <g id="Grupo_1075003" data-name="Grupo 1075003">
                  <g id="Grupo_1075002" data-name="Grupo 1075002" clip-path="url(#clip-path-11)">
                    <path id="Trazado_642604" data-name="Trazado 642604" d="M220.587,96.09v4.779L198.16,83.91V79.24Z" transform="translate(-198.16 -79.24)" fill="#fff"/>
                  </g>
                </g>
              </g>
              <rect id="Rectángulo_379715" data-name="Rectángulo 379715" width="1.086" height="52.53" transform="translate(231.258 75.731)" fill="#263238"/>
              <rect id="Rectángulo_379716" data-name="Rectángulo 379716" width="37.921" height="51.292" transform="translate(291.115 145.833)" fill="#e0e0e0"/>
              <rect id="Rectángulo_379717" data-name="Rectángulo 379717" width="33.591" height="47.413" transform="translate(292.985 148.155)" fill="#263238"/>
              <rect id="Rectángulo_379718" data-name="Rectángulo 379718" width="28.235" height="42.96" transform="translate(295.959 150.382)" fill="#455a64"/>
              <g id="Grupo_1075007" data-name="Grupo 1075007" transform="translate(295.959 150.474)" opacity="0.3">
                <g id="Grupo_1075006" data-name="Grupo 1075006">
                  <g id="Grupo_1075005" data-name="Grupo 1075005" clip-path="url(#clip-path-15)">
                    <path id="Trazado_642605" data-name="Trazado 642605" d="M273.138,135.175,294.1,155.115v14.529l-28.235-28.784v-5.684Z" transform="translate(-265.869 -135.175)" fill="#fff"/>
                  </g>
                </g>
              </g>
              <g id="Grupo_1075010" data-name="Grupo 1075010" transform="translate(295.959 176.61)" opacity="0.3">
                <g id="Grupo_1075009" data-name="Grupo 1075009">
                  <g id="Grupo_1075008" data-name="Grupo 1075008" clip-path="url(#clip-path-16)">
                    <path id="Trazado_642606" data-name="Trazado 642606" d="M265.869,158.654l18.382,16.823h-8.088l-10.294-10.2Z" transform="translate(-265.869 -158.654)" fill="#fff"/>
                  </g>
                </g>
              </g>
              <rect id="Rectángulo_379721" data-name="Rectángulo 379721" width="1.567" height="44.24" transform="translate(308.997 149.742)" fill="#263238"/>
              <rect id="Rectángulo_379722" data-name="Rectángulo 379722" width="37.921" height="51.292" transform="translate(169.503 145.833)" fill="#e0e0e0"/>
              <rect id="Rectángulo_379723" data-name="Rectángulo 379723" width="33.591" height="47.413" transform="translate(171.668 148.155)" fill="#263238"/>
              <rect id="Rectángulo_379724" data-name="Rectángulo 379724" width="28.235" height="42.96" transform="translate(174.642 150.382)" fill="#455a64"/>
              <g id="Grupo_1075013" data-name="Grupo 1075013" transform="translate(174.642 150.474)" opacity="0.3">
                <g id="Grupo_1075012" data-name="Grupo 1075012">
                  <g id="Grupo_1075011" data-name="Grupo 1075011" clip-path="url(#clip-path-17)">
                    <path id="Trazado_642607" data-name="Trazado 642607" d="M164.154,135.175l20.966,19.939v14.529l-28.235-28.784v-5.684Z" transform="translate(-156.886 -135.175)" fill="#fff"/>
                  </g>
                </g>
              </g>
              <g id="Grupo_1075016" data-name="Grupo 1075016" transform="translate(174.642 176.61)" opacity="0.3">
                <g id="Grupo_1075015" data-name="Grupo 1075015">
                  <g id="Grupo_1075014" data-name="Grupo 1075014" clip-path="url(#clip-path-18)">
                    <path id="Trazado_642608" data-name="Trazado 642608" d="M156.886,158.654l18.382,16.823h-8.088l-10.294-10.2Z" transform="translate(-156.886 -158.654)" fill="#fff"/>
                  </g>
                </g>
              </g>
              <rect id="Rectángulo_379727" data-name="Rectángulo 379727" width="1.567" height="44.24" transform="translate(187.68 149.742)" fill="#263238"/>
              <rect id="Rectángulo_379728" data-name="Rectángulo 379728" width="45.243" height="72.748" transform="translate(226.435 145.834)" fill="#e0e0e0"/>
              <rect id="Rectángulo_379729" data-name="Rectángulo 379729" width="38.239" height="69.412" transform="translate(230.15 149.408)" fill="#263238"/>
              <rect id="Rectángulo_379730" data-name="Rectángulo 379730" width="26.99" height="8.591" transform="translate(235.775 155.443)" fill="#455a64"/>
              <rect id="Rectángulo_379731" data-name="Rectángulo 379731" width="11.408" height="22.469" transform="translate(251.357 167.708)" fill="#455a64"/>
              <rect id="Rectángulo_379732" data-name="Rectángulo 379732" width="11.408" height="22.469" transform="translate(236.235 167.708)" fill="#455a64"/>
              <g id="Grupo_1075019" data-name="Grupo 1075019" transform="translate(236.235 169.059)" opacity="0.3">
                <g id="Grupo_1075018" data-name="Grupo 1075018">
                  <g id="Grupo_1075017" data-name="Grupo 1075017" clip-path="url(#clip-path-19)">
                    <path id="Trazado_642609" data-name="Trazado 642609" d="M212.217,151.871l11.408,9.216v6.667l-11.408-9.71Z" transform="translate(-212.217 -151.871)" fill="#fff"/>
                  </g>
                </g>
              </g>
              <g id="Grupo_1075022" data-name="Grupo 1075022" transform="translate(251.357 171.862)" opacity="0.3">
                <g id="Grupo_1075021" data-name="Grupo 1075021">
                  <g id="Grupo_1075020" data-name="Grupo 1075020" clip-path="url(#clip-path-20)">
                    <path id="Trazado_642610" data-name="Trazado 642610" d="M237.21,163.681v2.7L225.8,157.4v-3.012Z" transform="translate(-225.802 -154.389)" fill="#fff"/>
                  </g>
                </g>
              </g>
              <rect id="Rectángulo_379735" data-name="Rectángulo 379735" width="11.528" height="4.011" transform="translate(243.293 140.336)" fill="#e0e0e0"/>
              <path id="Trazado_642611" data-name="Trazado 642611" d="M210.5,174.728a1.794,1.794,0,1,0,1.788-1.64,1.719,1.719,0,0,0-1.788,1.64" transform="translate(23.824 19.589)" fill="#455a64"/>
              <g id="Grupo_1075025" data-name="Grupo 1075025" transform="translate(151.325 15.006)" opacity="0.3">
                <g id="Grupo_1075024" data-name="Grupo 1075024">
                  <g id="Grupo_1075023" data-name="Grupo 1075023" clip-path="url(#clip-path-21)">
                    <path id="Trazado_642612" data-name="Trazado 642612" d="M240.36,17.329,141.035,121.347h-5.094v-6.195h5.094L236.919,13.481Z" transform="translate(-135.94 -13.48)"/>
                  </g>
                </g>
              </g>
            </g>
          </g>
          <path id="Trazado_642613" data-name="Trazado 642613" d="M128,107.647l-97.7,98.242H126.79Z" transform="translate(3.43 12.183)" fill="#263238"/>
          <text id="_5_m" data-name="5 m" transform="translate(79.68 198.152)" fill="#fff" font-size="16" font-family="Roboto-Bold, Roboto" font-weight="700"><tspan x="0" y="0">5 m</tspan></text>
        </g>
      </g>
    </g>
  </g>
</svg>
