<svg xmlns="http://www.w3.org/2000/svg" width="369" height="265" viewBox="0 0 369 265">
  <g id="img15_1" transform="translate(5446 6410)">
    <g id="Trazado_642175" data-name="Trazado 642175" transform="translate(-5424.092 -6378)" fill="#c7e3d7">
      <path d="M 328.9725341796875 203.6477203369141 L 1.500021457672119 203.6477203369141 L 1.500021457672119 -6.256824970245361 L 328.9725341796875 203.6477203369141 Z" stroke="none"/>
      <path d="M 2.999969482421875 -3.513687133789062 L 2.999969482421875 202.1477203369141 L 323.8527526855469 202.1477203369141 L 2.999969482421875 -3.513687133789062 M -3.0517578125e-05 -9.000015258789062 L 334.09228515625 205.1477203369141 L -3.0517578125e-05 205.1477203369141 L -3.0517578125e-05 -9.000015258789062 Z" stroke="none" fill="#2d4587"/>
    </g>
    <path id="Trazado_642176" data-name="Trazado 642176" d="M-4522-6482.667h37.608v32.131" transform="translate(-902.092 276.04)" fill="none" stroke="#2d4587" stroke-width="3"/>
    <g id="Grupo_1075339" data-name="Grupo 1075339">
      <text id="h" transform="translate(-5445 -6259)" fill="#12263f" stroke="rgba(0,0,0,0)" stroke-width="1" font-size="18" font-family="Roboto-Black, Roboto" font-weight="800"><tspan x="0" y="0">h</tspan></text>
      <text id="_4_cm" data-name="4 cm" transform="translate(-5297 -6151)" fill="#12263f" stroke="rgba(0,0,0,0)" stroke-width="1" font-size="18" font-family="Roboto-Black, Roboto" font-weight="800"><tspan x="0" y="0">4 cm</tspan></text>
      <text id="B" transform="translate(-5090 -6151)" fill="#12263f" stroke="rgba(0,0,0,0)" stroke-width="1" font-size="18" font-family="Roboto-Black, Roboto" font-weight="800"><tspan x="0" y="0">B</tspan></text>
      <text id="A" transform="translate(-5435 -6151)" fill="#12263f" stroke="rgba(0,0,0,0)" stroke-width="1" font-size="18" font-family="Roboto-Black, Roboto" font-weight="800"><tspan x="0" y="0">A</tspan></text>
      <text id="C" transform="translate(-5435 -6392)" fill="#12263f" stroke="rgba(0,0,0,0)" stroke-width="1" font-size="18" font-family="Roboto-Black, Roboto" font-weight="800"><tspan x="0" y="0">C</tspan></text>
      <text id="_90" data-name="90" transform="translate(-5414 -6185)" fill="#12263f" stroke="rgba(0,0,0,0)" stroke-width="1" font-size="18" font-family="Roboto-Black, Roboto" font-weight="800"><tspan x="0" y="0">90</tspan></text>
      <text id="θ" transform="translate(-5418 -6354)" fill="#12263f" stroke="rgba(0,0,0,0)" stroke-width="1" font-size="18" font-family="Roboto-Black, Roboto" font-weight="800"><tspan x="0" y="0">θ</tspan></text>
      <text id="β" transform="translate(-5145 -6182)" fill="#12263f" stroke="rgba(0,0,0,0)" stroke-width="1" font-size="18" font-family="Roboto-Black, Roboto" font-weight="800"><tspan x="0" y="0">β</tspan></text>
      <text id="_5_cm_" data-name="5 cm
" transform="translate(-5293.664 -6316.906) rotate(34)" fill="#12263f" stroke="rgba(0,0,0,0)" stroke-width="1" font-size="18" font-family="Roboto-Black, Roboto" font-weight="800"><tspan x="0" y="0">5 cm</tspan><tspan x="0" y="25"></tspan></text>
    </g>
  </g>
</svg>
