<svg xmlns="http://www.w3.org/2000/svg" xmlns:xlink="http://www.w3.org/1999/xlink" width="121.668" height="125" viewBox="0 0 121.668 125">
  <defs>
    <clipPath id="clip-path">
      <rect id="Rectángulo_379576" data-name="Rectángulo 379576" width="71" height="72" transform="translate(-0.044 0)" fill="none"/>
    </clipPath>
  </defs>
  <g id="img11" transform="translate(-1091 -2563)">
    <g id="Grupo_1073538" data-name="Grupo 1073538" transform="translate(702.332 -3434)">
      <g id="Grupo_1072788" data-name="Grupo 1072788" transform="translate(13.999 114.601)">
        <g id="Grupo_1072785" data-name="Grupo 1072785" transform="translate(386.668 5997)">
          <path id="Trazado_608385" data-name="Trazado 608385" d="M48.909,0C75.921,0,97.818,2.328,97.818,5.2s-21.9,5.2-48.909,5.2S0,8.071,0,5.2,21.9,0,48.909,0Z" transform="translate(0 0)" fill="none"/>
        </g>
        <g id="Grupo_1073383" data-name="Grupo 1073383" transform="translate(386.668 5997)">
          <path id="Trazado_608385-2" data-name="Trazado 608385" d="M48.909,0C75.921,0,97.818,2.328,97.818,5.2s-21.9,5.2-48.909,5.2S0,8.071,0,5.2,21.9,0,48.909,0Z" transform="translate(0 0)" fill="#11462e"/>
        </g>
      </g>
      <g id="Grupo_1073526" data-name="Grupo 1073526" transform="translate(2)">
        <g id="Grupo_1072785-2" data-name="Grupo 1072785" transform="translate(386.668 5997)">
          <path id="Trazado_608385-3" data-name="Trazado 608385" d="M60.834,0A60.834,60.834,0,1,1,0,60.834,60.834,60.834,0,0,1,60.834,0Z" transform="translate(0 0)" fill="none"/>
        </g>
        <g id="Grupo_1073383-2" data-name="Grupo 1073383" transform="translate(386.668 5997)">
          <path id="Trazado_608385-4" data-name="Trazado 608385" d="M60.834,0A60.834,60.834,0,1,1,0,60.834,60.834,60.834,0,0,1,60.834,0Z" transform="translate(0 0)" fill="#fff"/>
        </g>
      </g>
    </g>
    <g id="Grupo_1074752" data-name="Grupo 1074752" transform="translate(1115.545 2590.001)">
      <g id="Grupo_1074751" data-name="Grupo 1074751" transform="translate(0.499 -0.001)" clip-path="url(#clip-path)">
        <path id="Trazado_642011" data-name="Trazado 642011" d="M49.135,38.232v4.523a1.685,1.685,0,0,1-1.69,1.674H45.8V36.542h1.642a1.619,1.619,0,0,1,1.235.569H48.7a1.644,1.644,0,0,1,.439,1.121" transform="translate(-12.221 -9.334)" fill="#efc7a4"/>
        <path id="Trazado_642012" data-name="Trazado 642012" d="M15.933,36.542V44.43H14.291a1.686,1.686,0,0,1-1.69-1.674V38.232a1.644,1.644,0,0,1,.439-1.121h.016a1.623,1.623,0,0,1,1.235-.569Z" transform="translate(-3.739 -9.334)" fill="#efc7a4"/>
        <path id="Trazado_642013" data-name="Trazado 642013" d="M40.117,30.822H40.1a1.635,1.635,0,0,0-1.24-.568H37.226V29.7a9.229,9.229,0,0,0-1.168-4.6,6.937,6.937,0,0,0-3.589-3.188,1.018,1.018,0,0,0-1.374.968c.058,1.478-.633,3.569-5.227,2.827-5.525-1.9-9.707-3.072-10.03,2.549v2H14.2a1.635,1.635,0,0,0-1.24.568h-.013c-2.046-6.376.162-15.024,8.106-17.916a16.983,16.983,0,0,1,5.479-.987,16.984,16.984,0,0,1,5.48.987c7.944,2.892,10.152,11.54,8.106,17.916" transform="translate(-3.644 -3.044)" fill="#656d78"/>
        <path id="Trazado_642014" data-name="Trazado 642014" d="M35.68,6.457a4.974,4.974,0,0,1-.03.581,6.294,6.294,0,0,1-.946,2.822,17,17,0,0,0-5.48-.983,17,17,0,0,0-5.48.983A6.294,6.294,0,0,1,22.8,7.038a4.972,4.972,0,0,1-.03-.581,6.455,6.455,0,0,1,12.91,0" transform="translate(-6.337 0)" fill="#656d78"/>
        <path id="Trazado_642015" data-name="Trazado 642015" d="M35.661,9.061a6.294,6.294,0,0,1-.946,2.822,17,17,0,0,0-5.48-.983,17,17,0,0,0-5.48.983,6.294,6.294,0,0,1-.946-2.822,20.053,20.053,0,0,1,6.351-1.139h.149a20.13,20.13,0,0,1,6.351,1.139" transform="translate(-6.347 -2.023)" fill="#434a54"/>
        <path id="Trazado_642016" data-name="Trazado 642016" d="M36.1,56.592v5.614a13.96,13.96,0,0,1-14.191,0V56.592a10.856,10.856,0,0,0,5.7,2.517l.41.045a12.562,12.562,0,0,0,1.98,0l.41-.045c.119-.015.231-.037.35-.052a.377.377,0,0,1,.1-.015c.261-.045.514-.1.774-.164s.529-.141.8-.223c.127-.045.261-.089.395-.141s.261-.1.387-.149l.357-.156a9.966,9.966,0,0,0,1.5-.834c.119-.082.238-.156.35-.246s.238-.171.35-.261a3.637,3.637,0,0,0,.335-.275" transform="translate(-6.117 -14.456)" fill="#efc7a4"/>
        <path id="Trazado_642017" data-name="Trazado 642017" d="M38.465,33.179v8.237a8.619,8.619,0,0,1-1.954,5.459c-.013.016-.027.034-.042.051a11.41,11.41,0,0,1-1.31,1.412,11,11,0,0,1-14.776,0,11.472,11.472,0,0,1-1.311-1.412l-.042-.051a8.615,8.615,0,0,1-1.955-5.459V31.66c.323-5.627,4.5-4.457,10.03-2.554,4.6.747,5.283-1.345,5.23-2.827a1.019,1.019,0,0,1,1.375-.966A6.943,6.943,0,0,1,37.3,28.5a9.377,9.377,0,0,1,1.17,4.679" transform="translate(-4.882 -6.45)" fill="#f4d0b5"/>
        <path id="Trazado_642018" data-name="Trazado 642018" d="M41.513,33.18v8.235a8.621,8.621,0,0,1-1.951,5.458.324.324,0,0,1-.045.052,10.8,10.8,0,0,1-1.31,1.415,11,11,0,0,1-9.188,2.7,11,11,0,0,0,5.584-2.7,11.934,11.934,0,0,0,1.31-1.415.316.316,0,0,0,.037-.052,8.585,8.585,0,0,0,1.958-5.458V33.18A9.406,9.406,0,0,0,36.741,28.5a8.1,8.1,0,0,0-1.37-1.772,3.053,3.053,0,0,0,.015-.447,1.021,1.021,0,0,1,1.377-.968A6.947,6.947,0,0,1,40.345,28.5a9.329,9.329,0,0,1,1.169,4.683" transform="translate(-7.934 -6.449)" fill="#efc7a4"/>
        <path id="Trazado_642019" data-name="Trazado 642019" d="M46.854,78.524v9.337H0V78.524A14.4,14.4,0,0,1,14.414,64.132h1.9A15.1,15.1,0,0,0,22.12,66a12.874,12.874,0,0,0,1.31.067q.67,0,1.34-.067a15.158,15.158,0,0,0,5.763-1.869H32.44A14.4,14.4,0,0,1,46.854,78.524" transform="translate(-0.52 -16.382)" fill="#6fd9fb"/>
        <path id="Trazado_642020" data-name="Trazado 642020" d="M46.854,79.393v9.337H0V85.066H34.919a8.268,8.268,0,0,0,8.272-8.272V75.752a14.342,14.342,0,0,0-2.576-8.22,14.382,14.382,0,0,1,6.239,11.861" transform="translate(-0.52 -17.251)" fill="#4fc0e8"/>
        <path id="Trazado_642021" data-name="Trazado 642021" d="M36.1,64.126,30.7,73.5a1.937,1.937,0,0,1-3.354,0l-5.431-9.376a13.933,13.933,0,0,0,14.187,0" transform="translate(-6.118 -16.381)" fill="#f4f6f8"/>
        <path id="Trazado_642022" data-name="Trazado 642022" d="M86.236,2.485V19.049a2.485,2.485,0,0,1-2.485,2.485H69.912L62.737,26.8v-5.27H60.261a2.485,2.485,0,0,1-2.485-2.485V2.485A2.485,2.485,0,0,1,60.261,0h23.49a2.485,2.485,0,0,1,2.485,2.485" transform="translate(-15.28 0)" fill="#196442"/>
        <path id="Trazado_642023" data-name="Trazado 642023" d="M86.237,2.489V19.047a2.482,2.482,0,0,1-2.487,2.487H69.916l-7.177,5.271V21.534H60.259a2.48,2.48,0,0,1-2.479-2.487v-.722H67.6A15.568,15.568,0,0,0,83.176,2.757V0h.573a2.482,2.482,0,0,1,2.487,2.487" transform="translate(-15.281 0)" fill="#11462e"/>
        <path id="Trazado_642024" data-name="Trazado 642024" d="M10.949,81.387V92.078H9.46V81.387a.745.745,0,0,1,1.489,0" transform="translate(-2.937 -20.6)" fill="#fff"/>
        <path id="Trazado_642025" data-name="Trazado 642025" d="M52.959,81.387V92.078H51.47V81.387a.745.745,0,0,1,1.489,0" transform="translate(-13.669 -20.6)" fill="#fff"/>
        <path id="Trazado_642026" data-name="Trazado 642026" d="M63.1,16.284a.615.615,0,0,1-.185-.463,2.037,2.037,0,0,1,.377-1.185,4.281,4.281,0,0,1,.914-.957q.537-.413,1.413-.981.753-.482,1.2-.815a3.643,3.643,0,0,0,.741-.728,1.374,1.374,0,0,0,.3-.839A1.423,1.423,0,0,0,67.392,9.2,2.2,2.2,0,0,0,65.9,8.785a5.137,5.137,0,0,0-2.111.444.521.521,0,0,1-.235.062.453.453,0,0,1-.334-.136.466.466,0,0,1-.136-.345.487.487,0,0,1,.272-.456,6.042,6.042,0,0,1,2.741-.63,3.245,3.245,0,0,1,1.438.315,2.522,2.522,0,0,1,1.024.882,2.317,2.317,0,0,1,.377,1.309,2.349,2.349,0,0,1-.426,1.351A4.912,4.912,0,0,1,67.5,12.673q-.592.47-1.543,1.086-.864.581-1.3.932a2.1,2.1,0,0,0-.611.722h4.3a.527.527,0,0,1,.531.531.494.494,0,0,1-.155.371.523.523,0,0,1-.376.147H63.571a.649.649,0,0,1-.469-.179" transform="translate(-16.593 -1.972)" fill="#fff"/>
        <path id="Trazado_642027" data-name="Trazado 642027" d="M75.55,15.549a.463.463,0,0,1-.141-.34V13.185H73.383a.464.464,0,0,1-.469-.469.467.467,0,0,1,.136-.345.451.451,0,0,1,.333-.136h2.025V10.211a.456.456,0,0,1,.141-.345.473.473,0,0,1,.34-.136.466.466,0,0,1,.482.482v2.024h2.012a.465.465,0,0,1,.482.481.453.453,0,0,1-.136.334.467.467,0,0,1-.345.136H76.371V15.21a.473.473,0,0,1-.136.34.458.458,0,0,1-.345.142.464.464,0,0,1-.34-.142" transform="translate(-19.147 -2.485)" fill="#fff"/>
        <path id="Trazado_642028" data-name="Trazado 642028" d="M82.868,16.092a.536.536,0,0,1-.235-.179.473.473,0,0,1-.086-.29.519.519,0,0,1,.142-.364.458.458,0,0,1,.351-.154.631.631,0,0,1,.235.049,5.2,5.2,0,0,0,1.963.358A3.753,3.753,0,0,0,86.86,15.2a1.083,1.083,0,0,0,.661-1.055q0-1.556-2.729-1.555h-.2a.519.519,0,0,1,0-1.037h.073a3.842,3.842,0,0,0,1.889-.376,1.212,1.212,0,0,0,.654-1.118,1.088,1.088,0,0,0-.494-.938,2.542,2.542,0,0,0-1.457-.345,4.485,4.485,0,0,0-1.913.407.6.6,0,0,1-.221.049.448.448,0,0,1-.321-.13.429.429,0,0,1-.136-.327.448.448,0,0,1,.246-.42,5.155,5.155,0,0,1,2.444-.629,3.618,3.618,0,0,1,2.2.58,1.927,1.927,0,0,1,.778,1.642,1.959,1.959,0,0,1-.427,1.339,2.549,2.549,0,0,1-1.068.723,2.685,2.685,0,0,1,1.253.672,1.986,1.986,0,0,1,.549,1.524,2.021,2.021,0,0,1-.894,1.759,3.947,3.947,0,0,1-2.3.624,6.755,6.755,0,0,1-2.579-.494" transform="translate(-21.607 -1.972)" fill="#fff"/>
      </g>
    </g>
  </g>
</svg>
