<svg xmlns="http://www.w3.org/2000/svg" xmlns:xlink="http://www.w3.org/1999/xlink" width="121.668" height="125" viewBox="0 0 121.668 125">
  <defs>
    <clipPath id="clip-path">
      <rect id="Rect치ngulo_379630" data-name="Rect치ngulo 379630" width="95.973" height="55.6" fill="none"/>
    </clipPath>
  </defs>
  <g id="img11" transform="translate(2190.504 8056)">
    <g id="Grupo_1074807" data-name="Grupo 1074807" transform="translate(-2579.172 -14053)">
      <g id="Grupo_1072788" data-name="Grupo 1072788" transform="translate(13.999 114.601)">
        <g id="Grupo_1072785" data-name="Grupo 1072785" transform="translate(386.668 5997)">
          <path id="Trazado_608385" data-name="Trazado 608385" d="M48.909,0C75.921,0,97.818,2.328,97.818,5.2s-21.9,5.2-48.909,5.2S0,8.071,0,5.2,21.9,0,48.909,0Z" transform="translate(0 0)" fill="none"/>
        </g>
        <g id="Grupo_1073383" data-name="Grupo 1073383" transform="translate(386.668 5997)">
          <path id="Trazado_608385-2" data-name="Trazado 608385" d="M48.909,0C75.921,0,97.818,2.328,97.818,5.2s-21.9,5.2-48.909,5.2S0,8.071,0,5.2,21.9,0,48.909,0Z" transform="translate(0 0)" fill="#11462e"/>
        </g>
      </g>
      <g id="Grupo_1073526" data-name="Grupo 1073526" transform="translate(2)">
        <g id="Grupo_1072785-2" data-name="Grupo 1072785" transform="translate(386.668 5997)">
          <path id="Trazado_608385-3" data-name="Trazado 608385" d="M60.834,0A60.834,60.834,0,1,1,0,60.834,60.834,60.834,0,0,1,60.834,0Z" transform="translate(0 0)" fill="none"/>
        </g>
        <g id="Grupo_1073383-2" data-name="Grupo 1073383" transform="translate(386.668 5997)">
          <path id="Trazado_608385-4" data-name="Trazado 608385" d="M60.834,0A60.834,60.834,0,1,1,0,60.834,60.834,60.834,0,0,1,60.834,0Z" transform="translate(0 0)" fill="#fff"/>
        </g>
      </g>
    </g>
    <g id="Grupo_1074824" data-name="Grupo 1074824" transform="translate(-2582.503 -10623)">
      <rect id="Rect치ngulo_378255" data-name="Rect치ngulo 378255" width="82" height="82" transform="translate(412.504 2589)" fill="#fff"/>
      <g id="Grupo_1074826" data-name="Grupo 1074826" transform="translate(405.837 2600.333)">
        <g id="Grupo_1074825" data-name="Grupo 1074825" clip-path="url(#clip-path)">
          <path id="Trazado_642160" data-name="Trazado 642160" d="M46.615,58.719c0,12.564-10.435,22.749-23.307,22.749S0,71.283,0,58.719,10.435,35.97,23.307,35.97,46.615,46.155,46.615,58.719" transform="translate(0 -25.868)" fill="#d0dbf8"/>
          <path id="Trazado_642161" data-name="Trazado 642161" d="M218.147,58.719c0,12.564-10.435,22.749-23.308,22.749s-23.307-10.185-23.307-22.749S181.967,35.97,194.839,35.97s23.308,10.185,23.308,22.749" transform="translate(-122.174 -25.868)" fill="#d0dbf8"/>
          <path id="Trazado_642162" data-name="Trazado 642162" d="M76.033,6.585l-.079.285q-.257-.019-.515-.029-.405-.019-.771-.019-.613,0-1.662.048l.059-.285q.871-.174.984-.376a2.031,2.031,0,0,0,.133-.584q.069-.482.1-.869-.584-.019-1.449-.019-.386,0-.648.019c-.039.052-.068.089-.087.111l-.077.1q-.1.135-.453.6t-.363.488a.585.585,0,0,0-.163.29.122.122,0,0,0,.069.111,2.071,2.071,0,0,0,.415.106l.153.029L71.6,6.87l-.534-.029q-.386-.019-.628-.019-.326,0-1.133.048l.089-.285a2.223,2.223,0,0,0,.69-.2,2.325,2.325,0,0,0,.517-.524q.059-.082.26-.331l.361-.451q.161-.2.3-.372l.658-.811.68-.835q.215-.265.45-.562t.638-.825q.4-.529,1.091-1.436a1.08,1.08,0,0,0,.1-.121Q75.2.03,75.217,0h.331q-.005.077-.047.514t-.072.751q-.035.294-.079.724t-.069.731q-.025.3-.062.794t-.106,1.362q-.069,1.091-.069,1.246a.275.275,0,0,0,.045.166.542.542,0,0,0,.24.128,4.366,4.366,0,0,0,.566.14c.1.019.145.029.138.029m-3.5-2.293h1.8l.306-2.752-.02-.019Z" transform="translate(-49.361 -0.001)" fill="#196442"/>
          <path id="Trazado_642163" data-name="Trazado 642163" d="M242.925,1.4,243,1.116q.593.058,1.35.058l.435-.01.618-.01q.386-.019.764,0a2.852,2.852,0,0,1,.727.121,1.2,1.2,0,0,1,.574.369,1.074,1.074,0,0,1,.225.722,1.478,1.478,0,0,1-.188.727,1.847,1.847,0,0,1-.514.586,2.464,2.464,0,0,1-.6.345,6.8,6.8,0,0,1-.739.22v.02a2.4,2.4,0,0,1,1.019.287,1.015,1.015,0,0,1,.43.968,1.871,1.871,0,0,1-.2.852,2.3,2.3,0,0,1-.489.661,2.881,2.881,0,0,1-.641.451,3.206,3.206,0,0,1-.713.263,4.827,4.827,0,0,1-1.132.1q-.306,0-.791-.019-.267-.029-.811-.029-.337,0-1.192.048l.089-.285.183-.029q.4-.082.539-.128a.524.524,0,0,0,.215-.118.726.726,0,0,0,.136-.222,3.873,3.873,0,0,0,.148-.413q.094-.3.24-.768t.423-1.388q.054-.188.111-.379l.134-.447q.077-.256.121-.4.015-.058.1-.369t.146-.534q.062-.222.077-.285a.856.856,0,0,0,.069-.324q0-.131-.176-.193a5.813,5.813,0,0,0-.774-.164m.252,5.962a8.6,8.6,0,0,0,.91.068,3.019,3.019,0,0,0,.814-.089,1.6,1.6,0,0,0,.566-.3,1.784,1.784,0,0,0,.517-.666,1.924,1.924,0,0,0,.19-.816,1.145,1.145,0,0,0-.163-.659.9.9,0,0,0-.455-.335,2.182,2.182,0,0,0-.623-.116q-.331-.015-.915-.005-.253.855-.351,1.2t-.178.615q-.079.27-.166.582t-.146.519m1.672-5.754-.727,2.433q.44,0,.744-.019a3.731,3.731,0,0,0,.67-.111,1.807,1.807,0,0,0,.675-.314,1.579,1.579,0,0,0,.443-.514,1.332,1.332,0,0,0,.158-.635q0-.907-1.162-.908a6.163,6.163,0,0,0-.8.068" transform="translate(-171.756 -0.803)" fill="#196442"/>
          <path id="Trazado_642164" data-name="Trazado 642164" d="M76.93,56.738,77,56.466a9.548,9.548,0,0,0,1.766-.766l.128.1q-.146.37-.242.637t-.271.815q-.176.548-.358,1.156t-.493,1.65a13.593,13.593,0,0,0-.374,1.4.134.134,0,0,0,.027.087.314.314,0,0,0,.1.069,3.857,3.857,0,0,0,.685.147l-.087.245q-.155-.013-.438-.026-.374-.018-.666-.018-.21,0-1.305.044l.073-.245a1.161,1.161,0,0,0,.123-.026q.237-.049.37-.085a.551.551,0,0,0,.187-.078.43.43,0,0,0,.105-.131,6.415,6.415,0,0,0,.283-.731q.183-.534.356-1.109t.3-1.016l.483-1.648a.994.994,0,0,0,.041-.174.161.161,0,0,0-.041-.109.138.138,0,0,0-.11-.047,4.038,4.038,0,0,0-.552.089c-.085.018-.135.03-.151.036" transform="translate(-53.75 -40.057)" fill="#2d4587"/>
          <path id="Trazado_642165" data-name="Trazado 642165" d="M74.671,98.648h-.3q.155-.423.319-.94a4.085,4.085,0,0,1,.648-.367A1.858,1.858,0,0,1,76.1,97.2a1.413,1.413,0,0,1,1.038.372,1.247,1.247,0,0,1,.376.924,2.132,2.132,0,0,1-.16.8,3.622,3.622,0,0,1-.531.866,10.827,10.827,0,0,1-1,1.069q-.627.6-1.608,1.441l-.237.192h1.5a3.131,3.131,0,0,0,.541-.033.586.586,0,0,0,.29-.143,1.972,1.972,0,0,0,.292-.39.476.476,0,0,1,.064-.1h.329a.888.888,0,0,1-.1.192q-.019.054-.167.39t-.235.528q-.087.192-.091.205c-.189-.009-.406-.018-.653-.027q-.565-.018-1.1-.018l-.621,0q-.187,0-.454.011t-.4.018c-.091.006-.181.01-.269.013l.073-.245a28.708,28.708,0,0,0,2.88-2.726,2.893,2.893,0,0,0,.88-1.835.844.844,0,0,0-.232-.632.827.827,0,0,0-.6-.227,1.494,1.494,0,0,0-1.223.806" transform="translate(-51.92 -69.898)" fill="#2d4587"/>
          <path id="Trazado_642166" data-name="Trazado 642166" d="M75.516,141.812l-.287-.009a7.109,7.109,0,0,0,.242-.811,2.608,2.608,0,0,1,1.291-.383,1.207,1.207,0,0,1,.838.281.936.936,0,0,1,.313.73,1.131,1.131,0,0,1-.354.849,3.787,3.787,0,0,1-.965.639,1.358,1.358,0,0,1,.935,1.358,2.391,2.391,0,0,1-.18.9,2.771,2.771,0,0,1-.527.833,2.651,2.651,0,0,1-.815.61,2.285,2.285,0,0,1-1.011.227,2.321,2.321,0,0,1-.7-.091,3.935,3.935,0,0,1-.594-.247,4.9,4.9,0,0,0,.212-.474q.066-.18.162-.519h.269a2.425,2.425,0,0,0,.069.436.576.576,0,0,0,.226.3.91.91,0,0,0,.55.136,1.252,1.252,0,0,0,.846-.3,1.818,1.818,0,0,0,.518-.742,2.386,2.386,0,0,0,.169-.855,1.154,1.154,0,0,0-.356-.893,1.534,1.534,0,0,0-1.1-.31l.087-.312a5,5,0,0,0,.984-.292,1.815,1.815,0,0,0,.65-.448.9.9,0,0,0,.242-.619.6.6,0,0,0-.2-.488.74.74,0,0,0-.486-.167,1.017,1.017,0,0,0-.509.12,1.116,1.116,0,0,0-.322.256,1.892,1.892,0,0,0-.192.287" transform="translate(-52.496 -101.119)" fill="#2d4587"/>
          <path id="Trazado_642167" data-name="Trazado 642167" d="M246.757,146.022l.078-.245c-.006,0,.041-.009.142-.027a1.557,1.557,0,0,0,.548-.165,3.372,3.372,0,0,0,.411-.994l.059-.183H245.63a3.671,3.671,0,0,0,.137-.53q.62-.641.926-.964t.974-1.049q.669-.726.981-1.078t.728-.824c.128-.033.23-.063.308-.091a3.635,3.635,0,0,0,.353-.162l.114.1q-.119.285-.185.459t-.178.514q-.112.34-.16.5t-.386,1.245q-.219.73-.3,1.016l-.094.334q.475-.014.776-.036l.054.089a3.214,3.214,0,0,0-.242.521q-.4-.036-.748-.045a4.552,4.552,0,0,0-.26,1.047.154.154,0,0,0,.064.147,5.112,5.112,0,0,0,.58.147c.043.006.078.012.105.018l.046.009-.064.245q-.21-.013-.525-.026-.392-.018-.652-.018-.475,0-1.228.044m1.8-4.561L247.2,142.94q-.763.815-.872.94,1.278.018,1.825,0l.146-.454.347-1.1q.365-1.123.5-1.488l-.018-.018-.249.283q-.135.153-.322.363" transform="translate(-174.951 -100.473)" fill="#2d4587"/>
          <path id="Trazado_642168" data-name="Trazado 642168" d="M252.474,57.98l.046.1a3.635,3.635,0,0,0-.319.632q-.26-.027-.639-.034t-1.228-.015c-.049.1-.1.191-.139.287s-.1.215-.16.354l-.171.383a4.226,4.226,0,0,1,.618.082,1.818,1.818,0,0,1,.559.234,1.511,1.511,0,0,1,.57.626,1.965,1.965,0,0,1,.187.871,2.754,2.754,0,0,1-.207,1.062,2.792,2.792,0,0,1-.589.891,2.751,2.751,0,0,1-.879.606,2.621,2.621,0,0,1-1.054.216,1.923,1.923,0,0,1-.557-.067,2.461,2.461,0,0,1-.424-.178,8.588,8.588,0,0,0,.365-.971h.242a.726.726,0,0,0,.776.74,1.348,1.348,0,0,0,.831-.278,1.88,1.88,0,0,0,.577-.726,2.182,2.182,0,0,0,.208-.929,1.62,1.62,0,0,0-.372-1.107,1.253,1.253,0,0,0-.993-.426,1.88,1.88,0,0,0-.42.053l-.137-.133.11-.223q.36-.739.465-.973t.347-.866l.068-.183q.822.018,1.287.018c.295,0,.508,0,.639-.011s.262-.018.392-.033" transform="translate(-176.701 -41.696)" fill="#2d4587"/>
          <path id="Trazado_642169" data-name="Trazado 642169" d="M252.837,100.935l.123.329a6.375,6.375,0,0,0-1.424.818,5.873,5.873,0,0,0-.952.9,10.67,10.67,0,0,0-.71.991l.018.018q.374-.3.623-.481a2.115,2.115,0,0,1,.443-.254,1.124,1.124,0,0,1,.413-.076.954.954,0,0,1,.812.4,1.72,1.72,0,0,1,.3,1.044,2.729,2.729,0,0,1-.189.987,2.994,2.994,0,0,1-.529.886,2.584,2.584,0,0,1-.8.626,2.113,2.113,0,0,1-.965.232,1.175,1.175,0,0,1-.945-.408,1.738,1.738,0,0,1-.347-1.16,3.855,3.855,0,0,1,.333-1.535,5.541,5.541,0,0,1,.913-1.441,6.376,6.376,0,0,1,1.321-1.156,5.688,5.688,0,0,1,1.563-.724m-3.363,4.873a2.055,2.055,0,0,0,.162.748.646.646,0,0,0,.669.41.988.988,0,0,0,.739-.338,2.225,2.225,0,0,0,.486-.849,3.224,3.224,0,0,0,.167-1,1.454,1.454,0,0,0-.126-.677.636.636,0,0,0-.271-.3.685.685,0,0,0-.274-.064,1.319,1.319,0,0,0-.646.216,1.819,1.819,0,0,0-.637.681,2.318,2.318,0,0,0-.269,1.174" transform="translate(-177.142 -72.587)" fill="#2d4587"/>
          <path id="Trazado_642170" data-name="Trazado 642170" d="M134.412,68.248l-40.924-.672,0,.283-.15.242,40.413,24.346.3-.483L95.554,68.776l38.258,11.445.167-.542-38.446-11.5,38.869.638Z" transform="translate(-66.477 -48.598)" fill="#196442"/>
          <path id="Trazado_642171" data-name="Trazado 642171" d="M134.4,93.513l-38.869.654,38.446-11.782-.168-.556L95.554,93.553,134.045,69.8l-.3-.495L93.333,94.244l.15.247,0,.29,40.924-.688Z" transform="translate(-66.477 -49.839)" fill="#16566b"/>
          <path id="Trazado_642172" data-name="Trazado 642172" d="M134.635,71.3l-.15-.542L93.561,81.578l.075.271-.088.267L133.79,94.765l.176-.535-38.4-12.069,38.986.634.01-.562L95.674,81.6Z" transform="translate(-66.63 -50.887)" fill="#6fd9fb"/>
        </g>
      </g>
    </g>
  </g>
</svg>
