<svg xmlns="http://www.w3.org/2000/svg" xmlns:xlink="http://www.w3.org/1999/xlink" width="139" height="138.998" viewBox="0 0 139 138.998">
  <defs>
    <clipPath id="clip-path">
      <rect id="Rectángulo_379639" data-name="Rectángulo 379639" width="57.63" height="57.57" fill="#196442"/>
    </clipPath>
  </defs>
  <g id="img22" transform="translate(-317.5 -6331.002)">
    <g id="Grupo_1073571" data-name="Grupo 1073571" transform="translate(317.998 6331.502)">
      <path id="Unión_80" data-name="Unión 80" d="M71.834,137.437a16.653,16.653,0,0,1-3.406.563C69.875,137.792,71.465,136.962,71.834,137.437Zm-13.965.059a14.127,14.127,0,0,1-4.529-.64c.158-1.519-1.447-3.137,1.646-3.872,2.74-.261,6.268-.237,9.666-.367,1.7-.1,3.369-.161,4.857-.38a20.943,20.943,0,0,0,3.836-.718c-2.225,1.02-2.516,1.667-6,2.621.82.818-.018.427-2.121,1.257-2.018-.456.889-.451,1.09-1.056a21.925,21.925,0,0,0-4.316.4c-1.121.249-1.785.611-1.482.92,6.949.2-1.986.539,1.785,1.15-.125.432-1.715.705-3.535.705C58.469,137.52,58.172,137.514,57.869,137.5Zm9.014-.877a15.589,15.589,0,0,0,2.541-1.056,24.162,24.162,0,0,1,3.887-1.139,8.932,8.932,0,0,0,3.268-.023,27.029,27.029,0,0,0,3.846-1.085c2.705-1.02,5.516-2.366,8.285-3.493,1.191-1.257.574-1.031,3.813-2.935-.16,1.4-6.559,3.961-2.77,3.433a26.121,26.121,0,0,0,5.219-2.526c1.619-1.1,2.947-2.229,3.2-3.07-3.949,2.572-3.984,1.9-3.984,1.281s.043-1.175-3.9,1.155c1.676-1.12,2.43-2.116,5.039-3.878,2.324-1.191.652.327-.428,1.418-1.1,1.067-1.506,1.8,3.375-1.328l-.047-1.945c2.127-1.335,4.814-3.38,6.35-4.59-1.15,1.067-2.277,2.1-3.273,3.024a13.42,13.42,0,0,0-2.182,2.609,65.785,65.785,0,0,0,6.42-4.613c2.107-1.655,3.809-3.072,4.236-2.918a55.588,55.588,0,0,0,7.482-12.63c1.891-4.239,3.539-8.545,5.6-13.532,2.045-3.771,2.883-2.928,2.568-1.072,1.932-4.168.67-3.463,1.346-6.445-.293,3.2-.059,2.313,1.582,1.044a17.916,17.916,0,0,0,.559-2.3,88.513,88.513,0,0,1-1.336,10.3,93.75,93.75,0,0,1-2.633,10.324c-.7,2.259-2.887,5.028-5.109,7.536-1.139,1.233-2.254,2.437-3.227,3.48a14,14,0,0,0-2.176,2.763c.658-1.577-1.684-.237-3.99,2.3-.381.623.609-.035,1.2-.361-2.373,1.772-5.248,3.92-7.951,5.883-.67.491-1.324.984-1.945,1.471-.641.462-1.246.925-1.8,1.369a25.714,25.714,0,0,0-2.734,2.5l.891-1.2c.445-.587.848-1.222.848-1.222-3.713,2.976-6.488,4.4-9.148,6.439.082-.214,1.037-.783.787-.961a18.366,18.366,0,0,0-4.18,1.8c-.687.367-1.371.735-2.053,1.05a10.435,10.435,0,0,1-2.1.652l1.992-.913c.268-.422-2.42.51-3.777.966-1.852.6-5.793,2.366-2.088,1.851l-1.939.355c-.973.125-1.943.256-1.943.256-.1.111.094.178.338.225a28.22,28.22,0,0,0-3.393.148c-1.043.083-2.1.166-2.93.166C67.445,137.188,66.752,137.052,66.883,136.618Zm7.939.255a3.591,3.591,0,0,1,.568.071C75.232,136.926,75.012,136.909,74.822,136.873Zm.248-6.06a6.406,6.406,0,0,1-1.725.705C73.826,131.3,74.357,131.067,75.07,130.813Zm10.4-4.341c3.67-1.376,7.773-3.421,9.369-5.432.936-.219,1.48-.16,3.959-1.962-.592-.605,1.1-1.952,3.166-3.665,1.479-1.174,3.125-2.557,4.436-3.825a24.727,24.727,0,0,1-4.354.4c-.059,0-.123-.012-.184-.012a16.811,16.811,0,0,1-1.314,2.111,43.782,43.782,0,0,1-7.437,5.242c-1.131.622-2.209,1.245-3.4,1.808-1.162.6-2.395,1.216-3.795,1.856a3.321,3.321,0,0,0-1.447-.475c-.693.231-1.24.243-1.559-.059a5.91,5.91,0,0,0-1.518.344,1.59,1.59,0,0,1-.2.433c-.268.077-.49.153-.693.22-.664.444-1.672.942-2.65,1.471-1.453.705-2.869,1.363-3.043,1.886,4.426-.724,3.311-1.7,5.74-2.675,2.385.142.5.83,3.541.267a20.549,20.549,0,0,0-2.656.938c-1.145.373-2.455.883-3.8,1.292-2.7.817-5.52,1.334-6.912,1.12l.912-.291A18.93,18.93,0,0,1,66.5,126.7a10.882,10.882,0,0,0-2.807-.225,24.321,24.321,0,0,0-4.2.438l-1.672.2c-.844.119-1.689.161-1.689.161.172-.071.2-.178.291-.249-.322-.036-.613-.077-.891-.119a29.539,29.539,0,0,1-3.221-.166c-1-.42-.51-.515-.076-.641-.16-.059-.326-.118-.482-.171a9.915,9.915,0,0,0-1.807-.434c-.26-.053-.559-.106-.883-.159a1.539,1.539,0,0,0,.111.147c-.1-.064-.221-.124-.332-.184-.6-.089-1.3-.178-2.2-.261.236.023.291-.007.338-.035s.105-.06.35-.036c-3.137-1.352-6.713-1.506-9.189-2.479-.789-.937-.148-.818.682-.694a4.847,4.847,0,0,0,1.072.078c-2.662-1.323-5.492-2.533-8.07-3.8-1.318-.575-2.49-1.281-3.658-1.82-1.127-.6-2.146-1.156-3.014-1.625,0,0-.633-.777-1.268-1.548s-1.2-1.589-1.2-1.589c1.8,1.554,4.453,2.829,4.236,2.016-.832-.646-1.207-.877-1.662-1.179a8.35,8.35,0,0,1-1.9-1.886,2.318,2.318,0,0,1,.313.064c-1.535-1.494-3.342-3.255-4.346-4.233l.248-.782-.047-.118c-1.18-1.661-2.7-3.2-3.314-4.454l.559.154c-.859-1.6-1.98-3.042-2.652-4.607a6,6,0,0,0,1.1,3.077c-.633.09-2.246-2.591-2.91-4.482.219-.231.189-.8.029-1.565-1.293-1.376-2.551-2.953-3.629-4.045-.582-.313-.937-1.974-1.182-3.836-.318-1.844-.521-3.878-1.451-5a19.067,19.067,0,0,1,1.607,2.324c-.244-1.648-1.662-2.746-.76-3.451.225,2.176.42,1.714.67,1.258.178-.339.381-.671.641,0a20.041,20.041,0,0,0-1.252-4.288c.2,1.411-.189,1.2-.51,1s-.586-.408-.143,1a14.39,14.39,0,0,1-1.541-8c.428.024.627-.319.816-1.328l-.6-.83c.059-.558.2-.136.363.285.207.527.443,1.056.586-.361C5.439,66.9,5.777,64.929,6,63.162c.291-1.756.434-3.345-.373-4.085.582-.913.574.064.623.906.088.854.219,1.561.908.173.438,1.808-.713,4.044.26,4.708-.139-1.69.848-.521,1-1.565l-.328-1.9-.1.4c-.482-3.232,1.125-8.006,2.4-11.748.191-1.718.115-3.313.381-4.879a17.1,17.1,0,0,1,.541-2.437,15.377,15.377,0,0,1,1.189-2.567c-.033.683.488-.018,1-.51s1.008-.771.795.581c1.416-1.334,1.861-3.227,1.553-3.48-1.02,1.321-.428.415-1.352,1.5a5.9,5.9,0,0,1,2.1-3.456c-.273.32-.1.242-.02.415,1.424-1.435.1-1.1.813-2.378.861.07,2.094-2.432,3.273-3.166l.488-2.129c-.133.711.377.2.959-.313.42-.375.877-.742,1.156-.652.574-1.335.859-2.723,2.531-4.051-.219.445.3.154.908-.131.533-.254,1.131-.51,1.357-.267a11.727,11.727,0,0,0,3.352-3.41,7.022,7.022,0,0,1,3.609-2.91c0,.189-.332.93.6.545a17.032,17.032,0,0,1,2.443-1.72l-.012.029.027-.041-.016.012.373-.711c.061.029.066.076.09.112-.131.189-.281.386-.447.587.34-.231.523-.434.447-.587a12.787,12.787,0,0,1,3.6-4.062c-.547-.641-2.617.789-3.439,1.5l-.422,1.127c-1.352-.586-2.158,1.478-2.912,1.506.725-2.135,5.326-4.346,7.811-6.314-2.166-.237-6.012,1.478-9.014,3.5,0,0,.4-.106.795-.219s.807-.2.807-.2-.4.244-.807.481-.795.5-.795.5.5-.06.99-.13l1-.1A31.865,31.865,0,0,0,32.266,14.1c1.416-.854,2.453-.325,1.521.055-2.145.491-1.48,1.618-2.785,2.46.752-.444,1.684-1.073,1.346-.29a12.168,12.168,0,0,0-3.154,1.53,16.714,16.714,0,0,1-2.977,1.529c.557.38-.09.973-.826,1.606-.721.647-1.5,1.376-1.285,1.9l1.008-.8L23.689,24.52c-1.113.456-1.09.053-1-.356.125-.517.373-1.038-1.434.219-2.6,2.5-1.43,3.4-3.16,5.558a8.38,8.38,0,0,1,2.5-4.977l-1.229.754c.18-.83,2.42-3.107,3.643-4.127-1.281,2.448,1.061-.664,2.424-.92-.131-.272-.391-.261-.6-.249-.322.024-.5.048.176-1.014a37.653,37.653,0,0,1-3.469,2.923,8.225,8.225,0,0,0,2.828-4.079,5.49,5.49,0,0,1,2.877-3.469c-1,1.056-.078.866.754.682a2.626,2.626,0,0,1,.906-.136c.719-.7,2.277-1.945,2.848-2.58l-1.229-.463c2.01-1.9,3.986-.462,6.084-2.939.012-.415-.7-.042-1.3.325-.516.314-.949.635-.752.457C37.9,7.389,40.145,8.254,43.8,7.472a2.263,2.263,0,0,1,.734-2.022c-.131.753.885.694-.277,1.69a10.606,10.606,0,0,0,3.367-1.826c-2.58.545.668-1.24,1.014-1.768,1.334-.332-.189.735-.895,1.21a5.16,5.16,0,0,1,1.1-.065c.813.006,1.59.006,1.785-.748.125.32-.467.973-1.287,1.648a14.016,14.016,0,0,1-2.738,1.862l1.273-.361a4.468,4.468,0,0,1-2.158,1c1.377,0,1.465.6,1.383,1.157-.189-.03.018-.185-.162-.214-1.014.23-1.672.712-1.309.948-.3.76.4.546,1.156.333a2.894,2.894,0,0,1,1.172-.179l1.383-.706s.961-1.162,2.033-2.253c.535-.551,1.074-1.1,1.477-1.519.422-.4.705-.669.705-.669,2.184-.961,3.412-.475,5.2-.415l.332-.854c2.047-.3,4-.3,2.84.859-.111-.249-.365-.142-.807-.106a.6.6,0,0,1-.242.291,1.328,1.328,0,0,0-.076.154c2.01-.6,3.344-.86,3.539-.937-3.488,1.57.012,1.435-.445,2.894,0,0,.871-.244,1.756-.422L67.445,6.1c-2.223-.278-.088-.682.693-.913.148.48,1.2.332,2.295.184a8.021,8.021,0,0,1,1.957-.113l-.1.161a20.922,20.922,0,0,0,4.76.284C77,5.425,79.084,4.417,80.182,3.795c-2.621-.664-1-.754-1.145-1.269.279.083.777.166.854.076.422-.166-.486-.373-.527-.641-2.965-.088-5.93-.083-7.115.984a1.324,1.324,0,0,0,1.238.012,1.6,1.6,0,0,1,1.223-.053,9.055,9.055,0,0,1-3.885.469c-.521,0-1.072-.006-1.664.006l-.783-.635s-.588.1-1.168.243c-.576.124-1.156.262-1.156.262.953-.4.3-1.1,2.8-1.323-.213-.4-1.092-.207-2.088-.029a8.414,8.414,0,0,1-1.926.2l-.684.96c.258-.528-3-.225-.775-1.162,0,0,.914-.314,1.857-.558L67.131.848,66.021.332l1.637-.2C68.424.071,69.193.006,69.295,0h.012l-.764.468c2.643-.379,3.041.09,3.426.481.393.415.754.681,3.43.355,1.719-.925,3.629-.89,6.865-.019-2.408-.226-.381.683-1.369,1.115,2.277.884,3.242.184,4.57.113.469.7.766,1.238-1.287.64-.533,1.062,2.775.492,2.639,1.708a14.561,14.561,0,0,0,6.736.463c1.732-.078,3.707.029,7.074,2.769l-.516.261a26.786,26.786,0,0,1,3.713,1.945c-.023-.083.213-.143.871-.053l-.434.023c-.207.018-.4.035-.428.041.166.1.326.2.482.3a22.02,22.02,0,0,1,2.75,1.339l.99-.562c-.658.812,2.9,3.1,5.77,4.666-2.436-2.389-1.721-1.867-1.975-3.32a8.836,8.836,0,0,1,4.418,2.77,18.091,18.091,0,0,0,4.357,3.511c-.457-.107-4.184-2.854-1.293-.107,2.338,2.271,2.574,1.424,4.26,2.895-2.291-1.27-2.318-.387-4.881-1.471a32.153,32.153,0,0,0-3.072-2.455c-.238-.143-.469-.291-.936-.581s-1.176-.718-2.408-1.358c0,0,.225.189.564.48s.783.658,1.189,1.085c.83.818,1.633,1.637,1.633,1.637-1.918-1.346-2.748-1.625-3.168-1.56a.519.519,0,0,0-.268.124l.055.09c.189.344.355.682.5.984a16.449,16.449,0,0,0,4.375,2.935,7.337,7.337,0,0,1,3.623,2.592c.969.657.361-.065-.262-.789-.715-.836-1.457-1.672.174-.38,1.582,1.8,1.785,1.969,2.182,2.1.35.16.891.272,2.586,2.4l-.838-.516c.553,1.606,1.928,2.627,2.949,4.239.609.854.971-.012,1.7-.154.7-.13,1.963.444,3.752,4.607-.379-.32-.58-.409-.668-.373l2.027,1.15a43.841,43.841,0,0,1,3.16,11.806,65.547,65.547,0,0,1,.439,7.43v.813c-.008.848-.025,1.743-.049,2.692-.225.664-.314-.415-.361-.955a60.232,60.232,0,0,1-1.055,10.424c-.623,3.517-1.434,6.736-1.785,8.9-.527,1.85-2.746,6.273-2.479,4.383a13.475,13.475,0,0,1-.924,2.84c-.576.059.752-2.206.361-2.425a11.546,11.546,0,0,0-.471,1.056c-.141-1.067-1.961.569.133-5.071,1.061-1.031.6.237.207,1.507-.344,1.109-.635,2.218.172,1.791.766-2,.166-1.951.078-2.171.93-2.543,1.172-2.407,1.439-2.164-.053-1.109,1.447-4.287,1.139-5.877.557-2.875.789-2.467,1-2.063.174.345.326.683.648-.9,0,0-.244-.563-.494-1.133s-.51-1.114-.51-1.114.295-1.429.516-2.888c.125-.729.213-1.465.277-2.016s.109-.92.109-.92c-.031-4.322-.725-4-1.322-3.854-.314.077-.637.106-.937-.463a16.823,16.823,0,0,1-.92-4.1c.77,1.21,1.844-2.716,1.086-7.394.725,2.686,2.234,7.726,1.814,11.295.486-2.514.563-.794.621,1.246.031,2.033-.074,4.364.617,3.1a86.987,86.987,0,0,1-.562-9.974l.244,1.062a17.82,17.82,0,0,0-1.187-4.91,36.285,36.285,0,0,1-1.637-5.823c-.775-2.288-.3-1.974.154-1.672-.83-1.909-1.844-3.48-1.547-3.61a51.021,51.021,0,0,0-4.994-2.324,43.211,43.211,0,0,0-5.039-1.644,40.743,40.743,0,0,1,5.07,11.409,42.439,42.439,0,0,1,1.434,13.193c.734-.077.09,4.127-.238,4.21l-.064-.48c-.143.979-.248,1.957-.449,2.911.006.362.012.73.016,1.109,0,0,.1.48.162.954s.143.968.143.968-.154,1.257-.379,2.5c-.1.628-.215,1.25-.314,1.713s-.16.771-.16.771c.3-2.721.508-4.968.549-6.9L128,63.228c-.166.942-.4,1.855-.617,2.775a8.192,8.192,0,0,1-.094,1.168.828.828,0,0,0-.09-.439c-.088.3-.172.588-.26.872a23.084,23.084,0,0,1-.244,5.069c-.236,1.892-.594,3.688-.682,4.543a13.171,13.171,0,0,0,.238-1.312c.029.671-.084,1.121-.078,1.791-.178.226-.207,0-.166-.438a28.213,28.213,0,0,1-2,6.19c.641-1.417,1.285-3.38.682-2.953-1.605,2.751-3.184,3.617-4.828,8.788L120.6,87.9c.381-.688.713-1.4.713-1.4s-.113.432-.285,1.091c-.2.652-.451,1.523-.705,2.395s-.559,1.738-.779,2.384-.373,1.091-.373,1.091c-1.836,1.814,1.223-3.444,1.139-4.6-2,5.272-6.344,7.875-6.783,10.674a3.191,3.191,0,0,0-3.2.984,3.807,3.807,0,0,1-.551.973c.391-.095.166.326-.037.747-.26.528-.49,1.05.516.581-.3.872-1.545,1.874-2.205,2.592l.076,2.1c.119-.118.215-.213.357-.361-.082.125-.207.3-.35.485l.078,2.194c0,.006,0,.012,0,.018l.041.967a21.989,21.989,0,0,0,1.842-2.467,17.768,17.768,0,0,1,3.037-3.368c-.262.4.006.231-.254.635,2.24-3.249,2.094-2.544,2.025-1.845-.027.362-.041.724.3.546a24.148,24.148,0,0,0-2.49,2.988,18.1,18.1,0,0,1-2.332,2.621,10.853,10.853,0,0,1-2.051,3.113l.029.747-.527-.184c-.766.848-1.637,1.713-2.533,2.573-.027-.462-.752-.142-1.434.184-.635.3-1.223.6-1.17.261a72.294,72.294,0,0,1-6.51,4.649c-1.186.741-2.359,1.47-3.437,2.146-1.1.652-2.111,1.257-2.932,1.826l1.471-.682c-2.436,1.3-2.84,1.689-3.006,2.1-.176.391-.152.717-1.969,1.559l-.58-1.411a24.678,24.678,0,0,1-3.605,1.808c-1.232.439-2.367.843-3.225,1.15C78.563,128.684,81.807,127.86,85.473,126.473Zm22.488-13.016c.143-.012.262-.019.363-.023l-.018-.374Zm-.836-2c-.193.339-.184.5.363.154.094-.088.172-.178.26-.272C107.541,111.382,107.334,111.417,107.125,111.458Zm-83.2-.889c.369.112.822.3,1.32.5a2.906,2.906,0,0,1,1.027.4c.131.048.25.095.379.143a11.787,11.787,0,0,0-1.812-2.011l-.244.106c-.379-.373-.131-.267.119-.2-.35-.243-.547-.22-.719-.137s-.3.178-.5-.041C23.074,109.354,23.879,110.178,23.928,110.569Zm84.129-.451.031.86.141-.143-.035-.937C108.164,109.952,108.121,110.023,108.057,110.118Zm-.854.463c0,.059.006.125.006.184.072-.07.137-.142.2-.213C107.334,110.563,107.268,110.569,107.2,110.581Zm.416.142c.143-.023.271-.041.414-.07l-.018-.475C107.908,110.332,107.766,110.528,107.619,110.723Zm-.422-.3c.1.019.189.03.279.047.137-.147.271-.3.379-.438.041-.029.066-.048.1-.071a3.853,3.853,0,0,1-.463,0h-.309Zm-4.383-.048-.01.007c.641-.095.912-.185.959-.279-.236,0-.492-.012-.746-.023C102.951,110.178,102.875,110.279,102.814,110.379Zm5.076-2.431.078,2,.041-.029-.078-2.027A.267.267,0,0,1,107.891,107.948Zm.084-.107.072,2.052a.772.772,0,0,1,.141-.083l-.076-2.146C108.07,107.723,108.021,107.782,107.975,107.841ZM23.229,108.9a12.185,12.185,0,0,1-.48-1.209,7.613,7.613,0,0,0-1.051-1.043c.189.74-.143,1.215.521,1.956.023-.172.09-.243.189-.243C22.592,108.357,22.883,108.583,23.229,108.9Zm83.9-.4c.061-.054.107-.095.172-.161,0-.153-.01-.313-.016-.474l-.1.018c-.041-.023-.049-.035-.078-.054Zm.684-2.792.076,2.05.043-.047-.078-2.069C107.832,105.665,107.826,105.684,107.809,105.708Zm.082-.119.078,2.087.135-.142-.076-2.1C107.986,105.482,107.928,105.542,107.891,105.589Zm-.848.563c.012.457.031.92.047,1.376l.178-.018c-.018-.485-.035-.984-.053-1.488C107.156,106.068,107.1,106.11,107.043,106.151Zm21.383-47.122c.07.35.111.693.117.759.133-1.239.275-2.479.3-3.718-.687,1.05-.943-.534-1.238-2.259-.232-1.554-.559-3.221-.812-3.333.041.172.064.368.119.527-.16.569-.381.427-.588.22.357,4.009.889,7.437,1.908,7.78l.061-.735Zm-2.467-3.392.348,1c.045-.724.061-1.4.068-2a2.569,2.569,0,0,1-.428-1.155C125.965,54.2,125.988,54.907,125.959,55.638Zm-.119-4.608c.014.113.023.226.029.339.078.332.221.942.367,1.571.055.272.1.533.143.782,0-1.4-.064-2.312-.053-2.5-.137-.148-.273-.309-.367-.309C125.91,50.917,125.869,50.946,125.84,51.029Zm-2.088-11.6a5.814,5.814,0,0,0,1.377.284,25.642,25.642,0,0,1,1.4,4.288,16.425,16.425,0,0,1,.357,3.9c.189.7.373,1.565.514,2.33.285,1.583.57,2.716.879.854a63.756,63.756,0,0,0-1.945-8.5,23.438,23.438,0,0,0-3.979-7.407C122.289,36.183,122.959,37.67,123.752,39.426ZM125.8,50.591a4.065,4.065,0,0,0-.1-1.256C125.752,49.743,125.775,50.17,125.8,50.591Zm.883-.6c0-.042,0-.077,0-.118-.037-.368-.078-.859-.125-1.353-.008-.076-.018-.159-.025-.242A9.553,9.553,0,0,0,126.688,49.992Zm-1.666-4.809a.628.628,0,0,1,.113-.213c-.125-.3-.006-.161.172-.012-.244-.652-.486-1.275-.754-1.874C124.73,43.767,124.873,44.478,125.021,45.184Zm.693-.083c.143-.089.209-.457.053-1.446a2.427,2.427,0,0,0-1.219-2.36A22.087,22.087,0,0,1,125.715,45.1Zm9.139-3.161c.207.795.35,1.6.35,1.6a9.2,9.2,0,0,0-.736-3.2S134.664,41.14,134.854,41.939ZM122.531,37.3c.184.439.367.871.563,1.329a8.953,8.953,0,0,0-.533-1.383A.15.15,0,0,1,122.531,37.3Zm-2.371-4.951a1.792,1.792,0,0,0-.156-1.4l-.67-.119C119.625,31.332,119.893,31.854,120.16,32.346ZM109.707,18.689c.7.007-.109-.705-1.318-1.369-.041-.023-.078-.042-.111-.065a1.648,1.648,0,0,1-.844-.029.39.39,0,0,0,.273-.279,13.582,13.582,0,0,0-2.68-.989,7.876,7.876,0,0,1-2.426-.126c.492.4.83.683.83.683a2.638,2.638,0,0,0-1.85-.5c-.119.006-.238.006-.363.006a7.114,7.114,0,0,1,1.531,1.708l.035.012a2.173,2.173,0,0,1,.4-.575c-.314-.279-.369-.533.018-.753a8.842,8.842,0,0,0,.908.676c.01.006.016.006.027.012l.02.019a3.374,3.374,0,0,0,2.08.563c.148,0,.3-.006.451-.006A5.05,5.05,0,0,1,109.707,18.689Zm-2.682-4.145c.143.053.279.107.408.148-.1-.124-.2-.231-.289-.368C107.049,14.355,107.02,14.438,107.025,14.545Zm2.662.143c-.023-.3-.012-.575.615-.486-.988-.4-1.836-.759-2.584-1.091C108.354,13.613,109,14.136,109.688,14.688Zm-3.48-.517c-.1-.1-.189-.2-.3-.3C105.867,13.934,105.936,14.023,106.207,14.171Zm-5.213-2.348c.879.249,1.875.533,2.99.877-.221-.3-.393-.533-.393-.533a3.721,3.721,0,0,0-1.643-.468A6.84,6.84,0,0,0,100.994,11.823Zm-6.641-1.88c.014.03-.01.048-.035.066.492.106.977.226,1.465.344,1.115.32,2.287.646,3.705,1.049-.219-.13-.455-.284-.74-.492a5.417,5.417,0,0,1,3.711.077c-.6-.486-.152-.3.363-.125a1.641,1.641,0,0,0,.789.173c-.3-.173-.607-.356-.922-.551a8.4,8.4,0,0,1-2.01-.878A10.843,10.843,0,0,0,97.508,8.2a1.7,1.7,0,0,0,.291,0,1.9,1.9,0,0,1,.955.183S97.83,7.785,96.9,7.192s-1.9-1.108-1.9-1.108c.379.491-.521.267-1.494.06-.984-.19-2.064-.327-2.033.154,2.074.948,2.791,1.316,3.615,1.63a15.648,15.648,0,0,1,2.725,1.453,6.511,6.511,0,0,1,.9.344l-.4-.018c.2.13.41.267.641.415a8,8,0,0,0-2.709-.444A5.833,5.833,0,0,0,94.354,9.943ZM78.461,11.3l.1-.03c.148-.041.285-.076.428-.119A47.346,47.346,0,0,0,71.346,10q.275.11.539.22A54.949,54.949,0,0,1,78.461,11.3Zm1.318-.368a.942.942,0,0,1,.111-.03c-.047-.017-.1-.028-.158-.047Zm14.105-1.02c.119.03.232.054.344.077.043-.012.078-.029.125-.042a.508.508,0,0,0-.213-.178A2.5,2.5,0,0,0,93.885,9.908ZM53.932,128.565a1.8,1.8,0,0,1,.895.457Zm36.355-1.405c-.262.148-.545.3-.867.456C89.758,127.438,90,127.309,90.287,127.16Zm-35.17.184,1.021-.064a1.156,1.156,0,0,1-.539.088C55.467,127.367,55.307,127.355,55.117,127.344Zm35.221-1.132,1.254-.859.324-.06-1.25.866c-.623.443-1.275.835-1.275.835l-.338.042S89.717,126.657,90.338,126.212Zm-58.045-4.441c-1.4-.706-2.75-1.524-3.758-2.152-1.02-.6-1.66-1.067-1.66-1.067a65.331,65.331,0,0,0,11.1,5.841A59.357,59.357,0,0,1,32.293,121.771Zm2.822-.747,1.674.771A9.691,9.691,0,0,1,35.115,121.023Zm-1.9-.907c-.926-.516-1.85-1.025-1.85-1.025-.166-.374.629-.083,1.375.213a5,5,0,0,0,1.158.385c-.043-.07-.066-.147-.1-.219.184.172.178.207.1.219a2.456,2.456,0,0,0,1.213,1.335S34.15,120.6,33.219,120.116ZM24.3,116.605c-.8-.646-1.59-1.293-1.59-1.293l1.369.415c.682.2,1.352.4,1.352.4l-.789.053c.207.616,1.625,1.139,2.023,1.192l-.725.462S25.09,117.252,24.3,116.605Zm2.365.771.094-.059c.047.042.031.059-.029.059Zm78.633-1.2c.01.029.041.041.023.089-.186.142-.48.374-.748.581C104.814,116.612,105.057,116.392,105.295,116.173Zm-83.5-3.09c.516,1.091-.031,1.893-1.8.647l1.459-1.175a10.565,10.565,0,0,1,1.34.979c.5.415.914.854.705,1.121C21.84,114.524,23.459,114.079,21.793,113.083Zm89.648-1.352-1.885,2.372-.291.142ZM17.5,110.943a5.342,5.342,0,0,1,1.066,1.238C18.1,111.856,17.156,111.2,17.5,110.943Zm-3.512-4.892.559.895.6.871A12.108,12.108,0,0,1,13.988,106.052Zm-.84-1.37.07-.107c.238.481.48.955.766,1.478Zm-1.08-1.892-.682-1.264,1.1.486a1.688,1.688,0,0,1-.422.777c.012.023.268.492.521.961.273.468.559.931.559.931l-.6.919C11.148,103.993,11.654,103.329,12.068,102.79Zm103.781.942a2.622,2.622,0,0,1-.646.581A7.293,7.293,0,0,1,115.85,103.732Zm-105.115-2.5v-.99s.154.32.313.646.34.636.34.636Zm107.029-3.185.664-1.05s-.355.7-.758,1.376-.807,1.358-.807,1.358ZM7.557,97.418S7.135,96.6,6.5,95.371c-.562-1.25-1.383-2.911-2.016-4.643A60.072,60.072,0,0,1,2.2,83.69a1.035,1.035,0,0,1-.326-.6l.25.309s-.285-1.067-.516-2.146c-.213-1.086-.422-2.171-.422-2.171.309-2.959,1.131-.367.924-4.252-.6-.076-.586.368-1.078,1.026,0,0-.1-.729-.207-1.465L.7,72.9l.338.189-.51-2.419c.486-.594.8.379,1.057,1.352.342,1.323.586,2.64,1.014.095,1.25,5.42,1.57,10.1,3.414,15.033-.434-.914-.705.012-.932.3-.656-4.5-1.287-2.633-2.365-5.775a10.386,10.386,0,0,0,.445,4.062,20.7,20.7,0,0,0,.877,2.5A5.928,5.928,0,0,0,5.16,89.928l-.266-1.689,1.494,1.346c.053.445-.125.521-.291.521,1.066.327,2.045,4.359,3.385,6.891-.752-.629-.883-.112-.959.4-.055.35-.084.693-.268.693C8.125,98.087,7.912,97.909,7.557,97.418ZM6.008,87.154a7.165,7.165,0,0,1,.309.812C6.2,87.693,6.109,87.427,6.008,87.154ZM123.928,83.6c-.082.172-.168.361-.24.484C123.754,83.938,123.844,83.769,123.928,83.6Zm7.313-.049a.866.866,0,0,1,.008.2A.467.467,0,0,1,131.24,83.549Zm-7.275-.03c-.012.026-.025.053-.037.079C123.939,83.571,123.953,83.544,123.965,83.519Zm.037-.071c-.012.023-.023.047-.037.071C123.979,83.494,123.99,83.471,124,83.447Zm5.039-6.381a2.021,2.021,0,0,0-.385-1.2c.148-.338.309-.7.408-.979,0,0-.006-.581-.023-1.452s-.057-2.022-.148-3.167c-.146-2.294-.479-4.523-.479-4.523l.035-.261c.047,2.08,1.873.2,1.506-3.072l.326.795a14.217,14.217,0,0,1,.072-5.106c.117,2.687.734-1.3,1.043-1.761,0,0,.023.884-.031,2.206-.029,1.322-.148,3.084-.355,4.827-.189,1.743-.48,3.475-.74,4.756-.238,1.286-.445,2.134-.445,2.134a2.526,2.526,0,0,1-.129-1.844c-.8,3.812.408,3.355-.631,6.469l-.023,2.182a13.148,13.148,0,0,1-.135,2.941Zm-.871-.966c.184-.326.35-.362.486-.237-.1.23-.17.409-.279.664ZM.055,72.057s-.018-.438-.053-1.2c.006-.765.012-1.862.023-3.172s.178-2.835.3-4.465c.221-1.613.4-3.351.76-5.04a62.581,62.581,0,0,1,2.443-9.144c.389-1.228.8-2.206,1.078-2.9s.439-1.091.439-1.091c-.084,0-.143-.066-.148-.309a1.724,1.724,0,0,0,.432-.392s.154-.362.4-.89.58-1.239.912-1.944.688-1.395.967-1.91.463-.854.463-.854c-.562-.019.813-2.324,1.037-3.179-.244.979-.152,1.233.061,1.2l.332-.545.77-1.535c.35-1.565,4.357-5.064,2.438-5.022.758-.925,2.182-1.6,3.174-3.143.26-.03.389.006.461.089l.166-.2c-.035.112-.078.225-.113.344a.946.946,0,0,1-.141.385c-.369,1-.582,1.826.6,1.038-1.289,1.7-3.424,3.842-2.559,4.322a5.969,5.969,0,0,0,1.8-1.181,11.907,11.907,0,0,0-1.736,3.126,16.346,16.346,0,0,1-1.6,3.006c.254-1.482,2.484-6.22.113-4.293,0,0-.041.646-.072,1.292s-.041,1.288-.041,1.288c-.77.628-.184-.783-.143-1.21-.539-.189-2.283,2.075-2.117,2.84.439-.023,1.395-1.606,1.139.03,0,0-.129.391-.318.973s-.393,1.387-.611,2.175c-.3,1.032-.535,2.076-.664,2.663.059-.664-.416-.706-.5-.836-.664,1.139.125,1.951-1,3.422,0,0,.018-.652.053-1.3l.072-1.3c-.973,2.467-1.295,3.208-1.609,3.878a11.349,11.349,0,0,0-.816,3.7l-.125-.143c-.469,1.606-1.244,4.519-.967,6.148l-.812-.242c.563,1.227.4,1.535.1,1.985a3.674,3.674,0,0,0-.707,2.794l-.047-.558c-.227,2.123-.586,1.062-1.15.848a5.108,5.108,0,0,0,.393,3.636,5.848,5.848,0,0,1,.408,3.617c-.273-.071-.521.147-.754.366-.262.244-.51.493-.764.332A6.205,6.205,0,0,0,1.9,66.453c-.428-.3-.533.386-.594,1.067-.07.871-.074,1.749-.627.552a35.5,35.5,0,0,0-.623,3.984l.1,1.957A10.262,10.262,0,0,1,.055,72.057Zm9.992-28.842a2.111,2.111,0,0,1-.1.492S9.98,43.518,10.047,43.215Zm-.932-7.673a.035.035,0,0,1-.006.023A.035.035,0,0,0,9.115,35.542Zm7.727-5.123a5.872,5.872,0,0,1-.742.906C16.32,31.041,16.551,30.744,16.842,30.419ZM16.736,25.2c.715-.6,1.047-.646,1.238-.491l-1.459,1.708A2.5,2.5,0,0,0,16.736,25.2Zm1.238-.491s.707-.747,1.4-1.494S20.8,21.737,20.8,21.737c.07.362-1.162,1.928-.07,1.411,0,0-.557.605-1.115,1.217s-1.1,1.227-1.1,1.227C18.234,25.456,18.23,24.91,17.975,24.709Zm96.35-5.438c-.307-.379,1.5,1.063.938,1.358C115.18,20.2,114.621,19.657,114.324,19.271ZM104.137,17.1Zm-.705-.587a5.469,5.469,0,0,1,.705.587ZM96.891,8.029c.227.053.41.106.617.166A2.254,2.254,0,0,1,96.891,8.029ZM49.307,6.962c2.615-1.779,1.434-1.821,2.9-3.463l-.691.242c-.4-.089.793-.622,1.047-.74-.324.337-.01.332.3.332.277,0,.551-.007.379.23L54.887,2.7c.83-.415,1.678-.8,1.678-.8l-.521.842s-.646.528-1.264,1.109L53.559,4.993c-.268.118-.535.226-.844.392a4,4,0,0,1-3.379,1.577ZM64.365,3.979a.026.026,0,0,1-.016.006A.024.024,0,0,0,64.365,3.979Zm0,0h0Zm1.684-.729a4.5,4.5,0,0,1-1.258.29ZM78.984,2.4a.288.288,0,0,1,.053.125C78.861,2.473,78.76,2.419,78.984,2.4ZM74.875,2.33l2.211.106-2.033.012Zm8.9-.717s.393.1.766.237L85.3,2.1l-1.328.1a.937.937,0,0,1-.244.06C83.5,2.259,84.119,1.82,83.775,1.613ZM63.531,1.127,64.35.842c.408-.148.83-.261.83-.261l.367.172s-.408.125-.822.249l-.82.279Z" transform="translate(0 0)" fill="#fff" stroke="rgba(0,0,0,0)" stroke-miterlimit="10" stroke-width="1"/>
      <g id="Grupo_1074957" data-name="Grupo 1074957">
        <rect id="Rectángulo_378372" data-name="Rectángulo 378372" width="71" height="71" transform="translate(31.002 31.118)" fill="#fff"/>
        <g id="Grupo_1074851" data-name="Grupo 1074851" transform="translate(38.005 38.118)">
          <g id="Grupo_1074850" data-name="Grupo 1074850" clip-path="url(#clip-path)">
            <path id="Trazado_642182" data-name="Trazado 642182" d="M66.758,21.8q0-7.988,0-15.976a5.651,5.651,0,0,1,1.195-3.7A5.506,5.506,0,0,1,71.93.035C72.267.007,72.606,0,72.944,0q15.765,0,31.53,0a6.013,6.013,0,0,1,3.419.89,5.4,5.4,0,0,1,2.546,4.573c.011.373,0,.746,0,1.119q0,15.676,0,31.353a5.46,5.46,0,0,1-3.657,5.3,6.629,6.629,0,0,1-2.271.372q-15.918,0-31.836,0a5.93,5.93,0,0,1-3.645-1.091,5.381,5.381,0,0,1-2.274-4.378c-.01-.355,0-.711,0-1.067q0-7.637,0-15.273ZM88.6,39.893v0q8.338,0,16.676-.006a1.276,1.276,0,0,0,.589-.152,1.719,1.719,0,0,0,.947-1.611q0-15.95,0-31.9c0-.269-.008-.538,0-.807a1.813,1.813,0,0,0-1.769-1.758q-16.416.034-32.832,0A1.859,1.859,0,0,0,70.38,5.494q.026,12.125.01,24.251,0,4.215,0,8.431a1.692,1.692,0,0,0,.472,1.2,1.778,1.778,0,0,0,1.427.527c5.437-.016,10.875-.01,16.312-.01" transform="translate(-52.815 0)" fill="#196442"/>
            <path id="Trazado_642183" data-name="Trazado 642183" d="M59.125,72.495c-4.856,0-9.712-.008-14.568.005a13.979,13.979,0,0,1-4.2-.589A12.873,12.873,0,0,1,31.9,63.54a12.2,12.2,0,0,1-.577-3.709q0-15.338,0-30.676a1.956,1.956,0,0,1,.614-1.54,1.764,1.764,0,0,1,2.912.811,3.23,3.23,0,0,1,.1.846q.008,15.286,0,30.572A9,9,0,0,0,41.924,68.6a9.433,9.433,0,0,0,2.062.214q15.335.02,30.671.009a2.332,2.332,0,0,1,1.383.373,1.785,1.785,0,0,1-.048,2.97,1.7,1.7,0,0,1-.945.319c-.451,0-.9.008-1.352.009H59.125" transform="translate(-24.78 -21.469)" fill="#196442"/>
            <path id="Trazado_642184" data-name="Trazado 642184" d="M27.8,103.815c-4.856,0-9.712-.008-14.568.005a13.98,13.98,0,0,1-4.2-.589A12.873,12.873,0,0,1,.58,94.86,12.2,12.2,0,0,1,0,91.151Q0,75.813,0,60.475a1.956,1.956,0,0,1,.614-1.54,1.764,1.764,0,0,1,2.912.811,3.23,3.23,0,0,1,.1.846q.008,15.286,0,30.572A9,9,0,0,0,10.6,99.921a9.433,9.433,0,0,0,2.062.214q15.335.02,30.671.009a2.332,2.332,0,0,1,1.383.373,1.785,1.785,0,0,1-.048,2.97,1.7,1.7,0,0,1-.945.319c-.451,0-.9.008-1.352.009H27.8" transform="translate(0 -46.249)" fill="#196442"/>
            <path id="Trazado_642185" data-name="Trazado 642185" d="M122.385,62.367l9.675-7.386c2.4-1.883,3.324-3.1,3.324-4.653a2.576,2.576,0,0,0-2.881-2.622c-1.736,0-3.1,1-5.133,3.324L122.533,47c2.77-3.582,5.5-5.539,10.525-5.539,5.65,0,9.528,3.361,9.528,8.235v.074c0,4.136-2.142,6.278-5.982,9.048l-4.432,3.1h10.673v5.835H122.385Z" transform="translate(-96.83 -32.807)" fill="#196442"/>
          </g>
        </g>
      </g>
    </g>
  </g>
</svg>
