<svg xmlns="http://www.w3.org/2000/svg" width="505" height="72" viewBox="0 0 505 72">
  <g id="img21" transform="translate(-638 -1480)">
    <g id="Rectángulo_379122" data-name="Rectángulo 379122" transform="translate(638 1480)" fill="#fff" stroke="#707070" stroke-width="1">
      <rect width="505" height="72" rx="12" stroke="none"/>
      <rect x="0.5" y="0.5" width="504" height="71" rx="11.5" fill="none"/>
    </g>
    <g id="Grupo_1074848" data-name="Grupo 1074848" transform="translate(4.667 -361)">
      <text id="_" data-name=" =" transform="translate(708 1884)" fill="#12263f" font-size="16" font-family="Roboto-BoldItalic, Roboto" font-weight="700" font-style="italic"><tspan x="-6.453" y="0" xml:space="preserve"> =</tspan></text>
      <text id="_2" data-name="= " transform="translate(840 1883)" fill="#12263f" font-size="16" font-family="Roboto-BoldItalic, Roboto" font-weight="700" font-style="italic"><tspan x="-6.453" y="0">= </tspan></text>
      <text id="_3" data-name="= " transform="translate(988 1883)" fill="#12263f" font-size="16" font-family="Roboto-BoldItalic, Roboto" font-weight="700" font-style="italic"><tspan x="-6.453" y="0">= </tspan></text>
      <text id="_4" data-name="+" transform="translate(1071 1883)" fill="#12263f" font-size="16" font-family="Roboto-BoldItalic, Roboto" font-weight="700" font-style="italic"><tspan x="-4.273" y="0">+</tspan></text>
      <path id="Trazado_643679" data-name="Trazado 643679" d="M-14.008,0a2.281,2.281,0,0,1-.086-.766A2.863,2.863,0,0,1-16.25.156a2.594,2.594,0,0,1-1.84-.723,2.186,2.186,0,0,1-.684-1.746,2.527,2.527,0,0,1,1.16-2.121,5.266,5.266,0,0,1,2.965-.738l1.031.016.109-.508a1.764,1.764,0,0,0,.023-.492.846.846,0,0,0-.277-.574.955.955,0,0,0-.629-.215,1.345,1.345,0,0,0-.875.254,1.231,1.231,0,0,0-.461.777l-2.211.008a2.457,2.457,0,0,1,1.113-1.965,4.312,4.312,0,0,1,2.613-.738,3.117,3.117,0,0,1,2.25.855,2.5,2.5,0,0,1,.68,2.121l-.648,4.047-.039.5a2.412,2.412,0,0,0,.133.938L-11.844,0Zm-1.7-1.555a2.017,2.017,0,0,0,1.664-.828l.273-1.461-.766-.008a2.139,2.139,0,0,0-1.758.742,1.292,1.292,0,0,0-.242.633.75.75,0,0,0,.176.668A.891.891,0,0,0-15.7-1.555ZM-1.016-6.367H1.719L1.359-4.328H-1.367l-.555,3.188h-2.1l.555-3.187h-2.75l.359-2.039h2.742l.531-3.055h2.1ZM14.063-4.2A6.061,6.061,0,0,1,12.844-1,3.033,3.033,0,0,1,10.3.164,2.357,2.357,0,0,1,8.266-.914L7.945,0H5.938L8.016-12h2.211L9.375-7.68a2.634,2.634,0,0,1,2.063-.93,2.385,2.385,0,0,1,1.926.879,3.89,3.89,0,0,1,.746,2.387A9.133,9.133,0,0,1,14.063-4.2Zm-2.187-.165A6.554,6.554,0,0,0,11.922-5.4Q11.836-6.766,10.8-6.789A1.833,1.833,0,0,0,9.18-5.9L8.57-2.534a1.258,1.258,0,0,0,1.266.878q1.625.047,1.992-2.367ZM17.078,0H14.859l1.469-8.453h2.219Zm-.492-10.6a1.1,1.1,0,0,1,.344-.867,1.209,1.209,0,0,1,.867-.344,1.215,1.215,0,0,1,.867.3,1.1,1.1,0,0,1,.383.828,1.132,1.132,0,0,1-.324.844,1.215,1.215,0,0,1-.887.375,1.235,1.235,0,0,1-.863-.3A1.091,1.091,0,0,1,16.586-10.6Z" transform="translate(673 1874)" fill="#12263f"/>
      <path id="Trazado_643680" data-name="Trazado 643680" d="M-46.625-4.594a13.2,13.2,0,0,1,1.668-4.988,7.175,7.175,0,0,1,3.246-3.066l.375,1.258q-2.672,2.039-3.383,6.555a19.376,19.376,0,0,0-.258,2.75q-.039,3.211,1.469,4.461L-44,3.555A5.13,5.13,0,0,1-46.359.313,10.87,10.87,0,0,1-46.758-3a13.121,13.121,0,0,1,.1-1.406ZM-37.141,0a2.281,2.281,0,0,1-.086-.766,2.863,2.863,0,0,1-2.156.922,2.594,2.594,0,0,1-1.84-.723,2.186,2.186,0,0,1-.684-1.746,2.527,2.527,0,0,1,1.16-2.121,5.266,5.266,0,0,1,2.965-.738l1.031.016.109-.508a1.764,1.764,0,0,0,.023-.492.846.846,0,0,0-.277-.574.955.955,0,0,0-.629-.215,1.345,1.345,0,0,0-.875.254,1.231,1.231,0,0,0-.461.777l-2.211.008a2.457,2.457,0,0,1,1.113-1.965,4.312,4.312,0,0,1,2.613-.738,3.117,3.117,0,0,1,2.25.855,2.5,2.5,0,0,1,.68,2.121l-.648,4.047-.039.5a2.412,2.412,0,0,0,.133.938L-34.977,0Zm-1.7-1.555a2.017,2.017,0,0,0,1.664-.828l.273-1.461-.766-.008a2.139,2.139,0,0,0-1.758.742,1.292,1.292,0,0,0-.242.633.75.75,0,0,0,.176.668A.891.891,0,0,0-38.836-1.555Zm14.688-4.812h2.734l-.359,2.039H-24.5l-.555,3.188h-2.1l.555-3.187h-2.75l.359-2.039h2.742l.531-3.055h2.1ZM-9.07-4.2A6.061,6.061,0,0,1-10.289-1,3.033,3.033,0,0,1-12.836.164,2.357,2.357,0,0,1-14.867-.914l-.32.914H-17.2l2.078-12h2.211l-.852,4.32a2.634,2.634,0,0,1,2.063-.93A2.385,2.385,0,0,1-9.77-7.73a3.89,3.89,0,0,1,.746,2.387A9.133,9.133,0,0,1-9.07-4.2Zm-2.187-.165A6.554,6.554,0,0,0-11.211-5.4q-.086-1.364-1.125-1.387a1.833,1.833,0,0,0-1.617.885l-.609,3.37a1.258,1.258,0,0,0,1.266.878q1.625.047,1.992-2.367ZM-6.055,0H-8.273L-6.8-8.453h2.219Zm-.492-10.6a1.1,1.1,0,0,1,.344-.867,1.209,1.209,0,0,1,.867-.344,1.215,1.215,0,0,1,.867.3,1.1,1.1,0,0,1,.383.828,1.132,1.132,0,0,1-.324.844,1.215,1.215,0,0,1-.887.375,1.235,1.235,0,0,1-.863-.3A1.091,1.091,0,0,1-6.547-10.6Zm1.9,14.18-.375-1.234q2.68-2.07,3.383-6.625a19.275,19.275,0,0,0,.242-2.7q.039-3.211-1.453-4.469l.492-1.18A4.565,4.565,0,0,1-.777-11.168,6.725,6.725,0,0,1,.2-8.859,11.6,11.6,0,0,1,.5-6.078,13.865,13.865,0,0,1-.25-1.855,11.039,11.039,0,0,1-2.09,1.586,6.68,6.68,0,0,1-4.648,3.578ZM2.289-4.594A13.2,13.2,0,0,1,3.957-9.582,7.175,7.175,0,0,1,7.2-12.648l.375,1.258Q4.906-9.352,4.2-4.836a19.376,19.376,0,0,0-.258,2.75Q3.9,1.125,5.406,2.375l-.492,1.18A5.13,5.13,0,0,1,2.555.313,10.87,10.87,0,0,1,2.156-3a13.121,13.121,0,0,1,.1-1.406Zm8.3,2.938A1.447,1.447,0,0,0,11.6-1.988a1.632,1.632,0,0,0,.531-.926l2.07-.008a3.037,3.037,0,0,1-.559,1.6A3.394,3.394,0,0,1,12.3-.211a3.847,3.847,0,0,1-1.77.375A3.123,3.123,0,0,1,8.094-.9a3.965,3.965,0,0,1-.867-2.766l.023-.43.008-.086a5.284,5.284,0,0,1,1.391-3.27,3.761,3.761,0,0,1,2.914-1.16,3.047,3.047,0,0,1,2.27.934A3.3,3.3,0,0,1,14.656-5.3H12.6a1.73,1.73,0,0,0-.3-1.07,1.128,1.128,0,0,0-.891-.422Q9.836-6.836,9.5-4.484a7.782,7.782,0,0,0-.086,1.438Q9.492-1.68,10.586-1.656Zm13.375-2.3H19.68l.313-1.82h4.289Zm9.273-4.656a2.4,2.4,0,0,1,1.906.945L35.969-12H38.18L36.1,0H34.133l.125-.906a2.736,2.736,0,0,1-2.2,1.07A2.433,2.433,0,0,1,30.672-.25a2.607,2.607,0,0,1-.918-1.168,4.7,4.7,0,0,1-.355-1.7,6.4,6.4,0,0,1,.023-.953l.047-.352A6.767,6.767,0,0,1,30.191-6.7,3.766,3.766,0,0,1,31.5-8.164,3.094,3.094,0,0,1,33.234-8.617Zm-1.6,4.547a6.327,6.327,0,0,0-.039,1q.078,1.375,1.109,1.4a1.885,1.885,0,0,0,1.617-.875l.6-3.359A1.248,1.248,0,0,0,33.7-6.781a1.606,1.606,0,0,0-1.34.621A4.176,4.176,0,0,0,31.633-4.07ZM40.188,0H37.969l1.469-8.453h2.219ZM39.7-10.6a1.1,1.1,0,0,1,.344-.867,1.209,1.209,0,0,1,.867-.344,1.215,1.215,0,0,1,.867.3,1.1,1.1,0,0,1,.383.828,1.132,1.132,0,0,1-.324.844,1.215,1.215,0,0,1-.887.375,1.235,1.235,0,0,1-.863-.3A1.091,1.091,0,0,1,39.7-10.6Zm1.9,14.18-.375-1.234Q43.9.273,44.6-4.281a19.275,19.275,0,0,0,.242-2.7q.039-3.211-1.453-4.469l.492-1.18a4.565,4.565,0,0,1,1.582,1.457,6.725,6.725,0,0,1,.977,2.309,11.6,11.6,0,0,1,.3,2.781,13.865,13.865,0,0,1-.75,4.223,11.039,11.039,0,0,1-1.84,3.441A6.68,6.68,0,0,1,41.594,3.578Z" transform="translate(772 1872)" fill="#12263f"/>
      <path id="Trazado_643681" data-name="Trazado 643681" d="M-59.531-4.594a13.2,13.2,0,0,1,1.668-4.988,7.175,7.175,0,0,1,3.246-3.066l.375,1.258q-2.672,2.039-3.383,6.555a19.376,19.376,0,0,0-.258,2.75q-.039,3.211,1.469,4.461l-.492,1.18A5.13,5.13,0,0,1-59.266.313,10.87,10.87,0,0,1-59.664-3a13.121,13.121,0,0,1,.1-1.406ZM-50.047,0a2.281,2.281,0,0,1-.086-.766,2.863,2.863,0,0,1-2.156.922,2.594,2.594,0,0,1-1.84-.723,2.186,2.186,0,0,1-.684-1.746,2.527,2.527,0,0,1,1.16-2.121,5.266,5.266,0,0,1,2.965-.738l1.031.016.109-.508a1.764,1.764,0,0,0,.023-.492A.846.846,0,0,0-49.8-6.73a.955.955,0,0,0-.629-.215,1.345,1.345,0,0,0-.875.254,1.231,1.231,0,0,0-.461.777l-2.211.008a2.457,2.457,0,0,1,1.113-1.965,4.312,4.312,0,0,1,2.613-.738A3.117,3.117,0,0,1-48-7.754a2.5,2.5,0,0,1,.68,2.121l-.648,4.047-.039.5a2.412,2.412,0,0,0,.133.938L-47.883,0Zm-1.7-1.555a2.017,2.017,0,0,0,1.664-.828l.273-1.461-.766-.008a2.139,2.139,0,0,0-1.758.742,1.292,1.292,0,0,0-.242.633.75.75,0,0,0,.176.668A.891.891,0,0,0-51.742-1.555Zm8.906-.1a1.447,1.447,0,0,0,1.016-.332,1.632,1.632,0,0,0,.531-.926l2.07-.008a3.037,3.037,0,0,1-.559,1.6A3.394,3.394,0,0,1-41.121-.211a3.847,3.847,0,0,1-1.77.375A3.123,3.123,0,0,1-45.328-.9,3.965,3.965,0,0,1-46.2-3.664l.023-.43.008-.086a5.284,5.284,0,0,1,1.391-3.27,3.761,3.761,0,0,1,2.914-1.16,3.047,3.047,0,0,1,2.27.934A3.3,3.3,0,0,1-38.766-5.3H-40.82a1.73,1.73,0,0,0-.3-1.07,1.128,1.128,0,0,0-.891-.422q-1.578-.047-1.914,2.3a7.782,7.782,0,0,0-.086,1.438Q-43.93-1.68-42.836-1.656Zm13.953-4.711h2.734l-.359,2.039h-2.727l-.555,3.188h-2.1l.555-3.187h-2.75l.359-2.039h2.742l.531-3.055h2.1ZM-13.8-4.2A6.061,6.061,0,0,1-15.023-1,3.033,3.033,0,0,1-17.57.164,2.357,2.357,0,0,1-19.6-.914l-.32.914H-21.93l2.078-12h2.211l-.852,4.32a2.634,2.634,0,0,1,2.063-.93A2.385,2.385,0,0,1-14.5-7.73a3.89,3.89,0,0,1,.746,2.387A9.133,9.133,0,0,1-13.8-4.2Zm-2.187-.165A6.554,6.554,0,0,0-15.945-5.4q-.086-1.364-1.125-1.387a1.833,1.833,0,0,0-1.617.885l-.609,3.37a1.258,1.258,0,0,0,1.266.878q1.625.047,1.992-2.367Zm7.07-4.25a2.4,2.4,0,0,1,1.906.945L-6.187-12h2.211L-6.055,0H-8.023L-7.9-.906A2.736,2.736,0,0,1-10.1.164,2.433,2.433,0,0,1-11.484-.25,2.607,2.607,0,0,1-12.4-1.418a4.7,4.7,0,0,1-.355-1.7,6.4,6.4,0,0,1,.023-.953l.047-.352A6.767,6.767,0,0,1-11.965-6.7a3.766,3.766,0,0,1,1.313-1.461A3.094,3.094,0,0,1-8.922-8.617Zm-1.6,4.547a6.327,6.327,0,0,0-.039,1q.078,1.375,1.109,1.4a1.885,1.885,0,0,0,1.617-.875l.6-3.359a1.248,1.248,0,0,0-1.219-.875,1.606,1.606,0,0,0-1.34.621A4.176,4.176,0,0,0-10.523-4.07Zm5.766,7.648-.375-1.234Q-2.453.273-1.75-4.281a19.275,19.275,0,0,0,.242-2.7q.039-3.211-1.453-4.469l.492-1.18A4.565,4.565,0,0,1-.887-11.168,6.725,6.725,0,0,1,.09-8.859a11.6,11.6,0,0,1,.3,2.781,13.865,13.865,0,0,1-.75,4.223A11.039,11.039,0,0,1-2.2,1.586,6.68,6.68,0,0,1-4.758,3.578ZM2.18-4.594A13.2,13.2,0,0,1,3.848-9.582a7.175,7.175,0,0,1,3.246-3.066l.375,1.258Q4.8-9.352,4.086-4.836a19.376,19.376,0,0,0-.258,2.75Q3.789,1.125,5.3,2.375L4.8,3.555A5.13,5.13,0,0,1,2.445.313,10.87,10.87,0,0,1,2.047-3a13.121,13.121,0,0,1,.1-1.406ZM14.9-4.2A6.061,6.061,0,0,1,13.68-1,3.033,3.033,0,0,1,11.133.164,2.357,2.357,0,0,1,9.1-.914L8.781,0H6.773L8.852-12h2.211l-.852,4.32a2.634,2.634,0,0,1,2.063-.93A2.385,2.385,0,0,1,14.2-7.73a3.89,3.89,0,0,1,.746,2.387A9.133,9.133,0,0,1,14.9-4.2Zm-2.187-.165A6.554,6.554,0,0,0,12.758-5.4q-.086-1.364-1.125-1.387a1.833,1.833,0,0,0-1.617.885l-.609,3.37a1.258,1.258,0,0,0,1.266.878q1.625.047,1.992-2.367Zm6.578,2.711A1.447,1.447,0,0,0,20.3-1.988a1.632,1.632,0,0,0,.531-.926l2.07-.008a3.037,3.037,0,0,1-.559,1.6A3.394,3.394,0,0,1,21-.211a3.847,3.847,0,0,1-1.77.375A3.123,3.123,0,0,1,16.8-.9a3.965,3.965,0,0,1-.867-2.766l.023-.43.008-.086a5.284,5.284,0,0,1,1.391-3.27,3.761,3.761,0,0,1,2.914-1.16,3.047,3.047,0,0,1,2.27.934A3.3,3.3,0,0,1,23.359-5.3H21.3a1.73,1.73,0,0,0-.3-1.07,1.128,1.128,0,0,0-.891-.422q-1.578-.047-1.914,2.3a7.782,7.782,0,0,0-.086,1.438Q18.2-1.68,19.289-1.656Zm13.375-2.3H28.383l.313-1.82h4.289ZM42.633,0a2.281,2.281,0,0,1-.086-.766,2.863,2.863,0,0,1-2.156.922,2.594,2.594,0,0,1-1.84-.723,2.186,2.186,0,0,1-.684-1.746,2.527,2.527,0,0,1,1.16-2.121,5.266,5.266,0,0,1,2.965-.738l1.031.016.109-.508a1.764,1.764,0,0,0,.023-.492.846.846,0,0,0-.277-.574.955.955,0,0,0-.629-.215,1.345,1.345,0,0,0-.875.254,1.231,1.231,0,0,0-.461.777L38.7-5.906a2.457,2.457,0,0,1,1.113-1.965,4.312,4.312,0,0,1,2.613-.738,3.117,3.117,0,0,1,2.25.855,2.5,2.5,0,0,1,.68,2.121l-.648,4.047-.039.5a2.412,2.412,0,0,0,.133.938L44.8,0Zm-1.7-1.555A2.017,2.017,0,0,0,42.6-2.383l.273-1.461-.766-.008a2.139,2.139,0,0,0-1.758.742,1.292,1.292,0,0,0-.242.633.75.75,0,0,0,.176.668A.891.891,0,0,0,40.938-1.555Zm9.4-7.062a2.4,2.4,0,0,1,1.906.945L53.07-12h2.211L53.2,0H51.234l.125-.906a2.736,2.736,0,0,1-2.2,1.07A2.433,2.433,0,0,1,47.773-.25a2.607,2.607,0,0,1-.918-1.168,4.7,4.7,0,0,1-.355-1.7,6.4,6.4,0,0,1,.023-.953l.047-.352A6.767,6.767,0,0,1,47.293-6.7a3.766,3.766,0,0,1,1.313-1.461A3.094,3.094,0,0,1,50.336-8.617Zm-1.6,4.547a6.327,6.327,0,0,0-.039,1q.078,1.375,1.109,1.4a1.885,1.885,0,0,0,1.617-.875l.6-3.359A1.248,1.248,0,0,0,50.8-6.781a1.606,1.606,0,0,0-1.34.621A4.176,4.176,0,0,0,48.734-4.07ZM54.5,3.578l-.375-1.234Q56.8.273,57.508-4.281a19.275,19.275,0,0,0,.242-2.7q.039-3.211-1.453-4.469l.492-1.18a4.565,4.565,0,0,1,1.582,1.457,6.725,6.725,0,0,1,.977,2.309,11.6,11.6,0,0,1,.3,2.781,13.865,13.865,0,0,1-.75,4.223,11.039,11.039,0,0,1-1.84,3.441A6.68,6.68,0,0,1,54.5,3.578Z" transform="translate(912 1872)" fill="#12263f"/>
      <path id="Trazado_643682" data-name="Trazado 643682" d="M-20.406,0a2.281,2.281,0,0,1-.086-.766,2.863,2.863,0,0,1-2.156.922,2.594,2.594,0,0,1-1.84-.723,2.186,2.186,0,0,1-.684-1.746,2.527,2.527,0,0,1,1.16-2.121,5.266,5.266,0,0,1,2.965-.738l1.031.016.109-.508a1.764,1.764,0,0,0,.023-.492.846.846,0,0,0-.277-.574.955.955,0,0,0-.629-.215,1.345,1.345,0,0,0-.875.254,1.231,1.231,0,0,0-.461.777l-2.211.008a2.457,2.457,0,0,1,1.113-1.965,4.312,4.312,0,0,1,2.613-.738,3.117,3.117,0,0,1,2.25.855,2.5,2.5,0,0,1,.68,2.121l-.648,4.047-.039.5a2.412,2.412,0,0,0,.133.938L-18.242,0Zm-1.7-1.555a2.017,2.017,0,0,0,1.664-.828l.273-1.461-.766-.008a2.139,2.139,0,0,0-1.758.742,1.292,1.292,0,0,0-.242.633.75.75,0,0,0,.176.668A.891.891,0,0,0-22.1-1.555Zm8.906-.1a1.447,1.447,0,0,0,1.016-.332,1.632,1.632,0,0,0,.531-.926l2.07-.008a3.037,3.037,0,0,1-.559,1.6A3.394,3.394,0,0,1-11.48-.211a3.847,3.847,0,0,1-1.77.375A3.123,3.123,0,0,1-15.687-.9a3.965,3.965,0,0,1-.867-2.766l.023-.43.008-.086a5.284,5.284,0,0,1,1.391-3.27,3.761,3.761,0,0,1,2.914-1.16,3.047,3.047,0,0,1,2.27.934A3.3,3.3,0,0,1-9.125-5.3H-11.18a1.73,1.73,0,0,0-.3-1.07,1.128,1.128,0,0,0-.891-.422q-1.578-.047-1.914,2.3a7.782,7.782,0,0,0-.086,1.438Q-14.289-1.68-13.2-1.656ZM.758-6.367H3.492L3.133-4.328H.406L-.148-1.141h-2.1L-1.7-4.328h-2.75l.359-2.039h2.742l.531-3.055h2.1ZM15.836-4.2A6.061,6.061,0,0,1,14.617-1,3.033,3.033,0,0,1,12.07.164,2.357,2.357,0,0,1,10.039-.914L9.719,0H7.711L9.789-12H12l-.852,4.32a2.634,2.634,0,0,1,2.063-.93,2.385,2.385,0,0,1,1.926.879,3.89,3.89,0,0,1,.746,2.387A9.133,9.133,0,0,1,15.836-4.2Zm-2.187-.165A6.554,6.554,0,0,0,13.7-5.4q-.086-1.364-1.125-1.387a1.833,1.833,0,0,0-1.617.885l-.609,3.37a1.258,1.258,0,0,0,1.266.878q1.625.047,1.992-2.367Zm7.07-4.25a2.4,2.4,0,0,1,1.906.945L23.453-12h2.211L23.586,0H21.617l.125-.906a2.736,2.736,0,0,1-2.2,1.07A2.433,2.433,0,0,1,18.156-.25a2.607,2.607,0,0,1-.918-1.168,4.7,4.7,0,0,1-.355-1.7,6.4,6.4,0,0,1,.023-.953l.047-.352A6.767,6.767,0,0,1,17.676-6.7a3.766,3.766,0,0,1,1.313-1.461A3.094,3.094,0,0,1,20.719-8.617Zm-1.6,4.547a6.327,6.327,0,0,0-.039,1q.078,1.375,1.109,1.4A1.885,1.885,0,0,0,21.8-2.547l.6-3.359a1.248,1.248,0,0,0-1.219-.875,1.606,1.606,0,0,0-1.34.621A4.176,4.176,0,0,0,19.117-4.07Z" transform="translate(1025 1872)" fill="#12263f"/>
      <path id="Trazado_643683" data-name="Trazado 643683" d="M-.344-4.2A6.061,6.061,0,0,1-1.562-1,3.033,3.033,0,0,1-4.109.164,2.357,2.357,0,0,1-6.141-.914L-6.461,0H-8.469l2.078-12H-4.18l-.852,4.32a2.634,2.634,0,0,1,2.063-.93,2.385,2.385,0,0,1,1.926.879A3.89,3.89,0,0,1-.3-5.344,9.133,9.133,0,0,1-.344-4.2Zm-2.187-.165A6.554,6.554,0,0,0-2.484-5.4Q-2.57-6.766-3.609-6.789A1.833,1.833,0,0,0-5.227-5.9l-.609,3.37a1.258,1.258,0,0,0,1.266.878q1.625.047,1.992-2.367ZM4.047-1.656a1.447,1.447,0,0,0,1.016-.332,1.632,1.632,0,0,0,.531-.926l2.07-.008a3.037,3.037,0,0,1-.559,1.6A3.394,3.394,0,0,1,5.762-.211a3.847,3.847,0,0,1-1.77.375A3.123,3.123,0,0,1,1.555-.9,3.965,3.965,0,0,1,.688-3.664l.023-.43L.719-4.18a5.284,5.284,0,0,1,1.391-3.27,3.761,3.761,0,0,1,2.914-1.16,3.047,3.047,0,0,1,2.27.934A3.3,3.3,0,0,1,8.117-5.3H6.063a1.73,1.73,0,0,0-.3-1.07,1.128,1.128,0,0,0-.891-.422Q3.3-6.836,2.961-4.484a7.782,7.782,0,0,0-.086,1.438Q2.953-1.68,4.047-1.656Z" transform="translate(1105 1872)" fill="#12263f"/>
      <path id="Trazado_643687" data-name="Trazado 643687" d="M-46.516-4.594a13.2,13.2,0,0,1,1.668-4.988A7.175,7.175,0,0,1-41.6-12.648l.375,1.258Q-43.9-9.352-44.609-4.836a19.376,19.376,0,0,0-.258,2.75q-.039,3.211,1.469,4.461l-.492,1.18A5.13,5.13,0,0,1-46.25.313,10.87,10.87,0,0,1-46.648-3a13.121,13.121,0,0,1,.1-1.406Zm8.3,2.938A1.447,1.447,0,0,0-37.2-1.988a1.632,1.632,0,0,0,.531-.926l2.07-.008a3.037,3.037,0,0,1-.559,1.6A3.394,3.394,0,0,1-36.5-.211a3.847,3.847,0,0,1-1.77.375A3.123,3.123,0,0,1-40.711-.9a3.965,3.965,0,0,1-.867-2.766l.023-.43.008-.086a5.284,5.284,0,0,1,1.391-3.27,3.761,3.761,0,0,1,2.914-1.16,3.047,3.047,0,0,1,2.27.934A3.3,3.3,0,0,1-34.148-5.3H-36.2a1.73,1.73,0,0,0-.3-1.07,1.128,1.128,0,0,0-.891-.422q-1.578-.047-1.914,2.3a7.782,7.782,0,0,0-.086,1.438Q-39.313-1.68-38.219-1.656Zm13.953-4.711h2.734l-.359,2.039h-2.727l-.555,3.188h-2.1l.555-3.187h-2.75l.359-2.039h2.742l.531-3.055h2.1Zm11.148-2.25a2.4,2.4,0,0,1,1.906.945L-10.383-12h2.211L-10.25,0h-1.969l.125-.906A2.736,2.736,0,0,1-14.3.164,2.433,2.433,0,0,1-15.68-.25,2.607,2.607,0,0,1-16.6-1.418a4.7,4.7,0,0,1-.355-1.7,6.4,6.4,0,0,1,.023-.953l.047-.352A6.767,6.767,0,0,1-16.16-6.7a3.766,3.766,0,0,1,1.313-1.461A3.094,3.094,0,0,1-13.117-8.617Zm-1.6,4.547a6.327,6.327,0,0,0-.039,1q.078,1.375,1.109,1.4a1.885,1.885,0,0,0,1.617-.875l.6-3.359a1.248,1.248,0,0,0-1.219-.875,1.606,1.606,0,0,0-1.34.621A4.176,4.176,0,0,0-14.719-4.07ZM-6.164,0H-8.383l1.469-8.453H-4.7Zm-.492-10.6a1.1,1.1,0,0,1,.344-.867,1.209,1.209,0,0,1,.867-.344,1.215,1.215,0,0,1,.867.3,1.1,1.1,0,0,1,.383.828,1.132,1.132,0,0,1-.324.844,1.215,1.215,0,0,1-.887.375,1.235,1.235,0,0,1-.863-.3A1.091,1.091,0,0,1-6.656-10.6Zm1.9,14.18-.375-1.234Q-2.453.273-1.75-4.281a19.275,19.275,0,0,0,.242-2.7q.039-3.211-1.453-4.469l.492-1.18A4.565,4.565,0,0,1-.887-11.168,6.725,6.725,0,0,1,.09-8.859a11.6,11.6,0,0,1,.3,2.781,13.865,13.865,0,0,1-.75,4.223A11.039,11.039,0,0,1-2.2,1.586,6.68,6.68,0,0,1-4.758,3.578ZM2.18-4.594A13.2,13.2,0,0,1,3.848-9.582a7.175,7.175,0,0,1,3.246-3.066l.375,1.258Q4.8-9.352,4.086-4.836a19.376,19.376,0,0,0-.258,2.75Q3.789,1.125,5.3,2.375L4.8,3.555A5.13,5.13,0,0,1,2.445.313,10.87,10.87,0,0,1,2.047-3a13.121,13.121,0,0,1,.1-1.406Zm8.3,2.938a1.447,1.447,0,0,0,1.016-.332,1.632,1.632,0,0,0,.531-.926l2.07-.008a3.037,3.037,0,0,1-.559,1.6A3.394,3.394,0,0,1,12.191-.211a3.847,3.847,0,0,1-1.77.375A3.123,3.123,0,0,1,7.984-.9a3.965,3.965,0,0,1-.867-2.766l.023-.43.008-.086a5.284,5.284,0,0,1,1.391-3.27,3.761,3.761,0,0,1,2.914-1.16,3.047,3.047,0,0,1,2.27.934A3.3,3.3,0,0,1,14.547-5.3H12.492a1.73,1.73,0,0,0-.3-1.07,1.128,1.128,0,0,0-.891-.422q-1.578-.047-1.914,2.3A7.782,7.782,0,0,0,9.3-3.047Q9.383-1.68,10.477-1.656Zm13.375-2.3H19.57l.313-1.82h4.289Zm9.273-4.656a2.4,2.4,0,0,1,1.906.945L35.859-12H38.07L35.992,0H34.023l.125-.906a2.736,2.736,0,0,1-2.2,1.07A2.433,2.433,0,0,1,30.563-.25a2.607,2.607,0,0,1-.918-1.168,4.7,4.7,0,0,1-.355-1.7,6.4,6.4,0,0,1,.023-.953l.047-.352A6.767,6.767,0,0,1,30.082-6.7a3.766,3.766,0,0,1,1.313-1.461A3.094,3.094,0,0,1,33.125-8.617Zm-1.6,4.547a6.327,6.327,0,0,0-.039,1q.078,1.375,1.109,1.4a1.885,1.885,0,0,0,1.617-.875l.6-3.359a1.248,1.248,0,0,0-1.219-.875,1.606,1.606,0,0,0-1.34.621A4.176,4.176,0,0,0,31.523-4.07ZM40.078,0H37.859l1.469-8.453h2.219Zm-.492-10.6a1.1,1.1,0,0,1,.344-.867,1.209,1.209,0,0,1,.867-.344,1.215,1.215,0,0,1,.867.3,1.1,1.1,0,0,1,.383.828,1.132,1.132,0,0,1-.324.844,1.215,1.215,0,0,1-.887.375,1.235,1.235,0,0,1-.863-.3A1.091,1.091,0,0,1,39.586-10.6Zm1.9,14.18-.375-1.234q2.68-2.07,3.383-6.625a19.275,19.275,0,0,0,.242-2.7q.039-3.211-1.453-4.469l.492-1.18a4.565,4.565,0,0,1,1.582,1.457,6.725,6.725,0,0,1,.977,2.309,11.6,11.6,0,0,1,.3,2.781,13.865,13.865,0,0,1-.75,4.223,11.039,11.039,0,0,1-1.84,3.441A6.68,6.68,0,0,1,41.484,3.578Z" transform="translate(772 1894)" fill="#12263f"/>
      <path id="Trazado_643686" data-name="Trazado 643686" d="M-18.229-1.656a1.447,1.447,0,0,0,1.016-.332,1.632,1.632,0,0,0,.531-.926l2.07-.008a3.037,3.037,0,0,1-.559,1.6A3.394,3.394,0,0,1-16.514-.211a3.847,3.847,0,0,1-1.77.375A3.123,3.123,0,0,1-20.721-.9a3.965,3.965,0,0,1-.867-2.766l.023-.43.008-.086a5.284,5.284,0,0,1,1.391-3.27,3.761,3.761,0,0,1,2.914-1.16,3.047,3.047,0,0,1,2.27.934A3.3,3.3,0,0,1-14.159-5.3h-2.055a1.73,1.73,0,0,0-.3-1.07,1.128,1.128,0,0,0-.891-.422q-1.578-.047-1.914,2.3A7.782,7.782,0,0,0-19.4-3.047Q-19.323-1.68-18.229-1.656ZM-9.359-5h-4.42l.15-.957,2.356-2.21a5.219,5.219,0,0,0,.962-1.1,1.292,1.292,0,0,0,.178-.829.619.619,0,0,0-.652-.579.932.932,0,0,0-.731.305,1.431,1.431,0,0,0-.358.825l-1.285,0a2.253,2.253,0,0,1,.369-1.126,2.264,2.264,0,0,1,.886-.786,2.57,2.57,0,0,1,1.2-.276,2.039,2.039,0,0,1,1.44.52,1.608,1.608,0,0,1,.456,1.335,3.235,3.235,0,0,1-1.107,1.96l-.656.624-1.358,1.221,2.743.009ZM.965-6.367H3.7L3.34-4.328H.613L.059-1.141h-2.1l.555-3.187h-2.75l.359-2.039h2.742l.531-3.055H1.5Zm11.148-2.25a2.4,2.4,0,0,1,1.906.945L14.848-12h2.211L14.98,0H13.012l.125-.906a2.736,2.736,0,0,1-2.2,1.07A2.433,2.433,0,0,1,9.551-.25a2.607,2.607,0,0,1-.918-1.168,4.7,4.7,0,0,1-.355-1.7A6.4,6.4,0,0,1,8.3-4.07l.047-.352A6.767,6.767,0,0,1,9.07-6.7a3.766,3.766,0,0,1,1.313-1.461A3.094,3.094,0,0,1,12.113-8.617Zm-1.6,4.547a6.327,6.327,0,0,0-.039,1q.078,1.375,1.109,1.4A1.885,1.885,0,0,0,13.2-2.547l.6-3.359a1.248,1.248,0,0,0-1.219-.875,1.606,1.606,0,0,0-1.34.621A4.176,4.176,0,0,0,10.512-4.07ZM21.14-5h-4.42l.15-.957,2.356-2.21a5.219,5.219,0,0,0,.962-1.1,1.292,1.292,0,0,0,.178-.829.619.619,0,0,0-.652-.579.932.932,0,0,0-.731.305,1.431,1.431,0,0,0-.358.825l-1.285,0a2.253,2.253,0,0,1,.369-1.126,2.264,2.264,0,0,1,.886-.786,2.57,2.57,0,0,1,1.2-.276,2.039,2.039,0,0,1,1.44.52,1.608,1.608,0,0,1,.456,1.335,3.235,3.235,0,0,1-1.107,1.96l-.656.624L18.565-6.071l2.743.009Z" transform="translate(912 1894)" fill="#12263f"/>
      <path id="Trazado_643685" data-name="Trazado 643685" d="M-18.229-1.656a1.447,1.447,0,0,0,1.016-.332,1.632,1.632,0,0,0,.531-.926l2.07-.008a3.037,3.037,0,0,1-.559,1.6A3.394,3.394,0,0,1-16.514-.211a3.847,3.847,0,0,1-1.77.375A3.123,3.123,0,0,1-20.721-.9a3.965,3.965,0,0,1-.867-2.766l.023-.43.008-.086a5.284,5.284,0,0,1,1.391-3.27,3.761,3.761,0,0,1,2.914-1.16,3.047,3.047,0,0,1,2.27.934A3.3,3.3,0,0,1-14.159-5.3h-2.055a1.73,1.73,0,0,0-.3-1.07,1.128,1.128,0,0,0-.891-.422q-1.578-.047-1.914,2.3A7.782,7.782,0,0,0-19.4-3.047Q-19.323-1.68-18.229-1.656ZM-9.359-5h-4.42l.15-.957,2.356-2.21a5.219,5.219,0,0,0,.962-1.1,1.292,1.292,0,0,0,.178-.829.619.619,0,0,0-.652-.579.932.932,0,0,0-.731.305,1.431,1.431,0,0,0-.358.825l-1.285,0a2.253,2.253,0,0,1,.369-1.126,2.264,2.264,0,0,1,.886-.786,2.57,2.57,0,0,1,1.2-.276,2.039,2.039,0,0,1,1.44.52,1.608,1.608,0,0,1,.456,1.335,3.235,3.235,0,0,1-1.107,1.96l-.656.624-1.358,1.221,2.743.009ZM.965-6.367H3.7L3.34-4.328H.613L.059-1.141h-2.1l.555-3.187h-2.75l.359-2.039h2.742l.531-3.055H1.5Zm11.148-2.25a2.4,2.4,0,0,1,1.906.945L14.848-12h2.211L14.98,0H13.012l.125-.906a2.736,2.736,0,0,1-2.2,1.07A2.433,2.433,0,0,1,9.551-.25a2.607,2.607,0,0,1-.918-1.168,4.7,4.7,0,0,1-.355-1.7A6.4,6.4,0,0,1,8.3-4.07l.047-.352A6.767,6.767,0,0,1,9.07-6.7a3.766,3.766,0,0,1,1.313-1.461A3.094,3.094,0,0,1,12.113-8.617Zm-1.6,4.547a6.327,6.327,0,0,0-.039,1q.078,1.375,1.109,1.4A1.885,1.885,0,0,0,13.2-2.547l.6-3.359a1.248,1.248,0,0,0-1.219-.875,1.606,1.606,0,0,0-1.34.621A4.176,4.176,0,0,0,10.512-4.07ZM21.14-5h-4.42l.15-.957,2.356-2.21a5.219,5.219,0,0,0,.962-1.1,1.292,1.292,0,0,0,.178-.829.619.619,0,0,0-.652-.579.932.932,0,0,0-.731.305,1.431,1.431,0,0,0-.358.825l-1.285,0a2.253,2.253,0,0,1,.369-1.126,2.264,2.264,0,0,1,.886-.786,2.57,2.57,0,0,1,1.2-.276,2.039,2.039,0,0,1,1.44.52,1.608,1.608,0,0,1,.456,1.335,3.235,3.235,0,0,1-1.107,1.96l-.656.624L18.565-6.071l2.743.009Z" transform="translate(1025 1894)" fill="#12263f"/>
      <path id="Trazado_643684" data-name="Trazado 643684" d="M-2.98-1.656a1.447,1.447,0,0,0,1.016-.332,1.632,1.632,0,0,0,.531-.926l2.07-.008a3.037,3.037,0,0,1-.559,1.6A3.394,3.394,0,0,1-1.265-.211a3.847,3.847,0,0,1-1.77.375A3.123,3.123,0,0,1-5.472-.9a3.965,3.965,0,0,1-.867-2.766l.023-.43.008-.086a5.284,5.284,0,0,1,1.391-3.27A3.761,3.761,0,0,1-2-8.609a3.047,3.047,0,0,1,2.27.934A3.3,3.3,0,0,1,1.091-5.3H-.964a1.73,1.73,0,0,0-.3-1.07,1.128,1.128,0,0,0-.891-.422q-1.578-.047-1.914,2.3a7.782,7.782,0,0,0-.086,1.438Q-4.073-1.68-2.98-1.656ZM5.891-5H1.47l.15-.957,2.356-2.21a5.219,5.219,0,0,0,.962-1.1,1.292,1.292,0,0,0,.178-.829.619.619,0,0,0-.652-.579.932.932,0,0,0-.731.305,1.431,1.431,0,0,0-.358.825l-1.285,0a2.253,2.253,0,0,1,.369-1.126,2.264,2.264,0,0,1,.886-.786,2.57,2.57,0,0,1,1.2-.276,2.039,2.039,0,0,1,1.44.52,1.608,1.608,0,0,1,.456,1.335A3.235,3.235,0,0,1,5.33-7.917l-.656.624L3.316-6.071l2.743.009Z" transform="translate(1105 1894)" fill="#12263f"/>
      <path id="Trazado_643688" data-name="Trazado 643688" d="M-15.086-1.656a1.447,1.447,0,0,0,1.016-.332,1.632,1.632,0,0,0,.531-.926l2.07-.008a3.037,3.037,0,0,1-.559,1.6A3.394,3.394,0,0,1-13.371-.211a3.847,3.847,0,0,1-1.77.375A3.123,3.123,0,0,1-17.578-.9a3.965,3.965,0,0,1-.867-2.766l.023-.43.008-.086a5.284,5.284,0,0,1,1.391-3.27,3.761,3.761,0,0,1,2.914-1.16,3.047,3.047,0,0,1,2.27.934A3.3,3.3,0,0,1-11.016-5.3H-13.07a1.73,1.73,0,0,0-.3-1.07,1.128,1.128,0,0,0-.891-.422q-1.578-.047-1.914,2.3a7.782,7.782,0,0,0-.086,1.438Q-16.18-1.68-15.086-1.656ZM-1.133-6.367H1.6L1.242-4.328H-1.484l-.555,3.188h-2.1l.555-3.187h-2.75l.359-2.039h2.742L-2.7-9.422H-.6Zm11.148-2.25a2.4,2.4,0,0,1,1.906.945L12.75-12h2.211L12.883,0H10.914l.125-.906a2.736,2.736,0,0,1-2.2,1.07A2.433,2.433,0,0,1,7.453-.25a2.607,2.607,0,0,1-.918-1.168,4.7,4.7,0,0,1-.355-1.7A6.4,6.4,0,0,1,6.2-4.07l.047-.352A6.767,6.767,0,0,1,6.973-6.7,3.766,3.766,0,0,1,8.285-8.164,3.094,3.094,0,0,1,10.016-8.617ZM8.414-4.07a6.327,6.327,0,0,0-.039,1q.078,1.375,1.109,1.4A1.885,1.885,0,0,0,11.1-2.547l.6-3.359a1.248,1.248,0,0,0-1.219-.875,1.606,1.606,0,0,0-1.34.621A4.176,4.176,0,0,0,8.414-4.07ZM16.969,0H14.75l1.469-8.453h2.219Zm-.492-10.6a1.1,1.1,0,0,1,.344-.867,1.209,1.209,0,0,1,.867-.344,1.215,1.215,0,0,1,.867.3,1.1,1.1,0,0,1,.383.828,1.132,1.132,0,0,1-.324.844,1.215,1.215,0,0,1-.887.375,1.235,1.235,0,0,1-.863-.3A1.091,1.091,0,0,1,16.477-10.6Z" transform="translate(673 1895)" fill="#12263f"/>
      <path id="Trazado_615772" data-name="Trazado 615772" d="M3459.333-9822.5H3566" transform="translate(-2739.333 11700.5)" fill="none" stroke="#707070" stroke-width="1"/>
      <path id="Trazado_642179" data-name="Trazado 642179" d="M3459.333-9822.5H3590" transform="translate(-2613.333 11700.5)" fill="none" stroke="#707070" stroke-width="1"/>
      <path id="Trazado_642180" data-name="Trazado 642180" d="M3459.333-9822.5h63.333" transform="translate(-2465.333 11700.5)" fill="none" stroke="#707070" stroke-width="1"/>
      <path id="Trazado_642181" data-name="Trazado 642181" d="M3459.333-9822.5h39" transform="translate(-2374.333 11700.5)" fill="none" stroke="#707070" stroke-width="1"/>
      <path id="Trazado_642178" data-name="Trazado 642178" d="M3476.667-9822.5h52" transform="translate(-2829.333 11700.5)" fill="none" stroke="#707070" stroke-width="1"/>
    </g>
  </g>
</svg>
