<svg xmlns="http://www.w3.org/2000/svg" xmlns:xlink="http://www.w3.org/1999/xlink" width="400" height="210" viewBox="0 0 400 210">
  <defs>
    <clipPath id="clip-path">
      <path id="Trazado_643465" data-name="Trazado 643465" d="M0,0H400V210H0Z" transform="translate(1020 928)" fill="#96b8a9" stroke="#707070" stroke-width="1"/>
    </clipPath>
    <clipPath id="clip-path-2">
      <rect id="Rectángulo_379997" data-name="Rectángulo 379997" width="331.332" height="199.511" fill="none"/>
    </clipPath>
    <clipPath id="clip-path-7">
      <rect id="Rectángulo_379980" data-name="Rectángulo 379980" width="2.329" height="1.648" fill="none"/>
    </clipPath>
    <clipPath id="clip-path-8">
      <rect id="Rectángulo_379981" data-name="Rectángulo 379981" width="10.621" height="1.122" fill="none"/>
    </clipPath>
    <clipPath id="clip-path-9">
      <rect id="Rectángulo_379982" data-name="Rectángulo 379982" width="7.764" height="0.99" fill="none"/>
    </clipPath>
    <clipPath id="clip-path-10">
      <rect id="Rectángulo_379983" data-name="Rectángulo 379983" width="9.075" height="43.489" fill="none"/>
    </clipPath>
    <clipPath id="clip-path-12">
      <rect id="Rectángulo_379986" data-name="Rectángulo 379986" width="9.729" height="7.699" fill="none"/>
    </clipPath>
    <clipPath id="clip-path-13">
      <rect id="Rectángulo_379987" data-name="Rectángulo 379987" width="6.321" height="4.819" fill="none"/>
    </clipPath>
    <clipPath id="clip-path-14">
      <rect id="Rectángulo_379988" data-name="Rectángulo 379988" width="12.285" height="1.243" fill="none"/>
    </clipPath>
    <clipPath id="clip-path-15">
      <rect id="Rectángulo_379989" data-name="Rectángulo 379989" width="7.347" height="0.926" fill="#11462e"/>
    </clipPath>
    <clipPath id="clip-path-16">
      <rect id="Rectángulo_379990" data-name="Rectángulo 379990" width="16.88" height="18.842" fill="none"/>
    </clipPath>
  </defs>
  <g id="img2" transform="translate(-1020 -953)">
    <rect id="Rectángulo_380021" data-name="Rectángulo 380021" width="400" height="164" rx="82" transform="translate(1020 999)" fill="#c7e3d7"/>
    <g id="Enmascarar_grupo_1074816" data-name="Enmascarar grupo 1074816" transform="translate(0 25)" clip-path="url(#clip-path)">
      <g id="Grupo_1075303" data-name="Grupo 1075303" transform="translate(1054 933)">
        <g id="Grupo_1075302" data-name="Grupo 1075302" clip-path="url(#clip-path-2)">
          <rect id="Rectángulo_379915" data-name="Rectángulo 379915" width="20.567" height="2.748" transform="translate(210.626 123.168)" fill="#e0e0e0"/>
          <g id="Grupo_1075231" data-name="Grupo 1075231">
            <g id="Grupo_1075230" data-name="Grupo 1075230" clip-path="url(#clip-path-2)">
              <path id="Trazado_643210" data-name="Trazado 643210" d="M436.177,252.026a6.477,6.477,0,0,1,0,2.574,6.459,6.459,0,0,1,0-2.574" transform="translate(-222.748 -128.744)" fill="#fafafa"/>
              <path id="Trazado_643211" data-name="Trazado 643211" d="M435.261,251.912a6.48,6.48,0,0,1,0,2.574,6.456,6.456,0,0,1,0-2.574" transform="translate(-222.28 -128.686)" fill="#fafafa"/>
              <path id="Trazado_643212" data-name="Trazado 643212" d="M469.243,252.026a6.478,6.478,0,0,1,0,2.574,6.481,6.481,0,0,1,0-2.574" transform="translate(-239.64 -128.744)" fill="#fafafa"/>
              <path id="Trazado_643213" data-name="Trazado 643213" d="M468.327,251.912a6.478,6.478,0,0,1,0,2.574,6.484,6.484,0,0,1,0-2.574" transform="translate(-239.172 -128.686)" fill="#fafafa"/>
              <path id="Trazado_643214" data-name="Trazado 643214" d="M451.982,254.637c0,.071-2.356.129-5.261.129s-5.261-.058-5.261-.129,2.355-.129,5.261-.129,5.261.058,5.261.129" transform="translate(-225.513 -130.012)" fill="#fafafa"/>
              <rect id="Rectángulo_379916" data-name="Rectángulo 379916" width="20.567" height="5.495" transform="translate(210.537 135.539)" fill="#e0e0e0"/>
              <path id="Trazado_643215" data-name="Trazado 643215" d="M451.286,281.517a.464.464,0,0,1-.112.064c-.075.039-.19.092-.343.157a5.955,5.955,0,0,1-1.394.4,3.633,3.633,0,0,1-2.263-.321,3,3,0,0,1-1.075-.974,2.263,2.263,0,0,1-.374-1.583,1.67,1.67,0,0,1,.378-.818,1.082,1.082,0,0,1,.867-.394,1.244,1.244,0,0,1,.872.47,1.7,1.7,0,0,1,.4.937,2.493,2.493,0,0,1-.709,1.947,3.129,3.129,0,0,1-1.976.966,5.246,5.246,0,0,1-2.295-.285,4.23,4.23,0,0,1-2-1.347,2.207,2.207,0,0,1-.467-1.186,1.539,1.539,0,0,1,.438-1.235,1,1,0,0,1,.644-.282,1.175,1.175,0,0,1,.672.189,1.784,1.784,0,0,1,.757,1.108,2.589,2.589,0,0,1-.811,2.421,4.046,4.046,0,0,1-2.316.943,5.7,5.7,0,0,1-2.4-.237,3.316,3.316,0,0,1-1.826-1.419,2.432,2.432,0,0,1-.229-2.183,1.146,1.146,0,0,1,.839-.71,1.324,1.324,0,0,1,1.036.25,1.716,1.716,0,0,1,.49,1.851,3.207,3.207,0,0,1-1.037,1.46,4.67,4.67,0,0,1-2.82,1.1,4.516,4.516,0,0,1-2.235-.508,4.466,4.466,0,0,1-1.165-.864,3.3,3.3,0,0,1-.246-.286.46.46,0,0,1-.073-.107,5.232,5.232,0,0,0,1.529,1.166,4.477,4.477,0,0,0,2.183.453,4.541,4.541,0,0,0,2.708-1.09,3.026,3.026,0,0,0,.964-1.378,1.515,1.515,0,0,0-.428-1.624,1.11,1.11,0,0,0-.865-.2.919.919,0,0,0-.673.584,2.207,2.207,0,0,0,.225,1.969,3.08,3.08,0,0,0,1.7,1.309,5.479,5.479,0,0,0,2.293.218,3.8,3.8,0,0,0,2.17-.881,2.337,2.337,0,0,0,.732-2.172,1.529,1.529,0,0,0-.641-.948.788.788,0,0,0-1,.061,1.287,1.287,0,0,0-.359,1.03,1.949,1.949,0,0,0,.414,1.051,4,4,0,0,0,1.882,1.266,5.022,5.022,0,0,0,2.187.282,2.9,2.9,0,0,0,1.838-.884,2.276,2.276,0,0,0,.662-1.769,1.313,1.313,0,0,0-1.066-1.231.885.885,0,0,0-.714.322,1.482,1.482,0,0,0-.341.722,2.1,2.1,0,0,0,.332,1.463,2.871,2.871,0,0,0,1.006.937,3.567,3.567,0,0,0,2.18.348,6.53,6.53,0,0,0,1.389-.348c.309-.113.469-.182.473-.172" transform="translate(-219.918 -142.028)" fill="#fafafa"/>
              <rect id="Rectángulo_379917" data-name="Rectángulo 379917" width="18.73" height="9.534" transform="translate(212.374 125.996)" fill="#ebebeb"/>
              <path id="Trazado_643216" data-name="Trazado 643216" d="M440.384,258.242a82.483,82.483,0,0,1,0,9.229,82.522,82.522,0,0,1,0-9.229" transform="translate(-224.898 -131.919)" fill="#e0e0e0"/>
              <path id="Trazado_643217" data-name="Trazado 643217" d="M443.286,258a80.081,80.081,0,0,1,0,9.111,80.4,80.4,0,0,1,0-9.111" transform="translate(-226.38 -131.796)" fill="#e0e0e0"/>
              <path id="Trazado_643218" data-name="Trazado 643218" d="M467.983,257.374a89.141,89.141,0,0,1,0,9.595,89.183,89.183,0,0,1,0-9.595" transform="translate(-238.997 -131.476)" fill="#e0e0e0"/>
              <path id="Trazado_643219" data-name="Trazado 643219" d="M464.572,257.637a84.643,84.643,0,0,1,0,9.347,84.643,84.643,0,0,1,0-9.347" transform="translate(-237.254 -131.61)" fill="#e0e0e0"/>
              <rect id="Rectángulo_379918" data-name="Rectángulo 379918" width="126.271" height="83.758" transform="translate(100.856 17.446)" fill="#e0e0e0"/>
              <path id="Trazado_643220" data-name="Trazado 643220" d="M0,25.366A21.4,21.4,0,1,1,21.739,46.512,21.474,21.474,0,0,1,0,25.366m31.622-.51A10.23,10.23,0,1,0,21.559,35.3,10.263,10.263,0,0,0,31.624,24.856" transform="translate(0 -1.801)" fill="#f5f5f5"/>
              <path id="Trazado_643221" data-name="Trazado 643221" d="M0,25.37A21.473,21.473,0,0,1,21.052,3.533l.18,11.216A10.277,10.277,0,0,0,21.56,35.3l.179,11.216A21.465,21.465,0,0,1,0,25.37" transform="translate(0 -1.805)" fill="#2d4587"/>
              <path id="Trazado_643222" data-name="Trazado 643222" d="M39.11,0A24.446,24.446,0,0,1,64.141,24.355l-13.061.21c-.106-6.629-5.15-10.8-11.748-10.7Z" transform="translate(-19.979 0)" fill="#196442"/>
              <path id="Trazado_643223" data-name="Trazado 643223" d="M208.009,388.289a3.021,3.021,0,0,1-.831-3.7,3.3,3.3,0,0,1,1.75-1.233,7.112,7.112,0,0,0,1.919-.994c1.04-.885,1.328-2.355,2.018-3.536a4.419,4.419,0,0,1,3.836-2.3,4.843,4.843,0,0,1,3.96,3.211,14.354,14.354,0,0,1,.715,5.319,3.648,3.648,0,0,1-.767,2.79,3.594,3.594,0,0,1-2.6.6l-9.784-.3" transform="translate(-105.657 -192.339)" fill="#f5f5f5"/>
              <path id="Trazado_643224" data-name="Trazado 643224" d="M220.624,345.582h-25.73l4.635,27.636a3.087,3.087,0,0,0,2.2,2.461c.029.009.06.016.09.024.077.02.151.045.229.059a3.183,3.183,0,0,0,.523.06l0,.026.125-.02h11.468a3.224,3.224,0,0,0,.63-.063,3.1,3.1,0,0,0,2.6-2.7l2.235-19.042.1-.757h-.012l.885-7.541Zm-4.854,17.629h-2.641l.267-8.021h3.059Zm.942-8.021h2.528l-.941,8.021h-2.272ZM209.168,372.1l-.16-6.968h3.8l-.231,6.968Zm-4.111-6.968h3.695l.16,6.968H205.6Zm.286,6.968h-3.1c-.294-1.881-.678-4.326-1.092-6.968H204.8Zm-.435-8.891-.624-8.021h4.239l.185,8.021Zm4.055,0-.185-8.021h4.362l-.266,8.021Zm-.229-9.944-.171-7.428h4.888l-.247,7.428Zm-.255,0h-4.344l-.577-7.428h4.75Zm-4.6,0h-4.6c-.162-1.026-.317-2-.456-2.87-.479-3-.659-4.132-.759-4.558H203.3Zm.149,1.923.623,8.021h-3.8c-.128-.814-.257-1.637-.387-2.461-.3-1.894-.6-3.786-.877-5.56Zm-3.436,8.021H198.11l-1.345-8.021h2.564c.392,2.479.826,5.237,1.263,8.021m.3,1.923c.379,2.411.751,4.788,1.092,6.968H199.6l-1.169-6.968Zm11.94,6.968.231-6.968h2.54l-.6,6.968Zm.626-18.835.247-7.428h3.547l-.634,7.428Zm-15.636-7.428c.1.537.571,3.46,1.2,7.428h-2.582l-1.246-7.428ZM217.255,372.1h-1.988l.6-6.968h2.211Zm2.21-18.835h-2.589l.634-7.428h2.826Z" transform="translate(-99.559 -176.536)" fill="#283455"/>
              <rect id="Rectángulo_379919" data-name="Rectángulo 379919" width="5.54" height="22.131" transform="translate(301.714 30.5)" fill="#e0e0e0"/>
              <rect id="Rectángulo_379920" data-name="Rectángulo 379920" width="5.54" height="17.304" transform="translate(309.862 35.327)" fill="#e0e0e0"/>
              <rect id="Rectángulo_379921" data-name="Rectángulo 379921" width="5.54" height="13.351" transform="translate(318.133 39.28)" fill="#e0e0e0"/>
              <rect id="Rectángulo_379922" data-name="Rectángulo 379922" width="5.54" height="7.928" transform="translate(325.792 44.702)" fill="#e0e0e0"/>
              <path id="Trazado_643225" data-name="Trazado 643225" d="M625.622,158.533a19.171,19.171,0,0,0-26.951.912,18.894,18.894,0,0,0,.918,26.789,19.171,19.171,0,0,0,26.951-.912,18.9,18.9,0,0,0-.918-26.789m-6.354,20.037a9.167,9.167,0,0,1-12.887.436,9.034,9.034,0,0,1-.439-12.809,9.167,9.167,0,0,1,12.887-.436,9.035,9.035,0,0,1,.439,12.809" transform="translate(-303.204 -78.382)" fill="#6fd9fb"/>
              <path id="Trazado_643226" data-name="Trazado 643226" d="M598.671,159.445a19.172,19.172,0,0,1,26.951-.912l-6.793,7.228a9.167,9.167,0,0,0-12.886.436,9.034,9.034,0,0,0,.439,12.809l-6.793,7.229a18.9,18.9,0,0,1-.918-26.79" transform="translate(-303.204 -78.382)" fill="#2d4587"/>
              <path id="Trazado_643227" data-name="Trazado 643227" d="M649.381,157.52c9.412,8.74,10.539,22.948,1.747,32.3l-9.548-8.27c4.2-4.474,5.117-10.447.617-14.626Z" transform="translate(-327.742 -80.467)" fill="#11462e"/>
              <path id="Trazado_643228" data-name="Trazado 643228" d="M181.633,243.167h-50.87a1.58,1.58,0,0,1-1.58-1.58V229.529a1.58,1.58,0,0,1,1.58-1.58h50.87a1.58,1.58,0,0,1,1.58,1.58v12.058a1.58,1.58,0,0,1-1.58,1.58" transform="translate(-65.991 -116.444)" fill="#a7b9e8"/>
              <path id="Trazado_643229" data-name="Trazado 643229" d="M146.345,243.078a3.282,3.282,0,0,1-4.628.511,3.318,3.318,0,0,1-.509-4.65,3.282,3.282,0,0,1,4.628-.511,3.318,3.318,0,0,1,.509,4.649" transform="translate(-71.764 -121.426)" fill="#f5f5f5"/>
              <path id="Trazado_643230" data-name="Trazado 643230" d="M147.13,242.165a13.351,13.351,0,0,1-1.77,1.913l-.435.422-.09.087-.085-.088a9.316,9.316,0,0,1-1.321-1.5,9.267,9.267,0,0,1,1.5,1.328h-.175l.43-.426a13.43,13.43,0,0,1,1.948-1.731" transform="translate(-73.267 -123.705)" fill="#e0e0e0"/>
              <path id="Trazado_643231" data-name="Trazado 643231" d="M194.936,240.991c0,.07-7.252.127-16.2.127s-16.2-.057-16.2-.127,7.25-.127,16.2-.127,16.2.057,16.2.127" transform="translate(-83.033 -123.042)" fill="#fafafa"/>
              <path id="Trazado_643232" data-name="Trazado 643232" d="M195.227,246.625c0,.07-7.252.127-16.2.127s-16.2-.057-16.2-.127,7.25-.127,16.2-.127,16.2.057,16.2.127" transform="translate(-83.182 -125.92)" fill="#fafafa"/>
              <path id="Trazado_643233" data-name="Trazado 643233" d="M576.825,250.859l-.989,76.8h44.187V251.907Z" transform="translate(-294.158 -128.148)" fill="#b0b5c8"/>
              <path id="Trazado_643234" data-name="Trazado 643234" d="M626.114,252.039l-.391,76.223h19.784V252.509Z" transform="translate(-319.642 -128.751)" fill="#727997"/>
              <path id="Trazado_643235" data-name="Trazado 643235" d="M580.7,253.686v15.708h20.93V254.428Z" transform="translate(-296.641 -129.592)" fill="#727997"/>
              <path id="Trazado_643236" data-name="Trazado 643236" d="M595.448,262.3v2.32h6.4v-2.531Z" transform="translate(-304.176 -133.884)" fill="#f5f5f5"/>
              <rect id="Rectángulo_379923" data-name="Rectángulo 379923" width="6.614" height="0.949" transform="translate(291.272 132.686)" fill="#f5f5f5"/>
              <path id="Trazado_643237" data-name="Trazado 643237" d="M580.7,366.214v15.708h20.93V366.957Z" transform="translate(-296.641 -187.075)" fill="#727997"/>
              <path id="Trazado_643238" data-name="Trazado 643238" d="M595.448,374.828v2.321h6.4v-2.531Z" transform="translate(-304.176 -191.368)" fill="#f5f5f5"/>
              <rect id="Rectángulo_379924" data-name="Rectángulo 379924" width="6.614" height="0.949" transform="translate(291.272 187.731)" fill="#f5f5f5"/>
              <path id="Trazado_643239" data-name="Trazado 643239" d="M580.7,289.885v15.708h20.93V290.628Z" transform="translate(-296.641 -148.084)" fill="#727997"/>
              <path id="Trazado_643240" data-name="Trazado 643240" d="M595.448,298.5v2.321h6.4v-2.531Z" transform="translate(-304.176 -152.376)" fill="#f5f5f5"/>
              <rect id="Rectángulo_379925" data-name="Rectángulo 379925" width="6.614" height="0.949" transform="translate(291.272 150.394)" fill="#f5f5f5"/>
              <rect id="Rectángulo_379926" data-name="Rectángulo 379926" width="20.93" height="15.708" transform="translate(283.784 160.61)" fill="#727997"/>
              <path id="Trazado_643241" data-name="Trazado 643241" d="M595.179,342.6v2.181H601.2V342.4Z" transform="translate(-304.039 -174.912)" fill="#f5f5f5"/>
              <rect id="Rectángulo_379927" data-name="Rectángulo 379927" width="6.217" height="0.892" transform="translate(291.14 171.704)" fill="#f5f5f5"/>
            </g>
          </g>
          <g id="Grupo_1075233" data-name="Grupo 1075233">
            <g id="Grupo_1075232" data-name="Grupo 1075232" clip-path="url(#clip-path-2)">
              <path id="Trazado_643242" data-name="Trazado 643242" d="M331.618,406.367c0,.07-72.448.127-161.8.127-89.379,0-161.812-.057-161.812-.127s72.433-.127,161.812-.127c89.348,0,161.8.057,161.8.127" transform="translate(-4.092 -207.522)" fill="#263238"/>
            </g>
          </g>
          <rect id="Rectángulo_379930" data-name="Rectángulo 379930" width="130.768" height="85.773" transform="translate(93.287 19.547)" fill="#fafafa"/>
          <g id="Grupo_1075256" data-name="Grupo 1075256">
            <g id="Grupo_1075255" data-name="Grupo 1075255" clip-path="url(#clip-path-2)">
              <path id="Trazado_643243" data-name="Trazado 643243" d="M321.339,125.6c0-.826-.04-33.459-.1-85.773l.1.1-130.758.026h-.01l.127-.127c0,30.5-.007,59.531-.01,85.773l-.117-.117,130.768.117-130.768.117h-.117V125.6c0-26.241-.007-55.269-.011-85.773V39.7h.138l130.758.026h.1v.1c-.062,52.314-.1,84.947-.1,85.773" transform="translate(-97.286 -20.281)" fill="#263238"/>
              <path id="Trazado_643244" data-name="Trazado 643244" d="M272.326,136.792l12.862.177a12.806,12.806,0,0,1-12.862,12.441h-.075Z" transform="translate(-139.076 -69.878)" fill="#6fd9fb"/>
              <path id="Trazado_643245" data-name="Trazado 643245" d="M298.327,162.162a1.264,1.264,0,0,1-.275.022l-.787.021-2.874.033h-.036l-.023-.029-4.243-5.346-3.42-4.362.066.032-3.785-.035-1.059-.023a2,2,0,0,1-.374-.026,2.052,2.052,0,0,1,.374-.025l1.059-.023,3.785-.035h.041l.026.033,3.442,4.344,4.208,5.374-.06-.029,2.874.033.787.021a1.269,1.269,0,0,1,.275.022" transform="translate(-143.808 -77.833)" fill="#263238"/>
              <path id="Trazado_643246" data-name="Trazado 643246" d="M316.622,175.322c0,.054-1.863.1-4.161.1s-4.162-.044-4.162-.1,1.863-.1,4.162-.1,4.161.044,4.161.1" transform="translate(-157.49 -89.511)" fill="#263238"/>
              <path id="Trazado_643247" data-name="Trazado 643247" d="M316.622,178.473c0,.054-1.863.1-4.161.1s-4.162-.044-4.162-.1,1.863-.1,4.162-.1,4.161.044,4.161.1" transform="translate(-157.49 -91.12)" fill="#263238"/>
              <path id="Trazado_643248" data-name="Trazado 643248" d="M254.813,119.873l-.18,12.617a12.622,12.622,0,1,1,13.044-12.617Z" transform="translate(-123.596 -54.79)" fill="#196442"/>
              <path id="Trazado_643249" data-name="Trazado 643249" d="M245.85,116.394a.837.837,0,0,1-.224.052l-.639.1-2.311.324-.038.005-.028-.028-3.082-3c-1.481-1.452-2.813-2.775-3.77-3.739l-1.127-1.149a3.417,3.417,0,0,1-.394-.441,3.354,3.354,0,0,1,.448.386l1.171,1.1c.983.939,2.33,2.245,3.811,3.7l3.057,3.024-.067-.023,2.319-.255.645-.059a.833.833,0,0,1,.229,0" transform="translate(-119.656 -55.437)" fill="#263238"/>
              <path id="Trazado_643250" data-name="Trazado 643250" d="M218.885,107.286c0,.054-1.863.1-4.161.1s-4.162-.044-4.162-.1,1.863-.1,4.162-.1,4.161.045,4.161.1" transform="translate(-107.563 -54.755)" fill="#263238"/>
              <path id="Trazado_643251" data-name="Trazado 643251" d="M218.885,110.436c0,.054-1.863.1-4.161.1s-4.162-.044-4.162-.1,1.863-.1,4.162-.1,4.161.044,4.161.1" transform="translate(-107.563 -56.365)" fill="#263238"/>
              <path id="Trazado_643252" data-name="Trazado 643252" d="M350.111,73.9l-.051-7.841a10,10,0,0,0-6.469,2.522,9.275,9.275,0,0,0-3.117,8.121,11.03,11.03,0,0,0,.183,1.139c0,.009,0,.018,0,.027h0l9.448-2.126Z" transform="translate(-173.895 -33.746)" fill="#96b8a9"/>
              <path id="Trazado_643254" data-name="Trazado 643254" d="M371.021,71.52a9.3,9.3,0,0,0-7.625-5.338c-.1-.01-.2-.019-.3-.026-.064,0-.126-.011-.19-.015q-.28-.015-.569-.017h-.051l.051,7.841.012,1.843,9.45,2.062.012,0a9.337,9.337,0,0,0,.21-2.033,10.171,10.171,0,0,0-1-4.319" transform="translate(-185.069 -33.778)" fill="#2d4587"/>
              <path id="Trazado_643256" data-name="Trazado 643256" d="M351.407,87.858l-9.448,2.126a9.684,9.684,0,0,0,18.91-.064l-9.45-2.062" transform="translate(-174.685 -44.881)" fill="#196442"/>
              <path id="Trazado_643257" data-name="Trazado 643257" d="M413.667,84.839c0,.07-4.885.127-10.909.127s-10.91-.057-10.91-.127,4.884-.127,10.91-.127,10.909.057,10.909.127" transform="translate(-200.17 -43.274)" fill="#263238"/>
              <path id="Trazado_643258" data-name="Trazado 643258" d="M413.667,79.755c0,.07-4.885.127-10.909.127s-10.91-.057-10.91-.127,4.884-.127,10.91-.127,10.909.057,10.909.127" transform="translate(-200.17 -40.677)" fill="#263238"/>
              <path id="Trazado_643259" data-name="Trazado 643259" d="M413.667,74.671c0,.071-4.885.128-10.909.128s-10.91-.057-10.91-.128,4.884-.127,10.91-.127,10.909.057,10.909.127" transform="translate(-200.17 -38.08)" fill="#263238"/>
              <path id="Trazado_643260" data-name="Trazado 643260" d="M413.667,89.569c0,.07-4.885.127-10.909.127s-10.91-.057-10.91-.127,4.884-.127,10.91-.127,10.909.057,10.909.127" transform="translate(-200.17 -45.69)" fill="#263238"/>
              <path id="Trazado_643261" data-name="Trazado 643261" d="M406.992,94.717c0,.07-3.355.127-7.493.127s-7.493-.057-7.493-.127,3.354-.127,7.493-.127,7.493.057,7.493.127" transform="translate(-200.251 -48.32)" fill="#263238"/>
              <rect id="Rectángulo_379933" data-name="Rectángulo 379933" width="2.247" height="25.099" transform="translate(168.797 64.399)" fill="#196442"/>
              <rect id="Rectángulo_379934" data-name="Rectángulo 379934" width="2.247" height="16.574" transform="translate(173.136 72.924)" fill="#c7e3d7"/>
              <rect id="Rectángulo_379935" data-name="Rectángulo 379935" width="2.247" height="22.106" transform="translate(177.475 67.519)" fill="#196442"/>
              <rect id="Rectángulo_379936" data-name="Rectángulo 379936" width="2.247" height="24.129" transform="translate(181.813 65.369)" fill="#c7e3d7"/>
              <rect id="Rectángulo_379937" data-name="Rectángulo 379937" width="2.247" height="16.064" transform="translate(186.152 73.434)" fill="#196442"/>
              <rect id="Rectángulo_379938" data-name="Rectángulo 379938" width="2.247" height="12.913" transform="translate(190.491 76.585)" fill="#c7e3d7"/>
              <rect id="Rectángulo_379939" data-name="Rectángulo 379939" width="2.247" height="22.522" transform="translate(194.829 66.976)" fill="#196442"/>
              <rect id="Rectángulo_379940" data-name="Rectángulo 379940" width="2.247" height="18.462" transform="translate(199.168 71.036)" fill="#c7e3d7"/>
              <rect id="Rectángulo_379941" data-name="Rectángulo 379941" width="2.247" height="21.707" transform="translate(203.507 67.791)" fill="#196442"/>
              <rect id="Rectángulo_379942" data-name="Rectángulo 379942" width="2.247" height="14.788" transform="translate(207.845 74.71)" fill="#c7e3d7"/>
              <rect id="Rectángulo_379943" data-name="Rectángulo 379943" width="2.247" height="17.602" transform="translate(212.184 71.896)" fill="#196442"/>
              <path id="Trazado_643262" data-name="Trazado 643262" d="M390.513,186.437c0,.051-10.66.092-23.807.092s-23.809-.042-23.809-.092,10.658-.092,23.809-.092,23.807.042,23.807.092" transform="translate(-175.164 -95.192)" fill="#263238"/>
              <path id="Trazado_643263" data-name="Trazado 643263" d="M348.142,190.476a15.09,15.09,0,0,1-3.336,0,15.092,15.092,0,0,1,3.336,0" transform="translate(-176.139 -97.255)" fill="#263238"/>
              <path id="Trazado_643264" data-name="Trazado 643264" d="M358.772,190.682a21.526,21.526,0,0,1-3.986,0,21.529,21.529,0,0,1,3.986,0" transform="translate(-181.237 -97.36)" fill="#263238"/>
              <path id="Trazado_643265" data-name="Trazado 643265" d="M368.418,190.682a21.526,21.526,0,0,1-3.986,0,21.529,21.529,0,0,1,3.986,0" transform="translate(-186.165 -97.36)" fill="#263238"/>
              <path id="Trazado_643266" data-name="Trazado 643266" d="M378.064,190.682a21.526,21.526,0,0,1-3.986,0,21.529,21.529,0,0,1,3.986,0" transform="translate(-191.092 -97.36)" fill="#263238"/>
              <path id="Trazado_643267" data-name="Trazado 643267" d="M387.71,190.682a21.526,21.526,0,0,1-3.986,0,21.53,21.53,0,0,1,3.986,0" transform="translate(-196.02 -97.36)" fill="#263238"/>
              <path id="Trazado_643268" data-name="Trazado 643268" d="M397.356,190.682a21.526,21.526,0,0,1-3.986,0,21.53,21.53,0,0,1,3.986,0" transform="translate(-200.947 -97.36)" fill="#263238"/>
              <path id="Trazado_643269" data-name="Trazado 643269" d="M407,190.682a21.527,21.527,0,0,1-3.986,0,21.531,21.531,0,0,1,3.986,0" transform="translate(-205.875 -97.36)" fill="#263238"/>
              <path id="Trazado_643270" data-name="Trazado 643270" d="M416.649,190.682a21.527,21.527,0,0,1-3.986,0,21.531,21.531,0,0,1,3.986,0" transform="translate(-210.803 -97.36)" fill="#263238"/>
              <path id="Trazado_643271" data-name="Trazado 643271" d="M426.3,190.682a21.526,21.526,0,0,1-3.986,0,21.53,21.53,0,0,1,3.986,0" transform="translate(-215.731 -97.36)" fill="#263238"/>
              <path id="Trazado_643272" data-name="Trazado 643272" d="M435.941,190.682a21.527,21.527,0,0,1-3.986,0,21.531,21.531,0,0,1,3.986,0" transform="translate(-220.658 -97.36)" fill="#263238"/>
              <path id="Trazado_643273" data-name="Trazado 643273" d="M218.666,70.66A2.163,2.163,0,1,1,216.5,68.5a2.163,2.163,0,0,1,2.163,2.163" transform="translate(-109.493 -34.991)" fill="#2d4587"/>
              <path id="Trazado_643274" data-name="Trazado 643274" d="M265.19,69.3c0,.07-7.294.127-16.289.127s-16.29-.057-16.29-.127,7.292-.127,16.29-.127,16.289.057,16.289.127" transform="translate(-118.826 -35.335)" fill="#2d4587"/>
              <path id="Trazado_643275" data-name="Trazado 643275" d="M245.939,74.645a1.949,1.949,0,0,1-.5.049c-.325.016-.795.029-1.376.041-1.162.023-2.767.037-4.539.037s-3.379-.014-4.541-.037c-.581-.011-1.051-.025-1.376-.041a1.947,1.947,0,0,1-.5-.049,1.947,1.947,0,0,1,.5-.049c.325-.015.8-.029,1.376-.041,1.162-.023,2.767-.037,4.541-.037s3.378.014,4.539.037c.581.011,1.051.025,1.376.041a1.949,1.949,0,0,1,.5.049" transform="translate(-119.074 -38.066)" fill="#2d4587"/>
              <rect id="Rectángulo_379954" data-name="Rectángulo 379954" width="68.44" height="78.109" transform="translate(22.183 27.312)" fill="#fafafa"/>
              <path id="Trazado_643276" data-name="Trazado 643276" d="M113.656,133.81s0-.127-.006-.371,0-.61-.006-1.085c0-.959-.008-2.373-.013-4.216-.007-3.688-.017-9.084-.03-15.937-.014-13.7-.033-33.208-.057-56.5l.112.113-68.433.015h-.007l.127-.127c-.007,28.8-.014,55.652-.02,78.109l-.108-.108,49.64.055,13.88.028,3.658.013c.829,0,1.262.012,1.262.012s-.417.008-1.239.012l-3.638.012-13.855.028-49.709.055h-.108v-.108C45.1,111.353,45.1,84.5,45.088,55.7v-.127h.135l68.433.015h.113V55.7c-.023,23.321-.043,42.86-.057,56.572-.013,6.842-.023,12.23-.03,15.912-.005,1.833-.01,3.24-.013,4.194q0,.706-.006,1.073c0,.24-.006.359-.006.359" transform="translate(-23.033 -28.389)" fill="#263238"/>
              <path id="Trazado_643277" data-name="Trazado 643277" d="M116.673,135.527c-.022.046-.758-.38-2.2-.836a14.149,14.149,0,0,0-6.311-.468A13.787,13.787,0,0,0,104,135.56a19.571,19.571,0,0,0-4.092,2.943c-1.342,1.185-2.675,2.529-4.212,3.772a14.518,14.518,0,0,1-5.374,2.909,8.129,8.129,0,0,1-3.138.189,10.179,10.179,0,0,1-2.908-.9,50.754,50.754,0,0,1-4.871-2.9,15.191,15.191,0,0,0-4.581-2.054,13.6,13.6,0,0,0-4.358-.334,14.036,14.036,0,0,0-6.016,1.959c-1.29.789-1.9,1.382-1.934,1.341a2.992,2.992,0,0,1,.437-.43A10.428,10.428,0,0,1,64.35,141a13.728,13.728,0,0,1,10.561-1.847,15.436,15.436,0,0,1,4.716,2.063,51.994,51.994,0,0,0,4.839,2.848,8.286,8.286,0,0,0,5.739.672,14.191,14.191,0,0,0,5.2-2.813c1.513-1.216,2.851-2.552,4.213-3.739a19.732,19.732,0,0,1,4.2-2.966,13.944,13.944,0,0,1,10.707-.7,11.256,11.256,0,0,1,1.616.7,3.062,3.062,0,0,1,.527.314" transform="translate(-31.933 -68.332)" fill="#196442"/>
              <rect id="Rectángulo_379955" data-name="Rectángulo 379955" width="5.819" height="15.736" transform="translate(41.021 77.686)" fill="#96b8a9"/>
              <rect id="Rectángulo_379956" data-name="Rectángulo 379956" width="5.819" height="15.736" transform="translate(65.711 77.686)" fill="#96b8a9"/>
              <rect id="Rectángulo_379957" data-name="Rectángulo 379957" width="5.819" height="24.978" transform="translate(73.941 68.444)" fill="#96b8a9"/>
              <rect id="Rectángulo_379958" data-name="Rectángulo 379958" width="5.819" height="5.296" transform="translate(33.491 88.468)" fill="#96b8a9"/>
              <rect id="Rectángulo_379959" data-name="Rectángulo 379959" width="5.819" height="8.63" transform="translate(49.251 84.792)" fill="#96b8a9"/>
              <rect id="Rectángulo_379960" data-name="Rectángulo 379960" width="5.819" height="10.611" transform="translate(57.481 82.811)" fill="#96b8a9"/>
              <path id="Trazado_643278" data-name="Trazado 643278" d="M89.667,194.531a10.767,10.767,0,0,1-3.143.234,10.77,10.77,0,0,1-3.144-.234,10.771,10.771,0,0,1,3.144-.234,10.768,10.768,0,0,1,3.143.234" transform="translate(-42.593 -99.254)" fill="#263238"/>
              <path id="Trazado_643279" data-name="Trazado 643279" d="M74.866,194.531a10.773,10.773,0,0,1-3.143.234,10.772,10.772,0,0,1-3.144-.234,10.773,10.773,0,0,1,3.144-.234,10.774,10.774,0,0,1,3.143.234" transform="translate(-35.032 -99.254)" fill="#263238"/>
              <path id="Trazado_643280" data-name="Trazado 643280" d="M157.974,194.531a13.7,13.7,0,0,1-3.553.234,13.7,13.7,0,0,1-3.554-.234,13.7,13.7,0,0,1,3.554-.234,13.706,13.706,0,0,1,3.553.234" transform="translate(-77.068 -99.254)" fill="#263238"/>
              <path id="Trazado_643281" data-name="Trazado 643281" d="M140.3,194.531a13.707,13.707,0,0,1-3.554.234,13.7,13.7,0,0,1-3.553-.234,13.7,13.7,0,0,1,3.553-.234,13.709,13.709,0,0,1,3.554.234" transform="translate(-68.042 -99.254)" fill="#263238"/>
              <path id="Trazado_643282" data-name="Trazado 643282" d="M122.837,194.531a10.759,10.759,0,0,1-3.143.234,10.759,10.759,0,0,1-3.144-.234,10.771,10.771,0,0,1,3.144-.234,10.771,10.771,0,0,1,3.143.234" transform="translate(-59.538 -99.254)" fill="#263238"/>
              <path id="Trazado_643283" data-name="Trazado 643283" d="M105.454,194.531a10.759,10.759,0,0,1-3.143.234,10.759,10.759,0,0,1-3.144-.234,10.77,10.77,0,0,1,3.144-.234,10.771,10.771,0,0,1,3.143.234" transform="translate(-50.658 -99.254)" fill="#263238"/>
              <rect id="Rectángulo_379961" data-name="Rectángulo 379961" width="47.552" height="19.748" transform="translate(33.354 38.699)" fill="#e0e0e0"/>
              <path id="Trazado_643284" data-name="Trazado 643284" d="M83.752,89.557a2.217,2.217,0,1,1-2.217-2.217,2.217,2.217,0,0,1,2.217,2.217" transform="translate(-40.518 -44.616)" fill="#6fd9fb"/>
              <rect id="Rectángulo_379962" data-name="Rectángulo 379962" width="15.446" height="0.858" transform="translate(45.45 43.409)" fill="#6fd9fb"/>
              <rect id="Rectángulo_379963" data-name="Rectángulo 379963" width="30.047" height="0.858" transform="translate(45.45 45.358)" fill="#fff"/>
              <path id="Trazado_643285" data-name="Trazado 643285" d="M83.752,103.489a2.217,2.217,0,1,1-2.217-2.217,2.217,2.217,0,0,1,2.217,2.217" transform="translate(-40.518 -51.733)" fill="#196442"/>
              <rect id="Rectángulo_379964" data-name="Rectángulo 379964" width="7.888" height="0.858" transform="translate(45.45 50.224)" fill="#196442"/>
              <rect id="Rectángulo_379965" data-name="Rectángulo 379965" width="30.047" height="0.858" transform="translate(45.45 52.173)" fill="#fff"/>
              <rect id="Rectángulo_379966" data-name="Rectángulo 379966" width="75.156" height="85.773" transform="translate(230.47 13.291)" fill="#fafafa"/>
              <path id="Trazado_643286" data-name="Trazado 643286" d="M546.173,112.81s0-.139-.006-.407,0-.668-.006-1.191c0-1.052-.008-2.6-.013-4.628-.007-4.048-.017-9.974-.03-17.5-.014-15.039-.033-36.468-.057-62.047l.112.113-75.148.015h-.008l.128-.128c-.007,31.623-.014,61.112-.02,85.773l-.108-.108,54.515.055,15.24.028,4.016.012c.91,0,1.385.012,1.385.012s-.459.008-1.361.012l-4,.013-15.216.028-54.583.055h-.108v-.108c-.005-24.661-.012-54.15-.02-85.773V26.91h.135l75.148.015h.113v.113c-.023,25.609-.043,47.063-.057,62.119-.013,7.514-.023,13.431-.03,17.474-.005,2.013-.01,3.56-.013,4.606,0,.518,0,.911-.006,1.179s-.006.395-.006.395" transform="translate(-240.547 -13.747)" fill="#263238"/>
              <rect id="Rectángulo_379967" data-name="Rectángulo 379967" width="60.884" height="48.841" transform="translate(236.483 20.148)" fill="#e0e0e0"/>
              <rect id="Rectángulo_379968" data-name="Rectángulo 379968" width="1.998" height="0.576" transform="translate(240.737 60.306)" fill="#263238"/>
              <rect id="Rectángulo_379969" data-name="Rectángulo 379969" width="2.555" height="0.576" transform="translate(245.258 63.384)" fill="#263238"/>
              <rect id="Rectángulo_379970" data-name="Rectángulo 379970" width="2.555" height="0.576" transform="translate(254.154 63.384)" fill="#263238"/>
              <rect id="Rectángulo_379971" data-name="Rectángulo 379971" width="2.555" height="0.576" transform="translate(263.049 63.384)" fill="#263238"/>
              <rect id="Rectángulo_379972" data-name="Rectángulo 379972" width="2.555" height="0.576" transform="translate(271.945 63.384)" fill="#263238"/>
              <rect id="Rectángulo_379973" data-name="Rectángulo 379973" width="2.555" height="0.576" transform="translate(280.84 63.384)" fill="#263238"/>
              <rect id="Rectángulo_379974" data-name="Rectángulo 379974" width="2.555" height="0.576" transform="translate(289.735 63.384)" fill="#263238"/>
              <rect id="Rectángulo_379975" data-name="Rectángulo 379975" width="1.998" height="0.576" transform="translate(240.737 52.615)" fill="#263238"/>
              <rect id="Rectángulo_379976" data-name="Rectángulo 379976" width="1.998" height="0.576" transform="translate(240.737 38.142)" fill="#263238"/>
              <rect id="Rectángulo_379977" data-name="Rectángulo 379977" width="1.998" height="0.576" transform="translate(240.737 30.868)" fill="#263238"/>
              <rect id="Rectángulo_379978" data-name="Rectángulo 379978" width="1.998" height="0.576" transform="translate(240.839 45.378)" fill="#263238"/>
              <path id="Trazado_643287" data-name="Trazado 643287" d="M546.666,88.389a1.334,1.334,0,0,1-.214.013l-.629.013-2.418.023-8.892.041-29.337.037H498.1v-.126c.017-9.806.032-18.437.043-24.63.016-3.081.029-5.556.038-7.274.009-.842.017-1.5.022-1.958,0-.214.008-.382.011-.506a.087.087,0,1,1,.023,0c0,.125.006.292.011.506,0,.459.012,1.115.022,1.958.009,1.718.022,4.193.038,7.274.011,6.193.026,14.824.043,24.63l-.126-.126h6.952l29.337.037,8.892.041,2.418.024.629.012a1.467,1.467,0,0,1,.214.013" transform="translate(-254.447 -27.507)" fill="#263238"/>
              <path id="Trazado_643288" data-name="Trazado 643288" d="M549.379,93.223c0,.07-10.538.127-23.535.127s-23.537-.057-23.537-.127,10.536-.127,23.537-.127,23.535.057,23.535.127" transform="translate(-256.596 -47.557)" fill="#263238"/>
              <path id="Trazado_643289" data-name="Trazado 643289" d="M549.379,78.428c0,.07-10.538.127-23.535.127s-23.537-.057-23.537-.127,10.536-.127,23.537-.127,23.535.057,23.535.127" transform="translate(-256.596 -39.999)" fill="#263238"/>
              <path id="Trazado_643290" data-name="Trazado 643290" d="M549.379,63.558c0,.07-10.538.127-23.535.127s-23.537-.057-23.537-.127,10.536-.127,23.537-.127,23.535.057,23.535.127" transform="translate(-256.596 -32.403)" fill="#263238"/>
              <path id="Trazado_643291" data-name="Trazado 643291" d="M549.379,108.018c0,.07-10.538.127-23.535.127s-23.537-.057-23.537-.127,10.536-.127,23.537-.127,23.535.057,23.535.127" transform="translate(-256.596 -55.115)" fill="#263238"/>
              <path id="Trazado_643292" data-name="Trazado 643292" d="M503.3,87.389V80.968l4-6.213,2.716,2.083,5.575-8.659,3.287,2.315,4.574-7.988,3.716,3.027,5.575-10.6,6,11.843,4.859-5.926,5.717-1.636V87.389Z" transform="translate(-257.103 -28.065)" fill="#455a64"/>
              <path id="Trazado_643293" data-name="Trazado 643293" d="M549.885,58.957a.4.4,0,0,1-.1.01l-.3.009-1.16.019-4.387.033L544,59,539.3,65.15l-.03.039h-.05l-11.77.022.105-.06-4.947,8.239-4.859,8.075-.1.159-.109-.15-6.371-8.77.171-.005-5.826,9.055-1.628,2.5-.433.652c-.1.146-.158.217-.158.217s.04-.083.131-.234l.408-.668,1.58-2.531,5.751-9.1.081-.129.091.123,6.4,8.748-.2.009,4.852-8.079,4.956-8.234.036-.059h.069l11.77.022-.08.04,4.742-6.113.022-.028h.035l4.387.033,1.16.019.3.009a.4.4,0,0,1,.1.01" transform="translate(-257.103 -30.081)" fill="#96b8a9"/>
              <path id="Trazado_643294" data-name="Trazado 643294" d="M522.568,90.762a.452.452,0,1,1-.451-.435.443.443,0,0,1,.451.435" transform="translate(-266.485 -46.142)" fill="#96b8a9"/>
              <path id="Trazado_643295" data-name="Trazado 643295" d="M550.322,74.987a.452.452,0,1,1-.452-.435.443.443,0,0,1,.452.435" transform="translate(-280.663 -38.084)" fill="#96b8a9"/>
              <path id="Trazado_643296" data-name="Trazado 643296" d="M571.9,71.111a.452.452,0,1,1-.452-.435.443.443,0,0,1,.452.435" transform="translate(-291.685 -36.104)" fill="#96b8a9"/>
              <path id="Trazado_643297" data-name="Trazado 643297" d="M542.369,155.746c0,.07-12.847.127-28.691.127s-28.694-.057-28.694-.127,12.845-.127,28.694-.127,28.691.057,28.691.127" transform="translate(-247.747 -79.496)" fill="#263238"/>
              <path id="Trazado_643298" data-name="Trazado 643298" d="M542.369,162.088c0,.07-12.847.127-28.691.127s-28.694-.057-28.694-.127,12.845-.127,28.694-.127,28.691.057,28.691.127" transform="translate(-247.747 -82.735)" fill="#263238"/>
              <path id="Trazado_643299" data-name="Trazado 643299" d="M542.369,168.43c0,.07-12.847.127-28.691.127s-28.694-.057-28.694-.127,12.845-.127,28.694-.127,28.691.057,28.691.127" transform="translate(-247.747 -85.975)" fill="#263238"/>
              <path id="Trazado_643300" data-name="Trazado 643300" d="M542.369,174.773c0,.07-12.847.127-28.691.127s-28.694-.057-28.694-.127,12.845-.127,28.694-.127,28.691.057,28.691.127" transform="translate(-247.747 -89.215)" fill="#263238"/>
            </g>
          </g>
          <g id="Grupo_1075270" data-name="Grupo 1075270">
            <g id="Grupo_1075269" data-name="Grupo 1075269" clip-path="url(#clip-path-2)">
              <path id="Trazado_643301" data-name="Trazado 643301" d="M551.217,154.325c1.57-2.636,2.028-6.151,2.432-9.192.19-1.431.523-3.469-.481-4.367-1.076-.963-1.175-2.442-2.413-3.186a3.807,3.807,0,0,0-4.089.034" transform="translate(-279.256 -69.985)" fill="#263238"/>
              <path id="Trazado_643302" data-name="Trazado 643302" d="M538.047,165.174h0a4.236,4.236,0,0,1-4.557-4.062c-.089-2.306-.166-4.637-.166-4.637a4.162,4.162,0,0,1-3.748-3.785c-.253-3.458-.138-11.442-.138-11.442a12.05,12.05,0,0,1,12.179.783L541.4,154.2v6.548c-.023,2.2-1.165,4.256-3.355,4.424" transform="translate(-270.443 -71.496)" fill="#ffbe9d"/>
              <path id="Trazado_643303" data-name="Trazado 643303" d="M529.993,145.439a1.772,1.772,0,0,1,2.363-.516,2.01,2.01,0,0,1,.67,2.513,2.649,2.649,0,0,1-1.7,1.283,1.328,1.328,0,0,0-1.04,1.43c.1.868,1.543,1.194,2.2,1.912,1.013,1.118,3.238,1.591,4.737,1.768,1.473.174,1.295.188,2.152-1.022a4.644,4.644,0,0,0,.841-2.807q.079-3.825.158-7.65a10.94,10.94,0,0,0-.174-2.745,3.684,3.684,0,0,0-1.447-2.27,11.309,11.309,0,0,0-2.865-.911,23.691,23.691,0,0,1-3.336-1.755,4.1,4.1,0,0,0-3.619-.351c-.807.406-1.349,1.211-2.134,1.658-1.118.636-2.64.492-3.183,2.135a2.787,2.787,0,0,0,.019,1.759,4.064,4.064,0,0,0,5.525,2.172,5.483,5.483,0,0,0,.065,2.419c.127.383.173.966.77.977" transform="translate(-267.413 -68.467)" fill="#263238"/>
              <path id="Trazado_643304" data-name="Trazado 643304" d="M538.045,160.012c.026-.022.144.183.432.165a.8.8,0,0,0,.647-.79.864.864,0,0,0-.593-.86c-.285-.105-.489-.051-.5-.091-.015-.023.19-.156.547-.082a1.035,1.035,0,0,1,.543.312,1,1,0,0,1,.255.735.955.955,0,0,1-.9.957.519.519,0,0,1-.387-.194c-.061-.085-.061-.145-.046-.151" transform="translate(-274.846 -80.881)" fill="#eb996e"/>
              <path id="Trazado_643305" data-name="Trazado 643305" d="M545.416,139.691c-.008-.007.075-.133.29-.293a2.32,2.32,0,0,1,1.05-.408,3.028,3.028,0,0,1,1.655.252,3.792,3.792,0,0,1,1.526,1.364,7.742,7.742,0,0,1,1.074,3.5,9.044,9.044,0,0,1,.091,1.51,8.761,8.761,0,0,1-.27-1.487,8.36,8.36,0,0,0-1.107-3.384,3.693,3.693,0,0,0-1.414-1.293,2.777,2.777,0,0,0-2.895.237" transform="translate(-278.618 -70.987)" fill="#455a64"/>
              <path id="Trazado_643306" data-name="Trazado 643306" d="M524.449,142.466c0,.007-.047.009-.131-.01a1,1,0,0,1-.345-.155,1.26,1.26,0,0,1-.4-.451,1.149,1.149,0,0,1-.108-.8,1.31,1.31,0,0,1,.56-.807,1.88,1.88,0,0,1,1.094-.215,1.508,1.508,0,0,0,1.044-.264,7.537,7.537,0,0,0,.845-.911,4.312,4.312,0,0,1,2.153-1.243,4.574,4.574,0,0,1,2.029-.045,3.917,3.917,0,0,1,1.275.49,1.482,1.482,0,0,1,.4.305,5.959,5.959,0,0,0-1.7-.618,4.609,4.609,0,0,0-1.939.1,4.188,4.188,0,0,0-2.023,1.188,7.239,7.239,0,0,1-.884.939,1.424,1.424,0,0,1-.6.267,2.829,2.829,0,0,1-.6.032,1.7,1.7,0,0,0-.978.158,1.141,1.141,0,0,0-.5.671,1.114,1.114,0,0,0,.394,1.13,2.736,2.736,0,0,0,.416.244" transform="translate(-267.389 -70.225)" fill="#455a64"/>
              <path id="Trazado_643307" data-name="Trazado 643307" d="M541.149,156.052c-.008-.022.174-.086.457-.276a2.857,2.857,0,0,0,.943-1.051,2.664,2.664,0,0,0-.47-3.067,4.993,4.993,0,0,0-1.081-.79c-.4-.235-.815-.453-1.191-.709a4.029,4.029,0,0,1-.957-.9,4.177,4.177,0,0,1-.809-2.047,3.788,3.788,0,0,1,.113-1.478,2.211,2.211,0,0,1,.138-.378c.039-.084.063-.125.07-.122a5.131,5.131,0,0,0-.143,1.955,4.14,4.14,0,0,0,.817,1.927,3.864,3.864,0,0,0,.911.839c.362.243.767.456,1.179.7a5.092,5.092,0,0,1,1.131.836,2.807,2.807,0,0,1,.673,1.143,2.755,2.755,0,0,1-1.274,3.233,1.228,1.228,0,0,1-.509.191" transform="translate(-274.837 -74.19)" fill="#455a64"/>
              <path id="Trazado_643308" data-name="Trazado 643308" d="M548.137,150.659a1.553,1.553,0,0,1-.446.1,6.448,6.448,0,0,1-1.243.038,7.7,7.7,0,0,1-3.858-1.326,6.107,6.107,0,0,1-2.53-3.184,2.632,2.632,0,0,1-.052-1.253,1,1,0,0,1,.172-.426,3.056,3.056,0,0,0,.053,1.628,6.276,6.276,0,0,0,2.5,3.024,8.1,8.1,0,0,0,3.729,1.357c1.026.112,1.669-.01,1.674.043" transform="translate(-275.829 -73.87)" fill="#455a64"/>
              <path id="Trazado_643309" data-name="Trazado 643309" d="M557.256,149.872a6.109,6.109,0,0,1,4.767-2.16,4.39,4.39,0,0,1,4,3.1,11.02,11.02,0,0,1-.244,4.04c-.171,1.348-.005,2.924,1.094,3.722a6.365,6.365,0,0,0,2.316.763,2.533,2.533,0,0,1,1.92,1.364,1.947,1.947,0,0,1-1.191,2.265,4.383,4.383,0,0,1-2.767.038,2.318,2.318,0,0,1-1.026,2.772,3.064,3.064,0,0,1-3.071-.129,4.585,4.585,0,0,1-1.876-2.543,2.28,2.28,0,0,1-3.145.6,3.3,3.3,0,0,1-1.272-3.162,6.168,6.168,0,0,1,1.594-3.161,7.814,7.814,0,0,0,1.113-1.418,1.805,1.805,0,0,0,.07-1.728,1.046,1.046,0,0,0-1.539-.309" transform="translate(-284.398 -75.453)" fill="#263238"/>
              <path id="Trazado_643310" data-name="Trazado 643310" d="M559.365,154.505a1.191,1.191,0,0,1-1.039-.012,2.5,2.5,0,0,1-1.509-1.969,2.577,2.577,0,0,1,.165-1.4,2.676,2.676,0,0,1,.662-.939,1.7,1.7,0,0,1,.909-.507,8.1,8.1,0,0,0-.783.635,2.562,2.562,0,0,0-.7,2.175,2.208,2.208,0,0,0,2.3,2.02" transform="translate(-284.425 -76.458)" fill="#c7e3d7"/>
              <path id="Trazado_643311" data-name="Trazado 643311" d="M533.23,170.134a1.635,1.635,0,0,1-.789-.078,4.259,4.259,0,0,1-2.8-2.473,1.627,1.627,0,0,1-.175-.774,5,5,0,0,1,.339.7,4.885,4.885,0,0,0,2.692,2.376,5.026,5.026,0,0,1,.736.25" transform="translate(-270.463 -85.212)" fill="#eb996e"/>
              <path id="Trazado_643312" data-name="Trazado 643312" d="M560.946,166.675c0,.009-.06,0-.169-.025a1.694,1.694,0,0,1-.451-.2,2.458,2.458,0,0,1-.982-1.494,3.066,3.066,0,0,1-.043-1.257,5.048,5.048,0,0,1,.457-1.361c.436-.912,1.123-1.778,1.632-2.784a4.935,4.935,0,0,0,.512-1.539,2.978,2.978,0,0,0-1.921-3.206,3.184,3.184,0,0,0-1.712-.107c-.406.085-.612.2-.623.177,0-.008.045-.04.143-.094a2.442,2.442,0,0,1,.456-.178,3.067,3.067,0,0,1,3.709,1.851,3.162,3.162,0,0,1,.2,1.589,5.1,5.1,0,0,1-.531,1.622c-.527,1.04-1.217,1.9-1.649,2.774a3.7,3.7,0,0,0-.449,2.474,2.448,2.448,0,0,0,.863,1.453,4.524,4.524,0,0,0,.563.307" transform="translate(-284.865 -78.918)" fill="#455a64"/>
              <path id="Trazado_643313" data-name="Trazado 643313" d="M566.179,168.711a.71.71,0,0,1-.218.013,2.436,2.436,0,0,1-.617-.111,3.47,3.47,0,0,1-1.8-1.4,5.335,5.335,0,0,1-.778-3.3,33.677,33.677,0,0,1,.667-4.1,9.6,9.6,0,0,0,.146-2.106,5.439,5.439,0,0,0-.443-1.891,3.447,3.447,0,0,0-2.428-2.026,5.05,5.05,0,0,0-2.227.008c-.521.116-.8.232-.806.21a.7.7,0,0,1,.193-.1,4.276,4.276,0,0,1,.589-.205,4.87,4.87,0,0,1,2.29-.087,3.664,3.664,0,0,1,1.463.657,3.727,3.727,0,0,1,1.138,1.447,5.586,5.586,0,0,1,.478,1.972,9.592,9.592,0,0,1-.143,2.164,36.553,36.553,0,0,0-.683,4.065,5.235,5.235,0,0,0,.693,3.185,3.481,3.481,0,0,0,1.682,1.409,5.2,5.2,0,0,0,.8.192" transform="translate(-284.88 -78.425)" fill="#455a64"/>
              <path id="Trazado_643314" data-name="Trazado 643314" d="M569.5,216.772l-7.365,5.746,3.091,5.075,8.87-6.535Z" transform="translate(-287.156 -110.735)" fill="#ffbe9d"/>
              <path id="Trazado_643315" data-name="Trazado 643315" d="M518.3,172.067s.036-.614-1.571-.7a16.636,16.636,0,0,0-1.785-.06,4.1,4.1,0,0,1-.768-1.49,4.465,4.465,0,0,1,.344-1.513l1.626-.15-.441-1.1-1.146.08-3.236.388-1.288,5.665-8.831,16.486a4.256,4.256,0,0,0,1.686,6.2c2.283,1.1,5.343-1.239,6.188-3.63L513.97,173.9l1.719-1.343,2.463-.451" transform="translate(-255.667 -85.334)" fill="#ffbe9d"/>
              <path id="Trazado_643316" data-name="Trazado 643316" d="M495.752,317.859l12.025-69.175-.017,0c.025-.1.05-.2.076-.3l0-.013h0c2.046-8.114,5.2-10.715,5.2-10.715l18.4,1.154c1.564,2.813,1.763,9.56,1.763,9.56.214.827-3.888,67.855-3.888,67.855l-6.154-.169-3.338-63.416-17.908,65.485Z" transform="translate(-253.248 -121.401)" fill="#ffbe9d"/>
              <path id="Trazado_643317" data-name="Trazado 643317" d="M490.965,402.237l.023-.625,6.33.183-.055,2.061-.391.013c-1.742.043-8.859.105-10.012-.254-1.285-.4,4.1-1.377,4.1-1.377" transform="translate(-248.605 -205.158)" fill="#196442"/>
              <g id="Grupo_1075259" data-name="Grupo 1075259" transform="translate(246.376 196.966)" opacity="0.6">
                <g id="Grupo_1075258" data-name="Grupo 1075258">
                  <g id="Grupo_1075257" data-name="Grupo 1075257" clip-path="url(#clip-path-7)">
                    <path id="Trazado_643318" data-name="Trazado 643318" d="M503.667,404.282a2.025,2.025,0,0,1,.843-1.228,2.241,2.241,0,0,1,1.486-.386l-.049,1.637Z" transform="translate(-503.667 -402.657)" fill="#fff"/>
                  </g>
                </g>
              </g>
              <g id="Grupo_1075262" data-name="Grupo 1075262" transform="translate(238.039 197.644)" opacity="0.6">
                <g id="Grupo_1075261" data-name="Grupo 1075261">
                  <g id="Grupo_1075260" data-name="Grupo 1075260" clip-path="url(#clip-path-8)">
                    <path id="Trazado_643319" data-name="Trazado 643319" d="M488.309,404.043s-1.892.453-1.667.746,7.42.483,10.6.308l-.006-.131-8.395-.155s-.168-.745-.534-.769" transform="translate(-486.623 -404.043)" fill="#fff"/>
                  </g>
                </g>
              </g>
              <path id="Trazado_643320" data-name="Trazado 643320" d="M497.357,405.641a.575.575,0,0,1-.109.008l-.312.009-1.147.016c-.968.007-2.306,0-3.783-.038s-2.814-.1-3.781-.156l-1.144-.074-.311-.025a.633.633,0,0,1-.108-.013.611.611,0,0,1,.109,0l.312.012,1.145.052c.967.043,2.3.1,3.78.135s2.813.052,3.781.058l1.147.007.312,0a.657.657,0,0,1,.109.006" transform="translate(-248.605 -207.075)" fill="#263238"/>
              <path id="Trazado_643321" data-name="Trazado 643321" d="M490.557,404.827a2.3,2.3,0,0,0-.2-.514,2.493,2.493,0,0,0-.378-.418.835.835,0,0,1,.444.383.742.742,0,0,1,.132.549" transform="translate(-250.299 -206.323)" fill="#263238"/>
              <path id="Trazado_643322" data-name="Trazado 643322" d="M494.679,403.59c-.018.01-.1-.093-.192-.23s-.144-.256-.126-.267.1.093.192.23.144.256.126.267" transform="translate(-252.536 -205.914)" fill="#263238"/>
              <path id="Trazado_643323" data-name="Trazado 643323" d="M495.672,403.267c-.015.014-.112-.05-.218-.144s-.18-.181-.165-.2.112.05.218.144.18.181.165.2" transform="translate(-253.01 -205.829)" fill="#263238"/>
              <path id="Trazado_643324" data-name="Trazado 643324" d="M496.079,402.467a1.546,1.546,0,1,1-.329-.041.8.8,0,0,1,.329.041" transform="translate(-253.079 -205.574)" fill="#263238"/>
              <path id="Trazado_643325" data-name="Trazado 643325" d="M496.237,401.712a.677.677,0,0,1-.37.09.685.685,0,0,1-.378-.057,2.211,2.211,0,0,1,.374-.014,2.174,2.174,0,0,1,.374-.019" transform="translate(-253.114 -205.206)" fill="#263238"/>
              <path id="Trazado_643326" data-name="Trazado 643326" d="M493.38,402.481a1.257,1.257,0,0,1-.405-.013,2.533,2.533,0,0,1-.428-.1,1.249,1.249,0,0,1-.244-.1.206.206,0,0,1-.1-.12.143.143,0,0,1,.066-.149.776.776,0,0,1,.912.226.648.648,0,0,1,.124.255c.014.065.012.1.007.1a1.022,1.022,0,0,0-.175-.326.733.733,0,0,0-.339-.218.672.672,0,0,0-.484.018c-.066.043-.043.113.028.155a1.285,1.285,0,0,0,.225.1,2.949,2.949,0,0,0,.414.112c.241.047.4.051.4.063" transform="translate(-251.435 -205.321)" fill="#263238"/>
              <path id="Trazado_643327" data-name="Trazado 643327" d="M494.348,402.335a.35.35,0,0,1-.039-.263.59.59,0,0,1,.119-.272.412.412,0,0,1,.343-.183.149.149,0,0,1,.119.177.391.391,0,0,1-.074.166,1.159,1.159,0,0,1-.2.223.589.589,0,0,1-.236.146c-.007-.009.083-.065.2-.181a1.32,1.32,0,0,0,.176-.222c.058-.078.1-.22,0-.24a.367.367,0,0,0-.272.153.6.6,0,0,0-.122.242,1.294,1.294,0,0,0-.015.254" transform="translate(-252.508 -205.16)" fill="#263238"/>
              <path id="Trazado_643328" data-name="Trazado 643328" d="M505.971,402.594c0,.013-.18-.021-.466,0a2.133,2.133,0,0,0-1.028.362,1.911,1.911,0,0,0-.66.817c-.1.248-.118.417-.132.415a.3.3,0,0,1,0-.118,1.433,1.433,0,0,1,.078-.314,1.819,1.819,0,0,1,.665-.857,2.046,2.046,0,0,1,1.07-.356,1.767,1.767,0,0,1,.346.017.387.387,0,0,1,.123.03" transform="translate(-257.298 -205.635)" fill="#263238"/>
              <path id="Trazado_643329" data-name="Trazado 643329" d="M500.157,404.729a5.562,5.562,0,0,1-1.842-.032c0-.021.413.014.921.022s.919-.01.921.01" transform="translate(-254.557 -206.73)" fill="#263238"/>
              <path id="Trazado_643330" data-name="Trazado 643330" d="M504.409,404.829c.015.015-.036.08-.081.167s-.07.164-.092.162-.029-.093.023-.193.137-.151.15-.136" transform="translate(-257.574 -206.8)" fill="#263238"/>
              <path id="Trazado_643331" data-name="Trazado 643331" d="M505.334,403.753c.015.014-.028.074-.095.134s-.134.1-.148.083.028-.074.1-.134.133-.1.148-.083" transform="translate(-258.017 -206.25)" fill="#263238"/>
              <path id="Trazado_643332" data-name="Trazado 643332" d="M506.589,403.251c0,.02-.089.017-.182.045s-.162.072-.178.058.039-.093.156-.126.211,0,.2.023" transform="translate(-258.598 -205.976)" fill="#263238"/>
              <path id="Trazado_643333" data-name="Trazado 643333" d="M507.744,403.062c.007.019-.03.047-.083.065s-.1.017-.109,0,.03-.047.083-.065.1-.017.109,0" transform="translate(-259.275 -205.891)" fill="#263238"/>
              <path id="Trazado_643334" data-name="Trazado 643334" d="M558.656,181.286a12.124,12.124,0,0,1,4.871,1.918c5.819,3.771,15.549,11.747,14.742,15.44-.687,3.144-8.277,6.962-8.277,6.962l-4.929-5.928,3.022-1.728-7.428-4.941Z" transform="translate(-285.381 -92.607)" fill="#263238"/>
              <path id="Trazado_643335" data-name="Trazado 643335" d="M532.042,192.929l-.242.884-.856,4.088-.211,5.991c4.413,5.683,4.479,10.467,4.479,10.467l-22.292,2.6a43.489,43.489,0,0,1,1.61-9.949c1.29-2.188,1.228-8.733.987-8.972-1.393-1.38-1.73-2.392-.618-4.16,0,0-6.911,7.259-7.623,7.911-2.441,2.238-4.79,1.614-5.88.641-3.052-2.724.081-6.237.081-6.237l11.64-13.341a5.8,5.8,0,0,1,3.025-1.844c1.24-.293,2.493-.442,2.493-.442l7.772.066a13.07,13.07,0,0,1,2.315.283,5.559,5.559,0,0,1,3.394,4.207,25.146,25.146,0,0,1-.076,7.8" transform="translate(-255.449 -92.243)" fill="#263238"/>
              <path id="Trazado_643336" data-name="Trazado 643336" d="M564.29,194.909a3.124,3.124,0,0,1,.047.646c.01.416,0,1.02-.042,1.763a46.805,46.805,0,0,1-.767,5.763c-.146.761-.3,1.493-.46,2.172l0-.024c-.068,1.732-.137,3.229-.2,4.293-.032.495-.058.909-.08,1.246a.227.227,0,1,1-.083,0c0-.338,0-.753.008-1.249.016-1.066.052-2.564.106-4.3v-.011l0-.013c.153-.674.3-1.406.448-2.164.424-2.222.706-4.253.838-5.729.067-.738.1-1.337.123-1.751a3.142,3.142,0,0,1,.051-.645" transform="translate(-287.453 -99.566)" fill="#455a64"/>
              <path id="Trazado_643337" data-name="Trazado 643337" d="M566.09,207.158a92.837,92.837,0,0,1,7.994,5.532,92.97,92.97,0,0,1-7.994-5.532" transform="translate(-289.179 -105.823)" fill="#455a64"/>
              <path id="Trazado_643338" data-name="Trazado 643338" d="M531.117,189.3c.006-.006.044.023.114.086a2.285,2.285,0,0,1,.277.3,3.353,3.353,0,0,1,.6,1.381,4.556,4.556,0,0,1-.126,2.234,9.107,9.107,0,0,1-1.251,2.43,8.735,8.735,0,0,1-.92,1.081c-.324.329-.67.6-.973.877-.616.552-1.148,1.077-1.587,1.524s-.786.819-1.026,1.076a2.421,2.421,0,0,1-.389.385,2.128,2.128,0,0,1,.315-.45c.218-.277.544-.669.969-1.135s.948-1.007,1.56-1.574c.306-.288.646-.561.954-.88a8.77,8.77,0,0,0,.89-1.054,9.331,9.331,0,0,0,1.234-2.352,4.534,4.534,0,0,0,.173-2.13,4.007,4.007,0,0,0-.817-1.8" transform="translate(-268.616 -96.701)" fill="#455a64"/>
              <path id="Trazado_643339" data-name="Trazado 643339" d="M531.326,226.458l.258-2.995h15.2l-.082,2.34Z" transform="translate(-271.42 -114.153)" fill="#455a64"/>
              <path id="Trazado_643340" data-name="Trazado 643340" d="M502.739,211.311c.028.038-.384.288-.843.88a4.052,4.052,0,0,0,.216,5.312c.505.553.936.769.911.809-.007.014-.121-.025-.311-.129a3.462,3.462,0,0,1-.73-.555,4.02,4.02,0,0,1-.226-5.551,3.462,3.462,0,0,1,.683-.612c.181-.119.291-.167.3-.154" transform="translate(-255.803 -107.944)" fill="#455a64"/>
              <path id="Trazado_643341" data-name="Trazado 643341" d="M557.939,398.1l1.724,4.011-7.716-.091-.163-4.089Z" transform="translate(-281.871 -203.275)" fill="#196442"/>
              <path id="Trazado_643342" data-name="Trazado 643342" d="M552,404.741a7.042,7.042,0,0,0,1.081.055c.668.011,1.591.008,2.609-.008l2.6-.054a8.118,8.118,0,0,0,1.08-.054,7.081,7.081,0,0,0-1.081-.053c-.668-.011-1.591-.007-2.609.009l-2.6.053a8.158,8.158,0,0,0-1.079.052" transform="translate(-281.982 -206.695)" fill="#263238"/>
              <path id="Trazado_643343" data-name="Trazado 643343" d="M558.513,398.094a10.84,10.84,0,0,0,.179,3.241,10.834,10.834,0,0,0-.179-3.241" transform="translate(-285.277 -203.361)" fill="#263238"/>
              <g id="Grupo_1075265" data-name="Grupo 1075265" transform="translate(270.019 197.926)" opacity="0.6">
                <g id="Grupo_1075264" data-name="Grupo 1075264">
                  <g id="Grupo_1075263" data-name="Grupo 1075263" clip-path="url(#clip-path-9)">
                    <path id="Trazado_643344" data-name="Trazado 643344" d="M559.762,405.61l-7.712-.258L552,404.62l7.373.063.39.84" transform="translate(-552.001 -404.62)" fill="#fff"/>
                  </g>
                </g>
              </g>
              <path id="Trazado_643345" data-name="Trazado 643345" d="M529.322,234.851c5.8,18.319-1.679,40.557.116,61.9.176,2.1,1.028,4.606-.934,5.8a3.2,3.2,0,0,1-1.769.432c-1.568-.051-2.877-.864-4.275-1.423a12.7,12.7,0,0,0-8.413-.326c-1.852.578-3.689,1.6-5.607,1.308-2.547-.385-4.2-2.9-6.543-3.97-2.2-1-4.731-.626-7.142-.686l-.072,0a5.41,5.41,0,0,1-5-6.851c3.5-12.833,15.125-54.522,20.269-62.133l15.379-.655a22.378,22.378,0,0,1,3.988,6.6" transform="translate(-250.05 -116.596)" fill="#196442"/>
              <path id="Trazado_643346" data-name="Trazado 643346" d="M552.584,259.377a6.848,6.848,0,0,1-.836,1.052,24.069,24.069,0,0,1-2.271,2.321,15.234,15.234,0,0,1-2.679,1.843,5.884,5.884,0,0,1-1.221.565,38.014,38.014,0,0,0,3.733-2.6c.945-.824,1.725-1.66,2.3-2.25a7.2,7.2,0,0,1,.969-.929" transform="translate(-278.7 -132.498)" fill="#263238"/>
              <g id="Grupo_1075268" data-name="Grupo 1075268" transform="translate(258.019 133.791)" opacity="0.1">
                <g id="Grupo_1075267" data-name="Grupo 1075267">
                  <g id="Grupo_1075266" data-name="Grupo 1075266" clip-path="url(#clip-path-10)">
                    <path id="Trazado_643347" data-name="Trazado 643347" d="M536.543,273.51a65.524,65.524,0,0,0-2.576,39.211c.275,1.12.557,2.393-.08,3.353-.826,1.244-2.824,1.158-3.954.182a6.783,6.783,0,0,1-1.865-3.978c-2.111-10.929,1.713-21.912,5.844-32.249" transform="translate(-527.468 -273.51)"/>
                  </g>
                </g>
              </g>
            </g>
          </g>
          <rect id="Rectángulo_379985" data-name="Rectángulo 379985" width="29.147" height="1.418" transform="translate(150.718 139.965)" fill="#263238"/>
          <path id="Trazado_643348" data-name="Trazado 643348" d="M293.17,267.633,287.7,247.145h22.759l4.951,20.488Z" transform="translate(-146.969 -126.251)" fill="#263238"/>
          <path id="Trazado_643349" data-name="Trazado 643349" d="M315.387,267.072H295.055l-4.733-17.99h20.436Z" transform="translate(-148.307 -127.24)" fill="#f5f5f5"/>
          <path id="Trazado_643350" data-name="Trazado 643350" d="M290.663,250.375H311.1l-.344-1.293H290.323Z" transform="translate(-148.308 -127.24)" fill="#ebebeb"/>
          <g id="Grupo_1075287" data-name="Grupo 1075287">
            <g id="Grupo_1075286" data-name="Grupo 1075286" clip-path="url(#clip-path-2)">
              <path id="Trazado_643351" data-name="Trazado 643351" d="M295.531,250.17a.223.223,0,1,0,.224-.223.223.223,0,0,0-.224.223" transform="translate(-150.968 -127.682)" fill="#fafafa"/>
              <path id="Trazado_643352" data-name="Trazado 643352" d="M293.958,250.17a.223.223,0,1,0,.224-.223.223.223,0,0,0-.224.223" transform="translate(-150.164 -127.682)" fill="#fafafa"/>
              <path id="Trazado_643353" data-name="Trazado 643353" d="M292.387,250.17a.223.223,0,1,0,.223-.223.223.223,0,0,0-.223.223" transform="translate(-149.362 -127.682)" fill="#fafafa"/>
              <path id="Trazado_643354" data-name="Trazado 643354" d="M318.646,264.431l2.238,2.561a3.163,3.163,0,0,0,1.375-2.575,3.631,3.631,0,0,0-7.225.028Z" transform="translate(-160.931 -133.413)" fill="#196442"/>
              <path id="Trazado_643355" data-name="Trazado 643355" d="M318.047,268.618a5.092,5.092,0,0,1,.638.64c.4.429.971,1.055,1.655,1.82l.077.087-.1.072a3.875,3.875,0,0,1-3.774.37A3.7,3.7,0,0,1,315,270.359a3.181,3.181,0,0,1-.576-1.681l0-.113h.112c1.071-.005,1.958,0,2.573.009a5.5,5.5,0,0,1,.947.046,6.634,6.634,0,0,1-.985.076c-.617.029-1.489.061-2.531.088l.108-.114a3.011,3.011,0,0,0,.558,1.549,3.5,3.5,0,0,0,1.454,1.156,3.711,3.711,0,0,0,3.547-.313l-.019.159c-.648-.759-1.183-1.4-1.556-1.854a6.21,6.21,0,0,1-.575-.747" transform="translate(-160.614 -137.191)" fill="#263238"/>
              <path id="Trazado_643356" data-name="Trazado 643356" d="M318.85,263.678a.2.2,0,1,0,.2-.2.2.2,0,0,0-.2.2" transform="translate(-162.88 -134.592)" fill="#263238"/>
              <path id="Trazado_643357" data-name="Trazado 643357" d="M310.619,260.749a11.589,11.589,0,0,1,2.418-.137h.376l.036.037a9.5,9.5,0,0,1,1.4,1.566,9.565,9.565,0,0,1-1.577-1.387l.089.037-.322,0a11.57,11.57,0,0,1-2.419-.118" transform="translate(-158.675 -133.13)" fill="#263238"/>
              <path id="Trazado_643358" data-name="Trazado 643358" d="M300.417,262.212a7.545,7.545,0,0,1-.231-.944c-.137-.621-.331-1.529-.554-2.641l-.024-.122h.126l5.058-.044.126.1h0v.012l0,.015.005.03.012.061.022.121.045.24q.045.239.09.475.088.47.173.924l.318,1.727.025.137h-.138c-1.519,0-2.8-.022-3.686-.04l-1.026-.027a1.458,1.458,0,0,1-.347-.028,2.292,2.292,0,0,1,.391-.031l1.049-.036c.894-.025,2.145-.053,3.618-.069l-.113.137c-.106-.545-.219-1.122-.336-1.723l-.178-.923-.09-.474-.046-.24-.023-.121-.011-.061-.006-.03,0-.015v-.012h0c-.113-.093.153.125.125.1l-5.058,0,.1-.123c.192,1.075.34,1.969.44,2.6a9.822,9.822,0,0,1,.141,1.02" transform="translate(-153.05 -132.03)" fill="#263238"/>
              <path id="Trazado_643359" data-name="Trazado 643359" d="M318.235,272a.2.2,0,1,0,.2-.2.2.2,0,0,0-.2.2" transform="translate(-162.566 -138.846)" fill="#263238"/>
              <path id="Trazado_643360" data-name="Trazado 643360" d="M311.136,272.1a13.337,13.337,0,0,1,3.675-.015,13.29,13.29,0,0,1-3.675.015" transform="translate(-158.939 -138.932)" fill="#263238"/>
              <path id="Trazado_643361" data-name="Trazado 643361" d="M300.459,272.568a4.181,4.181,0,0,1-.222-.676c-.134-.451-.325-1.117-.55-1.947l-.032-.117.124,0c1.378-.025,3.21-.044,5.216-.052l.124.1h0v.008l0,.011.005.022.011.044.023.088.044.173.088.345.172.675.323,1.281.038.15h-.153c-1.547,0-2.866-.021-3.786-.039l-1.067-.029a1.41,1.41,0,0,1-.363-.031,2.387,2.387,0,0,1,.409-.033l1.089-.038c.925-.026,2.215-.054,3.718-.069l-.115.15c-.107-.409-.219-.837-.334-1.278q-.087-.332-.175-.675l-.089-.344-.044-.174-.022-.087-.011-.044-.005-.022,0-.011v-.008h0l.124.1c-2.007.008-3.839,0-5.216-.011l.092-.12c.193.8.341,1.458.443,1.923a5.8,5.8,0,0,1,.143.747" transform="translate(-153.074 -137.799)" fill="#263238"/>
              <path id="Trazado_643362" data-name="Trazado 643362" d="M302.082,260.881a11.834,11.834,0,0,1,3.46-.014,11.831,11.831,0,0,1-3.46.014" transform="translate(-154.314 -133.199)" fill="#263238"/>
              <path id="Trazado_643363" data-name="Trazado 643363" d="M302.169,262.039a11.975,11.975,0,0,1,3.481-.014,11.975,11.975,0,0,1-3.481.014" transform="translate(-154.359 -133.79)" fill="#263238"/>
              <path id="Trazado_643364" data-name="Trazado 643364" d="M302.38,263.156a11.137,11.137,0,0,1,3.36-.013,11.137,11.137,0,0,1-3.36.013" transform="translate(-154.466 -134.361)" fill="#263238"/>
              <path id="Trazado_643365" data-name="Trazado 643365" d="M302.291,272.011a10.743,10.743,0,0,1,3.3-.013,10.741,10.741,0,0,1-3.3.013" transform="translate(-154.421 -138.884)" fill="#263238"/>
              <path id="Trazado_643366" data-name="Trazado 643366" d="M302.71,273.293a7.828,7.828,0,0,1,2.813-.011,7.828,7.828,0,0,1-2.813.011" transform="translate(-154.635 -139.54)" fill="#263238"/>
              <path id="Trazado_643367" data-name="Trazado 643367" d="M237.549,288.892v2.687h1.76v54.4h3.61v-54.4H262.08v54.4h3.611v-54.4h83.124v54.387h3.611V291.579h1.562v-2.687Z" transform="translate(-121.348 -147.576)" fill="#263238"/>
              <path id="Trazado_643368" data-name="Trazado 643368" d="M397.586,330.228a28.068,28.068,0,0,0,4.7,0,27.93,27.93,0,0,0-4.7,0" transform="translate(-203.101 -168.642)" fill="#263238"/>
              <path id="Trazado_643369" data-name="Trazado 643369" d="M327.547,331.335c-.07,0-.127-.028-.127-.063s.057-.062.127-.062.127.028.127.062-.057.063-.127.063" transform="translate(-167.258 -169.194)" fill="#455a64"/>
              <path id="Trazado_643370" data-name="Trazado 643370" d="M353.3,210.778l-13.485-13.7-.292-1.483c-.056-.271-.112-.574-.165-.919a3.65,3.65,0,0,1,.021-1.207,5.473,5.473,0,0,1,.416-1.436c.227-.4-.137-.875-.512-.712a3.824,3.824,0,0,0-1.169,2.721c-.14,1.48-1.4-.483-1.876-1.191s-2.034-2.826-2.36-2.851c-.477-.037-.6.481-.112,1.176s1.809,2.884,1.435,3.118l-.014,0a1.764,1.764,0,0,0-1.863.924c-.34.654-.72,1.58-.409,2.008a24.268,24.268,0,0,0,2.15,2.278l.452.388s11.667,16.9,14.209,17.454c1.582.342,26.03,2.37,26.03,2.37l1.844-6.736Z" transform="translate(-170.008 -97.058)" fill="#b78876"/>
              <path id="Trazado_643371" data-name="Trazado 643371" d="M332.826,203.2l1.247,1.2a1.491,1.491,0,0,0,.47.345.448.448,0,0,0,.618-.589,1.481,1.481,0,0,0-.287-.444l-1.212-1.457" transform="translate(-170.019 -103.319)" fill="#b78876"/>
              <path id="Trazado_643372" data-name="Trazado 643372" d="M333.661,202.252c.027-.023.261.209.618.6l.617.7a2.313,2.313,0,0,1,.344.466.66.66,0,0,1-.034.693.611.611,0,0,1-.682.157,1.378,1.378,0,0,1-.489-.344l-.653-.665a2.95,2.95,0,0,1-.557-.659,2.932,2.932,0,0,1,.681.529l.69.625a1.215,1.215,0,0,0,.408.278.371.371,0,0,0,.4-.078.424.424,0,0,0,.008-.428,2.266,2.266,0,0,0-.3-.423l-.575-.733a2.931,2.931,0,0,1-.479-.717" transform="translate(-170.018 -103.317)" fill="#aa6550"/>
              <path id="Trazado_643373" data-name="Trazado 643373" d="M334.636,201.418l1.247,1.2a1.49,1.49,0,0,0,.47.345.448.448,0,0,0,.618-.589,1.476,1.476,0,0,0-.287-.443l-1.212-1.458" transform="translate(-170.944 -102.408)" fill="#b78876"/>
              <path id="Trazado_643374" data-name="Trazado 643374" d="M335.471,200.469c.027-.022.261.209.618.6l.617.7a2.314,2.314,0,0,1,.344.466.66.66,0,0,1-.034.693.611.611,0,0,1-.682.157,1.383,1.383,0,0,1-.489-.344l-.653-.665a2.952,2.952,0,0,1-.557-.659,2.929,2.929,0,0,1,.681.529l.69.625a1.214,1.214,0,0,0,.408.278.371.371,0,0,0,.4-.078.422.422,0,0,0,.008-.428,2.283,2.283,0,0,0-.3-.423l-.575-.733a2.929,2.929,0,0,1-.479-.717" transform="translate(-170.942 -102.406)" fill="#aa6550"/>
              <path id="Trazado_643375" data-name="Trazado 643375" d="M336.622,199.957l1.247,1.2a1.491,1.491,0,0,0,.47.345.448.448,0,0,0,.618-.589,1.479,1.479,0,0,0-.287-.444l-1.212-1.457" transform="translate(-171.959 -101.661)" fill="#b78876"/>
              <path id="Trazado_643376" data-name="Trazado 643376" d="M337.457,199.008c.027-.022.261.209.618.6l.617.7a2.313,2.313,0,0,1,.344.466.66.66,0,0,1-.034.693.611.611,0,0,1-.682.157,1.377,1.377,0,0,1-.489-.344l-.653-.665a2.951,2.951,0,0,1-.557-.659,2.929,2.929,0,0,1,.681.529l.69.625a1.214,1.214,0,0,0,.408.278.37.37,0,0,0,.4-.078.424.424,0,0,0,.008-.428,2.306,2.306,0,0,0-.3-.423l-.575-.733a2.93,2.93,0,0,1-.479-.717" transform="translate(-171.957 -101.66)" fill="#aa6550"/>
              <path id="Trazado_643377" data-name="Trazado 643377" d="M340.653,203.06c0-.04.309-.1.76.036l-.144.123a2.142,2.142,0,0,1-.032-.857,2.184,2.184,0,0,1,.468-1.042c.192-.225.355-.313.375-.289a4.464,4.464,0,0,0-.59,1.373,2.538,2.538,0,0,0-.007.773l.026.2-.17-.072c-.39-.166-.687-.189-.685-.239" transform="translate(-174.018 -102.691)" fill="#aa6550"/>
              <path id="Trazado_643378" data-name="Trazado 643378" d="M398.089,188.078l.058,18.767-7.318.349-.3-4.5s-3.53.536-4.268-2.12c-.472-1.7-.354-14.808-.354-14.808Z" transform="translate(-197.131 -94.897)" fill="#b78876"/>
              <path id="Trazado_643379" data-name="Trazado 643379" d="M381.881,184.546c.542,1.121,3.125,3.173,3.125,3.173l1.167,3.127c1.013-.793,2.374-.748,2.631,1.033.186,1.286-1.414,1.547-1.414,1.547a23.332,23.332,0,0,0,2.919,4.375,4.32,4.32,0,0,0,3.882,1.823h1.755s3.591-3,2.882-10.906-7.816-5.6-9.512-7.573c-2.763-3.216-9.245-.341-7.434,3.4" transform="translate(-194.918 -91.824)" fill="#263238"/>
              <path id="Trazado_643380" data-name="Trazado 643380" d="M398.83,198.478a2.524,2.524,0,0,1-.869-.04,4.519,4.519,0,0,1-2.1-1.079,11.4,11.4,0,0,1-2.12-2.8,10.1,10.1,0,0,0-2.689-3.289A10.78,10.78,0,0,0,387,189.981a7.653,7.653,0,0,1-3.274-1.246,3.514,3.514,0,0,1-1.311-1.943,2.017,2.017,0,0,1-.036-.868,2.988,2.988,0,0,0,.074.858,3.518,3.518,0,0,0,1.317,1.9,7.654,7.654,0,0,0,3.248,1.211,10.757,10.757,0,0,1,4.093,1.3,10.09,10.09,0,0,1,2.712,3.325,11.507,11.507,0,0,0,2.086,2.8,4.561,4.561,0,0,0,2.057,1.094,3.606,3.606,0,0,0,.636.075c.147,0,.225,0,.225,0" transform="translate(-195.319 -94.977)" fill="#455a64"/>
              <path id="Trazado_643381" data-name="Trazado 643381" d="M399.34,190.958s-.131-.038-.378-.114a5.722,5.722,0,0,0-1.1-.245,2.471,2.471,0,0,0-1.695.38,1.39,1.39,0,0,0-.589.89,1.237,1.237,0,0,0,.341,1.12.946.946,0,0,0,.591.235,1.249,1.249,0,0,0,.652-.178,2,2,0,0,0,.885-1.13,2.8,2.8,0,0,0-2.361-3.673,4.907,4.907,0,0,0-1.819.239,12.781,12.781,0,0,1-1.882.452,7.659,7.659,0,0,1-2,0,6.6,6.6,0,0,1-1.925-.533,2.327,2.327,0,0,1-1.317-1.389,1.816,1.816,0,0,1,.448-1.773,1.564,1.564,0,0,1,1.719-.254,1.314,1.314,0,0,1,.637.6,1.439,1.439,0,0,1,.135.841,1.914,1.914,0,0,1-.856,1.341,2.749,2.749,0,0,1-1.446.4,4.247,4.247,0,0,1-1.371-.211A4.905,4.905,0,0,1,384,186.72a5.158,5.158,0,0,1-1.029-1.468,5.212,5.212,0,0,1-.364-1.075c-.044-.256-.061-.391-.061-.391s.031.133.081.386a5.524,5.524,0,0,0,.38,1.062,5.177,5.177,0,0,0,1.033,1.445,4.871,4.871,0,0,0,2,1.214,4.2,4.2,0,0,0,1.348.2,2.675,2.675,0,0,0,1.4-.395,1.828,1.828,0,0,0,.813-1.282,1.257,1.257,0,0,0-.723-1.345,1.467,1.467,0,0,0-1.612.239,1.72,1.72,0,0,0-.419,1.675,2.231,2.231,0,0,0,1.266,1.325,6.518,6.518,0,0,0,1.894.524,7.564,7.564,0,0,0,1.97,0,12.858,12.858,0,0,0,1.87-.448,4.993,4.993,0,0,1,1.855-.24,2.891,2.891,0,0,1,2.431,3.8,2.083,2.083,0,0,1-.926,1.171,1.321,1.321,0,0,1-.693.185,1.017,1.017,0,0,1-.637-.257,1.3,1.3,0,0,1-.357-1.184,1.447,1.447,0,0,1,.62-.925,2.5,2.5,0,0,1,1.732-.372,5.383,5.383,0,0,1,1.1.265c.246.083.372.134.372.134" transform="translate(-195.416 -93.885)" fill="#455a64"/>
              <path id="Trazado_643382" data-name="Trazado 643382" d="M394.887,388.307l-2.392-3.069,5.719-4.517,3.547,4.452-.337.3c-1.509,1.334-7.767,6.677-9.074,7.19-1.459.572,2.537-4.36,2.537-4.36" transform="translate(-200.263 -194.486)" fill="#11462e"/>
              <g id="Grupo_1075273" data-name="Grupo 1075273" transform="translate(191.77 190.568)" opacity="0.4">
                <g id="Grupo_1075272" data-name="Grupo 1075272">
                  <g id="Grupo_1075271" data-name="Grupo 1075271" clip-path="url(#clip-path-12)">
                    <path id="Trazado_643383" data-name="Trazado 643383" d="M393,395.326s-1.315,1.836-.881,1.949,6.961-5.049,9.641-7.577l-.111-.12-7.562,6.085s-.744-.586-1.087-.337" transform="translate(-392.035 -389.578)" fill="#fff"/>
                  </g>
                </g>
              </g>
              <path id="Trazado_643384" data-name="Trazado 643384" d="M401.752,389.425a.643.643,0,0,1-.09.089l-.268.24-1,.866c-.853.725-2.044,1.712-3.383,2.773s-2.573,1.994-3.475,2.658l-1.073.779-.3.206a.633.633,0,0,1-.107.067.684.684,0,0,1,.1-.082l.286-.22,1.056-.8c.892-.676,2.119-1.617,3.457-2.677s2.535-2.038,3.4-2.752l1.021-.845.28-.227a.672.672,0,0,1,.1-.075" transform="translate(-200.277 -198.932)" fill="#263238"/>
              <path id="Trazado_643385" data-name="Trazado 643385" d="M395.075,401.669a1.925,1.925,0,0,0-1.255-.46,1.177,1.177,0,0,1,1.255.46" transform="translate(-201.177 -204.929)" fill="#263238"/>
              <path id="Trazado_643386" data-name="Trazado 643386" d="M397.742,397.465a.767.767,0,0,1-.354-.077c-.187-.066-.333-.137-.325-.16a.762.762,0,0,1,.354.077c.187.065.332.137.324.16" transform="translate(-202.834 -202.915)" fill="#263238"/>
              <path id="Trazado_643387" data-name="Trazado 643387" d="M398.365,396.4c0,.024-.139.036-.308.025s-.3-.039-.3-.064.139-.035.308-.024.3.039.3.063" transform="translate(-203.187 -202.462)" fill="#263238"/>
              <path id="Trazado_643388" data-name="Trazado 643388" d="M398.108,394.893c.015.019-.1.141-.268.274s-.309.224-.324.205.1-.141.268-.274.309-.224.324-.2" transform="translate(-203.065 -201.724)" fill="#263238"/>
              <path id="Trazado_643389" data-name="Trazado 643389" d="M397.653,393.954a1.071,1.071,0,0,1-.636.586c-.012-.023.148-.131.32-.291s.295-.309.316-.295" transform="translate(-202.81 -201.245)" fill="#263238"/>
              <path id="Trazado_643390" data-name="Trazado 643390" d="M395.815,396.883a1.359,1.359,0,0,1-.369.288,2.721,2.721,0,0,1-.459.223,1.331,1.331,0,0,1-.3.085.251.251,0,0,1-.181-.042.183.183,0,0,1-.06-.191.859.859,0,0,1,.989-.462.842.842,0,0,1,.314.15c.064.051.092.088.088.092a1.323,1.323,0,0,0-.415-.181.844.844,0,0,0-.475.044.726.726,0,0,0-.414.376c-.024.089.053.14.148.127a1.428,1.428,0,0,0,.276-.075,3.232,3.232,0,0,0,.456-.2c.251-.135.391-.245.4-.234" transform="translate(-201.495 -202.678)" fill="#263238"/>
              <path id="Trazado_643391" data-name="Trazado 643391" d="M396.712,396.14c0,.008-.131-.043-.244-.222a.771.771,0,0,1-.112-.348.47.47,0,0,1,.158-.429.186.186,0,0,1,.247.08.5.5,0,0,1,.067.213,1.4,1.4,0,0,1,0,.359.674.674,0,0,1-.093.315c-.013,0,.021-.124.03-.32a1.65,1.65,0,0,0-.02-.342c-.011-.117-.087-.284-.192-.228s-.12.229-.119.347a.776.776,0,0,0,.085.321,1.661,1.661,0,0,0,.19.252" transform="translate(-202.473 -201.841)" fill="#263238"/>
              <path id="Trazado_643392" data-name="Trazado 643392" d="M407.884,386.416c.009.014-.176.114-.41.349a2.283,2.283,0,0,0-.554,2.377c.107.314.228.485.214.494a.428.428,0,0,1-.091-.115,1.91,1.91,0,0,1-.181-.358,2.214,2.214,0,0,1,.569-2.443,1.892,1.892,0,0,1,.32-.241.428.428,0,0,1,.133-.063" transform="translate(-207.762 -197.395)" fill="#263238"/>
              <path id="Trazado_643393" data-name="Trazado 643393" d="M404.052,382.511a25.4,25.4,0,0,1,1.888,2.326,25.435,25.435,0,0,1-1.888-2.326" transform="translate(-206.404 -195.4)" fill="#263238"/>
              <path id="Trazado_643394" data-name="Trazado 643394" d="M403.508,393.1a6,6,0,0,1-1.659,1.337c-.014-.022.378-.294.834-.663s.806-.692.825-.674" transform="translate(-205.279 -200.811)" fill="#263238"/>
              <path id="Trazado_643395" data-name="Trazado 643395" d="M407.488,391.289c.025,0,.032.1.062.219s.069.208.048.223-.1-.067-.134-.2,0-.245.024-.241" transform="translate(-208.14 -199.884)" fill="#263238"/>
              <path id="Trazado_643396" data-name="Trazado 643396" d="M407.469,389.533c.024,0,.034.091.023.2s-.041.191-.065.188-.034-.091-.022-.2.041-.191.065-.188" transform="translate(-208.114 -198.987)" fill="#263238"/>
              <path id="Trazado_643397" data-name="Trazado 643397" d="M408.121,388.058c.011.022-.065.082-.126.178s-.086.188-.111.187-.04-.118.037-.235.192-.153.2-.13" transform="translate(-208.352 -198.231)" fill="#263238"/>
              <path id="Trazado_643398" data-name="Trazado 643398" d="M408.949,387.135c.021.012.011.068-.021.124s-.077.091-.1.079-.012-.068.022-.124.076-.091.1-.079" transform="translate(-208.839 -197.761)" fill="#263238"/>
              <g id="Grupo_1075276" data-name="Grupo 1075276" transform="translate(193.672 188.476)" opacity="0.3">
                <g id="Grupo_1075275" data-name="Grupo 1075275">
                  <g id="Grupo_1075274" data-name="Grupo 1075274" clip-path="url(#clip-path-13)">
                    <path id="Trazado_643399" data-name="Trazado 643399" d="M402.245,385.7l-5.786,4.421-.535-.7L402,385.3Z" transform="translate(-395.924 -385.303)"/>
                  </g>
                </g>
              </g>
              <path id="Trazado_643400" data-name="Trazado 643400" d="M338.962,398.437l.011-3.891,7.288-.026.045,5.692-.452.031c-2.011.119-10.232.464-11.578.061-1.5-.45,4.686-1.867,4.686-1.867" transform="translate(-170.64 -201.535)" fill="#196442"/>
              <g id="Grupo_1075279" data-name="Grupo 1075279" transform="translate(163.38 197.703)" opacity="0.4">
                <g id="Grupo_1075278" data-name="Grupo 1075278">
                  <g id="Grupo_1075277" data-name="Grupo 1075277" clip-path="url(#clip-path-14)">
                    <path id="Trazado_643401" data-name="Trazado 643401" d="M335.917,404.164s-2.168.634-1.9.991,8.593.321,12.262-.016l-.012-.162-9.706.124s-.224-.92-.648-.936" transform="translate(-333.998 -404.164)" fill="#fff"/>
                  </g>
                </g>
              </g>
              <path id="Trazado_643402" data-name="Trazado 643402" d="M346.407,405.809a.69.69,0,0,1-.125.014l-.36.023-1.324.063c-1.119.045-2.665.087-4.373.1s-3.255-.018-4.375-.052l-1.325-.049-.36-.02a.687.687,0,0,1-.125-.013.712.712,0,0,1,.126,0l.361,0,1.325.022c1.119.018,2.665.034,4.373.025s3.253-.041,4.372-.07l1.325-.035.36-.006a.712.712,0,0,1,.126,0" transform="translate(-170.64 -207.3)" fill="#263238"/>
              <path id="Trazado_643403" data-name="Trazado 643403" d="M338.516,405.12a1.92,1.92,0,0,0-.7-1.136,1.177,1.177,0,0,1,.7,1.136" transform="translate(-172.566 -206.368)" fill="#263238"/>
              <path id="Trazado_643404" data-name="Trazado 643404" d="M343.23,403.427c-.021.013-.124-.112-.231-.279s-.177-.313-.156-.326.124.112.231.279.177.313.157.326" transform="translate(-175.134 -205.775)" fill="#263238"/>
              <path id="Trazado_643405" data-name="Trazado 643405" d="M344.363,402.99c-.016.018-.132-.058-.258-.17s-.215-.218-.2-.236.132.058.257.17.215.218.2.236" transform="translate(-175.679 -205.653)" fill="#263238"/>
              <path id="Trazado_643406" data-name="Trazado 643406" d="M344.8,401.967a1.666,1.666,0,1,1-.382-.038.853.853,0,0,1,.382.038" transform="translate(-175.749 -205.319)" fill="#263238"/>
              <path id="Trazado_643407" data-name="Trazado 643407" d="M344.955,401.008a1.07,1.07,0,0,1-.862.068,2.4,2.4,0,0,1,.431-.031,2.33,2.33,0,0,1,.431-.037" transform="translate(-175.775 -204.845)" fill="#263238"/>
              <path id="Trazado_643408" data-name="Trazado 643408" d="M341.692,402.082a1.351,1.351,0,0,1-.469,0,2.719,2.719,0,0,1-.5-.108,1.383,1.383,0,0,1-.286-.116.251.251,0,0,1-.116-.145.183.183,0,0,1,.07-.187.859.859,0,0,1,1.063.247.839.839,0,0,1,.155.312.26.26,0,0,1,.012.126,1.313,1.313,0,0,0-.215-.4.841.841,0,0,0-.4-.258.726.726,0,0,0-.558.04c-.074.055-.045.143.038.192a1.41,1.41,0,0,0,.264.112,3.268,3.268,0,0,0,.483.123c.281.048.459.048.459.063" transform="translate(-173.846 -205.065)" fill="#263238"/>
              <path id="Trazado_643409" data-name="Trazado 643409" d="M342.818,401.863a.46.46,0,0,1-.055-.325.769.769,0,0,1,.126-.343.469.469,0,0,1,.389-.24.186.186,0,0,1,.145.216.508.508,0,0,1-.079.209,1.405,1.405,0,0,1-.22.284.67.67,0,0,1-.268.191c-.008-.011.093-.084.222-.233a1.634,1.634,0,0,0,.195-.282c.064-.1.107-.277-.01-.3s-.236.106-.308.2a.775.775,0,0,0-.131.305,1.752,1.752,0,0,0-.006.315" transform="translate(-175.093 -204.822)" fill="#263238"/>
              <path id="Trazado_643410" data-name="Trazado 643410" d="M356.3,401.689c0,.017-.209-.019-.538.022a2.282,2.282,0,0,0-1.9,1.53c-.11.313-.12.523-.137.52a.444.444,0,0,1,0-.147,1.884,1.884,0,0,1,.078-.393,2.216,2.216,0,0,1,1.955-1.573,1.951,1.951,0,0,1,.4.009.414.414,0,0,1,.143.032" transform="translate(-180.694 -205.173)" fill="#263238"/>
              <path id="Trazado_643411" data-name="Trazado 643411" d="M357.4,395.545a25.479,25.479,0,0,1,.051,2.995,25.5,25.5,0,0,1-.051-2.995" transform="translate(-182.561 -202.059)" fill="#263238"/>
              <path id="Trazado_643412" data-name="Trazado 643412" d="M349.606,404.606a5.993,5.993,0,0,1-2.13.029c0-.025.478,0,1.065-.007s1.061-.047,1.064-.022" transform="translate(-177.503 -206.683)" fill="#263238"/>
              <path id="Trazado_643413" data-name="Trazado 643413" d="M354.534,404.6c.018.018-.039.1-.087.21s-.074.206-.1.205-.038-.115.019-.241.152-.192.167-.174" transform="translate(-181.003 -206.68)" fill="#263238"/>
              <path id="Trazado_643414" data-name="Trazado 643414" d="M355.556,403.22c.018.017-.029.093-.1.17s-.15.125-.168.108.029-.093.1-.17.15-.125.167-.108" transform="translate(-181.49 -205.978)" fill="#263238"/>
              <path id="Trazado_643415" data-name="Trazado 643415" d="M356.982,402.548c0,.025-.1.024-.209.063s-.183.1-.2.079.042-.117.175-.162.245,0,.237.021" transform="translate(-182.147 -205.615)" fill="#263238"/>
              <path id="Trazado_643416" data-name="Trazado 643416" d="M358.306,402.274c.009.023-.033.06-.093.084s-.117.024-.126,0,.033-.06.093-.084.117-.024.126,0" transform="translate(-182.923 -205.487)" fill="#263238"/>
              <g id="Grupo_1075282" data-name="Grupo 1075282" transform="translate(168.318 195.305)" opacity="0.3">
                <g id="Grupo_1075281" data-name="Grupo 1075281">
                  <g id="Grupo_1075280" data-name="Grupo 1075280" clip-path="url(#clip-path-15)">
                    <path id="Trazado_643417" data-name="Trazado 643417" d="M351.441,400.181l-7.347.007.008-.878,7.312-.048Z" transform="translate(-344.094 -399.263)" fill="#11462e"/>
                  </g>
                </g>
              </g>
              <path id="Trazado_643418" data-name="Trazado 643418" d="M355.277,261.881l-2.918,8.788c-.788,2.373-2.862,2.779-5.362,2.779H330.763v-3.642l14.831-2.118,3.535-9.029Z" transform="translate(-168.966 -132.133)" fill="#b78876"/>
              <path id="Trazado_643419" data-name="Trazado 643419" d="M318.643,276.57l-1.288-.61s-1.388-2.684-1.708-2.576-.411.9.146,2.13l-1.712-.489s-3.71,1.714-3.546,1.945a.857.857,0,0,0,1.276.365c.808-.413,1.867-.9,1.867-.9l2,.571-2.578.327-2.424,2.206a1.186,1.186,0,0,0,1.482-.037l6.3,1.353,1.972.112v-3.642Z" transform="translate(-158.63 -139.653)" fill="#b78876"/>
              <path id="Trazado_643420" data-name="Trazado 643420" d="M313.856,284.55c.027.018.144-.169.371-.416a1.91,1.91,0,0,1,.458-.354,1.877,1.877,0,0,1,.68-.178,9.413,9.413,0,0,0,1.89-.323,9.385,9.385,0,0,0-1.914.127,1.859,1.859,0,0,0-.746.216,1.751,1.751,0,0,0-.473.421,1.126,1.126,0,0,0-.265.507" transform="translate(-160.327 -144.699)" fill="#aa6550"/>
              <path id="Trazado_643421" data-name="Trazado 643421" d="M315.848,285.911c.024,0,.044-.13.22-.168s.467-.067.765-.1a6.222,6.222,0,0,0,1.107-.112,2.218,2.218,0,0,0-1.127-.084,3.373,3.373,0,0,0-.792.162.319.319,0,0,0-.191.2c-.016.068.006.1.018.1" transform="translate(-161.334 -145.807)" fill="#aa6550"/>
              <path id="Trazado_643422" data-name="Trazado 643422" d="M374.112,242.727l-1.248,4.229-7.923-3.587c.285-.885,1.6-4.83,4.1-11.088a10.76,10.76,0,0,1,8.213-6.62,46.981,46.981,0,0,1,7.586-.744c4.443.049,10.984,2.826,11.863,7.181.671,3.325.024,9.194.024,16.326l-.58,13.627-22.769.772Z" transform="translate(-186.424 -114.895)" fill="#6fd9fb"/>
              <g id="Grupo_1075285" data-name="Grupo 1075285" transform="translate(193.402 130.123)" opacity="0.3">
                <g id="Grupo_1075284" data-name="Grupo 1075284">
                  <g id="Grupo_1075283" data-name="Grupo 1075283" clip-path="url(#clip-path-16)">
                    <path id="Trazado_643423" data-name="Trazado 643423" d="M412.253,266.264c-2.771.566-5.616,0-8.439-.172-1.712-.1-3.611-.287-4.964.766a6.066,6.066,0,0,0-1.815,3.561,67.915,67.915,0,0,0-1.661,13.6l13.705.831Z" transform="translate(-395.373 -266.011)"/>
                  </g>
                </g>
              </g>
              <path id="Trazado_643424" data-name="Trazado 643424" d="M382.5,231.089c0,.02.228.034.606.182a3.159,3.159,0,0,1,1.311,1.061,4.423,4.423,0,0,1,.784,2.372,14.929,14.929,0,0,1-.24,3.121,52.258,52.258,0,0,1-1.272,5.581c-.187.683-.342,1.248-.46,1.676a3.921,3.921,0,0,0-.146.622,4.042,4.042,0,0,0,.22-.6c.128-.39.309-.956.52-1.66a43.365,43.365,0,0,0,1.333-5.589,14.426,14.426,0,0,0,.226-3.165,4.474,4.474,0,0,0-.854-2.443,3.1,3.1,0,0,0-1.4-1.05,2.29,2.29,0,0,0-.466-.106.519.519,0,0,0-.166,0" transform="translate(-195.393 -118.046)" fill="#263238"/>
              <path id="Trazado_643425" data-name="Trazado 643425" d="M365.446,260.432a7.668,7.668,0,0,0,1.116.64c.7.368,1.689.854,2.793,1.353s2.122.915,2.864,1.2a7.669,7.669,0,0,0,1.219.413,8.993,8.993,0,0,0-1.166-.542c-.727-.316-1.732-.752-2.835-1.249s-2.094-.962-2.813-1.3a9.138,9.138,0,0,0-1.178-.515" transform="translate(-186.683 -133.037)" fill="#263238"/>
              <path id="Trazado_643426" data-name="Trazado 643426" d="M353.607,304.529a8.114,8.114,0,0,0-3.314,10.867l19.818,34.025,9.143-5.523-15.389-30.719,11.153-7.28" transform="translate(-178.474 -155.564)" fill="#263238"/>
              <path id="Trazado_643427" data-name="Trazado 643427" d="M370.768,301.079l-27.2.963a8.114,8.114,0,0,0-7.827,8.236l1.129,38.854,11.441-.025-.382-36.736,22.842-.6Z" transform="translate(-171.506 -153.802)" fill="#263238"/>
              <path id="Trazado_643428" data-name="Trazado 643428" d="M360.633,326.878a1.938,1.938,0,0,1,.033.359c.011.261.026.6.044,1.031.034.9.068,2.192.1,3.793.068,3.2.114,7.63.138,12.519s.048,9.291.065,12.52c.009,1.58.016,2.869.021,3.794,0,.428,0,.771,0,1.032a1.9,1.9,0,0,1-.019.36,1.933,1.933,0,0,1-.033-.359c-.011-.261-.026-.6-.044-1.031-.034-.9-.068-2.191-.1-3.794-.068-3.2-.114-7.63-.138-12.521s-.048-9.289-.064-12.518c-.009-1.581-.016-2.869-.022-3.794,0-.428,0-.771,0-1.032a1.939,1.939,0,0,1,.018-.36" transform="translate(-184.213 -166.981)" fill="#455a64"/>
              <path id="Trazado_643429" data-name="Trazado 643429" d="M395.073,250.672h-8.23a6,6,0,0,0-6,6v28.714H364.4a4.155,4.155,0,0,0-4.155,4.154h37.545c0-.008,0-.016,0-.024a3.426,3.426,0,0,0,3.282-3.422V256.671a6,6,0,0,0-6-6" transform="translate(-184.026 -128.052)" fill="#455a64"/>
              <path id="Trazado_643430" data-name="Trazado 643430" d="M407.113,252.609c.07,0,.128,8.439.128,18.846s-.057,18.848-.128,18.848-.127-8.437-.127-18.848.057-18.846.127-18.846" transform="translate(-207.903 -129.042)" fill="#263238"/>
              <path id="Trazado_643431" data-name="Trazado 643431" d="M391.723,360.285V330.162h-2.676v30.123c-1.634,3.22-5.474,5.4-10.153,7.183H402.75c-4.845-1.968-9.217-3.479-11.026-7.183" transform="translate(-193.553 -168.659)" fill="#455a64"/>
            </g>
          </g>
          <g id="Grupo_1075301" data-name="Grupo 1075301">
            <g id="Grupo_1075300" data-name="Grupo 1075300" clip-path="url(#clip-path-2)">
              <path id="Trazado_643432" data-name="Trazado 643432" d="M89.6,309.128a1.064,1.064,0,0,1,.074-.179l.24-.511a12.763,12.763,0,0,0,.7-2.046,18.06,18.06,0,0,0-.059-7.9,42.4,42.4,0,0,0-1.466-5.306c-.62-1.884-1.341-3.882-1.929-6.042a23.371,23.371,0,0,1-.952-6.947,27.173,27.173,0,0,1,1.617-7.351,35.737,35.737,0,0,0,1.871-7.24,11.032,11.032,0,0,0-1.327-6.686c-1.059-1.951-2.391-3.619-3.388-5.348a18.582,18.582,0,0,1-2.036-5.142,19.144,19.144,0,0,1-.129-7.965,14.8,14.8,0,0,1,.832-2.813,1.174,1.174,0,0,1-.049.187c-.042.133-.1.312-.168.539a20.136,20.136,0,0,0-.517,2.105,19.389,19.389,0,0,0,.206,7.905,18.538,18.538,0,0,0,2.043,5.076c.995,1.708,2.333,3.37,3.413,5.344a11.262,11.262,0,0,1,1.369,6.822,35.75,35.75,0,0,1-1.878,7.293,27.144,27.144,0,0,0-1.61,7.282,23.263,23.263,0,0,0,.93,6.876c.579,2.15,1.29,4.149,1.9,6.037a41.97,41.97,0,0,1,1.442,5.338,17.853,17.853,0,0,1-.021,7.96,11.8,11.8,0,0,1-.754,2.043l-.263.5a1.181,1.181,0,0,1-.1.166" transform="translate(-42.127 -121.401)" fill="#263238"/>
              <path id="Trazado_643433" data-name="Trazado 643433" d="M89.8,262.887s-2.025-6.474,1.607-10.265a.224.224,0,0,1,.384.112c.194,1.069.436,4.326-1.992,10.154" transform="translate(-45.587 -129.012)" fill="#96b8a9"/>
              <path id="Trazado_643434" data-name="Trazado 643434" d="M91.528,257.107a5.959,5.959,0,0,1-.136,1.195l-.462,2.855c-.169,1.067-.323,2.033-.453,2.856a6.486,6.486,0,0,1-.214,1.182,5.023,5.023,0,0,1,.036-1.2c.067-.74.2-1.757.381-2.874s.378-2.123.536-2.847a5.406,5.406,0,0,1,.313-1.162" transform="translate(-46.099 -131.339)" fill="#263238"/>
              <path id="Trazado_643435" data-name="Trazado 643435" d="M95.253,296.194s1.238-6.669,6.221-8.322a.225.225,0,0,1,.288.278c-.329,1.036-1.637,4.027-6.509,8.043" transform="translate(-48.659 -147.049)" fill="#c7e3d7"/>
              <path id="Trazado_643436" data-name="Trazado 643436" d="M100.075,291.4a5.942,5.942,0,0,1-.679.992L97.653,294.7l-1.736,2.312a6.5,6.5,0,0,1-.742.944,5.018,5.018,0,0,1,.595-1.047c.405-.623,1-1.461,1.681-2.362s1.326-1.7,1.805-2.267a5.46,5.46,0,0,1,.82-.88" transform="translate(-48.617 -148.86)" fill="#263238"/>
              <path id="Trazado_643437" data-name="Trazado 643437" d="M92.447,328.855s-.752-6.742,3.536-9.77a.224.224,0,0,1,.357.182c-.014,1.086-.4,4.33-3.893,9.587" transform="translate(-47.199 -162.978)" fill="#c7e3d7"/>
              <path id="Trazado_643438" data-name="Trazado 643438" d="M95.181,323.3a5.963,5.963,0,0,1-.361,1.147l-1,2.715-.99,2.716A6.555,6.555,0,0,1,92.4,331a4.991,4.991,0,0,1,.265-1.174c.207-.713.529-1.687.922-2.749s.776-2.012,1.069-2.693a5.4,5.4,0,0,1,.529-1.081" transform="translate(-47.196 -165.155)" fill="#263238"/>
              <path id="Trazado_643439" data-name="Trazado 643439" d="M100.155,363.4s-.51-6.764,3.883-9.637a.224.224,0,0,1,.35.2c-.052,1.085-.552,4.312-4.233,9.441" transform="translate(-51.154 -180.697)" fill="#c7e3d7"/>
              <path id="Trazado_643440" data-name="Trazado 643440" d="M103.132,357.92a5.947,5.947,0,0,1-.4,1.133l-1.095,2.677-1.086,2.68a6.522,6.522,0,0,1-.475,1.1,5.008,5.008,0,0,1,.307-1.164c.232-.705.589-1.667,1.02-2.714s.847-1.983,1.165-2.653a5.405,5.405,0,0,1,.567-1.061" transform="translate(-51.118 -182.838)" fill="#263238"/>
              <path id="Trazado_643441" data-name="Trazado 643441" d="M78.041,253.049s-5.268-2.751-6.082-7.707a5.507,5.507,0,0,1-.049-.681.225.225,0,0,1,.351-.194c.894.618,3.37,2.747,5.78,8.582" transform="translate(-36.734 -124.862)" fill="#96b8a9"/>
              <path id="Trazado_643442" data-name="Trazado 643442" d="M74.459,248.589a5.973,5.973,0,0,1,.749.94l1.7,2.344,1.7,2.338a6.479,6.479,0,0,1,.685.987,5.068,5.068,0,0,1-.826-.876c-.476-.57-1.1-1.381-1.765-2.3s-1.236-1.766-1.637-2.391a5.378,5.378,0,0,1-.6-1.042" transform="translate(-38.035 -126.988)" fill="#263238"/>
              <path id="Trazado_643443" data-name="Trazado 643443" d="M90.719,281.863s-6.192-2.769-6.629-8a.224.224,0,0,1,.338-.215c.929.563,3.531,2.537,6.291,8.216" transform="translate(-42.956 -139.772)" fill="#96b8a9"/>
              <path id="Trazado_643444" data-name="Trazado 643444" d="M86.86,277.644a5.952,5.952,0,0,1,.8.893l1.834,2.236,1.84,2.23a6.533,6.533,0,0,1,.744.943,4.993,4.993,0,0,1-.878-.824c-.51-.54-1.186-1.311-1.9-2.189s-1.341-1.688-1.78-2.287a5.4,5.4,0,0,1-.663-1" transform="translate(-44.37 -141.83)" fill="#263238"/>
              <path id="Trazado_643445" data-name="Trazado 643445" d="M87.445,311.442s-4.252-5.285-2.257-10.142a.224.224,0,0,1,.4-.037c.571.924,1.988,3.867,1.859,10.179" transform="translate(-43.245 -153.842)" fill="#c7e3d7"/>
              <path id="Trazado_643446" data-name="Trazado 643446" d="M86.594,305.849a5.911,5.911,0,0,1,.31,1.162l.614,2.826c.233,1.055.443,2.01.622,2.823a6.547,6.547,0,0,1,.233,1.178,4.968,4.968,0,0,1-.406-1.133c-.208-.713-.459-1.708-.7-2.815s-.425-2.114-.542-2.846a5.441,5.441,0,0,1-.134-1.2" transform="translate(-44.23 -156.239)" fill="#263238"/>
              <path id="Trazado_643447" data-name="Trazado 643447" d="M92.186,350.768s-6.145-2.873-6.494-8.111a.224.224,0,0,1,.342-.209c.92.578,3.487,2.6,6.152,8.32" transform="translate(-43.774 -174.917)" fill="#c7e3d7"/>
              <path id="Trazado_643448" data-name="Trazado 643448" d="M88.4,346.48a5.975,5.975,0,0,1,.79.906l1.8,2.267,1.8,2.261a6.5,6.5,0,0,1,.728.955,5.02,5.02,0,0,1-.864-.839c-.5-.548-1.164-1.331-1.865-2.22s-1.312-1.711-1.74-2.316a5.387,5.387,0,0,1-.647-1.014" transform="translate(-45.158 -176.994)" fill="#263238"/>
              <path id="Trazado_643449" data-name="Trazado 643449" d="M111.736,304.971a.5.5,0,0,1,.008.149c0,.118-.006.261-.011.434-.018.407-.043.958-.073,1.645-.079,1.446-.19,3.462-.322,5.874v.014a22.79,22.79,0,0,1-3.368,7.816c-1.232,1.946-2.523,3.715-3.636,5.36a37.935,37.935,0,0,0-2.727,4.507,19.1,19.1,0,0,0-1.275,3.307c-.108.406-.189.722-.236.938a1.74,1.74,0,0,1-.09.326,1.645,1.645,0,0,1,.04-.337c.03-.22.1-.541.19-.952a17.472,17.472,0,0,1,1.21-3.361,36.016,36.016,0,0,1,2.694-4.559c1.106-1.657,2.391-3.429,3.616-5.365a23.1,23.1,0,0,0,3.369-7.723l0,.014c.17-2.409.311-4.424.412-5.868.056-.685.1-1.234.133-1.641l.043-.431a.5.5,0,0,1,.026-.147" transform="translate(-51.085 -155.79)" fill="#263238"/>
              <path id="Trazado_643450" data-name="Trazado 643450" d="M115.087,325.592s2.6-6.264-.671-10.368a.225.225,0,0,0-.393.076c-.29,1.047-.826,4.268,1.064,10.293" transform="translate(-58.094 -160.983)" fill="#96b8a9"/>
              <path id="Trazado_643451" data-name="Trazado 643451" d="M115.521,319.779a5.4,5.4,0,0,1,.206,1.185c.092.736.2,1.755.276,2.884s.119,2.155.119,2.9a4.982,4.982,0,0,1-.073,1.2,6.521,6.521,0,0,1-.106-1.2c-.056-.831-.121-1.807-.193-2.885s-.143-2.055-.2-2.886a5.942,5.942,0,0,1-.028-1.2" transform="translate(-59.003 -163.355)" fill="#263238"/>
              <path id="Trazado_643453" data-name="Trazado 643453" d="M97.918,356.559s2.086-6.455-1.51-10.28a.224.224,0,0,0-.385.108c-.2,1.067-.478,4.321,1.9,10.172" transform="translate(-48.986 -176.855)" fill="#96b8a9"/>
              <path id="Trazado_643454" data-name="Trazado 643454" d="M97.7,350.773a5.4,5.4,0,0,1,.3,1.165c.151.726.337,1.734.509,2.852s.294,2.138.354,2.878a5.015,5.015,0,0,1,.025,1.2,6.511,6.511,0,0,1-.2-1.184c-.122-.824-.267-1.791-.426-2.859l-.434-2.86a5.96,5.96,0,0,1-.125-1.2" transform="translate(-49.902 -179.187)" fill="#263238"/>
              <path id="Trazado_643456" data-name="Trazado 643456" d="M123.285,311.132s5.557-3.89,5-9.11a.225.225,0,0,0-.373-.147c-.807.728-2.987,3.159-4.624,9.257" transform="translate(-62.978 -154.179)" fill="#96b8a9"/>
              <path id="Trazado_643458" data-name="Trazado 643458" d="M127.33,306.22a5.4,5.4,0,0,1-.462,1.111c-.317.671-.777,1.586-1.315,2.582s-1.055,1.882-1.454,2.509a5,5,0,0,1-.706.975,6.492,6.492,0,0,1,.552-1.067l1.385-2.538,1.378-2.543a5.952,5.952,0,0,1,.621-1.029" transform="translate(-63.033 -156.428)" fill="#263238"/>
              <path id="Trazado_643459" data-name="Trazado 643459" d="M104.612,347.727s6.7-1.045,8.5-5.978a.224.224,0,0,0-.27-.3c-1.045.3-4.073,1.52-8.228,6.274" transform="translate(-53.44 -174.422)" fill="#96b8a9"/>
              <path id="Trazado_643461" data-name="Trazado 643461" d="M111.391,344.737a5.4,5.4,0,0,1-.9.794c-.58.462-1.4,1.082-2.317,1.739s-1.777,1.225-2.411,1.612a5.009,5.009,0,0,1-1.063.564,6.486,6.486,0,0,1,.966-.715l2.361-1.669,2.357-1.676a5.961,5.961,0,0,1,1.011-.65" transform="translate(-53.482 -176.103)" fill="#263238"/>
              <path id="Trazado_643462" data-name="Trazado 643462" d="M89.5,379.5l-1.955,13.159H99.729L98.149,379.5Z" transform="translate(-44.721 -193.864)" fill="#455a64"/>
              <path id="Trazado_643463" data-name="Trazado 643463" d="M99.957,387.707a47.74,47.74,0,0,1-4.913.127,47.732,47.732,0,0,1-4.913-.127,47.764,47.764,0,0,1,4.913-.127,47.772,47.772,0,0,1,4.913.127" transform="translate(-46.042 -197.99)" fill="#263238"/>
              <path id="Trazado_643464" data-name="Trazado 643464" d="M100.115,389.848c0,.07-2.272.127-5.074.127s-5.075-.057-5.075-.127,2.272-.127,5.075-.127,5.074.057,5.074.127" transform="translate(-45.958 -199.083)" fill="#263238"/>
            </g>
          </g>
        </g>
      </g>
    </g>
  </g>
</svg>
