<svg id="img3" xmlns="http://www.w3.org/2000/svg" xmlns:xlink="http://www.w3.org/1999/xlink" width="400" height="237.458" viewBox="0 0 400 237.458">
  <defs>
    <clipPath id="clip-path">
      <rect id="Rectángulo_379914" data-name="Rectángulo 379914" width="400" height="237.458" fill="none"/>
    </clipPath>
    <clipPath id="clip-path-4">
      <rect id="Rectángulo_379907" data-name="Rectángulo 379907" width="13.271" height="17.92" fill="none"/>
    </clipPath>
    <clipPath id="clip-path-5">
      <rect id="Rectángulo_379908" data-name="Rectángulo 379908" width="28.669" height="12.373" fill="none"/>
    </clipPath>
    <clipPath id="clip-path-6">
      <rect id="Rectángulo_379910" data-name="Rectángulo 379910" width="43.558" height="37.722" fill="none"/>
    </clipPath>
  </defs>
  <g id="Grupo_1075224" data-name="Grupo 1075224" clip-path="url(#clip-path)">
    <g id="Grupo_1075205" data-name="Grupo 1075205">
      <g id="Grupo_1075204" data-name="Grupo 1075204" clip-path="url(#clip-path)">
        <path id="Trazado_643024" data-name="Trazado 643024" d="M601.372,165.612H565.813a4.449,4.449,0,0,1-4.449-4.449V111.946a4.449,4.449,0,0,1,4.449-4.449h22.551l17.457,17.992v35.675a4.449,4.449,0,0,1-4.449,4.449" transform="translate(-231.508 -44.332)" fill="#ebebeb"/>
        <path id="Trazado_643025" data-name="Trazado 643025" d="M607.314,107.5v13.852a4.139,4.139,0,0,0,4.138,4.138l13.318,0Z" transform="translate(-250.458 -44.332)" fill="#f5f5f5"/>
        <path id="Trazado_643026" data-name="Trazado 643026" d="M607.622,133.138a4.6,4.6,0,0,0,3.65,4.464,4.271,4.271,0,0,0,.438.1c1.739.311,13.188,2.347,13.188,2.084v-3.722H611.578s-3.325-.114-3.956-2.925" transform="translate(-250.585 -54.907)" fill="#e0e0e0"/>
        <path id="Trazado_643027" data-name="Trazado 643027" d="M601.263,165.5c0-.021.267.005.769-.09a4.454,4.454,0,0,0,2.017-.941,4.4,4.4,0,0,0,1.592-3.138c.023-1.435,0-3.1,0-4.959-.013-7.452-.031-18.114-.054-31l.036.089L588.15,107.49l.105.045-13.013,0h-8.534A11.376,11.376,0,0,0,565,107.6a4.3,4.3,0,0,0-2.79,1.74,4.236,4.236,0,0,0-.787,2.187c-.032.789-.009,1.613-.016,2.414q0,2.417,0,4.8,0,4.767,0,9.386c0,6.153-.006,12.089-.009,17.743q0,4.24-.006,8.263,0,2.009,0,3.958,0,.975,0,1.933a10.2,10.2,0,0,0,.082,1.871,4.335,4.335,0,0,0,2.013,2.86,4.286,4.286,0,0,0,1.641.579,16.492,16.492,0,0,0,1.75.046l6.712.01,20.255.049,5.506.029,1.433.015c.323.005.488.016.488.016s-.165.011-.488.016l-1.433.015-5.506.028-20.255.049-6.712.01a16.454,16.454,0,0,1-1.782-.044,4.536,4.536,0,0,1-1.735-.608,4.588,4.588,0,0,1-2.136-3.021,10.407,10.407,0,0,1-.09-1.921q0-.959,0-1.933,0-1.949,0-3.958,0-4.018-.006-8.263c0-5.654-.006-11.59-.009-17.743q0-4.616,0-9.386,0-2.383,0-4.8c.007-.81-.016-1.6.016-2.435a4.551,4.551,0,0,1,.843-2.344,4.6,4.6,0,0,1,2.99-1.864,11.625,11.625,0,0,1,1.758-.067h8.534l13.013,0h.062l.043.045L605.8,125.292l.036.038v.052c-.022,12.881-.041,23.543-.054,31-.012,1.862,0,3.517-.031,4.966a4.471,4.471,0,0,1-1.657,3.191,4.412,4.412,0,0,1-2.06.92,3.337,3.337,0,0,1-.579.052c-.13,0-.2,0-.2,0" transform="translate(-231.4 -44.224)" fill="#e0e0e0"/>
        <path id="Trazado_643028" data-name="Trazado 643028" d="M624.662,125.488a1.467,1.467,0,0,1-.342.031l-.981.029-3.608.048-5.351.032-3.164,0a4.293,4.293,0,0,1-3.966-2.993,4.967,4.967,0,0,1-.2-1.7c0-1.095.006-2.152.009-3.16.012-2,.023-3.815.032-5.351.021-1.492.037-2.714.049-3.608.012-.4.021-.723.029-.981a1.431,1.431,0,0,1,.031-.342,1.468,1.468,0,0,1,.031.342c.008.258.017.582.029.981.012.894.028,2.116.049,3.608.009,1.536.021,3.347.033,5.351,0,1.008.006,2.065.009,3.16a4.122,4.122,0,0,0,1,3.038,3.991,3.991,0,0,0,2.872,1.354l3.155.015,5.351.034,3.608.049.981.029a1.476,1.476,0,0,1,.342.031" transform="translate(-250.35 -44.332)" fill="#e0e0e0"/>
        <path id="Trazado_643029" data-name="Trazado 643029" d="M593,128.425c0,.085-4.2.153-9.38.153s-9.381-.069-9.381-.153,4.2-.153,9.381-.153,9.38.068,9.38.153" transform="translate(-236.82 -52.9)" fill="#e0e0e0"/>
        <path id="Trazado_643030" data-name="Trazado 643030" d="M601.9,140.184c0,.085-6.193.153-13.83.153s-13.831-.068-13.831-.153,6.192-.153,13.831-.153,13.83.068,13.83.153" transform="translate(-236.82 -57.749)" fill="#e0e0e0"/>
        <path id="Trazado_643031" data-name="Trazado 643031" d="M601.9,151.944c0,.085-6.193.153-13.83.153s-13.831-.068-13.831-.153,6.192-.153,13.831-.153,13.83.068,13.83.153" transform="translate(-236.82 -62.599)" fill="#e0e0e0"/>
        <path id="Trazado_643032" data-name="Trazado 643032" d="M601.9,163.7c0,.085-6.193.153-13.83.153s-13.831-.068-13.831-.153,6.192-.153,13.831-.153,13.83.068,13.83.153" transform="translate(-236.82 -67.449)" fill="#e0e0e0"/>
        <path id="Trazado_643033" data-name="Trazado 643033" d="M601.9,175.463c0,.085-6.193.153-13.83.153s-13.831-.068-13.831-.153,6.192-.153,13.831-.153,13.83.068,13.83.153" transform="translate(-236.82 -72.298)" fill="#e0e0e0"/>
        <path id="Trazado_643034" data-name="Trazado 643034" d="M601.9,189.967c0,.085-6.193.153-13.83.153s-13.831-.068-13.831-.153,6.192-.153,13.831-.153,13.83.068,13.83.153" transform="translate(-236.82 -78.28)" fill="#e0e0e0"/>
        <path id="Trazado_643035" data-name="Trazado 643035" d="M575.516,180.55H550.275a2.481,2.481,0,0,1-2.481-2.48V169.46a2.481,2.481,0,0,1,2.481-2.481h25.241a2.48,2.48,0,0,1,2.48,2.48v8.609a2.481,2.481,0,0,1-2.48,2.481" transform="translate(-225.912 -68.863)" fill="#e0e0e0"/>
        <path id="Trazado_643036" data-name="Trazado 643036" d="M553.749,174.511h2.329a2.576,2.576,0,1,1,0,5.127h-2.329Zm2.271,4.153a1.592,1.592,0,1,0,0-3.179h-1.084v3.179Z" transform="translate(-228.368 -71.969)" fill="#fff"/>
        <path id="Trazado_643037" data-name="Trazado 643037" d="M563.495,177.013a2.81,2.81,0,1,1,2.806,2.652,2.654,2.654,0,0,1-2.806-2.652m4.41,0a1.6,1.6,0,1,0-1.6,1.641,1.564,1.564,0,0,0,1.6-1.641" transform="translate(-232.387 -71.907)" fill="#fff"/>
        <path id="Trazado_643038" data-name="Trazado 643038" d="M574.015,177.013a2.823,2.823,0,0,1,4.893-1.743l-.762.7a1.65,1.65,0,0,0-1.289-.6,1.641,1.641,0,1,0,0,3.282,1.635,1.635,0,0,0,1.289-.608l.762.7a2.818,2.818,0,0,1-4.893-1.736" transform="translate(-236.726 -71.907)" fill="#fff"/>
        <path id="Trazado_643039" data-name="Trazado 643039" d="M586.344,179.638l-1.238-1.78-1.216,1.78h-1.363l1.9-2.608-1.8-2.52h1.348l1.179,1.663,1.158-1.663h1.282l-1.787,2.476,1.911,2.652Z" transform="translate(-240.236 -71.969)" fill="#fff"/>
        <path id="Trazado_643040" data-name="Trazado 643040" d="M499.106,313.5,472.18,360.588l-53.273.769a3.224,3.224,0,0,0-3.173,3.048l54.176.153,2.037-.069,67.835.134,13.707-23.641L571,315.884a2.476,2.476,0,0,0-2.041-3.893l-67.712.259a2.476,2.476,0,0,0-2.141,1.247" transform="translate(-171.45 -128.666)" fill="#ebebeb"/>
        <path id="Trazado_643041" data-name="Trazado 643041" d="M612.534,314.785a1.177,1.177,0,0,1-.324.034l-.953.034-3.662.063-13.471.106-44.443.1h-3.235a2.668,2.668,0,0,0-2.466,1.165l-3.016,5.438-5.719,10.322L525.528,349.5c-2.767,4.92-5.015,8.919-6.6,11.741l-1.824,3.175-.49.817a1.178,1.178,0,0,1-.186.267,1.165,1.165,0,0,1,.127-.3l.431-.85,1.714-3.238,6.416-11.845,9.591-17.529L540.39,321.4l3.031-5.483a3.348,3.348,0,0,1,3.024-1.468h3.235l44.443.1,13.471.107,3.662.063.953.033a1.19,1.19,0,0,1,.324.035" transform="translate(-212.975 -129.675)" fill="#e0e0e0"/>
        <path id="Trazado_643042" data-name="Trazado 643042" d="M598.106,354.5a2.862,2.862,0,1,0,4.276-.505,3.059,3.059,0,0,0-4.276.505" transform="translate(-246.283 -145.716)" fill="#fff"/>
        <path id="Trazado_643043" data-name="Trazado 643043" d="M12,316.063v28.162H7.3v3.056H12V366.13H99.9V348.979H93.385v-3.736H99.9v-5.6h2.893v-2.547H99.353v-21.03Z" transform="translate(-3.011 -130.345)" fill="#f5f5f5"/>
        <path id="Trazado_643044" data-name="Trazado 643044" d="M125.161,316.145v49.671H148.5v-17.15h-6.511v-3.422l6.511.116v-5.6l2.95,0-.056-2.9-3.436-.085V316.063Z" transform="translate(-51.617 -130.345)" fill="#e0e0e0"/>
        <path id="Trazado_643045" data-name="Trazado 643045" d="M78.131,368.285c0,.173-15.9.312-35.519.312s-35.523-.139-35.523-.312,15.9-.312,35.523-.312,35.519.14,35.519.312" transform="translate(-2.924 -151.753)" fill="#e0e0e0"/>
        <path id="Trazado_643046" data-name="Trazado 643046" d="M78.131,363.416c0,.173-15.9.312-35.519.312s-35.523-.139-35.523-.312,15.9-.312,35.523-.312,35.519.14,35.519.312" transform="translate(-2.924 -149.745)" fill="#e0e0e0"/>
        <path id="Trazado_643047" data-name="Trazado 643047" d="M85.9,350.314c0,.173-15.9.312-35.519.312s-35.523-.139-35.523-.312S30.755,350,50.377,350s35.519.14,35.519.312" transform="translate(-6.126 -144.342)" fill="#e0e0e0"/>
        <path id="Trazado_643048" data-name="Trazado 643048" d="M86.642,386.018c0,.173-15.9.312-35.519.312s-35.523-.139-35.523-.312,15.9-.312,35.523-.312,35.519.14,35.519.312" transform="translate(-6.433 -159.066)" fill="#e0e0e0"/>
        <path id="Trazado_643049" data-name="Trazado 643049" d="M487.014,72.2H452.277a4.345,4.345,0,0,1-4.346-4.346V19.779a4.346,4.346,0,0,1,4.346-4.346h22.03L491.36,33.008v34.85a4.347,4.347,0,0,1-4.347,4.346" transform="translate(-184.728 -6.364)" fill="#ebebeb"/>
        <path id="Trazado_643050" data-name="Trazado 643050" d="M492.819,15.433V28.965a4.043,4.043,0,0,0,4.042,4.043l13.011,0Z" transform="translate(-203.24 -6.365)" fill="#f5f5f5"/>
        <path id="Trazado_643051" data-name="Trazado 643051" d="M493.12,40.482a4.494,4.494,0,0,0,3.565,4.361,4.125,4.125,0,0,0,.428.1c1.7.3,12.883,2.293,12.883,2.037V43.339H496.984s-3.248-.112-3.864-2.857" transform="translate(-203.364 -16.695)" fill="#e0e0e0"/>
        <path id="Trazado_643052" data-name="Trazado 643052" d="M486.905,72.1c0-.021.261.005.75-.089a4.342,4.342,0,0,0,1.97-.918,4.3,4.3,0,0,0,1.555-3.065c.022-1.4,0-3.028,0-4.845-.014-7.28-.032-17.7-.055-30.278l.036.089L474.094,15.426l.105.045-12.712,0H453.15a11.059,11.059,0,0,0-1.667.061,4.2,4.2,0,0,0-2.724,1.7,4.14,4.14,0,0,0-.767,2.135c-.031.77-.009,1.575-.016,2.357q0,2.361,0,4.69,0,4.656,0,9.169c0,6.011-.006,11.81-.009,17.334q0,4.143-.006,8.071,0,1.963,0,3.867,0,.952,0,1.889a9.941,9.941,0,0,0,.08,1.827,4.227,4.227,0,0,0,3.567,3.358,16.017,16.017,0,0,0,1.709.045l6.557.01,19.786.049,5.379.029,1.4.015c.315.005.477.016.477.016s-.162.011-.477.016l-1.4.015-5.379.028-19.786.049-6.557.01a16.128,16.128,0,0,1-1.741-.043,4.474,4.474,0,0,1-3.784-3.547,10.194,10.194,0,0,1-.089-1.877q0-.937,0-1.889,0-1.9,0-3.867,0-3.925-.006-8.071c0-5.524-.006-11.322-.009-17.334q0-4.508,0-9.169,0-2.329,0-4.69c.007-.791-.016-1.567.016-2.379a4.444,4.444,0,0,1,.824-2.291,4.5,4.5,0,0,1,2.923-1.823,11.4,11.4,0,0,1,1.717-.065h8.337l12.712,0h.062l.043.045,17.039,17.589.036.038V32.9c-.022,12.583-.041,23-.054,30.278-.012,1.819,0,3.436-.031,4.852a4.371,4.371,0,0,1-1.619,3.118,4.308,4.308,0,0,1-2.013.9,3.228,3.228,0,0,1-.566.051c-.127,0-.192,0-.192,0" transform="translate(-184.62 -6.256)" fill="#e0e0e0"/>
        <path id="Trazado_643053" data-name="Trazado 643053" d="M509.765,33.008a1.364,1.364,0,0,1-.334.031l-.958.029-3.524.048-5.227.032-3.091,0a4.2,4.2,0,0,1-3.878-2.926,4.861,4.861,0,0,1-.191-1.661c0-1.069.006-2.1.009-3.087.012-1.957.023-3.726.032-5.227.021-1.456.037-2.649.049-3.524.012-.388.021-.705.029-.958a1.375,1.375,0,0,1,.031-.334,1.442,1.442,0,0,1,.031.334c.008.253.017.569.029.958.012.875.028,2.068.049,3.524.009,1.5.021,3.27.032,5.227,0,.985.006,2.018.009,3.087a4.018,4.018,0,0,0,.974,2.966,3.891,3.891,0,0,0,2.8,1.322l3.082.016,5.227.033,3.524.049.958.029a1.4,1.4,0,0,1,.334.031" transform="translate(-203.133 -6.364)" fill="#e0e0e0"/>
        <path id="Trazado_643054" data-name="Trazado 643054" d="M478.839,35.875c0,.085-4.1.153-9.163.153s-9.164-.068-9.164-.153,4.1-.153,9.164-.153,9.163.068,9.163.153" transform="translate(-189.917 -14.732)" fill="#e0e0e0"/>
        <path id="Trazado_643055" data-name="Trazado 643055" d="M487.534,47.362c0,.085-6.049.153-13.511.153s-13.512-.068-13.512-.153,6.049-.153,13.512-.153,13.511.068,13.511.153" transform="translate(-189.917 -19.469)" fill="#e0e0e0"/>
        <path id="Trazado_643056" data-name="Trazado 643056" d="M487.534,58.85c0,.085-6.05.153-13.511.153s-13.512-.068-13.512-.153,6.049-.153,13.512-.153,13.511.068,13.511.153" transform="translate(-189.917 -24.207)" fill="#e0e0e0"/>
        <path id="Trazado_643057" data-name="Trazado 643057" d="M487.534,70.338c0,.085-6.05.153-13.511.153s-13.512-.068-13.512-.153,6.049-.153,13.512-.153,13.511.068,13.511.153" transform="translate(-189.917 -28.945)" fill="#e0e0e0"/>
        <path id="Trazado_643058" data-name="Trazado 643058" d="M487.534,81.826c0,.085-6.05.153-13.511.153s-13.512-.068-13.512-.153,6.049-.153,13.512-.153,13.511.068,13.511.153" transform="translate(-189.917 -33.682)" fill="#e0e0e0"/>
        <path id="Trazado_643059" data-name="Trazado 643059" d="M487.534,95.994c0,.085-6.05.153-13.511.153s-13.512-.068-13.512-.153,6.049-.153,13.512-.153,13.511.068,13.511.153" transform="translate(-189.917 -39.525)" fill="#e0e0e0"/>
        <path id="Trazado_643060" data-name="Trazado 643060" d="M461.7,86.8H437.156a2.48,2.48,0,0,1-2.48-2.48v-8.3a2.481,2.481,0,0,1,2.48-2.481H461.7a2.48,2.48,0,0,1,2.48,2.48v8.3A2.48,2.48,0,0,1,461.7,86.8" transform="translate(-179.262 -30.328)" fill="#e0e0e0"/>
        <path id="Trazado_643061" data-name="Trazado 643061" d="M451.258,82.716c0,1.116-.837,1.81-2.175,1.81h-1.009v1.381h-1.159V80.9h2.168c1.338,0,2.175.694,2.175,1.817m-1.173,0c0-.551-.358-.873-1.066-.873h-.944v1.738h.944c.709,0,1.066-.322,1.066-.866" transform="translate(-184.309 -33.363)" fill="#fff"/>
        <path id="Trazado_643062" data-name="Trazado 643062" d="M455.706,80.9h2.276a2.516,2.516,0,1,1,0,5.009h-2.276Zm2.218,4.057a1.555,1.555,0,1,0,0-3.105h-1.059v3.105Z" transform="translate(-187.935 -33.363)" fill="#fff"/>
        <path id="Trazado_643063" data-name="Trazado 643063" d="M466.923,81.829v1.324h2.318v.93h-2.318v1.824h-1.159V80.9h3.785v.93Z" transform="translate(-192.082 -33.363)" fill="#fff"/>
        <rect id="Rectángulo_379895" data-name="Rectángulo 379895" width="18.766" height="32.342" transform="translate(126.84 12.43)" fill="#ebebeb"/>
        <rect id="Rectángulo_379896" data-name="Rectángulo 379896" width="14.819" height="40.374" transform="translate(74.49 4.913)" fill="#ebebeb"/>
        <path id="Trazado_643064" data-name="Trazado 643064" d="M126.478,13.167a63.752,63.752,0,0,1,7.568-.225,63.75,63.75,0,0,1,7.568.225,63.9,63.9,0,0,1-7.568.225,63.9,63.9,0,0,1-7.568-.225" transform="translate(-52.16 -5.337)" fill="#fafafa"/>
        <path id="Trazado_643065" data-name="Trazado 643065" d="M127.874,16.425a57.18,57.18,0,0,1,7.158-.225,57.172,57.172,0,0,1,7.158.225,57.038,57.038,0,0,1-7.158.225,57.045,57.045,0,0,1-7.158-.225" transform="translate(-52.736 -6.681)" fill="#fafafa"/>
        <path id="Trazado_643066" data-name="Trazado 643066" d="M138.5,46.757c-.125,0-.225-5.348-.225-11.943s.1-11.945.225-11.945.225,5.347.225,11.945-.1,11.943-.225,11.943" transform="translate(-57.025 -9.431)" fill="#fafafa"/>
        <path id="Trazado_643067" data-name="Trazado 643067" d="M126.77,69.65a58.591,58.591,0,0,1,7.254-.225,58.58,58.58,0,0,1,7.254.225,58.72,58.72,0,0,1-7.254.225,58.731,58.731,0,0,1-7.254-.225" transform="translate(-52.28 -28.631)" fill="#fafafa"/>
        <path id="Trazado_643068" data-name="Trazado 643068" d="M126.77,72.6a61.559,61.559,0,0,1,7.436-.225,61.564,61.564,0,0,1,7.437.225,61.569,61.569,0,0,1-7.437.225,61.564,61.564,0,0,1-7.436-.225" transform="translate(-52.28 -29.847)" fill="#fafafa"/>
        <rect id="Rectángulo_379897" data-name="Rectángulo 379897" width="11.905" height="44.74" transform="translate(89.299 0.546)" fill="#e0e0e0"/>
        <path id="Trazado_643069" data-name="Trazado 643069" d="M151.845,35.9a11.56,11.56,0,0,1,1.842,1.275l4.3,3.258,4.289,3.268a11.418,11.418,0,0,1,1.72,1.434,10.678,10.678,0,0,1-1.908-1.176c-1.142-.778-2.694-1.89-4.375-3.167s-3.165-2.475-4.221-3.368a10.639,10.639,0,0,1-1.644-1.524" transform="translate(-62.621 -14.803)" fill="#fafafa"/>
        <path id="Trazado_643070" data-name="Trazado 643070" d="M151.756,23.977a68.343,68.343,0,0,1,6.092,4.923,68.241,68.241,0,0,1,5.8,5.266,68.37,68.37,0,0,1-6.092-4.924,68.216,68.216,0,0,1-5.8-5.265" transform="translate(-62.584 -9.887)" fill="#fafafa"/>
        <rect id="Rectángulo_379898" data-name="Rectángulo 379898" width="5.694" height="42.621" transform="translate(37.563 2.698)" fill="#ebebeb"/>
        <path id="Trazado_643071" data-name="Trazado 643071" d="M64.328,14.285A6.87,6.87,0,0,0,67,14.553a6.873,6.873,0,0,0,2.668-.268A6.873,6.873,0,0,0,67,14.017a6.87,6.87,0,0,0-2.667.268" transform="translate(-26.529 -5.781)" fill="#fafafa"/>
        <path id="Trazado_643072" data-name="Trazado 643072" d="M64.13,12.706a6.872,6.872,0,0,0,2.668.268,6.871,6.871,0,0,0,2.668-.268,6.871,6.871,0,0,0-2.668-.268,6.871,6.871,0,0,0-2.668.268" transform="translate(-26.447 -5.129)" fill="#fafafa"/>
        <path id="Trazado_643073" data-name="Trazado 643073" d="M64.328,71.329A6.869,6.869,0,0,0,67,71.6a6.873,6.873,0,0,0,2.668-.268A6.873,6.873,0,0,0,67,71.061a6.87,6.87,0,0,0-2.667.268" transform="translate(-26.529 -29.306)" fill="#fafafa"/>
        <path id="Trazado_643074" data-name="Trazado 643074" d="M64.13,69.75a6.872,6.872,0,0,0,2.668.268,6.872,6.872,0,0,0,2.668-.268,6.871,6.871,0,0,0-2.668-.268,6.871,6.871,0,0,0-2.668.268" transform="translate(-26.447 -28.655)" fill="#fafafa"/>
        <path id="Trazado_643075" data-name="Trazado 643075" d="M68.877,45.161c.148,0,.268-4.882.268-10.9s-.12-10.9-.268-10.9-.268,4.88-.268,10.9.12,10.9.268,10.9" transform="translate(-28.295 -9.632)" fill="#fafafa"/>
        <rect id="Rectángulo_379899" data-name="Rectángulo 379899" width="11.388" height="42.621" transform="translate(63.079 2.424)" fill="#e0e0e0"/>
        <path id="Trazado_643076" data-name="Trazado 643076" d="M116.209,47.369a.957.957,0,0,0,.133-.232c.081-.156.191-.394.325-.71a12.388,12.388,0,0,0,.827-2.89,7.529,7.529,0,0,0-.666-4.689,6.242,6.242,0,0,0-2.018-2.227,4.688,4.688,0,0,0-3.281-.775,3.455,3.455,0,0,0-1.7.783,2.243,2.243,0,0,0-.816,1.8,2.585,2.585,0,0,0,.974,1.807,3.536,3.536,0,0,0,1.942.824,5.17,5.17,0,0,0,4.036-1.47,6.487,6.487,0,0,0,2-4.1,10.878,10.878,0,0,0-.59-4.755,8.772,8.772,0,0,0-2.792-4.154,4.582,4.582,0,0,0-2.459-.968,3.192,3.192,0,0,0-2.558.907,2.078,2.078,0,0,0-.585,1.334,2.439,2.439,0,0,0,.393,1.393,3.7,3.7,0,0,0,2.3,1.568,5.363,5.363,0,0,0,5.016-1.681,8.385,8.385,0,0,0,1.953-4.8,11.81,11.81,0,0,0-.49-4.975,6.871,6.871,0,0,0-2.942-3.784,5.041,5.041,0,0,0-4.524-.474,2.379,2.379,0,0,0-1.471,1.739,2.749,2.749,0,0,0,.518,2.147,3.556,3.556,0,0,0,3.836,1.015,6.633,6.633,0,0,0,3.026-2.149,9.672,9.672,0,0,0,2.271-5.844,9.37,9.37,0,0,0-1.052-4.631,9.273,9.273,0,0,0-1.79-2.414,6.892,6.892,0,0,0-.592-.51.947.947,0,0,0-.22-.15,10.83,10.83,0,0,1,2.416,3.169A9.278,9.278,0,0,1,118.572,12a9.4,9.4,0,0,1-2.259,5.611,6.268,6.268,0,0,1-2.856,2,3.139,3.139,0,0,1-3.364-.887,2.3,2.3,0,0,1-.423-1.792,1.908,1.908,0,0,1,1.21-1.394,4.57,4.57,0,0,1,4.081.466,6.377,6.377,0,0,1,2.712,3.527,11.344,11.344,0,0,1,.452,4.752,7.87,7.87,0,0,1-1.826,4.5,4.839,4.839,0,0,1-4.5,1.517,3.168,3.168,0,0,1-1.964-1.329,1.632,1.632,0,0,1,.126-2.078,2.669,2.669,0,0,1,2.134-.744,4.047,4.047,0,0,1,2.178.858,8.283,8.283,0,0,1,2.624,3.9,10.41,10.41,0,0,1,.584,4.531,6.008,6.008,0,0,1-1.833,3.809,4.72,4.72,0,0,1-3.666,1.373,2.722,2.722,0,0,1-2.551-2.211,1.838,1.838,0,0,1,.666-1.48,3.084,3.084,0,0,1,1.5-.706,4.344,4.344,0,0,1,3.031.687,5.946,5.946,0,0,1,1.941,2.085,7.385,7.385,0,0,1,.722,4.516,13.546,13.546,0,0,1-.721,2.879c-.234.641-.377.971-.357.981" transform="translate(-44.946 -1.777)" fill="#fafafa"/>
        <rect id="Rectángulo_379900" data-name="Rectángulo 379900" width="19.757" height="38.815" transform="translate(43.165 6.249)" fill="#fafafa"/>
        <path id="Trazado_643077" data-name="Trazado 643077" d="M74.615,21.422a85.517,85.517,0,0,0,9.562.268,85.522,85.522,0,0,0,9.563-.268,85.523,85.523,0,0,0-9.563-.268,85.518,85.518,0,0,0-9.562.268" transform="translate(-30.771 -8.724)" fill="#e0e0e0"/>
        <path id="Trazado_643078" data-name="Trazado 643078" d="M74.2,26.429a83.264,83.264,0,0,0,9.44.269,83.247,83.247,0,0,0,9.44-.269,83.335,83.335,0,0,0-9.44-.268,83.352,83.352,0,0,0-9.44.268" transform="translate(-30.6 -10.789)" fill="#e0e0e0"/>
        <path id="Trazado_643079" data-name="Trazado 643079" d="M73.118,69.036a92.408,92.408,0,0,0,9.94.268A92.4,92.4,0,0,0,93,69.036a92.4,92.4,0,0,0-9.942-.268,92.407,92.407,0,0,0-9.94.268" transform="translate(-30.154 -28.36)" fill="#e0e0e0"/>
        <path id="Trazado_643080" data-name="Trazado 643080" d="M73.572,63.15a87.631,87.631,0,0,0,9.685.269,87.629,87.629,0,0,0,9.685-.269,87.727,87.727,0,0,0-9.685-.268,87.729,87.729,0,0,0-9.685.268" transform="translate(-30.341 -25.933)" fill="#e0e0e0"/>
        <rect id="Rectángulo_379901" data-name="Rectángulo 379901" width="11.388" height="42.621" transform="translate(101.194 2.151)" fill="#ebebeb"/>
        <path id="Trazado_643081" data-name="Trazado 643081" d="M181.075,46.9a.984.984,0,0,0,.133-.232c.081-.156.191-.394.324-.71a12.332,12.332,0,0,0,.827-2.89,7.528,7.528,0,0,0-.665-4.689,6.242,6.242,0,0,0-2.018-2.227,4.689,4.689,0,0,0-3.281-.775,3.455,3.455,0,0,0-1.7.783,2.241,2.241,0,0,0-.816,1.8,2.58,2.58,0,0,0,.974,1.806,3.529,3.529,0,0,0,1.942.825,5.17,5.17,0,0,0,4.036-1.47,6.487,6.487,0,0,0,2-4.1,10.887,10.887,0,0,0-.59-4.755,8.775,8.775,0,0,0-2.792-4.154A4.569,4.569,0,0,0,177,25.151a3.191,3.191,0,0,0-2.558.908,2.074,2.074,0,0,0-.585,1.333,2.435,2.435,0,0,0,.393,1.393,3.7,3.7,0,0,0,2.3,1.568,5.363,5.363,0,0,0,5.016-1.681,8.389,8.389,0,0,0,1.953-4.8,11.82,11.82,0,0,0-.49-4.975,6.874,6.874,0,0,0-2.942-3.784,5.041,5.041,0,0,0-4.524-.474,2.379,2.379,0,0,0-1.471,1.739,2.749,2.749,0,0,0,.518,2.147,3.556,3.556,0,0,0,3.836,1.015,6.628,6.628,0,0,0,3.026-2.149,9.668,9.668,0,0,0,2.27-5.845A9.43,9.43,0,0,0,180.9,4.5a7,7,0,0,0-.592-.51.962.962,0,0,0-.22-.15A10.83,10.83,0,0,1,182.5,7.012a9.278,9.278,0,0,1,.939,4.524,9.4,9.4,0,0,1-2.259,5.611,6.268,6.268,0,0,1-2.856,2,3.14,3.14,0,0,1-3.365-.887,2.3,2.3,0,0,1-.422-1.792,1.908,1.908,0,0,1,1.21-1.394,4.57,4.57,0,0,1,4.081.466,6.377,6.377,0,0,1,2.712,3.527,11.344,11.344,0,0,1,.452,4.752,7.878,7.878,0,0,1-1.826,4.5,4.841,4.841,0,0,1-4.5,1.517A3.168,3.168,0,0,1,174.7,28.5a1.633,1.633,0,0,1,.126-2.079,2.671,2.671,0,0,1,2.134-.744,4.047,4.047,0,0,1,2.178.858,8.28,8.28,0,0,1,2.624,3.9,10.419,10.419,0,0,1,.584,4.531,6.008,6.008,0,0,1-1.833,3.809,4.72,4.72,0,0,1-3.666,1.373,2.722,2.722,0,0,1-2.551-2.211,1.835,1.835,0,0,1,.666-1.48,3.082,3.082,0,0,1,1.5-.706,4.345,4.345,0,0,1,3.031.687,5.949,5.949,0,0,1,1.942,2.086,7.384,7.384,0,0,1,.721,4.516,13.516,13.516,0,0,1-.72,2.879c-.234.641-.377.971-.357.981" transform="translate(-71.697 -1.585)" fill="#fafafa"/>
        <rect id="Rectángulo_379902" data-name="Rectángulo 379902" width="15.824" height="44.772" transform="translate(21.739)" fill="#e0e0e0"/>
        <rect id="Rectángulo_379903" data-name="Rectángulo 379903" width="14.8" height="39.859" transform="translate(112.582 4.913)" fill="#e0e0e0"/>
        <path id="Trazado_643082" data-name="Trazado 643082" d="M217.416,42.063a12.4,12.4,0,0,0,2.353,1.673,8.2,8.2,0,0,0,2.977.826,7.686,7.686,0,0,0,3.695-.643c1.249-.534,2.394-1.218,3.554-1.619a5.592,5.592,0,0,1,3.226-.295,3.445,3.445,0,0,1,1.869,1.133,1.36,1.36,0,0,1,.366.712c-.038.019-.149-.246-.5-.6a3.5,3.5,0,0,0-1.809-.939,5.465,5.465,0,0,0-3.014.374c-1.1.4-2.227,1.089-3.52,1.644a7.846,7.846,0,0,1-3.907.641,8.044,8.044,0,0,1-3.088-.957A6.808,6.808,0,0,1,217.9,42.7a2.135,2.135,0,0,1-.481-.633" transform="translate(-89.662 -17.272)" fill="#fafafa"/>
        <path id="Trazado_643083" data-name="Trazado 643083" d="M216.849,48.776a12.371,12.371,0,0,0,2.353,1.673,8.2,8.2,0,0,0,2.977.826,7.685,7.685,0,0,0,3.695-.642c1.249-.534,2.394-1.219,3.554-1.619a5.587,5.587,0,0,1,3.226-.294,3.442,3.442,0,0,1,1.869,1.133,1.36,1.36,0,0,1,.366.712c-.038.019-.149-.246-.5-.6a3.5,3.5,0,0,0-1.809-.939,5.471,5.471,0,0,0-3.014.374c-1.1.4-2.227,1.089-3.52,1.645a7.852,7.852,0,0,1-3.907.64,8.045,8.045,0,0,1-3.088-.957,6.8,6.8,0,0,1-1.725-1.322,2.126,2.126,0,0,1-.481-.633" transform="translate(-89.429 -20.041)" fill="#fafafa"/>
        <path id="Trazado_643084" data-name="Trazado 643084" d="M217.267,27.02c0-.124,4.075-.225,9.1-.225s9.1.1,9.1.225-4.074.225-9.1.225-9.1-.1-9.1-.225" transform="translate(-89.602 -11.05)" fill="#fafafa"/>
        <path id="Trazado_643085" data-name="Trazado 643085" d="M203.885,18.976a2.146,2.146,0,0,0-1.287-.108,1.556,1.556,0,0,0-1,.83,1.432,1.432,0,0,0,1.837,1.767,1.556,1.556,0,0,0,.791-1.032,2.151,2.151,0,0,0-.158-1.283c.015-.016.146.055.284.276a1.615,1.615,0,0,1,.186,1.068,1.822,1.822,0,0,1-.92,1.344,1.817,1.817,0,0,1-2.4-2.308,1.823,1.823,0,0,1,1.307-.971,1.613,1.613,0,0,1,1.074.145c.226.129.3.257.287.273" transform="translate(-82.924 -7.641)" fill="#fafafa"/>
        <path id="Trazado_643086" data-name="Trazado 643086" d="M204.07,51.889c-.125,0-.225-5.587-.225-12.478s.1-12.479.225-12.479.225,5.586.225,12.479-.1,12.478-.225,12.478" transform="translate(-84.066 -11.107)" fill="#fafafa"/>
        <rect id="Rectángulo_379904" data-name="Rectángulo 379904" width="153.175" height="8.743" transform="translate(7.893 44.545)" fill="#ebebeb"/>
        <rect id="Rectángulo_379905" data-name="Rectángulo 379905" width="13.374" height="8.743" transform="translate(147.694 44.545)" fill="#e0e0e0"/>
      </g>
    </g>
    <g id="Grupo_1075219" data-name="Grupo 1075219">
      <g id="Grupo_1075218" data-name="Grupo 1075218" clip-path="url(#clip-path)">
        <path id="Trazado_643087" data-name="Trazado 643087" d="M286.7,54.358l-.747,60.177c-.128,10.233,1.777,25.291,17.966,24.755,14.011-1.525,17.727-14.788,17.836-24.338.051-4.53.1-8.307.14-8.773,0,0,15.337-1.25,16.631-16.4.626-7.32.686-22.5.582-36.239a28.319,28.319,0,0,0-26.266-28.013l-1.462-.107c-15.842-.231-24.888,13.1-24.68,28.938" transform="translate(-117.924 -10.482)" fill="#ffbe9d"/>
        <path id="Trazado_643088" data-name="Trazado 643088" d="M333.562,157.753a36.727,36.727,0,0,1-19.315-7.278s4.007,11.426,19.236,11.166Z" transform="translate(-129.596 -62.056)" fill="#eb996e"/>
        <path id="Trazado_643089" data-name="Trazado 643089" d="M325.8,81.961c-.3.307-2.051-1.1-4.589-1.17-2.534-.106-4.433,1.177-4.7.85-.132-.145.182-.705,1.009-1.286a6.353,6.353,0,0,1,3.773-1.07,6.129,6.129,0,0,1,3.641,1.324c.763.637,1.012,1.215.865,1.351" transform="translate(-130.518 -32.696)" fill="#263238"/>
        <path id="Trazado_643090" data-name="Trazado 643090" d="M328.548,91.37a2.054,2.054,0,0,1-2.126,1.922,1.964,1.964,0,0,1-1.976-2,2.055,2.055,0,0,1,2.124-1.924,1.966,1.966,0,0,1,1.978,2" transform="translate(-133.802 -36.855)" fill="#263238"/>
        <path id="Trazado_643091" data-name="Trazado 643091" d="M343.158,100.208a15.442,15.442,0,0,1,3.834-.407c.6-.018,1.171-.095,1.3-.494a3.037,3.037,0,0,0-.269-1.793q-.681-2.22-1.428-4.659c-1.973-6.629-3.354-12.062-3.086-12.139s2.084,5.234,4.056,11.862q.709,2.45,1.353,4.681a3.46,3.46,0,0,1,.138,2.358,1.5,1.5,0,0,1-1.042.8,4.061,4.061,0,0,1-1.021.067,15.2,15.2,0,0,1-3.836-.275" transform="translate(-141.52 -33.287)" fill="#263238"/>
        <path id="Trazado_643092" data-name="Trazado 643092" d="M323.87,66.267c-.245.563-2.277.139-4.71.264-2.435.073-4.433.662-4.715.12-.125-.259.254-.777,1.081-1.28a7.675,7.675,0,0,1,3.562-1,7.6,7.6,0,0,1,3.618.71c.858.434,1.27.92,1.163,1.188" transform="translate(-129.668 -26.543)" fill="#263238"/>
        <path id="Trazado_643093" data-name="Trazado 643093" d="M364.987,74.225c-.266.459-2.247-.051-4.647-.125-2.4-.118-4.392.233-4.646-.246-.111-.229.285-.64,1.121-1a8.383,8.383,0,0,1,3.55-.586,8.654,8.654,0,0,1,3.529.869c.826.431,1.209.874,1.092,1.093" transform="translate(-146.682 -29.798)" fill="#263238"/>
        <path id="Trazado_643094" data-name="Trazado 643094" d="M280.474,93.4c-.25-.13-10.193-3.842-10.619,6.548s10.093,8.675,10.124,8.377.5-14.925.5-14.925" transform="translate(-111.284 -38.211)" fill="#ffbe9d"/>
        <path id="Trazado_643095" data-name="Trazado 643095" d="M278.818,106.583c-.045-.035-.186.119-.5.247a1.81,1.81,0,0,1-1.354-.028c-1.081-.448-1.934-2.228-1.908-4.1a5.993,5.993,0,0,1,.613-2.571,2.093,2.093,0,0,1,1.419-1.334.923.923,0,0,1,1.048.54c.128.3.053.5.107.521.028.027.23-.165.164-.6a1.153,1.153,0,0,0-.382-.668,1.367,1.367,0,0,0-.99-.3,2.544,2.544,0,0,0-1.957,1.533,6.149,6.149,0,0,0-.746,2.87c-.019,2.1.972,4.1,2.457,4.6a1.94,1.94,0,0,0,1.666-.207c.332-.244.4-.474.361-.494" transform="translate(-113.136 -40.532)" fill="#eb996e"/>
        <path id="Trazado_643096" data-name="Trazado 643096" d="M335.127,121.436c.113-.263-1.922-.872-3.353-2.782a11.642,11.642,0,0,1-1.438-2.714c-.3-.754-.533-1.227-.645-1.193s-.079.544.088,1.364a7.672,7.672,0,0,0,1.337,3.039,6.211,6.211,0,0,0,2.654,2.032c.793.321,1.33.341,1.357.253" transform="translate(-135.94 -47.322)" fill="#263238"/>
        <path id="Trazado_643097" data-name="Trazado 643097" d="M349.832,33.543a2.454,2.454,0,0,0-1.152-1.433,7.55,7.55,0,0,0-3.873-.628,21.878,21.878,0,0,1-11.392-3.463,50.962,50.962,0,0,0-5.3-6.425c-4.592-4.735-8.37-7.957-12.278-9.53-5.055-2.035-13.509-2.86-18.78-1.477s-10,5.659-10.737,11.059c-2.956-2.5-7.394-2.478-10.994-1.031l-.09-.039c-4.009,1.429-6.287,5.665-7.47,9.754s-1.688,8.461-3.853,12.126c-.452.766-.99,1.684-.6,2.481a1.691,1.691,0,0,0,1.77.771,4.955,4.955,0,0,0,1.866-.844l-1.341,3.212a9.477,9.477,0,0,0,4.361-.291,92.967,92.967,0,0,0,2.852,10.782c1.676,0,3.21.115,4.244,1.044,1.4,1.263,2.032,3.638,4.366,2.736,1.188-.459,2.271-2.95,2.669-4.16a59.12,59.12,0,0,0,2.56-25.026,19,19,0,0,1,5.868-4.235l-.179.162c4.234-1.471,9.023-2.917,13.039-.93,3.116,1.542,4.948,4.775,7.277,7.355a23.784,23.784,0,0,0,16.952,7.83c.224,4.265-.134,10.295.09,14.56l3.588-6.833,0,.034c.294-.5.536-1,.772-1.51l.081-.153v-.019a26.46,26.46,0,0,1,1.2-2.427l.041.036a2.665,2.665,0,0,0,3.894-3.564A6.009,6.009,0,0,0,338,42.173a4.217,4.217,0,0,0,4.016,1.041,3.308,3.308,0,0,0,2.34-3.271,2.813,2.813,0,0,0-1.677-2.256,9.5,9.5,0,0,0,5.4-1.191c1.067-.609,2.114-1.61,1.752-2.952" transform="translate(-108.535 -4.084)" fill="#263238"/>
        <path id="Trazado_643098" data-name="Trazado 643098" d="M295.066,32.849a13.037,13.037,0,0,0-1.52,1.39,10.866,10.866,0,0,0-2.326,5.031,19.069,19.069,0,0,0-.387,3.851c-.006,1.4.106,2.89.213,4.465a39.938,39.938,0,0,1,.113,4.969,17.5,17.5,0,0,1-.341,2.621,5.467,5.467,0,0,1-1.069,2.543,2.286,2.286,0,0,1-2.138.719,3.4,3.4,0,0,1-1.924-1.086,7.861,7.861,0,0,1-1.461-3.853l.318.038a12.683,12.683,0,0,1-1.844,3.175,4.511,4.511,0,0,1-2.948,1.605,2.914,2.914,0,0,1-1.562-.273A2.525,2.525,0,0,1,277.128,57a2.6,2.6,0,0,1-.322-1.343,1.887,1.887,0,0,1,.487-1.179l.161.143a9.775,9.775,0,0,1-3.255,2.443,8.73,8.73,0,0,1-1.009.391,1.679,1.679,0,0,1-.361.09,1.832,1.832,0,0,1,.342-.146c.225-.093.56-.227.978-.44a10.065,10.065,0,0,0,3.142-2.478l.161.143a1.942,1.942,0,0,0-.1,2.252,2.273,2.273,0,0,0,.96.925,2.641,2.641,0,0,0,1.416.23,4.231,4.231,0,0,0,2.736-1.525,12.5,12.5,0,0,0,1.775-3.107l.218-.486.1.525a7.6,7.6,0,0,0,1.39,3.681,3.061,3.061,0,0,0,1.722.972,1.93,1.93,0,0,0,1.818-.609,5.174,5.174,0,0,0,.987-2.379,17.376,17.376,0,0,0,.34-2.568,40.554,40.554,0,0,0-.093-4.928c-.1-1.574-.2-3.075-.18-4.489a19,19,0,0,1,.436-3.9,10.719,10.719,0,0,1,2.469-5.07,6.145,6.145,0,0,1,1.622-1.3" transform="translate(-112.515 -13.547)" fill="#455a64"/>
        <path id="Trazado_643099" data-name="Trazado 643099" d="M357.915,41.623s-.038.04-.122.1l-.378.276a5.079,5.079,0,0,1-.642.412,8.018,8.018,0,0,1-.922.485,13.432,13.432,0,0,1-6.486,1.167,17.17,17.17,0,0,1-9.146-3.377,29.754,29.754,0,0,1-7.857-9.056c-1.1-1.835-2-3.716-2.991-5.453a20.086,20.086,0,0,0-3.386-4.613,10.342,10.342,0,0,0-4.366-2.65,7.413,7.413,0,0,0-2.3-.265,8.151,8.151,0,0,0-2.108.4,8.77,8.77,0,0,0-4.869,4.12,10.568,10.568,0,0,0-.783,2.272.543.543,0,0,1,.012-.159c.019-.125.043-.278.072-.464a7.607,7.607,0,0,1,.575-1.711,8.633,8.633,0,0,1,1.7-2.3,8.87,8.87,0,0,1,3.215-1.995,8.34,8.34,0,0,1,2.175-.441,7.672,7.672,0,0,1,2.4.255,10.6,10.6,0,0,1,4.515,2.7,20.246,20.246,0,0,1,3.46,4.676c1,1.75,1.9,3.626,2.994,5.444a29.757,29.757,0,0,0,7.745,8.973,17.064,17.064,0,0,0,8.97,3.392,13.648,13.648,0,0,0,6.414-1.042,21.385,21.385,0,0,0,2.121-1.151" transform="translate(-128.486 -7.577)" fill="#455a64"/>
        <path id="Trazado_643100" data-name="Trazado 643100" d="M381.529,46.607a2.368,2.368,0,0,1-.544.378,11.713,11.713,0,0,1-1.609.817,15.674,15.674,0,0,1-2.548.837,16.5,16.5,0,0,1-6.538.209,15.709,15.709,0,0,1-2.6-.672,11.742,11.742,0,0,1-1.658-.713,2.378,2.378,0,0,1-.566-.343c.029-.06.866.37,2.3.817a17.954,17.954,0,0,0,2.57.588,17.7,17.7,0,0,0,6.415-.206,17.87,17.87,0,0,0,2.526-.751c1.406-.538,2.213-1.021,2.246-.963" transform="translate(-150.721 -19.219)" fill="#455a64"/>
        <path id="Trazado_643101" data-name="Trazado 643101" d="M365.177,83.588c-.3.307-2.05-1.1-4.589-1.17-2.534-.106-4.433,1.177-4.7.85-.132-.145.182-.705,1.009-1.286a6.357,6.357,0,0,1,3.773-1.071,6.132,6.132,0,0,1,3.641,1.325c.763.637,1.012,1.215.864,1.351" transform="translate(-146.758 -33.367)" fill="#263238"/>
        <path id="Trazado_643102" data-name="Trazado 643102" d="M364.433,92.625a2.055,2.055,0,0,1-2.127,1.922,1.964,1.964,0,0,1-1.976-2,2.055,2.055,0,0,1,2.124-1.924,1.967,1.967,0,0,1,1.978,2" transform="translate(-148.601 -37.373)" fill="#263238"/>
        <path id="Trazado_643103" data-name="Trazado 643103" d="M505.222,184.193a4.183,4.183,0,0,0-4.207-4.4c-1.6-2.1-3.405-1.34-3.405-1.34l-6.81,4.594c-1,1.722-7.611,8.23-7.611,8.23-1.8-1.34-1.8-4.019-3.963-7.273s-7.053-2.871-7.053-2.871,3.806,8.613,4.207,13.972-2.926,20.307-2.926,20.307l19.254,5.411s1.215-8.2,3.373-8.862c2.6-.8,4.041-4.628,4.041-4.628,2.807-5.686,8.506-13.95,9.308-18.161s-4.207-4.976-4.207-4.976" transform="translate(-194.725 -73.538)" fill="#ffbe9d"/>
        <path id="Trazado_643104" data-name="Trazado 643104" d="M260.832,172.12c12.264,7.706,24.623,10.606,37.14,5.615l18.817,4.806L335.3,306.226l-108.543.942,5.348-28.727,13.456-103.215Z" transform="translate(-93.516 -70.983)" fill="#283455"/>
        <path id="Trazado_643105" data-name="Trazado 643105" d="M379.977,189.855s14.635,6.077,20.22,16.722S414.76,247.1,414.76,247.1L431.3,216.734l30.691,7.846s-22.845,63.012-28.58,68.749c-6.279,6.28-23.39,12.613-31.768,7.726s-10.083-23.438-10.083-23.438Z" transform="translate(-156.704 -78.297)" fill="#283455"/>
        <path id="Trazado_643106" data-name="Trazado 643106" d="M381.587,260.673c-.085,0-.153-5.493-.153-12.269s.068-12.27.153-12.27.153,5.493.153,12.27-.068,12.269-.153,12.269" transform="translate(-157.305 -97.382)" fill="#263238"/>
        <path id="Trazado_643107" data-name="Trazado 643107" d="M388.4,201.883a18.262,18.262,0,0,1-.714,2.026c-.461,1.242-1.072,2.966-1.671,4.9s-1.066,3.7-1.387,4.984a18.258,18.258,0,0,1-.556,2.075,2.123,2.123,0,0,1,.057-.576c.055-.367.153-.9.288-1.547.268-1.3.706-3.087,1.306-5.026s1.249-3.658,1.762-4.884c.257-.613.475-1.1.637-1.439a2.122,2.122,0,0,1,.278-.508" transform="translate(-158.39 -83.257)" fill="#263238"/>
        <path id="Trazado_643108" data-name="Trazado 643108" d="M212.416,223.522l3.4-46.6s-25.549,2.37-34,20.395c-7.125,15.189-26.791,60.889-28.9,67.141-6.177,18.345,3.473,43.566,43.254,42.105l4.535-24.94Z" transform="translate(-62.355 -72.962)" fill="#283455"/>
        <path id="Trazado_643109" data-name="Trazado 643109" d="M206.694,357.024a2.982,2.982,0,0,1,.208-.447l.649-1.255,2.437-4.585.814-1.517a4.491,4.491,0,0,1,1.168-1.5,3.177,3.177,0,0,1,1.965-.565,8.946,8.946,0,0,1,2.118.343,21.722,21.722,0,0,1,4.275,1.617,11.334,11.334,0,0,1,2.052,1.307l.236.206a.767.767,0,0,1,.2.316,2.658,2.658,0,0,1,.129.642,10,10,0,0,1,.028,1.265c-.062,1.685-.271,3.308-.481,4.874s-.455,3.068-.694,4.5c-.481,2.86-.962,5.427-1.374,7.581l-1,5.1q-.171.87-.273,1.384a3.934,3.934,0,0,1-.1.482,2.408,2.408,0,0,1,.042-.492c.042-.321.115-.791.217-1.4.219-1.237.525-2.977.9-5.113.385-2.158.844-4.727,1.309-7.587.232-1.43.464-2.932.675-4.493s.411-3.182.472-4.842a9.747,9.747,0,0,0-.026-1.226,2.372,2.372,0,0,0-.11-.565.455.455,0,0,0-.122-.2l-.225-.2a11.1,11.1,0,0,0-1.994-1.275,21.742,21.742,0,0,0-4.21-1.611,8.732,8.732,0,0,0-2.05-.347,2.924,2.924,0,0,0-1.81.5,4.282,4.282,0,0,0-1.113,1.412q-.433.785-.83,1.506l-2.523,4.539-.7,1.227a2.965,2.965,0,0,1-.262.418" transform="translate(-85.241 -143.167)" fill="#263238"/>
        <path id="Trazado_643110" data-name="Trazado 643110" d="M175.255,326.267a1.109,1.109,0,0,1,.3-.009l.858.033c.744.036,1.82.1,3.148.223a40.868,40.868,0,0,1,4.64.675A23.743,23.743,0,0,1,189.658,329a21.407,21.407,0,0,1,4.8,3.168,12.825,12.825,0,0,1,2.914,3.682,8.16,8.16,0,0,1,.883,3.04,5.4,5.4,0,0,1,.016.861,1.089,1.089,0,0,1-.025.3c-.033,0-.022-.415-.11-1.147a8.557,8.557,0,0,0-.957-2.953,12.986,12.986,0,0,0-2.909-3.571,21.784,21.784,0,0,0-4.747-3.1,24.361,24.361,0,0,0-5.382-1.808,45.154,45.154,0,0,0-4.6-.736c-1.321-.15-2.394-.246-3.135-.319l-.853-.09a1.107,1.107,0,0,1-.3-.052" transform="translate(-72.276 -134.549)" fill="#263238"/>
        <path id="Trazado_643111" data-name="Trazado 643111" d="M218.107,322.27a11.052,11.052,0,0,1-.635,1.834c-.438,1.116-1.089,2.637-1.837,4.3l-1.917,4.262a13.583,13.583,0,0,1-.835,1.75,11.015,11.015,0,0,1,.635-1.834c.438-1.116,1.089-2.638,1.838-4.3l1.917-4.262a13.516,13.516,0,0,1,.834-1.75" transform="translate(-87.792 -132.905)" fill="#263238"/>
        <path id="Trazado_643112" data-name="Trazado 643112" d="M245.732,250.586c-.085,0-.153-2.954-.153-6.6s.068-6.6.153-6.6.153,2.953.153,6.6-.068,6.6-.153,6.6" transform="translate(-101.278 -97.901)" fill="#263238"/>
        <g id="Grupo_1075208" data-name="Grupo 1075208" transform="translate(112.701 205.497)" opacity="0.3">
          <g id="Grupo_1075207" data-name="Grupo 1075207">
            <g id="Grupo_1075206" data-name="Grupo 1075206" clip-path="url(#clip-path-4)">
              <path id="Trazado_643113" data-name="Trazado 643113" d="M205.071,349.725c-6.721,2.345-11.264,8.443-13.1,15.32a2.375,2.375,0,0,0,.162,2.142,1.691,1.691,0,0,0,2.11.173,4.934,4.934,0,0,0,1.5-1.723,176.634,176.634,0,0,0,9.332-15.912" transform="translate(-191.8 -349.725)"/>
            </g>
          </g>
        </g>
        <g id="Grupo_1075211" data-name="Grupo 1075211" transform="translate(96.421 189.141)" opacity="0.3">
          <g id="Grupo_1075210" data-name="Grupo 1075210">
            <g id="Grupo_1075209" data-name="Grupo 1075209" clip-path="url(#clip-path-5)">
              <path id="Trazado_643114" data-name="Trazado 643114" d="M185.308,324.949a27.1,27.1,0,0,0-11.569-3.034,17.572,17.572,0,0,0-4.677.411c-2.1.441-4.51,1.5-4.968,3.007,4.824-1.511,11.925-.515,16.863.564a18.116,18.116,0,0,1,11.807,8.366,16.841,16.841,0,0,0-7.455-9.313" transform="translate(-164.094 -321.889)"/>
            </g>
          </g>
        </g>
        <path id="Trazado_643115" data-name="Trazado 643115" d="M232.584,214.418a3.791,3.791,0,0,1-.234-.736c-.126-.478-.331-1.165-.608-2a32.348,32.348,0,0,0-6.943-11.8c-.6-.65-1.1-1.162-1.456-1.5a3.764,3.764,0,0,1-.529-.562,3.731,3.731,0,0,1,.61.474c.383.316.91.808,1.533,1.443a29.133,29.133,0,0,1,6.992,11.883c.253.853.427,1.552.517,2.041a3.734,3.734,0,0,1,.118.763" transform="translate(-91.889 -81.578)" fill="#263238"/>
        <path id="Trazado_643116" data-name="Trazado 643116" d="M235.117,343.329l-28.469-68.687c-1.3-3.134.331-5.675,3.64-5.675h5.728c2.337,0,3.93-1.287,4.08-3.3l.19-2.526c.152-2.01,1.747-3.3,4.087-3.3H251.59a9.525,9.525,0,0,1,6.3,2.788l2.209,2.141a9.521,9.521,0,0,0,6.3,2.788h34.664a9.673,9.673,0,0,1,8.279,5.676l28.222,70.089Z" transform="translate(-85.038 -107.162)" fill="#196442"/>
        <path id="Trazado_643118" data-name="Trazado 643118" d="M239.759,329.242l-10.737-41.513c-.707-2.733,1.084-5.476,3.575-5.476h84.16a3.839,3.839,0,0,1,3.584,3.092l15.629,62.484c.686,2.743-.411,4.389-2.905,4.358l-84.677.026a3.841,3.841,0,0,1-3.537-3.067Z" transform="translate(-94.385 -116.402)" fill="#e0e0e0"/>
        <path id="Trazado_643119" data-name="Trazado 643119" d="M254.085,349.83l-4.574-65.374a4.009,4.009,0,0,1,4-4.289h87.2V349.83Z" transform="translate(-102.895 -115.541)" fill="#ebebeb"/>
        <path id="Trazado_643120" data-name="Trazado 643120" d="M255.642,351.326l10.374-67.4a4.829,4.829,0,0,1,4.741-3.764H358.97a4.768,4.768,0,0,1,4.453,6.643l-19.048,61.677Z" transform="translate(-105.428 -115.541)" fill="#fafafa"/>
        <path id="Trazado_643121" data-name="Trazado 643121" d="M255.412,354.488l21.394-63.121a6.333,6.333,0,0,1,5.95-4.388h90.939a4.444,4.444,0,0,1,4.061,5.9l-19.9,61.642Z" transform="translate(-105.333 -118.351)" fill="#1b8153"/>
        <g id="Grupo_1075217" data-name="Grupo 1075217" transform="translate(151.934 198.445)" opacity="0.3">
          <g id="Grupo_1075216" data-name="Grupo 1075216">
            <g id="Grupo_1075215" data-name="Grupo 1075215" clip-path="url(#clip-path-6)">
              <path id="Trazado_643122" data-name="Trazado 643122" d="M300.682,364.847s-3.433.157-5.016.265a46.731,46.731,0,0,1-22.1-3.92c-2.139-.954-4.4-2.3-5.05-4.55-.725-2.522.908-5.146,2.9-6.855s4.412-2.926,6.14-4.9,2.547-5.168.844-7.164l-.471.344c-1.23,3.117-4.656,4.621-7.493,6.4a26.444,26.444,0,0,0-11.1,14.514c-1,3.268-1.265,7.079.716,9.863,1.406,1.975,3.707,3.1,5.98,3.941,6.88,2.551,14.233,2.647,21.571,2.655,2.318,0,9.433-.1,9.433-.1,2.237-.609,2.975-1.773,4.322-3.66,1.236-1.733.966-5.485-.673-6.843" transform="translate(-258.568 -337.724)"/>
            </g>
          </g>
        </g>
        <path id="Trazado_643123" data-name="Trazado 643123" d="M288.433,363.792l-23.718-3.566-9.209-5.3a4.155,4.155,0,0,1-2.117-3.345c0-.026,0-.052,0-.078a4.2,4.2,0,0,1,2.606-4.014c2.921-1.231,7.549-2.869,9.523-6.326,2.836-4.969,0-6,0-6l-19.807,7.917-14.021,9.543-2.821,15.912,19.563,6.389s21.8,1.229,27.814.554S282.26,372,282.26,372c1.116-.349,3.375-2.332,3.374-4.18,2.919-2.738,2.8-4.03,2.8-4.03" transform="translate(-94.386 -138.223)" fill="#ffbe9d"/>
        <path id="Trazado_643124" data-name="Trazado 643124" d="M278.611,395.535a4.686,4.686,0,0,1,.977.187c.62.15,1.521.35,2.638.572a55.763,55.763,0,0,0,17.7.691c1.131-.135,2.045-.264,2.675-.366a4.737,4.737,0,0,1,.988-.11,4.612,4.612,0,0,1-.96.264c-.623.15-1.534.322-2.666.494a48.185,48.185,0,0,1-17.8-.695c-1.115-.26-2.01-.5-2.62-.7a4.739,4.739,0,0,1-.936-.338" transform="translate(-114.9 -163.117)" fill="#eb996e"/>
        <path id="Trazado_643125" data-name="Trazado 643125" d="M282.3,389.294a4.9,4.9,0,0,1,.992.189c.629.153,1.545.351,2.681.569a57.594,57.594,0,0,0,8.966.991,60.865,60.865,0,0,0,9.015-.414c1.148-.139,2.076-.27,2.715-.374a4.89,4.89,0,0,1,1-.113,4.848,4.848,0,0,1-.974.267c-.632.152-1.557.327-2.706.5a51.011,51.011,0,0,1-9.065.534,48.717,48.717,0,0,1-9.011-1.115c-1.134-.256-2.044-.5-2.663-.7a4.8,4.8,0,0,1-.951-.341" transform="translate(-116.42 -160.544)" fill="#eb996e"/>
        <path id="Trazado_643126" data-name="Trazado 643126" d="M478.2,193.791l-42.142,8.323a5.374,5.374,0,0,1-6.314-4.231l-11.521-58.33a5.375,5.375,0,0,1,4.231-6.314l26.727-5.279,24.9,17.237,8.35,42.28a5.375,5.375,0,0,1-4.231,6.314" transform="translate(-172.433 -52.771)" fill="#ebebeb"/>
        <path id="Trazado_643127" data-name="Trazado 643127" d="M470.978,127.96l3.242,16.416a5,5,0,0,0,5.872,3.936l15.785-3.115Z" transform="translate(-194.233 -52.771)" fill="#f5f5f5"/>
        <path id="Trazado_643128" data-name="Trazado 643128" d="M477.347,157.873a5.558,5.558,0,0,0,5.37,4.436,5.2,5.2,0,0,0,.542.014c2.134-.038,16.179-.3,16.117-.616-.066-.337-.871-4.411-.871-4.411l-15.785,3.117s-3.968.644-5.373-2.54" transform="translate(-196.859 -64.869)" fill="#e0e0e0"/>
        <path id="Trazado_643129" data-name="Trazado 643129" d="M478.092,193.682s.076-.026.227-.067a4.586,4.586,0,0,0,.663-.217,5.334,5.334,0,0,0,3.334-5.684c-.309-1.708-.728-3.674-1.161-5.878l-7.308-36.723.052.08-24.911-17.221.112.023-15.421,3.051-8.067,1.595-2.047.4a13.735,13.735,0,0,0-2.014.475,5.224,5.224,0,0,0-2.917,2.732,5.155,5.155,0,0,0-.423,2.793c.149.946.368,1.915.547,2.866q.565,2.865,1.123,5.69,1.115,5.65,2.195,11.124l4.145,21.03q.989,5.027,1.928,9.794.468,2.382.923,4.692.227,1.155.451,2.292a12.352,12.352,0,0,0,.537,2.2,5.265,5.265,0,0,0,3.071,2.932,5.209,5.209,0,0,0,2.09.3,20.044,20.044,0,0,0,2.088-.356l7.956-1.561,24.014-4.694,6.532-1.261,1.7-.32c.383-.07.581-.1.581-.1s-.194.049-.575.129l-1.694.35-6.521,1.317-24,4.789-7.953,1.581a19.945,19.945,0,0,1-2.118.364,5.452,5.452,0,0,1-2.188-.313,5.515,5.515,0,0,1-3.222-3.066,12.517,12.517,0,0,1-.555-2.25l-.455-2.291q-.457-2.309-.93-4.69-.943-4.761-1.94-9.791c-1.326-6.7-2.719-13.734-4.162-21.027q-1.081-5.47-2.2-11.124-.558-2.824-1.125-5.689c-.18-.961-.395-1.9-.55-2.887a5.46,5.46,0,0,1,.448-2.958,5.53,5.53,0,0,1,3.089-2.892,13.954,13.954,0,0,1,2.062-.489l2.047-.4,8.068-1.592,15.423-3.041.061-.012.051.035,24.889,17.253.042.029.01.051c2.994,15.272,5.471,27.913,7.2,36.745.423,2.209.83,4.168,1.129,5.892a5.4,5.4,0,0,1-1.211,4.163A5.333,5.333,0,0,1,479,193.435a3.99,3.99,0,0,1-.673.2c-.153.035-.232.048-.232.048" transform="translate(-172.328 -52.662)" fill="#263238"/>
        <path id="Trazado_643130" data-name="Trazado 643130" d="M495.876,145.2a2.09,2.09,0,0,1-.4.11l-1.157.257-4.267.891-6.335,1.284-3.748.741a5.159,5.159,0,0,1-5.368-2.6,5.964,5.964,0,0,1-.626-1.958l-.731-3.747c-.458-2.382-.871-4.531-1.22-6.348-.331-1.783-.6-3.238-.8-4.285-.083-.482-.15-.87-.2-1.168a2.079,2.079,0,0,1-.05-.411,2.034,2.034,0,0,1,.11.4c.066.294.152.679.258,1.157.218,1.042.521,2.491.892,4.266.368,1.814.8,3.959,1.285,6.336.239,1.194.489,2.446.749,3.744a5.669,5.669,0,0,0,.6,1.87,4.87,4.87,0,0,0,5.051,2.454l3.744-.722,6.348-1.219,4.285-.8,1.168-.2a2.082,2.082,0,0,1,.411-.05" transform="translate(-194.231 -52.771)" fill="#263238"/>
        <path id="Trazado_643131" data-name="Trazado 643131" d="M458.942,153.154c.016.083-4.948,1.133-11.087,2.346s-11.131,2.129-11.147,2.046,4.947-1.133,11.088-2.346,11.13-2.128,11.146-2.045" transform="translate(-180.1 -63.159)" fill="#263238"/>
        <path id="Trazado_643132" data-name="Trazado 643132" d="M472.243,163.547c.016.083-7.31,1.6-16.361,3.387s-16.406,3.171-16.422,3.088,7.308-1.6,16.363-3.388,16.4-3.17,16.42-3.087" transform="translate(-181.235 -67.446)" fill="#263238"/>
        <path id="Trazado_643133" data-name="Trazado 643133" d="M475,177.484c.016.083-7.31,1.6-16.361,3.387s-16.406,3.171-16.422,3.088,7.308-1.6,16.363-3.388,16.4-3.17,16.42-3.087" transform="translate(-182.37 -73.193)" fill="#263238"/>
        <path id="Trazado_643134" data-name="Trazado 643134" d="M444.965,197.9c-.016-.083,7.31-1.6,16.361-3.387s16.406-3.171,16.422-3.088-7.308,1.6-16.363,3.388-16.4,3.17-16.42,3.087" transform="translate(-183.505 -78.941)" fill="#263238"/>
        <path id="Trazado_643135" data-name="Trazado 643135" d="M480.5,205.358c.016.083-7.31,1.6-16.361,3.387s-16.406,3.171-16.422,3.088,7.308-1.6,16.363-3.388,16.4-3.17,16.42-3.087" transform="translate(-184.64 -84.689)" fill="#263238"/>
        <path id="Trazado_643136" data-name="Trazado 643136" d="M483.254,219.294c.016.083-7.31,1.6-16.361,3.387s-16.406,3.171-16.422,3.088,7.308-1.6,16.363-3.388,16.4-3.17,16.42-3.087" transform="translate(-185.776 -90.436)" fill="#263238"/>
        <path id="Trazado_643137" data-name="Trazado 643137" d="M451.2,217.225l-30.927,6.108a2.48,2.48,0,0,1-2.914-1.953l-2.215-11.216a2.481,2.481,0,0,1,1.953-2.914l30.927-6.108a2.48,2.48,0,0,1,2.914,1.953l2.216,11.215a2.481,2.481,0,0,1-1.953,2.914" transform="translate(-171.188 -82.932)" fill="#2d4587"/>
        <path id="Trazado_643138" data-name="Trazado 643138" d="M431.049,217.9l2.761-.545c1.989-.393,3.588.536,3.951,2.376s-.762,3.308-2.75,3.7l-2.761.545Zm3.664,4.391a1.924,1.924,0,1,0-.744-3.768l-1.284.254.744,3.768Z" transform="translate(-177.766 -89.601)" fill="#fff"/>
        <path id="Trazado_643139" data-name="Trazado 643139" d="M443.575,218.515A3.4,3.4,0,1,1,447.521,221a3.207,3.207,0,0,1-3.946-2.486m5.227-1.032a1.939,1.939,0,1,0-1.517,2.32,1.89,1.89,0,0,0,1.517-2.32" transform="translate(-182.905 -88.518)" fill="#fff"/>
        <path id="Trazado_643140" data-name="Trazado 643140" d="M456.042,216.054a3.412,3.412,0,0,1,5.392-3.212l-.739,1.012a1.993,1.993,0,0,0-1.669-.41,1.982,1.982,0,1,0,.769,3.889,1.976,1.976,0,0,0,1.385-1.022l1.068.655a3.406,3.406,0,0,1-6.207-.913" transform="translate(-188.046 -87.504)" fill="#fff"/>
        <path id="Trazado_643141" data-name="Trazado 643141" d="M505.138,164.435s3.112-3.94,5.509-1.737,1.706,3.337-.573,6.82c0,0,5.087-.267,3.456,4.959,0,0,5.07-.561,4.582,3.715,0,0,3.828,3.746,1.837,6.161s-9.211,6.773-11.035,6.023-1.838-3.332-1.838-3.332-2.169-.977-2.768-2.12.43-2.745.43-2.745-1.829-1.869-2.282-2.39.248-2.946.248-2.946l2.92-2.833s-4.02,1.748-4.858,1.081-1.782-1.243-.885-2.458a40.7,40.7,0,0,1,4.086-3.935Z" transform="translate(-206.002 -66.821)" fill="#ffbe9d"/>
        <path id="Trazado_643142" data-name="Trazado 643142" d="M513.072,198.686a13.862,13.862,0,0,1,1.317-1.6,15.392,15.392,0,0,1,3.714-3.4A35.84,35.84,0,0,0,522.278,191a19.709,19.709,0,0,0,1.423-1.464,3.711,3.711,0,0,1-1.195,1.719,24.665,24.665,0,0,1-4.144,2.839,18.685,18.685,0,0,0-3.721,3.224,6.541,6.541,0,0,1-1.569,1.369" transform="translate(-211.592 -78.164)" fill="#eb996e"/>
        <path id="Trazado_643143" data-name="Trazado 643143" d="M508.279,191.664a39.092,39.092,0,0,1,4.173-4.506c1.2-1.178,2.237-2.324,3.126-3.025a3.759,3.759,0,0,1,1.565-.924c.035.065-.548.42-1.339,1.182-.8.743-1.792,1.918-3.01,3.11a39.058,39.058,0,0,1-4.514,4.163" transform="translate(-209.614 -75.553)" fill="#eb996e"/>
        <path id="Trazado_643144" data-name="Trazado 643144" d="M509.905,179.108a17.947,17.947,0,0,1,2.339-2.258,30.337,30.337,0,0,0,2.062-2.46,4.879,4.879,0,0,1-1.723,2.806,8.164,8.164,0,0,1-2.678,1.911" transform="translate(-210.284 -71.919)" fill="#eb996e"/>
        <path id="Trazado_643145" data-name="Trazado 643145" d="M505.028,164.34a1.286,1.286,0,0,1-.052.291l-.2.83c-.2.763-.471,1.822-.818,3.169l-.008.03-.026.022c-.587.517-1.247,1.11-1.96,1.781a17.37,17.37,0,0,0-2.17,2.319,1.214,1.214,0,0,0-.221.737,1.165,1.165,0,0,0,.392.687,7.873,7.873,0,0,0,.716.592,1.083,1.083,0,0,0,.81.16,15.564,15.564,0,0,0,3.944-1.223l.941-.389-.726.71-2.91,2.843.044-.062a3.712,3.712,0,0,0-.15,2.957,8.254,8.254,0,0,0,2.3,2.347l.2.149-.159.188c-.635.75-1.085,1.937-.254,2.669a10.805,10.805,0,0,0,2.757,1.886l-.342.19,0-.057s0-.026,0-.016v0c.06.071-.136-.169.139.207.656-.31.19-.128.333-.179v0l0,.111,0,.238a4.521,4.521,0,0,0,.044.479,3.737,3.737,0,0,0,.253.921,2.438,2.438,0,0,0,.517.774,1.444,1.444,0,0,0,.754.433,4.588,4.588,0,0,0,1.923-.379,17.085,17.085,0,0,0,1.91-.858,31.454,31.454,0,0,0,3.4-2.056,19.807,19.807,0,0,0,2.973-2.44,2.408,2.408,0,0,0,.772-1.53,3.72,3.72,0,0,0-.313-1.712,9.736,9.736,0,0,0-2-2.907l-.072-.076.005-.112a3.661,3.661,0,0,0-.172-1.671,2.48,2.48,0,0,0-1.024-1.211,5.478,5.478,0,0,0-3.137-.6l-.293.019.07-.289c.077-.318.168-.631.233-.944a5.291,5.291,0,0,0,.073-.935,2.6,2.6,0,0,0-.525-1.655,3.815,3.815,0,0,0-3.029-1.185h-.341l.182-.277a28.267,28.267,0,0,0,1.638-2.672,3.925,3.925,0,0,0,.417-1.323,2.17,2.17,0,0,0-.261-1.232,5.5,5.5,0,0,0-1.6-1.738,2.35,2.35,0,0,0-1.9-.194,6.368,6.368,0,0,0-2.366,1.481c-.24.219-.411.4-.529.518a1.156,1.156,0,0,1-.183.176.818.818,0,0,1,.144-.21,7,7,0,0,1,.5-.557,7.737,7.737,0,0,1,.912-.8,4.845,4.845,0,0,1,1.469-.793,2.555,2.555,0,0,1,2.082.176l.487.356.441.421a5.039,5.039,0,0,1,.8,1.035,2.456,2.456,0,0,1,.313,1.391,4.2,4.2,0,0,1-.428,1.439,28.023,28.023,0,0,1-1.63,2.728l-.159-.276a5.315,5.315,0,0,1,1.773.253,3.278,3.278,0,0,1,1.581,1.048,2.992,2.992,0,0,1,.622,1.885,5.663,5.663,0,0,1-.072,1.015c-.066.333-.159.662-.239,1l-.222-.27a5.858,5.858,0,0,1,3.412.642,2.925,2.925,0,0,1,1.211,1.42,4.1,4.1,0,0,1,.208,1.886l-.066-.188a10.135,10.135,0,0,1,2.115,3.054,4.171,4.171,0,0,1,.351,1.936,3,3,0,0,1-.283.994,4.346,4.346,0,0,1-.612.816,20.153,20.153,0,0,1-3.046,2.511,31.707,31.707,0,0,1-3.452,2.09,17.543,17.543,0,0,1-1.965.882,4.947,4.947,0,0,1-2.161.4,2.4,2.4,0,0,1-1.641-1.495,4.179,4.179,0,0,1-.284-1.042,4.862,4.862,0,0,1-.048-.53l0-.267.007-.14,0-.028v-.008c.143-.052-.323.128.334-.182.276.373.079.135.14.207v.02l0,.047-.006.068-.032.355-.31-.165a11.168,11.168,0,0,1-2.891-2,2.265,2.265,0,0,1-.495-.793,1.872,1.872,0,0,1-.04-.939,3.607,3.607,0,0,1,.794-1.555l.038.336A8.578,8.578,0,0,1,502.243,180a3.091,3.091,0,0,1-.269-1.725,5.474,5.474,0,0,1,.428-1.609l.015-.033.03-.029,2.93-2.822.214.32a15.667,15.667,0,0,1-4.074,1.216,1.43,1.43,0,0,1-1.049-.243,8.188,8.188,0,0,1-.74-.628,1.485,1.485,0,0,1-.476-.891,1.515,1.515,0,0,1,.279-.932,16.992,16.992,0,0,1,2.255-2.346c.729-.662,1.4-1.243,2-1.749l-.033.052q.588-2.014.921-3.158l.251-.81a1.093,1.093,0,0,1,.1-.267" transform="translate(-205.892 -66.741)" fill="#eb996e"/>
      </g>
    </g>
    <g id="Grupo_1075221" data-name="Grupo 1075221">
      <g id="Grupo_1075220" data-name="Grupo 1075220" clip-path="url(#clip-path)">
        <path id="Trazado_643146" data-name="Trazado 643146" d="M116.259,178.456H80a4.536,4.536,0,0,1-4.536-4.537V123.736A4.536,4.536,0,0,1,80,119.2H103l17.8,18.345v36.375a4.536,4.536,0,0,1-4.536,4.537" transform="translate(-31.122 -49.158)" fill="#ebebeb"/>
        <path id="Trazado_643147" data-name="Trazado 643147" d="M122.318,119.2v14.123a4.219,4.219,0,0,0,4.219,4.22l13.58,0Z" transform="translate(-50.444 -49.158)" fill="#f5f5f5"/>
        <path id="Trazado_643148" data-name="Trazado 643148" d="M122.633,145.345a4.691,4.691,0,0,0,3.721,4.552,4.3,4.3,0,0,0,.446.1c1.773.317,13.447,2.394,13.447,2.125v-3.8H126.666s-3.39-.116-4.033-2.982" transform="translate(-50.574 -59.941)" fill="#e0e0e0"/>
        <path id="Trazado_643149" data-name="Trazado 643149" d="M116.15,178.348c0-.021.272.006.784-.092a4.547,4.547,0,0,0,2.057-.958,4.485,4.485,0,0,0,1.624-3.2c.023-1.463,0-3.161,0-5.056-.013-7.6-.032-18.47-.054-31.6l.036.089-17.812-18.332.105.045-13.269,0h-8.7a11.659,11.659,0,0,0-1.742.064,4.387,4.387,0,0,0-2.847,1.776,4.33,4.33,0,0,0-.8,2.232c-.032.8-.009,1.645-.016,2.461q0,2.464,0,4.895,0,4.86,0,9.57c0,6.274-.006,12.326-.009,18.092q0,4.324-.006,8.425,0,2.048,0,4.036l0,1.971a10.463,10.463,0,0,0,.083,1.909,4.419,4.419,0,0,0,3.728,3.509,16.831,16.831,0,0,0,1.785.047l6.844.01,20.652.049,5.614.028,1.46.015c.329.005.5.016.5.016s-.169.011-.5.016l-1.46.015-5.614.029-20.652.049-6.844.01a16.787,16.787,0,0,1-1.817-.045A4.617,4.617,0,0,1,77.5,177.8a4.671,4.671,0,0,1-2.176-3.078,10.607,10.607,0,0,1-.093-1.958l0-1.971q0-1.988,0-4.036,0-4.1-.006-8.425c0-5.766-.006-11.817-.009-18.092q0-4.706,0-9.57,0-2.43,0-4.895c.007-.826-.017-1.635.016-2.483a4.627,4.627,0,0,1,.859-2.388,4.688,4.688,0,0,1,3.046-1.9,11.766,11.766,0,0,1,1.792-.068h8.7l13.269,0h.062l.043.045,17.785,18.359.036.037v.052c-.022,13.134-.041,24.006-.054,31.6-.012,1.9,0,3.586-.032,5.064a4.561,4.561,0,0,1-1.689,3.253,4.5,4.5,0,0,1-2.1.937,3.39,3.39,0,0,1-.591.053c-.133,0-.2,0-.2,0" transform="translate(-31.014 -49.05)" fill="#263238"/>
        <path id="Trazado_643150" data-name="Trazado 643150" d="M140.01,137.544a1.478,1.478,0,0,1-.349.031l-1,.029-3.678.048-5.456.032-3.226,0a4.376,4.376,0,0,1-4.041-3.05,5.038,5.038,0,0,1-.2-1.731c0-1.116.006-2.194.009-3.222.012-2.044.023-3.89.032-5.456.021-1.522.037-2.769.049-3.679.012-.407.021-.738.029-1a1.491,1.491,0,0,1,.031-.348,1.517,1.517,0,0,1,.031.348c.008.262.017.593.029,1,.012.91.028,2.156.049,3.679.009,1.565.021,3.412.033,5.456,0,1.028.005,2.106.009,3.222a4.778,4.778,0,0,0,.189,1.639,4.09,4.09,0,0,0,3.759,2.842l3.217.015,5.456.034,3.678.049,1,.029a1.5,1.5,0,0,1,.349.031" transform="translate(-50.337 -49.158)" fill="#263238"/>
        <path id="Trazado_643151" data-name="Trazado 643151" d="M107.726,140.541c0,.085-4.282.153-9.564.153s-9.565-.068-9.565-.153,4.282-.153,9.565-.153,9.564.068,9.564.153" transform="translate(-36.538 -57.896)" fill="#263238"/>
        <path id="Trazado_643152" data-name="Trazado 643152" d="M116.8,152.531c0,.085-6.314.153-14.1.153s-14.1-.068-14.1-.153,6.313-.153,14.1-.153,14.1.068,14.1.153" transform="translate(-36.538 -62.841)" fill="#263238"/>
        <path id="Trazado_643153" data-name="Trazado 643153" d="M116.8,164.522c0,.085-6.314.153-14.1.153s-14.1-.068-14.1-.153,6.313-.153,14.1-.153,14.1.068,14.1.153" transform="translate(-36.538 -67.786)" fill="#263238"/>
        <path id="Trazado_643154" data-name="Trazado 643154" d="M116.8,176.512c0,.085-6.314.153-14.1.153s-14.1-.068-14.1-.153,6.313-.153,14.1-.153,14.1.068,14.1.153" transform="translate(-36.538 -72.731)" fill="#263238"/>
        <path id="Trazado_643155" data-name="Trazado 643155" d="M116.8,188.5c0,.085-6.314.153-14.1.153s-14.1-.068-14.1-.153,6.313-.153,14.1-.153,14.1.068,14.1.153" transform="translate(-36.538 -77.676)" fill="#263238"/>
        <path id="Trazado_643156" data-name="Trazado 643156" d="M116.8,200.493c0,.085-6.314.153-14.1.153s-14.1-.068-14.1-.153,6.313-.153,14.1-.153,14.1.068,14.1.153" transform="translate(-36.538 -82.621)" fill="#263238"/>
        <path id="Trazado_643157" data-name="Trazado 643157" d="M89.944,193.687H64.11a2.481,2.481,0,0,1-2.481-2.48V182.33a2.481,2.481,0,0,1,2.481-2.48H89.944a2.48,2.48,0,0,1,2.48,2.48v8.876a2.481,2.481,0,0,1-2.481,2.481" transform="translate(-25.416 -74.171)" fill="#84140c"/>
        <path id="Trazado_643158" data-name="Trazado 643158" d="M78.967,189.414c0,1.165-.874,1.889-2.27,1.889H75.644v1.441h-1.21v-5.228H76.7c1.4,0,2.27.725,2.27,1.9m-1.225,0c0-.575-.373-.911-1.113-.911h-.985v1.815h.985c.74,0,1.113-.336,1.113-.9" transform="translate(-30.697 -77.333)" fill="#fff"/>
        <path id="Trazado_643159" data-name="Trazado 643159" d="M83.61,187.518h2.375a2.626,2.626,0,1,1,0,5.227H83.61Zm2.315,4.234a1.623,1.623,0,1,0,0-3.241H84.82v3.241Z" transform="translate(-34.481 -77.333)" fill="#fff"/>
        <path id="Trazado_643160" data-name="Trazado 643160" d="M95.317,188.488v1.382h2.42v.971h-2.42v1.9h-1.21v-5.228h3.951v.971Z" transform="translate(-38.81 -77.333)" fill="#fff"/>
        <path id="Trazado_643161" data-name="Trazado 643161" d="M77.263,319.629H41.394a4.488,4.488,0,0,1-4.488-4.488V265.493a4.487,4.487,0,0,1,4.487-4.488H64.142l17.609,18.149v35.987a4.488,4.488,0,0,1-4.488,4.488" transform="translate(-15.22 -107.639)" fill="#ebebeb"/>
        <path id="Trazado_643162" data-name="Trazado 643162" d="M83.257,261v13.973a4.174,4.174,0,0,0,4.174,4.174l13.435,0Z" transform="translate(-34.335 -107.639)" fill="#f5f5f5"/>
        <path id="Trazado_643163" data-name="Trazado 643163" d="M83.569,286.871a4.641,4.641,0,0,0,3.681,4.5,4.2,4.2,0,0,0,.442.1c1.754.314,13.3,2.368,13.3,2.1v-3.755H87.559s-3.355-.115-3.99-2.95" transform="translate(-34.464 -118.307)" fill="#e0e0e0"/>
        <path id="Trazado_643164" data-name="Trazado 643164" d="M77.155,319.521c0-.021.269.006.775-.092a4.492,4.492,0,0,0,2.035-.948,4.434,4.434,0,0,0,1.606-3.165c.023-1.448,0-3.128,0-5-.013-7.517-.032-18.273-.054-31.267l.036.089L63.928,261l.105.045-13.127,0H42.3a11.492,11.492,0,0,0-1.723.063,4.339,4.339,0,0,0-2.816,1.756,4.278,4.278,0,0,0-.794,2.207c-.032.8-.009,1.627-.016,2.434q0,2.439,0,4.843,0,4.809,0,9.468c0,6.207-.006,12.195-.009,17.9q0,4.277-.006,8.335,0,2.027,0,3.993,0,.983,0,1.95a10.288,10.288,0,0,0,.083,1.888,4.367,4.367,0,0,0,3.687,3.47,16.62,16.62,0,0,0,1.765.047l6.77.01,20.432.049,5.555.028,1.444.015c.326.005.492.016.492.016s-.167.011-.492.016l-1.444.015-5.555.029-20.432.049-6.77.01a16.729,16.729,0,0,1-1.8-.045,4.565,4.565,0,0,1-1.749-.613,4.623,4.623,0,0,1-2.154-3.046A10.532,10.532,0,0,1,36.668,314q0-.968,0-1.95,0-1.966,0-3.993,0-4.053-.006-8.335c0-5.7-.006-11.691-.009-17.9q0-4.656,0-9.468,0-2.4,0-4.843c.007-.817-.017-1.618.016-2.456a4.591,4.591,0,0,1,.85-2.363,4.645,4.645,0,0,1,3.015-1.88,11.6,11.6,0,0,1,1.773-.067h8.608l13.127,0H64.1l.043.045,17.6,18.163.036.037v.052c-.022,12.994-.041,23.749-.054,31.267-.012,1.879,0,3.548-.031,5.01a4.513,4.513,0,0,1-1.671,3.218,4.45,4.45,0,0,1-2.077.927,3.361,3.361,0,0,1-.584.053c-.132,0-.2,0-.2,0" transform="translate(-15.112 -107.531)" fill="#263238"/>
        <path id="Trazado_643165" data-name="Trazado 643165" d="M100.759,279.154a1.445,1.445,0,0,1-.345.031l-.99.029-3.64.048-5.4.032-3.191,0a4.331,4.331,0,0,1-4-3.019,5.009,5.009,0,0,1-.2-1.713c0-1.1.006-2.171.009-3.188.012-2.022.023-3.849.033-5.4.02-1.505.036-2.738.048-3.639.012-.4.022-.73.029-.99A1.462,1.462,0,0,1,83.15,261a1.489,1.489,0,0,1,.031.345c.008.26.017.587.029.99.012.9.029,2.134.049,3.639.009,1.549.021,3.376.033,5.4,0,1.017.006,2.084.009,3.188a4.72,4.72,0,0,0,.187,1.622A4.044,4.044,0,0,0,87.205,279l3.182.015,5.4.034,3.64.049.99.029a1.488,1.488,0,0,1,.345.031" transform="translate(-34.228 -107.639)" fill="#263238"/>
        <path id="Trazado_643166" data-name="Trazado 643166" d="M68.822,282.117c0,.085-4.237.153-9.462.153s-9.463-.068-9.463-.153,4.236-.153,9.463-.153,9.462.068,9.462.153" transform="translate(-20.578 -116.283)" fill="#263238"/>
        <path id="Trazado_643167" data-name="Trazado 643167" d="M77.8,293.979c0,.085-6.247.153-13.951.153s-13.952-.068-13.952-.153,6.246-.153,13.952-.153,13.951.068,13.951.153" transform="translate(-20.578 -121.175)" fill="#263238"/>
        <path id="Trazado_643168" data-name="Trazado 643168" d="M77.8,305.842c0,.085-6.247.153-13.951.153s-13.952-.068-13.952-.153,6.246-.153,13.952-.153,13.951.068,13.951.153" transform="translate(-20.578 -126.067)" fill="#263238"/>
        <path id="Trazado_643169" data-name="Trazado 643169" d="M77.8,317.7c0,.085-6.247.153-13.951.153S49.9,317.789,49.9,317.7s6.246-.153,13.952-.153,13.951.068,13.951.153" transform="translate(-20.578 -130.959)" fill="#263238"/>
        <path id="Trazado_643170" data-name="Trazado 643170" d="M77.8,329.567c0,.085-6.247.153-13.951.153s-13.952-.068-13.952-.153,6.246-.153,13.952-.153,13.951.068,13.951.153" transform="translate(-20.578 -135.851)" fill="#263238"/>
        <path id="Trazado_643171" data-name="Trazado 643171" d="M77.8,341.429c0,.085-6.247.153-13.951.153s-13.952-.068-13.952-.153,6.246-.153,13.952-.153,13.951.068,13.951.153" transform="translate(-20.578 -140.743)" fill="#263238"/>
        <path id="Trazado_643172" data-name="Trazado 643172" d="M51.2,334.7H25.7a2.481,2.481,0,0,1-2.48-2.481v-8.728a2.481,2.481,0,0,1,2.48-2.481H51.2a2.481,2.481,0,0,1,2.48,2.481v8.728A2.481,2.481,0,0,1,51.2,334.7" transform="translate(-9.575 -132.385)" fill="#ff725e"/>
        <path id="Trazado_643173" data-name="Trazado 643173" d="M40.366,330.475c0,1.152-.865,1.869-2.246,1.869H37.078v1.426h-1.2V328.6H38.12c1.381,0,2.246.716,2.246,1.876m-1.212,0c0-.569-.369-.9-1.1-.9h-.975v1.8h.975c.732,0,1.1-.333,1.1-.894" transform="translate(-14.797 -135.515)" fill="#fff"/>
        <path id="Trazado_643174" data-name="Trazado 643174" d="M49.443,330.475c0,1.152-.864,1.869-2.246,1.869H46.156v1.426h-1.2V328.6H47.2c1.382,0,2.246.716,2.246,1.876m-1.211,0c0-.569-.37-.9-1.1-.9h-.975v1.8h.975c.732,0,1.1-.333,1.1-.894" transform="translate(-18.541 -135.515)" fill="#fff"/>
        <path id="Trazado_643175" data-name="Trazado 643175" d="M54.46,329.573H52.8V328.6h4.507v.975H55.657v4.2h-1.2Z" transform="translate(-21.777 -135.515)" fill="#fff"/>
        <path id="Trazado_643176" data-name="Trazado 643176" d="M197.474,78.523H161.833a4.459,4.459,0,0,1-4.459-4.459V24.732a4.459,4.459,0,0,1,4.459-4.459h22.6l17.5,18.034V74.064a4.459,4.459,0,0,1-4.459,4.459" transform="translate(-64.902 -8.361)" fill="#ebebeb"/>
        <path id="Trazado_643177" data-name="Trazado 643177" d="M203.43,20.273V34.157a4.148,4.148,0,0,0,4.147,4.148l13.35,0Z" transform="translate(-83.895 -8.361)" fill="#f5f5f5"/>
        <path id="Trazado_643178" data-name="Trazado 643178" d="M203.739,45.975A4.611,4.611,0,0,0,207.4,50.45a4.306,4.306,0,0,0,.439.1c1.743.311,13.218,2.353,13.218,2.089V48.907H207.7s-3.333-.114-3.965-2.932" transform="translate(-84.022 -18.96)" fill="#e0e0e0"/>
        <path id="Trazado_643179" data-name="Trazado 643179" d="M197.365,78.416c0-.021.267.005.77-.091a4.466,4.466,0,0,0,2.022-.942,4.408,4.408,0,0,0,1.6-3.145c.022-1.438,0-3.107,0-4.97-.013-7.47-.032-18.156-.054-31.067l.036.089-17.51-18.021.105.045-13.043,0h-8.554a11.419,11.419,0,0,0-1.712.063,4.309,4.309,0,0,0-2.8,1.744,4.247,4.247,0,0,0-.789,2.193c-.032.79-.009,1.616-.016,2.419q0,2.422,0,4.812,0,4.777,0,9.407c0,6.167-.006,12.117-.009,17.785q0,4.25-.006,8.282,0,2.013,0,3.967,0,.977,0,1.937a10.209,10.209,0,0,0,.082,1.876,4.339,4.339,0,0,0,3.662,3.447,16.546,16.546,0,0,0,1.753.046l6.727.01,20.3.049,5.52.029,1.436.015c.323.005.489.016.489.016s-.166.011-.489.016l-1.436.015-5.52.029-20.3.049-6.727.01a16.655,16.655,0,0,1-1.786-.044,4.543,4.543,0,0,1-1.739-.609,4.6,4.6,0,0,1-2.141-3.027,10.405,10.405,0,0,1-.091-1.926l0-1.937q0-1.954,0-3.967,0-4.027-.006-8.282c0-5.668-.006-11.617-.009-17.785q0-4.626,0-9.407,0-2.389,0-4.812c.007-.812-.016-1.608.016-2.441a4.555,4.555,0,0,1,.845-2.349,4.616,4.616,0,0,1,3-1.869,11.6,11.6,0,0,1,1.762-.066h8.554l13.043,0h.062l.043.045L201.916,38.11l.036.038V38.2c-.022,12.911-.041,23.6-.054,31.067-.012,1.866,0,3.526-.032,4.978a4.481,4.481,0,0,1-1.661,3.2,4.421,4.421,0,0,1-2.064.921,3.3,3.3,0,0,1-.58.052c-.131,0-.2,0-.2,0" transform="translate(-64.793 -8.253)" fill="#263238"/>
        <path id="Trazado_643180" data-name="Trazado 643180" d="M220.819,38.307a1.471,1.471,0,0,1-.343.031l-.984.029-3.616.048-5.363.032-3.171,0a4.3,4.3,0,0,1-3.975-3,4.959,4.959,0,0,1-.2-1.7c0-1.1.006-2.156.009-3.168.012-2.009.023-3.824.033-5.364.02-1.5.036-2.721.049-3.616.012-.4.021-.725.029-.982a1.473,1.473,0,0,1,.031-.343,1.432,1.432,0,0,1,.031.343c.008.258.017.583.029.982.012.9.029,2.121.049,3.616.009,1.54.021,3.355.033,5.364,0,1.011.006,2.07.009,3.168a4.7,4.7,0,0,0,.186,1.611,4.019,4.019,0,0,0,3.693,2.792l3.162.015,5.363.034,3.616.049.984.029a1.47,1.47,0,0,1,.343.031" transform="translate(-83.787 -8.361)" fill="#263238"/>
        <path id="Trazado_643181" data-name="Trazado 643181" d="M189.086,41.25c0,.085-4.21.153-9.4.153s-9.4-.068-9.4-.153,4.209-.153,9.4-.153,9.4.068,9.4.153" transform="translate(-70.225 -16.949)" fill="#263238"/>
        <path id="Trazado_643182" data-name="Trazado 643182" d="M198.008,53.037c0,.085-6.207.153-13.862.153s-13.864-.068-13.864-.153,6.206-.153,13.864-.153,13.862.068,13.862.153" transform="translate(-70.225 -21.81)" fill="#263238"/>
        <path id="Trazado_643183" data-name="Trazado 643183" d="M198.008,64.824c0,.085-6.207.153-13.862.153s-13.864-.068-13.864-.153,6.206-.153,13.864-.153,13.862.068,13.862.153" transform="translate(-70.225 -26.671)" fill="#263238"/>
        <path id="Trazado_643184" data-name="Trazado 643184" d="M198.008,76.611c0,.085-6.207.153-13.862.153s-13.864-.068-13.864-.153,6.206-.153,13.864-.153,13.862.068,13.862.153" transform="translate(-70.225 -31.532)" fill="#263238"/>
        <path id="Trazado_643185" data-name="Trazado 643185" d="M198.008,88.4c0,.085-6.207.153-13.862.153s-13.864-.068-13.864-.153,6.206-.153,13.864-.153,13.862.068,13.862.153" transform="translate(-70.225 -36.393)" fill="#263238"/>
        <path id="Trazado_643186" data-name="Trazado 643186" d="M198.008,100.185c0,.085-6.207.153-13.862.153s-13.864-.068-13.864-.153,6.206-.153,13.864-.153,13.862.068,13.862.153" transform="translate(-70.225 -41.254)" fill="#263238"/>
        <path id="Trazado_643187" data-name="Trazado 643187" d="M171.564,93.5H146.253a2.481,2.481,0,0,1-2.481-2.48V82.374a2.481,2.481,0,0,1,2.481-2.48h25.311a2.481,2.481,0,0,1,2.481,2.48v8.641a2.481,2.481,0,0,1-2.481,2.48" transform="translate(-59.292 -32.949)" fill="#196442"/>
        <path id="Trazado_643188" data-name="Trazado 643188" d="M159.192,92.561l-1.241-1.785-1.219,1.785h-1.366l1.9-2.614-1.806-2.526h1.351l1.182,1.667,1.161-1.667h1.285L158.648,89.9l1.917,2.658Z" transform="translate(-64.073 -36.053)" fill="#fff"/>
        <path id="Trazado_643189" data-name="Trazado 643189" d="M165.011,87.421H166.2v4.171h2.578v.969h-3.767Z" transform="translate(-68.051 -36.053)" fill="#fff"/>
        <path id="Trazado_643190" data-name="Trazado 643190" d="M171.819,91.993l.4-.9a3.025,3.025,0,0,0,1.7.536c.7,0,.991-.235.991-.551,0-.962-2.989-.3-2.989-2.21,0-.874.705-1.6,2.166-1.6a3.45,3.45,0,0,1,1.785.455l-.367.9a2.9,2.9,0,0,0-1.424-.4c-.705,0-.977.264-.977.588,0,.947,2.989.294,2.989,2.181,0,.86-.712,1.594-2.181,1.594a3.661,3.661,0,0,1-2.093-.595" transform="translate(-70.859 -35.991)" fill="#fff"/>
        <path id="Trazado_643191" data-name="Trazado 643191" d="M572.2,331.093H536a4.53,4.53,0,0,1-4.53-4.53V276.445a4.531,4.531,0,0,1,4.53-4.531h22.963l17.776,18.321v36.327a4.53,4.53,0,0,1-4.53,4.53" transform="translate(-219.178 -112.138)" fill="#ebebeb"/>
        <path id="Trazado_643192" data-name="Trazado 643192" d="M578.256,271.914v14.105a4.214,4.214,0,0,0,4.213,4.214l13.563,0Z" transform="translate(-238.475 -112.138)" fill="#f5f5f5"/>
        <path id="Trazado_643193" data-name="Trazado 643193" d="M578.57,298.025a4.685,4.685,0,0,0,3.716,4.546,4.319,4.319,0,0,0,.446.1c1.771.317,13.429,2.39,13.429,2.122V301H582.6s-3.386-.116-4.028-2.979" transform="translate(-238.604 -122.906)" fill="#e0e0e0"/>
        <path id="Trazado_643194" data-name="Trazado 643194" d="M572.1,330.984c0-.021.272.006.783-.092a4.529,4.529,0,0,0,2.054-.957,4.477,4.477,0,0,0,1.622-3.2c.023-1.461,0-3.157,0-5.05-.013-7.588-.032-18.445-.054-31.562l.036.089-17.789-18.308.105.044-13.25,0-6.932,0h-1.759a11.542,11.542,0,0,0-1.739.064,4.382,4.382,0,0,0-2.843,1.773,4.326,4.326,0,0,0-.8,2.229c-.032.8-.009,1.643-.016,2.458q0,2.461,0,4.889,0,4.854,0,9.557c0,6.266-.006,12.31-.009,18.068q0,4.318-.007,8.414,0,2.046,0,4.031,0,.992,0,1.968a10.429,10.429,0,0,0,.083,1.906,4.415,4.415,0,0,0,3.723,3.5,16.767,16.767,0,0,0,1.782.047l6.835.01,20.625.049,5.607.028,1.458.015c.329.005.5.016.5.016s-.168.011-.5.016l-1.458.015-5.607.029-20.625.049-6.835.01a16.884,16.884,0,0,1-1.814-.045,4.617,4.617,0,0,1-1.766-.619,4.668,4.668,0,0,1-2.174-3.074,10.523,10.523,0,0,1-.092-1.956q0-.977,0-1.968,0-1.985,0-4.031,0-4.091-.007-8.414c0-5.758-.006-11.8-.009-18.068q0-4.7,0-9.557,0-2.427,0-4.889c.007-.825-.017-1.633.016-2.479a4.628,4.628,0,0,1,.858-2.386,4.688,4.688,0,0,1,3.042-1.9,11.818,11.818,0,0,1,1.789-.068H545.6l13.25,0h.062l.044.045,17.762,18.334.036.038v.052c-.022,13.116-.041,23.974-.053,31.562-.012,1.9,0,3.582-.032,5.057a4.555,4.555,0,0,1-1.686,3.249,4.49,4.49,0,0,1-2.1.936,3.374,3.374,0,0,1-.589.053c-.133,0-.2,0-.2,0" transform="translate(-219.069 -112.03)" fill="#263238"/>
        <path id="Trazado_643195" data-name="Trazado 643195" d="M595.923,290.235a1.488,1.488,0,0,1-.348.031l-1,.028-3.674.048-5.449.032-3.222,0a4.371,4.371,0,0,1-4.036-3.046,5.056,5.056,0,0,1-.2-1.729c0-1.115.006-2.192.009-3.218.012-2.041.023-3.886.033-5.449.021-1.52.037-2.765.049-3.673.012-.407.021-.737.029-1a1.529,1.529,0,0,1,.031-.348,1.486,1.486,0,0,1,.031.348c.008.261.017.592.029,1,.012.908.028,2.153.048,3.673.01,1.564.021,3.408.033,5.449,0,1.027.006,2.1.009,3.218a4.754,4.754,0,0,0,.189,1.637,4.083,4.083,0,0,0,3.754,2.838l3.213.015,5.449.034,3.674.049,1,.029a1.519,1.519,0,0,1,.348.031" transform="translate(-238.367 -112.138)" fill="#263238"/>
        <path id="Trazado_643196" data-name="Trazado 643196" d="M563.684,293.227c0,.085-4.277.153-9.551.153s-9.553-.068-9.553-.153,4.276-.153,9.553-.153,9.551.068,9.551.153" transform="translate(-224.587 -120.865)" fill="#263238"/>
        <path id="Trazado_643197" data-name="Trazado 643197" d="M572.748,305.2c0,.085-6.306.153-14.083.153s-14.085-.068-14.085-.153,6.3-.153,14.085-.153,14.083.068,14.083.153" transform="translate(-224.587 -125.803)" fill="#263238"/>
        <path id="Trazado_643198" data-name="Trazado 643198" d="M572.748,317.176c0,.085-6.306.153-14.083.153s-14.085-.068-14.085-.153,6.3-.153,14.085-.153,14.083.068,14.083.153" transform="translate(-224.587 -130.741)" fill="#263238"/>
        <path id="Trazado_643199" data-name="Trazado 643199" d="M572.748,329.151c0,.085-6.306.153-14.083.153s-14.085-.068-14.085-.153,6.3-.153,14.085-.153,14.083.068,14.083.153" transform="translate(-224.587 -135.68)" fill="#263238"/>
        <path id="Trazado_643200" data-name="Trazado 643200" d="M572.748,341.126c0,.085-6.306.153-14.083.153s-14.085-.068-14.085-.153,6.3-.153,14.085-.153,14.083.068,14.083.153" transform="translate(-224.587 -140.618)" fill="#263238"/>
        <path id="Trazado_643201" data-name="Trazado 643201" d="M572.748,355.895c0,.085-6.306.153-14.083.153s-14.085-.068-14.085-.153,6.3-.153,14.085-.153,14.083.068,14.083.153" transform="translate(-224.587 -146.709)" fill="#263238"/>
        <path id="Trazado_643202" data-name="Trazado 643202" d="M545.921,346.3H520.128a2.481,2.481,0,0,1-2.481-2.48v-8.858a2.481,2.481,0,0,1,2.481-2.48h25.793a2.48,2.48,0,0,1,2.48,2.48v8.857a2.481,2.481,0,0,1-2.48,2.481" transform="translate(-213.479 -137.118)" fill="#2d4587"/>
        <path id="Trazado_643203" data-name="Trazado 643203" d="M523.711,340.153h2.372a2.623,2.623,0,1,1,0,5.222h-2.372Zm2.312,4.229a1.622,1.622,0,1,0,0-3.238h-1.1v3.238Z" transform="translate(-215.98 -140.28)" fill="#fff"/>
        <path id="Trazado_643204" data-name="Trazado 643204" d="M533.635,342.7a2.862,2.862,0,1,1,2.857,2.7,2.7,2.7,0,0,1-2.857-2.7m4.491,0a1.634,1.634,0,1,0-1.633,1.671,1.593,1.593,0,0,0,1.633-1.671" transform="translate(-220.073 -140.218)" fill="#fff"/>
        <path id="Trazado_643205" data-name="Trazado 643205" d="M544.348,342.7a2.875,2.875,0,0,1,4.983-1.775l-.776.716a1.681,1.681,0,0,0-1.313-.612,1.671,1.671,0,1,0,0,3.342,1.665,1.665,0,0,0,1.313-.619l.776.716a2.87,2.87,0,0,1-4.983-1.768" transform="translate(-224.491 -140.218)" fill="#fff"/>
        <path id="Trazado_643206" data-name="Trazado 643206" d="M556.9,345.375l-1.261-1.813-1.238,1.813h-1.387l1.932-2.656-1.835-2.566h1.373l1.2,1.693,1.178-1.693h1.306l-1.82,2.521,1.947,2.7Z" transform="translate(-228.066 -140.28)" fill="#fff"/>
      </g>
    </g>
    <g id="Grupo_1075223" data-name="Grupo 1075223">
      <g id="Grupo_1075222" data-name="Grupo 1075222" clip-path="url(#clip-path)">
        <path id="Trazado_643207" data-name="Trazado 643207" d="M392.352,401.813c0,.085-87.838.153-196.167.153C87.819,401.966,0,401.9,0,401.813s87.819-.153,196.185-.153c108.329,0,196.167.068,196.167.153" transform="translate(0 -165.646)" fill="#263238"/>
      </g>
    </g>
  </g>
</svg>
