<svg xmlns="http://www.w3.org/2000/svg" xmlns:xlink="http://www.w3.org/1999/xlink" width="121" height="120.998" viewBox="0 0 121 120.998">
  <defs>
    <clipPath id="clip-path">
      <rect id="Rectángulo_380010" data-name="Rectángulo 380010" width="66.895" height="46.718" fill="#fff"/>
    </clipPath>
  </defs>
  <g id="img3" transform="translate(-1209.5 -5276.501)">
    <path id="Unión_76" data-name="Unión 76" d="M62.464,119.509A14.435,14.435,0,0,1,59.5,120C60.762,119.818,62.142,119.1,62.464,119.509Zm-12.144.051A12.281,12.281,0,0,1,46.382,119c.138-1.321-1.259-2.728,1.433-3.367,2.383-.227,5.45-.207,8.4-.32,1.481-.089,2.929-.14,4.223-.331a18.044,18.044,0,0,0,3.336-.624c-1.934.887-2.186,1.45-5.218,2.279.712.712-.015.371-1.847,1.093-1.752-.4.773-.391.948-.918a18.972,18.972,0,0,0-3.752.352c-.975.216-1.553.531-1.29.8,6.043.175-1.728.469,1.553,1-.11.376-1.492.613-3.073.613C50.842,119.582,50.583,119.577,50.321,119.561Zm7.837-.763a13.652,13.652,0,0,0,2.212-.918,20.975,20.975,0,0,1,3.378-.99,7.729,7.729,0,0,0,2.841-.021,23.27,23.27,0,0,0,3.345-.943c2.353-.886,4.8-2.058,7.2-3.037,1.036-1.093.5-.9,3.314-2.552-.138,1.221-5.7,3.444-2.407,2.984a22.686,22.686,0,0,0,4.539-2.2c1.408-.958,2.563-1.939,2.777-2.67-3.432,2.236-3.463,1.649-3.463,1.114s.037-1.022-3.393,1c1.459-.974,2.114-1.84,4.383-3.372,2.02-1.036.567.285-.372,1.233-.957.928-1.308,1.562,2.935-1.155l-.042-1.691c1.851-1.161,4.186-2.94,5.522-3.991-1,.928-1.98,1.83-2.848,2.63a11.61,11.61,0,0,0-1.9,2.269,57.251,57.251,0,0,0,5.583-4.012c1.833-1.439,3.312-2.671,3.684-2.538a48.287,48.287,0,0,0,6.506-10.983c1.645-3.686,3.078-7.43,4.867-11.767,1.779-3.278,2.508-2.546,2.234-.932,1.68-3.625.583-3.012,1.17-5.605-.254,2.785-.05,2.012,1.376.908a15.425,15.425,0,0,0,.486-2,77.159,77.159,0,0,1-1.161,8.956,81.436,81.436,0,0,1-2.289,8.977c-.609,1.965-2.51,4.373-4.444,6.554-.99,1.072-1.96,2.118-2.806,3.026a12.086,12.086,0,0,0-1.89,2.4c.572-1.371-1.465-.206-3.472,2-.329.541.53-.032,1.04-.314-2.061,1.541-4.56,3.408-6.913,5.115-.583.428-1.15.856-1.691,1.279-.556.4-1.084.8-1.568,1.19a22.35,22.35,0,0,0-2.377,2.171s.386-.52.773-1.04.738-1.062.738-1.062c-3.229,2.587-5.643,3.824-7.956,5.6.07-.186.9-.681.683-.836a16.065,16.065,0,0,0-3.634,1.567c-.6.32-1.192.64-1.785.913a9.071,9.071,0,0,1-1.829.567l1.733-.794c.232-.367-2.1.444-3.286.84-1.608.521-5.036,2.058-1.814,1.609l-1.687.309c-.845.11-1.691.222-1.691.222-.083.1.083.154.294.2a24.606,24.606,0,0,0-2.948.128c-.909.072-1.827.145-2.55.145C58.649,119.292,58.044,119.174,58.158,118.8Zm6.9.222a2.944,2.944,0,0,1,.5.062C65.419,119.066,65.229,119.05,65.062,119.02Zm.217-5.269a5.534,5.534,0,0,1-1.5.612C64.2,114.173,64.659,113.972,65.279,113.751Zm9.044-3.775c3.191-1.2,6.76-2.975,8.146-4.723.815-.191,1.29-.139,3.443-1.706-.513-.527.955-1.7,2.756-3.187,1.284-1.021,2.716-2.223,3.855-3.326a21.5,21.5,0,0,1-3.785.346c-.05,0-.107-.011-.16-.011A14.419,14.419,0,0,1,87.435,99.2a37.948,37.948,0,0,1-6.466,4.558c-.986.541-1.923,1.083-2.959,1.573-1.01.521-2.083,1.058-3.3,1.614a2.873,2.873,0,0,0-1.257-.413c-.6.2-1.078.211-1.356-.051a5.173,5.173,0,0,0-1.319.3,1.38,1.38,0,0,1-.171.377c-.234.067-.429.134-.6.191-.578.387-1.452.819-2.3,1.279-1.264.613-2.495,1.186-2.646,1.64,3.849-.629,2.878-1.475,4.992-2.326,2.074.124.434.722,3.078.233a17.937,17.937,0,0,0-2.309.814c-1,.325-2.133.768-3.305,1.125a17.3,17.3,0,0,1-6.013.974l.793-.253a16.469,16.469,0,0,1-4.458-.659,9.479,9.479,0,0,0-2.44-.2,21.22,21.22,0,0,0-3.651.382l-1.452.174c-.734.1-1.47.139-1.47.139.149-.061.173-.154.252-.216-.278-.031-.532-.067-.773-.1a25.925,25.925,0,0,1-2.8-.145c-.872-.366-.445-.448-.068-.557-.138-.051-.283-.1-.418-.149a8.631,8.631,0,0,0-1.571-.377c-.228-.046-.486-.093-.769-.139.031.042.057.083.1.129a2.937,2.937,0,0,0-.287-.16c-.526-.078-1.135-.154-1.914-.227.208.021.254-.005.3-.031s.092-.051.3-.032c-2.727-1.175-5.835-1.309-7.991-2.154-.686-.815-.129-.712.594-.6a4.158,4.158,0,0,0,.933.068c-2.315-1.15-4.775-2.2-7.018-3.305-1.146-.5-2.166-1.114-3.183-1.583-.979-.527-1.864-1.007-2.62-1.413,0,0-.55-.677-1.1-1.347s-1.043-1.381-1.043-1.381c1.568,1.35,3.873,2.46,3.682,1.752-.721-.561-1.047-.762-1.443-1.025a7.3,7.3,0,0,1-1.649-1.64,1.969,1.969,0,0,1,.272.056c-1.334-1.3-2.907-2.83-3.778-3.681l.217-.68-.042-.1a41.2,41.2,0,0,1-2.883-3.873l.486.134c-.749-1.392-1.724-2.645-2.307-4.006a5.2,5.2,0,0,0,.955,2.676c-.552.078-1.954-2.253-2.532-3.9.191-.2.164-.7.026-1.361-1.126-1.2-2.219-2.568-3.156-3.517-.506-.273-.815-1.716-1.027-3.336-.276-1.6-.453-3.372-1.262-4.346a16.417,16.417,0,0,1,1.4,2.022c-.212-1.434-1.443-2.389-.659-3,.195,1.893.364,1.491.583,1.094.153-.295.329-.584.556,0a17.476,17.476,0,0,0-1.089-3.729c.171,1.228-.166,1.047-.442.866s-.51-.355-.125.866a12.508,12.508,0,0,1-1.341-6.956c.372.021.545-.278.71-1.154l-.524-.722c.05-.485.173-.118.315.248.18.458.386.918.508-.314-.453-1.144-.158-2.863.031-4.4.254-1.526.377-2.908-.324-3.552.506-.794.5.056.541.789.079.743.193,1.357.791.15.381,1.572-.62,3.517.226,4.094-.118-1.47.738-.453.867-1.361l-.285-1.656-.088.346c-.416-2.81.979-6.961,2.087-10.215.164-1.494.1-2.881.331-4.243a14.64,14.64,0,0,1,.471-2.119,13.262,13.262,0,0,1,1.034-2.233c-.031.594.425-.015.872-.444s.878-.67.692.506c1.231-1.16,1.619-2.806,1.349-3.027-.885,1.15-.37.361-1.174,1.3a5.139,5.139,0,0,1,1.825-3.005c-.237.278-.088.21-.015.36,1.238-1.247.088-.954.705-2.068.749.062,1.822-2.114,2.848-2.752l.423-1.852c-.114.619.329.171.835-.273.366-.325.764-.645,1.005-.567a7.2,7.2,0,0,1,2.2-3.522c-.188.388.258.135.789-.113.467-.221.986-.444,1.183-.232a10.208,10.208,0,0,0,2.913-2.965,6.12,6.12,0,0,1,3.139-2.532c0,.165-.289.809.521.474A14.782,14.782,0,0,1,33.1,12.72l-.009.025.024-.035-.015.01.324-.619c.053.025.057.067.079.1q-.171.248-.388.511c.294-.2.453-.377.388-.511a11.1,11.1,0,0,1,3.13-3.531c-.475-.557-2.276.686-2.992,1.3l-.366.98c-1.174-.51-1.877,1.285-2.532,1.31.629-1.856,4.631-3.78,6.79-5.491-1.882-.206-5.226,1.285-7.837,3.047,0,0,.346-.093.692-.191s.7-.171.7-.171-.35.212-.7.418-.692.438-.692.438.434-.051.861-.114l.867-.082a27.6,27.6,0,0,0-3.367,2.146c1.231-.743,2.133-.284,1.323.046-1.864.428-1.288,1.407-2.423,2.14.655-.387,1.465-.933,1.17-.252a10.6,10.6,0,0,0-2.742,1.33A14.413,14.413,0,0,1,22.8,16.855c.484.33-.079.846-.718,1.4s-1.31,1.2-1.117,1.65l.876-.7L20.6,21.32c-.97.4-.951.046-.867-.309.11-.449.324-.9-1.246.189-2.261,2.176-1.244,2.96-2.749,4.832a7.289,7.289,0,0,1,2.177-4.326l-1.069.655c.156-.722,2.1-2.7,3.167-3.589-1.115,2.129.922-.577,2.107-.8-.114-.237-.34-.227-.519-.217-.28.021-.434.042.153-.881a32.989,32.989,0,0,1-3.016,2.541A7.184,7.184,0,0,0,21.2,15.87a4.763,4.763,0,0,1,2.5-3.016c-.867.919-.068.754.653.593a2.3,2.3,0,0,1,.791-.117c.624-.609,1.98-1.692,2.475-2.244l-1.067-.4c1.746-1.655,3.463-.4,5.288-2.556.013-.361-.607-.037-1.128.283-.449.274-.826.552-.655.4,2.9-2.382,4.852-1.63,8.032-2.31a1.976,1.976,0,0,1,.64-1.759c-.114.655.769.6-.241,1.47A9.207,9.207,0,0,0,41.416,4.62c-2.245.474.58-1.078.881-1.537,1.161-.289-.164.64-.778,1.052a4.513,4.513,0,0,1,.959-.058c.705.005,1.38.005,1.551-.649.11.278-.405.846-1.119,1.434A12.123,12.123,0,0,1,40.529,6.48l1.108-.313c-.633.551-.8.52-1.877.871,1.2,0,1.273.521,1.2,1.005-.164-.026.015-.16-.14-.185-.883.2-1.454.619-1.139.825-.265.66.346.474,1.005.289a2.534,2.534,0,0,1,1.021-.156c.4-.206.8-.412,1.2-.613,0,0,.837-1.011,1.77-1.959.464-.48.933-.959,1.284-1.321.366-.35.613-.582.613-.582,1.9-.836,2.966-.413,4.523-.361l.287-.743c1.781-.257,3.476-.263,2.471.748-.1-.217-.32-.124-.7-.093a.532.532,0,0,1-.212.253,1.254,1.254,0,0,0-.066.134c1.748-.521,2.909-.748,3.078-.814-3.034,1.366.011,1.247-.388,2.516,0,0,.758-.211,1.527-.367l1.553-.309c-1.934-.242-.077-.593.6-.794.129.418,1.043.288,2,.16a7.017,7.017,0,0,1,1.7-.1l-.088.14A18.263,18.263,0,0,0,67,4.96c-.039-.243,1.77-1.119,2.723-1.66-2.28-.577-.872-.655-.994-1.1.241.072.675.145.743.067.366-.145-.425-.324-.46-.556-2.578-.078-5.156-.072-6.188.855a1.155,1.155,0,0,0,1.078.011,1.39,1.39,0,0,1,1.065-.046,7.873,7.873,0,0,1-3.38.406c-.453,0-.931,0-1.448.005l-.679-.552s-.513.089-1.016.212c-.5.107-1.005.227-1.005.227.828-.346.263-.959,2.438-1.151-.186-.345-.948-.18-1.816-.025a7.275,7.275,0,0,1-1.673.175l-.6.836c.223-.459-2.607-.2-.675-1.011,0,0,.8-.274,1.614-.484L58.375.737,57.411.288,58.835.113C59.5.061,60.169,0,60.256,0h.011L59.6.406c2.3-.33,2.644.078,2.979.418.342.361.653.593,2.981.309,1.494-.8,3.154-.773,5.969-.015-2.094-.2-.329.594-1.189.969,1.98.769,2.819.16,3.976.1.405.608.664,1.077-1.121.556-.462.923,2.414.428,2.3,1.485a12.668,12.668,0,0,0,5.857.4c1.507-.068,3.224.025,6.151,2.407l-.447.227a23.2,23.2,0,0,1,3.229,1.691c-.022-.072.184-.124.756-.046l-.377.021c-.18.015-.344.031-.37.036.145.088.283.175.418.263A19.3,19.3,0,0,1,93.1,10.394l.861-.49c-.572.706,2.521,2.7,5.018,4.058-2.12-2.078-1.5-1.623-1.717-2.887a7.7,7.7,0,0,1,3.842,2.408,15.651,15.651,0,0,0,3.789,3.052c-.4-.093-3.64-2.481-1.126-.093,2.033,1.975,2.239,1.238,3.7,2.517-1.993-1.1-2.017-.336-4.245-1.279a28.131,28.131,0,0,0-2.67-2.135c-.208-.124-.407-.253-.815-.5s-1.021-.624-2.094-1.182c0,0,.2.165.491.418s.681.572,1.036.943c.721.712,1.419,1.423,1.419,1.423-1.667-1.17-2.39-1.413-2.756-1.355a.45.45,0,0,0-.232.107l.046.078c.166.3.311.593.44.856a14.281,14.281,0,0,0,3.8,2.552,6.382,6.382,0,0,1,3.15,2.254c.841.572.315-.058-.228-.687-.622-.726-1.268-1.454.151-.33,1.376,1.563,1.551,1.712,1.9,1.825.3.14.773.238,2.247,2.083l-.727-.448c.48,1.4,1.676,2.285,2.563,3.686.532.743.845-.01,1.476-.134.607-.114,1.706.386,3.262,4.005-.329-.278-.5-.355-.58-.324l1.763,1a38.186,38.186,0,0,1,2.749,10.265A56.986,56.986,0,0,1,120,48.54v.706c0,.737-.02,1.516-.039,2.342-.195.577-.274-.361-.315-.831a52.382,52.382,0,0,1-.918,9.065c-.541,3.058-1.246,5.857-1.553,7.739-.456,1.609-2.385,5.456-2.153,3.811a11.783,11.783,0,0,1-.8,2.47c-.5.051.653-1.919.313-2.108-.21.484-.366.737-.407.918-.125-.929-1.706.5.114-4.409.922-.9.521.206.18,1.31-.3.965-.55,1.929.151,1.557.666-1.738.145-1.7.068-1.888.806-2.211,1.019-2.093,1.251-1.882-.046-.964,1.259-3.728.99-5.11.484-2.5.688-2.144.867-1.794.149.3.283.594.563-.783,0,0-.212-.491-.429-.986l-.442-.969s.256-1.242.447-2.51c.11-.635.186-1.274.243-1.753s.092-.8.092-.8c-.026-3.759-.629-3.481-1.148-3.351-.274.067-.554.092-.817-.4a14.708,14.708,0,0,1-.8-3.563c.668,1.051,1.6-2.362.942-6.43.631,2.335,1.945,6.718,1.579,9.823.423-2.187.488-.691.539,1.082.026,1.769-.064,3.795.537,2.7a76.224,76.224,0,0,1-.488-8.673l.212.923a15.481,15.481,0,0,0-1.032-4.269,31.4,31.4,0,0,1-1.424-5.063c-.675-1.991-.263-1.717.134-1.454-.723-1.66-1.6-3.026-1.345-3.14a44.43,44.43,0,0,0-4.341-2.021,37.625,37.625,0,0,0-4.383-1.429,35.557,35.557,0,0,1,4.409,9.92,36.9,36.9,0,0,1,1.246,11.473c.64-.067.079,3.588-.206,3.66L111.777,52c-.125.851-.215,1.7-.392,2.532.007.314.011.634.015.964,0,0,.083.417.14.83s.125.841.125.841-.136,1.093-.331,2.17c-.083.548-.186,1.088-.274,1.491s-.138.67-.138.67c.261-2.367.442-4.321.478-6l-.1-.515c-.145.819-.344,1.613-.534,2.413a7.335,7.335,0,0,1-.083,1.015.725.725,0,0,0-.077-.381c-.077.257-.151.51-.228.758a20.125,20.125,0,0,1-.21,4.408c-.208,1.645-.517,3.208-.594,3.95a11,11,0,0,0,.206-1.14c.026.583-.072.975-.068,1.556-.153.2-.18,0-.145-.381a24.534,24.534,0,0,1-1.741,5.383c.556-1.232,1.117-2.938.594-2.567-1.4,2.392-2.771,3.145-4.2,7.641l.651-1.2c.331-.6.62-1.217.62-1.217s-.1.377-.248.95c-.171.567-.392,1.324-.613,2.082s-.486,1.511-.677,2.072-.324.95-.324.95c-1.6,1.577,1.062-3,.99-4-1.739,4.585-5.518,6.848-5.9,9.282a2.779,2.779,0,0,0-2.786.855,3.252,3.252,0,0,1-.478.847c.34-.083.145.284-.031.649-.228.459-.429.912.447.5a9.065,9.065,0,0,1-1.919,2.254l.068,1.826c.1-.1.186-.186.309-.315-.07.108-.18.257-.3.423L94.1,95.5a.036.036,0,0,1,0,.015l.035.841a19.188,19.188,0,0,0,1.6-2.146,15.378,15.378,0,0,1,2.639-2.929c-.228.346.007.2-.221.552,1.947-2.826,1.82-2.212,1.763-1.6-.024.315-.037.63.258.475a20.952,20.952,0,0,0-2.166,2.6,15.64,15.64,0,0,1-2.026,2.279A9.491,9.491,0,0,1,94.2,98.292l.024.649-.458-.16c-.666.737-1.424,1.491-2.2,2.239-.024-.4-.655-.124-1.246.159-.552.258-1.062.521-1.016.227a63.286,63.286,0,0,1-5.66,4.044c-1.032.644-2.055,1.278-2.992,1.866-.953.567-1.836,1.093-2.547,1.588l1.279-.593c-2.12,1.129-2.471,1.469-2.615,1.826-.153.34-.131.623-1.711,1.355l-.5-1.227a21.517,21.517,0,0,1-3.137,1.572c-1.071.382-2.057.733-2.8,1C68.315,111.9,71.136,111.182,74.323,109.976ZM93.879,98.658c.125-.01.228-.015.315-.02l-.015-.325Zm-.727-1.738c-.169.295-.16.434.315.135.083-.077.149-.154.228-.238C93.513,96.854,93.334,96.884,93.152,96.92Zm-72.345-.773c.32.1.716.258,1.148.439a2.517,2.517,0,0,1,.894.35c.114.042.217.082.331.124A10.306,10.306,0,0,0,21.6,95.311l-.212.093c-.331-.324-.114-.231.1-.17-.3-.211-.475-.191-.624-.118s-.263.154-.434-.036C20.064,95.089,20.765,95.806,20.807,96.146Zm73.156-.392.026.748c.042-.041.083-.082.123-.124l-.031-.814A1.857,1.857,0,0,1,93.962,95.754Zm-.743.4c0,.051.007.108.007.16.061-.062.116-.124.173-.186C93.334,96.142,93.277,96.146,93.22,96.157Zm.361.124c.125-.021.237-.036.361-.062l-.015-.413C93.833,95.94,93.708,96.111,93.581,96.281Zm-.368-.258c.09.016.166.026.245.042a4.959,4.959,0,0,0,.329-.382c.037-.025.057-.041.083-.061a3.534,3.534,0,0,1-.4,0H93.2C93.2,95.754,93.211,95.889,93.213,96.023ZM89.4,95.981l-.009.007c.556-.083.793-.161.835-.243-.208,0-.429-.011-.651-.021C89.522,95.806,89.457,95.894,89.4,95.981Zm4.414-2.114.068,1.744.035-.026-.068-1.763A.214.214,0,0,1,93.818,93.867Zm.072-.093.064,1.784a.656.656,0,0,1,.123-.071l-.068-1.866C93.973,93.671,93.932,93.723,93.89,93.774ZM20.2,94.692a10.217,10.217,0,0,1-.416-1.051,6.618,6.618,0,0,0-.913-.907c.164.644-.125,1.057.453,1.7.02-.149.077-.211.164-.211C19.646,94.223,19.9,94.419,20.2,94.692Zm72.954-.345c.053-.046.094-.082.151-.139,0-.135-.011-.273-.015-.413l-.088.016c-.037-.021-.042-.031-.068-.047Zm.6-2.428.064,1.784.039-.042-.068-1.8C93.768,91.883,93.761,91.9,93.748,91.919Zm.07-.1.068,1.815L94,93.507l-.068-1.825C93.9,91.723,93.851,91.775,93.818,91.816Zm-.736.49c.009.4.026.8.039,1.2l.156-.014c-.015-.423-.031-.856-.046-1.3C93.178,92.233,93.128,92.27,93.082,92.305Zm18.592-40.976c.061.3.1.6.1.66.114-1.079.239-2.155.263-3.233-.6.912-.819-.464-1.078-1.965a8.6,8.6,0,0,0-.705-2.9c.035.149.055.32.1.459-.14.5-.331.371-.51.191.309,3.486.773,6.466,1.66,6.765l.053-.639ZM109.53,48.38l.3.871c.037-.629.053-1.217.059-1.742a2.213,2.213,0,0,1-.372-1C109.534,47.127,109.556,47.746,109.53,48.38Zm-.1-4.006c.011.1.02.2.026.294.066.289.191.82.318,1.367q.069.355.125.68c0-1.221-.057-2.011-.046-2.171-.12-.129-.239-.267-.32-.267C109.488,44.276,109.453,44.3,109.427,44.374Zm-1.816-10.091a5.032,5.032,0,0,0,1.2.248,22.188,22.188,0,0,1,1.222,3.729,14.2,14.2,0,0,1,.309,3.387c.166.608.324,1.36.449,2.025.248,1.378.5,2.362.762.743a55.176,55.176,0,0,0-1.691-7.393A20.356,20.356,0,0,0,106.4,30.58,9.683,9.683,0,0,0,107.611,34.282Zm1.785,9.709a3.622,3.622,0,0,0-.088-1.092C109.348,43.254,109.37,43.626,109.4,43.991Zm.767-.52c0-.036,0-.067,0-.1-.031-.32-.068-.747-.107-1.175-.007-.067-.015-.139-.022-.211A8.294,8.294,0,0,0,110.163,43.471Zm-1.448-4.182a.557.557,0,0,1,.1-.185c-.11-.264-.007-.14.149-.011-.212-.566-.423-1.108-.657-1.629C108.463,38.057,108.586,38.676,108.715,39.29Zm.6-.072c.123-.078.182-.4.046-1.257a2.109,2.109,0,0,0-1.06-2.052A19.145,19.145,0,0,1,109.317,39.217Zm7.947-2.748c.18.69.3,1.392.3,1.392a7.933,7.933,0,0,0-.64-2.779S117.1,35.773,117.264,36.469Zm-10.716-4.037c.16.381.32.757.491,1.154a7.9,7.9,0,0,0-.464-1.2A.125.125,0,0,1,106.549,32.432Zm-2.061-4.306a1.566,1.566,0,0,0-.136-1.217l-.583-.1C104.021,27.244,104.255,27.7,104.487,28.126ZM95.4,16.252c.607.005-.094-.613-1.146-1.19-.035-.021-.068-.037-.1-.058a1.414,1.414,0,0,1-.732-.025.336.336,0,0,0,.237-.242,11.746,11.746,0,0,0-2.331-.861,6.831,6.831,0,0,1-2.109-.11c.427.346.723.594.723.594a2.3,2.3,0,0,0-1.61-.433c-.1,0-.206,0-.313,0a6.2,6.2,0,0,1,1.33,1.485l.031.01a1.945,1.945,0,0,1,.346-.5c-.274-.243-.32-.464.015-.655a8.088,8.088,0,0,0,.791.588.123.123,0,0,0,.024.01l.015.015a2.925,2.925,0,0,0,1.811.49c.129,0,.256,0,.39,0A4.392,4.392,0,0,1,95.4,16.252Zm-2.331-3.6c.123.046.241.093.355.128-.083-.107-.175-.2-.252-.319C93.086,12.483,93.06,12.554,93.067,12.647Zm2.313.124c-.02-.257-.009-.5.537-.423-.861-.35-1.6-.66-2.247-.948C94.221,11.838,94.782,12.292,95.38,12.771Zm-3.025-.449c-.083-.087-.166-.175-.263-.263C92.059,12.116,92.118,12.194,92.355,12.322Zm-4.532-2.041c.762.216,1.627.463,2.6.763l-.342-.464a3.234,3.234,0,0,0-1.426-.407A5.831,5.831,0,0,0,87.823,10.281ZM82.047,8.647c.011.026-.009.041-.031.057.427.093.85.2,1.275.3.968.278,1.989.562,3.22.912-.188-.114-.394-.248-.642-.428a4.711,4.711,0,0,1,3.226.067c-.526-.423-.134-.262.315-.108a1.419,1.419,0,0,0,.686.15c-.265-.15-.528-.309-.8-.479a7.267,7.267,0,0,1-1.746-.763,9.468,9.468,0,0,0-2.76-1.228,1.308,1.308,0,0,0,.254,0,1.657,1.657,0,0,1,.83.16s-.8-.516-1.614-1.032S82.6,5.29,82.6,5.29c.331.428-.453.232-1.3.051-.854-.164-1.794-.284-1.768.135,1.8.825,2.427,1.144,3.143,1.417a13.543,13.543,0,0,1,2.368,1.264,5.449,5.449,0,0,1,.789.3l-.35-.016c.175.114.357.233.556.361a6.978,6.978,0,0,0-2.355-.387A5.043,5.043,0,0,0,82.047,8.647ZM68.227,9.822l.088-.026c.129-.035.248-.067.372-.1A41.034,41.034,0,0,0,62.039,8.7c.16.064.315.127.469.191A47.891,47.891,0,0,1,68.227,9.822Zm1.146-.32a.724.724,0,0,1,.1-.026c-.042-.014-.09-.025-.14-.041Zm12.266-.887c.1.026.2.047.3.068.037-.01.068-.026.11-.036-.02-.042-.068-.088-.186-.156A2.466,2.466,0,0,0,81.639,8.615ZM46.9,111.8a1.562,1.562,0,0,1,.778.4Zm31.614-1.222c-.228.129-.475.263-.756.4Zm-30.583.16.887-.057a1,1,0,0,1-.469.078C48.233,110.754,48.093,110.743,47.929,110.733Zm30.626-.985c.543-.371,1.089-.747,1.089-.747l.285-.051-1.089.752c-.541.387-1.111.727-1.111.727l-.291.036S78.016,110.137,78.555,109.749Zm-50.474-3.862c-1.22-.614-2.392-1.325-3.268-1.872-.887-.52-1.443-.929-1.443-.929a56.763,56.763,0,0,0,9.653,5.08A51.82,51.82,0,0,1,28.081,105.887Zm2.455-.649,1.454.67A8.39,8.39,0,0,1,30.537,105.238Zm-1.652-.79c-.8-.448-1.608-.892-1.608-.892-.145-.325.548-.072,1.2.186a4.333,4.333,0,0,0,1.008.334c-.037-.061-.059-.128-.09-.191.16.149.156.181.09.191a2.132,2.132,0,0,0,1.056,1.161S29.7,104.871,28.885,104.448ZM21.127,101.4l-1.382-1.124,1.192.36c.591.175,1.176.346,1.176.346l-.688.046c.18.537,1.415.99,1.759,1.037l-.629.4S21.817,101.959,21.127,101.4Zm2.057.67.083-.051c.042.036.026.051-.026.051ZM91.56,101.02c.011.025.037.035.022.077-.162.124-.418.325-.651.5C91.143,101.4,91.354,101.209,91.56,101.02Zm-72.61-2.688c.449.95-.026,1.646-1.566.563l1.268-1.021a9.218,9.218,0,0,1,1.165.85c.438.361.8.743.613.975C18.991,99.586,20.4,99.2,18.949,98.332Zm77.957-1.175-1.638,2.062-.254.124Zm-81.69-.686a4.728,4.728,0,0,1,.929,1.078C15.738,97.266,14.919,96.693,15.217,96.472Zm-3.053-4.254L12.65,93l.526.758A10.478,10.478,0,0,1,12.163,92.218Zm-.729-1.192.061-.092c.206.417.418.83.666,1.284Zm-.94-1.644-.594-1.1.959.423a1.47,1.47,0,0,1-.366.676l.453.836c.239.406.486.808.486.808l-.521.8C9.695,90.428,10.133,89.851,10.494,89.382Zm90.245.819a2.334,2.334,0,0,1-.563.506A6.343,6.343,0,0,1,100.74,90.2Zm-91.4-2.176v-.86s.131.278.272.561.294.552.294.552ZM102.4,85.258l.576-.913s-.309.608-.659,1.2-.7,1.182-.7,1.182ZM6.571,84.71S6.2,84,5.651,82.932c-.488-1.088-1.2-2.531-1.752-4.037a52.4,52.4,0,0,1-1.985-6.12.906.906,0,0,1-.285-.526l.219.267S1.6,71.588,1.4,70.65c-.186-.944-.368-1.887-.368-1.887.269-2.574.986-.32.8-3.7-.519-.067-.508.32-.938.893,0,0-.088-.635-.18-1.275L.6,63.394l.294.165-.442-2.1c.423-.516.7.33.918,1.176.3,1.15.51,2.294.881.082,1.089,4.713,1.367,8.786,2.97,13.071-.377-.794-.613.011-.81.258-.572-3.914-1.119-2.29-2.057-5.023a9.063,9.063,0,0,0,.388,3.532,18.1,18.1,0,0,0,.762,2.175,5.108,5.108,0,0,0,.981,1.47l-.232-1.47,1.3,1.171c.046.387-.11.453-.254.453.929.284,1.781,3.791,2.944,5.992-.653-.547-.767-.1-.835.346-.046.3-.072.6-.232.6C7.066,85.293,6.88,85.138,6.571,84.71ZM5.224,75.785a6.2,6.2,0,0,1,.269.706C5.391,76.254,5.314,76.023,5.224,75.785Zm102.538-3.092c-.07.149-.147.314-.208.421C107.613,72.989,107.69,72.841,107.762,72.693Zm6.361-.043a.832.832,0,0,1,0,.17A.441.441,0,0,1,114.123,72.651Zm-6.326-.026c-.011.023-.024.046-.035.069C107.773,72.67,107.786,72.646,107.8,72.624Zm.031-.062c-.011.021-.02.042-.031.062C107.808,72.6,107.817,72.583,107.828,72.562Zm4.383-5.548a1.747,1.747,0,0,0-.337-1.046c.131-.295.269-.608.357-.851,0,0,0-.506-.02-1.263s-.05-1.759-.129-2.753c-.129-2-.416-3.934-.416-3.934l.028-.227c.042,1.809,1.63.175,1.312-2.671l.283.691a12.361,12.361,0,0,1,.061-4.44c.1,2.336.64-1.129.907-1.531,0,0,.022.768-.026,1.918-.026,1.15-.129,2.681-.309,4.2-.164,1.516-.418,3.022-.644,4.134-.206,1.119-.388,1.856-.388,1.856a2.2,2.2,0,0,1-.112-1.6c-.692,3.315.355,2.919-.548,5.625l-.02,1.9a11.426,11.426,0,0,1-.118,2.558Zm-.758-.84c.16-.284.3-.314.421-.206-.081.2-.147.356-.241.577ZM.048,62.657S.033,62.276,0,61.61c.007-.665.013-1.619.022-2.758S.177,56.387.28,54.97c.191-1.4.35-2.913.659-4.383a54.7,54.7,0,0,1,2.125-7.951c.34-1.067.7-1.918.938-2.52s.383-.95.383-.95c-.074,0-.125-.057-.129-.267a1.524,1.524,0,0,0,.377-.341s.134-.315.35-.773.5-1.079.793-1.692.6-1.211.839-1.66.4-.743.4-.743c-.488-.015.708-2.021.9-2.763-.21.85-.134,1.072.053,1.046l.289-.474.67-1.335c.3-1.361,3.789-4.4,2.118-4.367.659-.8,1.9-1.388,2.76-2.734.228-.025.34.005.4.078l.145-.17c-.031.1-.068.2-.1.3a.854.854,0,0,1-.125.334c-.32.872-.506,1.588.521.9-1.119,1.474-2.975,3.34-2.223,3.758A5.176,5.176,0,0,0,14,27.239a10.333,10.333,0,0,0-1.509,2.718A14.151,14.151,0,0,1,11.1,32.57c.221-1.289,2.16-5.408.1-3.732,0,0-.035.562-.061,1.124s-.037,1.119-.037,1.119c-.668.547-.158-.68-.123-1.051-.469-.165-1.987,1.8-1.842,2.469.383-.02,1.213-1.4.99.026,0,0-.112.341-.276.846s-.342,1.207-.532,1.893c-.258.9-.464,1.8-.576,2.315.05-.577-.364-.613-.44-.727-.576.99.11,1.7-.865,2.976,0,0,.015-.567.046-1.13l.061-1.134c-.846,2.144-1.124,2.79-1.4,3.372a9.921,9.921,0,0,0-.712,3.218l-.107-.124c-.407,1.4-1.082,3.929-.841,5.346l-.705-.21c.488,1.067.35,1.335.081,1.727a3.2,3.2,0,0,0-.613,2.429L3.2,52.835c-.2,1.847-.51.922-1,.737a4.446,4.446,0,0,0,.342,3.161A5.089,5.089,0,0,1,2.9,59.878c-.239-.061-.453.129-.657.319-.226.212-.442.429-.664.289a5.414,5.414,0,0,0,.072-2.7c-.372-.258-.464.334-.517.928-.061.758-.066,1.521-.545.48a30.762,30.762,0,0,0-.541,3.464l.088,1.7A8.73,8.73,0,0,1,.048,62.657ZM8.738,37.578a1.961,1.961,0,0,1-.09.428S8.678,37.841,8.738,37.578Zm-.81-6.672a.028.028,0,0,1-.007.021A.028.028,0,0,0,7.927,30.906Zm6.718-4.455a5.006,5.006,0,0,1-.646.789C14.192,26.991,14.391,26.734,14.645,26.45Zm-.092-4.537c.622-.526.911-.562,1.075-.427l-1.266,1.485A2.186,2.186,0,0,0,14.553,21.913Zm1.075-.427s.616-.649,1.222-1.3S18.088,18.9,18.088,18.9c.064.314-1.01,1.676-.061,1.227,0,0-.484.526-.968,1.058s-.959,1.067-.959,1.067C15.856,22.135,15.852,21.661,15.629,21.486Zm83.784-4.729c-.267-.33,1.305.923.815,1.182A3.992,3.992,0,0,0,99.412,16.757ZM90.554,14.87Zm-.613-.51a4.793,4.793,0,0,1,.613.51ZM84.255,6.981c.195.046.355.093.534.145A1.871,1.871,0,0,1,84.255,6.981ZM42.875,6.053C45.149,4.507,44.122,4.47,45.4,3.041l-.6.211c-.346-.077.69-.541.911-.644-.283.294-.009.289.258.289.243,0,.482-.007.331.2l1.428-.747c.723-.361,1.459-.7,1.459-.7l-.453.732s-.563.46-1.1.965l-1.062.99c-.232.1-.464.2-.734.341A3.471,3.471,0,0,1,42.9,6.053ZM55.97,3.46a.017.017,0,0,1-.013.005C55.963,3.465,55.97,3.462,55.97,3.46Zm0,0h0Zm1.465-.633a3.9,3.9,0,0,1-1.093.252Zm11.243-.738a.265.265,0,0,1,.048.108C68.576,2.15,68.486,2.1,68.681,2.087Zm-3.57-.061,1.921.092-1.768.011ZM72.847,1.4s.342.088.666.207l.662.216-1.157.088a.811.811,0,0,1-.21.051C72.612,1.964,73.147,1.583,72.847,1.4ZM55.245.979l.712-.248C56.311.6,56.677.5,56.677.5L57,.654l-.716.217-.714.243Z" transform="translate(1210 5277.001)" fill="#196442" stroke="rgba(0,0,0,0)" stroke-miterlimit="10" stroke-width="1"/>
    <g id="Grupo_1073549" data-name="Grupo 1073549" transform="translate(1237.436 5304.435)">
      <rect id="Rectángulo_378354" data-name="Rectángulo 378354" width="64.83" height="64.831" transform="translate(-2.658 -2.658)" fill="#196442"/>
      <g id="Grupo_1075322" data-name="Grupo 1075322" transform="translate(-4.723 9.221)">
        <g id="Grupo_1075321" data-name="Grupo 1075321" clip-path="url(#clip-path)">
          <path id="Trazado_643580" data-name="Trazado 643580" d="M56.393,40.6v2.927c0,.408-.018.817.005,1.223a.827.827,0,0,1-.509.831.85.85,0,0,1-1-.07,3.454,3.454,0,0,1-.548-.584c-.6-.782-1.184-1.573-1.776-2.36-.053-.07-.112-.135-.2-.239-.423.7-.831,1.38-1.24,2.056-.37.612-.733,1.229-1.115,1.834a1,1,0,0,1-1.772-.07,2.007,2.007,0,0,1-.2-.828c-.022-1.124-.009-2.249-.009-3.373V41.6l-5.426.64c-.879.1-1.757.213-2.637.3a3.381,3.381,0,0,1-.743-.018c-1.392-.166-2.782-.344-4.172-.515s-2.8-.348-4.2-.507c-1.343-.152-2.688-.275-4.031-.426-1.7-.191-3.4-.4-5.093-.6-1.45-.166-2.9-.314-4.35-.486-1.163-.138-2.322-.313-3.485-.451-1.323-.158-2.649-.284-3.972-.441-1.114-.132-2.224-.295-3.337-.433-.828-.1-1.655-.21-2.486-.278a2.971,2.971,0,0,1-2.13-1.171A7.972,7.972,0,0,1,.5,34.052,14.9,14.9,0,0,1,.019,29.59a12.946,12.946,0,0,1,1.453-5.9,5.069,5.069,0,0,1,.362-.547c.131-.172.285-.327.418-.478A8.98,8.98,0,0,1,1.091,17.14a7.951,7.951,0,0,1,1.055-3.356.617.617,0,0,0,0-.709,8.2,8.2,0,0,1-1.1-4.488A8.454,8.454,0,0,1,2.178,4.312,2.538,2.538,0,0,1,4.1,3.051c1.2-.143,2.4-.322,3.606-.465,1.806-.215,3.613-.41,5.42-.616,1.748-.2,3.5-.391,5.245-.6,1.123-.137,2.24-.318,3.363-.456C23.025.751,24.321.623,25.614.474,26.731.345,27.845.2,28.961.07a15.1,15.1,0,0,1,3.688.111c1.43.182,2.868.305,4.3.471,1.155.134,2.306.3,3.46.438,2.1.244,4.207.464,6.308.71,1.984.232,3.964.493,5.948.726,2.072.243,4.147.458,6.219.7,1.866.219,3.728.464,5.593.69.365.044.734.058,1.1.078a1.3,1.3,0,0,1,1.215.8A.912.912,0,0,1,66.2,6.017a1.175,1.175,0,0,0-.836.771,7.608,7.608,0,0,0-.472,4.292,6.568,6.568,0,0,0,.537,1.85.924.924,0,0,0,.7.568,1,1,0,0,1,.762.985,1.069,1.069,0,0,1-.8.958.974.974,0,0,0-.493.329,4.612,4.612,0,0,0-.651,1.771,7.93,7.93,0,0,0,.288,4.313,3.906,3.906,0,0,0,.266.565.792.792,0,0,0,.642.462,1,1,0,0,1,.749.933.961.961,0,0,1-.7.965,1.931,1.931,0,0,0-1.419,1.234,8.907,8.907,0,0,0-.946,3.758,15.831,15.831,0,0,0,.27,4.6,7.792,7.792,0,0,0,.892,2.294,1.5,1.5,0,0,0,1.174.814.95.95,0,0,1,.719.883,1.024,1.024,0,0,1-.642.985,2.247,2.247,0,0,1-.492.113c-1.311.166-2.622.331-3.934.487-1.2.143-2.407.27-3.611.412-.59.069-1.178.155-1.81.239M62.834,25.26a2.8,2.8,0,0,0-.309,0c-1.44.169-2.88.336-4.319.513-1.1.136-2.206.292-3.311.428-1.687.207-3.375.405-5.062.607q-2.247.269-4.494.537c-1.727.2-3.453.427-5.184.592a1.517,1.517,0,0,0-1.331.846c-.055.106-.118.207-.171.314a9.8,9.8,0,0,0-.915,3.434,14.277,14.277,0,0,0,.442,5.727,4.376,4.376,0,0,0,1.052,1.978.877.877,0,0,0,.558.277c.752-.052,1.5-.161,2.248-.256,1.143-.145,2.285-.3,3.428-.443.846-.1,1.695-.193,2.55-.29V33.3c-.12-.016-.227-.025-.333-.044a.946.946,0,0,1-.787-.561,1.059,1.059,0,0,1,.883-1.473c1.234-.147,2.467-.3,3.7-.448q2.663-.318,5.327-.631a1.253,1.253,0,0,1,.238-.006,1.188,1.188,0,0,1,1.009.964,1.142,1.142,0,0,1-.623.946,10.418,10.418,0,0,1-1.019.251v6.213l6.785-.811a14.907,14.907,0,0,1-.361-12.435M12.307,13.324c-.007-.091-.009-.188-.022-.284-.088-.689-.205-1.376-.263-2.067a10.593,10.593,0,0,1,.24-3.023,1,1,0,0,1,.32-.512A.843.843,0,0,1,13.7,7.32a1.05,1.05,0,0,1,.549,1.1,12.671,12.671,0,0,0-.08,3.241c.078.578.184,1.154.31,1.724a.443.443,0,0,0,.309.243c.371.067.75.084,1.125.131,1.28.163,2.559.346,3.841.5,1.52.177,3.043.32,4.564.489s3.042.344,4.562.529c1.074.131,2.144.3,3.219.421,1.292.15,2.587.272,3.88.413.371.04.739.1,1.194.167A9.808,9.808,0,0,1,37.418,9c-.126-.023-.219-.046-.313-.057-1.3-.141-2.609-.269-3.911-.425-1.221-.147-2.437-.336-3.658-.484-.995-.12-2-.195-2.991-.313-1.569-.186-3.135-.4-4.7-.587-1.329-.161-2.659-.306-3.989-.457-.345-.039-.691-.072-1.037-.111-1.174-.131-2.349-.26-3.523-.4-1.073-.127-2.145-.265-3.225-.4a10.123,10.123,0,0,0-.7,3.674,11.191,11.191,0,0,0,.512,3.376c.047.155.1.285.311.3.691.055,1.382.129,2.117.2m14.781,25.7a1.432,1.432,0,0,0-.014-.148c-.014-.057-.032-.114-.05-.171a18.323,18.323,0,0,1-.677-8.567,15.2,15.2,0,0,1,.856-3.247c.131-.316.123-.348-.216-.387-.968-.112-1.936-.221-2.9-.339-1.154-.14-2.3-.3-3.459-.427-1.124-.125-2.254-.2-3.377-.334-1.371-.161-2.737-.359-4.107-.532a.278.278,0,0,0-.229.1,11.527,11.527,0,0,0-1.2,3.446,17.077,17.077,0,0,0-.124,4.813,15.582,15.582,0,0,0,.885,3.752.633.633,0,0,0,.641.45c1.128.1,2.255.2,3.38.324,1.392.156,2.781.343,4.173.508,1.234.146,2.47.276,3.7.42.895.1,1.788.222,2.714.337m2.8-14.237c-.1-.617-.226-1.181-.268-1.752a12.252,12.252,0,0,1,.514-5.121c.142-.393.106-.429-.32-.474-1.175-.123-2.352-.236-3.526-.366-.374-.041-.743-.137-1.117-.177-1.274-.139-2.55-.252-3.823-.4-1.451-.166-2.9-.362-4.35-.532-.907-.106-1.819-.174-2.726-.283-1.172-.142-2.339-.319-3.511-.461-1.223-.148-2.449-.272-3.674-.409-.84-.094-1.679-.193-2.518-.287-.494-.055-.56-.042-.77.409A5.667,5.667,0,0,0,3.34,16.19a8.6,8.6,0,0,0-.1,3.316,5.063,5.063,0,0,0,.718,2.029.563.563,0,0,0,.318.229c.5.085,1,.144,1.506.2,1.5.172,3,.335,4.5.511,1.006.118,2.01.264,3.017.379,1.065.121,2.133.21,3.2.331,1.422.162,2.842.341,4.263.513q1.983.24,3.965.481c.288.035.574.087.888.135-.021-.109-.028-.158-.041-.205a10.943,10.943,0,0,1-.347-4.805,5.836,5.836,0,0,1,.295-1.176.848.848,0,0,1,.882-.494.96.96,0,0,1,.869.532,1.718,1.718,0,0,1,.046,1.012c-.047.883-.04,1.768-.071,2.652a6.7,6.7,0,0,0,.534,2.517.436.436,0,0,0,.3.217c.342.057.691.072,1.037.112.254.029.506.071.771.109m33.409-8.948a.687.687,0,0,0-.142-.012q-2.648.326-5.295.653c-1.646.2-3.291.406-4.938.6-1.164.134-2.332.236-3.5.372q-3.671.426-7.339.873a16.906,16.906,0,0,1-1.829.227.955.955,0,0,0-.959.6,4.744,4.744,0,0,0-.224.519,9.221,9.221,0,0,0-.222,4.449,3.308,3.308,0,0,0,.68,1.633.515.515,0,0,0,.359.193c.642-.055,1.281-.142,1.92-.223,1.449-.184,2.9-.381,4.346-.554,1.776-.212,3.554-.4,5.33-.61,1.429-.168,2.857-.351,4.285-.525q3.107-.378,6.215-.751c.53-.064,1.061-.122,1.591-.183a9.739,9.739,0,0,1-.284-7.254m0-9.383c-.155.019-.288.037-.422.051-1.154.125-2.31.238-3.463.377s-2.282.316-3.426.451c-2.082.246-4.167.467-6.249.709-1.439.167-2.875.357-4.314.529q-2.708.323-5.418.63a.729.729,0,0,0-.6.379c-.078.138-.154.278-.219.423a8.416,8.416,0,0,0-.421,4.2,5.891,5.891,0,0,0,.493,1.735c.278.672.373.665,1.089.569,1.388-.187,2.779-.357,4.171-.52.956-.112,1.916-.183,2.871-.3,1.655-.2,3.307-.434,4.962-.64,1.824-.228,3.649-.442,5.474-.658.729-.086,1.459-.159,2.188-.24.355-.039.709-.083,1.064-.125l2.457-.292A10.027,10.027,0,0,1,63.3,6.454M13.4,4.013c0,.03,0,.06-.007.09.155.025.31.058.467.073.584.054,1.17.086,1.752.155,1.213.143,2.423.312,3.637.455,1.274.149,2.55.275,3.824.421,1.421.163,2.84.335,4.26.505,1.342.161,2.683.332,4.026.488,2.064.24,4.133.44,6.191.72a11.979,11.979,0,0,0,3.2.18c.492-.065.979-.174,1.472-.231,1.055-.124,2.114-.218,3.169-.341,1.372-.16,2.743-.34,4.114-.5,1.194-.143,2.388-.275,3.583-.413.562-.065,1.126-.121,1.685-.2.671-.1,1.338-.22,2.008-.332,0-.025,0-.05,0-.075-.094-.015-.189-.035-.283-.044-.95-.082-1.9-.146-2.85-.246q-3.245-.345-6.486-.721c-1.223-.143-2.44-.326-3.661-.478-.631-.079-1.267-.117-1.9-.195-1.164-.144-2.324-.32-3.489-.455s-2.331-.233-3.5-.355c-1.293-.135-2.583-.355-3.879-.4a29.594,29.594,0,0,0-3.418.2c-.553.046-1.1.185-1.649.249-1.095.127-2.194.22-3.288.349-1.3.153-2.6.333-3.9.493-1.692.208-3.384.409-5.076.612M37.077,27.675c-1.13-.132-2.213-.263-3.3-.376a.336.336,0,0,0-.255.171,11.668,11.668,0,0,0-1.008,3.69c-.106,1.085-.059,2.185-.084,3.279a11.8,11.8,0,0,0,1.143,5.039.479.479,0,0,0,.5.356,5.11,5.11,0,0,1,.648.086c.645.064,1.291.121,2,.188a14.855,14.855,0,0,1-1.125-6.97,8.6,8.6,0,0,1,.039-.922,14.1,14.1,0,0,1,1.132-3.874c.1-.213.193-.43.3-.669M6.1,36.585a1.058,1.058,0,0,0-.014-.164A19.434,19.434,0,0,1,5.256,30.3a16.408,16.408,0,0,1,.521-3.769c.187-.717.462-1.412.707-2.114.1-.285.063-.341-.232-.366-.594-.051-1.191-.086-1.777-.189a.858.858,0,0,0-.891.331,4.431,4.431,0,0,0-.413.618,7.631,7.631,0,0,0-.931,3.151,16.382,16.382,0,0,0,.24,5.57A5.461,5.461,0,0,0,3.75,36.129a.515.515,0,0,0,.235.167c.695.1,1.392.193,2.111.289M37.409,18.38c-1.611-.2-3.187-.4-4.761-.595a.335.335,0,0,0-.4.25A10.511,10.511,0,0,0,32,24.765c.059.228.2.285.41.309,1.531.176,3.06.36,4.59.539a.632.632,0,0,0,.164-.035,9.7,9.7,0,0,1,.247-7.2M54.361,32.523c-.624.065-1.214.129-1.8.189-.622.063-1.243.133-1.865.182-.506.04-.511.032-.511.527V41.89a.863.863,0,0,0,.256-.3c.335-.552.646-1.121,1.012-1.651a.952.952,0,0,1,1.595-.076c.178.2.333.421.5.634.257.334.513.669.821,1.071ZM7.674,12.857a1.824,1.824,0,0,0,0-.355,15.377,15.377,0,0,1-.3-3.376A10.023,10.023,0,0,1,7.9,5.851c.106-.31.072-.363-.285-.4-.907-.1-1.814-.2-2.722-.3-.867-.09-.986-.005-1.29.833a8,8,0,0,0-.421,3.723,6.235,6.235,0,0,0,.642,2.276.743.743,0,0,0,.621.439c.712.069,1.423.142,2.132.232.361.046.717.131,1.1.2M10.3,37.038A18.142,18.142,0,0,1,10.753,24.6c-.579-.065-1.1-.085-1.6-.193-.309-.067-.424.042-.546.279A10.376,10.376,0,0,0,7.45,28.447a29.073,29.073,0,0,0-.028,4.5,11.835,11.835,0,0,0,.958,3.731.444.444,0,0,0,.31.209c.52.067,1.043.1,1.61.155M31.408,26.973c-.665-.052-1.266-.105-1.868-.137-.061,0-.158.106-.19.183a13.583,13.583,0,0,0-1,3.6,20.431,20.431,0,0,0-.089,4.074,12.861,12.861,0,0,0,1.122,4.327c.05.111.14.27.231.285.553.09,1.111.144,1.714.216-.035-.144-.051-.219-.07-.293a26.208,26.208,0,0,1-.708-2.855c-.156-1.126-.151-2.276-.2-3.416a14.952,14.952,0,0,1,.9-5.347c.064-.191.1-.393.153-.637" transform="translate(0 0)" fill="#fff"/>
        </g>
      </g>
    </g>
  </g>
</svg>
