<svg xmlns="http://www.w3.org/2000/svg" xmlns:xlink="http://www.w3.org/1999/xlink" width="1030" height="490.747" viewBox="0 0 1030 490.747">
  <defs>
    <linearGradient id="linear-gradient" x1="0.5" x2="0.5" y2="1" gradientUnits="objectBoundingBox">
      <stop offset="0" stop-color="#e6f9ff"/>
      <stop offset="1" stop-color="#e7edf9"/>
    </linearGradient>
  </defs>
  <g id="img5" transform="translate(-285 -3602.586)">
    <g id="Grupo_1074828" data-name="Grupo 1074828" transform="translate(0 -5564.414)">
      <path id="Trazado_608976" data-name="Trazado 608976" d="M16,0h998c8.837,0,16,7.609,16,17V473.751c0,9.386-7.163,17-16,17H16c-8.837,0-16-7.609-16-17V17C0,7.609,7.163,0,16,0Z" transform="translate(285 9167)" fill="url(#linear-gradient)"/>
    </g>
    <g id="Grupo_1074964" data-name="Grupo 1074964">
      <g id="Trazado_642173" data-name="Trazado 642173" transform="translate(515 3637)" fill="#c7e3d7">
        <path d="M 604.8801879882812 380.5 L 1.5 380.5 L 1.5 -6.256811618804932 L 604.8801879882812 380.5 Z" stroke="none"/>
        <path d="M 3 -3.513641357421875 L 3 379 L 599.7604370117188 379 L 3 -3.513641357421875 M 0 -8.999969482421875 L 610 382 L 0 382 L 0 -8.999969482421875 Z" stroke="none" fill="#2d4587"/>
      </g>
      <path id="Trazado_643692" data-name="Trazado 643692" d="M4.652-10.184H6.516A1.937,1.937,0,0,0,8.73-12.352,1.875,1.875,0,0,0,8.2-13.729a2,2,0,0,0-1.488-.533A2.141,2.141,0,0,0,5.35-13.8a1.394,1.394,0,0,0-.58,1.137H.82a4.043,4.043,0,0,1,.75-2.4,4.953,4.953,0,0,1,2.08-1.646,7.112,7.112,0,0,1,2.924-.592,6.988,6.988,0,0,1,4.477,1.3,4.324,4.324,0,0,1,1.629,3.574,3.6,3.6,0,0,1-.674,2.08,4.8,4.8,0,0,1-1.963,1.588,4.587,4.587,0,0,1,2.133,1.494,3.935,3.935,0,0,1,.773,2.479,4.4,4.4,0,0,1-1.758,3.656A7.3,7.3,0,0,1,6.574.234,7.567,7.567,0,0,1,3.463-.4a4.875,4.875,0,0,1-2.174-1.77A4.6,4.6,0,0,1,.551-4.746H4.523a1.778,1.778,0,0,0,.633,1.359,2.234,2.234,0,0,0,1.559.574,2.34,2.34,0,0,0,1.664-.58A1.939,1.939,0,0,0,9-4.875,2.267,2.267,0,0,0,8.355-6.7a2.694,2.694,0,0,0-1.781-.539H4.652ZM26.344-2.812a1.756,1.756,0,0,0,1.289-.451,1.654,1.654,0,0,0,.445-1.26h3.7A4.384,4.384,0,0,1,30.287-1.1,5.558,5.558,0,0,1,26.438.234,5.627,5.627,0,0,1,22.078-1.5a6.834,6.834,0,0,1-1.594-4.8v-.164a7.723,7.723,0,0,1,.709-3.393,5.162,5.162,0,0,1,2.045-2.262,6.1,6.1,0,0,1,3.164-.791,5.488,5.488,0,0,1,3.926,1.371,4.863,4.863,0,0,1,1.453,3.715h-3.7A2.168,2.168,0,0,0,27.6-9.34a1.658,1.658,0,0,0-1.289-.527q-1.535,0-1.793,1.957A13.809,13.809,0,0,0,24.434-6.2a5.424,5.424,0,0,0,.457,2.648A1.582,1.582,0,0,0,26.344-2.812Zm10.84-9.867.129,1.488a4.36,4.36,0,0,1,3.621-1.723A3.21,3.21,0,0,1,44.18-11a4.22,4.22,0,0,1,3.727-1.91q3.855,0,3.961,4.664V0H47.906V-8a2.417,2.417,0,0,0-.328-1.418,1.4,1.4,0,0,0-1.2-.445,1.871,1.871,0,0,0-1.746,1.043l.012.164V0H40.688V-7.98a2.541,2.541,0,0,0-.316-1.441,1.393,1.393,0,0,0-1.207-.445A1.894,1.894,0,0,0,37.43-8.824V0H33.48V-12.68Z" transform="translate(498 3903) rotate(-90)" fill="#12263f" stroke="rgba(0,0,0,0)" stroke-width="1"/>
      <path id="Trazado_643696" data-name="Trazado 643696" d="M11.473-6.668h1.734v3.047H11.473V0H7.523V-3.621H.926L.691-6.035,7.523-17.027v-.035h3.949Zm-7.02,0h3.07v-5.25l-.246.4ZM26.344-2.812a1.756,1.756,0,0,0,1.289-.451,1.654,1.654,0,0,0,.445-1.26h3.7A4.384,4.384,0,0,1,30.287-1.1,5.558,5.558,0,0,1,26.438.234,5.627,5.627,0,0,1,22.078-1.5a6.834,6.834,0,0,1-1.594-4.8v-.164a7.723,7.723,0,0,1,.709-3.393,5.162,5.162,0,0,1,2.045-2.262,6.1,6.1,0,0,1,3.164-.791,5.488,5.488,0,0,1,3.926,1.371,4.863,4.863,0,0,1,1.453,3.715h-3.7A2.168,2.168,0,0,0,27.6-9.34a1.658,1.658,0,0,0-1.289-.527q-1.535,0-1.793,1.957A13.809,13.809,0,0,0,24.434-6.2a5.424,5.424,0,0,0,.457,2.648A1.582,1.582,0,0,0,26.344-2.812Zm10.84-9.867.129,1.488a4.36,4.36,0,0,1,3.621-1.723A3.21,3.21,0,0,1,44.18-11a4.22,4.22,0,0,1,3.727-1.91q3.855,0,3.961,4.664V0H47.906V-8a2.417,2.417,0,0,0-.328-1.418,1.4,1.4,0,0,0-1.2-.445,1.871,1.871,0,0,0-1.746,1.043l.012.164V0H40.688V-7.98a2.541,2.541,0,0,0-.316-1.441,1.393,1.393,0,0,0-1.207-.445A1.894,1.894,0,0,0,37.43-8.824V0H33.48V-12.68Z" transform="translate(692 4051)" fill="#12263f" stroke="rgba(0,0,0,0)" stroke-width="1"/>
      <path id="Trazado_643693" data-name="Trazado 643693" d="M8.824-6.6A4.171,4.171,0,0,1,5.965-5.449a4.617,4.617,0,0,1-3.68-1.57,6.187,6.187,0,0,1-1.359-4.2,6.3,6.3,0,0,1,.762-3.047,5.716,5.716,0,0,1,2.139-2.227,5.831,5.831,0,0,1,3.041-.82,5.66,5.66,0,0,1,3.053.85,5.72,5.72,0,0,1,2.127,2.4,8.252,8.252,0,0,1,.785,3.58v1.512a10.257,10.257,0,0,1-1.107,4.9A7.645,7.645,0,0,1,8.566-.879,9.868,9.868,0,0,1,3.785.234H3.539V-2.93l.75-.012Q8.367-3.141,8.824-6.6ZM7.031-8.3A1.923,1.923,0,0,0,8.883-9.41v-1.641a4.266,4.266,0,0,0-.551-2.426,1.727,1.727,0,0,0-1.488-.785,1.633,1.633,0,0,0-1.395.891,3.957,3.957,0,0,0-.562,2.156,3.548,3.548,0,0,0,.574,2.127A1.837,1.837,0,0,0,7.031-8.3ZM26.789-6.973a8.147,8.147,0,0,1-1.553,5.332A5.366,5.366,0,0,1,20.859.234a5.4,5.4,0,0,1-4.406-1.887,8.135,8.135,0,0,1-1.559-5.32V-10.09a8.147,8.147,0,0,1,1.553-5.332A5.379,5.379,0,0,1,20.836-17.3,5.381,5.381,0,0,1,25.23-15.41a8.155,8.155,0,0,1,1.559,5.332ZM22.84-10.594a6.085,6.085,0,0,0-.48-2.748,1.606,1.606,0,0,0-1.523-.908,1.568,1.568,0,0,0-1.482.844,5.733,5.733,0,0,0-.5,2.555v4.359a6.131,6.131,0,0,0,.48,2.795,1.612,1.612,0,0,0,1.523.885,1.59,1.59,0,0,0,1.488-.861,5.853,5.853,0,0,0,.492-2.7Z" transform="translate(535 3998)" fill="#12263f" stroke="rgba(0,0,0,0)" stroke-width="1"/>
      <path id="Trazado_643694" data-name="Trazado 643694" d="M7.465-17.3a6.523,6.523,0,0,1,4.219,1.219,4.135,4.135,0,0,1,1.5,3.4,4.11,4.11,0,0,1-.6,2.186A4.371,4.371,0,0,1,10.922-8.93a4.438,4.438,0,0,1,2.227,1.541,4.253,4.253,0,0,1,.773,2.6,4.952,4.952,0,0,1-1.348,3.709A5.252,5.252,0,0,1,8.742.234,6.329,6.329,0,0,1,5.52-.6V4.863H1.57v-16.8a5.191,5.191,0,0,1,.75-2.777,5.074,5.074,0,0,1,2.115-1.9A6.7,6.7,0,0,1,7.465-17.3Zm1.77,4.98a1.988,1.988,0,0,0-.486-1.412,1.672,1.672,0,0,0-1.283-.521,1.8,1.8,0,0,0-1.4.6A2.475,2.475,0,0,0,5.52-11.93v8.637a4.4,4.4,0,0,0,2.191.48,2.307,2.307,0,0,0,1.641-.58,1.939,1.939,0,0,0,.621-1.482,2.517,2.517,0,0,0-.6-1.881,2.449,2.449,0,0,0-1.764-.58H6.762v-2.707l.949-.012Q9.234-10.207,9.234-12.316Z" transform="translate(1040 4004)" fill="#12263f" stroke="rgba(0,0,0,0)" stroke-width="1"/>
      <path id="Trazado_643690" data-name="Trazado 643690" d="M13.16-6.973a8.147,8.147,0,0,1-1.553,5.332A5.366,5.366,0,0,1,7.23.234,5.4,5.4,0,0,1,2.824-1.652a8.135,8.135,0,0,1-1.559-5.32V-10.09a8.147,8.147,0,0,1,1.553-5.332A5.379,5.379,0,0,1,7.207-17.3,5.381,5.381,0,0,1,11.6-15.41a8.155,8.155,0,0,1,1.559,5.332ZM9.211-7.16H5.227v.668A6.131,6.131,0,0,0,5.707-3.7a1.612,1.612,0,0,0,1.523.885,1.59,1.59,0,0,0,1.488-.861,5.853,5.853,0,0,0,.492-2.7ZM5.227-10.055H9.211v-.539a6.086,6.086,0,0,0-.48-2.748,1.606,1.606,0,0,0-1.523-.908,1.58,1.58,0,0,0-1.5.879,5.968,5.968,0,0,0-.48,2.672Z" transform="translate(527 3675)" fill="#12263f" stroke="rgba(0,0,0,0)" stroke-width="1"/>
      <path id="Trazado_643695" data-name="Trazado 643695" d="M10.98-3.187H5.344L4.359,0H-.035L6.223-17.062H10.09L16.395,0H11.977ZM6.328-6.363H10l-1.84-5.918Z" transform="translate(495 4042)" fill="#12263f" stroke="rgba(0,0,0,0)" stroke-width="1"/>
      <path id="Trazado_643697" data-name="Trazado 643697" d="M1.289,0V-17.062H7.418a8.679,8.679,0,0,1,5.01,1.207,4.016,4.016,0,0,1,1.717,3.5,4.06,4.06,0,0,1-.609,2.262,3.551,3.551,0,0,1-1.793,1.383,3.6,3.6,0,0,1,2.051,1.313,3.816,3.816,0,0,1,.715,2.344A4.518,4.518,0,0,1,12.92-1.283,7.556,7.556,0,0,1,8.215,0ZM5.4-7.254v4.09H8.1a2.564,2.564,0,0,0,1.711-.51,1.784,1.784,0,0,0,.6-1.436A1.891,1.891,0,0,0,8.285-7.254Zm0-2.7H7.547a3.047,3.047,0,0,0,1.922-.494,1.752,1.752,0,0,0,.574-1.422,1.839,1.839,0,0,0-.621-1.557,3.324,3.324,0,0,0-2-.476H5.4Z" transform="translate(1125 4042)" fill="#12263f" stroke="rgba(0,0,0,0)" stroke-width="1"/>
      <path id="Trazado_643689" data-name="Trazado 643689" d="M15.094-5.777a6.231,6.231,0,0,1-.961,3.146A5.8,5.8,0,0,1,11.666-.516a8.4,8.4,0,0,1-3.627.75,6.7,6.7,0,0,1-5.3-2.191A9.048,9.048,0,0,1,.809-8.145v-.844a10.328,10.328,0,0,1,.873-4.389A6.615,6.615,0,0,1,4.2-16.283a7.013,7.013,0,0,1,3.8-1.025,7.354,7.354,0,0,1,4.992,1.635,6.459,6.459,0,0,1,2.145,4.506h-4.1a3.056,3.056,0,0,0-.785-2.238,3.229,3.229,0,0,0-2.25-.68,2.457,2.457,0,0,0-2.25,1.148,7.381,7.381,0,0,0-.75,3.668v1.207a8.167,8.167,0,0,0,.686,3.9A2.509,2.509,0,0,0,8.039-2.988a3.159,3.159,0,0,0,2.168-.668A2.835,2.835,0,0,0,11-5.777Z" transform="translate(495 3626)" fill="#12263f" stroke="rgba(0,0,0,0)" stroke-width="1"/>
      <path id="Trazado_643691" data-name="Trazado 643691" d="M1.277-8.335,2.32-17.062h9.973v3.07H5.531L5.145-10.6a4.658,4.658,0,0,1,1.107-.436,5.053,5.053,0,0,1,1.342-.188A5.006,5.006,0,0,1,11.5-9.721,6.066,6.066,0,0,1,12.867-5.5a6.055,6.055,0,0,1-.732,2.971A5.034,5.034,0,0,1,10.078-.48,6.493,6.493,0,0,1,6.949.234,6.987,6.987,0,0,1,3.938-.427a5.4,5.4,0,0,1-2.2-1.815A4.41,4.41,0,0,1,.949-4.847H4.91a2.24,2.24,0,0,0,.6,1.485,1.9,1.9,0,0,0,1.418.55q1.992,0,1.992-2.947,0-2.725-2.437-2.725A2.432,2.432,0,0,0,4.418-7.6ZM26.344-2.812a1.756,1.756,0,0,0,1.289-.451,1.654,1.654,0,0,0,.445-1.26h3.7A4.384,4.384,0,0,1,30.287-1.1,5.558,5.558,0,0,1,26.438.234,5.627,5.627,0,0,1,22.078-1.5a6.834,6.834,0,0,1-1.594-4.8v-.164a7.723,7.723,0,0,1,.709-3.393,5.162,5.162,0,0,1,2.045-2.262,6.1,6.1,0,0,1,3.164-.791,5.488,5.488,0,0,1,3.926,1.371,4.863,4.863,0,0,1,1.453,3.715h-3.7A2.168,2.168,0,0,0,27.6-9.34a1.658,1.658,0,0,0-1.289-.527q-1.535,0-1.793,1.957A13.809,13.809,0,0,0,24.434-6.2a5.424,5.424,0,0,0,.457,2.648A1.582,1.582,0,0,0,26.344-2.812Zm10.84-9.867.129,1.488a4.36,4.36,0,0,1,3.621-1.723A3.21,3.21,0,0,1,44.18-11a4.22,4.22,0,0,1,3.727-1.91q3.855,0,3.961,4.664V0H47.906V-8a2.417,2.417,0,0,0-.328-1.418,1.4,1.4,0,0,0-1.2-.445,1.871,1.871,0,0,0-1.746,1.043l.012.164V0H40.688V-7.98a2.541,2.541,0,0,0-.316-1.441,1.393,1.393,0,0,0-1.207-.445A1.894,1.894,0,0,0,37.43-8.824V0H33.48V-12.68Z" transform="translate(778.094 3778.35) rotate(34)" fill="#12263f" stroke="rgba(0,0,0,0)" stroke-width="1"/>
      <path id="Trazado_642174" data-name="Trazado 642174" d="M-4522-6482.667h68.667V-6424" transform="translate(5037 10440)" fill="none" stroke="#2d4587" stroke-width="3"/>
    </g>
  </g>
</svg>
