<svg xmlns="http://www.w3.org/2000/svg" xmlns:xlink="http://www.w3.org/1999/xlink" width="121.668" height="125" viewBox="0 0 121.668 125">
  <defs>
    <clipPath id="clip-path">
      <rect id="Rect치ngulo_379625" data-name="Rect치ngulo 379625" width="82" height="76.148" fill="none"/>
    </clipPath>
  </defs>
  <g id="img5" transform="translate(-391 -3644)">
    <g id="Grupo_1074791" data-name="Grupo 1074791" transform="translate(2.332 -2353)">
      <g id="Grupo_1072788" data-name="Grupo 1072788" transform="translate(13.999 114.601)">
        <g id="Grupo_1072785" data-name="Grupo 1072785" transform="translate(386.668 5997)">
          <path id="Trazado_608385" data-name="Trazado 608385" d="M48.909,0C75.921,0,97.818,2.328,97.818,5.2s-21.9,5.2-48.909,5.2S0,8.071,0,5.2,21.9,0,48.909,0Z" transform="translate(0 0)" fill="none"/>
        </g>
        <g id="Grupo_1073383" data-name="Grupo 1073383" transform="translate(386.668 5997)">
          <path id="Trazado_608385-2" data-name="Trazado 608385" d="M48.909,0C75.921,0,97.818,2.328,97.818,5.2s-21.9,5.2-48.909,5.2S0,8.071,0,5.2,21.9,0,48.909,0Z" transform="translate(0 0)" fill="#11462e"/>
        </g>
      </g>
      <g id="Grupo_1073526" data-name="Grupo 1073526" transform="translate(2)">
        <g id="Grupo_1072785-2" data-name="Grupo 1072785" transform="translate(386.668 5997)">
          <path id="Trazado_608385-3" data-name="Trazado 608385" d="M60.834,0A60.834,60.834,0,1,1,0,60.834,60.834,60.834,0,0,1,60.834,0Z" transform="translate(0 0)" fill="none"/>
        </g>
        <g id="Grupo_1073383-2" data-name="Grupo 1073383" transform="translate(386.668 5997)">
          <path id="Trazado_608385-4" data-name="Trazado 608385" d="M60.834,0A60.834,60.834,0,1,1,0,60.834,60.834,60.834,0,0,1,60.834,0Z" transform="translate(0 0)" fill="#fff"/>
        </g>
      </g>
    </g>
    <g id="Grupo_1074794" data-name="Grupo 1074794" transform="translate(-1.504 1074)">
      <rect id="Rect치ngulo_378255" data-name="Rect치ngulo 378255" width="82" height="82" transform="translate(412.504 2589)" fill="#fff"/>
      <g id="Grupo_1074811" data-name="Grupo 1074811" transform="translate(412.504 2592.37)">
        <path id="Trazado_642138" data-name="Trazado 642138" d="M0,0H68.746V69.826H0Z" transform="translate(0.607 5.715)" fill="#d0dbf8"/>
        <path id="Trazado_642128" data-name="Trazado 642128" d="M1.215,13.828H68.746V82.44H1.215ZM0,83.654H69.96V12.614H0Z" transform="translate(0 -7.506)" fill="#283455"/>
        <g id="Grupo_1074810" data-name="Grupo 1074810">
          <g id="Enmascarar_grupo_1074809" data-name="Enmascarar grupo 1074809" clip-path="url(#clip-path)">
            <path id="Trazado_642129" data-name="Trazado 642129" d="M85.662,80.639A17.636,17.636,0,1,1,68.025,63,17.636,17.636,0,0,1,85.662,80.639" transform="translate(-29.986 -37.491)" fill="#c7e3d7"/>
            <path id="Trazado_642130" data-name="Trazado 642130" d="M66.438,97.768A18.716,18.716,0,1,1,85.154,79.052,18.737,18.737,0,0,1,66.438,97.768m0-36.473A17.756,17.756,0,1,0,84.195,79.052,17.777,17.777,0,0,0,66.438,61.3" transform="translate(-28.399 -35.905)" fill="#283455"/>
            <path id="Trazado_642131" data-name="Trazado 642131" d="M75.223,91.43l.294.383a11.978,11.978,0,0,1-1.17,1.023,8.877,8.877,0,0,1-1.125.756,1.792,1.792,0,0,1-.694.267q-.418,0-.418-.516a3.823,3.823,0,0,1,.147-.823,3.676,3.676,0,0,1,.2-.654q.08-.32.178-.614l-.036-.036a14.83,14.83,0,0,1-1.673,1.8,2.642,2.642,0,0,1-1.682.845,1.267,1.267,0,0,1-1.032-.583,2.8,2.8,0,0,1-.436-1.695,5.736,5.736,0,0,1,.476-2.26,6.9,6.9,0,0,1,1.312-2.02,6.605,6.605,0,0,1,1.931-1.437,5.157,5.157,0,0,1,2.3-.538q.143,0,.867.089t.832.1l.107.213a20.247,20.247,0,0,0-.97,2.438q-.454,1.37-.725,2.465a9.234,9.234,0,0,0-.271,1.3q0,.364.222.365a2.885,2.885,0,0,0,1.166-.694,1.044,1.044,0,0,1,.2-.169m-1.29-5.1a3.749,3.749,0,0,0-1.077-.222,2.424,2.424,0,0,0-1.388.449A4.34,4.34,0,0,0,70.3,87.778a6.688,6.688,0,0,0-.8,1.721,6.34,6.34,0,0,0-.294,1.877,1.811,1.811,0,0,0,.236,1.037q.236.334.476.334a2.106,2.106,0,0,0,1.063-.587,6.792,6.792,0,0,0,1.33-1.512,5.861,5.861,0,0,0,.667-1.295q.267-.715.765-2.424.018-.044.094-.285c.05-.16.081-.264.093-.311" transform="translate(-40.332 -50.777)" fill="#283455"/>
            <path id="Trazado_642132" data-name="Trazado 642132" d="M45.479,48.721l.365.507q-2.242,1.823-3.577,1.824a1.429,1.429,0,0,1-1.072-.4,2,2,0,0,1-.521-.943,4.442,4.442,0,0,1-.134-1.054,5.828,5.828,0,0,1,.472-2.3,6.847,6.847,0,0,1,1.281-1.989,6.315,6.315,0,0,1,1.771-1.365,4.167,4.167,0,0,1,1.9-.49,1.4,1.4,0,0,1,.783.227.858.858,0,0,1,.347.778,2.493,2.493,0,0,1-.649,1.633,4.21,4.21,0,0,1-1.5,1.152,7.744,7.744,0,0,1-1.41.511q-.716.182-1.41.289,0,.036-.058.458a5.412,5.412,0,0,0-.058.725,3.231,3.231,0,0,0,.2,1.148.768.768,0,0,0,.787.534,4.826,4.826,0,0,0,2.482-1.254M42.3,46.479a4.746,4.746,0,0,0,2.807-1.2A2.432,2.432,0,0,0,45.8,43.8q0-.6-.56-.6a2.471,2.471,0,0,0-1.481.761A5.711,5.711,0,0,0,42.3,46.479" transform="translate(-24.125 -25.303)" fill="#283455"/>
            <path id="Trazado_642133" data-name="Trazado 642133" d="M131.951,27.774l.111-.411q.835.083,1.9.083l.613-.014.87-.014q.543-.028,1.075-.007a3.932,3.932,0,0,1,1.023.174,1.679,1.679,0,0,1,.807.532,1.575,1.575,0,0,1,.317,1.041,2.172,2.172,0,0,1-.264,1.048,2.643,2.643,0,0,1-.724.845,3.463,3.463,0,0,1-.838.5,9.486,9.486,0,0,1-1.041.317v.028a3.321,3.321,0,0,1,1.434.414,1.478,1.478,0,0,1,.605,1.4,2.752,2.752,0,0,1-.275,1.228,3.312,3.312,0,0,1-.689.954,4.054,4.054,0,0,1-.9.651,4.444,4.444,0,0,1-1,.379,6.658,6.658,0,0,1-1.594.15q-.431,0-1.114-.028A11.287,11.287,0,0,0,131.123,37q-.474,0-1.678.07l.126-.411.258-.042q.556-.118.758-.184a.733.733,0,0,0,.3-.17,1.05,1.05,0,0,0,.192-.32,5.682,5.682,0,0,0,.209-.595q.132-.428.338-1.107t.595-2q.077-.272.157-.546l.188-.644q.108-.369.17-.577.021-.084.139-.532t.205-.769q.087-.32.108-.411a1.257,1.257,0,0,0,.1-.466q0-.188-.247-.279a8.01,8.01,0,0,0-1.089-.236m.355,8.6a11.813,11.813,0,0,0,1.281.1,4.153,4.153,0,0,0,1.145-.129,2.241,2.241,0,0,0,.8-.428,2.564,2.564,0,0,0,.728-.961,2.831,2.831,0,0,0,.268-1.176,1.682,1.682,0,0,0-.229-.95,1.267,1.267,0,0,0-.641-.483,2.991,2.991,0,0,0-.877-.167q-.466-.021-1.287-.007-.355,1.232-.494,1.729t-.251.888q-.111.39-.233.839t-.206.748m2.353-8.3-1.023,3.508q.619,0,1.048-.028a5.171,5.171,0,0,0,.943-.16,2.523,2.523,0,0,0,.95-.452,2.259,2.259,0,0,0,.623-.741,1.956,1.956,0,0,0,.223-.915q0-1.309-1.635-1.309a8.468,8.468,0,0,0-1.128.1" transform="translate(-77.031 -16.283)" fill="#196442"/>
            <path id="Trazado_642134" data-name="Trazado 642134" d="M187.373,0l-.111.411a2.383,2.383,0,0,1-.271.056,4.682,4.682,0,0,0-.658.157.883.883,0,0,0-.386.254,1.342,1.342,0,0,0-.247.428q-.095.254-.29.887-.4,1.239-.56,1.8t-.251.867l-.4,1.43a7.481,7.481,0,0,1-.6,1.555,4.34,4.34,0,0,1-.853,1.141,3.3,3.3,0,0,1-1.159.7,4.455,4.455,0,0,1-1.507.24,3.662,3.662,0,0,1-1.761-.366,2.22,2.22,0,0,1-.957-.936,2.63,2.63,0,0,1-.289-1.2,4.962,4.962,0,0,1,.076-.845q.077-.442.292-1.246t.585-2.105q.077-.285.153-.56c.051-.183.1-.363.146-.539s.107-.413.181-.71l.09-.285c0-.009,0-.042.014-.1a.838.838,0,0,0,.015-.139.178.178,0,0,0-.1-.174,2.672,2.672,0,0,0-.39-.115q-.3-.073-.48-.1l-.334-.083L177.441,0q.668.042,1.037.063t1,.021q.682,0,1.082-.021T181.6,0l-.1.411A8.81,8.81,0,0,0,180.3.7a.7.7,0,0,0-.355.393q-.139.369-.557,1.754-.453,1.511-.664,2.279t-.3,1.225a4.813,4.813,0,0,0-.087.9,1.772,1.772,0,0,0,.279,1.033,1.582,1.582,0,0,0,.738.581,2.768,2.768,0,0,0,1.023.181,2.917,2.917,0,0,0,1.315-.275,2.433,2.433,0,0,0,.919-.808,5.847,5.847,0,0,0,.651-1.287q.281-.755.637-2.008.528-1.858.755-2.7a6.242,6.242,0,0,0,.226-1.02A.293.293,0,0,0,184.7.7a3.058,3.058,0,0,0-.748-.219,1.639,1.639,0,0,1-.3-.07L183.768,0q1.065.084,1.823.084A16.586,16.586,0,0,0,187.373,0" transform="translate(-105.373)" fill="#196442"/>
            <path id="Trazado_642135" data-name="Trazado 642135" d="M11.426,102.8a5.434,5.434,0,0,1,.463-2.216,6.228,6.228,0,0,1,1.219-1.833,5.711,5.711,0,0,1,1.624-1.2,3.741,3.741,0,0,1,1.615-.418,1.81,1.81,0,0,1,1.393.53A2.7,2.7,0,0,1,18.4,98.87a5.1,5.1,0,0,1-.28,3.394,6.148,6.148,0,0,1-1.205,1.78,5.762,5.762,0,0,1-1.637,1.2,3.858,3.858,0,0,1-1.664.423,1.79,1.79,0,0,1-1.664-.89,3.813,3.813,0,0,1-.525-1.975m1.424-.143a3.543,3.543,0,0,0,.32,1.486,1.19,1.19,0,0,0,1.192.7,1.91,1.91,0,0,0,1.415-.685,4.858,4.858,0,0,0,1.014-1.788,6.977,6.977,0,0,0,.374-2.251,4.5,4.5,0,0,0-.258-1.481,1.1,1.1,0,0,0-1.166-.743,1.893,1.893,0,0,0-1.446.787,5.968,5.968,0,0,0-1.054,1.926,6.37,6.37,0,0,0-.392,2.046" transform="translate(-6.799 -57.803)" fill="#283455"/>
            <path id="Trazado_642136" data-name="Trazado 642136" d="M106.249,111.658l.347.383a13.711,13.711,0,0,1-1.708,1.393,2.829,2.829,0,0,1-1.388.618.477.477,0,0,1-.347-.151.519.519,0,0,1-.151-.383,4.375,4.375,0,0,1,.258-1.148l.658-1.842q.063-.2.552-1.7t.489-1.557q0-.222-.187-.222a.973.973,0,0,0-.445.227,3.139,3.139,0,0,0-.534.485l-.24.241-.329-.365a12.459,12.459,0,0,1,1.77-1.548,2.569,2.569,0,0,1,1.237-.57q.365,0,.365.347a4.128,4.128,0,0,1-.2.885q-.2.681-.529,1.668t-.5,1.513q-.231.6-.5,1.441a5.4,5.4,0,0,0-.267,1.014c0,.148.06.223.178.223q.338,0,1.219-.765.044-.027.134-.094l.124-.094m.73-9.947a.7.7,0,0,1,.525.231.79.79,0,0,1,.223.57,1.38,1.38,0,0,1-.311.863.9.9,0,0,1-.712.4.638.638,0,0,1-.516-.271.963.963,0,0,1-.213-.61,1.246,1.246,0,0,1,.129-.556,1.284,1.284,0,0,1,.361-.445.812.812,0,0,1,.516-.182" transform="translate(-61.295 -60.526)" fill="#283455"/>
            <path id="Trazado_642137" data-name="Trazado 642137" d="M136.246,149.647l-.311-.4a9.968,9.968,0,0,1,1.85-1.6,2.874,2.874,0,0,1,1.175-.534.324.324,0,0,1,.258.129.493.493,0,0,1,.107.325,5.931,5.931,0,0,1-.316,1.442q-.316,1.032-.61,1.788a16.461,16.461,0,0,0-.988,3.221q0,.364.329.364a2.305,2.305,0,0,0,1.143-.6,10.215,10.215,0,0,0,1.517-1.49,9.685,9.685,0,0,0,.939-1.295,8.063,8.063,0,0,0,.6-1.228q.236-.618.619-1.837l.16-.525a8.242,8.242,0,0,0,1.424-.143q-.018.045-.619,1.98t-.734,2.336q-.276.978-.507,1.673a2.616,2.616,0,0,0-.106.623q0,.258.213.258a3.7,3.7,0,0,0,1.21-.712c.018-.012.052-.038.1-.08a.82.82,0,0,1,.094-.071l.311.365a11.059,11.059,0,0,1-1.517,1.308,4.877,4.877,0,0,1-1.028.574,1.931,1.931,0,0,1-.57.129.432.432,0,0,1-.3-.125.409.409,0,0,1-.133-.311,3.125,3.125,0,0,1,.138-.8q.138-.493.387-1.156t.676-1.731l-.036-.036a18.209,18.209,0,0,1-2.571,2.923,3.968,3.968,0,0,1-2.571,1.233.743.743,0,0,1-.481-.174.654.654,0,0,1-.213-.538,3.968,3.968,0,0,1,.2-1.077q.543-1.753.961-3.029t.534-1.58a.877.877,0,0,0,.053-.294.215.215,0,0,0-.045-.142.175.175,0,0,0-.143-.053q-.258,0-1.2.89" transform="translate(-80.86 -87.543)" fill="#283455"/>
          </g>
        </g>
      </g>
    </g>
  </g>
</svg>
