<svg xmlns="http://www.w3.org/2000/svg" xmlns:xlink="http://www.w3.org/1999/xlink" width="400" height="307.667" viewBox="0 0 400 307.667">
  <defs>
    <linearGradient id="linear-gradient" x1="0.5" x2="0.5" y2="1" gradientUnits="objectBoundingBox">
      <stop offset="0" stop-color="#e6f9ff"/>
      <stop offset="1" stop-color="#e7edf9"/>
    </linearGradient>
  </defs>
  <g id="img5_1" transform="translate(1775 7545.334)">
    <g id="Grupo_1074829" data-name="Grupo 1074829" transform="translate(-2060 -16712.334)">
      <path id="Trazado_608976" data-name="Trazado 608976" d="M6.214,0H393.786C397.218,0,400,4.77,400,10.655V297.012c0,5.885-2.782,10.655-6.214,10.655H6.214C2.782,307.667,0,302.9,0,297.012V10.655C0,4.77,2.782,0,6.214,0Z" transform="translate(285 9167)" fill="url(#linear-gradient)"/>
    </g>
    <g id="Grupo_1074830" data-name="Grupo 1074830" transform="translate(3693 -1116)">
      <g id="Trazado_642175" data-name="Trazado 642175" transform="translate(-5424.092 -6378)" fill="#c7e3d7">
        <path d="M 328.9725341796875 203.6477203369141 L 1.500021457672119 203.6477203369141 L 1.500021457672119 -6.256824970245361 L 328.9725341796875 203.6477203369141 Z" stroke="none"/>
        <path d="M 2.999969482421875 -3.513687133789062 L 2.999969482421875 202.1477203369141 L 323.8527526855469 202.1477203369141 L 2.999969482421875 -3.513687133789062 M -3.0517578125e-05 -9.000015258789062 L 334.09228515625 205.1477203369141 L -3.0517578125e-05 205.1477203369141 L -3.0517578125e-05 -9.000015258789062 Z" stroke="none" fill="#2d4587"/>
      </g>
      <path id="Trazado_643701" data-name="Trazado 643701" d="M3.489-7.638h1.4A1.453,1.453,0,0,0,6.548-9.264a1.406,1.406,0,0,0-.4-1.033,1.5,1.5,0,0,0-1.116-.4,1.606,1.606,0,0,0-1.024.343,1.046,1.046,0,0,0-.435.853H.615a3.032,3.032,0,0,1,.563-1.8,3.715,3.715,0,0,1,1.56-1.235,5.334,5.334,0,0,1,2.193-.444,5.241,5.241,0,0,1,3.357.976A3.243,3.243,0,0,1,9.51-9.325,2.7,2.7,0,0,1,9-7.765,3.6,3.6,0,0,1,7.532-6.574a3.441,3.441,0,0,1,1.6,1.121,2.951,2.951,0,0,1,.58,1.859A3.3,3.3,0,0,1,8.394-.853,5.472,5.472,0,0,1,4.931.176,5.675,5.675,0,0,1,2.6-.3,3.656,3.656,0,0,1,.967-1.63,3.45,3.45,0,0,1,.413-3.56H3.393a1.334,1.334,0,0,0,.475,1.02,1.676,1.676,0,0,0,1.169.431,1.755,1.755,0,0,0,1.248-.435A1.454,1.454,0,0,0,6.75-3.656a1.7,1.7,0,0,0-.483-1.371,2.021,2.021,0,0,0-1.336-.4H3.489ZM19.758-2.109a1.317,1.317,0,0,0,.967-.338,1.241,1.241,0,0,0,.334-.945h2.777A3.288,3.288,0,0,1,22.715-.826a4.168,4.168,0,0,1-2.887,1,4.22,4.22,0,0,1-3.27-1.3,5.125,5.125,0,0,1-1.2-3.6v-.123A5.792,5.792,0,0,1,15.9-7.4a3.872,3.872,0,0,1,1.534-1.7A4.573,4.573,0,0,1,19.8-9.686a4.116,4.116,0,0,1,2.944,1.028,3.647,3.647,0,0,1,1.09,2.786H21.059A1.626,1.626,0,0,0,20.7-7a1.244,1.244,0,0,0-.967-.4q-1.151,0-1.345,1.468a10.357,10.357,0,0,0-.062,1.283,4.068,4.068,0,0,0,.343,1.986A1.187,1.187,0,0,0,19.758-2.109Zm8.13-7.4.1,1.116A3.27,3.27,0,0,1,30.7-9.686a2.407,2.407,0,0,1,2.435,1.433A3.165,3.165,0,0,1,35.93-9.686q2.892,0,2.971,3.5V0H35.93V-6a1.813,1.813,0,0,0-.246-1.063,1.048,1.048,0,0,0-.9-.334,1.4,1.4,0,0,0-1.31.782l.009.123V0H30.516V-5.985a1.906,1.906,0,0,0-.237-1.081,1.045,1.045,0,0,0-.905-.334,1.42,1.42,0,0,0-1.3.782V0H25.11V-9.51Z" transform="translate(-5434 -6260) rotate(-90)" fill="#12263f" stroke="rgba(0,0,0,0)" stroke-width="1"/>
      <path id="Trazado_643704" data-name="Trazado 643704" d="M8.6-5h1.3v2.285H8.6V0H5.643V-2.716H.694L.519-4.526l5.124-8.244V-12.8H8.6ZM3.34-5h2.3V-8.938l-.185.3ZM19.758-2.109a1.317,1.317,0,0,0,.967-.338,1.241,1.241,0,0,0,.334-.945h2.777A3.288,3.288,0,0,1,22.715-.826a4.168,4.168,0,0,1-2.887,1,4.22,4.22,0,0,1-3.27-1.3,5.125,5.125,0,0,1-1.2-3.6v-.123A5.792,5.792,0,0,1,15.9-7.4a3.872,3.872,0,0,1,1.534-1.7A4.573,4.573,0,0,1,19.8-9.686a4.116,4.116,0,0,1,2.944,1.028,3.647,3.647,0,0,1,1.09,2.786H21.059A1.626,1.626,0,0,0,20.7-7a1.244,1.244,0,0,0-.967-.4q-1.151,0-1.345,1.468a10.357,10.357,0,0,0-.062,1.283,4.068,4.068,0,0,0,.343,1.986A1.187,1.187,0,0,0,19.758-2.109Zm8.13-7.4.1,1.116A3.27,3.27,0,0,1,30.7-9.686a2.407,2.407,0,0,1,2.435,1.433A3.165,3.165,0,0,1,35.93-9.686q2.892,0,2.971,3.5V0H35.93V-6a1.813,1.813,0,0,0-.246-1.063,1.048,1.048,0,0,0-.9-.334,1.4,1.4,0,0,0-1.31.782l.009.123V0H30.516V-5.985a1.906,1.906,0,0,0-.237-1.081,1.045,1.045,0,0,0-.905-.334,1.42,1.42,0,0,0-1.3.782V0H25.11V-9.51Z" transform="translate(-5297 -6151)" fill="#12263f" stroke="rgba(0,0,0,0)" stroke-width="1"/>
      <path id="Trazado_643706" data-name="Trazado 643706" d="M.967,0V-12.8h4.6a6.509,6.509,0,0,1,3.757.905,3.012,3.012,0,0,1,1.288,2.628,3.045,3.045,0,0,1-.457,1.7A2.663,2.663,0,0,1,8.807-6.53a2.7,2.7,0,0,1,1.538.984,2.862,2.862,0,0,1,.536,1.758A3.388,3.388,0,0,1,9.69-.962,5.667,5.667,0,0,1,6.161,0ZM4.052-5.44v3.067H6.073a1.923,1.923,0,0,0,1.283-.382A1.338,1.338,0,0,0,7.8-3.832,1.419,1.419,0,0,0,6.214-5.44Zm0-2.021H5.66A2.285,2.285,0,0,0,7.1-7.832,1.314,1.314,0,0,0,7.532-8.9a1.379,1.379,0,0,0-.466-1.168,2.493,2.493,0,0,0-1.5-.357H4.052Z" transform="translate(-5090 -6151)" fill="#12263f" stroke="rgba(0,0,0,0)" stroke-width="1"/>
      <path id="Trazado_643703" data-name="Trazado 643703" d="M8.235-2.391H4.008L3.27,0h-3.3L4.667-12.8h2.9L12.3,0H8.982ZM4.746-4.772H7.5L6.117-9.211Z" transform="translate(-5435 -6151)" fill="#12263f" stroke="rgba(0,0,0,0)" stroke-width="1"/>
      <path id="Trazado_643698" data-name="Trazado 643698" d="M11.32-4.333a4.673,4.673,0,0,1-.721,2.36A4.35,4.35,0,0,1,8.75-.387a6.3,6.3,0,0,1-2.72.563A5.025,5.025,0,0,1,2.057-1.468,6.786,6.786,0,0,1,.606-6.108v-.633a7.746,7.746,0,0,1,.655-3.292,4.961,4.961,0,0,1,1.885-2.18,5.26,5.26,0,0,1,2.848-.769,5.516,5.516,0,0,1,3.744,1.226,4.844,4.844,0,0,1,1.608,3.379H8.271a2.292,2.292,0,0,0-.589-1.679,2.422,2.422,0,0,0-1.687-.51A1.843,1.843,0,0,0,4.307-9.7a5.536,5.536,0,0,0-.562,2.751v.905A6.125,6.125,0,0,0,4.258-3.12a1.882,1.882,0,0,0,1.771.879,2.369,2.369,0,0,0,1.626-.5,2.126,2.126,0,0,0,.6-1.591Z" transform="translate(-5435 -6392)" fill="#12263f" stroke="rgba(0,0,0,0)" stroke-width="1"/>
      <path id="Trazado_643702" data-name="Trazado 643702" d="M6.618-4.948a3.128,3.128,0,0,1-2.145.861,3.463,3.463,0,0,1-2.76-1.178A4.64,4.64,0,0,1,.694-8.411,4.722,4.722,0,0,1,1.266-10.7a4.287,4.287,0,0,1,1.6-1.67,4.373,4.373,0,0,1,2.281-.615,4.245,4.245,0,0,1,2.29.637,4.29,4.29,0,0,1,1.6,1.8,6.189,6.189,0,0,1,.589,2.685v1.134A7.693,7.693,0,0,1,8.793-3.05,5.734,5.734,0,0,1,6.425-.659,7.4,7.4,0,0,1,2.839.176H2.654V-2.2l.563-.009Q6.275-2.355,6.618-4.948ZM5.273-6.223a1.442,1.442,0,0,0,1.389-.835v-1.23a3.2,3.2,0,0,0-.413-1.819A1.3,1.3,0,0,0,5.133-10.7a1.225,1.225,0,0,0-1.046.668,2.968,2.968,0,0,0-.422,1.617,2.661,2.661,0,0,0,.431,1.6A1.378,1.378,0,0,0,5.273-6.223Zm14.818.993a6.11,6.11,0,0,1-1.165,4A4.024,4.024,0,0,1,15.645.176a4.046,4.046,0,0,1-3.3-1.415,6.1,6.1,0,0,1-1.169-3.99V-7.567a6.11,6.11,0,0,1,1.165-4,4.034,4.034,0,0,1,3.292-1.406,4.036,4.036,0,0,1,3.3,1.415,6.116,6.116,0,0,1,1.169,4ZM17.13-7.945a4.564,4.564,0,0,0-.36-2.061,1.2,1.2,0,0,0-1.143-.681,1.176,1.176,0,0,0-1.112.633,4.3,4.3,0,0,0-.374,1.916v3.27a4.6,4.6,0,0,0,.36,2.1,1.209,1.209,0,0,0,1.143.664,1.193,1.193,0,0,0,1.116-.646,4.39,4.39,0,0,0,.369-2.026Z" transform="translate(-5414 -6185)" fill="#12263f" stroke="rgba(0,0,0,0)" stroke-width="1"/>
      <path id="Trazado_643699" data-name="Trazado 643699" d="M9.87-5.229a6.11,6.11,0,0,1-1.165,4A4.024,4.024,0,0,1,5.423.176a4.046,4.046,0,0,1-3.3-1.415A6.1,6.1,0,0,1,.949-5.229V-7.567a6.11,6.11,0,0,1,1.165-4,4.034,4.034,0,0,1,3.292-1.406,4.036,4.036,0,0,1,3.3,1.415,6.116,6.116,0,0,1,1.169,4ZM6.908-5.37H3.92v.5a4.6,4.6,0,0,0,.36,2.1,1.209,1.209,0,0,0,1.143.664,1.193,1.193,0,0,0,1.116-.646,4.39,4.39,0,0,0,.369-2.026ZM3.92-7.541H6.908v-.4a4.564,4.564,0,0,0-.36-2.061,1.2,1.2,0,0,0-1.143-.681,1.185,1.185,0,0,0-1.125.659,4.476,4.476,0,0,0-.36,2Z" transform="translate(-5418 -6354)" fill="#12263f" stroke="rgba(0,0,0,0)" stroke-width="1"/>
      <path id="Trazado_642176" data-name="Trazado 642176" d="M-4522-6482.667h37.608v32.131" transform="translate(-902.092 276.04)" fill="none" stroke="#2d4587" stroke-width="3"/>
      <path id="Trazado_643705" data-name="Trazado 643705" d="M5.6-12.973a4.893,4.893,0,0,1,3.164.914A3.1,3.1,0,0,1,9.888-9.51a3.083,3.083,0,0,1-.448,1.639A3.278,3.278,0,0,1,8.191-6.7a3.329,3.329,0,0,1,1.67,1.156,3.19,3.19,0,0,1,.58,1.947A3.714,3.714,0,0,1,9.431-.813,3.939,3.939,0,0,1,6.557.176,4.747,4.747,0,0,1,4.14-.448v4.1H1.178v-12.6a3.893,3.893,0,0,1,.563-2.083,3.805,3.805,0,0,1,1.586-1.424A5.026,5.026,0,0,1,5.6-12.973ZM6.926-9.237A1.491,1.491,0,0,0,6.561-10.3a1.254,1.254,0,0,0-.962-.391,1.351,1.351,0,0,0-1.05.453A1.856,1.856,0,0,0,4.14-8.947V-2.47a3.3,3.3,0,0,0,1.644.36,1.73,1.73,0,0,0,1.23-.435,1.454,1.454,0,0,0,.466-1.112,1.888,1.888,0,0,0-.453-1.411A1.837,1.837,0,0,0,5.7-5.5H5.071v-2.03l.712-.009Q6.926-7.655,6.926-9.237Z" transform="translate(-5145 -6182)" fill="#12263f" stroke="rgba(0,0,0,0)" stroke-width="1"/>
      <path id="Trazado_643700" data-name="Trazado 643700" d="M.958-6.251,1.74-12.8H9.22v2.3H4.148l-.29,2.542a3.493,3.493,0,0,1,.831-.327A3.79,3.79,0,0,1,5.7-8.42,3.754,3.754,0,0,1,8.626-7.291,4.549,4.549,0,0,1,9.65-4.122,4.541,4.541,0,0,1,9.1-1.894,3.776,3.776,0,0,1,7.559-.36,4.87,4.87,0,0,1,5.212.176a5.24,5.24,0,0,1-2.259-.5A4.052,4.052,0,0,1,1.3-1.682,3.308,3.308,0,0,1,.712-3.636H3.683a1.68,1.68,0,0,0,.448,1.114,1.423,1.423,0,0,0,1.063.412q1.494,0,1.494-2.21,0-2.044-1.828-2.044A1.824,1.824,0,0,0,3.313-5.7Zm18.8,4.142a1.317,1.317,0,0,0,.967-.338,1.241,1.241,0,0,0,.334-.945h2.777A3.288,3.288,0,0,1,22.715-.826a4.168,4.168,0,0,1-2.887,1,4.22,4.22,0,0,1-3.27-1.3,5.125,5.125,0,0,1-1.2-3.6v-.123A5.792,5.792,0,0,1,15.9-7.4a3.872,3.872,0,0,1,1.534-1.7A4.573,4.573,0,0,1,19.8-9.686a4.116,4.116,0,0,1,2.944,1.028,3.647,3.647,0,0,1,1.09,2.786H21.059A1.626,1.626,0,0,0,20.7-7a1.244,1.244,0,0,0-.967-.4q-1.151,0-1.345,1.468a10.357,10.357,0,0,0-.062,1.283,4.068,4.068,0,0,0,.343,1.986A1.187,1.187,0,0,0,19.758-2.109Zm8.13-7.4.1,1.116A3.27,3.27,0,0,1,30.7-9.686a2.407,2.407,0,0,1,2.435,1.433A3.165,3.165,0,0,1,35.93-9.686q2.892,0,2.971,3.5V0H35.93V-6a1.813,1.813,0,0,0-.246-1.063,1.048,1.048,0,0,0-.9-.334,1.4,1.4,0,0,0-1.31.782l.009.123V0H30.516V-5.985a1.906,1.906,0,0,0-.237-1.081,1.045,1.045,0,0,0-.905-.334,1.42,1.42,0,0,0-1.3.782V0H25.11V-9.51Z" transform="translate(-5293.664 -6316.906) rotate(34)" fill="#12263f" stroke="rgba(0,0,0,0)" stroke-width="1"/>
    </g>
  </g>
</svg>
