<svg xmlns="http://www.w3.org/2000/svg" xmlns:xlink="http://www.w3.org/1999/xlink" width="121.668" height="125" viewBox="0 0 121.668 125">
  <defs>
    <clipPath id="clip-path">
      <rect id="Rect치ngulo_379627" data-name="Rect치ngulo 379627" width="82" height="49.759" fill="none"/>
    </clipPath>
  </defs>
  <g id="img7" transform="translate(-1093.496 -3644)">
    <g id="Grupo_1074793" data-name="Grupo 1074793" transform="translate(704.828 -2353)">
      <g id="Grupo_1072788" data-name="Grupo 1072788" transform="translate(13.999 114.601)">
        <g id="Grupo_1072785" data-name="Grupo 1072785" transform="translate(386.668 5997)">
          <path id="Trazado_608385" data-name="Trazado 608385" d="M48.909,0C75.921,0,97.818,2.328,97.818,5.2s-21.9,5.2-48.909,5.2S0,8.071,0,5.2,21.9,0,48.909,0Z" transform="translate(0 0)" fill="none"/>
        </g>
        <g id="Grupo_1073383" data-name="Grupo 1073383" transform="translate(386.668 5997)">
          <path id="Trazado_608385-2" data-name="Trazado 608385" d="M48.909,0C75.921,0,97.818,2.328,97.818,5.2s-21.9,5.2-48.909,5.2S0,8.071,0,5.2,21.9,0,48.909,0Z" transform="translate(0 0)" fill="#11462e"/>
        </g>
      </g>
      <g id="Grupo_1073526" data-name="Grupo 1073526" transform="translate(2)">
        <g id="Grupo_1072785-2" data-name="Grupo 1072785" transform="translate(386.668 5997)">
          <path id="Trazado_608385-3" data-name="Trazado 608385" d="M60.834,0A60.834,60.834,0,1,1,0,60.834,60.834,60.834,0,0,1,60.834,0Z" transform="translate(0 0)" fill="none"/>
        </g>
        <g id="Grupo_1073383-2" data-name="Grupo 1073383" transform="translate(386.668 5997)">
          <path id="Trazado_608385-4" data-name="Trazado 608385" d="M60.834,0A60.834,60.834,0,1,1,0,60.834,60.834,60.834,0,0,1,60.834,0Z" transform="translate(0 0)" fill="#fff"/>
        </g>
      </g>
    </g>
    <g id="Grupo_1074815" data-name="Grupo 1074815" transform="translate(701.496 1074)">
      <rect id="Rect치ngulo_378255" data-name="Rect치ngulo 378255" width="82" height="82" transform="translate(412.504 2589)" fill="#fff"/>
      <g id="Grupo_1074817" data-name="Grupo 1074817" transform="translate(412.504 2605.12)">
        <g id="Grupo_1074816" data-name="Grupo 1074816" clip-path="url(#clip-path)">
          <path id="Trazado_642145" data-name="Trazado 642145" d="M50.56,26.28A24.28,24.28,0,1,1,26.28,2,24.28,24.28,0,0,1,50.56,26.28" transform="translate(-1.4 -1.4)" fill="#d0dbf8"/>
          <path id="Trazado_642146" data-name="Trazado 642146" d="M158.116,26.28A24.28,24.28,0,1,1,133.836,2a24.28,24.28,0,0,1,24.28,24.28" transform="translate(-76.716 -1.4)" fill="#d0dbf8"/>
          <path id="Trazado_642147" data-name="Trazado 642147" d="M60.2,76.089l-.082.3q-.268-.021-.536-.031-.422-.021-.8-.02-.639,0-1.731.052l.062-.3q.907-.185,1.025-.4a2.212,2.212,0,0,0,.139-.623q.072-.515.1-.927-.608-.021-1.509-.021-.4,0-.675.021c-.041.055-.071.095-.09.119l-.08.1q-.108.144-.472.639t-.379.52a.629.629,0,0,0-.17.309.13.13,0,0,0,.072.119,2.119,2.119,0,0,0,.433.113l.16.031-.088.3q-.165-.011-.556-.031t-.655-.02q-.34,0-1.18.052l.093-.3A2.275,2.275,0,0,0,54,75.876a2.451,2.451,0,0,0,.539-.559q.062-.087.27-.353t.376-.482q.167-.217.312-.4l.685-.866q.484-.608.708-.891t.469-.6q.245-.317.665-.881t1.136-1.533a1.144,1.144,0,0,0,.1-.129q.067-.093.088-.123h.345q-.005.082-.049.549t-.075.8q-.036.314-.082.773t-.072.78q-.026.322-.064.847t-.111,1.453q-.072,1.165-.072,1.329a.3.3,0,0,0,.046.177.561.561,0,0,0,.25.136,4.458,4.458,0,0,0,.59.15q.155.031.144.031M56.55,73.642h1.876l.319-2.937-.021-.02Z" transform="translate(-37.243 -48.36)" fill="#196442"/>
          <path id="Trazado_642148" data-name="Trazado 642148" d="M196.225,69.865l.082-.3q.618.062,1.406.062l.454-.01.644-.01q.4-.021.8-.005a2.911,2.911,0,0,1,.757.129,1.243,1.243,0,0,1,.6.394,1.166,1.166,0,0,1,.234.771,1.609,1.609,0,0,1-.2.775,1.959,1.959,0,0,1-.536.626,2.553,2.553,0,0,1-.62.368,6.954,6.954,0,0,1-.77.234v.021a2.454,2.454,0,0,1,1.061.306,1.093,1.093,0,0,1,.448,1.033,2.037,2.037,0,0,1-.2.909,2.453,2.453,0,0,1-.51.706,3,3,0,0,1-.667.482,3.289,3.289,0,0,1-.742.281,4.912,4.912,0,0,1-1.18.111q-.319,0-.824-.021a8.354,8.354,0,0,0-.845-.031q-.351,0-1.242.052l.093-.3.191-.031q.412-.088.561-.137a.542.542,0,0,0,.224-.126.777.777,0,0,0,.142-.237,4.2,4.2,0,0,0,.154-.44q.1-.317.25-.819t.44-1.481q.057-.2.116-.4l.139-.477q.08-.273.126-.427.016-.062.1-.394t.152-.57q.064-.237.08-.3a.933.933,0,0,0,.072-.345q0-.139-.183-.206a5.93,5.93,0,0,0-.806-.175m.263,6.363a8.744,8.744,0,0,0,.948.072,3.074,3.074,0,0,0,.848-.1,1.654,1.654,0,0,0,.59-.317,1.9,1.9,0,0,0,.539-.711,2.1,2.1,0,0,0,.2-.87,1.245,1.245,0,0,0-.17-.7.938.938,0,0,0-.474-.358,2.223,2.223,0,0,0-.649-.124q-.345-.016-.953-.005-.263.912-.366,1.281t-.186.657q-.082.289-.172.621t-.152.554m1.742-6.141-.757,2.6q.458,0,.775-.021a3.8,3.8,0,0,0,.7-.119,1.863,1.863,0,0,0,.7-.335,1.675,1.675,0,0,0,.461-.549,1.449,1.449,0,0,0,.165-.677q0-.969-1.211-.969a6.27,6.27,0,0,0-.835.072" transform="translate(-136.106 -48.71)" fill="#196442"/>
          <path id="Trazado_642149" data-name="Trazado 642149" d="M126.455,42.084a23.616,23.616,0,0,1-7.56,17.325,23.631,23.631,0,0,1,0-34.65,23.616,23.616,0,0,1,7.56,17.325" transform="translate(-77.961 -17.337)" fill="#6fd9fb"/>
          <path id="Trazado_642150" data-name="Trazado 642150" d="M57.12,0A24.766,24.766,0,0,0,41,5.951a24.88,24.88,0,1,0,0,37.857A24.873,24.873,0,1,0,57.12,0M24.88,48.56A23.681,23.681,0,1,1,40.1,6.757,24.823,24.823,0,0,0,40.1,43,23.569,23.569,0,0,1,24.88,48.56M41.966,8.509l-3.893,2.32A23.892,23.892,0,0,1,41,7.555q.5.463.966.954M41,42.2c-.172-.16-.343-.321-.51-.486l2.282-1.353A23.87,23.87,0,0,1,41,42.2m3.29-3.785-4.443,2.635q-.442-.472-.859-.965l6.727-3.965a23.773,23.773,0,0,1-1.425,2.3m2.15-3.767-8.021,4.728q-.331-.427-.644-.869l9.338-5.48c-.2.551-.431,1.089-.673,1.62m1.1-2.915-10.275,6.03q-.3-.463-.581-.939l11.294-6.765c-.127.566-.271,1.125-.438,1.675m.673-2.864L36.244,36.045q-.28-.521-.534-1.058l12.736-7.8c-.055.57-.135,1.132-.23,1.69m.344-3.995q0,.6-.03,1.2L35.336,34.162q-.217-.508-.41-1.028L48.556,24.7c0,.061,0,.121,0,.181M34.273,31.1l14.172-8.541c.036.365.065.733.084,1.1L34.624,32.262q-.19-.577-.351-1.167m-.228-.913q-.111-.485-.2-.976l14.313-8.662c.064.342.121.686.169,1.033Zm-.362-1.931c-.075-.523-.13-1.053-.17-1.586l14.112-8.356q.187.643.336,1.3Zm-.225-2.6c-.008-.257-.019-.513-.019-.772,0-.28.011-.556.021-.834l13.455-7.82q.233.593.436,1.2Zm.064-2.683q.052-.647.138-1.284l12.44-7.3q.245.494.468,1Zm.323-2.435c.1-.518.2-1.033.334-1.538l.019.034,10.935-6.406q.288.474.554.962Zm.676-2.736c.178-.567.382-1.123.6-1.671L43.9,10.789c.261.351.51.711.751,1.077Zm1.223-3.1a23.708,23.708,0,0,1,1.147-2.117l5.7-3.4q.387.436.752.891ZM57.12,48.56A23.57,23.57,0,0,1,41.9,43a24.989,24.989,0,0,0,5.691-7.983l.043-.025-.018-.031A24.814,24.814,0,0,0,41.9,6.757a23.675,23.675,0,1,1,15.22,41.8" fill="#2d4587"/>
        </g>
      </g>
    </g>
  </g>
</svg>
