<svg xmlns="http://www.w3.org/2000/svg" xmlns:xlink="http://www.w3.org/1999/xlink" width="121.668" height="125" viewBox="0 0 121.668 125">
  <defs>
    <clipPath id="clip-path">
      <rect id="Rect치ngulo_379626" data-name="Rect치ngulo 379626" width="82" height="49.759" fill="none"/>
    </clipPath>
  </defs>
  <g id="img8" transform="translate(3250 8056)">
    <g id="Grupo_1074804" data-name="Grupo 1074804" transform="translate(-3638.668 -14053)">
      <g id="Grupo_1072788" data-name="Grupo 1072788" transform="translate(13.999 114.601)">
        <g id="Grupo_1072785" data-name="Grupo 1072785" transform="translate(386.668 5997)">
          <path id="Trazado_608385" data-name="Trazado 608385" d="M48.909,0C75.921,0,97.818,2.328,97.818,5.2s-21.9,5.2-48.909,5.2S0,8.071,0,5.2,21.9,0,48.909,0Z" transform="translate(0 0)" fill="none"/>
        </g>
        <g id="Grupo_1073383" data-name="Grupo 1073383" transform="translate(386.668 5997)">
          <path id="Trazado_608385-2" data-name="Trazado 608385" d="M48.909,0C75.921,0,97.818,2.328,97.818,5.2s-21.9,5.2-48.909,5.2S0,8.071,0,5.2,21.9,0,48.909,0Z" transform="translate(0 0)" fill="#11462e"/>
        </g>
      </g>
      <g id="Grupo_1073526" data-name="Grupo 1073526" transform="translate(2)">
        <g id="Grupo_1072785-2" data-name="Grupo 1072785" transform="translate(386.668 5997)">
          <path id="Trazado_608385-3" data-name="Trazado 608385" d="M60.834,0A60.834,60.834,0,1,1,0,60.834,60.834,60.834,0,0,1,60.834,0Z" transform="translate(0 0)" fill="none"/>
        </g>
        <g id="Grupo_1073383-2" data-name="Grupo 1073383" transform="translate(386.668 5997)">
          <path id="Trazado_608385-4" data-name="Trazado 608385" d="M60.834,0A60.834,60.834,0,1,1,0,60.834,60.834,60.834,0,0,1,60.834,0Z" transform="translate(0 0)" fill="#fff"/>
        </g>
      </g>
    </g>
    <g id="Grupo_1074818" data-name="Grupo 1074818" transform="translate(-3642.503 -10623)">
      <rect id="Rect치ngulo_378255" data-name="Rect치ngulo 378255" width="82" height="82" transform="translate(412.504 2589)" fill="#fff"/>
      <g id="Grupo_1074814" data-name="Grupo 1074814" transform="translate(412.503 2606.378)">
        <g id="Grupo_1074813" data-name="Grupo 1074813" clip-path="url(#clip-path)">
          <path id="Trazado_642139" data-name="Trazado 642139" d="M50.56,26.28A24.28,24.28,0,1,1,26.28,2,24.28,24.28,0,0,1,50.56,26.28" transform="translate(-1.4 -1.4)" fill="#6fd9fb"/>
          <path id="Trazado_642140" data-name="Trazado 642140" d="M158.116,26.28A24.28,24.28,0,1,1,133.836,2a24.28,24.28,0,0,1,24.28,24.28" transform="translate(-76.716 -1.4)" fill="#d0dbf8"/>
          <path id="Trazado_642141" data-name="Trazado 642141" d="M60.2,76.089l-.082.3q-.268-.021-.536-.031-.422-.021-.8-.02-.639,0-1.731.052l.062-.3q.907-.185,1.025-.4a2.212,2.212,0,0,0,.139-.623q.072-.515.1-.927-.608-.021-1.509-.021-.4,0-.675.021c-.041.055-.071.095-.09.119l-.08.1q-.108.144-.472.639t-.379.52a.629.629,0,0,0-.17.309.13.13,0,0,0,.072.119,2.118,2.118,0,0,0,.433.113l.16.031-.088.3q-.165-.011-.556-.031t-.655-.02q-.34,0-1.18.052l.093-.3A2.275,2.275,0,0,0,54,75.876a2.451,2.451,0,0,0,.539-.559q.062-.087.27-.353t.376-.482q.167-.217.312-.4l.685-.866q.484-.608.708-.891t.469-.6q.245-.317.665-.881t1.136-1.533a1.149,1.149,0,0,0,.1-.129q.067-.093.088-.124h.345q-.005.082-.049.549t-.075.8q-.036.314-.082.773t-.072.78q-.026.322-.064.847t-.111,1.453q-.072,1.165-.072,1.329a.3.3,0,0,0,.046.177.561.561,0,0,0,.25.136,4.457,4.457,0,0,0,.59.15q.155.031.144.031M56.55,73.642h1.876l.319-2.937-.021-.02Z" transform="translate(-37.243 -48.36)" fill="#196442"/>
          <path id="Trazado_642142" data-name="Trazado 642142" d="M196.225,69.865l.082-.3q.618.062,1.406.062l.454-.01.644-.01q.4-.021.8-.005a2.91,2.91,0,0,1,.757.129,1.243,1.243,0,0,1,.6.394,1.166,1.166,0,0,1,.234.771,1.609,1.609,0,0,1-.2.775,1.958,1.958,0,0,1-.536.626,2.553,2.553,0,0,1-.62.368,6.952,6.952,0,0,1-.77.234v.021a2.454,2.454,0,0,1,1.061.306,1.093,1.093,0,0,1,.448,1.033,2.037,2.037,0,0,1-.2.909,2.452,2.452,0,0,1-.51.706,3,3,0,0,1-.667.482,3.29,3.29,0,0,1-.742.281,4.913,4.913,0,0,1-1.18.111q-.319,0-.824-.021a8.358,8.358,0,0,0-.845-.031q-.351,0-1.242.052l.093-.3.191-.031q.412-.088.561-.137a.543.543,0,0,0,.224-.126.778.778,0,0,0,.142-.237,4.214,4.214,0,0,0,.154-.44q.1-.317.25-.819t.44-1.481q.057-.2.116-.4l.139-.477q.08-.273.126-.427.016-.062.1-.394t.152-.57q.064-.237.08-.3a.933.933,0,0,0,.072-.345q0-.139-.183-.206a5.933,5.933,0,0,0-.806-.175m.263,6.363a8.745,8.745,0,0,0,.948.072,3.074,3.074,0,0,0,.848-.1,1.654,1.654,0,0,0,.59-.317,1.9,1.9,0,0,0,.539-.711,2.1,2.1,0,0,0,.2-.87,1.245,1.245,0,0,0-.17-.7.938.938,0,0,0-.474-.358,2.224,2.224,0,0,0-.649-.123q-.345-.016-.953-.005-.263.912-.366,1.281t-.186.657q-.082.289-.172.621t-.152.554m1.742-6.141-.757,2.6q.458,0,.775-.021a3.8,3.8,0,0,0,.7-.119,1.863,1.863,0,0,0,.7-.335,1.674,1.674,0,0,0,.461-.549,1.449,1.449,0,0,0,.165-.677q0-.969-1.211-.969a6.271,6.271,0,0,0-.835.072" transform="translate(-136.106 -48.71)" fill="#196442"/>
          <path id="Trazado_642143" data-name="Trazado 642143" d="M24.88,49.759a24.88,24.88,0,1,1,24.88-24.88,24.908,24.908,0,0,1-24.88,24.88m0-48.56A23.681,23.681,0,1,0,48.56,24.88,23.707,23.707,0,0,0,24.88,1.2" fill="#2d4587"/>
          <path id="Trazado_642144" data-name="Trazado 642144" d="M132.436,49.759a24.88,24.88,0,1,1,24.88-24.88,24.908,24.908,0,0,1-24.88,24.88m0-48.56A23.681,23.681,0,1,0,156.117,24.88,23.707,23.707,0,0,0,132.436,1.2" transform="translate(-75.315)" fill="#2d4587"/>
        </g>
      </g>
    </g>
  </g>
</svg>
