<svg xmlns="http://www.w3.org/2000/svg" xmlns:xlink="http://www.w3.org/1999/xlink" width="121.668" height="125" viewBox="0 0 121.668 125">
  <defs>
    <clipPath id="clip-path">
      <rect id="Rect치ngulo_379629" data-name="Rect치ngulo 379629" width="78.25" height="72.666" fill="none"/>
    </clipPath>
  </defs>
  <g id="img9" transform="translate(2899.006 8056)">
    <g id="Grupo_1074800" data-name="Grupo 1074800" transform="translate(-3287.674 -14053)">
      <g id="Grupo_1072788" data-name="Grupo 1072788" transform="translate(13.999 114.601)">
        <g id="Grupo_1072785" data-name="Grupo 1072785" transform="translate(386.668 5997)">
          <path id="Trazado_608385" data-name="Trazado 608385" d="M48.909,0C75.921,0,97.818,2.328,97.818,5.2s-21.9,5.2-48.909,5.2S0,8.071,0,5.2,21.9,0,48.909,0Z" transform="translate(0 0)" fill="none"/>
        </g>
        <g id="Grupo_1073383" data-name="Grupo 1073383" transform="translate(386.668 5997)">
          <path id="Trazado_608385-2" data-name="Trazado 608385" d="M48.909,0C75.921,0,97.818,2.328,97.818,5.2s-21.9,5.2-48.909,5.2S0,8.071,0,5.2,21.9,0,48.909,0Z" transform="translate(0 0)" fill="#11462e"/>
        </g>
      </g>
      <g id="Grupo_1073526" data-name="Grupo 1073526" transform="translate(2)">
        <g id="Grupo_1072785-2" data-name="Grupo 1072785" transform="translate(386.668 5997)">
          <path id="Trazado_608385-3" data-name="Trazado 608385" d="M60.834,0A60.834,60.834,0,1,1,0,60.834,60.834,60.834,0,0,1,60.834,0Z" transform="translate(0 0)" fill="none"/>
        </g>
        <g id="Grupo_1073383-2" data-name="Grupo 1073383" transform="translate(386.668 5997)">
          <path id="Trazado_608385-4" data-name="Trazado 608385" d="M60.834,0A60.834,60.834,0,1,1,0,60.834,60.834,60.834,0,0,1,60.834,0Z" transform="translate(0 0)" fill="#fff"/>
        </g>
      </g>
    </g>
    <g id="Grupo_1074819" data-name="Grupo 1074819" transform="translate(-3291.504 -10626)">
      <rect id="Rect치ngulo_378255" data-name="Rect치ngulo 378255" width="82" height="82" transform="translate(412.504 2589)" fill="#fff"/>
      <g id="Grupo_1074822" data-name="Grupo 1074822" transform="translate(414.504 2594)">
        <path id="Trazado_642158" data-name="Trazado 642158" d="M0,0H65.6V66.633H0Z" transform="translate(0.58 5.454)" fill="#d0dbf8"/>
        <path id="Trazado_642151" data-name="Trazado 642151" d="M1.159,13.773H65.6V79.247H1.159ZM0,80.406H66.761V12.614H0Z" transform="translate(0 -7.74)" fill="#202814"/>
        <g id="Grupo_1074821" data-name="Grupo 1074821">
          <g id="Grupo_1074820" data-name="Grupo 1074820" clip-path="url(#clip-path)">
            <path id="Trazado_642152" data-name="Trazado 642152" d="M89.366,82.491A19.488,19.488,0,1,1,69.877,63,19.488,19.488,0,0,1,89.366,82.491" transform="translate(-36.398 -44.138)" fill="#c7e3d7"/>
            <path id="Trazado_642153" data-name="Trazado 642153" d="M68.4,101.7A20.681,20.681,0,1,1,89.085,81.017,20.7,20.7,0,0,1,68.4,101.7m0-40.3A19.621,19.621,0,1,0,88.024,81.017,19.643,19.643,0,0,0,68.4,61.4" transform="translate(-34.924 -42.665)" fill="#8ac5aa"/>
            <path id="Trazado_642154" data-name="Trazado 642154" d="M186.9,0,186.8.392a2.274,2.274,0,0,1-.259.053,4.467,4.467,0,0,0-.628.15.843.843,0,0,0-.368.242,1.28,1.28,0,0,0-.236.408q-.09.242-.276.847-.378,1.182-.534,1.714t-.24.827L183.873,6a7.14,7.14,0,0,1-.574,1.484,4.142,4.142,0,0,1-.814,1.089,3.144,3.144,0,0,1-1.106.664,4.252,4.252,0,0,1-1.438.229,3.5,3.5,0,0,1-1.68-.349,2.118,2.118,0,0,1-.913-.893,2.509,2.509,0,0,1-.276-1.149,4.732,4.732,0,0,1,.073-.807q.073-.422.279-1.189t.558-2.009q.073-.272.146-.535c.049-.175.1-.346.139-.515s.1-.394.173-.677l.086-.272c0-.009,0-.04.013-.093a.8.8,0,0,0,.014-.133.17.17,0,0,0-.094-.166,2.549,2.549,0,0,0-.372-.109q-.286-.07-.458-.1l-.319-.08L177.425,0q.638.04.99.06t.956.02q.651,0,1.033-.02T181.4,0L181.3.392a8.41,8.41,0,0,0-1.149.276.672.672,0,0,0-.338.375q-.133.352-.531,1.674-.432,1.441-.634,2.175t-.286,1.169a4.593,4.593,0,0,0-.083.86,1.691,1.691,0,0,0,.266.986,1.51,1.51,0,0,0,.7.554,2.642,2.642,0,0,0,.976.173,2.784,2.784,0,0,0,1.255-.262,2.322,2.322,0,0,0,.877-.771,5.579,5.579,0,0,0,.621-1.228q.268-.72.608-1.916.5-1.773.72-2.573a5.953,5.953,0,0,0,.216-.973.28.28,0,0,0-.17-.242,2.919,2.919,0,0,0-.714-.209,1.564,1.564,0,0,1-.286-.066L183.462,0q1.016.08,1.74.08A15.827,15.827,0,0,0,186.9,0" transform="translate(-108.652)" fill="#196442"/>
            <path id="Trazado_642155" data-name="Trazado 642155" d="M86.93,101.768l-.123.454q-.4-.031-.8-.047-.63-.031-1.2-.03-.954,0-2.584.077l.092-.454q1.354-.277,1.531-.6a3.3,3.3,0,0,0,.208-.931q.107-.768.153-1.384-.907-.031-2.253-.031-.6,0-1.008.031c-.061.082-.106.141-.135.177s-.068.087-.119.154q-.162.215-.7.954t-.565.777a.939.939,0,0,0-.254.461.194.194,0,0,0,.107.177,3.162,3.162,0,0,0,.646.169c.154.03.233.046.238.046l-.131.454q-.246-.016-.83-.047-.6-.031-.977-.03-.507,0-1.761.077l.139-.454a3.4,3.4,0,0,0,1.073-.319,3.659,3.659,0,0,0,.8-.834q.092-.13.4-.527t.562-.719q.25-.324.465-.592l1.023-1.292q.723-.907,1.057-1.331t.7-.9q.365-.473.992-1.315t1.7-2.288a1.7,1.7,0,0,0,.154-.192q.1-.138.131-.184h.515q-.008.123-.073.819t-.111,1.2q-.054.469-.123,1.154t-.107,1.165q-.039.481-.1,1.265T85.5,99.046q-.108,1.738-.108,1.984a.446.446,0,0,0,.069.265.837.837,0,0,0,.373.2,6.657,6.657,0,0,0,.881.224q.231.046.215.046m-5.444-3.653h2.8l.477-4.384-.031-.03Z" transform="translate(-49.434 -58.531)" fill="#2d4587"/>
            <path id="Trazado_642156" data-name="Trazado 642156" d="M19.9,155.776l-.1.361q-.318-.024-.636-.037-.5-.024-.954-.024-.758,0-2.055.061l.073-.361q1.076-.22,1.217-.476a2.648,2.648,0,0,0,.165-.74q.086-.611.122-1.1-.722-.024-1.792-.025-.477,0-.8.025c-.049.065-.085.112-.107.141l-.095.122q-.129.171-.56.758t-.45.618a.747.747,0,0,0-.2.367.155.155,0,0,0,.085.141,2.5,2.5,0,0,0,.514.134l.19.036-.1.361q-.2-.013-.66-.037t-.777-.024q-.4,0-1.4.061l.11-.361a2.7,2.7,0,0,0,.853-.253,2.913,2.913,0,0,0,.639-.664q.074-.1.321-.419t.447-.572q.2-.257.37-.471l.814-1.028q.575-.721.841-1.058t.556-.713q.291-.376.789-1.046t1.349-1.82a1.37,1.37,0,0,0,.122-.153c.053-.073.088-.122.1-.147h.41q-.006.1-.058.651t-.088.951q-.043.373-.1.917t-.086.927q-.031.383-.077,1.006t-.131,1.725q-.086,1.382-.086,1.578a.358.358,0,0,0,.055.211.663.663,0,0,0,.3.162,5.284,5.284,0,0,0,.7.178q.183.037.171.036m-4.33-2.9H17.8l.379-3.486-.024-.024Z" transform="translate(-7.102 -90.465)" fill="#2d4587"/>
            <path id="Trazado_642157" data-name="Trazado 642157" d="M35.353,149.7l.2.2q-.212.211-.448.412a3.275,3.275,0,0,1-.56.377,1.307,1.307,0,0,1-.626.175.687.687,0,0,1-.62-.321,1.287,1.287,0,0,1-.205-.708,2.773,2.773,0,0,1,.2-1.022,3.2,3.2,0,0,1,.54-.911,2.726,2.726,0,0,1,.755-.63,1.712,1.712,0,0,1,.839-.231,1.232,1.232,0,0,1,.4.056,2.8,2.8,0,0,1,.349.156q-.112.279-.143.376t-.1.385H35.7q-.1-.614-.53-.614a.976.976,0,0,0-.628.3,2.412,2.412,0,0,0-.566.813,2.608,2.608,0,0,0-.229,1.086,1.59,1.59,0,0,0,.088.506.356.356,0,0,0,.371.263,2.063,2.063,0,0,0,1.144-.67" transform="translate(-20.308 -90.224)" fill="#2d4587"/>
          </g>
        </g>
      </g>
    </g>
  </g>
</svg>
