<svg xmlns="http://www.w3.org/2000/svg" xmlns:xlink="http://www.w3.org/1999/xlink" width="121.668" height="125" viewBox="0 0 121.668 125">
  <defs>
    <clipPath id="clip-path">
      <rect id="Rectángulo_379574" data-name="Rectángulo 379574" width="65.455" height="72.402" fill="none"/>
    </clipPath>
  </defs>
  <g id="img9" transform="translate(-389 -2563)">
    <g id="Grupo_1073527" data-name="Grupo 1073527" transform="translate(0.332 -3434)">
      <g id="Grupo_1072788" data-name="Grupo 1072788" transform="translate(13.999 114.601)">
        <g id="Grupo_1072785" data-name="Grupo 1072785" transform="translate(386.668 5997)">
          <path id="Trazado_608385" data-name="Trazado 608385" d="M48.909,0C75.921,0,97.818,2.328,97.818,5.2s-21.9,5.2-48.909,5.2S0,8.071,0,5.2,21.9,0,48.909,0Z" transform="translate(0 0)" fill="none"/>
        </g>
        <g id="Grupo_1073383" data-name="Grupo 1073383" transform="translate(386.668 5997)">
          <path id="Trazado_608385-2" data-name="Trazado 608385" d="M48.909,0C75.921,0,97.818,2.328,97.818,5.2s-21.9,5.2-48.909,5.2S0,8.071,0,5.2,21.9,0,48.909,0Z" transform="translate(0 0)" fill="#11462e"/>
        </g>
      </g>
      <g id="Grupo_1073526" data-name="Grupo 1073526" transform="translate(2)">
        <g id="Grupo_1072785-2" data-name="Grupo 1072785" transform="translate(386.668 5997)">
          <path id="Trazado_608385-3" data-name="Trazado 608385" d="M60.834,0A60.834,60.834,0,1,1,0,60.834,60.834,60.834,0,0,1,60.834,0Z" transform="translate(0 0)" fill="none"/>
        </g>
        <g id="Grupo_1073383-2" data-name="Grupo 1073383" transform="translate(386.668 5997)">
          <path id="Trazado_608385-4" data-name="Trazado 608385" d="M60.834,0A60.834,60.834,0,1,1,0,60.834,60.834,60.834,0,0,1,60.834,0Z" transform="translate(0 0)" fill="#fff"/>
        </g>
      </g>
    </g>
    <g id="Grupo_1074747" data-name="Grupo 1074747">
      <rect id="Rectángulo_378255" data-name="Rectángulo 378255" width="73" height="73" transform="translate(413 2589)" fill="#fff"/>
      <g id="Grupo_1074746" data-name="Grupo 1074746" transform="translate(417 2589)">
        <g id="Grupo_1074745" data-name="Grupo 1074745" transform="translate(0 0)" clip-path="url(#clip-path)">
          <path id="Trazado_641988" data-name="Trazado 641988" d="M49.178,38.253v4.582a1.707,1.707,0,0,1-1.712,1.7H45.8V36.541h1.663a1.64,1.64,0,0,1,1.251.576h.017a1.665,1.665,0,0,1,.444,1.136" transform="translate(-11.26 -8.983)" fill="#efc7a4"/>
          <path id="Trazado_641989" data-name="Trazado 641989" d="M15.976,36.54v7.99H14.313a1.708,1.708,0,0,1-1.712-1.7V38.252a1.665,1.665,0,0,1,.444-1.136h.017a1.644,1.644,0,0,1,1.251-.576Z" transform="translate(-3.098 -8.982)" fill="#efc7a4"/>
          <path id="Trazado_641990" data-name="Trazado 641990" d="M40.478,31.065h-.013a1.656,1.656,0,0,0-1.256-.575h-1.66v-.562a9.348,9.348,0,0,0-1.183-4.662,7.027,7.027,0,0,0-3.635-3.229,1.031,1.031,0,0,0-1.392.98c.059,1.5-.641,3.616-5.3,2.864-5.6-1.928-9.832-3.112-10.159,2.582v2.026h-1.66a1.656,1.656,0,0,0-1.256.575h-.013c-2.072-6.459.164-15.218,8.211-18.148a17.2,17.2,0,0,1,5.55-1,17.2,17.2,0,0,1,5.551,1c8.047,2.929,10.283,11.689,8.211,18.148" transform="translate(-3.006 -2.929)" fill="#656d78"/>
          <path id="Trazado_641991" data-name="Trazado 641991" d="M35.847,6.539a5.037,5.037,0,0,1-.03.588,6.375,6.375,0,0,1-.958,2.858,17.218,17.218,0,0,0-5.551-1,17.218,17.218,0,0,0-5.551,1A6.375,6.375,0,0,1,22.8,7.127a5.036,5.036,0,0,1-.03-.588,6.539,6.539,0,1,1,13.077,0" transform="translate(-5.598 0)" fill="#656d78"/>
          <path id="Trazado_641992" data-name="Trazado 641992" d="M35.827,9.074a6.375,6.375,0,0,1-.958,2.858,17.218,17.218,0,0,0-5.551-1,17.218,17.218,0,0,0-5.551,1,6.375,6.375,0,0,1-.958-2.858A20.312,20.312,0,0,1,29.243,7.92h.151a20.39,20.39,0,0,1,6.433,1.154" transform="translate(-5.607 -1.947)" fill="#434a54"/>
          <path id="Trazado_641993" data-name="Trazado 641993" d="M36.285,56.59v5.686a14.141,14.141,0,0,1-14.375,0V56.59a11,11,0,0,0,5.769,2.549l.415.045a12.724,12.724,0,0,0,2.006,0l.415-.045c.121-.015.234-.038.354-.053a.382.382,0,0,1,.1-.015c.264-.045.52-.1.784-.166s.535-.143.807-.226c.128-.045.264-.09.4-.143s.264-.1.392-.151l.362-.158a10.1,10.1,0,0,0,1.523-.845c.121-.083.241-.158.354-.249s.241-.173.354-.264a3.684,3.684,0,0,0,.339-.279" transform="translate(-5.386 -13.911)" fill="#efc7a4"/>
          <path id="Trazado_641994" data-name="Trazado 641994" d="M38.741,33.28v8.343a8.73,8.73,0,0,1-1.98,5.53c-.014.017-.027.034-.043.052a11.557,11.557,0,0,1-1.327,1.43,11.147,11.147,0,0,1-14.967,0A11.62,11.62,0,0,1,19.1,47.2l-.042-.052a8.727,8.727,0,0,1-1.98-5.53V31.741c.327-5.7,4.563-4.514,10.159-2.587,4.656.756,5.352-1.362,5.3-2.864a1.032,1.032,0,0,1,1.393-.979,7.033,7.033,0,0,1,3.633,3.229,9.5,9.5,0,0,1,1.185,4.739" transform="translate(-4.197 -6.206)" fill="#f4d0b5"/>
          <path id="Trazado_641995" data-name="Trazado 641995" d="M41.675,33.281v8.341A8.732,8.732,0,0,1,39.7,47.15a.328.328,0,0,1-.045.053,10.944,10.944,0,0,1-1.327,1.433,11.139,11.139,0,0,1-9.306,2.738,11.138,11.138,0,0,0,5.656-2.738A12.088,12.088,0,0,0,36,47.2a.319.319,0,0,0,.038-.053,8.7,8.7,0,0,0,1.983-5.528V33.281a9.528,9.528,0,0,0-1.184-4.744,8.206,8.206,0,0,0-1.388-1.795,3.091,3.091,0,0,0,.015-.453,1.034,1.034,0,0,1,1.4-.98,7.037,7.037,0,0,1,3.628,3.228,9.449,9.449,0,0,1,1.184,4.744" transform="translate(-7.134 -6.206)" fill="#efc7a4"/>
          <path id="Trazado_641996" data-name="Trazado 641996" d="M47.46,78.708v9.457H0V78.708A14.588,14.588,0,0,1,14.6,64.13h1.923a15.3,15.3,0,0,0,5.883,1.893,13.038,13.038,0,0,0,1.327.068q.679,0,1.358-.068a15.354,15.354,0,0,0,5.837-1.893h1.931a14.588,14.588,0,0,1,14.6,14.578" transform="translate(0 -15.765)" fill="#196442"/>
          <path id="Trazado_641997" data-name="Trazado 641997" d="M47.46,79.544V89H0V85.291H35.371a8.375,8.375,0,0,0,8.379-8.379V75.856A14.527,14.527,0,0,0,41.14,67.53a14.568,14.568,0,0,1,6.32,12.014" transform="translate(0 -16.6)" fill="#11462e"/>
          <path id="Trazado_641998" data-name="Trazado 641998" d="M36.283,64.124l-5.472,9.494a1.962,1.962,0,0,1-3.4,0l-5.5-9.5a14.113,14.113,0,0,0,14.371,0" transform="translate(-5.387 -15.763)" fill="#f4f6f8"/>
          <path id="Trazado_641999" data-name="Trazado 641999" d="M10.969,81.4v10.83H9.461V81.4a.754.754,0,1,1,1.508,0" transform="translate(-2.326 -19.824)" fill="#fff"/>
          <rect id="Rectángulo_379573" data-name="Rectángulo 379573" width="25.883" height="29.858" transform="translate(39.572 42.544)" fill="#f4f6f8"/>
          <path id="Trazado_642000" data-name="Trazado 642000" d="M73.949,68.464a.536.536,0,0,1-.023.158l-.03.121-.814,3.673A.749.749,0,0,1,72.35,73a1.234,1.234,0,0,1-.166-.015.759.759,0,0,1-.573-.905l.287-1.259L62.41,80.312a.755.755,0,0,1-1.071-1.063l9.487-9.487-1.259.279a.744.744,0,0,1-.9-.566.759.759,0,0,1,.573-.905l3.786-.845h.015a.65.65,0,0,1,.43.038.758.758,0,0,1,.249.166.862.862,0,0,1,.166.241.573.573,0,0,1,.03.083.681.681,0,0,1,.03.211" transform="translate(-15.025 -16.643)" fill="#434a54"/>
          <path id="Trazado_642001" data-name="Trazado 642001" d="M78.354,56.412V86.27H52.471V83.4H60A15.482,15.482,0,0,0,75.481,67.913v-11.5Z" transform="translate(-12.899 -13.867)" fill="#e4e8eb"/>
          <path id="Trazado_642002" data-name="Trazado 642002" d="M62.9,85.777H58.689V81.569A4.21,4.21,0,0,1,62.9,85.777" transform="translate(-14.427 -20.052)" fill="#6fd9fb"/>
          <path id="Trazado_642003" data-name="Trazado 642003" d="M76.961,79.047v3.733a.754.754,0,0,1-1.508,0V81.672H57.836a.756.756,0,0,1-.754-.754V63.3H55.965a.754.754,0,0,1,0-1.508H59.7a.754.754,0,1,1,0,1.508H58.59V80.164H75.453V79.047a.754.754,0,0,1,1.508,0" transform="translate(-13.572 -15.19)" fill="#434a54"/>
        </g>
      </g>
    </g>
  </g>
</svg>
