<svg xmlns="http://www.w3.org/2000/svg" width="32.582" height="26.066" viewBox="0 0 32.582 26.066">
  <path id="chalkboard-user-solid" d="M8.146,3.258A3.261,3.261,0,0,1,11.4,0h17.92a3.261,3.261,0,0,1,3.258,3.258V17.92a3.261,3.261,0,0,1-3.258,3.258H17.146a8.438,8.438,0,0,0-2.668-3.258h5.071V16.291a1.627,1.627,0,0,1,1.629-1.629h3.258a1.627,1.627,0,0,1,1.629,1.629V17.92h3.258V3.258H11.4v2.5a6.479,6.479,0,0,0-3.258-.871Zm0,3.258A4.887,4.887,0,1,1,3.258,11.4,4.887,4.887,0,0,1,8.146,6.516ZM6.786,17.92H9.5a6.789,6.789,0,0,1,6.791,6.786,1.359,1.359,0,0,1-1.359,1.359H1.359A1.356,1.356,0,0,1,0,24.706,6.788,6.788,0,0,1,6.786,17.92Z" fill="#12263f"/>
</svg>
